%TF.GenerationSoftware,KiCad,Pcbnew,8.0.2*%
%TF.CreationDate,2024-06-06T15:04:45+02:00*%
%TF.ProjectId,wii_breakout,7769695f-6272-4656-916b-6f75742e6b69,rev?*%
%TF.SameCoordinates,Original*%
%TF.FileFunction,Legend,Top*%
%TF.FilePolarity,Positive*%
%FSLAX46Y46*%
G04 Gerber Fmt 4.6, Leading zero omitted, Abs format (unit mm)*
G04 Created by KiCad (PCBNEW 8.0.2) date 2024-06-06 15:04:45*
%MOMM*%
%LPD*%
G01*
G04 APERTURE LIST*
%ADD10C,0.100000*%
%ADD11C,0.150000*%
%ADD12C,0.120000*%
G04 APERTURE END LIST*
D10*
X134556919Y-75802772D02*
X135556919Y-75469439D01*
X135556919Y-75469439D02*
X134556919Y-75136106D01*
X135461680Y-74231344D02*
X135509300Y-74278963D01*
X135509300Y-74278963D02*
X135556919Y-74421820D01*
X135556919Y-74421820D02*
X135556919Y-74517058D01*
X135556919Y-74517058D02*
X135509300Y-74659915D01*
X135509300Y-74659915D02*
X135414061Y-74755153D01*
X135414061Y-74755153D02*
X135318823Y-74802772D01*
X135318823Y-74802772D02*
X135128347Y-74850391D01*
X135128347Y-74850391D02*
X134985490Y-74850391D01*
X134985490Y-74850391D02*
X134795014Y-74802772D01*
X134795014Y-74802772D02*
X134699776Y-74755153D01*
X134699776Y-74755153D02*
X134604538Y-74659915D01*
X134604538Y-74659915D02*
X134556919Y-74517058D01*
X134556919Y-74517058D02*
X134556919Y-74421820D01*
X134556919Y-74421820D02*
X134604538Y-74278963D01*
X134604538Y-74278963D02*
X134652157Y-74231344D01*
X135461680Y-73231344D02*
X135509300Y-73278963D01*
X135509300Y-73278963D02*
X135556919Y-73421820D01*
X135556919Y-73421820D02*
X135556919Y-73517058D01*
X135556919Y-73517058D02*
X135509300Y-73659915D01*
X135509300Y-73659915D02*
X135414061Y-73755153D01*
X135414061Y-73755153D02*
X135318823Y-73802772D01*
X135318823Y-73802772D02*
X135128347Y-73850391D01*
X135128347Y-73850391D02*
X134985490Y-73850391D01*
X134985490Y-73850391D02*
X134795014Y-73802772D01*
X134795014Y-73802772D02*
X134699776Y-73755153D01*
X134699776Y-73755153D02*
X134604538Y-73659915D01*
X134604538Y-73659915D02*
X134556919Y-73517058D01*
X134556919Y-73517058D02*
X134556919Y-73421820D01*
X134556919Y-73421820D02*
X134604538Y-73278963D01*
X134604538Y-73278963D02*
X134652157Y-73231344D01*
X130429300Y-75707534D02*
X130476919Y-75564677D01*
X130476919Y-75564677D02*
X130476919Y-75326582D01*
X130476919Y-75326582D02*
X130429300Y-75231344D01*
X130429300Y-75231344D02*
X130381680Y-75183725D01*
X130381680Y-75183725D02*
X130286442Y-75136106D01*
X130286442Y-75136106D02*
X130191204Y-75136106D01*
X130191204Y-75136106D02*
X130095966Y-75183725D01*
X130095966Y-75183725D02*
X130048347Y-75231344D01*
X130048347Y-75231344D02*
X130000728Y-75326582D01*
X130000728Y-75326582D02*
X129953109Y-75517058D01*
X129953109Y-75517058D02*
X129905490Y-75612296D01*
X129905490Y-75612296D02*
X129857871Y-75659915D01*
X129857871Y-75659915D02*
X129762633Y-75707534D01*
X129762633Y-75707534D02*
X129667395Y-75707534D01*
X129667395Y-75707534D02*
X129572157Y-75659915D01*
X129572157Y-75659915D02*
X129524538Y-75612296D01*
X129524538Y-75612296D02*
X129476919Y-75517058D01*
X129476919Y-75517058D02*
X129476919Y-75278963D01*
X129476919Y-75278963D02*
X129524538Y-75136106D01*
X130476919Y-74707534D02*
X129476919Y-74707534D01*
X129476919Y-74707534D02*
X129476919Y-74469439D01*
X129476919Y-74469439D02*
X129524538Y-74326582D01*
X129524538Y-74326582D02*
X129619776Y-74231344D01*
X129619776Y-74231344D02*
X129715014Y-74183725D01*
X129715014Y-74183725D02*
X129905490Y-74136106D01*
X129905490Y-74136106D02*
X130048347Y-74136106D01*
X130048347Y-74136106D02*
X130238823Y-74183725D01*
X130238823Y-74183725D02*
X130334061Y-74231344D01*
X130334061Y-74231344D02*
X130429300Y-74326582D01*
X130429300Y-74326582D02*
X130476919Y-74469439D01*
X130476919Y-74469439D02*
X130476919Y-74707534D01*
X130191204Y-73755153D02*
X130191204Y-73278963D01*
X130476919Y-73850391D02*
X129476919Y-73517058D01*
X129476919Y-73517058D02*
X130476919Y-73183725D01*
X138049300Y-75707534D02*
X138096919Y-75564677D01*
X138096919Y-75564677D02*
X138096919Y-75326582D01*
X138096919Y-75326582D02*
X138049300Y-75231344D01*
X138049300Y-75231344D02*
X138001680Y-75183725D01*
X138001680Y-75183725D02*
X137906442Y-75136106D01*
X137906442Y-75136106D02*
X137811204Y-75136106D01*
X137811204Y-75136106D02*
X137715966Y-75183725D01*
X137715966Y-75183725D02*
X137668347Y-75231344D01*
X137668347Y-75231344D02*
X137620728Y-75326582D01*
X137620728Y-75326582D02*
X137573109Y-75517058D01*
X137573109Y-75517058D02*
X137525490Y-75612296D01*
X137525490Y-75612296D02*
X137477871Y-75659915D01*
X137477871Y-75659915D02*
X137382633Y-75707534D01*
X137382633Y-75707534D02*
X137287395Y-75707534D01*
X137287395Y-75707534D02*
X137192157Y-75659915D01*
X137192157Y-75659915D02*
X137144538Y-75612296D01*
X137144538Y-75612296D02*
X137096919Y-75517058D01*
X137096919Y-75517058D02*
X137096919Y-75278963D01*
X137096919Y-75278963D02*
X137144538Y-75136106D01*
X138001680Y-74136106D02*
X138049300Y-74183725D01*
X138049300Y-74183725D02*
X138096919Y-74326582D01*
X138096919Y-74326582D02*
X138096919Y-74421820D01*
X138096919Y-74421820D02*
X138049300Y-74564677D01*
X138049300Y-74564677D02*
X137954061Y-74659915D01*
X137954061Y-74659915D02*
X137858823Y-74707534D01*
X137858823Y-74707534D02*
X137668347Y-74755153D01*
X137668347Y-74755153D02*
X137525490Y-74755153D01*
X137525490Y-74755153D02*
X137335014Y-74707534D01*
X137335014Y-74707534D02*
X137239776Y-74659915D01*
X137239776Y-74659915D02*
X137144538Y-74564677D01*
X137144538Y-74564677D02*
X137096919Y-74421820D01*
X137096919Y-74421820D02*
X137096919Y-74326582D01*
X137096919Y-74326582D02*
X137144538Y-74183725D01*
X137144538Y-74183725D02*
X137192157Y-74136106D01*
X138096919Y-73231344D02*
X138096919Y-73707534D01*
X138096919Y-73707534D02*
X137096919Y-73707534D01*
X133016919Y-75659915D02*
X132016919Y-75659915D01*
X132016919Y-75659915D02*
X132016919Y-75421820D01*
X132016919Y-75421820D02*
X132064538Y-75278963D01*
X132064538Y-75278963D02*
X132159776Y-75183725D01*
X132159776Y-75183725D02*
X132255014Y-75136106D01*
X132255014Y-75136106D02*
X132445490Y-75088487D01*
X132445490Y-75088487D02*
X132588347Y-75088487D01*
X132588347Y-75088487D02*
X132778823Y-75136106D01*
X132778823Y-75136106D02*
X132874061Y-75183725D01*
X132874061Y-75183725D02*
X132969300Y-75278963D01*
X132969300Y-75278963D02*
X133016919Y-75421820D01*
X133016919Y-75421820D02*
X133016919Y-75659915D01*
X133016919Y-74659915D02*
X132016919Y-74659915D01*
X132016919Y-74659915D02*
X132016919Y-74421820D01*
X132016919Y-74421820D02*
X132064538Y-74278963D01*
X132064538Y-74278963D02*
X132159776Y-74183725D01*
X132159776Y-74183725D02*
X132255014Y-74136106D01*
X132255014Y-74136106D02*
X132445490Y-74088487D01*
X132445490Y-74088487D02*
X132588347Y-74088487D01*
X132588347Y-74088487D02*
X132778823Y-74136106D01*
X132778823Y-74136106D02*
X132874061Y-74183725D01*
X132874061Y-74183725D02*
X132969300Y-74278963D01*
X132969300Y-74278963D02*
X133016919Y-74421820D01*
X133016919Y-74421820D02*
X133016919Y-74659915D01*
X126984538Y-75136106D02*
X126936919Y-75231344D01*
X126936919Y-75231344D02*
X126936919Y-75374201D01*
X126936919Y-75374201D02*
X126984538Y-75517058D01*
X126984538Y-75517058D02*
X127079776Y-75612296D01*
X127079776Y-75612296D02*
X127175014Y-75659915D01*
X127175014Y-75659915D02*
X127365490Y-75707534D01*
X127365490Y-75707534D02*
X127508347Y-75707534D01*
X127508347Y-75707534D02*
X127698823Y-75659915D01*
X127698823Y-75659915D02*
X127794061Y-75612296D01*
X127794061Y-75612296D02*
X127889300Y-75517058D01*
X127889300Y-75517058D02*
X127936919Y-75374201D01*
X127936919Y-75374201D02*
X127936919Y-75278963D01*
X127936919Y-75278963D02*
X127889300Y-75136106D01*
X127889300Y-75136106D02*
X127841680Y-75088487D01*
X127841680Y-75088487D02*
X127508347Y-75088487D01*
X127508347Y-75088487D02*
X127508347Y-75278963D01*
X127936919Y-74659915D02*
X126936919Y-74659915D01*
X126936919Y-74659915D02*
X127936919Y-74088487D01*
X127936919Y-74088487D02*
X126936919Y-74088487D01*
X127936919Y-73612296D02*
X126936919Y-73612296D01*
X126936919Y-73612296D02*
X126936919Y-73374201D01*
X126936919Y-73374201D02*
X126984538Y-73231344D01*
X126984538Y-73231344D02*
X127079776Y-73136106D01*
X127079776Y-73136106D02*
X127175014Y-73088487D01*
X127175014Y-73088487D02*
X127365490Y-73040868D01*
X127365490Y-73040868D02*
X127508347Y-73040868D01*
X127508347Y-73040868D02*
X127698823Y-73088487D01*
X127698823Y-73088487D02*
X127794061Y-73136106D01*
X127794061Y-73136106D02*
X127889300Y-73231344D01*
X127889300Y-73231344D02*
X127936919Y-73374201D01*
X127936919Y-73374201D02*
X127936919Y-73612296D01*
D11*
X129914524Y-58387780D02*
X129866905Y-58435400D01*
X129866905Y-58435400D02*
X129724048Y-58483019D01*
X129724048Y-58483019D02*
X129628810Y-58483019D01*
X129628810Y-58483019D02*
X129485953Y-58435400D01*
X129485953Y-58435400D02*
X129390715Y-58340161D01*
X129390715Y-58340161D02*
X129343096Y-58244923D01*
X129343096Y-58244923D02*
X129295477Y-58054447D01*
X129295477Y-58054447D02*
X129295477Y-57911590D01*
X129295477Y-57911590D02*
X129343096Y-57721114D01*
X129343096Y-57721114D02*
X129390715Y-57625876D01*
X129390715Y-57625876D02*
X129485953Y-57530638D01*
X129485953Y-57530638D02*
X129628810Y-57483019D01*
X129628810Y-57483019D02*
X129724048Y-57483019D01*
X129724048Y-57483019D02*
X129866905Y-57530638D01*
X129866905Y-57530638D02*
X129914524Y-57578257D01*
X130533572Y-57483019D02*
X130724048Y-57483019D01*
X130724048Y-57483019D02*
X130819286Y-57530638D01*
X130819286Y-57530638D02*
X130914524Y-57625876D01*
X130914524Y-57625876D02*
X130962143Y-57816352D01*
X130962143Y-57816352D02*
X130962143Y-58149685D01*
X130962143Y-58149685D02*
X130914524Y-58340161D01*
X130914524Y-58340161D02*
X130819286Y-58435400D01*
X130819286Y-58435400D02*
X130724048Y-58483019D01*
X130724048Y-58483019D02*
X130533572Y-58483019D01*
X130533572Y-58483019D02*
X130438334Y-58435400D01*
X130438334Y-58435400D02*
X130343096Y-58340161D01*
X130343096Y-58340161D02*
X130295477Y-58149685D01*
X130295477Y-58149685D02*
X130295477Y-57816352D01*
X130295477Y-57816352D02*
X130343096Y-57625876D01*
X130343096Y-57625876D02*
X130438334Y-57530638D01*
X130438334Y-57530638D02*
X130533572Y-57483019D01*
X131390715Y-58483019D02*
X131390715Y-57483019D01*
X131390715Y-57483019D02*
X131962143Y-58483019D01*
X131962143Y-58483019D02*
X131962143Y-57483019D01*
X132438334Y-58483019D02*
X132438334Y-57483019D01*
X132438334Y-57483019D02*
X133009762Y-58483019D01*
X133009762Y-58483019D02*
X133009762Y-57483019D01*
X133247858Y-58578257D02*
X134009762Y-58578257D01*
X134152620Y-57483019D02*
X134390715Y-58483019D01*
X134390715Y-58483019D02*
X134581191Y-57768733D01*
X134581191Y-57768733D02*
X134771667Y-58483019D01*
X134771667Y-58483019D02*
X135009763Y-57483019D01*
X135390715Y-58483019D02*
X135390715Y-57483019D01*
X135866905Y-58483019D02*
X135866905Y-57483019D01*
D12*
%TO.C,REF\u002A\u002A*%
X126200000Y-79579800D02*
X126200000Y-78249800D01*
X127530000Y-79579800D02*
X126200000Y-79579800D01*
X128800000Y-76919800D02*
X139020000Y-76919800D01*
X128800000Y-79579800D02*
X128800000Y-76919800D01*
X128800000Y-79579800D02*
X139020000Y-79579800D01*
X139020000Y-79579800D02*
X139020000Y-76919800D01*
D11*
%TO.C,P1*%
X126255000Y-53670200D02*
X138955000Y-53670200D01*
X126255000Y-55956200D02*
X126255000Y-53670200D01*
X126255000Y-61290200D02*
X126255000Y-60020200D01*
X126255000Y-67386200D02*
X126255000Y-65354200D01*
X138955000Y-53670200D02*
X138955000Y-55956200D01*
X138955000Y-61290200D02*
X138955000Y-60020200D01*
X138955000Y-67386200D02*
X126255000Y-67386200D01*
X138955000Y-67386200D02*
X138955000Y-65354200D01*
%TD*%
M02*
