%TF.GenerationSoftware,KiCad,Pcbnew,8.0.2*%
%TF.CreationDate,2024-06-06T15:04:45+02:00*%
%TF.ProjectId,wii_breakout,7769695f-6272-4656-916b-6f75742e6b69,rev?*%
%TF.SameCoordinates,Original*%
%TF.FileFunction,Copper,L1,Top*%
%TF.FilePolarity,Positive*%
%FSLAX46Y46*%
G04 Gerber Fmt 4.6, Leading zero omitted, Abs format (unit mm)*
G04 Created by KiCad (PCBNEW 8.0.2) date 2024-06-06 15:04:45*
%MOMM*%
%LPD*%
G01*
G04 APERTURE LIST*
%TA.AperFunction,NonConductor*%
%ADD10C,0.200000*%
%TD*%
%TA.AperFunction,ComponentPad*%
%ADD11R,1.700000X1.700000*%
%TD*%
%TA.AperFunction,ComponentPad*%
%ADD12O,1.700000X1.700000*%
%TD*%
%TA.AperFunction,ComponentPad*%
%ADD13C,3.048000*%
%TD*%
%TA.AperFunction,ComponentPad*%
%ADD14C,1.270000*%
%TD*%
%TA.AperFunction,Conductor*%
%ADD15C,0.500000*%
%TD*%
G04 APERTURE END LIST*
D10*
X123605000Y-53686200D02*
X141605000Y-53686200D01*
X141605000Y-81686200D01*
X123605000Y-81686200D01*
X123605000Y-53686200D01*
D11*
%TO.P,REF\u002A\u002A,1*%
%TO.N,N/C*%
X127530000Y-78249800D03*
D12*
%TO.P,REF\u002A\u002A,2*%
X130070000Y-78249800D03*
%TO.P,REF\u002A\u002A,3*%
X132610000Y-78249800D03*
%TO.P,REF\u002A\u002A,4*%
X135150000Y-78249800D03*
%TO.P,REF\u002A\u002A,5*%
X137690000Y-78249800D03*
%TD*%
D13*
%TO.P,P1,*%
%TO.N,*%
X126255000Y-57988200D03*
X126255000Y-63322200D03*
X138955000Y-57988200D03*
X138955000Y-63322200D03*
D14*
%TO.P,P1,1*%
%TO.N,N/C*%
X134510000Y-66116200D03*
%TO.P,P1,2*%
X134510000Y-64211200D03*
%TO.P,P1,3*%
X132605000Y-66116200D03*
%TO.P,P1,4*%
X132605000Y-64211200D03*
%TO.P,P1,5*%
X130700000Y-66116200D03*
%TO.P,P1,6*%
X130700000Y-64211200D03*
%TD*%
D15*
%TO.N,*%
X130700000Y-66116200D02*
X130700000Y-77619800D01*
X132605000Y-78244800D02*
X132610000Y-78249800D01*
X127530000Y-67381200D02*
X127530000Y-78249800D01*
X134510000Y-66116200D02*
X134510000Y-77609800D01*
X134510000Y-77609800D02*
X135150000Y-78249800D01*
X134510000Y-64211200D02*
X137690000Y-67391200D01*
X132605000Y-66116200D02*
X132605000Y-78244800D01*
X130700000Y-77619800D02*
X130070000Y-78249800D01*
X130700000Y-64211200D02*
X127530000Y-67381200D01*
X137690000Y-67391200D02*
X137690000Y-78249800D01*
%TD*%
M02*
