M48
; DRILL file {KiCad 8.0.2} date 2024-06-06T15:06:56+0200
; FORMAT={-:-/ absolute / inch / decimal}
; #@! TF.CreationDate,2024-06-06T15:06:56+02:00
; #@! TF.GenerationSoftware,Kicad,Pcbnew,8.0.2
; #@! TF.FileFunction,Plated,1,2,PTH
FMAT,2
INCH
; #@! TA.AperFunction,Plated,PTH,ComponentDrill
T1C0.0250
; #@! TA.AperFunction,Plated,PTH,ComponentDrill
T2C0.0315
; #@! TA.AperFunction,Plated,PTH,ComponentDrill
T3C0.0394
; #@! TA.AperFunction,Plated,PTH,ComponentDrill
T4C0.0472
; #@! TA.AperFunction,Plated,PTH,ComponentDrill
T5C0.0750
%
G90
G05
T1
X4.1919Y-3.18
X4.1919Y-3.255
X4.2669Y-3.18
X4.2669Y-3.255
X4.3419Y-3.18
X4.3419Y-3.255
T2
X4.87Y-3.29
X4.87Y-3.4278
T3
X4.1172Y-1.7569
X4.2172Y-1.7569
X4.3172Y-1.7569
X4.4172Y-1.7569
X5.2Y-1.77
X5.2Y-1.87
X5.2Y-1.97
X5.2Y-2.07
X5.2Y-2.17
X5.2Y-2.27
X5.2Y-2.37
X5.2Y-2.47
X5.2Y-2.57
X5.2Y-2.67
X5.2Y-2.77
X5.2Y-2.87
X5.2Y-2.97
X5.2Y-3.07
X5.2Y-3.17
X5.2Y-3.27
X5.2Y-3.37
X5.2Y-3.47
X5.2Y-3.57
X5.3969Y-1.77
X5.3969Y-1.87
X5.3969Y-1.97
X5.3969Y-2.07
X5.3969Y-2.17
X5.3969Y-2.27
X5.3969Y-2.37
X5.3969Y-2.47
X5.3969Y-2.57
X5.3969Y-2.67
X5.3969Y-2.77
X5.3969Y-2.87
X5.3969Y-2.97
X5.3969Y-3.07
X5.3969Y-3.17
X5.3969Y-3.27
X5.3969Y-3.37
X5.3969Y-3.47
X5.3969Y-3.57
X6.4969Y-1.77
X6.4969Y-1.87
X6.4969Y-1.97
X6.4969Y-2.07
X6.4969Y-2.17
X6.4969Y-2.27
X6.4969Y-2.37
X6.4969Y-2.47
X6.4969Y-2.57
X6.4969Y-2.67
X6.4969Y-2.77
X6.4969Y-2.87
X6.4969Y-2.97
X6.4969Y-3.07
X6.4969Y-3.17
X6.4969Y-3.27
X6.4969Y-3.37
X6.4969Y-3.47
X6.4969Y-3.57
X6.6937Y-1.77
X6.6937Y-1.87
X6.6937Y-1.97
X6.6937Y-2.07
X6.6937Y-2.17
X6.6937Y-2.27
X6.6937Y-2.37
X6.6937Y-2.47
X6.6937Y-2.57
X6.6937Y-2.67
X6.6937Y-2.77
X6.6937Y-2.87
X6.6937Y-2.97
X6.6937Y-3.07
X6.6937Y-3.17
X6.6937Y-3.27
X6.6937Y-3.37
X6.6937Y-3.47
X6.6937Y-3.57
X6.968Y-1.84
X6.968Y-1.94
X6.968Y-2.04
X6.968Y-2.14
X7.068Y-1.84
X7.068Y-1.94
X7.068Y-2.04
X7.068Y-2.14
X8.4537Y-1.74
X8.4537Y-1.84
X8.4537Y-1.94
X8.4537Y-2.04
X8.4537Y-2.14
X8.4537Y-2.24
T4
X7.123Y-2.7201
X7.2805Y-2.7201
X7.4379Y-2.7201
X7.5954Y-2.7201
X7.7529Y-2.7201
X7.9104Y-2.7201
X8.0679Y-2.7201
X8.2253Y-2.7201
X8.3828Y-2.7201
T5
X4.0169Y-3.29
X4.0169Y-3.5
X4.5169Y-3.29
X4.5169Y-3.5
M30
