%TF.GenerationSoftware,KiCad,Pcbnew,8.0.2*%
%TF.CreationDate,2024-06-06T15:06:54+02:00*%
%TF.ProjectId,3v radio,33762072-6164-4696-9f2e-6b696361645f,rev?*%
%TF.SameCoordinates,Original*%
%TF.FileFunction,Legend,Top*%
%TF.FilePolarity,Positive*%
%FSLAX46Y46*%
G04 Gerber Fmt 4.6, Leading zero omitted, Abs format (unit mm)*
G04 Created by KiCad (PCBNEW 8.0.2) date 2024-06-06 15:06:54*
%MOMM*%
%LPD*%
G01*
G04 APERTURE LIST*
%ADD10C,0.150000*%
%ADD11C,0.120000*%
%ADD12C,0.100000*%
G04 APERTURE END LIST*
D10*
X108116095Y-88934866D02*
X108163714Y-88887247D01*
X108163714Y-88887247D02*
X108258952Y-88839628D01*
X108258952Y-88839628D02*
X108449428Y-88934866D01*
X108449428Y-88934866D02*
X108544666Y-88887247D01*
X108544666Y-88887247D02*
X108592285Y-88839628D01*
X118807580Y-85482666D02*
X118855200Y-85530285D01*
X118855200Y-85530285D02*
X118902819Y-85673142D01*
X118902819Y-85673142D02*
X118902819Y-85768380D01*
X118902819Y-85768380D02*
X118855200Y-85911237D01*
X118855200Y-85911237D02*
X118759961Y-86006475D01*
X118759961Y-86006475D02*
X118664723Y-86054094D01*
X118664723Y-86054094D02*
X118474247Y-86101713D01*
X118474247Y-86101713D02*
X118331390Y-86101713D01*
X118331390Y-86101713D02*
X118140914Y-86054094D01*
X118140914Y-86054094D02*
X118045676Y-86006475D01*
X118045676Y-86006475D02*
X117950438Y-85911237D01*
X117950438Y-85911237D02*
X117902819Y-85768380D01*
X117902819Y-85768380D02*
X117902819Y-85673142D01*
X117902819Y-85673142D02*
X117950438Y-85530285D01*
X117950438Y-85530285D02*
X117998057Y-85482666D01*
X118902819Y-84530285D02*
X118902819Y-85101713D01*
X118902819Y-84815999D02*
X117902819Y-84815999D01*
X117902819Y-84815999D02*
X118045676Y-84911237D01*
X118045676Y-84911237D02*
X118140914Y-85006475D01*
X118140914Y-85006475D02*
X118188533Y-85101713D01*
X189698205Y-66182292D02*
X189745825Y-66229911D01*
X189745825Y-66229911D02*
X189793444Y-66372768D01*
X189793444Y-66372768D02*
X189793444Y-66468006D01*
X189793444Y-66468006D02*
X189745825Y-66610863D01*
X189745825Y-66610863D02*
X189650586Y-66706101D01*
X189650586Y-66706101D02*
X189555348Y-66753720D01*
X189555348Y-66753720D02*
X189364872Y-66801339D01*
X189364872Y-66801339D02*
X189222015Y-66801339D01*
X189222015Y-66801339D02*
X189031539Y-66753720D01*
X189031539Y-66753720D02*
X188936301Y-66706101D01*
X188936301Y-66706101D02*
X188841063Y-66610863D01*
X188841063Y-66610863D02*
X188793444Y-66468006D01*
X188793444Y-66468006D02*
X188793444Y-66372768D01*
X188793444Y-66372768D02*
X188841063Y-66229911D01*
X188841063Y-66229911D02*
X188888682Y-66182292D01*
X189793444Y-65277530D02*
X189793444Y-65753720D01*
X189793444Y-65753720D02*
X188793444Y-65753720D01*
X189793444Y-64944196D02*
X188793444Y-64944196D01*
X189793444Y-64372768D02*
X189222015Y-64801339D01*
X188793444Y-64372768D02*
X189364872Y-64944196D01*
X193507729Y-66801339D02*
X193507729Y-66325149D01*
X193793444Y-66896577D02*
X192793444Y-66563244D01*
X192793444Y-66563244D02*
X193793444Y-66229911D01*
X192793444Y-66039434D02*
X192793444Y-65468006D01*
X193793444Y-65753720D02*
X192793444Y-65753720D01*
X192793444Y-65277529D02*
X192793444Y-64706101D01*
X193793444Y-64991815D02*
X192793444Y-64991815D01*
X193793444Y-64372767D02*
X192793444Y-64372767D01*
X192793444Y-64372767D02*
X193793444Y-63801339D01*
X193793444Y-63801339D02*
X192793444Y-63801339D01*
X181507729Y-66801339D02*
X181507729Y-66325149D01*
X181793444Y-66896577D02*
X180793444Y-66563244D01*
X180793444Y-66563244D02*
X181793444Y-66229911D01*
X181698205Y-65325149D02*
X181745825Y-65372768D01*
X181745825Y-65372768D02*
X181793444Y-65515625D01*
X181793444Y-65515625D02*
X181793444Y-65610863D01*
X181793444Y-65610863D02*
X181745825Y-65753720D01*
X181745825Y-65753720D02*
X181650586Y-65848958D01*
X181650586Y-65848958D02*
X181555348Y-65896577D01*
X181555348Y-65896577D02*
X181364872Y-65944196D01*
X181364872Y-65944196D02*
X181222015Y-65944196D01*
X181222015Y-65944196D02*
X181031539Y-65896577D01*
X181031539Y-65896577D02*
X180936301Y-65848958D01*
X180936301Y-65848958D02*
X180841063Y-65753720D01*
X180841063Y-65753720D02*
X180793444Y-65610863D01*
X180793444Y-65610863D02*
X180793444Y-65515625D01*
X180793444Y-65515625D02*
X180841063Y-65372768D01*
X180841063Y-65372768D02*
X180888682Y-65325149D01*
X181793444Y-64896577D02*
X180793444Y-64896577D01*
X181793444Y-64325149D02*
X181222015Y-64753720D01*
X180793444Y-64325149D02*
X181364872Y-64896577D01*
X213793444Y-66753720D02*
X212793444Y-66753720D01*
X212793444Y-66753720D02*
X212793444Y-66515625D01*
X212793444Y-66515625D02*
X212841063Y-66372768D01*
X212841063Y-66372768D02*
X212936301Y-66277530D01*
X212936301Y-66277530D02*
X213031539Y-66229911D01*
X213031539Y-66229911D02*
X213222015Y-66182292D01*
X213222015Y-66182292D02*
X213364872Y-66182292D01*
X213364872Y-66182292D02*
X213555348Y-66229911D01*
X213555348Y-66229911D02*
X213650586Y-66277530D01*
X213650586Y-66277530D02*
X213745825Y-66372768D01*
X213745825Y-66372768D02*
X213793444Y-66515625D01*
X213793444Y-66515625D02*
X213793444Y-66753720D01*
X213507729Y-65801339D02*
X213507729Y-65325149D01*
X213793444Y-65896577D02*
X212793444Y-65563244D01*
X212793444Y-65563244D02*
X213793444Y-65229911D01*
X212793444Y-65039434D02*
X212793444Y-64468006D01*
X213793444Y-64753720D02*
X212793444Y-64753720D01*
X213507729Y-64182291D02*
X213507729Y-63706101D01*
X213793444Y-64277529D02*
X212793444Y-63944196D01*
X212793444Y-63944196D02*
X213793444Y-63610863D01*
X200841063Y-66229911D02*
X200793444Y-66325149D01*
X200793444Y-66325149D02*
X200793444Y-66468006D01*
X200793444Y-66468006D02*
X200841063Y-66610863D01*
X200841063Y-66610863D02*
X200936301Y-66706101D01*
X200936301Y-66706101D02*
X201031539Y-66753720D01*
X201031539Y-66753720D02*
X201222015Y-66801339D01*
X201222015Y-66801339D02*
X201364872Y-66801339D01*
X201364872Y-66801339D02*
X201555348Y-66753720D01*
X201555348Y-66753720D02*
X201650586Y-66706101D01*
X201650586Y-66706101D02*
X201745825Y-66610863D01*
X201745825Y-66610863D02*
X201793444Y-66468006D01*
X201793444Y-66468006D02*
X201793444Y-66372768D01*
X201793444Y-66372768D02*
X201745825Y-66229911D01*
X201745825Y-66229911D02*
X201698205Y-66182292D01*
X201698205Y-66182292D02*
X201364872Y-66182292D01*
X201364872Y-66182292D02*
X201364872Y-66372768D01*
X201793444Y-65753720D02*
X200793444Y-65753720D01*
X200793444Y-65753720D02*
X201793444Y-65182292D01*
X201793444Y-65182292D02*
X200793444Y-65182292D01*
X201793444Y-64706101D02*
X200793444Y-64706101D01*
X200793444Y-64706101D02*
X200793444Y-64468006D01*
X200793444Y-64468006D02*
X200841063Y-64325149D01*
X200841063Y-64325149D02*
X200936301Y-64229911D01*
X200936301Y-64229911D02*
X201031539Y-64182292D01*
X201031539Y-64182292D02*
X201222015Y-64134673D01*
X201222015Y-64134673D02*
X201364872Y-64134673D01*
X201364872Y-64134673D02*
X201555348Y-64182292D01*
X201555348Y-64182292D02*
X201650586Y-64229911D01*
X201650586Y-64229911D02*
X201745825Y-64325149D01*
X201745825Y-64325149D02*
X201793444Y-64468006D01*
X201793444Y-64468006D02*
X201793444Y-64706101D01*
X196793444Y-66896577D02*
X197793444Y-66563244D01*
X197793444Y-66563244D02*
X196793444Y-66229911D01*
X197698205Y-65325149D02*
X197745825Y-65372768D01*
X197745825Y-65372768D02*
X197793444Y-65515625D01*
X197793444Y-65515625D02*
X197793444Y-65610863D01*
X197793444Y-65610863D02*
X197745825Y-65753720D01*
X197745825Y-65753720D02*
X197650586Y-65848958D01*
X197650586Y-65848958D02*
X197555348Y-65896577D01*
X197555348Y-65896577D02*
X197364872Y-65944196D01*
X197364872Y-65944196D02*
X197222015Y-65944196D01*
X197222015Y-65944196D02*
X197031539Y-65896577D01*
X197031539Y-65896577D02*
X196936301Y-65848958D01*
X196936301Y-65848958D02*
X196841063Y-65753720D01*
X196841063Y-65753720D02*
X196793444Y-65610863D01*
X196793444Y-65610863D02*
X196793444Y-65515625D01*
X196793444Y-65515625D02*
X196841063Y-65372768D01*
X196841063Y-65372768D02*
X196888682Y-65325149D01*
X197698205Y-64325149D02*
X197745825Y-64372768D01*
X197745825Y-64372768D02*
X197793444Y-64515625D01*
X197793444Y-64515625D02*
X197793444Y-64610863D01*
X197793444Y-64610863D02*
X197745825Y-64753720D01*
X197745825Y-64753720D02*
X197650586Y-64848958D01*
X197650586Y-64848958D02*
X197555348Y-64896577D01*
X197555348Y-64896577D02*
X197364872Y-64944196D01*
X197364872Y-64944196D02*
X197222015Y-64944196D01*
X197222015Y-64944196D02*
X197031539Y-64896577D01*
X197031539Y-64896577D02*
X196936301Y-64848958D01*
X196936301Y-64848958D02*
X196841063Y-64753720D01*
X196841063Y-64753720D02*
X196793444Y-64610863D01*
X196793444Y-64610863D02*
X196793444Y-64515625D01*
X196793444Y-64515625D02*
X196841063Y-64372768D01*
X196841063Y-64372768D02*
X196888682Y-64325149D01*
X205793444Y-66753720D02*
X204793444Y-66753720D01*
X204793444Y-66753720D02*
X205507729Y-66420387D01*
X205507729Y-66420387D02*
X204793444Y-66087054D01*
X204793444Y-66087054D02*
X205793444Y-66087054D01*
X204793444Y-65420387D02*
X204793444Y-65229911D01*
X204793444Y-65229911D02*
X204841063Y-65134673D01*
X204841063Y-65134673D02*
X204936301Y-65039435D01*
X204936301Y-65039435D02*
X205126777Y-64991816D01*
X205126777Y-64991816D02*
X205460110Y-64991816D01*
X205460110Y-64991816D02*
X205650586Y-65039435D01*
X205650586Y-65039435D02*
X205745825Y-65134673D01*
X205745825Y-65134673D02*
X205793444Y-65229911D01*
X205793444Y-65229911D02*
X205793444Y-65420387D01*
X205793444Y-65420387D02*
X205745825Y-65515625D01*
X205745825Y-65515625D02*
X205650586Y-65610863D01*
X205650586Y-65610863D02*
X205460110Y-65658482D01*
X205460110Y-65658482D02*
X205126777Y-65658482D01*
X205126777Y-65658482D02*
X204936301Y-65610863D01*
X204936301Y-65610863D02*
X204841063Y-65515625D01*
X204841063Y-65515625D02*
X204793444Y-65420387D01*
X204793444Y-64706101D02*
X204793444Y-64134673D01*
X205793444Y-64420387D02*
X204793444Y-64420387D01*
X204793444Y-63610863D02*
X204793444Y-63420387D01*
X204793444Y-63420387D02*
X204841063Y-63325149D01*
X204841063Y-63325149D02*
X204936301Y-63229911D01*
X204936301Y-63229911D02*
X205126777Y-63182292D01*
X205126777Y-63182292D02*
X205460110Y-63182292D01*
X205460110Y-63182292D02*
X205650586Y-63229911D01*
X205650586Y-63229911D02*
X205745825Y-63325149D01*
X205745825Y-63325149D02*
X205793444Y-63420387D01*
X205793444Y-63420387D02*
X205793444Y-63610863D01*
X205793444Y-63610863D02*
X205745825Y-63706101D01*
X205745825Y-63706101D02*
X205650586Y-63801339D01*
X205650586Y-63801339D02*
X205460110Y-63848958D01*
X205460110Y-63848958D02*
X205126777Y-63848958D01*
X205126777Y-63848958D02*
X204936301Y-63801339D01*
X204936301Y-63801339D02*
X204841063Y-63706101D01*
X204841063Y-63706101D02*
X204793444Y-63610863D01*
X205793444Y-62182292D02*
X205317253Y-62515625D01*
X205793444Y-62753720D02*
X204793444Y-62753720D01*
X204793444Y-62753720D02*
X204793444Y-62372768D01*
X204793444Y-62372768D02*
X204841063Y-62277530D01*
X204841063Y-62277530D02*
X204888682Y-62229911D01*
X204888682Y-62229911D02*
X204983920Y-62182292D01*
X204983920Y-62182292D02*
X205126777Y-62182292D01*
X205126777Y-62182292D02*
X205222015Y-62229911D01*
X205222015Y-62229911D02*
X205269634Y-62277530D01*
X205269634Y-62277530D02*
X205317253Y-62372768D01*
X205317253Y-62372768D02*
X205317253Y-62753720D01*
X209698205Y-66182292D02*
X209745825Y-66229911D01*
X209745825Y-66229911D02*
X209793444Y-66372768D01*
X209793444Y-66372768D02*
X209793444Y-66468006D01*
X209793444Y-66468006D02*
X209745825Y-66610863D01*
X209745825Y-66610863D02*
X209650586Y-66706101D01*
X209650586Y-66706101D02*
X209555348Y-66753720D01*
X209555348Y-66753720D02*
X209364872Y-66801339D01*
X209364872Y-66801339D02*
X209222015Y-66801339D01*
X209222015Y-66801339D02*
X209031539Y-66753720D01*
X209031539Y-66753720D02*
X208936301Y-66706101D01*
X208936301Y-66706101D02*
X208841063Y-66610863D01*
X208841063Y-66610863D02*
X208793444Y-66468006D01*
X208793444Y-66468006D02*
X208793444Y-66372768D01*
X208793444Y-66372768D02*
X208841063Y-66229911D01*
X208841063Y-66229911D02*
X208888682Y-66182292D01*
X209793444Y-65753720D02*
X208793444Y-65753720D01*
X208793444Y-65753720D02*
X209507729Y-65420387D01*
X209507729Y-65420387D02*
X208793444Y-65087054D01*
X208793444Y-65087054D02*
X209793444Y-65087054D01*
X209793444Y-64610863D02*
X208793444Y-64610863D01*
X208793444Y-64610863D02*
X208793444Y-64372768D01*
X208793444Y-64372768D02*
X208841063Y-64229911D01*
X208841063Y-64229911D02*
X208936301Y-64134673D01*
X208936301Y-64134673D02*
X209031539Y-64087054D01*
X209031539Y-64087054D02*
X209222015Y-64039435D01*
X209222015Y-64039435D02*
X209364872Y-64039435D01*
X209364872Y-64039435D02*
X209555348Y-64087054D01*
X209555348Y-64087054D02*
X209650586Y-64134673D01*
X209650586Y-64134673D02*
X209745825Y-64229911D01*
X209745825Y-64229911D02*
X209793444Y-64372768D01*
X209793444Y-64372768D02*
X209793444Y-64610863D01*
%TO.C,U2*%
X102028000Y-79503000D02*
X102028000Y-81535000D01*
X102028000Y-79503000D02*
X114728000Y-79503000D01*
X102028000Y-85599000D02*
X102028000Y-86869000D01*
X102028000Y-93219000D02*
X102028000Y-90933000D01*
X114728000Y-79503000D02*
X114728000Y-81535000D01*
X114728000Y-85599000D02*
X114728000Y-86869000D01*
X114728000Y-90933000D02*
X114728000Y-93219000D01*
X114728000Y-93219000D02*
X102028000Y-93219000D01*
D11*
%TO.C,Oled_screen1*%
X103248000Y-45956000D02*
X103248000Y-44626000D01*
X104578000Y-45956000D02*
X103248000Y-45956000D01*
X105848000Y-43296000D02*
X113528000Y-43296000D01*
X105848000Y-45956000D02*
X105848000Y-43296000D01*
X105848000Y-45956000D02*
X113528000Y-45956000D01*
X113528000Y-45956000D02*
X113528000Y-43296000D01*
D12*
X90628000Y-42926000D02*
X126128000Y-42926000D01*
X126128000Y-76626000D01*
X90628000Y-76626000D01*
X90628000Y-42926000D01*
D11*
%TO.C,C1*%
X119618000Y-85236000D02*
X127778000Y-85236000D01*
X119618000Y-85276000D02*
X127778000Y-85276000D01*
X119618000Y-85316000D02*
X127778000Y-85316000D01*
X119619000Y-85196000D02*
X127777000Y-85196000D01*
X119621000Y-85156000D02*
X127775000Y-85156000D01*
X119622000Y-85116000D02*
X127774000Y-85116000D01*
X119624000Y-85076000D02*
X127772000Y-85076000D01*
X119627000Y-85036000D02*
X127769000Y-85036000D01*
X119630000Y-84996000D02*
X127766000Y-84996000D01*
X119633000Y-84956000D02*
X127763000Y-84956000D01*
X119637000Y-84916000D02*
X127759000Y-84916000D01*
X119641000Y-84876000D02*
X127755000Y-84876000D01*
X119646000Y-84836000D02*
X127750000Y-84836000D01*
X119650000Y-84796000D02*
X127746000Y-84796000D01*
X119656000Y-84756000D02*
X127740000Y-84756000D01*
X119661000Y-84716000D02*
X127735000Y-84716000D01*
X119668000Y-84676000D02*
X127728000Y-84676000D01*
X119674000Y-84636000D02*
X127722000Y-84636000D01*
X119681000Y-84595000D02*
X122658000Y-84595000D01*
X119688000Y-84555000D02*
X122658000Y-84555000D01*
X119696000Y-84515000D02*
X122658000Y-84515000D01*
X119704000Y-84475000D02*
X122658000Y-84475000D01*
X119713000Y-84435000D02*
X122658000Y-84435000D01*
X119722000Y-84395000D02*
X122658000Y-84395000D01*
X119731000Y-84355000D02*
X122658000Y-84355000D01*
X119741000Y-84315000D02*
X122658000Y-84315000D01*
X119751000Y-84275000D02*
X122658000Y-84275000D01*
X119762000Y-84235000D02*
X122658000Y-84235000D01*
X119773000Y-84195000D02*
X122658000Y-84195000D01*
X119784000Y-84155000D02*
X122658000Y-84155000D01*
X119796000Y-84115000D02*
X122658000Y-84115000D01*
X119809000Y-84075000D02*
X122658000Y-84075000D01*
X119821000Y-84035000D02*
X122658000Y-84035000D01*
X119835000Y-83995000D02*
X122658000Y-83995000D01*
X119848000Y-83955000D02*
X122658000Y-83955000D01*
X119863000Y-83915000D02*
X122658000Y-83915000D01*
X119877000Y-83875000D02*
X122658000Y-83875000D01*
X119893000Y-83835000D02*
X122658000Y-83835000D01*
X119908000Y-83795000D02*
X122658000Y-83795000D01*
X119924000Y-83755000D02*
X122658000Y-83755000D01*
X119941000Y-83715000D02*
X122658000Y-83715000D01*
X119958000Y-83675000D02*
X122658000Y-83675000D01*
X119976000Y-83635000D02*
X122658000Y-83635000D01*
X119994000Y-83595000D02*
X122658000Y-83595000D01*
X120012000Y-83555000D02*
X122658000Y-83555000D01*
X120032000Y-83515000D02*
X122658000Y-83515000D01*
X120051000Y-83475000D02*
X122658000Y-83475000D01*
X120071000Y-83435000D02*
X122658000Y-83435000D01*
X120092000Y-83395000D02*
X122658000Y-83395000D01*
X120114000Y-83355000D02*
X122658000Y-83355000D01*
X120136000Y-83315000D02*
X122658000Y-83315000D01*
X120158000Y-83275000D02*
X122658000Y-83275000D01*
X120181000Y-83235000D02*
X122658000Y-83235000D01*
X120205000Y-83195000D02*
X122658000Y-83195000D01*
X120229000Y-83155000D02*
X122658000Y-83155000D01*
X120254000Y-83115000D02*
X122658000Y-83115000D01*
X120280000Y-83075000D02*
X122658000Y-83075000D01*
X120306000Y-83035000D02*
X122658000Y-83035000D01*
X120333000Y-82995000D02*
X122658000Y-82995000D01*
X120360000Y-82955000D02*
X122658000Y-82955000D01*
X120389000Y-82915000D02*
X122658000Y-82915000D01*
X120418000Y-82875000D02*
X122658000Y-82875000D01*
X120448000Y-82835000D02*
X122658000Y-82835000D01*
X120478000Y-82795000D02*
X122658000Y-82795000D01*
X120509000Y-82755000D02*
X122658000Y-82755000D01*
X120542000Y-82715000D02*
X122658000Y-82715000D01*
X120574000Y-82675000D02*
X122658000Y-82675000D01*
X120608000Y-82635000D02*
X122658000Y-82635000D01*
X120643000Y-82595000D02*
X122658000Y-82595000D01*
X120679000Y-82555000D02*
X122658000Y-82555000D01*
X120715000Y-82515000D02*
X126681000Y-82515000D01*
X120753000Y-82475000D02*
X126643000Y-82475000D01*
X120791000Y-82435000D02*
X126605000Y-82435000D01*
X120831000Y-82395000D02*
X126565000Y-82395000D01*
X120872000Y-82355000D02*
X126524000Y-82355000D01*
X120914000Y-82315000D02*
X126482000Y-82315000D01*
X120957000Y-82275000D02*
X126439000Y-82275000D01*
X120983000Y-89325698D02*
X121783000Y-89325698D01*
X121001000Y-82235000D02*
X126395000Y-82235000D01*
X121047000Y-82195000D02*
X126349000Y-82195000D01*
X121094000Y-82155000D02*
X126302000Y-82155000D01*
X121142000Y-82115000D02*
X126254000Y-82115000D01*
X121193000Y-82075000D02*
X126203000Y-82075000D01*
X121244000Y-82035000D02*
X126152000Y-82035000D01*
X121298000Y-81995000D02*
X126098000Y-81995000D01*
X121353000Y-81955000D02*
X126043000Y-81955000D01*
X121383000Y-89725698D02*
X121383000Y-88925698D01*
X121411000Y-81915000D02*
X125985000Y-81915000D01*
X121470000Y-81875000D02*
X125926000Y-81875000D01*
X121532000Y-81835000D02*
X125864000Y-81835000D01*
X121596000Y-81795000D02*
X125800000Y-81795000D01*
X121664000Y-81755000D02*
X125732000Y-81755000D01*
X121734000Y-81715000D02*
X125662000Y-81715000D01*
X121808000Y-81675000D02*
X125588000Y-81675000D01*
X121885000Y-81635000D02*
X125511000Y-81635000D01*
X121967000Y-81595000D02*
X125429000Y-81595000D01*
X122053000Y-81555000D02*
X125343000Y-81555000D01*
X122146000Y-81515000D02*
X125250000Y-81515000D01*
X122245000Y-81475000D02*
X125151000Y-81475000D01*
X122352000Y-81435000D02*
X125044000Y-81435000D01*
X122469000Y-81395000D02*
X124927000Y-81395000D01*
X122600000Y-81355000D02*
X124796000Y-81355000D01*
X122750000Y-81315000D02*
X124646000Y-81315000D01*
X122930000Y-81275000D02*
X124466000Y-81275000D01*
X123165000Y-81235000D02*
X124231000Y-81235000D01*
X124738000Y-82555000D02*
X126717000Y-82555000D01*
X124738000Y-82595000D02*
X126753000Y-82595000D01*
X124738000Y-82635000D02*
X126788000Y-82635000D01*
X124738000Y-82675000D02*
X126822000Y-82675000D01*
X124738000Y-82715000D02*
X126854000Y-82715000D01*
X124738000Y-82755000D02*
X126887000Y-82755000D01*
X124738000Y-82795000D02*
X126918000Y-82795000D01*
X124738000Y-82835000D02*
X126948000Y-82835000D01*
X124738000Y-82875000D02*
X126978000Y-82875000D01*
X124738000Y-82915000D02*
X127007000Y-82915000D01*
X124738000Y-82955000D02*
X127036000Y-82955000D01*
X124738000Y-82995000D02*
X127063000Y-82995000D01*
X124738000Y-83035000D02*
X127090000Y-83035000D01*
X124738000Y-83075000D02*
X127116000Y-83075000D01*
X124738000Y-83115000D02*
X127142000Y-83115000D01*
X124738000Y-83155000D02*
X127167000Y-83155000D01*
X124738000Y-83195000D02*
X127191000Y-83195000D01*
X124738000Y-83235000D02*
X127215000Y-83235000D01*
X124738000Y-83275000D02*
X127238000Y-83275000D01*
X124738000Y-83315000D02*
X127260000Y-83315000D01*
X124738000Y-83355000D02*
X127282000Y-83355000D01*
X124738000Y-83395000D02*
X127304000Y-83395000D01*
X124738000Y-83435000D02*
X127325000Y-83435000D01*
X124738000Y-83475000D02*
X127345000Y-83475000D01*
X124738000Y-83515000D02*
X127364000Y-83515000D01*
X124738000Y-83555000D02*
X127384000Y-83555000D01*
X124738000Y-83595000D02*
X127402000Y-83595000D01*
X124738000Y-83635000D02*
X127420000Y-83635000D01*
X124738000Y-83675000D02*
X127438000Y-83675000D01*
X124738000Y-83715000D02*
X127455000Y-83715000D01*
X124738000Y-83755000D02*
X127472000Y-83755000D01*
X124738000Y-83795000D02*
X127488000Y-83795000D01*
X124738000Y-83835000D02*
X127503000Y-83835000D01*
X124738000Y-83875000D02*
X127519000Y-83875000D01*
X124738000Y-83915000D02*
X127533000Y-83915000D01*
X124738000Y-83955000D02*
X127548000Y-83955000D01*
X124738000Y-83995000D02*
X127561000Y-83995000D01*
X124738000Y-84035000D02*
X127575000Y-84035000D01*
X124738000Y-84075000D02*
X127587000Y-84075000D01*
X124738000Y-84115000D02*
X127600000Y-84115000D01*
X124738000Y-84155000D02*
X127612000Y-84155000D01*
X124738000Y-84195000D02*
X127623000Y-84195000D01*
X124738000Y-84235000D02*
X127634000Y-84235000D01*
X124738000Y-84275000D02*
X127645000Y-84275000D01*
X124738000Y-84315000D02*
X127655000Y-84315000D01*
X124738000Y-84355000D02*
X127665000Y-84355000D01*
X124738000Y-84395000D02*
X127674000Y-84395000D01*
X124738000Y-84435000D02*
X127683000Y-84435000D01*
X124738000Y-84475000D02*
X127692000Y-84475000D01*
X124738000Y-84515000D02*
X127700000Y-84515000D01*
X124738000Y-84555000D02*
X127708000Y-84555000D01*
X124738000Y-84595000D02*
X127715000Y-84595000D01*
X127818000Y-85316000D02*
G75*
G02*
X119578000Y-85316000I-4120000J0D01*
G01*
X119578000Y-85316000D02*
G75*
G02*
X127818000Y-85316000I4120000J0D01*
G01*
%TO.C,NRF1*%
X175716000Y-45212000D02*
X175716000Y-45212000D01*
X175716000Y-45212000D02*
X181050000Y-45212000D01*
X175716000Y-55880000D02*
X175716000Y-45212000D01*
X175716000Y-55880000D02*
X175716000Y-55880000D01*
X181050000Y-45212000D02*
X181050000Y-55880000D01*
X181050000Y-55880000D02*
X175716000Y-55880000D01*
D12*
X175462000Y-42926000D02*
X216262000Y-42926000D01*
X216262000Y-58226000D01*
X175462000Y-58226000D01*
X175462000Y-42926000D01*
%TD*%
M02*
