%TF.GenerationSoftware,KiCad,Pcbnew,8.0.2*%
%TF.CreationDate,2024-06-06T15:06:54+02:00*%
%TF.ProjectId,3v radio,33762072-6164-4696-9f2e-6b696361645f,rev?*%
%TF.SameCoordinates,Original*%
%TF.FileFunction,Copper,L1,Top*%
%TF.FilePolarity,Positive*%
%FSLAX46Y46*%
G04 Gerber Fmt 4.6, Leading zero omitted, Abs format (unit mm)*
G04 Created by KiCad (PCBNEW 8.0.2) date 2024-06-06 15:06:54*
%MOMM*%
%LPD*%
G01*
G04 APERTURE LIST*
%TA.AperFunction,ComponentPad*%
%ADD10C,3.048000*%
%TD*%
%TA.AperFunction,ComponentPad*%
%ADD11C,1.270000*%
%TD*%
%TA.AperFunction,ComponentPad*%
%ADD12R,1.700000X1.700000*%
%TD*%
%TA.AperFunction,ComponentPad*%
%ADD13O,1.700000X1.700000*%
%TD*%
%TA.AperFunction,ComponentPad*%
%ADD14R,1.600000X1.600000*%
%TD*%
%TA.AperFunction,ComponentPad*%
%ADD15C,1.600000*%
%TD*%
%TA.AperFunction,ComponentPad*%
%ADD16C,1.700000*%
%TD*%
%TA.AperFunction,ComponentPad*%
%ADD17C,2.000000*%
%TD*%
%TA.AperFunction,Conductor*%
%ADD18C,0.300000*%
%TD*%
G04 APERTURE END LIST*
D10*
%TO.P,U2,*%
%TO.N,*%
X114728000Y-88901000D03*
X114728000Y-83567000D03*
X102028000Y-88901000D03*
X102028000Y-83567000D03*
D11*
%TO.P,U2,1,VCC_3.3V*%
%TO.N,Net-(ESP32-WROOM-32U1-3.3v)*%
X106473000Y-80773000D03*
%TO.P,U2,2,SCL*%
%TO.N,Net-(Oled_screen1-SCK)*%
X106473000Y-82678000D03*
%TO.P,U2,3,Detect_device*%
%TO.N,unconnected-(U2-Detect_device-Pad3)*%
X108378000Y-80773000D03*
%TO.P,U2,4,NC*%
%TO.N,unconnected-(U2-NC-Pad4)*%
X108378000Y-82678000D03*
%TO.P,U2,5,SDA*%
%TO.N,Net-(ESP32-WROOM-32U1-21)*%
X110283000Y-80773000D03*
%TO.P,U2,6,GND*%
%TO.N,Net-(NRF1-GND)*%
X110283000Y-82678000D03*
%TD*%
D12*
%TO.P,Oled_screen1,1,VCC*%
%TO.N,Net-(ESP32-WROOM-32U1-3.3v)*%
X104578000Y-44626000D03*
D13*
%TO.P,Oled_screen1,2,GND*%
%TO.N,Net-(NRF1-GND)*%
X107118000Y-44626000D03*
%TO.P,Oled_screen1,3,SCK*%
%TO.N,Net-(Oled_screen1-SCK)*%
X109658000Y-44626000D03*
%TO.P,Oled_screen1,4,SDA*%
%TO.N,Net-(ESP32-WROOM-32U1-21)*%
X112198000Y-44626000D03*
%TD*%
D14*
%TO.P,C1,1*%
%TO.N,Net-(ESP32-WROOM-32U1-3.3v)*%
X123698000Y-87066000D03*
D15*
%TO.P,C1,2*%
%TO.N,Net-(NRF1-GND)*%
X123698000Y-83566000D03*
%TD*%
D12*
%TO.P,ESP32-WROOM-32U1,1,3.3v*%
%TO.N,Net-(ESP32-WROOM-32U1-3.3v)*%
X132080000Y-44958000D03*
X137080000Y-44958000D03*
D13*
%TO.P,ESP32-WROOM-32U1,2,EN*%
%TO.N,unconnected-(ESP32-WROOM-32U1-EN-Pad2)*%
X132080000Y-47498000D03*
X137080000Y-47498000D03*
%TO.P,ESP32-WROOM-32U1,3,VP*%
%TO.N,unconnected-(ESP32-WROOM-32U1-VP-Pad3)*%
X132080000Y-50038000D03*
X137080000Y-50038000D03*
%TO.P,ESP32-WROOM-32U1,4,VN*%
%TO.N,unconnected-(ESP32-WROOM-32U1-VN-Pad4)*%
X132080000Y-52578000D03*
X137080000Y-52578000D03*
%TO.P,ESP32-WROOM-32U1,5,34*%
%TO.N,unconnected-(ESP32-WROOM-32U1-34-Pad5)*%
X132080000Y-55118000D03*
X137080000Y-55118000D03*
%TO.P,ESP32-WROOM-32U1,6,35*%
%TO.N,unconnected-(ESP32-WROOM-32U1-35-Pad6)*%
X132080000Y-57658000D03*
X137080000Y-57658000D03*
%TO.P,ESP32-WROOM-32U1,7,32*%
%TO.N,unconnected-(ESP32-WROOM-32U1-32-Pad7)*%
X132080000Y-60198000D03*
X137080000Y-60198000D03*
%TO.P,ESP32-WROOM-32U1,8,33*%
%TO.N,unconnected-(ESP32-WROOM-32U1-33-Pad8)*%
X132080000Y-62738000D03*
X137080000Y-62738000D03*
%TO.P,ESP32-WROOM-32U1,9,25*%
%TO.N,unconnected-(ESP32-WROOM-32U1-25-Pad9)*%
X132080000Y-65278000D03*
X137080000Y-65278000D03*
%TO.P,ESP32-WROOM-32U1,10,26*%
%TO.N,unconnected-(ESP32-WROOM-32U1-26-Pad10)*%
X132080000Y-67818000D03*
X137080000Y-67818000D03*
%TO.P,ESP32-WROOM-32U1,11,27*%
%TO.N,unconnected-(ESP32-WROOM-32U1-27-Pad11)*%
X132080000Y-70358000D03*
X137080000Y-70358000D03*
%TO.P,ESP32-WROOM-32U1,12,14*%
%TO.N,unconnected-(ESP32-WROOM-32U1-14-Pad12)*%
X132080000Y-72898000D03*
X137080000Y-72898000D03*
%TO.P,ESP32-WROOM-32U1,13,12*%
%TO.N,unconnected-(ESP32-WROOM-32U1-12-Pad13)*%
X132080000Y-75438000D03*
X137080000Y-75438000D03*
%TO.P,ESP32-WROOM-32U1,14,GND*%
%TO.N,unconnected-(ESP32-WROOM-32U1-GND-Pad14)*%
X132080000Y-77978000D03*
X137080000Y-77978000D03*
%TO.P,ESP32-WROOM-32U1,15,13*%
%TO.N,unconnected-(ESP32-WROOM-32U1-13-Pad15)*%
X132080000Y-80518000D03*
X137080000Y-80518000D03*
%TO.P,ESP32-WROOM-32U1,16,D2*%
%TO.N,unconnected-(ESP32-WROOM-32U1-D2-Pad16)*%
X132080000Y-83058000D03*
X137080000Y-83058000D03*
%TO.P,ESP32-WROOM-32U1,17,D3*%
%TO.N,unconnected-(ESP32-WROOM-32U1-D3-Pad17)*%
X132080000Y-85598000D03*
X137080000Y-85598000D03*
%TO.P,ESP32-WROOM-32U1,18,CMD*%
%TO.N,unconnected-(ESP32-WROOM-32U1-CMD-Pad18)*%
X132080000Y-88138000D03*
X137080000Y-88138000D03*
%TO.P,ESP32-WROOM-32U1,19,5V*%
%TO.N,unconnected-(ESP32-WROOM-32U1-5V-Pad19)*%
X132080000Y-90678000D03*
X137080000Y-90678000D03*
D12*
%TO.P,ESP32-WROOM-32U1,20,GND*%
%TO.N,Net-(NRF1-GND)*%
X165020000Y-44958000D03*
X170020000Y-44958000D03*
D13*
%TO.P,ESP32-WROOM-32U1,21,23*%
%TO.N,Net-(ESP32-WROOM-32U1-23)*%
X165020000Y-47498000D03*
X170020000Y-47498000D03*
%TO.P,ESP32-WROOM-32U1,22,22*%
%TO.N,Net-(Oled_screen1-SCK)*%
X165020000Y-50038000D03*
X170020000Y-50038000D03*
%TO.P,ESP32-WROOM-32U1,23,TX*%
%TO.N,unconnected-(ESP32-WROOM-32U1-TX-Pad23)*%
X165020000Y-52578000D03*
X170020000Y-52578000D03*
%TO.P,ESP32-WROOM-32U1,24,RX*%
%TO.N,unconnected-(ESP32-WROOM-32U1-RX-Pad24)*%
X165020000Y-55118000D03*
X170020000Y-55118000D03*
%TO.P,ESP32-WROOM-32U1,25,21*%
%TO.N,Net-(ESP32-WROOM-32U1-21)*%
X165020000Y-57658000D03*
X170020000Y-57658000D03*
%TO.P,ESP32-WROOM-32U1,26,GND*%
%TO.N,unconnected-(ESP32-WROOM-32U1-GND-Pad26)*%
X165020000Y-60198000D03*
X170020000Y-60198000D03*
%TO.P,ESP32-WROOM-32U1,27,19*%
%TO.N,Net-(ESP32-WROOM-32U1-19)*%
X165020000Y-62738000D03*
X170020000Y-62738000D03*
%TO.P,ESP32-WROOM-32U1,28,18*%
%TO.N,Net-(ESP32-WROOM-32U1-18)*%
X165020000Y-65278000D03*
X170020000Y-65278000D03*
%TO.P,ESP32-WROOM-32U1,29,5*%
%TO.N,Net-(ESP32-WROOM-32U1-5)*%
X165020000Y-67818000D03*
X170020000Y-67818000D03*
%TO.P,ESP32-WROOM-32U1,30,17*%
%TO.N,Net-(ESP32-WROOM-32U1-17)*%
X165020000Y-70358000D03*
X170020000Y-70358000D03*
%TO.P,ESP32-WROOM-32U1,31,16*%
%TO.N,Net-(ESP32-WROOM-32U1-16)*%
X165020000Y-72898000D03*
X170020000Y-72898000D03*
%TO.P,ESP32-WROOM-32U1,32,4*%
%TO.N,unconnected-(ESP32-WROOM-32U1-4-Pad32)*%
X165020000Y-75438000D03*
X170020000Y-75438000D03*
%TO.P,ESP32-WROOM-32U1,33,0*%
%TO.N,unconnected-(ESP32-WROOM-32U1-0-Pad33)*%
X165020000Y-77978000D03*
X170020000Y-77978000D03*
%TO.P,ESP32-WROOM-32U1,34,2*%
%TO.N,unconnected-(ESP32-WROOM-32U1-2-Pad34)*%
X165020000Y-80518000D03*
X170020000Y-80518000D03*
%TO.P,ESP32-WROOM-32U1,35,15*%
%TO.N,unconnected-(ESP32-WROOM-32U1-15-Pad35)*%
X165020000Y-83058000D03*
X170020000Y-83058000D03*
%TO.P,ESP32-WROOM-32U1,36,D1*%
%TO.N,unconnected-(ESP32-WROOM-32U1-D1-Pad36)*%
X165020000Y-85598000D03*
X170020000Y-85598000D03*
%TO.P,ESP32-WROOM-32U1,37,D0*%
%TO.N,unconnected-(ESP32-WROOM-32U1-D0-Pad37)*%
X165020000Y-88138000D03*
X170020000Y-88138000D03*
%TO.P,ESP32-WROOM-32U1,38,CLK*%
%TO.N,unconnected-(ESP32-WROOM-32U1-CLK-Pad38)*%
X165020000Y-90678000D03*
X170020000Y-90678000D03*
%TD*%
D12*
%TO.P,NRF1,*%
%TO.N,*%
X214724000Y-44196000D03*
D13*
X214724000Y-46736000D03*
X214724000Y-49276000D03*
X214724000Y-51816000D03*
X214724000Y-54356000D03*
X214724000Y-56896000D03*
D12*
%TO.P,NRF1,1,GND*%
%TO.N,Net-(NRF1-GND)*%
X176986000Y-46736000D03*
D16*
%TO.P,NRF1,2,VCC*%
%TO.N,Net-(ESP32-WROOM-32U1-3.3v)*%
X179526000Y-46736000D03*
%TO.P,NRF1,3,CE*%
%TO.N,Net-(ESP32-WROOM-32U1-16)*%
X176986000Y-49276000D03*
%TO.P,NRF1,4,~{CSN}*%
%TO.N,Net-(ESP32-WROOM-32U1-17)*%
X179526000Y-49276000D03*
%TO.P,NRF1,5,SCK*%
%TO.N,Net-(ESP32-WROOM-32U1-18)*%
X176986000Y-51816000D03*
%TO.P,NRF1,6,MOSI*%
%TO.N,Net-(ESP32-WROOM-32U1-23)*%
X179526000Y-51816000D03*
%TO.P,NRF1,7,MISO*%
%TO.N,Net-(ESP32-WROOM-32U1-19)*%
X176986000Y-54356000D03*
%TO.P,NRF1,8,IRQ*%
%TO.N,unconnected-(NRF1-IRQ-Pad8)*%
X179526000Y-54356000D03*
%TD*%
D17*
%TO.P,U3,1,DATA*%
%TO.N,Net-(ESP32-WROOM-32U1-19)*%
X212923625Y-69090500D03*
%TO.P,U3,2,CMD*%
%TO.N,Net-(ESP32-WROOM-32U1-23)*%
X208923625Y-69090500D03*
%TO.P,U3,3,MOTOR*%
%TO.N,unconnected-(U3-MOTOR-Pad3)*%
X204923625Y-69090500D03*
%TO.P,U3,4,GND*%
%TO.N,Net-(NRF1-GND)*%
X200923625Y-69090500D03*
%TO.P,U3,5,3.3V*%
%TO.N,Net-(ESP32-WROOM-32U1-3.3v)*%
X196923625Y-69090500D03*
%TO.P,U3,6,ATTN*%
%TO.N,Net-(ESP32-WROOM-32U1-5)*%
X192923625Y-69090500D03*
%TO.P,U3,7,CLK*%
%TO.N,Net-(ESP32-WROOM-32U1-18)*%
X188923625Y-69090500D03*
%TO.P,U3,8,NC*%
%TO.N,unconnected-(U3-NC-Pad8)*%
X184923625Y-69090500D03*
%TO.P,U3,9,ACK*%
%TO.N,unconnected-(U3-ACK-Pad9)*%
X180923625Y-69090500D03*
%TD*%
D18*
%TO.N,Net-(NRF1-GND)*%
X200923625Y-69090500D02*
X200923625Y-66436568D01*
X121666000Y-85598000D02*
X123698000Y-83566000D01*
X165020000Y-44958000D02*
X170020000Y-44958000D01*
X113203000Y-85598000D02*
X121666000Y-85598000D01*
X111268000Y-81693000D02*
X110283000Y-82678000D01*
X113203000Y-85598000D02*
X110283000Y-82678000D01*
X107118000Y-44626000D02*
X111268000Y-48776000D01*
X179445057Y-44958000D02*
X170020000Y-44958000D01*
X170020000Y-44958000D02*
X175208000Y-44958000D01*
X111268000Y-48776000D02*
X111268000Y-81693000D01*
X200923625Y-66436568D02*
X179445057Y-44958000D01*
X175208000Y-44958000D02*
X176986000Y-46736000D01*
%TO.N,Net-(ESP32-WROOM-32U1-3.3v)*%
X105488000Y-81758000D02*
X106473000Y-80773000D01*
X178326000Y-47936000D02*
X172155057Y-47936000D01*
X106278000Y-42926000D02*
X130048000Y-42926000D01*
X105488000Y-83086001D02*
X105488000Y-81758000D01*
X104578000Y-44626000D02*
X104578000Y-78878000D01*
X104578000Y-44626000D02*
X106278000Y-42926000D01*
X130048000Y-42926000D02*
X132080000Y-44958000D01*
X196923625Y-64133625D02*
X179526000Y-46736000D01*
X172155057Y-47936000D02*
X170447057Y-46228000D01*
X109117999Y-86716001D02*
X123348001Y-86716001D01*
X170447057Y-46228000D02*
X138350000Y-46228000D01*
X138350000Y-46228000D02*
X137080000Y-44958000D01*
X132080000Y-44958000D02*
X137080000Y-44958000D01*
X109117999Y-86716001D02*
X105488000Y-83086001D01*
X196923625Y-69090500D02*
X196923625Y-64133625D01*
X123348001Y-86716001D02*
X123698000Y-87066000D01*
X179526000Y-46736000D02*
X178326000Y-47936000D01*
X104578000Y-78878000D02*
X106473000Y-80773000D01*
X109149999Y-86748000D02*
X109117999Y-86716001D01*
%TO.N,unconnected-(ESP32-WROOM-32U1-2-Pad34)*%
X165020000Y-80518000D02*
X170020000Y-80518000D01*
%TO.N,unconnected-(ESP32-WROOM-32U1-CLK-Pad38)*%
X165020000Y-90678000D02*
X170020000Y-90678000D01*
%TO.N,Net-(ESP32-WROOM-32U1-17)*%
X165020000Y-70358000D02*
X170020000Y-70358000D01*
%TO.N,unconnected-(ESP32-WROOM-32U1-VP-Pad3)*%
X132080000Y-50038000D02*
X137080000Y-50038000D01*
%TO.N,unconnected-(ESP32-WROOM-32U1-33-Pad8)*%
X137080000Y-62738000D02*
X132080000Y-62738000D01*
%TO.N,unconnected-(ESP32-WROOM-32U1-D3-Pad17)*%
X132080000Y-85598000D02*
X137080000Y-85598000D01*
%TO.N,unconnected-(ESP32-WROOM-32U1-14-Pad12)*%
X137080000Y-72898000D02*
X132080000Y-72898000D01*
%TO.N,Net-(ESP32-WROOM-32U1-19)*%
X170020000Y-62738000D02*
X165020000Y-62738000D01*
X211402125Y-70612000D02*
X212923625Y-69090500D01*
X196535936Y-70612000D02*
X211402125Y-70612000D01*
X176986000Y-55772000D02*
X170020000Y-62738000D01*
X181479936Y-55556000D02*
X196535936Y-70612000D01*
X176986000Y-54356000D02*
X178186000Y-55556000D01*
X176986000Y-54356000D02*
X176986000Y-55772000D01*
X178186000Y-55556000D02*
X181479936Y-55556000D01*
%TO.N,unconnected-(ESP32-WROOM-32U1-27-Pad11)*%
X132080000Y-70358000D02*
X137080000Y-70358000D01*
%TO.N,unconnected-(ESP32-WROOM-32U1-4-Pad32)*%
X165020000Y-75438000D02*
X170020000Y-75438000D01*
%TO.N,Net-(Oled_screen1-SCK)*%
X119880000Y-43426000D02*
X127692000Y-51238000D01*
X163820000Y-51238000D02*
X165020000Y-50038000D01*
X110858000Y-43426000D02*
X119880000Y-43426000D01*
X127692000Y-51238000D02*
X163820000Y-51238000D01*
X165020000Y-50038000D02*
X170020000Y-50038000D01*
X109658000Y-44626000D02*
X110858000Y-43426000D01*
%TO.N,unconnected-(ESP32-WROOM-32U1-VN-Pad4)*%
X137080000Y-52578000D02*
X132080000Y-52578000D01*
%TO.N,unconnected-(ESP32-WROOM-32U1-34-Pad5)*%
X132080000Y-55118000D02*
X137080000Y-55118000D01*
%TO.N,Net-(ESP32-WROOM-32U1-5)*%
X172642500Y-70440500D02*
X170020000Y-67818000D01*
X192923625Y-69090500D02*
X191573625Y-70440500D01*
X170020000Y-67818000D02*
X165020000Y-67818000D01*
X191573625Y-70440500D02*
X172642500Y-70440500D01*
%TO.N,unconnected-(ESP32-WROOM-32U1-25-Pad9)*%
X132080000Y-65278000D02*
X137080000Y-65278000D01*
%TO.N,unconnected-(ESP32-WROOM-32U1-26-Pad10)*%
X137080000Y-67818000D02*
X132080000Y-67818000D01*
%TO.N,unconnected-(ESP32-WROOM-32U1-5V-Pad19)*%
X132080000Y-90678000D02*
X137080000Y-90678000D01*
%TO.N,unconnected-(ESP32-WROOM-32U1-EN-Pad2)*%
X137080000Y-47498000D02*
X132080000Y-47498000D01*
%TO.N,unconnected-(ESP32-WROOM-32U1-35-Pad6)*%
X137080000Y-57658000D02*
X132080000Y-57658000D01*
%TO.N,Net-(ESP32-WROOM-32U1-21)*%
X163820000Y-58858000D02*
X165020000Y-57658000D01*
X112198000Y-44626000D02*
X126430000Y-58858000D01*
X126430000Y-58858000D02*
X163820000Y-58858000D01*
X170020000Y-57658000D02*
X165020000Y-57658000D01*
%TO.N,unconnected-(ESP32-WROOM-32U1-15-Pad35)*%
X170020000Y-83058000D02*
X165020000Y-83058000D01*
%TO.N,unconnected-(ESP32-WROOM-32U1-32-Pad7)*%
X132080000Y-60198000D02*
X137080000Y-60198000D01*
%TO.N,unconnected-(ESP32-WROOM-32U1-0-Pad33)*%
X170020000Y-77978000D02*
X165020000Y-77978000D01*
%TO.N,unconnected-(ESP32-WROOM-32U1-RX-Pad24)*%
X165020000Y-55118000D02*
X170020000Y-55118000D01*
%TO.N,unconnected-(ESP32-WROOM-32U1-13-Pad15)*%
X132080000Y-80518000D02*
X137080000Y-80518000D01*
%TO.N,unconnected-(ESP32-WROOM-32U1-D2-Pad16)*%
X137080000Y-83058000D02*
X132080000Y-83058000D01*
%TO.N,unconnected-(ESP32-WROOM-32U1-CMD-Pad18)*%
X137080000Y-88138000D02*
X132080000Y-88138000D01*
%TO.N,unconnected-(ESP32-WROOM-32U1-12-Pad13)*%
X132080000Y-75438000D02*
X137080000Y-75438000D01*
%TO.N,unconnected-(ESP32-WROOM-32U1-GND-Pad14)*%
X137080000Y-77978000D02*
X132080000Y-77978000D01*
%TO.N,unconnected-(ESP32-WROOM-32U1-D1-Pad36)*%
X165020000Y-85598000D02*
X170020000Y-85598000D01*
%TO.N,Net-(ESP32-WROOM-32U1-23)*%
X178326000Y-50616000D02*
X173138000Y-50616000D01*
X179526000Y-51816000D02*
X178326000Y-50616000D01*
X173138000Y-50616000D02*
X170020000Y-47498000D01*
X170020000Y-47498000D02*
X165020000Y-47498000D01*
%TO.N,Net-(ESP32-WROOM-32U1-16)*%
X170020000Y-72898000D02*
X165020000Y-72898000D01*
%TO.N,unconnected-(ESP32-WROOM-32U1-GND-Pad26)*%
X165020000Y-60198000D02*
X170020000Y-60198000D01*
%TO.N,unconnected-(ESP32-WROOM-32U1-TX-Pad23)*%
X170020000Y-52578000D02*
X165020000Y-52578000D01*
%TO.N,unconnected-(ESP32-WROOM-32U1-D0-Pad37)*%
X170020000Y-88138000D02*
X165020000Y-88138000D01*
%TO.N,Net-(ESP32-WROOM-32U1-18)*%
X188923625Y-69090500D02*
X185111125Y-65278000D01*
X185111125Y-65278000D02*
X170020000Y-65278000D01*
X165020000Y-65278000D02*
X170020000Y-65278000D01*
%TD*%
M02*
