%TF.GenerationSoftware,KiCad,Pcbnew,8.0.2*%
%TF.CreationDate,2024-06-06T15:06:54+02:00*%
%TF.ProjectId,3v radio,33762072-6164-4696-9f2e-6b696361645f,rev?*%
%TF.SameCoordinates,Original*%
%TF.FileFunction,Soldermask,Bot*%
%TF.FilePolarity,Negative*%
%FSLAX46Y46*%
G04 Gerber Fmt 4.6, Leading zero omitted, Abs format (unit mm)*
G04 Created by KiCad (PCBNEW 8.0.2) date 2024-06-06 15:06:54*
%MOMM*%
%LPD*%
G01*
G04 APERTURE LIST*
%ADD10C,3.048000*%
%ADD11C,1.270000*%
%ADD12C,3.200000*%
%ADD13R,1.700000X1.700000*%
%ADD14O,1.700000X1.700000*%
%ADD15R,1.600000X1.600000*%
%ADD16C,1.600000*%
%ADD17C,1.700000*%
%ADD18C,2.000000*%
G04 APERTURE END LIST*
D10*
%TO.C,U2*%
X114728000Y-88901000D03*
X114728000Y-83567000D03*
X102028000Y-88901000D03*
X102028000Y-83567000D03*
D11*
X106473000Y-80773000D03*
X106473000Y-82678000D03*
X108378000Y-80773000D03*
X108378000Y-82678000D03*
X110283000Y-80773000D03*
X110283000Y-82678000D03*
%TD*%
D12*
%TO.C,Oled_screen1*%
X92476000Y-45054000D03*
X92476000Y-74926000D03*
X124226000Y-44926000D03*
X124226000Y-74926000D03*
D13*
X104578000Y-44626000D03*
D14*
X107118000Y-44626000D03*
X109658000Y-44626000D03*
X112198000Y-44626000D03*
%TD*%
D15*
%TO.C,C1*%
X123698000Y-87066000D03*
D16*
X123698000Y-83566000D03*
%TD*%
D13*
%TO.C,ESP32-WROOM-32U1*%
X132080000Y-44958000D03*
X137080000Y-44958000D03*
D14*
X132080000Y-47498000D03*
X137080000Y-47498000D03*
X132080000Y-50038000D03*
X137080000Y-50038000D03*
X132080000Y-52578000D03*
X137080000Y-52578000D03*
X132080000Y-55118000D03*
X137080000Y-55118000D03*
X132080000Y-57658000D03*
X137080000Y-57658000D03*
X132080000Y-60198000D03*
X137080000Y-60198000D03*
X132080000Y-62738000D03*
X137080000Y-62738000D03*
X132080000Y-65278000D03*
X137080000Y-65278000D03*
X132080000Y-67818000D03*
X137080000Y-67818000D03*
X132080000Y-70358000D03*
X137080000Y-70358000D03*
X132080000Y-72898000D03*
X137080000Y-72898000D03*
X132080000Y-75438000D03*
X137080000Y-75438000D03*
X132080000Y-77978000D03*
X137080000Y-77978000D03*
X132080000Y-80518000D03*
X137080000Y-80518000D03*
X132080000Y-83058000D03*
X137080000Y-83058000D03*
X132080000Y-85598000D03*
X137080000Y-85598000D03*
X132080000Y-88138000D03*
X137080000Y-88138000D03*
X132080000Y-90678000D03*
X137080000Y-90678000D03*
D13*
X165020000Y-44958000D03*
X170020000Y-44958000D03*
D14*
X165020000Y-47498000D03*
X170020000Y-47498000D03*
X165020000Y-50038000D03*
X170020000Y-50038000D03*
X165020000Y-52578000D03*
X170020000Y-52578000D03*
X165020000Y-55118000D03*
X170020000Y-55118000D03*
X165020000Y-57658000D03*
X170020000Y-57658000D03*
X165020000Y-60198000D03*
X170020000Y-60198000D03*
X165020000Y-62738000D03*
X170020000Y-62738000D03*
X165020000Y-65278000D03*
X170020000Y-65278000D03*
X165020000Y-67818000D03*
X170020000Y-67818000D03*
X165020000Y-70358000D03*
X170020000Y-70358000D03*
X165020000Y-72898000D03*
X170020000Y-72898000D03*
X165020000Y-75438000D03*
X170020000Y-75438000D03*
X165020000Y-77978000D03*
X170020000Y-77978000D03*
X165020000Y-80518000D03*
X170020000Y-80518000D03*
X165020000Y-83058000D03*
X170020000Y-83058000D03*
X165020000Y-85598000D03*
X170020000Y-85598000D03*
X165020000Y-88138000D03*
X170020000Y-88138000D03*
X165020000Y-90678000D03*
X170020000Y-90678000D03*
%TD*%
D13*
%TO.C,NRF1*%
X214724000Y-44196000D03*
D14*
X214724000Y-46736000D03*
X214724000Y-49276000D03*
X214724000Y-51816000D03*
X214724000Y-54356000D03*
X214724000Y-56896000D03*
D13*
X176986000Y-46736000D03*
D17*
X179526000Y-46736000D03*
X176986000Y-49276000D03*
X179526000Y-49276000D03*
X176986000Y-51816000D03*
X179526000Y-51816000D03*
X176986000Y-54356000D03*
X179526000Y-54356000D03*
%TD*%
D18*
%TO.C,U3*%
X212923625Y-69090500D03*
X208923625Y-69090500D03*
X204923625Y-69090500D03*
X200923625Y-69090500D03*
X196923625Y-69090500D03*
X192923625Y-69090500D03*
X188923625Y-69090500D03*
X184923625Y-69090500D03*
X180923625Y-69090500D03*
%TD*%
M02*
