%TF.GenerationSoftware,KiCad,Pcbnew,9.0.0*%
%TF.CreationDate,2025-10-27T19:49:06+01:00*%
%TF.ProjectId,Gamecube controller breakout mount,47616d65-6375-4626-9520-636f6e74726f,rev?*%
%TF.SameCoordinates,Original*%
%TF.FileFunction,Copper,L1,Top*%
%TF.FilePolarity,Positive*%
%FSLAX46Y46*%
G04 Gerber Fmt 4.6, Leading zero omitted, Abs format (unit mm)*
G04 Created by KiCad (PCBNEW 9.0.0) date 2025-10-27 19:49:06*
%MOMM*%
%LPD*%
G01*
G04 APERTURE LIST*
%TA.AperFunction,NonConductor*%
%ADD10C,0.200000*%
%TD*%
%TA.AperFunction,ComponentPad*%
%ADD11O,1.200000X0.800000*%
%TD*%
%TA.AperFunction,ComponentPad*%
%ADD12R,1.700000X1.700000*%
%TD*%
%TA.AperFunction,ComponentPad*%
%ADD13O,1.700000X1.700000*%
%TD*%
%TA.AperFunction,ComponentPad*%
%ADD14O,2.650000X0.850000*%
%TD*%
%TA.AperFunction,Conductor*%
%ADD15C,0.800000*%
%TD*%
%TA.AperFunction,Conductor*%
%ADD16C,0.500000*%
%TD*%
G04 APERTURE END LIST*
D10*
X121292600Y-76000000D02*
X164292600Y-76000000D01*
X164292600Y-110000000D01*
X121292600Y-110000000D01*
X121292600Y-76000000D01*
D11*
%TO.P,,3*%
%TO.N,N/C*%
X140864200Y-102071500D03*
%TD*%
%TO.P,,4*%
%TO.N,N/C*%
X144684200Y-100801500D03*
%TD*%
D12*
%TO.P,REF\u002A\u002A,1*%
%TO.N,N/C*%
X146574200Y-83186120D03*
D13*
%TO.P,REF\u002A\u002A,2*%
X144034200Y-83186120D03*
%TO.P,REF\u002A\u002A,3*%
X141494200Y-83186120D03*
%TO.P,REF\u002A\u002A,4*%
X138954200Y-83186120D03*
%TD*%
D11*
%TO.P,,5*%
%TO.N,N/C*%
X142774200Y-100801500D03*
%TD*%
D14*
%TO.P,,0*%
%TO.N,N/C*%
X142774200Y-107186500D03*
%TD*%
D11*
%TO.P,,2*%
%TO.N,N/C*%
X142774200Y-102071500D03*
%TD*%
%TO.P,,1*%
%TO.N,N/C*%
X144684200Y-102071500D03*
%TD*%
%TO.P,,6*%
%TO.N,N/C*%
X140864200Y-100801500D03*
%TD*%
D15*
%TO.N,*%
X149269600Y-89165920D02*
X149269600Y-100595920D01*
X147491600Y-89419920D02*
X144034200Y-85962520D01*
X144034200Y-83186120D02*
X144034200Y-85962520D01*
X138954200Y-98891500D02*
X140864200Y-100801500D01*
X143935600Y-103897920D02*
X142774200Y-102736520D01*
X141494200Y-83186120D02*
X138855600Y-80547520D01*
X142774200Y-102736520D02*
X142774200Y-102071500D01*
X144684200Y-102071500D02*
X145508020Y-102071500D01*
X138553180Y-102071500D02*
X136315600Y-99833920D01*
X146574200Y-83186120D02*
X146574200Y-86470520D01*
X145508020Y-102071500D02*
X147491600Y-100087920D01*
X144684200Y-89152520D02*
X141494200Y-85962520D01*
X147491600Y-100087920D02*
X147491600Y-89419920D01*
X146574200Y-86470520D02*
X149269600Y-89165920D01*
X138954200Y-83186120D02*
X138954200Y-98891500D01*
X136315600Y-80529920D02*
X136315600Y-99833920D01*
X149269600Y-100595920D02*
X145967600Y-103897920D01*
X145967600Y-103897920D02*
X143935600Y-103897920D01*
D16*
X142774200Y-102071500D02*
X142774200Y-102080440D01*
D15*
X141494200Y-85962520D02*
X141494200Y-83186120D01*
X140864200Y-102071500D02*
X138553180Y-102071500D01*
X138855600Y-80529920D02*
X136315600Y-80529920D01*
X138855600Y-80547520D02*
X138855600Y-80529920D01*
X144684200Y-100801500D02*
X144684200Y-89152520D01*
%TD*%
M02*
