%TF.GenerationSoftware,KiCad,Pcbnew,8.0.3*%
%TF.CreationDate,2024-06-28T16:48:33+02:00*%
%TF.ProjectId,pro micro nintendo adapter,70726f20-6d69-4637-926f-206e696e7465,rev?*%
%TF.SameCoordinates,Original*%
%TF.FileFunction,Copper,L2,Bot*%
%TF.FilePolarity,Positive*%
%FSLAX46Y46*%
G04 Gerber Fmt 4.6, Leading zero omitted, Abs format (unit mm)*
G04 Created by KiCad (PCBNEW 8.0.3) date 2024-06-28 16:48:33*
%MOMM*%
%LPD*%
G01*
G04 APERTURE LIST*
%TA.AperFunction,ComponentPad*%
%ADD10O,2.650000X0.850000*%
%TD*%
%TA.AperFunction,ComponentPad*%
%ADD11O,1.200000X0.800000*%
%TD*%
%TA.AperFunction,ComponentPad*%
%ADD12R,1.700000X1.700000*%
%TD*%
%TA.AperFunction,ComponentPad*%
%ADD13O,1.700000X1.700000*%
%TD*%
%TA.AperFunction,ComponentPad*%
%ADD14C,3.100000*%
%TD*%
%TA.AperFunction,ComponentPad*%
%ADD15R,2.400000X2.400000*%
%TD*%
%TA.AperFunction,ComponentPad*%
%ADD16C,2.400000*%
%TD*%
%TA.AperFunction,ComponentPad*%
%ADD17C,3.048000*%
%TD*%
%TA.AperFunction,ComponentPad*%
%ADD18C,1.270000*%
%TD*%
%TA.AperFunction,ComponentPad*%
%ADD19R,1.905000X2.000000*%
%TD*%
%TA.AperFunction,ComponentPad*%
%ADD20O,1.905000X2.000000*%
%TD*%
%TA.AperFunction,Conductor*%
%ADD21C,0.300000*%
%TD*%
G04 APERTURE END LIST*
D10*
%TO.P,U3,*%
%TO.N,*%
X131662000Y-127797000D03*
D11*
%TO.P,U3,1,5v*%
%TO.N,unconnected-(U3-5v-Pad1)*%
X133572000Y-122682000D03*
%TO.P,U3,2,DATA*%
%TO.N,Net-(U1-7)*%
X131662000Y-122682000D03*
%TO.P,U3,3,GND*%
%TO.N,Net-(3v3_regulator1-GND)*%
X129752000Y-122682000D03*
%TO.P,U3,4,GND*%
X133572000Y-121412000D03*
%TO.P,U3,5,NC*%
%TO.N,unconnected-(U3-NC-Pad5)*%
X131662000Y-121412000D03*
%TO.P,U3,6,3.3v*%
%TO.N,Net-(3v3_regulator1-VO)*%
X129752000Y-121412000D03*
%TD*%
D12*
%TO.P,U1,1,TX*%
%TO.N,unconnected-(U1-TX-Pad1)*%
X123952000Y-47713400D03*
D13*
%TO.P,U1,2,RX*%
%TO.N,unconnected-(U1-RX-Pad2)*%
X123952000Y-50253400D03*
%TO.P,U1,3,GND*%
%TO.N,unconnected-(U1-GND-Pad3)*%
X123952000Y-52793400D03*
%TO.P,U1,4,GND*%
%TO.N,unconnected-(U1-GND-Pad4)*%
X123952000Y-55333400D03*
%TO.P,U1,5,SDA*%
%TO.N,Net-(U1-SDA)*%
X123952000Y-57873400D03*
%TO.P,U1,6,SCL*%
%TO.N,Net-(U1-SCL)*%
X123952000Y-60413400D03*
%TO.P,U1,7,A6*%
%TO.N,unconnected-(U1-A6-Pad7)*%
X123952000Y-62953400D03*
%TO.P,U1,8,5*%
%TO.N,Net-(N64_controller1-DATA)*%
X123952000Y-65493400D03*
%TO.P,U1,9,A7*%
%TO.N,unconnected-(U1-A7-Pad9)*%
X123952000Y-68033400D03*
%TO.P,U1,10,7*%
%TO.N,Net-(U1-7)*%
X123952000Y-70573400D03*
%TO.P,U1,11,A8*%
%TO.N,unconnected-(U1-A8-Pad11)*%
X123952000Y-73113400D03*
%TO.P,U1,12,A9*%
%TO.N,unconnected-(U1-A9-Pad12)*%
X123952000Y-75653400D03*
D12*
%TO.P,U1,13,RAW*%
%TO.N,Net-(3v3_regulator1-VI)*%
X139192000Y-47713400D03*
D13*
%TO.P,U1,14,GND*%
%TO.N,Net-(3v3_regulator1-GND)*%
X139192000Y-50253400D03*
%TO.P,U1,15,RST*%
%TO.N,unconnected-(U1-RST-Pad15)*%
X139192000Y-52793400D03*
%TO.P,U1,16,VCC*%
%TO.N,unconnected-(U1-VCC-Pad16)*%
X139192000Y-55333400D03*
%TO.P,U1,17,A3*%
%TO.N,unconnected-(U1-A3-Pad17)*%
X139192000Y-57873400D03*
%TO.P,U1,18,A2*%
%TO.N,unconnected-(U1-A2-Pad18)*%
X139192000Y-60413400D03*
%TO.P,U1,19,A1*%
%TO.N,unconnected-(U1-A1-Pad19)*%
X139192000Y-62953400D03*
%TO.P,U1,20,A0*%
%TO.N,unconnected-(U1-A0-Pad20)*%
X139192000Y-65493400D03*
%TO.P,U1,21,SCLK*%
%TO.N,unconnected-(U1-SCLK-Pad21)*%
X139192000Y-68033400D03*
%TO.P,U1,22,MISO*%
%TO.N,unconnected-(U1-MISO-Pad22)*%
X139192000Y-70573400D03*
%TO.P,U1,23,MOSI*%
%TO.N,unconnected-(U1-MOSI-Pad23)*%
X139192000Y-73113400D03*
%TO.P,U1,24,A10*%
%TO.N,unconnected-(U1-A10-Pad24)*%
X139192000Y-75653400D03*
%TD*%
D14*
%TO.P,N64_controller1,1,3.3v*%
%TO.N,Net-(3v3_regulator1-VO)*%
X135722000Y-102762750D03*
%TO.P,N64_controller1,2,DATA*%
%TO.N,Net-(N64_controller1-DATA)*%
X131658000Y-102762750D03*
%TO.P,N64_controller1,3,GND*%
%TO.N,Net-(3v3_regulator1-GND)*%
X127594000Y-102762750D03*
%TD*%
D15*
%TO.P,C1,1*%
%TO.N,Net-(3v3_regulator1-VO)*%
X133869729Y-87376000D03*
D16*
%TO.P,C1,2*%
%TO.N,Net-(3v3_regulator1-GND)*%
X128869729Y-87376000D03*
%TD*%
D17*
%TO.P,U2,*%
%TO.N,*%
X137922000Y-146050000D03*
X137922000Y-140716000D03*
X125222000Y-146050000D03*
X125222000Y-140716000D03*
D18*
%TO.P,U2,1,VCC_3.3V*%
%TO.N,Net-(3v3_regulator1-VO)*%
X129667000Y-137922000D03*
%TO.P,U2,2,SCL*%
%TO.N,Net-(U1-SCL)*%
X129667000Y-139827000D03*
%TO.P,U2,3,Detect_device*%
%TO.N,unconnected-(U2-Detect_device-Pad3)*%
X131572000Y-137922000D03*
%TO.P,U2,4,NC*%
%TO.N,unconnected-(U2-NC-Pad4)*%
X131572000Y-139827000D03*
%TO.P,U2,5,SDA*%
%TO.N,Net-(U1-SDA)*%
X133477000Y-137922000D03*
%TO.P,U2,6,GND*%
%TO.N,Net-(3v3_regulator1-GND)*%
X133477000Y-139827000D03*
%TD*%
D19*
%TO.P,3v3_regulator1,1,GND*%
%TO.N,Net-(3v3_regulator1-GND)*%
X129032000Y-72984000D03*
D20*
%TO.P,3v3_regulator1,2,VO*%
%TO.N,Net-(3v3_regulator1-VO)*%
X131572000Y-72984000D03*
%TO.P,3v3_regulator1,3,VI*%
%TO.N,Net-(3v3_regulator1-VI)*%
X134112000Y-72984000D03*
%TD*%
D21*
%TO.N,Net-(3v3_regulator1-VO)*%
X129752000Y-121412000D02*
X129752000Y-108732750D01*
X128524000Y-136779000D02*
X128524000Y-121920000D01*
X128524000Y-121920000D02*
X129032000Y-121412000D01*
X129667000Y-137922000D02*
X128524000Y-136779000D01*
X129752000Y-108732750D02*
X135722000Y-102762750D01*
X129032000Y-121412000D02*
X129752000Y-121412000D01*
%TO.N,Net-(3v3_regulator1-GND)*%
X135128000Y-138176000D02*
X135128000Y-121920000D01*
X134493000Y-123952000D02*
X135128000Y-123317000D01*
X129752000Y-122682000D02*
X131022000Y-123952000D01*
X134620000Y-121412000D02*
X133572000Y-121412000D01*
X128869729Y-87376000D02*
X128869729Y-101487021D01*
X131022000Y-123952000D02*
X134493000Y-123952000D01*
X135128000Y-121920000D02*
X134620000Y-121412000D01*
X128869729Y-101487021D02*
X127594000Y-102762750D01*
X135128000Y-123317000D02*
X135128000Y-121920000D01*
X133477000Y-139827000D02*
X135128000Y-138176000D01*
%TO.N,Net-(3v3_regulator1-VI)*%
X134112000Y-52793400D02*
X134112000Y-72984000D01*
X139192000Y-47713400D02*
X134112000Y-52793400D01*
%TO.N,Net-(U1-SCL)*%
X123952000Y-60413400D02*
X125476000Y-61937400D01*
X125476000Y-61937400D02*
X125476000Y-135636000D01*
X125476000Y-135636000D02*
X129667000Y-139827000D01*
%TD*%
M02*
