M48
; DRILL file {KiCad 8.0.3} date 2024-06-28T16:48:34+0200
; FORMAT={-:-/ absolute / inch / decimal}
; #@! TF.CreationDate,2024-06-28T16:48:34+02:00
; #@! TF.GenerationSoftware,Kicad,Pcbnew,8.0.3
; #@! TF.FileFunction,Plated,1,2,PTH
FMAT,2
INCH
; #@! TA.AperFunction,Plated,PTH,ComponentDrill
T1C0.0118
; #@! TA.AperFunction,Plated,PTH,ComponentDrill
T2C0.0138
; #@! TA.AperFunction,Plated,PTH,ComponentDrill
T3C0.0250
; #@! TA.AperFunction,Plated,PTH,ComponentDrill
T4C0.0394
; #@! TA.AperFunction,Plated,PTH,ComponentDrill
T5C0.0433
; #@! TA.AperFunction,Plated,PTH,ComponentDrill
T6C0.0472
; #@! TA.AperFunction,Plated,PTH,ComponentDrill
T7C0.0750
; #@! TA.AperFunction,Plated,PTH,ComponentDrill
T8C0.0866
%
G90
G05
T3
X5.105Y-5.43
X5.105Y-5.505
X5.18Y-5.43
X5.18Y-5.505
X5.255Y-5.43
X5.255Y-5.505
T4
X4.88Y-1.8785
X4.88Y-1.9785
X4.88Y-2.0785
X4.88Y-2.1785
X4.88Y-2.2785
X4.88Y-2.3785
X4.88Y-2.4785
X4.88Y-2.5785
X4.88Y-2.6785
X4.88Y-2.7785
X4.88Y-2.8785
X4.88Y-2.9785
X5.48Y-1.8785
X5.48Y-1.9785
X5.48Y-2.0785
X5.48Y-2.1785
X5.48Y-2.2785
X5.48Y-2.3785
X5.48Y-2.4785
X5.48Y-2.5785
X5.48Y-2.6785
X5.48Y-2.7785
X5.48Y-2.8785
X5.48Y-2.9785
T5
X5.08Y-2.8734
X5.18Y-2.8734
X5.28Y-2.8734
T6
X5.0736Y-3.44
X5.2705Y-3.44
T7
X4.93Y-5.54
X4.93Y-5.75
X5.43Y-5.54
X5.43Y-5.75
T8
X5.0234Y-4.0458
X5.1834Y-4.0458
X5.3434Y-4.0458
T1
G00X5.1005Y-4.78
M15
G01X5.1162Y-4.78
M16
G05
G00X5.1005Y-4.83
M15
G01X5.1162Y-4.83
M16
G05
G00X5.1757Y-4.78
M15
G01X5.1914Y-4.78
M16
G05
G00X5.1757Y-4.83
M15
G01X5.1914Y-4.83
M16
G05
G00X5.2509Y-4.78
M15
G01X5.2666Y-4.78
M16
G05
G00X5.2509Y-4.83
M15
G01X5.2666Y-4.83
M16
G05
T2
G00X5.1481Y-5.0314
M15
G01X5.219Y-5.0314
M16
G05
M30
