%TF.GenerationSoftware,KiCad,Pcbnew,8.0.3*%
%TF.CreationDate,2024-06-22T22:46:11+02:00*%
%TF.ProjectId,arcade stick,61726361-6465-4207-9374-69636b2e6b69,rev?*%
%TF.SameCoordinates,Original*%
%TF.FileFunction,Legend,Top*%
%TF.FilePolarity,Positive*%
%FSLAX46Y46*%
G04 Gerber Fmt 4.6, Leading zero omitted, Abs format (unit mm)*
G04 Created by KiCad (PCBNEW 8.0.3) date 2024-06-22 22:46:11*
%MOMM*%
%LPD*%
G01*
G04 APERTURE LIST*
%ADD10C,0.300000*%
%ADD11C,0.200000*%
%ADD12C,0.150000*%
%ADD13C,0.120000*%
%ADD14C,0.100000*%
G04 APERTURE END LIST*
D10*
X111139653Y-58077971D02*
X111068225Y-58149400D01*
X111068225Y-58149400D02*
X110853939Y-58220828D01*
X110853939Y-58220828D02*
X110711082Y-58220828D01*
X110711082Y-58220828D02*
X110496796Y-58149400D01*
X110496796Y-58149400D02*
X110353939Y-58006542D01*
X110353939Y-58006542D02*
X110282510Y-57863685D01*
X110282510Y-57863685D02*
X110211082Y-57577971D01*
X110211082Y-57577971D02*
X110211082Y-57363685D01*
X110211082Y-57363685D02*
X110282510Y-57077971D01*
X110282510Y-57077971D02*
X110353939Y-56935114D01*
X110353939Y-56935114D02*
X110496796Y-56792257D01*
X110496796Y-56792257D02*
X110711082Y-56720828D01*
X110711082Y-56720828D02*
X110853939Y-56720828D01*
X110853939Y-56720828D02*
X111068225Y-56792257D01*
X111068225Y-56792257D02*
X111139653Y-56863685D01*
X112639653Y-58220828D02*
X112139653Y-57506542D01*
X111782510Y-58220828D02*
X111782510Y-56720828D01*
X111782510Y-56720828D02*
X112353939Y-56720828D01*
X112353939Y-56720828D02*
X112496796Y-56792257D01*
X112496796Y-56792257D02*
X112568225Y-56863685D01*
X112568225Y-56863685D02*
X112639653Y-57006542D01*
X112639653Y-57006542D02*
X112639653Y-57220828D01*
X112639653Y-57220828D02*
X112568225Y-57363685D01*
X112568225Y-57363685D02*
X112496796Y-57435114D01*
X112496796Y-57435114D02*
X112353939Y-57506542D01*
X112353939Y-57506542D02*
X111782510Y-57506542D01*
X113711082Y-56720828D02*
X113711082Y-57792257D01*
X113711082Y-57792257D02*
X113639653Y-58006542D01*
X113639653Y-58006542D02*
X113496796Y-58149400D01*
X113496796Y-58149400D02*
X113282510Y-58220828D01*
X113282510Y-58220828D02*
X113139653Y-58220828D01*
D11*
X111334625Y-38745219D02*
X111667958Y-39745219D01*
X111667958Y-39745219D02*
X112001291Y-38745219D01*
X112906053Y-39649980D02*
X112858434Y-39697600D01*
X112858434Y-39697600D02*
X112715577Y-39745219D01*
X112715577Y-39745219D02*
X112620339Y-39745219D01*
X112620339Y-39745219D02*
X112477482Y-39697600D01*
X112477482Y-39697600D02*
X112382244Y-39602361D01*
X112382244Y-39602361D02*
X112334625Y-39507123D01*
X112334625Y-39507123D02*
X112287006Y-39316647D01*
X112287006Y-39316647D02*
X112287006Y-39173790D01*
X112287006Y-39173790D02*
X112334625Y-38983314D01*
X112334625Y-38983314D02*
X112382244Y-38888076D01*
X112382244Y-38888076D02*
X112477482Y-38792838D01*
X112477482Y-38792838D02*
X112620339Y-38745219D01*
X112620339Y-38745219D02*
X112715577Y-38745219D01*
X112715577Y-38745219D02*
X112858434Y-38792838D01*
X112858434Y-38792838D02*
X112906053Y-38840457D01*
X113906053Y-39649980D02*
X113858434Y-39697600D01*
X113858434Y-39697600D02*
X113715577Y-39745219D01*
X113715577Y-39745219D02*
X113620339Y-39745219D01*
X113620339Y-39745219D02*
X113477482Y-39697600D01*
X113477482Y-39697600D02*
X113382244Y-39602361D01*
X113382244Y-39602361D02*
X113334625Y-39507123D01*
X113334625Y-39507123D02*
X113287006Y-39316647D01*
X113287006Y-39316647D02*
X113287006Y-39173790D01*
X113287006Y-39173790D02*
X113334625Y-38983314D01*
X113334625Y-38983314D02*
X113382244Y-38888076D01*
X113382244Y-38888076D02*
X113477482Y-38792838D01*
X113477482Y-38792838D02*
X113620339Y-38745219D01*
X113620339Y-38745219D02*
X113715577Y-38745219D01*
X113715577Y-38745219D02*
X113858434Y-38792838D01*
X113858434Y-38792838D02*
X113906053Y-38840457D01*
X115620339Y-38792838D02*
X115525101Y-38745219D01*
X115525101Y-38745219D02*
X115382244Y-38745219D01*
X115382244Y-38745219D02*
X115239387Y-38792838D01*
X115239387Y-38792838D02*
X115144149Y-38888076D01*
X115144149Y-38888076D02*
X115096530Y-38983314D01*
X115096530Y-38983314D02*
X115048911Y-39173790D01*
X115048911Y-39173790D02*
X115048911Y-39316647D01*
X115048911Y-39316647D02*
X115096530Y-39507123D01*
X115096530Y-39507123D02*
X115144149Y-39602361D01*
X115144149Y-39602361D02*
X115239387Y-39697600D01*
X115239387Y-39697600D02*
X115382244Y-39745219D01*
X115382244Y-39745219D02*
X115477482Y-39745219D01*
X115477482Y-39745219D02*
X115620339Y-39697600D01*
X115620339Y-39697600D02*
X115667958Y-39649980D01*
X115667958Y-39649980D02*
X115667958Y-39316647D01*
X115667958Y-39316647D02*
X115477482Y-39316647D01*
X116096530Y-39745219D02*
X116096530Y-38745219D01*
X116096530Y-38745219D02*
X116667958Y-39745219D01*
X116667958Y-39745219D02*
X116667958Y-38745219D01*
X117144149Y-39745219D02*
X117144149Y-38745219D01*
X117144149Y-38745219D02*
X117382244Y-38745219D01*
X117382244Y-38745219D02*
X117525101Y-38792838D01*
X117525101Y-38792838D02*
X117620339Y-38888076D01*
X117620339Y-38888076D02*
X117667958Y-38983314D01*
X117667958Y-38983314D02*
X117715577Y-39173790D01*
X117715577Y-39173790D02*
X117715577Y-39316647D01*
X117715577Y-39316647D02*
X117667958Y-39507123D01*
X117667958Y-39507123D02*
X117620339Y-39602361D01*
X117620339Y-39602361D02*
X117525101Y-39697600D01*
X117525101Y-39697600D02*
X117382244Y-39745219D01*
X117382244Y-39745219D02*
X117144149Y-39745219D01*
X118858435Y-39697600D02*
X119001292Y-39745219D01*
X119001292Y-39745219D02*
X119239387Y-39745219D01*
X119239387Y-39745219D02*
X119334625Y-39697600D01*
X119334625Y-39697600D02*
X119382244Y-39649980D01*
X119382244Y-39649980D02*
X119429863Y-39554742D01*
X119429863Y-39554742D02*
X119429863Y-39459504D01*
X119429863Y-39459504D02*
X119382244Y-39364266D01*
X119382244Y-39364266D02*
X119334625Y-39316647D01*
X119334625Y-39316647D02*
X119239387Y-39269028D01*
X119239387Y-39269028D02*
X119048911Y-39221409D01*
X119048911Y-39221409D02*
X118953673Y-39173790D01*
X118953673Y-39173790D02*
X118906054Y-39126171D01*
X118906054Y-39126171D02*
X118858435Y-39030933D01*
X118858435Y-39030933D02*
X118858435Y-38935695D01*
X118858435Y-38935695D02*
X118906054Y-38840457D01*
X118906054Y-38840457D02*
X118953673Y-38792838D01*
X118953673Y-38792838D02*
X119048911Y-38745219D01*
X119048911Y-38745219D02*
X119287006Y-38745219D01*
X119287006Y-38745219D02*
X119429863Y-38792838D01*
X120429863Y-39649980D02*
X120382244Y-39697600D01*
X120382244Y-39697600D02*
X120239387Y-39745219D01*
X120239387Y-39745219D02*
X120144149Y-39745219D01*
X120144149Y-39745219D02*
X120001292Y-39697600D01*
X120001292Y-39697600D02*
X119906054Y-39602361D01*
X119906054Y-39602361D02*
X119858435Y-39507123D01*
X119858435Y-39507123D02*
X119810816Y-39316647D01*
X119810816Y-39316647D02*
X119810816Y-39173790D01*
X119810816Y-39173790D02*
X119858435Y-38983314D01*
X119858435Y-38983314D02*
X119906054Y-38888076D01*
X119906054Y-38888076D02*
X120001292Y-38792838D01*
X120001292Y-38792838D02*
X120144149Y-38745219D01*
X120144149Y-38745219D02*
X120239387Y-38745219D01*
X120239387Y-38745219D02*
X120382244Y-38792838D01*
X120382244Y-38792838D02*
X120429863Y-38840457D01*
X120858435Y-39745219D02*
X120858435Y-38745219D01*
X121429863Y-39745219D02*
X121001292Y-39173790D01*
X121429863Y-38745219D02*
X120858435Y-39316647D01*
X122572721Y-39697600D02*
X122715578Y-39745219D01*
X122715578Y-39745219D02*
X122953673Y-39745219D01*
X122953673Y-39745219D02*
X123048911Y-39697600D01*
X123048911Y-39697600D02*
X123096530Y-39649980D01*
X123096530Y-39649980D02*
X123144149Y-39554742D01*
X123144149Y-39554742D02*
X123144149Y-39459504D01*
X123144149Y-39459504D02*
X123096530Y-39364266D01*
X123096530Y-39364266D02*
X123048911Y-39316647D01*
X123048911Y-39316647D02*
X122953673Y-39269028D01*
X122953673Y-39269028D02*
X122763197Y-39221409D01*
X122763197Y-39221409D02*
X122667959Y-39173790D01*
X122667959Y-39173790D02*
X122620340Y-39126171D01*
X122620340Y-39126171D02*
X122572721Y-39030933D01*
X122572721Y-39030933D02*
X122572721Y-38935695D01*
X122572721Y-38935695D02*
X122620340Y-38840457D01*
X122620340Y-38840457D02*
X122667959Y-38792838D01*
X122667959Y-38792838D02*
X122763197Y-38745219D01*
X122763197Y-38745219D02*
X123001292Y-38745219D01*
X123001292Y-38745219D02*
X123144149Y-38792838D01*
X123572721Y-39745219D02*
X123572721Y-38745219D01*
X123572721Y-38745219D02*
X123810816Y-38745219D01*
X123810816Y-38745219D02*
X123953673Y-38792838D01*
X123953673Y-38792838D02*
X124048911Y-38888076D01*
X124048911Y-38888076D02*
X124096530Y-38983314D01*
X124096530Y-38983314D02*
X124144149Y-39173790D01*
X124144149Y-39173790D02*
X124144149Y-39316647D01*
X124144149Y-39316647D02*
X124096530Y-39507123D01*
X124096530Y-39507123D02*
X124048911Y-39602361D01*
X124048911Y-39602361D02*
X123953673Y-39697600D01*
X123953673Y-39697600D02*
X123810816Y-39745219D01*
X123810816Y-39745219D02*
X123572721Y-39745219D01*
X124525102Y-39459504D02*
X125001292Y-39459504D01*
X124429864Y-39745219D02*
X124763197Y-38745219D01*
X124763197Y-38745219D02*
X125096530Y-39745219D01*
D12*
X117985010Y-77475580D02*
X117937391Y-77523200D01*
X117937391Y-77523200D02*
X117794534Y-77570819D01*
X117794534Y-77570819D02*
X117699296Y-77570819D01*
X117699296Y-77570819D02*
X117556439Y-77523200D01*
X117556439Y-77523200D02*
X117461201Y-77427961D01*
X117461201Y-77427961D02*
X117413582Y-77332723D01*
X117413582Y-77332723D02*
X117365963Y-77142247D01*
X117365963Y-77142247D02*
X117365963Y-76999390D01*
X117365963Y-76999390D02*
X117413582Y-76808914D01*
X117413582Y-76808914D02*
X117461201Y-76713676D01*
X117461201Y-76713676D02*
X117556439Y-76618438D01*
X117556439Y-76618438D02*
X117699296Y-76570819D01*
X117699296Y-76570819D02*
X117794534Y-76570819D01*
X117794534Y-76570819D02*
X117937391Y-76618438D01*
X117937391Y-76618438D02*
X117985010Y-76666057D01*
X118937391Y-77570819D02*
X118365963Y-77570819D01*
X118651677Y-77570819D02*
X118651677Y-76570819D01*
X118651677Y-76570819D02*
X118556439Y-76713676D01*
X118556439Y-76713676D02*
X118461201Y-76808914D01*
X118461201Y-76808914D02*
X118365963Y-76856533D01*
X113736380Y-41364819D02*
X113926856Y-41364819D01*
X113926856Y-41364819D02*
X114022094Y-41412438D01*
X114022094Y-41412438D02*
X114117332Y-41507676D01*
X114117332Y-41507676D02*
X114164951Y-41698152D01*
X114164951Y-41698152D02*
X114164951Y-42031485D01*
X114164951Y-42031485D02*
X114117332Y-42221961D01*
X114117332Y-42221961D02*
X114022094Y-42317200D01*
X114022094Y-42317200D02*
X113926856Y-42364819D01*
X113926856Y-42364819D02*
X113736380Y-42364819D01*
X113736380Y-42364819D02*
X113641142Y-42317200D01*
X113641142Y-42317200D02*
X113545904Y-42221961D01*
X113545904Y-42221961D02*
X113498285Y-42031485D01*
X113498285Y-42031485D02*
X113498285Y-41698152D01*
X113498285Y-41698152D02*
X113545904Y-41507676D01*
X113545904Y-41507676D02*
X113641142Y-41412438D01*
X113641142Y-41412438D02*
X113736380Y-41364819D01*
X114736380Y-42364819D02*
X114641142Y-42317200D01*
X114641142Y-42317200D02*
X114593523Y-42221961D01*
X114593523Y-42221961D02*
X114593523Y-41364819D01*
X115498285Y-42317200D02*
X115403047Y-42364819D01*
X115403047Y-42364819D02*
X115212571Y-42364819D01*
X115212571Y-42364819D02*
X115117333Y-42317200D01*
X115117333Y-42317200D02*
X115069714Y-42221961D01*
X115069714Y-42221961D02*
X115069714Y-41841009D01*
X115069714Y-41841009D02*
X115117333Y-41745771D01*
X115117333Y-41745771D02*
X115212571Y-41698152D01*
X115212571Y-41698152D02*
X115403047Y-41698152D01*
X115403047Y-41698152D02*
X115498285Y-41745771D01*
X115498285Y-41745771D02*
X115545904Y-41841009D01*
X115545904Y-41841009D02*
X115545904Y-41936247D01*
X115545904Y-41936247D02*
X115069714Y-42031485D01*
X116403047Y-42364819D02*
X116403047Y-41364819D01*
X116403047Y-42317200D02*
X116307809Y-42364819D01*
X116307809Y-42364819D02*
X116117333Y-42364819D01*
X116117333Y-42364819D02*
X116022095Y-42317200D01*
X116022095Y-42317200D02*
X115974476Y-42269580D01*
X115974476Y-42269580D02*
X115926857Y-42174342D01*
X115926857Y-42174342D02*
X115926857Y-41888628D01*
X115926857Y-41888628D02*
X115974476Y-41793390D01*
X115974476Y-41793390D02*
X116022095Y-41745771D01*
X116022095Y-41745771D02*
X116117333Y-41698152D01*
X116117333Y-41698152D02*
X116307809Y-41698152D01*
X116307809Y-41698152D02*
X116403047Y-41745771D01*
X116641143Y-42460057D02*
X117403047Y-42460057D01*
X117593524Y-42317200D02*
X117688762Y-42364819D01*
X117688762Y-42364819D02*
X117879238Y-42364819D01*
X117879238Y-42364819D02*
X117974476Y-42317200D01*
X117974476Y-42317200D02*
X118022095Y-42221961D01*
X118022095Y-42221961D02*
X118022095Y-42174342D01*
X118022095Y-42174342D02*
X117974476Y-42079104D01*
X117974476Y-42079104D02*
X117879238Y-42031485D01*
X117879238Y-42031485D02*
X117736381Y-42031485D01*
X117736381Y-42031485D02*
X117641143Y-41983866D01*
X117641143Y-41983866D02*
X117593524Y-41888628D01*
X117593524Y-41888628D02*
X117593524Y-41841009D01*
X117593524Y-41841009D02*
X117641143Y-41745771D01*
X117641143Y-41745771D02*
X117736381Y-41698152D01*
X117736381Y-41698152D02*
X117879238Y-41698152D01*
X117879238Y-41698152D02*
X117974476Y-41745771D01*
X118879238Y-42317200D02*
X118784000Y-42364819D01*
X118784000Y-42364819D02*
X118593524Y-42364819D01*
X118593524Y-42364819D02*
X118498286Y-42317200D01*
X118498286Y-42317200D02*
X118450667Y-42269580D01*
X118450667Y-42269580D02*
X118403048Y-42174342D01*
X118403048Y-42174342D02*
X118403048Y-41888628D01*
X118403048Y-41888628D02*
X118450667Y-41793390D01*
X118450667Y-41793390D02*
X118498286Y-41745771D01*
X118498286Y-41745771D02*
X118593524Y-41698152D01*
X118593524Y-41698152D02*
X118784000Y-41698152D01*
X118784000Y-41698152D02*
X118879238Y-41745771D01*
X119307810Y-42364819D02*
X119307810Y-41698152D01*
X119307810Y-41888628D02*
X119355429Y-41793390D01*
X119355429Y-41793390D02*
X119403048Y-41745771D01*
X119403048Y-41745771D02*
X119498286Y-41698152D01*
X119498286Y-41698152D02*
X119593524Y-41698152D01*
X120307810Y-42317200D02*
X120212572Y-42364819D01*
X120212572Y-42364819D02*
X120022096Y-42364819D01*
X120022096Y-42364819D02*
X119926858Y-42317200D01*
X119926858Y-42317200D02*
X119879239Y-42221961D01*
X119879239Y-42221961D02*
X119879239Y-41841009D01*
X119879239Y-41841009D02*
X119926858Y-41745771D01*
X119926858Y-41745771D02*
X120022096Y-41698152D01*
X120022096Y-41698152D02*
X120212572Y-41698152D01*
X120212572Y-41698152D02*
X120307810Y-41745771D01*
X120307810Y-41745771D02*
X120355429Y-41841009D01*
X120355429Y-41841009D02*
X120355429Y-41936247D01*
X120355429Y-41936247D02*
X119879239Y-42031485D01*
X121164953Y-42317200D02*
X121069715Y-42364819D01*
X121069715Y-42364819D02*
X120879239Y-42364819D01*
X120879239Y-42364819D02*
X120784001Y-42317200D01*
X120784001Y-42317200D02*
X120736382Y-42221961D01*
X120736382Y-42221961D02*
X120736382Y-41841009D01*
X120736382Y-41841009D02*
X120784001Y-41745771D01*
X120784001Y-41745771D02*
X120879239Y-41698152D01*
X120879239Y-41698152D02*
X121069715Y-41698152D01*
X121069715Y-41698152D02*
X121164953Y-41745771D01*
X121164953Y-41745771D02*
X121212572Y-41841009D01*
X121212572Y-41841009D02*
X121212572Y-41936247D01*
X121212572Y-41936247D02*
X120736382Y-42031485D01*
X121641144Y-41698152D02*
X121641144Y-42364819D01*
X121641144Y-41793390D02*
X121688763Y-41745771D01*
X121688763Y-41745771D02*
X121784001Y-41698152D01*
X121784001Y-41698152D02*
X121926858Y-41698152D01*
X121926858Y-41698152D02*
X122022096Y-41745771D01*
X122022096Y-41745771D02*
X122069715Y-41841009D01*
X122069715Y-41841009D02*
X122069715Y-42364819D01*
X123069715Y-42364819D02*
X122498287Y-42364819D01*
X122784001Y-42364819D02*
X122784001Y-41364819D01*
X122784001Y-41364819D02*
X122688763Y-41507676D01*
X122688763Y-41507676D02*
X122593525Y-41602914D01*
X122593525Y-41602914D02*
X122498287Y-41650533D01*
X117405095Y-127670819D02*
X117405095Y-128480342D01*
X117405095Y-128480342D02*
X117452714Y-128575580D01*
X117452714Y-128575580D02*
X117500333Y-128623200D01*
X117500333Y-128623200D02*
X117595571Y-128670819D01*
X117595571Y-128670819D02*
X117786047Y-128670819D01*
X117786047Y-128670819D02*
X117881285Y-128623200D01*
X117881285Y-128623200D02*
X117928904Y-128575580D01*
X117928904Y-128575580D02*
X117976523Y-128480342D01*
X117976523Y-128480342D02*
X117976523Y-127670819D01*
X118405095Y-127766057D02*
X118452714Y-127718438D01*
X118452714Y-127718438D02*
X118547952Y-127670819D01*
X118547952Y-127670819D02*
X118786047Y-127670819D01*
X118786047Y-127670819D02*
X118881285Y-127718438D01*
X118881285Y-127718438D02*
X118928904Y-127766057D01*
X118928904Y-127766057D02*
X118976523Y-127861295D01*
X118976523Y-127861295D02*
X118976523Y-127956533D01*
X118976523Y-127956533D02*
X118928904Y-128099390D01*
X118928904Y-128099390D02*
X118357476Y-128670819D01*
X118357476Y-128670819D02*
X118976523Y-128670819D01*
X117395095Y-102534819D02*
X117395095Y-103344342D01*
X117395095Y-103344342D02*
X117442714Y-103439580D01*
X117442714Y-103439580D02*
X117490333Y-103487200D01*
X117490333Y-103487200D02*
X117585571Y-103534819D01*
X117585571Y-103534819D02*
X117776047Y-103534819D01*
X117776047Y-103534819D02*
X117871285Y-103487200D01*
X117871285Y-103487200D02*
X117918904Y-103439580D01*
X117918904Y-103439580D02*
X117966523Y-103344342D01*
X117966523Y-103344342D02*
X117966523Y-102534819D01*
X118966523Y-103534819D02*
X118395095Y-103534819D01*
X118680809Y-103534819D02*
X118680809Y-102534819D01*
X118680809Y-102534819D02*
X118585571Y-102677676D01*
X118585571Y-102677676D02*
X118490333Y-102772914D01*
X118490333Y-102772914D02*
X118395095Y-102820533D01*
X102103200Y-149637523D02*
X102150819Y-149494666D01*
X102150819Y-149494666D02*
X102150819Y-149256571D01*
X102150819Y-149256571D02*
X102103200Y-149161333D01*
X102103200Y-149161333D02*
X102055580Y-149113714D01*
X102055580Y-149113714D02*
X101960342Y-149066095D01*
X101960342Y-149066095D02*
X101865104Y-149066095D01*
X101865104Y-149066095D02*
X101769866Y-149113714D01*
X101769866Y-149113714D02*
X101722247Y-149161333D01*
X101722247Y-149161333D02*
X101674628Y-149256571D01*
X101674628Y-149256571D02*
X101627009Y-149447047D01*
X101627009Y-149447047D02*
X101579390Y-149542285D01*
X101579390Y-149542285D02*
X101531771Y-149589904D01*
X101531771Y-149589904D02*
X101436533Y-149637523D01*
X101436533Y-149637523D02*
X101341295Y-149637523D01*
X101341295Y-149637523D02*
X101246057Y-149589904D01*
X101246057Y-149589904D02*
X101198438Y-149542285D01*
X101198438Y-149542285D02*
X101150819Y-149447047D01*
X101150819Y-149447047D02*
X101150819Y-149208952D01*
X101150819Y-149208952D02*
X101198438Y-149066095D01*
X101150819Y-148732761D02*
X102150819Y-148494666D01*
X102150819Y-148494666D02*
X101436533Y-148304190D01*
X101436533Y-148304190D02*
X102150819Y-148113714D01*
X102150819Y-148113714D02*
X101150819Y-147875619D01*
X102150819Y-146970857D02*
X102150819Y-147542285D01*
X102150819Y-147256571D02*
X101150819Y-147256571D01*
X101150819Y-147256571D02*
X101293676Y-147351809D01*
X101293676Y-147351809D02*
X101388914Y-147447047D01*
X101388914Y-147447047D02*
X101436533Y-147542285D01*
X101150819Y-146113714D02*
X101150819Y-146304190D01*
X101150819Y-146304190D02*
X101198438Y-146399428D01*
X101198438Y-146399428D02*
X101246057Y-146447047D01*
X101246057Y-146447047D02*
X101388914Y-146542285D01*
X101388914Y-146542285D02*
X101579390Y-146589904D01*
X101579390Y-146589904D02*
X101960342Y-146589904D01*
X101960342Y-146589904D02*
X102055580Y-146542285D01*
X102055580Y-146542285D02*
X102103200Y-146494666D01*
X102103200Y-146494666D02*
X102150819Y-146399428D01*
X102150819Y-146399428D02*
X102150819Y-146208952D01*
X102150819Y-146208952D02*
X102103200Y-146113714D01*
X102103200Y-146113714D02*
X102055580Y-146066095D01*
X102055580Y-146066095D02*
X101960342Y-146018476D01*
X101960342Y-146018476D02*
X101722247Y-146018476D01*
X101722247Y-146018476D02*
X101627009Y-146066095D01*
X101627009Y-146066095D02*
X101579390Y-146113714D01*
X101579390Y-146113714D02*
X101531771Y-146208952D01*
X101531771Y-146208952D02*
X101531771Y-146399428D01*
X101531771Y-146399428D02*
X101579390Y-146494666D01*
X101579390Y-146494666D02*
X101627009Y-146542285D01*
X101627009Y-146542285D02*
X101722247Y-146589904D01*
X102103200Y-145573523D02*
X102150819Y-145430666D01*
X102150819Y-145430666D02*
X102150819Y-145192571D01*
X102150819Y-145192571D02*
X102103200Y-145097333D01*
X102103200Y-145097333D02*
X102055580Y-145049714D01*
X102055580Y-145049714D02*
X101960342Y-145002095D01*
X101960342Y-145002095D02*
X101865104Y-145002095D01*
X101865104Y-145002095D02*
X101769866Y-145049714D01*
X101769866Y-145049714D02*
X101722247Y-145097333D01*
X101722247Y-145097333D02*
X101674628Y-145192571D01*
X101674628Y-145192571D02*
X101627009Y-145383047D01*
X101627009Y-145383047D02*
X101579390Y-145478285D01*
X101579390Y-145478285D02*
X101531771Y-145525904D01*
X101531771Y-145525904D02*
X101436533Y-145573523D01*
X101436533Y-145573523D02*
X101341295Y-145573523D01*
X101341295Y-145573523D02*
X101246057Y-145525904D01*
X101246057Y-145525904D02*
X101198438Y-145478285D01*
X101198438Y-145478285D02*
X101150819Y-145383047D01*
X101150819Y-145383047D02*
X101150819Y-145144952D01*
X101150819Y-145144952D02*
X101198438Y-145002095D01*
X101150819Y-144668761D02*
X102150819Y-144430666D01*
X102150819Y-144430666D02*
X101436533Y-144240190D01*
X101436533Y-144240190D02*
X102150819Y-144049714D01*
X102150819Y-144049714D02*
X101150819Y-143811619D01*
X102150819Y-142906857D02*
X102150819Y-143478285D01*
X102150819Y-143192571D02*
X101150819Y-143192571D01*
X101150819Y-143192571D02*
X101293676Y-143287809D01*
X101293676Y-143287809D02*
X101388914Y-143383047D01*
X101388914Y-143383047D02*
X101436533Y-143478285D01*
X101150819Y-142002095D02*
X101150819Y-142478285D01*
X101150819Y-142478285D02*
X101627009Y-142525904D01*
X101627009Y-142525904D02*
X101579390Y-142478285D01*
X101579390Y-142478285D02*
X101531771Y-142383047D01*
X101531771Y-142383047D02*
X101531771Y-142144952D01*
X101531771Y-142144952D02*
X101579390Y-142049714D01*
X101579390Y-142049714D02*
X101627009Y-142002095D01*
X101627009Y-142002095D02*
X101722247Y-141954476D01*
X101722247Y-141954476D02*
X101960342Y-141954476D01*
X101960342Y-141954476D02*
X102055580Y-142002095D01*
X102055580Y-142002095D02*
X102103200Y-142049714D01*
X102103200Y-142049714D02*
X102150819Y-142144952D01*
X102150819Y-142144952D02*
X102150819Y-142383047D01*
X102150819Y-142383047D02*
X102103200Y-142478285D01*
X102103200Y-142478285D02*
X102055580Y-142525904D01*
X102103200Y-141509523D02*
X102150819Y-141366666D01*
X102150819Y-141366666D02*
X102150819Y-141128571D01*
X102150819Y-141128571D02*
X102103200Y-141033333D01*
X102103200Y-141033333D02*
X102055580Y-140985714D01*
X102055580Y-140985714D02*
X101960342Y-140938095D01*
X101960342Y-140938095D02*
X101865104Y-140938095D01*
X101865104Y-140938095D02*
X101769866Y-140985714D01*
X101769866Y-140985714D02*
X101722247Y-141033333D01*
X101722247Y-141033333D02*
X101674628Y-141128571D01*
X101674628Y-141128571D02*
X101627009Y-141319047D01*
X101627009Y-141319047D02*
X101579390Y-141414285D01*
X101579390Y-141414285D02*
X101531771Y-141461904D01*
X101531771Y-141461904D02*
X101436533Y-141509523D01*
X101436533Y-141509523D02*
X101341295Y-141509523D01*
X101341295Y-141509523D02*
X101246057Y-141461904D01*
X101246057Y-141461904D02*
X101198438Y-141414285D01*
X101198438Y-141414285D02*
X101150819Y-141319047D01*
X101150819Y-141319047D02*
X101150819Y-141080952D01*
X101150819Y-141080952D02*
X101198438Y-140938095D01*
X101150819Y-140604761D02*
X102150819Y-140366666D01*
X102150819Y-140366666D02*
X101436533Y-140176190D01*
X101436533Y-140176190D02*
X102150819Y-139985714D01*
X102150819Y-139985714D02*
X101150819Y-139747619D01*
X102150819Y-138842857D02*
X102150819Y-139414285D01*
X102150819Y-139128571D02*
X101150819Y-139128571D01*
X101150819Y-139128571D02*
X101293676Y-139223809D01*
X101293676Y-139223809D02*
X101388914Y-139319047D01*
X101388914Y-139319047D02*
X101436533Y-139414285D01*
X101484152Y-137985714D02*
X102150819Y-137985714D01*
X101103200Y-138223809D02*
X101817485Y-138461904D01*
X101817485Y-138461904D02*
X101817485Y-137842857D01*
X102103200Y-137445523D02*
X102150819Y-137302666D01*
X102150819Y-137302666D02*
X102150819Y-137064571D01*
X102150819Y-137064571D02*
X102103200Y-136969333D01*
X102103200Y-136969333D02*
X102055580Y-136921714D01*
X102055580Y-136921714D02*
X101960342Y-136874095D01*
X101960342Y-136874095D02*
X101865104Y-136874095D01*
X101865104Y-136874095D02*
X101769866Y-136921714D01*
X101769866Y-136921714D02*
X101722247Y-136969333D01*
X101722247Y-136969333D02*
X101674628Y-137064571D01*
X101674628Y-137064571D02*
X101627009Y-137255047D01*
X101627009Y-137255047D02*
X101579390Y-137350285D01*
X101579390Y-137350285D02*
X101531771Y-137397904D01*
X101531771Y-137397904D02*
X101436533Y-137445523D01*
X101436533Y-137445523D02*
X101341295Y-137445523D01*
X101341295Y-137445523D02*
X101246057Y-137397904D01*
X101246057Y-137397904D02*
X101198438Y-137350285D01*
X101198438Y-137350285D02*
X101150819Y-137255047D01*
X101150819Y-137255047D02*
X101150819Y-137016952D01*
X101150819Y-137016952D02*
X101198438Y-136874095D01*
X101150819Y-136540761D02*
X102150819Y-136302666D01*
X102150819Y-136302666D02*
X101436533Y-136112190D01*
X101436533Y-136112190D02*
X102150819Y-135921714D01*
X102150819Y-135921714D02*
X101150819Y-135683619D01*
X102150819Y-134778857D02*
X102150819Y-135350285D01*
X102150819Y-135064571D02*
X101150819Y-135064571D01*
X101150819Y-135064571D02*
X101293676Y-135159809D01*
X101293676Y-135159809D02*
X101388914Y-135255047D01*
X101388914Y-135255047D02*
X101436533Y-135350285D01*
X101150819Y-134445523D02*
X101150819Y-133826476D01*
X101150819Y-133826476D02*
X101531771Y-134159809D01*
X101531771Y-134159809D02*
X101531771Y-134016952D01*
X101531771Y-134016952D02*
X101579390Y-133921714D01*
X101579390Y-133921714D02*
X101627009Y-133874095D01*
X101627009Y-133874095D02*
X101722247Y-133826476D01*
X101722247Y-133826476D02*
X101960342Y-133826476D01*
X101960342Y-133826476D02*
X102055580Y-133874095D01*
X102055580Y-133874095D02*
X102103200Y-133921714D01*
X102103200Y-133921714D02*
X102150819Y-134016952D01*
X102150819Y-134016952D02*
X102150819Y-134302666D01*
X102150819Y-134302666D02*
X102103200Y-134397904D01*
X102103200Y-134397904D02*
X102055580Y-134445523D01*
X135284200Y-137367523D02*
X135331819Y-137224666D01*
X135331819Y-137224666D02*
X135331819Y-136986571D01*
X135331819Y-136986571D02*
X135284200Y-136891333D01*
X135284200Y-136891333D02*
X135236580Y-136843714D01*
X135236580Y-136843714D02*
X135141342Y-136796095D01*
X135141342Y-136796095D02*
X135046104Y-136796095D01*
X135046104Y-136796095D02*
X134950866Y-136843714D01*
X134950866Y-136843714D02*
X134903247Y-136891333D01*
X134903247Y-136891333D02*
X134855628Y-136986571D01*
X134855628Y-136986571D02*
X134808009Y-137177047D01*
X134808009Y-137177047D02*
X134760390Y-137272285D01*
X134760390Y-137272285D02*
X134712771Y-137319904D01*
X134712771Y-137319904D02*
X134617533Y-137367523D01*
X134617533Y-137367523D02*
X134522295Y-137367523D01*
X134522295Y-137367523D02*
X134427057Y-137319904D01*
X134427057Y-137319904D02*
X134379438Y-137272285D01*
X134379438Y-137272285D02*
X134331819Y-137177047D01*
X134331819Y-137177047D02*
X134331819Y-136938952D01*
X134331819Y-136938952D02*
X134379438Y-136796095D01*
X134331819Y-136462761D02*
X135331819Y-136224666D01*
X135331819Y-136224666D02*
X134617533Y-136034190D01*
X134617533Y-136034190D02*
X135331819Y-135843714D01*
X135331819Y-135843714D02*
X134331819Y-135605619D01*
X135331819Y-134700857D02*
X135331819Y-135272285D01*
X135331819Y-134986571D02*
X134331819Y-134986571D01*
X134331819Y-134986571D02*
X134474676Y-135081809D01*
X134474676Y-135081809D02*
X134569914Y-135177047D01*
X134569914Y-135177047D02*
X134617533Y-135272285D01*
X134427057Y-134319904D02*
X134379438Y-134272285D01*
X134379438Y-134272285D02*
X134331819Y-134177047D01*
X134331819Y-134177047D02*
X134331819Y-133938952D01*
X134331819Y-133938952D02*
X134379438Y-133843714D01*
X134379438Y-133843714D02*
X134427057Y-133796095D01*
X134427057Y-133796095D02*
X134522295Y-133748476D01*
X134522295Y-133748476D02*
X134617533Y-133748476D01*
X134617533Y-133748476D02*
X134760390Y-133796095D01*
X134760390Y-133796095D02*
X135331819Y-134367523D01*
X135331819Y-134367523D02*
X135331819Y-133748476D01*
X135279200Y-141509523D02*
X135326819Y-141366666D01*
X135326819Y-141366666D02*
X135326819Y-141128571D01*
X135326819Y-141128571D02*
X135279200Y-141033333D01*
X135279200Y-141033333D02*
X135231580Y-140985714D01*
X135231580Y-140985714D02*
X135136342Y-140938095D01*
X135136342Y-140938095D02*
X135041104Y-140938095D01*
X135041104Y-140938095D02*
X134945866Y-140985714D01*
X134945866Y-140985714D02*
X134898247Y-141033333D01*
X134898247Y-141033333D02*
X134850628Y-141128571D01*
X134850628Y-141128571D02*
X134803009Y-141319047D01*
X134803009Y-141319047D02*
X134755390Y-141414285D01*
X134755390Y-141414285D02*
X134707771Y-141461904D01*
X134707771Y-141461904D02*
X134612533Y-141509523D01*
X134612533Y-141509523D02*
X134517295Y-141509523D01*
X134517295Y-141509523D02*
X134422057Y-141461904D01*
X134422057Y-141461904D02*
X134374438Y-141414285D01*
X134374438Y-141414285D02*
X134326819Y-141319047D01*
X134326819Y-141319047D02*
X134326819Y-141080952D01*
X134326819Y-141080952D02*
X134374438Y-140938095D01*
X134326819Y-140604761D02*
X135326819Y-140366666D01*
X135326819Y-140366666D02*
X134612533Y-140176190D01*
X134612533Y-140176190D02*
X135326819Y-139985714D01*
X135326819Y-139985714D02*
X134326819Y-139747619D01*
X135326819Y-138842857D02*
X135326819Y-139414285D01*
X135326819Y-139128571D02*
X134326819Y-139128571D01*
X134326819Y-139128571D02*
X134469676Y-139223809D01*
X134469676Y-139223809D02*
X134564914Y-139319047D01*
X134564914Y-139319047D02*
X134612533Y-139414285D01*
X135326819Y-137890476D02*
X135326819Y-138461904D01*
X135326819Y-138176190D02*
X134326819Y-138176190D01*
X134326819Y-138176190D02*
X134469676Y-138271428D01*
X134469676Y-138271428D02*
X134564914Y-138366666D01*
X134564914Y-138366666D02*
X134612533Y-138461904D01*
X135279200Y-145573523D02*
X135326819Y-145430666D01*
X135326819Y-145430666D02*
X135326819Y-145192571D01*
X135326819Y-145192571D02*
X135279200Y-145097333D01*
X135279200Y-145097333D02*
X135231580Y-145049714D01*
X135231580Y-145049714D02*
X135136342Y-145002095D01*
X135136342Y-145002095D02*
X135041104Y-145002095D01*
X135041104Y-145002095D02*
X134945866Y-145049714D01*
X134945866Y-145049714D02*
X134898247Y-145097333D01*
X134898247Y-145097333D02*
X134850628Y-145192571D01*
X134850628Y-145192571D02*
X134803009Y-145383047D01*
X134803009Y-145383047D02*
X134755390Y-145478285D01*
X134755390Y-145478285D02*
X134707771Y-145525904D01*
X134707771Y-145525904D02*
X134612533Y-145573523D01*
X134612533Y-145573523D02*
X134517295Y-145573523D01*
X134517295Y-145573523D02*
X134422057Y-145525904D01*
X134422057Y-145525904D02*
X134374438Y-145478285D01*
X134374438Y-145478285D02*
X134326819Y-145383047D01*
X134326819Y-145383047D02*
X134326819Y-145144952D01*
X134326819Y-145144952D02*
X134374438Y-145002095D01*
X134326819Y-144668761D02*
X135326819Y-144430666D01*
X135326819Y-144430666D02*
X134612533Y-144240190D01*
X134612533Y-144240190D02*
X135326819Y-144049714D01*
X135326819Y-144049714D02*
X134326819Y-143811619D01*
X135326819Y-142906857D02*
X135326819Y-143478285D01*
X135326819Y-143192571D02*
X134326819Y-143192571D01*
X134326819Y-143192571D02*
X134469676Y-143287809D01*
X134469676Y-143287809D02*
X134564914Y-143383047D01*
X134564914Y-143383047D02*
X134612533Y-143478285D01*
X134326819Y-142287809D02*
X134326819Y-142192571D01*
X134326819Y-142192571D02*
X134374438Y-142097333D01*
X134374438Y-142097333D02*
X134422057Y-142049714D01*
X134422057Y-142049714D02*
X134517295Y-142002095D01*
X134517295Y-142002095D02*
X134707771Y-141954476D01*
X134707771Y-141954476D02*
X134945866Y-141954476D01*
X134945866Y-141954476D02*
X135136342Y-142002095D01*
X135136342Y-142002095D02*
X135231580Y-142049714D01*
X135231580Y-142049714D02*
X135279200Y-142097333D01*
X135279200Y-142097333D02*
X135326819Y-142192571D01*
X135326819Y-142192571D02*
X135326819Y-142287809D01*
X135326819Y-142287809D02*
X135279200Y-142383047D01*
X135279200Y-142383047D02*
X135231580Y-142430666D01*
X135231580Y-142430666D02*
X135136342Y-142478285D01*
X135136342Y-142478285D02*
X134945866Y-142525904D01*
X134945866Y-142525904D02*
X134707771Y-142525904D01*
X134707771Y-142525904D02*
X134517295Y-142478285D01*
X134517295Y-142478285D02*
X134422057Y-142430666D01*
X134422057Y-142430666D02*
X134374438Y-142383047D01*
X134374438Y-142383047D02*
X134326819Y-142287809D01*
X135279200Y-149161332D02*
X135326819Y-149018475D01*
X135326819Y-149018475D02*
X135326819Y-148780380D01*
X135326819Y-148780380D02*
X135279200Y-148685142D01*
X135279200Y-148685142D02*
X135231580Y-148637523D01*
X135231580Y-148637523D02*
X135136342Y-148589904D01*
X135136342Y-148589904D02*
X135041104Y-148589904D01*
X135041104Y-148589904D02*
X134945866Y-148637523D01*
X134945866Y-148637523D02*
X134898247Y-148685142D01*
X134898247Y-148685142D02*
X134850628Y-148780380D01*
X134850628Y-148780380D02*
X134803009Y-148970856D01*
X134803009Y-148970856D02*
X134755390Y-149066094D01*
X134755390Y-149066094D02*
X134707771Y-149113713D01*
X134707771Y-149113713D02*
X134612533Y-149161332D01*
X134612533Y-149161332D02*
X134517295Y-149161332D01*
X134517295Y-149161332D02*
X134422057Y-149113713D01*
X134422057Y-149113713D02*
X134374438Y-149066094D01*
X134374438Y-149066094D02*
X134326819Y-148970856D01*
X134326819Y-148970856D02*
X134326819Y-148732761D01*
X134326819Y-148732761D02*
X134374438Y-148589904D01*
X134326819Y-148256570D02*
X135326819Y-148018475D01*
X135326819Y-148018475D02*
X134612533Y-147827999D01*
X134612533Y-147827999D02*
X135326819Y-147637523D01*
X135326819Y-147637523D02*
X134326819Y-147399428D01*
X135326819Y-146970856D02*
X135326819Y-146780380D01*
X135326819Y-146780380D02*
X135279200Y-146685142D01*
X135279200Y-146685142D02*
X135231580Y-146637523D01*
X135231580Y-146637523D02*
X135088723Y-146542285D01*
X135088723Y-146542285D02*
X134898247Y-146494666D01*
X134898247Y-146494666D02*
X134517295Y-146494666D01*
X134517295Y-146494666D02*
X134422057Y-146542285D01*
X134422057Y-146542285D02*
X134374438Y-146589904D01*
X134374438Y-146589904D02*
X134326819Y-146685142D01*
X134326819Y-146685142D02*
X134326819Y-146875618D01*
X134326819Y-146875618D02*
X134374438Y-146970856D01*
X134374438Y-146970856D02*
X134422057Y-147018475D01*
X134422057Y-147018475D02*
X134517295Y-147066094D01*
X134517295Y-147066094D02*
X134755390Y-147066094D01*
X134755390Y-147066094D02*
X134850628Y-147018475D01*
X134850628Y-147018475D02*
X134898247Y-146970856D01*
X134898247Y-146970856D02*
X134945866Y-146875618D01*
X134945866Y-146875618D02*
X134945866Y-146685142D01*
X134945866Y-146685142D02*
X134898247Y-146589904D01*
X134898247Y-146589904D02*
X134850628Y-146542285D01*
X134850628Y-146542285D02*
X134755390Y-146494666D01*
X102100700Y-124015332D02*
X102148319Y-123872475D01*
X102148319Y-123872475D02*
X102148319Y-123634380D01*
X102148319Y-123634380D02*
X102100700Y-123539142D01*
X102100700Y-123539142D02*
X102053080Y-123491523D01*
X102053080Y-123491523D02*
X101957842Y-123443904D01*
X101957842Y-123443904D02*
X101862604Y-123443904D01*
X101862604Y-123443904D02*
X101767366Y-123491523D01*
X101767366Y-123491523D02*
X101719747Y-123539142D01*
X101719747Y-123539142D02*
X101672128Y-123634380D01*
X101672128Y-123634380D02*
X101624509Y-123824856D01*
X101624509Y-123824856D02*
X101576890Y-123920094D01*
X101576890Y-123920094D02*
X101529271Y-123967713D01*
X101529271Y-123967713D02*
X101434033Y-124015332D01*
X101434033Y-124015332D02*
X101338795Y-124015332D01*
X101338795Y-124015332D02*
X101243557Y-123967713D01*
X101243557Y-123967713D02*
X101195938Y-123920094D01*
X101195938Y-123920094D02*
X101148319Y-123824856D01*
X101148319Y-123824856D02*
X101148319Y-123586761D01*
X101148319Y-123586761D02*
X101195938Y-123443904D01*
X101148319Y-123110570D02*
X102148319Y-122872475D01*
X102148319Y-122872475D02*
X101434033Y-122681999D01*
X101434033Y-122681999D02*
X102148319Y-122491523D01*
X102148319Y-122491523D02*
X101148319Y-122253428D01*
X101576890Y-121729618D02*
X101529271Y-121824856D01*
X101529271Y-121824856D02*
X101481652Y-121872475D01*
X101481652Y-121872475D02*
X101386414Y-121920094D01*
X101386414Y-121920094D02*
X101338795Y-121920094D01*
X101338795Y-121920094D02*
X101243557Y-121872475D01*
X101243557Y-121872475D02*
X101195938Y-121824856D01*
X101195938Y-121824856D02*
X101148319Y-121729618D01*
X101148319Y-121729618D02*
X101148319Y-121539142D01*
X101148319Y-121539142D02*
X101195938Y-121443904D01*
X101195938Y-121443904D02*
X101243557Y-121396285D01*
X101243557Y-121396285D02*
X101338795Y-121348666D01*
X101338795Y-121348666D02*
X101386414Y-121348666D01*
X101386414Y-121348666D02*
X101481652Y-121396285D01*
X101481652Y-121396285D02*
X101529271Y-121443904D01*
X101529271Y-121443904D02*
X101576890Y-121539142D01*
X101576890Y-121539142D02*
X101576890Y-121729618D01*
X101576890Y-121729618D02*
X101624509Y-121824856D01*
X101624509Y-121824856D02*
X101672128Y-121872475D01*
X101672128Y-121872475D02*
X101767366Y-121920094D01*
X101767366Y-121920094D02*
X101957842Y-121920094D01*
X101957842Y-121920094D02*
X102053080Y-121872475D01*
X102053080Y-121872475D02*
X102100700Y-121824856D01*
X102100700Y-121824856D02*
X102148319Y-121729618D01*
X102148319Y-121729618D02*
X102148319Y-121539142D01*
X102148319Y-121539142D02*
X102100700Y-121443904D01*
X102100700Y-121443904D02*
X102053080Y-121396285D01*
X102053080Y-121396285D02*
X101957842Y-121348666D01*
X101957842Y-121348666D02*
X101767366Y-121348666D01*
X101767366Y-121348666D02*
X101672128Y-121396285D01*
X101672128Y-121396285D02*
X101624509Y-121443904D01*
X101624509Y-121443904D02*
X101576890Y-121539142D01*
X102100700Y-119951332D02*
X102148319Y-119808475D01*
X102148319Y-119808475D02*
X102148319Y-119570380D01*
X102148319Y-119570380D02*
X102100700Y-119475142D01*
X102100700Y-119475142D02*
X102053080Y-119427523D01*
X102053080Y-119427523D02*
X101957842Y-119379904D01*
X101957842Y-119379904D02*
X101862604Y-119379904D01*
X101862604Y-119379904D02*
X101767366Y-119427523D01*
X101767366Y-119427523D02*
X101719747Y-119475142D01*
X101719747Y-119475142D02*
X101672128Y-119570380D01*
X101672128Y-119570380D02*
X101624509Y-119760856D01*
X101624509Y-119760856D02*
X101576890Y-119856094D01*
X101576890Y-119856094D02*
X101529271Y-119903713D01*
X101529271Y-119903713D02*
X101434033Y-119951332D01*
X101434033Y-119951332D02*
X101338795Y-119951332D01*
X101338795Y-119951332D02*
X101243557Y-119903713D01*
X101243557Y-119903713D02*
X101195938Y-119856094D01*
X101195938Y-119856094D02*
X101148319Y-119760856D01*
X101148319Y-119760856D02*
X101148319Y-119522761D01*
X101148319Y-119522761D02*
X101195938Y-119379904D01*
X101148319Y-119046570D02*
X102148319Y-118808475D01*
X102148319Y-118808475D02*
X101434033Y-118617999D01*
X101434033Y-118617999D02*
X102148319Y-118427523D01*
X102148319Y-118427523D02*
X101148319Y-118189428D01*
X101148319Y-117903713D02*
X101148319Y-117237047D01*
X101148319Y-117237047D02*
X102148319Y-117665618D01*
X102100700Y-115887332D02*
X102148319Y-115744475D01*
X102148319Y-115744475D02*
X102148319Y-115506380D01*
X102148319Y-115506380D02*
X102100700Y-115411142D01*
X102100700Y-115411142D02*
X102053080Y-115363523D01*
X102053080Y-115363523D02*
X101957842Y-115315904D01*
X101957842Y-115315904D02*
X101862604Y-115315904D01*
X101862604Y-115315904D02*
X101767366Y-115363523D01*
X101767366Y-115363523D02*
X101719747Y-115411142D01*
X101719747Y-115411142D02*
X101672128Y-115506380D01*
X101672128Y-115506380D02*
X101624509Y-115696856D01*
X101624509Y-115696856D02*
X101576890Y-115792094D01*
X101576890Y-115792094D02*
X101529271Y-115839713D01*
X101529271Y-115839713D02*
X101434033Y-115887332D01*
X101434033Y-115887332D02*
X101338795Y-115887332D01*
X101338795Y-115887332D02*
X101243557Y-115839713D01*
X101243557Y-115839713D02*
X101195938Y-115792094D01*
X101195938Y-115792094D02*
X101148319Y-115696856D01*
X101148319Y-115696856D02*
X101148319Y-115458761D01*
X101148319Y-115458761D02*
X101195938Y-115315904D01*
X101148319Y-114982570D02*
X102148319Y-114744475D01*
X102148319Y-114744475D02*
X101434033Y-114553999D01*
X101434033Y-114553999D02*
X102148319Y-114363523D01*
X102148319Y-114363523D02*
X101148319Y-114125428D01*
X101148319Y-113315904D02*
X101148319Y-113506380D01*
X101148319Y-113506380D02*
X101195938Y-113601618D01*
X101195938Y-113601618D02*
X101243557Y-113649237D01*
X101243557Y-113649237D02*
X101386414Y-113744475D01*
X101386414Y-113744475D02*
X101576890Y-113792094D01*
X101576890Y-113792094D02*
X101957842Y-113792094D01*
X101957842Y-113792094D02*
X102053080Y-113744475D01*
X102053080Y-113744475D02*
X102100700Y-113696856D01*
X102100700Y-113696856D02*
X102148319Y-113601618D01*
X102148319Y-113601618D02*
X102148319Y-113411142D01*
X102148319Y-113411142D02*
X102100700Y-113315904D01*
X102100700Y-113315904D02*
X102053080Y-113268285D01*
X102053080Y-113268285D02*
X101957842Y-113220666D01*
X101957842Y-113220666D02*
X101719747Y-113220666D01*
X101719747Y-113220666D02*
X101624509Y-113268285D01*
X101624509Y-113268285D02*
X101576890Y-113315904D01*
X101576890Y-113315904D02*
X101529271Y-113411142D01*
X101529271Y-113411142D02*
X101529271Y-113601618D01*
X101529271Y-113601618D02*
X101576890Y-113696856D01*
X101576890Y-113696856D02*
X101624509Y-113744475D01*
X101624509Y-113744475D02*
X101719747Y-113792094D01*
X102095700Y-111823332D02*
X102143319Y-111680475D01*
X102143319Y-111680475D02*
X102143319Y-111442380D01*
X102143319Y-111442380D02*
X102095700Y-111347142D01*
X102095700Y-111347142D02*
X102048080Y-111299523D01*
X102048080Y-111299523D02*
X101952842Y-111251904D01*
X101952842Y-111251904D02*
X101857604Y-111251904D01*
X101857604Y-111251904D02*
X101762366Y-111299523D01*
X101762366Y-111299523D02*
X101714747Y-111347142D01*
X101714747Y-111347142D02*
X101667128Y-111442380D01*
X101667128Y-111442380D02*
X101619509Y-111632856D01*
X101619509Y-111632856D02*
X101571890Y-111728094D01*
X101571890Y-111728094D02*
X101524271Y-111775713D01*
X101524271Y-111775713D02*
X101429033Y-111823332D01*
X101429033Y-111823332D02*
X101333795Y-111823332D01*
X101333795Y-111823332D02*
X101238557Y-111775713D01*
X101238557Y-111775713D02*
X101190938Y-111728094D01*
X101190938Y-111728094D02*
X101143319Y-111632856D01*
X101143319Y-111632856D02*
X101143319Y-111394761D01*
X101143319Y-111394761D02*
X101190938Y-111251904D01*
X101143319Y-110918570D02*
X102143319Y-110680475D01*
X102143319Y-110680475D02*
X101429033Y-110489999D01*
X101429033Y-110489999D02*
X102143319Y-110299523D01*
X102143319Y-110299523D02*
X101143319Y-110061428D01*
X101143319Y-109204285D02*
X101143319Y-109680475D01*
X101143319Y-109680475D02*
X101619509Y-109728094D01*
X101619509Y-109728094D02*
X101571890Y-109680475D01*
X101571890Y-109680475D02*
X101524271Y-109585237D01*
X101524271Y-109585237D02*
X101524271Y-109347142D01*
X101524271Y-109347142D02*
X101571890Y-109251904D01*
X101571890Y-109251904D02*
X101619509Y-109204285D01*
X101619509Y-109204285D02*
X101714747Y-109156666D01*
X101714747Y-109156666D02*
X101952842Y-109156666D01*
X101952842Y-109156666D02*
X102048080Y-109204285D01*
X102048080Y-109204285D02*
X102095700Y-109251904D01*
X102095700Y-109251904D02*
X102143319Y-109347142D01*
X102143319Y-109347142D02*
X102143319Y-109585237D01*
X102143319Y-109585237D02*
X102095700Y-109680475D01*
X102095700Y-109680475D02*
X102048080Y-109728094D01*
X135276700Y-111823332D02*
X135324319Y-111680475D01*
X135324319Y-111680475D02*
X135324319Y-111442380D01*
X135324319Y-111442380D02*
X135276700Y-111347142D01*
X135276700Y-111347142D02*
X135229080Y-111299523D01*
X135229080Y-111299523D02*
X135133842Y-111251904D01*
X135133842Y-111251904D02*
X135038604Y-111251904D01*
X135038604Y-111251904D02*
X134943366Y-111299523D01*
X134943366Y-111299523D02*
X134895747Y-111347142D01*
X134895747Y-111347142D02*
X134848128Y-111442380D01*
X134848128Y-111442380D02*
X134800509Y-111632856D01*
X134800509Y-111632856D02*
X134752890Y-111728094D01*
X134752890Y-111728094D02*
X134705271Y-111775713D01*
X134705271Y-111775713D02*
X134610033Y-111823332D01*
X134610033Y-111823332D02*
X134514795Y-111823332D01*
X134514795Y-111823332D02*
X134419557Y-111775713D01*
X134419557Y-111775713D02*
X134371938Y-111728094D01*
X134371938Y-111728094D02*
X134324319Y-111632856D01*
X134324319Y-111632856D02*
X134324319Y-111394761D01*
X134324319Y-111394761D02*
X134371938Y-111251904D01*
X134324319Y-110918570D02*
X135324319Y-110680475D01*
X135324319Y-110680475D02*
X134610033Y-110489999D01*
X134610033Y-110489999D02*
X135324319Y-110299523D01*
X135324319Y-110299523D02*
X134324319Y-110061428D01*
X134657652Y-109251904D02*
X135324319Y-109251904D01*
X134276700Y-109489999D02*
X134990985Y-109728094D01*
X134990985Y-109728094D02*
X134990985Y-109109047D01*
X135281700Y-115887332D02*
X135329319Y-115744475D01*
X135329319Y-115744475D02*
X135329319Y-115506380D01*
X135329319Y-115506380D02*
X135281700Y-115411142D01*
X135281700Y-115411142D02*
X135234080Y-115363523D01*
X135234080Y-115363523D02*
X135138842Y-115315904D01*
X135138842Y-115315904D02*
X135043604Y-115315904D01*
X135043604Y-115315904D02*
X134948366Y-115363523D01*
X134948366Y-115363523D02*
X134900747Y-115411142D01*
X134900747Y-115411142D02*
X134853128Y-115506380D01*
X134853128Y-115506380D02*
X134805509Y-115696856D01*
X134805509Y-115696856D02*
X134757890Y-115792094D01*
X134757890Y-115792094D02*
X134710271Y-115839713D01*
X134710271Y-115839713D02*
X134615033Y-115887332D01*
X134615033Y-115887332D02*
X134519795Y-115887332D01*
X134519795Y-115887332D02*
X134424557Y-115839713D01*
X134424557Y-115839713D02*
X134376938Y-115792094D01*
X134376938Y-115792094D02*
X134329319Y-115696856D01*
X134329319Y-115696856D02*
X134329319Y-115458761D01*
X134329319Y-115458761D02*
X134376938Y-115315904D01*
X134329319Y-114982570D02*
X135329319Y-114744475D01*
X135329319Y-114744475D02*
X134615033Y-114553999D01*
X134615033Y-114553999D02*
X135329319Y-114363523D01*
X135329319Y-114363523D02*
X134329319Y-114125428D01*
X134329319Y-113839713D02*
X134329319Y-113220666D01*
X134329319Y-113220666D02*
X134710271Y-113553999D01*
X134710271Y-113553999D02*
X134710271Y-113411142D01*
X134710271Y-113411142D02*
X134757890Y-113315904D01*
X134757890Y-113315904D02*
X134805509Y-113268285D01*
X134805509Y-113268285D02*
X134900747Y-113220666D01*
X134900747Y-113220666D02*
X135138842Y-113220666D01*
X135138842Y-113220666D02*
X135234080Y-113268285D01*
X135234080Y-113268285D02*
X135281700Y-113315904D01*
X135281700Y-113315904D02*
X135329319Y-113411142D01*
X135329319Y-113411142D02*
X135329319Y-113696856D01*
X135329319Y-113696856D02*
X135281700Y-113792094D01*
X135281700Y-113792094D02*
X135234080Y-113839713D01*
X135281700Y-119951332D02*
X135329319Y-119808475D01*
X135329319Y-119808475D02*
X135329319Y-119570380D01*
X135329319Y-119570380D02*
X135281700Y-119475142D01*
X135281700Y-119475142D02*
X135234080Y-119427523D01*
X135234080Y-119427523D02*
X135138842Y-119379904D01*
X135138842Y-119379904D02*
X135043604Y-119379904D01*
X135043604Y-119379904D02*
X134948366Y-119427523D01*
X134948366Y-119427523D02*
X134900747Y-119475142D01*
X134900747Y-119475142D02*
X134853128Y-119570380D01*
X134853128Y-119570380D02*
X134805509Y-119760856D01*
X134805509Y-119760856D02*
X134757890Y-119856094D01*
X134757890Y-119856094D02*
X134710271Y-119903713D01*
X134710271Y-119903713D02*
X134615033Y-119951332D01*
X134615033Y-119951332D02*
X134519795Y-119951332D01*
X134519795Y-119951332D02*
X134424557Y-119903713D01*
X134424557Y-119903713D02*
X134376938Y-119856094D01*
X134376938Y-119856094D02*
X134329319Y-119760856D01*
X134329319Y-119760856D02*
X134329319Y-119522761D01*
X134329319Y-119522761D02*
X134376938Y-119379904D01*
X134329319Y-119046570D02*
X135329319Y-118808475D01*
X135329319Y-118808475D02*
X134615033Y-118617999D01*
X134615033Y-118617999D02*
X135329319Y-118427523D01*
X135329319Y-118427523D02*
X134329319Y-118189428D01*
X134424557Y-117856094D02*
X134376938Y-117808475D01*
X134376938Y-117808475D02*
X134329319Y-117713237D01*
X134329319Y-117713237D02*
X134329319Y-117475142D01*
X134329319Y-117475142D02*
X134376938Y-117379904D01*
X134376938Y-117379904D02*
X134424557Y-117332285D01*
X134424557Y-117332285D02*
X134519795Y-117284666D01*
X134519795Y-117284666D02*
X134615033Y-117284666D01*
X134615033Y-117284666D02*
X134757890Y-117332285D01*
X134757890Y-117332285D02*
X135329319Y-117903713D01*
X135329319Y-117903713D02*
X135329319Y-117284666D01*
X135281700Y-124015332D02*
X135329319Y-123872475D01*
X135329319Y-123872475D02*
X135329319Y-123634380D01*
X135329319Y-123634380D02*
X135281700Y-123539142D01*
X135281700Y-123539142D02*
X135234080Y-123491523D01*
X135234080Y-123491523D02*
X135138842Y-123443904D01*
X135138842Y-123443904D02*
X135043604Y-123443904D01*
X135043604Y-123443904D02*
X134948366Y-123491523D01*
X134948366Y-123491523D02*
X134900747Y-123539142D01*
X134900747Y-123539142D02*
X134853128Y-123634380D01*
X134853128Y-123634380D02*
X134805509Y-123824856D01*
X134805509Y-123824856D02*
X134757890Y-123920094D01*
X134757890Y-123920094D02*
X134710271Y-123967713D01*
X134710271Y-123967713D02*
X134615033Y-124015332D01*
X134615033Y-124015332D02*
X134519795Y-124015332D01*
X134519795Y-124015332D02*
X134424557Y-123967713D01*
X134424557Y-123967713D02*
X134376938Y-123920094D01*
X134376938Y-123920094D02*
X134329319Y-123824856D01*
X134329319Y-123824856D02*
X134329319Y-123586761D01*
X134329319Y-123586761D02*
X134376938Y-123443904D01*
X134329319Y-123110570D02*
X135329319Y-122872475D01*
X135329319Y-122872475D02*
X134615033Y-122681999D01*
X134615033Y-122681999D02*
X135329319Y-122491523D01*
X135329319Y-122491523D02*
X134329319Y-122253428D01*
X135329319Y-121348666D02*
X135329319Y-121920094D01*
X135329319Y-121634380D02*
X134329319Y-121634380D01*
X134329319Y-121634380D02*
X134472176Y-121729618D01*
X134472176Y-121729618D02*
X134567414Y-121824856D01*
X134567414Y-121824856D02*
X134615033Y-121920094D01*
X122563819Y-140088857D02*
X122087628Y-140422190D01*
X122563819Y-140660285D02*
X121563819Y-140660285D01*
X121563819Y-140660285D02*
X121563819Y-140279333D01*
X121563819Y-140279333D02*
X121611438Y-140184095D01*
X121611438Y-140184095D02*
X121659057Y-140136476D01*
X121659057Y-140136476D02*
X121754295Y-140088857D01*
X121754295Y-140088857D02*
X121897152Y-140088857D01*
X121897152Y-140088857D02*
X121992390Y-140136476D01*
X121992390Y-140136476D02*
X122040009Y-140184095D01*
X122040009Y-140184095D02*
X122087628Y-140279333D01*
X122087628Y-140279333D02*
X122087628Y-140660285D01*
X122563819Y-139136476D02*
X122563819Y-139707904D01*
X122563819Y-139422190D02*
X121563819Y-139422190D01*
X121563819Y-139422190D02*
X121706676Y-139517428D01*
X121706676Y-139517428D02*
X121801914Y-139612666D01*
X121801914Y-139612666D02*
X121849533Y-139707904D01*
X121563819Y-138279333D02*
X121563819Y-138469809D01*
X121563819Y-138469809D02*
X121611438Y-138565047D01*
X121611438Y-138565047D02*
X121659057Y-138612666D01*
X121659057Y-138612666D02*
X121801914Y-138707904D01*
X121801914Y-138707904D02*
X121992390Y-138755523D01*
X121992390Y-138755523D02*
X122373342Y-138755523D01*
X122373342Y-138755523D02*
X122468580Y-138707904D01*
X122468580Y-138707904D02*
X122516200Y-138660285D01*
X122516200Y-138660285D02*
X122563819Y-138565047D01*
X122563819Y-138565047D02*
X122563819Y-138374571D01*
X122563819Y-138374571D02*
X122516200Y-138279333D01*
X122516200Y-138279333D02*
X122468580Y-138231714D01*
X122468580Y-138231714D02*
X122373342Y-138184095D01*
X122373342Y-138184095D02*
X122135247Y-138184095D01*
X122135247Y-138184095D02*
X122040009Y-138231714D01*
X122040009Y-138231714D02*
X121992390Y-138279333D01*
X121992390Y-138279333D02*
X121944771Y-138374571D01*
X121944771Y-138374571D02*
X121944771Y-138565047D01*
X121944771Y-138565047D02*
X121992390Y-138660285D01*
X121992390Y-138660285D02*
X122040009Y-138707904D01*
X122040009Y-138707904D02*
X122135247Y-138755523D01*
X111133819Y-137548857D02*
X110657628Y-137882190D01*
X111133819Y-138120285D02*
X110133819Y-138120285D01*
X110133819Y-138120285D02*
X110133819Y-137739333D01*
X110133819Y-137739333D02*
X110181438Y-137644095D01*
X110181438Y-137644095D02*
X110229057Y-137596476D01*
X110229057Y-137596476D02*
X110324295Y-137548857D01*
X110324295Y-137548857D02*
X110467152Y-137548857D01*
X110467152Y-137548857D02*
X110562390Y-137596476D01*
X110562390Y-137596476D02*
X110610009Y-137644095D01*
X110610009Y-137644095D02*
X110657628Y-137739333D01*
X110657628Y-137739333D02*
X110657628Y-138120285D01*
X111133819Y-136596476D02*
X111133819Y-137167904D01*
X111133819Y-136882190D02*
X110133819Y-136882190D01*
X110133819Y-136882190D02*
X110276676Y-136977428D01*
X110276676Y-136977428D02*
X110371914Y-137072666D01*
X110371914Y-137072666D02*
X110419533Y-137167904D01*
X110133819Y-135691714D02*
X110133819Y-136167904D01*
X110133819Y-136167904D02*
X110610009Y-136215523D01*
X110610009Y-136215523D02*
X110562390Y-136167904D01*
X110562390Y-136167904D02*
X110514771Y-136072666D01*
X110514771Y-136072666D02*
X110514771Y-135834571D01*
X110514771Y-135834571D02*
X110562390Y-135739333D01*
X110562390Y-135739333D02*
X110610009Y-135691714D01*
X110610009Y-135691714D02*
X110705247Y-135644095D01*
X110705247Y-135644095D02*
X110943342Y-135644095D01*
X110943342Y-135644095D02*
X111038580Y-135691714D01*
X111038580Y-135691714D02*
X111086200Y-135739333D01*
X111086200Y-135739333D02*
X111133819Y-135834571D01*
X111133819Y-135834571D02*
X111133819Y-136072666D01*
X111133819Y-136072666D02*
X111086200Y-136167904D01*
X111086200Y-136167904D02*
X111038580Y-136215523D01*
X108593819Y-135008857D02*
X108117628Y-135342190D01*
X108593819Y-135580285D02*
X107593819Y-135580285D01*
X107593819Y-135580285D02*
X107593819Y-135199333D01*
X107593819Y-135199333D02*
X107641438Y-135104095D01*
X107641438Y-135104095D02*
X107689057Y-135056476D01*
X107689057Y-135056476D02*
X107784295Y-135008857D01*
X107784295Y-135008857D02*
X107927152Y-135008857D01*
X107927152Y-135008857D02*
X108022390Y-135056476D01*
X108022390Y-135056476D02*
X108070009Y-135104095D01*
X108070009Y-135104095D02*
X108117628Y-135199333D01*
X108117628Y-135199333D02*
X108117628Y-135580285D01*
X108593819Y-134056476D02*
X108593819Y-134627904D01*
X108593819Y-134342190D02*
X107593819Y-134342190D01*
X107593819Y-134342190D02*
X107736676Y-134437428D01*
X107736676Y-134437428D02*
X107831914Y-134532666D01*
X107831914Y-134532666D02*
X107879533Y-134627904D01*
X107927152Y-133199333D02*
X108593819Y-133199333D01*
X107546200Y-133437428D02*
X108260485Y-133675523D01*
X108260485Y-133675523D02*
X108260485Y-133056476D01*
X134532142Y-129994819D02*
X134198809Y-129518628D01*
X133960714Y-129994819D02*
X133960714Y-128994819D01*
X133960714Y-128994819D02*
X134341666Y-128994819D01*
X134341666Y-128994819D02*
X134436904Y-129042438D01*
X134436904Y-129042438D02*
X134484523Y-129090057D01*
X134484523Y-129090057D02*
X134532142Y-129185295D01*
X134532142Y-129185295D02*
X134532142Y-129328152D01*
X134532142Y-129328152D02*
X134484523Y-129423390D01*
X134484523Y-129423390D02*
X134436904Y-129471009D01*
X134436904Y-129471009D02*
X134341666Y-129518628D01*
X134341666Y-129518628D02*
X133960714Y-129518628D01*
X135484523Y-129994819D02*
X134913095Y-129994819D01*
X135198809Y-129994819D02*
X135198809Y-128994819D01*
X135198809Y-128994819D02*
X135103571Y-129137676D01*
X135103571Y-129137676D02*
X135008333Y-129232914D01*
X135008333Y-129232914D02*
X134913095Y-129280533D01*
X135865476Y-129090057D02*
X135913095Y-129042438D01*
X135913095Y-129042438D02*
X136008333Y-128994819D01*
X136008333Y-128994819D02*
X136246428Y-128994819D01*
X136246428Y-128994819D02*
X136341666Y-129042438D01*
X136341666Y-129042438D02*
X136389285Y-129090057D01*
X136389285Y-129090057D02*
X136436904Y-129185295D01*
X136436904Y-129185295D02*
X136436904Y-129280533D01*
X136436904Y-129280533D02*
X136389285Y-129423390D01*
X136389285Y-129423390D02*
X135817857Y-129994819D01*
X135817857Y-129994819D02*
X136436904Y-129994819D01*
X136339819Y-134490857D02*
X135863628Y-134824190D01*
X136339819Y-135062285D02*
X135339819Y-135062285D01*
X135339819Y-135062285D02*
X135339819Y-134681333D01*
X135339819Y-134681333D02*
X135387438Y-134586095D01*
X135387438Y-134586095D02*
X135435057Y-134538476D01*
X135435057Y-134538476D02*
X135530295Y-134490857D01*
X135530295Y-134490857D02*
X135673152Y-134490857D01*
X135673152Y-134490857D02*
X135768390Y-134538476D01*
X135768390Y-134538476D02*
X135816009Y-134586095D01*
X135816009Y-134586095D02*
X135863628Y-134681333D01*
X135863628Y-134681333D02*
X135863628Y-135062285D01*
X136339819Y-133538476D02*
X136339819Y-134109904D01*
X136339819Y-133824190D02*
X135339819Y-133824190D01*
X135339819Y-133824190D02*
X135482676Y-133919428D01*
X135482676Y-133919428D02*
X135577914Y-134014666D01*
X135577914Y-134014666D02*
X135625533Y-134109904D01*
X136339819Y-132586095D02*
X136339819Y-133157523D01*
X136339819Y-132871809D02*
X135339819Y-132871809D01*
X135339819Y-132871809D02*
X135482676Y-132967047D01*
X135482676Y-132967047D02*
X135577914Y-133062285D01*
X135577914Y-133062285D02*
X135625533Y-133157523D01*
X129939819Y-137538857D02*
X129463628Y-137872190D01*
X129939819Y-138110285D02*
X128939819Y-138110285D01*
X128939819Y-138110285D02*
X128939819Y-137729333D01*
X128939819Y-137729333D02*
X128987438Y-137634095D01*
X128987438Y-137634095D02*
X129035057Y-137586476D01*
X129035057Y-137586476D02*
X129130295Y-137538857D01*
X129130295Y-137538857D02*
X129273152Y-137538857D01*
X129273152Y-137538857D02*
X129368390Y-137586476D01*
X129368390Y-137586476D02*
X129416009Y-137634095D01*
X129416009Y-137634095D02*
X129463628Y-137729333D01*
X129463628Y-137729333D02*
X129463628Y-138110285D01*
X129939819Y-136586476D02*
X129939819Y-137157904D01*
X129939819Y-136872190D02*
X128939819Y-136872190D01*
X128939819Y-136872190D02*
X129082676Y-136967428D01*
X129082676Y-136967428D02*
X129177914Y-137062666D01*
X129177914Y-137062666D02*
X129225533Y-137157904D01*
X128939819Y-135967428D02*
X128939819Y-135872190D01*
X128939819Y-135872190D02*
X128987438Y-135776952D01*
X128987438Y-135776952D02*
X129035057Y-135729333D01*
X129035057Y-135729333D02*
X129130295Y-135681714D01*
X129130295Y-135681714D02*
X129320771Y-135634095D01*
X129320771Y-135634095D02*
X129558866Y-135634095D01*
X129558866Y-135634095D02*
X129749342Y-135681714D01*
X129749342Y-135681714D02*
X129844580Y-135729333D01*
X129844580Y-135729333D02*
X129892200Y-135776952D01*
X129892200Y-135776952D02*
X129939819Y-135872190D01*
X129939819Y-135872190D02*
X129939819Y-135967428D01*
X129939819Y-135967428D02*
X129892200Y-136062666D01*
X129892200Y-136062666D02*
X129844580Y-136110285D01*
X129844580Y-136110285D02*
X129749342Y-136157904D01*
X129749342Y-136157904D02*
X129558866Y-136205523D01*
X129558866Y-136205523D02*
X129320771Y-136205523D01*
X129320771Y-136205523D02*
X129130295Y-136157904D01*
X129130295Y-136157904D02*
X129035057Y-136110285D01*
X129035057Y-136110285D02*
X128987438Y-136062666D01*
X128987438Y-136062666D02*
X128939819Y-135967428D01*
X127399819Y-139602666D02*
X126923628Y-139935999D01*
X127399819Y-140174094D02*
X126399819Y-140174094D01*
X126399819Y-140174094D02*
X126399819Y-139793142D01*
X126399819Y-139793142D02*
X126447438Y-139697904D01*
X126447438Y-139697904D02*
X126495057Y-139650285D01*
X126495057Y-139650285D02*
X126590295Y-139602666D01*
X126590295Y-139602666D02*
X126733152Y-139602666D01*
X126733152Y-139602666D02*
X126828390Y-139650285D01*
X126828390Y-139650285D02*
X126876009Y-139697904D01*
X126876009Y-139697904D02*
X126923628Y-139793142D01*
X126923628Y-139793142D02*
X126923628Y-140174094D01*
X127399819Y-139126475D02*
X127399819Y-138935999D01*
X127399819Y-138935999D02*
X127352200Y-138840761D01*
X127352200Y-138840761D02*
X127304580Y-138793142D01*
X127304580Y-138793142D02*
X127161723Y-138697904D01*
X127161723Y-138697904D02*
X126971247Y-138650285D01*
X126971247Y-138650285D02*
X126590295Y-138650285D01*
X126590295Y-138650285D02*
X126495057Y-138697904D01*
X126495057Y-138697904D02*
X126447438Y-138745523D01*
X126447438Y-138745523D02*
X126399819Y-138840761D01*
X126399819Y-138840761D02*
X126399819Y-139031237D01*
X126399819Y-139031237D02*
X126447438Y-139126475D01*
X126447438Y-139126475D02*
X126495057Y-139174094D01*
X126495057Y-139174094D02*
X126590295Y-139221713D01*
X126590295Y-139221713D02*
X126828390Y-139221713D01*
X126828390Y-139221713D02*
X126923628Y-139174094D01*
X126923628Y-139174094D02*
X126971247Y-139126475D01*
X126971247Y-139126475D02*
X127018866Y-139031237D01*
X127018866Y-139031237D02*
X127018866Y-138840761D01*
X127018866Y-138840761D02*
X126971247Y-138745523D01*
X126971247Y-138745523D02*
X126923628Y-138697904D01*
X126923628Y-138697904D02*
X126828390Y-138650285D01*
X132470833Y-108912819D02*
X132137500Y-108436628D01*
X131899405Y-108912819D02*
X131899405Y-107912819D01*
X131899405Y-107912819D02*
X132280357Y-107912819D01*
X132280357Y-107912819D02*
X132375595Y-107960438D01*
X132375595Y-107960438D02*
X132423214Y-108008057D01*
X132423214Y-108008057D02*
X132470833Y-108103295D01*
X132470833Y-108103295D02*
X132470833Y-108246152D01*
X132470833Y-108246152D02*
X132423214Y-108341390D01*
X132423214Y-108341390D02*
X132375595Y-108389009D01*
X132375595Y-108389009D02*
X132280357Y-108436628D01*
X132280357Y-108436628D02*
X131899405Y-108436628D01*
X132804167Y-107912819D02*
X133470833Y-107912819D01*
X133470833Y-107912819D02*
X133042262Y-108912819D01*
X108596319Y-111926666D02*
X108120128Y-112259999D01*
X108596319Y-112498094D02*
X107596319Y-112498094D01*
X107596319Y-112498094D02*
X107596319Y-112117142D01*
X107596319Y-112117142D02*
X107643938Y-112021904D01*
X107643938Y-112021904D02*
X107691557Y-111974285D01*
X107691557Y-111974285D02*
X107786795Y-111926666D01*
X107786795Y-111926666D02*
X107929652Y-111926666D01*
X107929652Y-111926666D02*
X108024890Y-111974285D01*
X108024890Y-111974285D02*
X108072509Y-112021904D01*
X108072509Y-112021904D02*
X108120128Y-112117142D01*
X108120128Y-112117142D02*
X108120128Y-112498094D01*
X107596319Y-111069523D02*
X107596319Y-111259999D01*
X107596319Y-111259999D02*
X107643938Y-111355237D01*
X107643938Y-111355237D02*
X107691557Y-111402856D01*
X107691557Y-111402856D02*
X107834414Y-111498094D01*
X107834414Y-111498094D02*
X108024890Y-111545713D01*
X108024890Y-111545713D02*
X108405842Y-111545713D01*
X108405842Y-111545713D02*
X108501080Y-111498094D01*
X108501080Y-111498094D02*
X108548700Y-111450475D01*
X108548700Y-111450475D02*
X108596319Y-111355237D01*
X108596319Y-111355237D02*
X108596319Y-111164761D01*
X108596319Y-111164761D02*
X108548700Y-111069523D01*
X108548700Y-111069523D02*
X108501080Y-111021904D01*
X108501080Y-111021904D02*
X108405842Y-110974285D01*
X108405842Y-110974285D02*
X108167747Y-110974285D01*
X108167747Y-110974285D02*
X108072509Y-111021904D01*
X108072509Y-111021904D02*
X108024890Y-111069523D01*
X108024890Y-111069523D02*
X107977271Y-111164761D01*
X107977271Y-111164761D02*
X107977271Y-111355237D01*
X107977271Y-111355237D02*
X108024890Y-111450475D01*
X108024890Y-111450475D02*
X108072509Y-111498094D01*
X108072509Y-111498094D02*
X108167747Y-111545713D01*
X113676319Y-106846666D02*
X113200128Y-107179999D01*
X113676319Y-107418094D02*
X112676319Y-107418094D01*
X112676319Y-107418094D02*
X112676319Y-107037142D01*
X112676319Y-107037142D02*
X112723938Y-106941904D01*
X112723938Y-106941904D02*
X112771557Y-106894285D01*
X112771557Y-106894285D02*
X112866795Y-106846666D01*
X112866795Y-106846666D02*
X113009652Y-106846666D01*
X113009652Y-106846666D02*
X113104890Y-106894285D01*
X113104890Y-106894285D02*
X113152509Y-106941904D01*
X113152509Y-106941904D02*
X113200128Y-107037142D01*
X113200128Y-107037142D02*
X113200128Y-107418094D01*
X113009652Y-105989523D02*
X113676319Y-105989523D01*
X112628700Y-106227618D02*
X113342985Y-106465713D01*
X113342985Y-106465713D02*
X113342985Y-105846666D01*
X119122319Y-100496666D02*
X118646128Y-100829999D01*
X119122319Y-101068094D02*
X118122319Y-101068094D01*
X118122319Y-101068094D02*
X118122319Y-100687142D01*
X118122319Y-100687142D02*
X118169938Y-100591904D01*
X118169938Y-100591904D02*
X118217557Y-100544285D01*
X118217557Y-100544285D02*
X118312795Y-100496666D01*
X118312795Y-100496666D02*
X118455652Y-100496666D01*
X118455652Y-100496666D02*
X118550890Y-100544285D01*
X118550890Y-100544285D02*
X118598509Y-100591904D01*
X118598509Y-100591904D02*
X118646128Y-100687142D01*
X118646128Y-100687142D02*
X118646128Y-101068094D01*
X118122319Y-100163332D02*
X118122319Y-99544285D01*
X118122319Y-99544285D02*
X118503271Y-99877618D01*
X118503271Y-99877618D02*
X118503271Y-99734761D01*
X118503271Y-99734761D02*
X118550890Y-99639523D01*
X118550890Y-99639523D02*
X118598509Y-99591904D01*
X118598509Y-99591904D02*
X118693747Y-99544285D01*
X118693747Y-99544285D02*
X118931842Y-99544285D01*
X118931842Y-99544285D02*
X119027080Y-99591904D01*
X119027080Y-99591904D02*
X119074700Y-99639523D01*
X119074700Y-99639523D02*
X119122319Y-99734761D01*
X119122319Y-99734761D02*
X119122319Y-100020475D01*
X119122319Y-100020475D02*
X119074700Y-100115713D01*
X119074700Y-100115713D02*
X119027080Y-100163332D01*
X124100319Y-103036666D02*
X123624128Y-103369999D01*
X124100319Y-103608094D02*
X123100319Y-103608094D01*
X123100319Y-103608094D02*
X123100319Y-103227142D01*
X123100319Y-103227142D02*
X123147938Y-103131904D01*
X123147938Y-103131904D02*
X123195557Y-103084285D01*
X123195557Y-103084285D02*
X123290795Y-103036666D01*
X123290795Y-103036666D02*
X123433652Y-103036666D01*
X123433652Y-103036666D02*
X123528890Y-103084285D01*
X123528890Y-103084285D02*
X123576509Y-103131904D01*
X123576509Y-103131904D02*
X123624128Y-103227142D01*
X123624128Y-103227142D02*
X123624128Y-103608094D01*
X123195557Y-102655713D02*
X123147938Y-102608094D01*
X123147938Y-102608094D02*
X123100319Y-102512856D01*
X123100319Y-102512856D02*
X123100319Y-102274761D01*
X123100319Y-102274761D02*
X123147938Y-102179523D01*
X123147938Y-102179523D02*
X123195557Y-102131904D01*
X123195557Y-102131904D02*
X123290795Y-102084285D01*
X123290795Y-102084285D02*
X123386033Y-102084285D01*
X123386033Y-102084285D02*
X123528890Y-102131904D01*
X123528890Y-102131904D02*
X124100319Y-102703332D01*
X124100319Y-102703332D02*
X124100319Y-102084285D01*
X115962319Y-110656666D02*
X115486128Y-110989999D01*
X115962319Y-111228094D02*
X114962319Y-111228094D01*
X114962319Y-111228094D02*
X114962319Y-110847142D01*
X114962319Y-110847142D02*
X115009938Y-110751904D01*
X115009938Y-110751904D02*
X115057557Y-110704285D01*
X115057557Y-110704285D02*
X115152795Y-110656666D01*
X115152795Y-110656666D02*
X115295652Y-110656666D01*
X115295652Y-110656666D02*
X115390890Y-110704285D01*
X115390890Y-110704285D02*
X115438509Y-110751904D01*
X115438509Y-110751904D02*
X115486128Y-110847142D01*
X115486128Y-110847142D02*
X115486128Y-111228094D01*
X115962319Y-109704285D02*
X115962319Y-110275713D01*
X115962319Y-109989999D02*
X114962319Y-109989999D01*
X114962319Y-109989999D02*
X115105176Y-110085237D01*
X115105176Y-110085237D02*
X115200414Y-110180475D01*
X115200414Y-110180475D02*
X115248033Y-110275713D01*
X113085618Y-102492819D02*
X113704665Y-102492819D01*
X113704665Y-102492819D02*
X113371332Y-102873771D01*
X113371332Y-102873771D02*
X113514189Y-102873771D01*
X113514189Y-102873771D02*
X113609427Y-102921390D01*
X113609427Y-102921390D02*
X113657046Y-102969009D01*
X113657046Y-102969009D02*
X113704665Y-103064247D01*
X113704665Y-103064247D02*
X113704665Y-103302342D01*
X113704665Y-103302342D02*
X113657046Y-103397580D01*
X113657046Y-103397580D02*
X113609427Y-103445200D01*
X113609427Y-103445200D02*
X113514189Y-103492819D01*
X113514189Y-103492819D02*
X113228475Y-103492819D01*
X113228475Y-103492819D02*
X113133237Y-103445200D01*
X113133237Y-103445200D02*
X113085618Y-103397580D01*
X114037999Y-102826152D02*
X114276094Y-103492819D01*
X114276094Y-103492819D02*
X114514189Y-102826152D01*
X114799904Y-102492819D02*
X115418951Y-102492819D01*
X115418951Y-102492819D02*
X115085618Y-102873771D01*
X115085618Y-102873771D02*
X115228475Y-102873771D01*
X115228475Y-102873771D02*
X115323713Y-102921390D01*
X115323713Y-102921390D02*
X115371332Y-102969009D01*
X115371332Y-102969009D02*
X115418951Y-103064247D01*
X115418951Y-103064247D02*
X115418951Y-103302342D01*
X115418951Y-103302342D02*
X115371332Y-103397580D01*
X115371332Y-103397580D02*
X115323713Y-103445200D01*
X115323713Y-103445200D02*
X115228475Y-103492819D01*
X115228475Y-103492819D02*
X114942761Y-103492819D01*
X114942761Y-103492819D02*
X114847523Y-103445200D01*
X114847523Y-103445200D02*
X114799904Y-103397580D01*
X115609428Y-103588057D02*
X116371332Y-103588057D01*
X116609428Y-103492819D02*
X116609428Y-102826152D01*
X116609428Y-103016628D02*
X116657047Y-102921390D01*
X116657047Y-102921390D02*
X116704666Y-102873771D01*
X116704666Y-102873771D02*
X116799904Y-102826152D01*
X116799904Y-102826152D02*
X116895142Y-102826152D01*
X117609428Y-103445200D02*
X117514190Y-103492819D01*
X117514190Y-103492819D02*
X117323714Y-103492819D01*
X117323714Y-103492819D02*
X117228476Y-103445200D01*
X117228476Y-103445200D02*
X117180857Y-103349961D01*
X117180857Y-103349961D02*
X117180857Y-102969009D01*
X117180857Y-102969009D02*
X117228476Y-102873771D01*
X117228476Y-102873771D02*
X117323714Y-102826152D01*
X117323714Y-102826152D02*
X117514190Y-102826152D01*
X117514190Y-102826152D02*
X117609428Y-102873771D01*
X117609428Y-102873771D02*
X117657047Y-102969009D01*
X117657047Y-102969009D02*
X117657047Y-103064247D01*
X117657047Y-103064247D02*
X117180857Y-103159485D01*
X118514190Y-102826152D02*
X118514190Y-103635676D01*
X118514190Y-103635676D02*
X118466571Y-103730914D01*
X118466571Y-103730914D02*
X118418952Y-103778533D01*
X118418952Y-103778533D02*
X118323714Y-103826152D01*
X118323714Y-103826152D02*
X118180857Y-103826152D01*
X118180857Y-103826152D02*
X118085619Y-103778533D01*
X118514190Y-103445200D02*
X118418952Y-103492819D01*
X118418952Y-103492819D02*
X118228476Y-103492819D01*
X118228476Y-103492819D02*
X118133238Y-103445200D01*
X118133238Y-103445200D02*
X118085619Y-103397580D01*
X118085619Y-103397580D02*
X118038000Y-103302342D01*
X118038000Y-103302342D02*
X118038000Y-103016628D01*
X118038000Y-103016628D02*
X118085619Y-102921390D01*
X118085619Y-102921390D02*
X118133238Y-102873771D01*
X118133238Y-102873771D02*
X118228476Y-102826152D01*
X118228476Y-102826152D02*
X118418952Y-102826152D01*
X118418952Y-102826152D02*
X118514190Y-102873771D01*
X119418952Y-102826152D02*
X119418952Y-103492819D01*
X118990381Y-102826152D02*
X118990381Y-103349961D01*
X118990381Y-103349961D02*
X119038000Y-103445200D01*
X119038000Y-103445200D02*
X119133238Y-103492819D01*
X119133238Y-103492819D02*
X119276095Y-103492819D01*
X119276095Y-103492819D02*
X119371333Y-103445200D01*
X119371333Y-103445200D02*
X119418952Y-103397580D01*
X120038000Y-103492819D02*
X119942762Y-103445200D01*
X119942762Y-103445200D02*
X119895143Y-103349961D01*
X119895143Y-103349961D02*
X119895143Y-102492819D01*
X120847524Y-103492819D02*
X120847524Y-102969009D01*
X120847524Y-102969009D02*
X120799905Y-102873771D01*
X120799905Y-102873771D02*
X120704667Y-102826152D01*
X120704667Y-102826152D02*
X120514191Y-102826152D01*
X120514191Y-102826152D02*
X120418953Y-102873771D01*
X120847524Y-103445200D02*
X120752286Y-103492819D01*
X120752286Y-103492819D02*
X120514191Y-103492819D01*
X120514191Y-103492819D02*
X120418953Y-103445200D01*
X120418953Y-103445200D02*
X120371334Y-103349961D01*
X120371334Y-103349961D02*
X120371334Y-103254723D01*
X120371334Y-103254723D02*
X120418953Y-103159485D01*
X120418953Y-103159485D02*
X120514191Y-103111866D01*
X120514191Y-103111866D02*
X120752286Y-103111866D01*
X120752286Y-103111866D02*
X120847524Y-103064247D01*
X121180858Y-102826152D02*
X121561810Y-102826152D01*
X121323715Y-102492819D02*
X121323715Y-103349961D01*
X121323715Y-103349961D02*
X121371334Y-103445200D01*
X121371334Y-103445200D02*
X121466572Y-103492819D01*
X121466572Y-103492819D02*
X121561810Y-103492819D01*
X122038001Y-103492819D02*
X121942763Y-103445200D01*
X121942763Y-103445200D02*
X121895144Y-103397580D01*
X121895144Y-103397580D02*
X121847525Y-103302342D01*
X121847525Y-103302342D02*
X121847525Y-103016628D01*
X121847525Y-103016628D02*
X121895144Y-102921390D01*
X121895144Y-102921390D02*
X121942763Y-102873771D01*
X121942763Y-102873771D02*
X122038001Y-102826152D01*
X122038001Y-102826152D02*
X122180858Y-102826152D01*
X122180858Y-102826152D02*
X122276096Y-102873771D01*
X122276096Y-102873771D02*
X122323715Y-102921390D01*
X122323715Y-102921390D02*
X122371334Y-103016628D01*
X122371334Y-103016628D02*
X122371334Y-103302342D01*
X122371334Y-103302342D02*
X122323715Y-103397580D01*
X122323715Y-103397580D02*
X122276096Y-103445200D01*
X122276096Y-103445200D02*
X122180858Y-103492819D01*
X122180858Y-103492819D02*
X122038001Y-103492819D01*
X122799906Y-103492819D02*
X122799906Y-102826152D01*
X122799906Y-103016628D02*
X122847525Y-102921390D01*
X122847525Y-102921390D02*
X122895144Y-102873771D01*
X122895144Y-102873771D02*
X122990382Y-102826152D01*
X122990382Y-102826152D02*
X123085620Y-102826152D01*
X123942763Y-103492819D02*
X123371335Y-103492819D01*
X123657049Y-103492819D02*
X123657049Y-102492819D01*
X123657049Y-102492819D02*
X123561811Y-102635676D01*
X123561811Y-102635676D02*
X123466573Y-102730914D01*
X123466573Y-102730914D02*
X123371335Y-102778533D01*
D13*
%TO.C,C1*%
X123271677Y-70866000D02*
G75*
G02*
X113031677Y-70866000I-5120000J0D01*
G01*
X113031677Y-70866000D02*
G75*
G02*
X123271677Y-70866000I5120000J0D01*
G01*
X113070677Y-71465000D02*
X113070677Y-70267000D01*
X113110677Y-71728000D02*
X113110677Y-70004000D01*
X113150677Y-71928000D02*
X113150677Y-69804000D01*
X113190677Y-72096000D02*
X113190677Y-69636000D01*
X113230677Y-72244000D02*
X113230677Y-69488000D01*
X113270677Y-72376000D02*
X113270677Y-69356000D01*
X113310677Y-72496000D02*
X113310677Y-69236000D01*
X113350677Y-72608000D02*
X113350677Y-69124000D01*
X113390677Y-72712000D02*
X113390677Y-69020000D01*
X113430677Y-72810000D02*
X113430677Y-68922000D01*
X113470677Y-72903000D02*
X113470677Y-68829000D01*
X113510677Y-72991000D02*
X113510677Y-68741000D01*
X113550677Y-73075000D02*
X113550677Y-68657000D01*
X113590677Y-73155000D02*
X113590677Y-68577000D01*
X113630677Y-73231000D02*
X113630677Y-68501000D01*
X113670677Y-73305000D02*
X113670677Y-68427000D01*
X113710677Y-73376000D02*
X113710677Y-68356000D01*
X113750677Y-73445000D02*
X113750677Y-68287000D01*
X113790677Y-73511000D02*
X113790677Y-68221000D01*
X113830677Y-73575000D02*
X113830677Y-68157000D01*
X113870677Y-73636000D02*
X113870677Y-68096000D01*
X113910677Y-73696000D02*
X113910677Y-68036000D01*
X113950677Y-73755000D02*
X113950677Y-67977000D01*
X113990677Y-73811000D02*
X113990677Y-67921000D01*
X114030677Y-73866000D02*
X114030677Y-67866000D01*
X114070677Y-73920000D02*
X114070677Y-67812000D01*
X114110677Y-73972000D02*
X114110677Y-67760000D01*
X114150677Y-74022000D02*
X114150677Y-67710000D01*
X114190677Y-74072000D02*
X114190677Y-67660000D01*
X114230677Y-74120000D02*
X114230677Y-67612000D01*
X114270677Y-74167000D02*
X114270677Y-67565000D01*
X114310677Y-74213000D02*
X114310677Y-67519000D01*
X114350677Y-74258000D02*
X114350677Y-67474000D01*
X114390677Y-74302000D02*
X114390677Y-67430000D01*
X114430677Y-69625000D02*
X114430677Y-67388000D01*
X114430677Y-74344000D02*
X114430677Y-72107000D01*
X114470677Y-69625000D02*
X114470677Y-67346000D01*
X114470677Y-74386000D02*
X114470677Y-72107000D01*
X114510677Y-69625000D02*
X114510677Y-67305000D01*
X114510677Y-74427000D02*
X114510677Y-72107000D01*
X114550677Y-69625000D02*
X114550677Y-67265000D01*
X114550677Y-74467000D02*
X114550677Y-72107000D01*
X114590677Y-69625000D02*
X114590677Y-67226000D01*
X114590677Y-74506000D02*
X114590677Y-72107000D01*
X114630677Y-69625000D02*
X114630677Y-67187000D01*
X114630677Y-74545000D02*
X114630677Y-72107000D01*
X114670677Y-69625000D02*
X114670677Y-67150000D01*
X114670677Y-74582000D02*
X114670677Y-72107000D01*
X114710677Y-69625000D02*
X114710677Y-67113000D01*
X114710677Y-74619000D02*
X114710677Y-72107000D01*
X114750677Y-69625000D02*
X114750677Y-67077000D01*
X114750677Y-74655000D02*
X114750677Y-72107000D01*
X114790677Y-69625000D02*
X114790677Y-67042000D01*
X114790677Y-74690000D02*
X114790677Y-72107000D01*
X114830677Y-69625000D02*
X114830677Y-67008000D01*
X114830677Y-74724000D02*
X114830677Y-72107000D01*
X114870677Y-69625000D02*
X114870677Y-66974000D01*
X114870677Y-74758000D02*
X114870677Y-72107000D01*
X114910677Y-69625000D02*
X114910677Y-66941000D01*
X114910677Y-74791000D02*
X114910677Y-72107000D01*
X114950677Y-69625000D02*
X114950677Y-66909000D01*
X114950677Y-74823000D02*
X114950677Y-72107000D01*
X114990677Y-69625000D02*
X114990677Y-66877000D01*
X114990677Y-74855000D02*
X114990677Y-72107000D01*
X115030677Y-69625000D02*
X115030677Y-66846000D01*
X115030677Y-74886000D02*
X115030677Y-72107000D01*
X115070677Y-69625000D02*
X115070677Y-66816000D01*
X115070677Y-74916000D02*
X115070677Y-72107000D01*
X115110677Y-69625000D02*
X115110677Y-66786000D01*
X115110677Y-74946000D02*
X115110677Y-72107000D01*
X115150677Y-69625000D02*
X115150677Y-66756000D01*
X115150677Y-74976000D02*
X115150677Y-72107000D01*
X115190677Y-69625000D02*
X115190677Y-66728000D01*
X115190677Y-75004000D02*
X115190677Y-72107000D01*
X115230677Y-69625000D02*
X115230677Y-66700000D01*
X115230677Y-75032000D02*
X115230677Y-72107000D01*
X115270677Y-69625000D02*
X115270677Y-66672000D01*
X115270677Y-75060000D02*
X115270677Y-72107000D01*
X115310677Y-69625000D02*
X115310677Y-66645000D01*
X115310677Y-75087000D02*
X115310677Y-72107000D01*
X115350677Y-69625000D02*
X115350677Y-66619000D01*
X115350677Y-75113000D02*
X115350677Y-72107000D01*
X115390677Y-69625000D02*
X115390677Y-66593000D01*
X115390677Y-75139000D02*
X115390677Y-72107000D01*
X115430677Y-69625000D02*
X115430677Y-66568000D01*
X115430677Y-75164000D02*
X115430677Y-72107000D01*
X115470677Y-69625000D02*
X115470677Y-66543000D01*
X115470677Y-75189000D02*
X115470677Y-72107000D01*
X115510677Y-69625000D02*
X115510677Y-66519000D01*
X115510677Y-75213000D02*
X115510677Y-72107000D01*
X115550677Y-69625000D02*
X115550677Y-66495000D01*
X115550677Y-75237000D02*
X115550677Y-72107000D01*
X115590677Y-69625000D02*
X115590677Y-66471000D01*
X115590677Y-75261000D02*
X115590677Y-72107000D01*
X115630677Y-69625000D02*
X115630677Y-66449000D01*
X115630677Y-75283000D02*
X115630677Y-72107000D01*
X115670677Y-69625000D02*
X115670677Y-66426000D01*
X115670677Y-75306000D02*
X115670677Y-72107000D01*
X115710677Y-69625000D02*
X115710677Y-66404000D01*
X115710677Y-75328000D02*
X115710677Y-72107000D01*
X115750677Y-69625000D02*
X115750677Y-66383000D01*
X115750677Y-75349000D02*
X115750677Y-72107000D01*
X115790677Y-69625000D02*
X115790677Y-66362000D01*
X115790677Y-75370000D02*
X115790677Y-72107000D01*
X115830677Y-69625000D02*
X115830677Y-66341000D01*
X115830677Y-75391000D02*
X115830677Y-72107000D01*
X115870677Y-69625000D02*
X115870677Y-66321000D01*
X115870677Y-75411000D02*
X115870677Y-72107000D01*
X115910677Y-69625000D02*
X115910677Y-66302000D01*
X115910677Y-75430000D02*
X115910677Y-72107000D01*
X115950677Y-69625000D02*
X115950677Y-66282000D01*
X115950677Y-75450000D02*
X115950677Y-72107000D01*
X115990677Y-69625000D02*
X115990677Y-66263000D01*
X115990677Y-75469000D02*
X115990677Y-72107000D01*
X116030677Y-69625000D02*
X116030677Y-66245000D01*
X116030677Y-75487000D02*
X116030677Y-72107000D01*
X116070677Y-69625000D02*
X116070677Y-66227000D01*
X116070677Y-75505000D02*
X116070677Y-72107000D01*
X116110677Y-69625000D02*
X116110677Y-66209000D01*
X116110677Y-75523000D02*
X116110677Y-72107000D01*
X116150677Y-69625000D02*
X116150677Y-66192000D01*
X116150677Y-75540000D02*
X116150677Y-72107000D01*
X116190677Y-69625000D02*
X116190677Y-66176000D01*
X116190677Y-75556000D02*
X116190677Y-72107000D01*
X116230677Y-69625000D02*
X116230677Y-66159000D01*
X116230677Y-75573000D02*
X116230677Y-72107000D01*
X116270677Y-69625000D02*
X116270677Y-66143000D01*
X116270677Y-75589000D02*
X116270677Y-72107000D01*
X116310677Y-69625000D02*
X116310677Y-66128000D01*
X116310677Y-75604000D02*
X116310677Y-72107000D01*
X116350677Y-69625000D02*
X116350677Y-66112000D01*
X116350677Y-75620000D02*
X116350677Y-72107000D01*
X116390677Y-69625000D02*
X116390677Y-66098000D01*
X116390677Y-75634000D02*
X116390677Y-72107000D01*
X116430677Y-69625000D02*
X116430677Y-66083000D01*
X116430677Y-75649000D02*
X116430677Y-72107000D01*
X116470677Y-69625000D02*
X116470677Y-66069000D01*
X116470677Y-75663000D02*
X116470677Y-72107000D01*
X116510677Y-69625000D02*
X116510677Y-66055000D01*
X116510677Y-75677000D02*
X116510677Y-72107000D01*
X116550677Y-69625000D02*
X116550677Y-66042000D01*
X116550677Y-75690000D02*
X116550677Y-72107000D01*
X116590677Y-69625000D02*
X116590677Y-66029000D01*
X116590677Y-75703000D02*
X116590677Y-72107000D01*
X116630677Y-69625000D02*
X116630677Y-66016000D01*
X116630677Y-75716000D02*
X116630677Y-72107000D01*
X116670677Y-69625000D02*
X116670677Y-66004000D01*
X116670677Y-75728000D02*
X116670677Y-72107000D01*
X116710677Y-69625000D02*
X116710677Y-65992000D01*
X116710677Y-75740000D02*
X116710677Y-72107000D01*
X116750677Y-69625000D02*
X116750677Y-65981000D01*
X116750677Y-75751000D02*
X116750677Y-72107000D01*
X116790677Y-69625000D02*
X116790677Y-65969000D01*
X116790677Y-75763000D02*
X116790677Y-72107000D01*
X116830677Y-69625000D02*
X116830677Y-65959000D01*
X116830677Y-75773000D02*
X116830677Y-72107000D01*
X116870677Y-69625000D02*
X116870677Y-65948000D01*
X116870677Y-75784000D02*
X116870677Y-72107000D01*
X116910677Y-75794000D02*
X116910677Y-65938000D01*
X116950677Y-75804000D02*
X116950677Y-65928000D01*
X116990677Y-75813000D02*
X116990677Y-65919000D01*
X117030677Y-75822000D02*
X117030677Y-65910000D01*
X117070677Y-75831000D02*
X117070677Y-65901000D01*
X117110677Y-75840000D02*
X117110677Y-65892000D01*
X117150677Y-75848000D02*
X117150677Y-65884000D01*
X117190677Y-75856000D02*
X117190677Y-65876000D01*
X117230677Y-75863000D02*
X117230677Y-65869000D01*
X117270677Y-75870000D02*
X117270677Y-65862000D01*
X117310677Y-75877000D02*
X117310677Y-65855000D01*
X117350677Y-75884000D02*
X117350677Y-65848000D01*
X117390677Y-75890000D02*
X117390677Y-65842000D01*
X117430677Y-75896000D02*
X117430677Y-65836000D01*
X117471677Y-75901000D02*
X117471677Y-65831000D01*
X117511677Y-75906000D02*
X117511677Y-65826000D01*
X117551677Y-75911000D02*
X117551677Y-65821000D01*
X117591677Y-75916000D02*
X117591677Y-65816000D01*
X117631677Y-75920000D02*
X117631677Y-65812000D01*
X117671677Y-75924000D02*
X117671677Y-65808000D01*
X117711677Y-75928000D02*
X117711677Y-65804000D01*
X117751677Y-75931000D02*
X117751677Y-65801000D01*
X117791677Y-75934000D02*
X117791677Y-65798000D01*
X117831677Y-75936000D02*
X117831677Y-65796000D01*
X117871677Y-75939000D02*
X117871677Y-65793000D01*
X117911677Y-75941000D02*
X117911677Y-65791000D01*
X117951677Y-75943000D02*
X117951677Y-65789000D01*
X117991677Y-75944000D02*
X117991677Y-65788000D01*
X118031677Y-75945000D02*
X118031677Y-65787000D01*
X118071677Y-75946000D02*
X118071677Y-65786000D01*
X118111677Y-75946000D02*
X118111677Y-65786000D01*
X118151677Y-75946000D02*
X118151677Y-65786000D01*
X123131323Y-74241000D02*
X123131323Y-73241000D01*
X123631323Y-73741000D02*
X122631323Y-73741000D01*
%TO.C,Oled_screen1*%
X113154000Y-37906000D02*
X113154000Y-36576000D01*
X114484000Y-37906000D02*
X113154000Y-37906000D01*
X115754000Y-37906000D02*
X123434000Y-37906000D01*
X115754000Y-37906000D02*
X115754000Y-35246000D01*
X123434000Y-37906000D02*
X123434000Y-35246000D01*
X115754000Y-35246000D02*
X123434000Y-35246000D01*
%TO.C,U2*%
X113027000Y-129156000D02*
X113027000Y-149716000D01*
X113027000Y-149716000D02*
X123307000Y-149716000D01*
X115517000Y-129216000D02*
X115517000Y-149656000D01*
X115517000Y-149656000D02*
X120817000Y-149656000D01*
X117167000Y-129216000D02*
X115517000Y-129216000D01*
X120817000Y-129216000D02*
X119167000Y-129216000D01*
X120817000Y-149656000D02*
X120817000Y-129216000D01*
X123307000Y-129156000D02*
X113027000Y-129156000D01*
X123307000Y-149716000D02*
X123307000Y-129156000D01*
X119167000Y-129216000D02*
G75*
G02*
X117167000Y-129216000I-1000000J0D01*
G01*
%TO.C,U1*%
X113017000Y-104020000D02*
X113017000Y-124580000D01*
X113017000Y-124580000D02*
X123297000Y-124580000D01*
X115507000Y-104080000D02*
X115507000Y-124520000D01*
X115507000Y-124520000D02*
X120807000Y-124520000D01*
X117157000Y-104080000D02*
X115507000Y-104080000D01*
X120807000Y-104080000D02*
X119157000Y-104080000D01*
X120807000Y-124520000D02*
X120807000Y-104080000D01*
X123297000Y-104020000D02*
X113017000Y-104020000D01*
X123297000Y-124580000D02*
X123297000Y-104020000D01*
X119157000Y-104080000D02*
G75*
G02*
X117157000Y-104080000I-1000000J0D01*
G01*
%TO.C,SW16*%
X100696000Y-146498000D02*
X100696000Y-147828000D01*
X99366000Y-146498000D02*
X100696000Y-146498000D01*
X98096000Y-146498000D02*
X95496000Y-146498000D01*
X98096000Y-146498000D02*
X98096000Y-149158000D01*
X95496000Y-146498000D02*
X95496000Y-149158000D01*
X98096000Y-149158000D02*
X95496000Y-149158000D01*
%TO.C,SW15*%
X100696000Y-142434000D02*
X100696000Y-143764000D01*
X99366000Y-142434000D02*
X100696000Y-142434000D01*
X98096000Y-142434000D02*
X95496000Y-142434000D01*
X98096000Y-142434000D02*
X98096000Y-145094000D01*
X95496000Y-142434000D02*
X95496000Y-145094000D01*
X98096000Y-145094000D02*
X95496000Y-145094000D01*
%TO.C,SW14*%
X100696000Y-138370000D02*
X100696000Y-139700000D01*
X99366000Y-138370000D02*
X100696000Y-138370000D01*
X98096000Y-138370000D02*
X95496000Y-138370000D01*
X98096000Y-138370000D02*
X98096000Y-141030000D01*
X95496000Y-138370000D02*
X95496000Y-141030000D01*
X98096000Y-141030000D02*
X95496000Y-141030000D01*
%TO.C,SW13*%
X100696000Y-134306000D02*
X100696000Y-135636000D01*
X99366000Y-134306000D02*
X100696000Y-134306000D01*
X98096000Y-134306000D02*
X95496000Y-134306000D01*
X98096000Y-134306000D02*
X98096000Y-136966000D01*
X95496000Y-134306000D02*
X95496000Y-136966000D01*
X98096000Y-136966000D02*
X95496000Y-136966000D01*
%TO.C,SW12*%
X138477000Y-134228000D02*
X141077000Y-134228000D01*
X141077000Y-136888000D02*
X141077000Y-134228000D01*
X138477000Y-136888000D02*
X138477000Y-134228000D01*
X138477000Y-136888000D02*
X141077000Y-136888000D01*
X137207000Y-136888000D02*
X135877000Y-136888000D01*
X135877000Y-136888000D02*
X135877000Y-135558000D01*
%TO.C,SW11*%
X138472000Y-138370000D02*
X141072000Y-138370000D01*
X141072000Y-141030000D02*
X141072000Y-138370000D01*
X138472000Y-141030000D02*
X138472000Y-138370000D01*
X138472000Y-141030000D02*
X141072000Y-141030000D01*
X137202000Y-141030000D02*
X135872000Y-141030000D01*
X135872000Y-141030000D02*
X135872000Y-139700000D01*
%TO.C,SW10*%
X138472000Y-142434000D02*
X141072000Y-142434000D01*
X141072000Y-145094000D02*
X141072000Y-142434000D01*
X138472000Y-145094000D02*
X138472000Y-142434000D01*
X138472000Y-145094000D02*
X141072000Y-145094000D01*
X137202000Y-145094000D02*
X135872000Y-145094000D01*
X135872000Y-145094000D02*
X135872000Y-143764000D01*
%TO.C,SW9*%
X138472000Y-146498000D02*
X141072000Y-146498000D01*
X141072000Y-149158000D02*
X141072000Y-146498000D01*
X138472000Y-149158000D02*
X138472000Y-146498000D01*
X138472000Y-149158000D02*
X141072000Y-149158000D01*
X137202000Y-149158000D02*
X135872000Y-149158000D01*
X135872000Y-149158000D02*
X135872000Y-147828000D01*
%TO.C,SW8*%
X98093500Y-124012000D02*
X95493500Y-124012000D01*
X95493500Y-121352000D02*
X95493500Y-124012000D01*
X98093500Y-121352000D02*
X98093500Y-124012000D01*
X98093500Y-121352000D02*
X95493500Y-121352000D01*
X99363500Y-121352000D02*
X100693500Y-121352000D01*
X100693500Y-121352000D02*
X100693500Y-122682000D01*
%TO.C,SW7*%
X98093500Y-119948000D02*
X95493500Y-119948000D01*
X95493500Y-117288000D02*
X95493500Y-119948000D01*
X98093500Y-117288000D02*
X98093500Y-119948000D01*
X98093500Y-117288000D02*
X95493500Y-117288000D01*
X99363500Y-117288000D02*
X100693500Y-117288000D01*
X100693500Y-117288000D02*
X100693500Y-118618000D01*
%TO.C,SW6*%
X98093500Y-115884000D02*
X95493500Y-115884000D01*
X95493500Y-113224000D02*
X95493500Y-115884000D01*
X98093500Y-113224000D02*
X98093500Y-115884000D01*
X98093500Y-113224000D02*
X95493500Y-113224000D01*
X99363500Y-113224000D02*
X100693500Y-113224000D01*
X100693500Y-113224000D02*
X100693500Y-114554000D01*
%TO.C,SW5*%
X100688500Y-109160000D02*
X100688500Y-110490000D01*
X99358500Y-109160000D02*
X100688500Y-109160000D01*
X98088500Y-109160000D02*
X95488500Y-109160000D01*
X98088500Y-109160000D02*
X98088500Y-111820000D01*
X95488500Y-109160000D02*
X95488500Y-111820000D01*
X98088500Y-111820000D02*
X95488500Y-111820000D01*
%TO.C,SW4*%
X135869500Y-111820000D02*
X135869500Y-110490000D01*
X137199500Y-111820000D02*
X135869500Y-111820000D01*
X138469500Y-111820000D02*
X141069500Y-111820000D01*
X138469500Y-111820000D02*
X138469500Y-109160000D01*
X141069500Y-111820000D02*
X141069500Y-109160000D01*
X138469500Y-109160000D02*
X141069500Y-109160000D01*
%TO.C,SW3*%
X138474500Y-113224000D02*
X141074500Y-113224000D01*
X141074500Y-115884000D02*
X141074500Y-113224000D01*
X138474500Y-115884000D02*
X138474500Y-113224000D01*
X138474500Y-115884000D02*
X141074500Y-115884000D01*
X137204500Y-115884000D02*
X135874500Y-115884000D01*
X135874500Y-115884000D02*
X135874500Y-114554000D01*
%TO.C,SW2*%
X138474500Y-117288000D02*
X141074500Y-117288000D01*
X141074500Y-119948000D02*
X141074500Y-117288000D01*
X138474500Y-119948000D02*
X138474500Y-117288000D01*
X138474500Y-119948000D02*
X141074500Y-119948000D01*
X137204500Y-119948000D02*
X135874500Y-119948000D01*
X135874500Y-119948000D02*
X135874500Y-118618000D01*
%TO.C,SW1*%
X135874500Y-124012000D02*
X135874500Y-122682000D01*
X137204500Y-124012000D02*
X135874500Y-124012000D01*
X138474500Y-124012000D02*
X141074500Y-124012000D01*
X138474500Y-124012000D02*
X138474500Y-121352000D01*
X141074500Y-124012000D02*
X141074500Y-121352000D01*
X138474500Y-121352000D02*
X141074500Y-121352000D01*
%TO.C,R16*%
X111299000Y-142316000D02*
X111299000Y-141366000D01*
X110379000Y-141366000D02*
X112219000Y-141366000D01*
X112219000Y-141366000D02*
X112219000Y-137526000D01*
X110379000Y-137526000D02*
X110379000Y-141366000D01*
X112219000Y-137526000D02*
X110379000Y-137526000D01*
X111299000Y-136576000D02*
X111299000Y-137526000D01*
%TO.C,R15*%
X108759000Y-139776000D02*
X108759000Y-138826000D01*
X107839000Y-138826000D02*
X109679000Y-138826000D01*
X109679000Y-138826000D02*
X109679000Y-134986000D01*
X107839000Y-134986000D02*
X107839000Y-138826000D01*
X109679000Y-134986000D02*
X107839000Y-134986000D01*
X108759000Y-134036000D02*
X108759000Y-134986000D01*
%TO.C,R14*%
X106219000Y-137236000D02*
X106219000Y-136286000D01*
X105299000Y-136286000D02*
X107139000Y-136286000D01*
X107139000Y-136286000D02*
X107139000Y-132446000D01*
X105299000Y-132446000D02*
X105299000Y-136286000D01*
X107139000Y-132446000D02*
X105299000Y-132446000D01*
X106219000Y-131496000D02*
X106219000Y-132446000D01*
%TO.C,R13*%
X103679000Y-134696000D02*
X103679000Y-133746000D01*
X102759000Y-133746000D02*
X104599000Y-133746000D01*
X104599000Y-133746000D02*
X104599000Y-129906000D01*
X102759000Y-129906000D02*
X102759000Y-133746000D01*
X104599000Y-129906000D02*
X102759000Y-129906000D01*
X103679000Y-128956000D02*
X103679000Y-129906000D01*
%TO.C,R12*%
X132645000Y-128946000D02*
X132645000Y-129896000D01*
X133565000Y-129896000D02*
X131725000Y-129896000D01*
X131725000Y-129896000D02*
X131725000Y-133736000D01*
X133565000Y-133736000D02*
X133565000Y-129896000D01*
X131725000Y-133736000D02*
X133565000Y-133736000D01*
X132645000Y-134686000D02*
X132645000Y-133736000D01*
%TO.C,R11*%
X130105000Y-131486000D02*
X130105000Y-132436000D01*
X131025000Y-132436000D02*
X129185000Y-132436000D01*
X129185000Y-132436000D02*
X129185000Y-136276000D01*
X131025000Y-136276000D02*
X131025000Y-132436000D01*
X129185000Y-136276000D02*
X131025000Y-136276000D01*
X130105000Y-137226000D02*
X130105000Y-136276000D01*
%TO.C,R10*%
X127565000Y-134026000D02*
X127565000Y-134976000D01*
X128485000Y-134976000D02*
X126645000Y-134976000D01*
X126645000Y-134976000D02*
X126645000Y-138816000D01*
X128485000Y-138816000D02*
X128485000Y-134976000D01*
X126645000Y-138816000D02*
X128485000Y-138816000D01*
X127565000Y-139766000D02*
X127565000Y-138816000D01*
%TO.C,R9*%
X125025000Y-136566000D02*
X125025000Y-137516000D01*
X125945000Y-137516000D02*
X124105000Y-137516000D01*
X124105000Y-137516000D02*
X124105000Y-141356000D01*
X125945000Y-141356000D02*
X125945000Y-137516000D01*
X124105000Y-141356000D02*
X125945000Y-141356000D01*
X125025000Y-142306000D02*
X125025000Y-141356000D01*
%TO.C,R8*%
X103681500Y-111430000D02*
X103681500Y-112380000D01*
X104601500Y-112380000D02*
X102761500Y-112380000D01*
X102761500Y-112380000D02*
X102761500Y-116220000D01*
X104601500Y-116220000D02*
X104601500Y-112380000D01*
X102761500Y-116220000D02*
X104601500Y-116220000D01*
X103681500Y-117170000D02*
X103681500Y-116220000D01*
%TO.C,R7*%
X132637500Y-117170000D02*
X132637500Y-116220000D01*
X131717500Y-116220000D02*
X133557500Y-116220000D01*
X133557500Y-116220000D02*
X133557500Y-112380000D01*
X131717500Y-112380000D02*
X131717500Y-116220000D01*
X133557500Y-112380000D02*
X131717500Y-112380000D01*
X132637500Y-111430000D02*
X132637500Y-112380000D01*
%TO.C,R6*%
X106221500Y-114630000D02*
X106221500Y-113680000D01*
X105301500Y-113680000D02*
X107141500Y-113680000D01*
X107141500Y-113680000D02*
X107141500Y-109840000D01*
X105301500Y-109840000D02*
X105301500Y-113680000D01*
X107141500Y-109840000D02*
X105301500Y-109840000D01*
X106221500Y-108890000D02*
X106221500Y-109840000D01*
%TO.C,R5*%
X108761500Y-112090000D02*
X108761500Y-111140000D01*
X107841500Y-111140000D02*
X109681500Y-111140000D01*
X109681500Y-111140000D02*
X109681500Y-107300000D01*
X107841500Y-107300000D02*
X107841500Y-111140000D01*
X109681500Y-107300000D02*
X107841500Y-107300000D01*
X108761500Y-106350000D02*
X108761500Y-107300000D01*
%TO.C,R4*%
X111301500Y-103810000D02*
X111301500Y-104760000D01*
X112221500Y-104760000D02*
X110381500Y-104760000D01*
X110381500Y-104760000D02*
X110381500Y-108600000D01*
X112221500Y-108600000D02*
X112221500Y-104760000D01*
X110381500Y-108600000D02*
X112221500Y-108600000D01*
X111301500Y-109550000D02*
X111301500Y-108600000D01*
%TO.C,R3*%
X125017500Y-109550000D02*
X125017500Y-108600000D01*
X124097500Y-108600000D02*
X125937500Y-108600000D01*
X125937500Y-108600000D02*
X125937500Y-104760000D01*
X124097500Y-104760000D02*
X124097500Y-108600000D01*
X125937500Y-104760000D02*
X124097500Y-104760000D01*
X125017500Y-103810000D02*
X125017500Y-104760000D01*
%TO.C,R2*%
X127557500Y-106350000D02*
X127557500Y-107300000D01*
X128477500Y-107300000D02*
X126637500Y-107300000D01*
X126637500Y-107300000D02*
X126637500Y-111140000D01*
X128477500Y-111140000D02*
X128477500Y-107300000D01*
X126637500Y-111140000D02*
X128477500Y-111140000D01*
X127557500Y-112090000D02*
X127557500Y-111140000D01*
%TO.C,R1*%
X130097500Y-108890000D02*
X130097500Y-109840000D01*
X131017500Y-109840000D02*
X129177500Y-109840000D01*
X129177500Y-109840000D02*
X129177500Y-113680000D01*
X131017500Y-113680000D02*
X131017500Y-109840000D01*
X129177500Y-113680000D02*
X131017500Y-113680000D01*
X130097500Y-114630000D02*
X130097500Y-113680000D01*
%TO.C,NRF1*%
X98138000Y-36546000D02*
X98138000Y-36546000D01*
X98138000Y-36546000D02*
X103472000Y-36546000D01*
X98138000Y-47214000D02*
X98138000Y-36546000D01*
X98138000Y-47214000D02*
X98138000Y-47214000D01*
X103472000Y-36546000D02*
X103472000Y-47214000D01*
X103472000Y-47214000D02*
X98138000Y-47214000D01*
D14*
X97884000Y-34260000D02*
X138684000Y-34260000D01*
X138684000Y-49560000D01*
X97884000Y-49560000D01*
X97884000Y-34260000D01*
D13*
%TO.C,3v3_regulator1*%
X123404000Y-78718000D02*
X123404000Y-94608000D01*
X120824000Y-94608000D02*
X120824000Y-97148000D01*
X118284000Y-94608000D02*
X118284000Y-97148000D01*
X115744000Y-94608000D02*
X115744000Y-97148000D01*
X113164000Y-94608000D02*
X123404000Y-94608000D01*
X113164000Y-78718000D02*
X123404000Y-78718000D01*
X113164000Y-78718000D02*
X113164000Y-94608000D01*
%TD*%
M02*
