%TF.GenerationSoftware,KiCad,Pcbnew,8.0.3*%
%TF.CreationDate,2024-06-28T16:19:56+02:00*%
%TF.ProjectId,arcade stick,61726361-6465-4207-9374-69636b2e6b69,rev?*%
%TF.SameCoordinates,Original*%
%TF.FileFunction,Legend,Top*%
%TF.FilePolarity,Positive*%
%FSLAX46Y46*%
G04 Gerber Fmt 4.6, Leading zero omitted, Abs format (unit mm)*
G04 Created by KiCad (PCBNEW 8.0.3) date 2024-06-28 16:19:56*
%MOMM*%
%LPD*%
G01*
G04 APERTURE LIST*
%ADD10C,0.200000*%
%ADD11C,0.120000*%
%ADD12C,0.100000*%
G04 APERTURE END LIST*
D10*
X111334625Y-38745219D02*
X111667958Y-39745219D01*
X111667958Y-39745219D02*
X112001291Y-38745219D01*
X112906053Y-39649980D02*
X112858434Y-39697600D01*
X112858434Y-39697600D02*
X112715577Y-39745219D01*
X112715577Y-39745219D02*
X112620339Y-39745219D01*
X112620339Y-39745219D02*
X112477482Y-39697600D01*
X112477482Y-39697600D02*
X112382244Y-39602361D01*
X112382244Y-39602361D02*
X112334625Y-39507123D01*
X112334625Y-39507123D02*
X112287006Y-39316647D01*
X112287006Y-39316647D02*
X112287006Y-39173790D01*
X112287006Y-39173790D02*
X112334625Y-38983314D01*
X112334625Y-38983314D02*
X112382244Y-38888076D01*
X112382244Y-38888076D02*
X112477482Y-38792838D01*
X112477482Y-38792838D02*
X112620339Y-38745219D01*
X112620339Y-38745219D02*
X112715577Y-38745219D01*
X112715577Y-38745219D02*
X112858434Y-38792838D01*
X112858434Y-38792838D02*
X112906053Y-38840457D01*
X113906053Y-39649980D02*
X113858434Y-39697600D01*
X113858434Y-39697600D02*
X113715577Y-39745219D01*
X113715577Y-39745219D02*
X113620339Y-39745219D01*
X113620339Y-39745219D02*
X113477482Y-39697600D01*
X113477482Y-39697600D02*
X113382244Y-39602361D01*
X113382244Y-39602361D02*
X113334625Y-39507123D01*
X113334625Y-39507123D02*
X113287006Y-39316647D01*
X113287006Y-39316647D02*
X113287006Y-39173790D01*
X113287006Y-39173790D02*
X113334625Y-38983314D01*
X113334625Y-38983314D02*
X113382244Y-38888076D01*
X113382244Y-38888076D02*
X113477482Y-38792838D01*
X113477482Y-38792838D02*
X113620339Y-38745219D01*
X113620339Y-38745219D02*
X113715577Y-38745219D01*
X113715577Y-38745219D02*
X113858434Y-38792838D01*
X113858434Y-38792838D02*
X113906053Y-38840457D01*
X115620339Y-38792838D02*
X115525101Y-38745219D01*
X115525101Y-38745219D02*
X115382244Y-38745219D01*
X115382244Y-38745219D02*
X115239387Y-38792838D01*
X115239387Y-38792838D02*
X115144149Y-38888076D01*
X115144149Y-38888076D02*
X115096530Y-38983314D01*
X115096530Y-38983314D02*
X115048911Y-39173790D01*
X115048911Y-39173790D02*
X115048911Y-39316647D01*
X115048911Y-39316647D02*
X115096530Y-39507123D01*
X115096530Y-39507123D02*
X115144149Y-39602361D01*
X115144149Y-39602361D02*
X115239387Y-39697600D01*
X115239387Y-39697600D02*
X115382244Y-39745219D01*
X115382244Y-39745219D02*
X115477482Y-39745219D01*
X115477482Y-39745219D02*
X115620339Y-39697600D01*
X115620339Y-39697600D02*
X115667958Y-39649980D01*
X115667958Y-39649980D02*
X115667958Y-39316647D01*
X115667958Y-39316647D02*
X115477482Y-39316647D01*
X116096530Y-39745219D02*
X116096530Y-38745219D01*
X116096530Y-38745219D02*
X116667958Y-39745219D01*
X116667958Y-39745219D02*
X116667958Y-38745219D01*
X117144149Y-39745219D02*
X117144149Y-38745219D01*
X117144149Y-38745219D02*
X117382244Y-38745219D01*
X117382244Y-38745219D02*
X117525101Y-38792838D01*
X117525101Y-38792838D02*
X117620339Y-38888076D01*
X117620339Y-38888076D02*
X117667958Y-38983314D01*
X117667958Y-38983314D02*
X117715577Y-39173790D01*
X117715577Y-39173790D02*
X117715577Y-39316647D01*
X117715577Y-39316647D02*
X117667958Y-39507123D01*
X117667958Y-39507123D02*
X117620339Y-39602361D01*
X117620339Y-39602361D02*
X117525101Y-39697600D01*
X117525101Y-39697600D02*
X117382244Y-39745219D01*
X117382244Y-39745219D02*
X117144149Y-39745219D01*
X118858435Y-39697600D02*
X119001292Y-39745219D01*
X119001292Y-39745219D02*
X119239387Y-39745219D01*
X119239387Y-39745219D02*
X119334625Y-39697600D01*
X119334625Y-39697600D02*
X119382244Y-39649980D01*
X119382244Y-39649980D02*
X119429863Y-39554742D01*
X119429863Y-39554742D02*
X119429863Y-39459504D01*
X119429863Y-39459504D02*
X119382244Y-39364266D01*
X119382244Y-39364266D02*
X119334625Y-39316647D01*
X119334625Y-39316647D02*
X119239387Y-39269028D01*
X119239387Y-39269028D02*
X119048911Y-39221409D01*
X119048911Y-39221409D02*
X118953673Y-39173790D01*
X118953673Y-39173790D02*
X118906054Y-39126171D01*
X118906054Y-39126171D02*
X118858435Y-39030933D01*
X118858435Y-39030933D02*
X118858435Y-38935695D01*
X118858435Y-38935695D02*
X118906054Y-38840457D01*
X118906054Y-38840457D02*
X118953673Y-38792838D01*
X118953673Y-38792838D02*
X119048911Y-38745219D01*
X119048911Y-38745219D02*
X119287006Y-38745219D01*
X119287006Y-38745219D02*
X119429863Y-38792838D01*
X120429863Y-39649980D02*
X120382244Y-39697600D01*
X120382244Y-39697600D02*
X120239387Y-39745219D01*
X120239387Y-39745219D02*
X120144149Y-39745219D01*
X120144149Y-39745219D02*
X120001292Y-39697600D01*
X120001292Y-39697600D02*
X119906054Y-39602361D01*
X119906054Y-39602361D02*
X119858435Y-39507123D01*
X119858435Y-39507123D02*
X119810816Y-39316647D01*
X119810816Y-39316647D02*
X119810816Y-39173790D01*
X119810816Y-39173790D02*
X119858435Y-38983314D01*
X119858435Y-38983314D02*
X119906054Y-38888076D01*
X119906054Y-38888076D02*
X120001292Y-38792838D01*
X120001292Y-38792838D02*
X120144149Y-38745219D01*
X120144149Y-38745219D02*
X120239387Y-38745219D01*
X120239387Y-38745219D02*
X120382244Y-38792838D01*
X120382244Y-38792838D02*
X120429863Y-38840457D01*
X120858435Y-39745219D02*
X120858435Y-38745219D01*
X121429863Y-39745219D02*
X121001292Y-39173790D01*
X121429863Y-38745219D02*
X120858435Y-39316647D01*
X122572721Y-39697600D02*
X122715578Y-39745219D01*
X122715578Y-39745219D02*
X122953673Y-39745219D01*
X122953673Y-39745219D02*
X123048911Y-39697600D01*
X123048911Y-39697600D02*
X123096530Y-39649980D01*
X123096530Y-39649980D02*
X123144149Y-39554742D01*
X123144149Y-39554742D02*
X123144149Y-39459504D01*
X123144149Y-39459504D02*
X123096530Y-39364266D01*
X123096530Y-39364266D02*
X123048911Y-39316647D01*
X123048911Y-39316647D02*
X122953673Y-39269028D01*
X122953673Y-39269028D02*
X122763197Y-39221409D01*
X122763197Y-39221409D02*
X122667959Y-39173790D01*
X122667959Y-39173790D02*
X122620340Y-39126171D01*
X122620340Y-39126171D02*
X122572721Y-39030933D01*
X122572721Y-39030933D02*
X122572721Y-38935695D01*
X122572721Y-38935695D02*
X122620340Y-38840457D01*
X122620340Y-38840457D02*
X122667959Y-38792838D01*
X122667959Y-38792838D02*
X122763197Y-38745219D01*
X122763197Y-38745219D02*
X123001292Y-38745219D01*
X123001292Y-38745219D02*
X123144149Y-38792838D01*
X123572721Y-39745219D02*
X123572721Y-38745219D01*
X123572721Y-38745219D02*
X123810816Y-38745219D01*
X123810816Y-38745219D02*
X123953673Y-38792838D01*
X123953673Y-38792838D02*
X124048911Y-38888076D01*
X124048911Y-38888076D02*
X124096530Y-38983314D01*
X124096530Y-38983314D02*
X124144149Y-39173790D01*
X124144149Y-39173790D02*
X124144149Y-39316647D01*
X124144149Y-39316647D02*
X124096530Y-39507123D01*
X124096530Y-39507123D02*
X124048911Y-39602361D01*
X124048911Y-39602361D02*
X123953673Y-39697600D01*
X123953673Y-39697600D02*
X123810816Y-39745219D01*
X123810816Y-39745219D02*
X123572721Y-39745219D01*
X124525102Y-39459504D02*
X125001292Y-39459504D01*
X124429864Y-39745219D02*
X124763197Y-38745219D01*
X124763197Y-38745219D02*
X125096530Y-39745219D01*
D11*
%TO.C,NRF1*%
X98138000Y-36546000D02*
X98138000Y-36546000D01*
X98138000Y-36546000D02*
X103472000Y-36546000D01*
X98138000Y-47214000D02*
X98138000Y-36546000D01*
X98138000Y-47214000D02*
X98138000Y-47214000D01*
X103472000Y-36546000D02*
X103472000Y-47214000D01*
X103472000Y-47214000D02*
X98138000Y-47214000D01*
D12*
X97884000Y-34260000D02*
X138684000Y-34260000D01*
X138684000Y-49560000D01*
X97884000Y-49560000D01*
X97884000Y-34260000D01*
D11*
%TO.C,R5*%
X107841500Y-107300000D02*
X107841500Y-111140000D01*
X107841500Y-111140000D02*
X109681500Y-111140000D01*
X108761500Y-106350000D02*
X108761500Y-107300000D01*
X108761500Y-112090000D02*
X108761500Y-111140000D01*
X109681500Y-107300000D02*
X107841500Y-107300000D01*
X109681500Y-111140000D02*
X109681500Y-107300000D01*
%TO.C,R6*%
X105301500Y-109840000D02*
X105301500Y-113680000D01*
X105301500Y-113680000D02*
X107141500Y-113680000D01*
X106221500Y-108890000D02*
X106221500Y-109840000D01*
X106221500Y-114630000D02*
X106221500Y-113680000D01*
X107141500Y-109840000D02*
X105301500Y-109840000D01*
X107141500Y-113680000D02*
X107141500Y-109840000D01*
%TO.C,SW14*%
X95493500Y-137608000D02*
X95493500Y-140268000D01*
X98093500Y-137608000D02*
X95493500Y-137608000D01*
X98093500Y-137608000D02*
X98093500Y-140268000D01*
X98093500Y-140268000D02*
X95493500Y-140268000D01*
X99363500Y-137608000D02*
X100693500Y-137608000D01*
X100693500Y-137608000D02*
X100693500Y-138938000D01*
%TO.C,SW8*%
X95493500Y-121352000D02*
X95493500Y-124012000D01*
X98093500Y-121352000D02*
X95493500Y-121352000D01*
X98093500Y-121352000D02*
X98093500Y-124012000D01*
X98093500Y-124012000D02*
X95493500Y-124012000D01*
X99363500Y-121352000D02*
X100693500Y-121352000D01*
X100693500Y-121352000D02*
X100693500Y-122682000D01*
%TO.C,SW15*%
X95493500Y-141672000D02*
X95493500Y-144332000D01*
X98093500Y-141672000D02*
X95493500Y-141672000D01*
X98093500Y-141672000D02*
X98093500Y-144332000D01*
X98093500Y-144332000D02*
X95493500Y-144332000D01*
X99363500Y-141672000D02*
X100693500Y-141672000D01*
X100693500Y-141672000D02*
X100693500Y-143002000D01*
%TO.C,R2*%
X126637500Y-107300000D02*
X126637500Y-111140000D01*
X126637500Y-111140000D02*
X128477500Y-111140000D01*
X127557500Y-106350000D02*
X127557500Y-107300000D01*
X127557500Y-112090000D02*
X127557500Y-111140000D01*
X128477500Y-107300000D02*
X126637500Y-107300000D01*
X128477500Y-111140000D02*
X128477500Y-107300000D01*
%TO.C,R15*%
X107841500Y-134224000D02*
X107841500Y-138064000D01*
X107841500Y-138064000D02*
X109681500Y-138064000D01*
X108761500Y-133274000D02*
X108761500Y-134224000D01*
X108761500Y-139014000D02*
X108761500Y-138064000D01*
X109681500Y-134224000D02*
X107841500Y-134224000D01*
X109681500Y-138064000D02*
X109681500Y-134224000D01*
%TO.C,SW2*%
X135874500Y-119948000D02*
X135874500Y-118618000D01*
X137204500Y-119948000D02*
X135874500Y-119948000D01*
X138474500Y-117288000D02*
X141074500Y-117288000D01*
X138474500Y-119948000D02*
X138474500Y-117288000D01*
X138474500Y-119948000D02*
X141074500Y-119948000D01*
X141074500Y-119948000D02*
X141074500Y-117288000D01*
%TO.C,R16*%
X110381500Y-136765000D02*
X110381500Y-140605000D01*
X110381500Y-140605000D02*
X112221500Y-140605000D01*
X111301500Y-135815000D02*
X111301500Y-136765000D01*
X111301500Y-141555000D02*
X111301500Y-140605000D01*
X112221500Y-136765000D02*
X110381500Y-136765000D01*
X112221500Y-140605000D02*
X112221500Y-136765000D01*
%TO.C,U1*%
X113017000Y-104020000D02*
X113017000Y-124580000D01*
X113017000Y-124580000D02*
X123297000Y-124580000D01*
X115507000Y-104080000D02*
X115507000Y-124520000D01*
X115507000Y-124520000D02*
X120807000Y-124520000D01*
X117157000Y-104080000D02*
X115507000Y-104080000D01*
X120807000Y-104080000D02*
X119157000Y-104080000D01*
X120807000Y-124520000D02*
X120807000Y-104080000D01*
X123297000Y-104020000D02*
X113017000Y-104020000D01*
X123297000Y-124580000D02*
X123297000Y-104020000D01*
X119157000Y-104080000D02*
G75*
G02*
X117157000Y-104080000I-1000000J0D01*
G01*
%TO.C,R11*%
X129177500Y-131675000D02*
X129177500Y-135515000D01*
X129177500Y-135515000D02*
X131017500Y-135515000D01*
X130097500Y-130725000D02*
X130097500Y-131675000D01*
X130097500Y-136465000D02*
X130097500Y-135515000D01*
X131017500Y-131675000D02*
X129177500Y-131675000D01*
X131017500Y-135515000D02*
X131017500Y-131675000D01*
%TO.C,R1*%
X129177500Y-109840000D02*
X129177500Y-113680000D01*
X129177500Y-113680000D02*
X131017500Y-113680000D01*
X130097500Y-108890000D02*
X130097500Y-109840000D01*
X130097500Y-114630000D02*
X130097500Y-113680000D01*
X131017500Y-109840000D02*
X129177500Y-109840000D01*
X131017500Y-113680000D02*
X131017500Y-109840000D01*
%TO.C,SW9*%
X135874500Y-148396000D02*
X135874500Y-147066000D01*
X137204500Y-148396000D02*
X135874500Y-148396000D01*
X138474500Y-145736000D02*
X141074500Y-145736000D01*
X138474500Y-148396000D02*
X138474500Y-145736000D01*
X138474500Y-148396000D02*
X141074500Y-148396000D01*
X141074500Y-148396000D02*
X141074500Y-145736000D01*
%TO.C,R12*%
X131717500Y-129149000D02*
X131717500Y-132989000D01*
X131717500Y-132989000D02*
X133557500Y-132989000D01*
X132637500Y-128199000D02*
X132637500Y-129149000D01*
X132637500Y-133939000D02*
X132637500Y-132989000D01*
X133557500Y-129149000D02*
X131717500Y-129149000D01*
X133557500Y-132989000D02*
X133557500Y-129149000D01*
%TO.C,R13*%
X102761500Y-129149000D02*
X102761500Y-132989000D01*
X102761500Y-132989000D02*
X104601500Y-132989000D01*
X103681500Y-128199000D02*
X103681500Y-129149000D01*
X103681500Y-133939000D02*
X103681500Y-132989000D01*
X104601500Y-129149000D02*
X102761500Y-129149000D01*
X104601500Y-132989000D02*
X104601500Y-129149000D01*
%TO.C,R14*%
X105301500Y-131675000D02*
X105301500Y-135515000D01*
X105301500Y-135515000D02*
X107141500Y-135515000D01*
X106221500Y-130725000D02*
X106221500Y-131675000D01*
X106221500Y-136465000D02*
X106221500Y-135515000D01*
X107141500Y-131675000D02*
X105301500Y-131675000D01*
X107141500Y-135515000D02*
X107141500Y-131675000D01*
%TO.C,C1*%
X113070677Y-57581000D02*
X113070677Y-56383000D01*
X113110677Y-57844000D02*
X113110677Y-56120000D01*
X113150677Y-58044000D02*
X113150677Y-55920000D01*
X113190677Y-58212000D02*
X113190677Y-55752000D01*
X113230677Y-58360000D02*
X113230677Y-55604000D01*
X113270677Y-58492000D02*
X113270677Y-55472000D01*
X113310677Y-58612000D02*
X113310677Y-55352000D01*
X113350677Y-58724000D02*
X113350677Y-55240000D01*
X113390677Y-58828000D02*
X113390677Y-55136000D01*
X113430677Y-58926000D02*
X113430677Y-55038000D01*
X113470677Y-59019000D02*
X113470677Y-54945000D01*
X113510677Y-59107000D02*
X113510677Y-54857000D01*
X113550677Y-59191000D02*
X113550677Y-54773000D01*
X113590677Y-59271000D02*
X113590677Y-54693000D01*
X113630677Y-59347000D02*
X113630677Y-54617000D01*
X113670677Y-59421000D02*
X113670677Y-54543000D01*
X113710677Y-59492000D02*
X113710677Y-54472000D01*
X113750677Y-59561000D02*
X113750677Y-54403000D01*
X113790677Y-59627000D02*
X113790677Y-54337000D01*
X113830677Y-59691000D02*
X113830677Y-54273000D01*
X113870677Y-59752000D02*
X113870677Y-54212000D01*
X113910677Y-59812000D02*
X113910677Y-54152000D01*
X113950677Y-59871000D02*
X113950677Y-54093000D01*
X113990677Y-59927000D02*
X113990677Y-54037000D01*
X114030677Y-59982000D02*
X114030677Y-53982000D01*
X114070677Y-60036000D02*
X114070677Y-53928000D01*
X114110677Y-60088000D02*
X114110677Y-53876000D01*
X114150677Y-60138000D02*
X114150677Y-53826000D01*
X114190677Y-60188000D02*
X114190677Y-53776000D01*
X114230677Y-60236000D02*
X114230677Y-53728000D01*
X114270677Y-60283000D02*
X114270677Y-53681000D01*
X114310677Y-60329000D02*
X114310677Y-53635000D01*
X114350677Y-60374000D02*
X114350677Y-53590000D01*
X114390677Y-60418000D02*
X114390677Y-53546000D01*
X114430677Y-55741000D02*
X114430677Y-53504000D01*
X114430677Y-60460000D02*
X114430677Y-58223000D01*
X114470677Y-55741000D02*
X114470677Y-53462000D01*
X114470677Y-60502000D02*
X114470677Y-58223000D01*
X114510677Y-55741000D02*
X114510677Y-53421000D01*
X114510677Y-60543000D02*
X114510677Y-58223000D01*
X114550677Y-55741000D02*
X114550677Y-53381000D01*
X114550677Y-60583000D02*
X114550677Y-58223000D01*
X114590677Y-55741000D02*
X114590677Y-53342000D01*
X114590677Y-60622000D02*
X114590677Y-58223000D01*
X114630677Y-55741000D02*
X114630677Y-53303000D01*
X114630677Y-60661000D02*
X114630677Y-58223000D01*
X114670677Y-55741000D02*
X114670677Y-53266000D01*
X114670677Y-60698000D02*
X114670677Y-58223000D01*
X114710677Y-55741000D02*
X114710677Y-53229000D01*
X114710677Y-60735000D02*
X114710677Y-58223000D01*
X114750677Y-55741000D02*
X114750677Y-53193000D01*
X114750677Y-60771000D02*
X114750677Y-58223000D01*
X114790677Y-55741000D02*
X114790677Y-53158000D01*
X114790677Y-60806000D02*
X114790677Y-58223000D01*
X114830677Y-55741000D02*
X114830677Y-53124000D01*
X114830677Y-60840000D02*
X114830677Y-58223000D01*
X114870677Y-55741000D02*
X114870677Y-53090000D01*
X114870677Y-60874000D02*
X114870677Y-58223000D01*
X114910677Y-55741000D02*
X114910677Y-53057000D01*
X114910677Y-60907000D02*
X114910677Y-58223000D01*
X114950677Y-55741000D02*
X114950677Y-53025000D01*
X114950677Y-60939000D02*
X114950677Y-58223000D01*
X114990677Y-55741000D02*
X114990677Y-52993000D01*
X114990677Y-60971000D02*
X114990677Y-58223000D01*
X115030677Y-55741000D02*
X115030677Y-52962000D01*
X115030677Y-61002000D02*
X115030677Y-58223000D01*
X115070677Y-55741000D02*
X115070677Y-52932000D01*
X115070677Y-61032000D02*
X115070677Y-58223000D01*
X115110677Y-55741000D02*
X115110677Y-52902000D01*
X115110677Y-61062000D02*
X115110677Y-58223000D01*
X115150677Y-55741000D02*
X115150677Y-52872000D01*
X115150677Y-61092000D02*
X115150677Y-58223000D01*
X115190677Y-55741000D02*
X115190677Y-52844000D01*
X115190677Y-61120000D02*
X115190677Y-58223000D01*
X115230677Y-55741000D02*
X115230677Y-52816000D01*
X115230677Y-61148000D02*
X115230677Y-58223000D01*
X115270677Y-55741000D02*
X115270677Y-52788000D01*
X115270677Y-61176000D02*
X115270677Y-58223000D01*
X115310677Y-55741000D02*
X115310677Y-52761000D01*
X115310677Y-61203000D02*
X115310677Y-58223000D01*
X115350677Y-55741000D02*
X115350677Y-52735000D01*
X115350677Y-61229000D02*
X115350677Y-58223000D01*
X115390677Y-55741000D02*
X115390677Y-52709000D01*
X115390677Y-61255000D02*
X115390677Y-58223000D01*
X115430677Y-55741000D02*
X115430677Y-52684000D01*
X115430677Y-61280000D02*
X115430677Y-58223000D01*
X115470677Y-55741000D02*
X115470677Y-52659000D01*
X115470677Y-61305000D02*
X115470677Y-58223000D01*
X115510677Y-55741000D02*
X115510677Y-52635000D01*
X115510677Y-61329000D02*
X115510677Y-58223000D01*
X115550677Y-55741000D02*
X115550677Y-52611000D01*
X115550677Y-61353000D02*
X115550677Y-58223000D01*
X115590677Y-55741000D02*
X115590677Y-52587000D01*
X115590677Y-61377000D02*
X115590677Y-58223000D01*
X115630677Y-55741000D02*
X115630677Y-52565000D01*
X115630677Y-61399000D02*
X115630677Y-58223000D01*
X115670677Y-55741000D02*
X115670677Y-52542000D01*
X115670677Y-61422000D02*
X115670677Y-58223000D01*
X115710677Y-55741000D02*
X115710677Y-52520000D01*
X115710677Y-61444000D02*
X115710677Y-58223000D01*
X115750677Y-55741000D02*
X115750677Y-52499000D01*
X115750677Y-61465000D02*
X115750677Y-58223000D01*
X115790677Y-55741000D02*
X115790677Y-52478000D01*
X115790677Y-61486000D02*
X115790677Y-58223000D01*
X115830677Y-55741000D02*
X115830677Y-52457000D01*
X115830677Y-61507000D02*
X115830677Y-58223000D01*
X115870677Y-55741000D02*
X115870677Y-52437000D01*
X115870677Y-61527000D02*
X115870677Y-58223000D01*
X115910677Y-55741000D02*
X115910677Y-52418000D01*
X115910677Y-61546000D02*
X115910677Y-58223000D01*
X115950677Y-55741000D02*
X115950677Y-52398000D01*
X115950677Y-61566000D02*
X115950677Y-58223000D01*
X115990677Y-55741000D02*
X115990677Y-52379000D01*
X115990677Y-61585000D02*
X115990677Y-58223000D01*
X116030677Y-55741000D02*
X116030677Y-52361000D01*
X116030677Y-61603000D02*
X116030677Y-58223000D01*
X116070677Y-55741000D02*
X116070677Y-52343000D01*
X116070677Y-61621000D02*
X116070677Y-58223000D01*
X116110677Y-55741000D02*
X116110677Y-52325000D01*
X116110677Y-61639000D02*
X116110677Y-58223000D01*
X116150677Y-55741000D02*
X116150677Y-52308000D01*
X116150677Y-61656000D02*
X116150677Y-58223000D01*
X116190677Y-55741000D02*
X116190677Y-52292000D01*
X116190677Y-61672000D02*
X116190677Y-58223000D01*
X116230677Y-55741000D02*
X116230677Y-52275000D01*
X116230677Y-61689000D02*
X116230677Y-58223000D01*
X116270677Y-55741000D02*
X116270677Y-52259000D01*
X116270677Y-61705000D02*
X116270677Y-58223000D01*
X116310677Y-55741000D02*
X116310677Y-52244000D01*
X116310677Y-61720000D02*
X116310677Y-58223000D01*
X116350677Y-55741000D02*
X116350677Y-52228000D01*
X116350677Y-61736000D02*
X116350677Y-58223000D01*
X116390677Y-55741000D02*
X116390677Y-52214000D01*
X116390677Y-61750000D02*
X116390677Y-58223000D01*
X116430677Y-55741000D02*
X116430677Y-52199000D01*
X116430677Y-61765000D02*
X116430677Y-58223000D01*
X116470677Y-55741000D02*
X116470677Y-52185000D01*
X116470677Y-61779000D02*
X116470677Y-58223000D01*
X116510677Y-55741000D02*
X116510677Y-52171000D01*
X116510677Y-61793000D02*
X116510677Y-58223000D01*
X116550677Y-55741000D02*
X116550677Y-52158000D01*
X116550677Y-61806000D02*
X116550677Y-58223000D01*
X116590677Y-55741000D02*
X116590677Y-52145000D01*
X116590677Y-61819000D02*
X116590677Y-58223000D01*
X116630677Y-55741000D02*
X116630677Y-52132000D01*
X116630677Y-61832000D02*
X116630677Y-58223000D01*
X116670677Y-55741000D02*
X116670677Y-52120000D01*
X116670677Y-61844000D02*
X116670677Y-58223000D01*
X116710677Y-55741000D02*
X116710677Y-52108000D01*
X116710677Y-61856000D02*
X116710677Y-58223000D01*
X116750677Y-55741000D02*
X116750677Y-52097000D01*
X116750677Y-61867000D02*
X116750677Y-58223000D01*
X116790677Y-55741000D02*
X116790677Y-52085000D01*
X116790677Y-61879000D02*
X116790677Y-58223000D01*
X116830677Y-55741000D02*
X116830677Y-52075000D01*
X116830677Y-61889000D02*
X116830677Y-58223000D01*
X116870677Y-55741000D02*
X116870677Y-52064000D01*
X116870677Y-61900000D02*
X116870677Y-58223000D01*
X116910677Y-61910000D02*
X116910677Y-52054000D01*
X116950677Y-61920000D02*
X116950677Y-52044000D01*
X116990677Y-61929000D02*
X116990677Y-52035000D01*
X117030677Y-61938000D02*
X117030677Y-52026000D01*
X117070677Y-61947000D02*
X117070677Y-52017000D01*
X117110677Y-61956000D02*
X117110677Y-52008000D01*
X117150677Y-61964000D02*
X117150677Y-52000000D01*
X117190677Y-61972000D02*
X117190677Y-51992000D01*
X117230677Y-61979000D02*
X117230677Y-51985000D01*
X117270677Y-61986000D02*
X117270677Y-51978000D01*
X117310677Y-61993000D02*
X117310677Y-51971000D01*
X117350677Y-62000000D02*
X117350677Y-51964000D01*
X117390677Y-62006000D02*
X117390677Y-51958000D01*
X117430677Y-62012000D02*
X117430677Y-51952000D01*
X117471677Y-62017000D02*
X117471677Y-51947000D01*
X117511677Y-62022000D02*
X117511677Y-51942000D01*
X117551677Y-62027000D02*
X117551677Y-51937000D01*
X117591677Y-62032000D02*
X117591677Y-51932000D01*
X117631677Y-62036000D02*
X117631677Y-51928000D01*
X117671677Y-62040000D02*
X117671677Y-51924000D01*
X117711677Y-62044000D02*
X117711677Y-51920000D01*
X117751677Y-62047000D02*
X117751677Y-51917000D01*
X117791677Y-62050000D02*
X117791677Y-51914000D01*
X117831677Y-62052000D02*
X117831677Y-51912000D01*
X117871677Y-62055000D02*
X117871677Y-51909000D01*
X117911677Y-62057000D02*
X117911677Y-51907000D01*
X117951677Y-62059000D02*
X117951677Y-51905000D01*
X117991677Y-62060000D02*
X117991677Y-51904000D01*
X118031677Y-62061000D02*
X118031677Y-51903000D01*
X118071677Y-62062000D02*
X118071677Y-51902000D01*
X118111677Y-62062000D02*
X118111677Y-51902000D01*
X118151677Y-62062000D02*
X118151677Y-51902000D01*
X123131323Y-60357000D02*
X123131323Y-59357000D01*
X123631323Y-59857000D02*
X122631323Y-59857000D01*
X123271677Y-56982000D02*
G75*
G02*
X113031677Y-56982000I-5120000J0D01*
G01*
X113031677Y-56982000D02*
G75*
G02*
X123271677Y-56982000I5120000J0D01*
G01*
%TO.C,R8*%
X102761500Y-112380000D02*
X102761500Y-116220000D01*
X102761500Y-116220000D02*
X104601500Y-116220000D01*
X103681500Y-111430000D02*
X103681500Y-112380000D01*
X103681500Y-117170000D02*
X103681500Y-116220000D01*
X104601500Y-112380000D02*
X102761500Y-112380000D01*
X104601500Y-116220000D02*
X104601500Y-112380000D01*
%TO.C,R4*%
X110381500Y-104760000D02*
X110381500Y-108600000D01*
X110381500Y-108600000D02*
X112221500Y-108600000D01*
X111301500Y-103810000D02*
X111301500Y-104760000D01*
X111301500Y-109550000D02*
X111301500Y-108600000D01*
X112221500Y-104760000D02*
X110381500Y-104760000D01*
X112221500Y-108600000D02*
X112221500Y-104760000D01*
%TO.C,U2*%
X113017000Y-128404000D02*
X113017000Y-148964000D01*
X113017000Y-148964000D02*
X123297000Y-148964000D01*
X115507000Y-128464000D02*
X115507000Y-148904000D01*
X115507000Y-148904000D02*
X120807000Y-148904000D01*
X117157000Y-128464000D02*
X115507000Y-128464000D01*
X120807000Y-128464000D02*
X119157000Y-128464000D01*
X120807000Y-148904000D02*
X120807000Y-128464000D01*
X123297000Y-128404000D02*
X113017000Y-128404000D01*
X123297000Y-148964000D02*
X123297000Y-128404000D01*
X119157000Y-128464000D02*
G75*
G02*
X117157000Y-128464000I-1000000J0D01*
G01*
%TO.C,SW4*%
X135869500Y-111820000D02*
X135869500Y-110490000D01*
X137199500Y-111820000D02*
X135869500Y-111820000D01*
X138469500Y-109160000D02*
X141069500Y-109160000D01*
X138469500Y-111820000D02*
X138469500Y-109160000D01*
X138469500Y-111820000D02*
X141069500Y-111820000D01*
X141069500Y-111820000D02*
X141069500Y-109160000D01*
%TO.C,R9*%
X124097500Y-136765000D02*
X124097500Y-140605000D01*
X124097500Y-140605000D02*
X125937500Y-140605000D01*
X125017500Y-135815000D02*
X125017500Y-136765000D01*
X125017500Y-141555000D02*
X125017500Y-140605000D01*
X125937500Y-136765000D02*
X124097500Y-136765000D01*
X125937500Y-140605000D02*
X125937500Y-136765000D01*
%TO.C,SW3*%
X135874500Y-115884000D02*
X135874500Y-114554000D01*
X137204500Y-115884000D02*
X135874500Y-115884000D01*
X138474500Y-113224000D02*
X141074500Y-113224000D01*
X138474500Y-115884000D02*
X138474500Y-113224000D01*
X138474500Y-115884000D02*
X141074500Y-115884000D01*
X141074500Y-115884000D02*
X141074500Y-113224000D01*
%TO.C,R7*%
X131717500Y-112380000D02*
X131717500Y-116220000D01*
X131717500Y-116220000D02*
X133557500Y-116220000D01*
X132637500Y-111430000D02*
X132637500Y-112380000D01*
X132637500Y-117170000D02*
X132637500Y-116220000D01*
X133557500Y-112380000D02*
X131717500Y-112380000D01*
X133557500Y-116220000D02*
X133557500Y-112380000D01*
%TO.C,SW10*%
X135874500Y-144332000D02*
X135874500Y-143002000D01*
X137204500Y-144332000D02*
X135874500Y-144332000D01*
X138474500Y-141672000D02*
X141074500Y-141672000D01*
X138474500Y-144332000D02*
X138474500Y-141672000D01*
X138474500Y-144332000D02*
X141074500Y-144332000D01*
X141074500Y-144332000D02*
X141074500Y-141672000D01*
%TO.C,SW11*%
X135874500Y-140268000D02*
X135874500Y-138938000D01*
X137204500Y-140268000D02*
X135874500Y-140268000D01*
X138474500Y-137608000D02*
X141074500Y-137608000D01*
X138474500Y-140268000D02*
X138474500Y-137608000D01*
X138474500Y-140268000D02*
X141074500Y-140268000D01*
X141074500Y-140268000D02*
X141074500Y-137608000D01*
%TO.C,SW12*%
X135874500Y-136204000D02*
X135874500Y-134874000D01*
X137204500Y-136204000D02*
X135874500Y-136204000D01*
X138474500Y-133544000D02*
X141074500Y-133544000D01*
X138474500Y-136204000D02*
X138474500Y-133544000D01*
X138474500Y-136204000D02*
X141074500Y-136204000D01*
X141074500Y-136204000D02*
X141074500Y-133544000D01*
%TO.C,R3*%
X124097500Y-104760000D02*
X124097500Y-108600000D01*
X124097500Y-108600000D02*
X125937500Y-108600000D01*
X125017500Y-103810000D02*
X125017500Y-104760000D01*
X125017500Y-109550000D02*
X125017500Y-108600000D01*
X125937500Y-104760000D02*
X124097500Y-104760000D01*
X125937500Y-108600000D02*
X125937500Y-104760000D01*
%TO.C,Oled_screen1*%
X113154000Y-37906000D02*
X113154000Y-36576000D01*
X114484000Y-37906000D02*
X113154000Y-37906000D01*
X115754000Y-35246000D02*
X123434000Y-35246000D01*
X115754000Y-37906000D02*
X115754000Y-35246000D01*
X115754000Y-37906000D02*
X123434000Y-37906000D01*
X123434000Y-37906000D02*
X123434000Y-35246000D01*
%TO.C,SW6*%
X95493500Y-113224000D02*
X95493500Y-115884000D01*
X98093500Y-113224000D02*
X95493500Y-113224000D01*
X98093500Y-113224000D02*
X98093500Y-115884000D01*
X98093500Y-115884000D02*
X95493500Y-115884000D01*
X99363500Y-113224000D02*
X100693500Y-113224000D01*
X100693500Y-113224000D02*
X100693500Y-114554000D01*
%TO.C,R10*%
X126637500Y-134224000D02*
X126637500Y-138064000D01*
X126637500Y-138064000D02*
X128477500Y-138064000D01*
X127557500Y-133274000D02*
X127557500Y-134224000D01*
X127557500Y-139014000D02*
X127557500Y-138064000D01*
X128477500Y-134224000D02*
X126637500Y-134224000D01*
X128477500Y-138064000D02*
X128477500Y-134224000D01*
%TO.C,SW13*%
X95493500Y-133544000D02*
X95493500Y-136204000D01*
X98093500Y-133544000D02*
X95493500Y-133544000D01*
X98093500Y-133544000D02*
X98093500Y-136204000D01*
X98093500Y-136204000D02*
X95493500Y-136204000D01*
X99363500Y-133544000D02*
X100693500Y-133544000D01*
X100693500Y-133544000D02*
X100693500Y-134874000D01*
%TO.C,SW1*%
X135874500Y-124012000D02*
X135874500Y-122682000D01*
X137204500Y-124012000D02*
X135874500Y-124012000D01*
X138474500Y-121352000D02*
X141074500Y-121352000D01*
X138474500Y-124012000D02*
X138474500Y-121352000D01*
X138474500Y-124012000D02*
X141074500Y-124012000D01*
X141074500Y-124012000D02*
X141074500Y-121352000D01*
%TO.C,SW16*%
X95493500Y-145736000D02*
X95493500Y-148396000D01*
X98093500Y-145736000D02*
X95493500Y-145736000D01*
X98093500Y-145736000D02*
X98093500Y-148396000D01*
X98093500Y-148396000D02*
X95493500Y-148396000D01*
X99363500Y-145736000D02*
X100693500Y-145736000D01*
X100693500Y-145736000D02*
X100693500Y-147066000D01*
%TO.C,SW7*%
X95493500Y-117288000D02*
X95493500Y-119948000D01*
X98093500Y-117288000D02*
X95493500Y-117288000D01*
X98093500Y-117288000D02*
X98093500Y-119948000D01*
X98093500Y-119948000D02*
X95493500Y-119948000D01*
X99363500Y-117288000D02*
X100693500Y-117288000D01*
X100693500Y-117288000D02*
X100693500Y-118618000D01*
%TO.C,SW5*%
X95488500Y-109160000D02*
X95488500Y-111820000D01*
X98088500Y-109160000D02*
X95488500Y-109160000D01*
X98088500Y-109160000D02*
X98088500Y-111820000D01*
X98088500Y-111820000D02*
X95488500Y-111820000D01*
X99358500Y-109160000D02*
X100688500Y-109160000D01*
X100688500Y-109160000D02*
X100688500Y-110490000D01*
%TD*%
M02*
