%TF.GenerationSoftware,KiCad,Pcbnew,8.0.3*%
%TF.CreationDate,2024-06-28T16:19:56+02:00*%
%TF.ProjectId,arcade stick,61726361-6465-4207-9374-69636b2e6b69,rev?*%
%TF.SameCoordinates,Original*%
%TF.FileFunction,Copper,L1,Top*%
%TF.FilePolarity,Positive*%
%FSLAX46Y46*%
G04 Gerber Fmt 4.6, Leading zero omitted, Abs format (unit mm)*
G04 Created by KiCad (PCBNEW 8.0.3) date 2024-06-28 16:19:56*
%MOMM*%
%LPD*%
G01*
G04 APERTURE LIST*
%TA.AperFunction,ComponentPad*%
%ADD10R,1.700000X1.700000*%
%TD*%
%TA.AperFunction,ComponentPad*%
%ADD11O,1.700000X1.700000*%
%TD*%
%TA.AperFunction,ComponentPad*%
%ADD12C,1.700000*%
%TD*%
%TA.AperFunction,ComponentPad*%
%ADD13C,1.400000*%
%TD*%
%TA.AperFunction,ComponentPad*%
%ADD14O,1.400000X1.400000*%
%TD*%
%TA.AperFunction,ComponentPad*%
%ADD15R,1.600000X1.600000*%
%TD*%
%TA.AperFunction,ComponentPad*%
%ADD16O,1.600000X1.600000*%
%TD*%
%TA.AperFunction,ComponentPad*%
%ADD17R,2.000000X2.000000*%
%TD*%
%TA.AperFunction,ComponentPad*%
%ADD18C,2.000000*%
%TD*%
%TA.AperFunction,Conductor*%
%ADD19C,0.300000*%
%TD*%
G04 APERTURE END LIST*
D10*
%TO.P,NRF1,*%
%TO.N,*%
X137146000Y-35530000D03*
D11*
X137146000Y-38070000D03*
X137146000Y-40610000D03*
X137146000Y-43150000D03*
X137146000Y-45690000D03*
X137146000Y-48230000D03*
D10*
%TO.P,NRF1,1,GND*%
%TO.N,Net-(NRF1-GND)*%
X99408000Y-38070000D03*
D12*
%TO.P,NRF1,2,VCC*%
%TO.N,Net-(ESP32-WROOM-32U1-3.3v)*%
X101948000Y-38070000D03*
%TO.P,NRF1,3,CE*%
%TO.N,Net-(ESP32-WROOM-32U1-32)*%
X99408000Y-40610000D03*
%TO.P,NRF1,4,~{CSN}*%
%TO.N,Net-(ESP32-WROOM-32U1-33)*%
X101948000Y-40610000D03*
%TO.P,NRF1,5,SCK*%
%TO.N,Net-(ESP32-WROOM-32U1-SCK{slash}18)*%
X99408000Y-43150000D03*
%TO.P,NRF1,6,MOSI*%
%TO.N,Net-(ESP32-WROOM-32U1-MOSI{slash}23)*%
X101948000Y-43150000D03*
%TO.P,NRF1,7,MISO*%
%TO.N,Net-(ESP32-WROOM-32U1-MISO{slash}19)*%
X99408000Y-45690000D03*
%TO.P,NRF1,8,IRQ*%
%TO.N,unconnected-(NRF1-IRQ-Pad8)*%
X101948000Y-45690000D03*
%TD*%
D13*
%TO.P,R5,1*%
%TO.N,Net-(NRF1-GND)*%
X108761500Y-105410000D03*
D14*
%TO.P,R5,2*%
%TO.N,Net-(U1-D5)*%
X108761500Y-113030000D03*
%TD*%
D13*
%TO.P,R6,1*%
%TO.N,Net-(NRF1-GND)*%
X106221500Y-107950000D03*
D14*
%TO.P,R6,2*%
%TO.N,Net-(U1-D6)*%
X106221500Y-115570000D03*
%TD*%
D10*
%TO.P,SW14,1,1*%
%TO.N,Net-(U2-D5)*%
X99363500Y-138938000D03*
D11*
%TO.P,SW14,2,2*%
%TO.N,Net-(ESP32-WROOM-32U1-3.3v)*%
X96823500Y-138938000D03*
%TD*%
D10*
%TO.P,SW8,1,1*%
%TO.N,Net-(U1-D7)*%
X99363500Y-122682000D03*
D11*
%TO.P,SW8,2,2*%
%TO.N,Net-(ESP32-WROOM-32U1-3.3v)*%
X96823500Y-122682000D03*
%TD*%
D10*
%TO.P,SW15,1,1*%
%TO.N,Net-(U2-D6)*%
X99363500Y-143002000D03*
D11*
%TO.P,SW15,2,2*%
%TO.N,Net-(ESP32-WROOM-32U1-3.3v)*%
X96823500Y-143002000D03*
%TD*%
D13*
%TO.P,R2,1*%
%TO.N,Net-(NRF1-GND)*%
X127557500Y-105410000D03*
D14*
%TO.P,R2,2*%
%TO.N,Net-(U1-D2)*%
X127557500Y-113030000D03*
%TD*%
D13*
%TO.P,R15,1*%
%TO.N,Net-(NRF1-GND)*%
X108761500Y-132334000D03*
D14*
%TO.P,R15,2*%
%TO.N,Net-(U2-D6)*%
X108761500Y-139954000D03*
%TD*%
D10*
%TO.P,SW2,1,1*%
%TO.N,Net-(U1-D1)*%
X137204500Y-118618000D03*
D11*
%TO.P,SW2,2,2*%
%TO.N,Net-(ESP32-WROOM-32U1-3.3v)*%
X139744500Y-118618000D03*
%TD*%
D13*
%TO.P,R16,1*%
%TO.N,Net-(NRF1-GND)*%
X111301500Y-134875000D03*
D14*
%TO.P,R16,2*%
%TO.N,Net-(U2-D7)*%
X111301500Y-142495000D03*
%TD*%
D15*
%TO.P,U1,1,~{PL}*%
%TO.N,Net-(ESP32-WROOM-32U1-25)*%
X114347000Y-105410000D03*
D16*
%TO.P,U1,2,CP*%
%TO.N,Net-(ESP32-WROOM-32U1-26)*%
X114347000Y-107950000D03*
%TO.P,U1,3,D4*%
%TO.N,Net-(U1-D4)*%
X114347000Y-110490000D03*
%TO.P,U1,4,D5*%
%TO.N,Net-(U1-D5)*%
X114347000Y-113030000D03*
%TO.P,U1,5,D6*%
%TO.N,Net-(U1-D6)*%
X114347000Y-115570000D03*
%TO.P,U1,6,D7*%
%TO.N,Net-(U1-D7)*%
X114347000Y-118110000D03*
%TO.P,U1,7,~{Q7}*%
%TO.N,unconnected-(U1-~{Q7}-Pad7)*%
X114347000Y-120650000D03*
%TO.P,U1,8,GND*%
%TO.N,Net-(NRF1-GND)*%
X114347000Y-123190000D03*
%TO.P,U1,9,Q7*%
%TO.N,Net-(ESP32-WROOM-32U1-27)*%
X121967000Y-123190000D03*
%TO.P,U1,10,DS*%
%TO.N,Net-(U1-DS)*%
X121967000Y-120650000D03*
%TO.P,U1,11,D0*%
%TO.N,Net-(U1-D0)*%
X121967000Y-118110000D03*
%TO.P,U1,12,D1*%
%TO.N,Net-(U1-D1)*%
X121967000Y-115570000D03*
%TO.P,U1,13,D2*%
%TO.N,Net-(U1-D2)*%
X121967000Y-113030000D03*
%TO.P,U1,14,D3*%
%TO.N,Net-(U1-D3)*%
X121967000Y-110490000D03*
%TO.P,U1,15,~{CE}*%
%TO.N,Net-(NRF1-GND)*%
X121967000Y-107950000D03*
%TO.P,U1,16,VCC*%
%TO.N,Net-(ESP32-WROOM-32U1-3.3v)*%
X121967000Y-105410000D03*
%TD*%
D13*
%TO.P,R11,1*%
%TO.N,Net-(NRF1-GND)*%
X130097500Y-129785000D03*
D14*
%TO.P,R11,2*%
%TO.N,Net-(U2-D2)*%
X130097500Y-137405000D03*
%TD*%
D13*
%TO.P,R1,1*%
%TO.N,Net-(NRF1-GND)*%
X130097500Y-107950000D03*
D14*
%TO.P,R1,2*%
%TO.N,Net-(U1-D1)*%
X130097500Y-115570000D03*
%TD*%
D10*
%TO.P,SW9,1,1*%
%TO.N,Net-(U2-D0)*%
X137204500Y-147066000D03*
D11*
%TO.P,SW9,2,2*%
%TO.N,Net-(ESP32-WROOM-32U1-3.3v)*%
X139744500Y-147066000D03*
%TD*%
D13*
%TO.P,R12,1*%
%TO.N,Net-(NRF1-GND)*%
X132637500Y-127259000D03*
D14*
%TO.P,R12,2*%
%TO.N,Net-(U2-D3)*%
X132637500Y-134879000D03*
%TD*%
D13*
%TO.P,R13,1*%
%TO.N,Net-(NRF1-GND)*%
X103681500Y-127259000D03*
D14*
%TO.P,R13,2*%
%TO.N,Net-(U2-D4)*%
X103681500Y-134879000D03*
%TD*%
D13*
%TO.P,R14,1*%
%TO.N,Net-(NRF1-GND)*%
X106221500Y-129785000D03*
D14*
%TO.P,R14,2*%
%TO.N,Net-(U2-D5)*%
X106221500Y-137405000D03*
%TD*%
D17*
%TO.P,C1,1*%
%TO.N,Net-(ESP32-WROOM-32U1-3.3v)*%
X120651677Y-56982000D03*
D18*
%TO.P,C1,2*%
%TO.N,Net-(NRF1-GND)*%
X115651677Y-56982000D03*
%TD*%
D13*
%TO.P,R8,1*%
%TO.N,Net-(NRF1-GND)*%
X103681500Y-110490000D03*
D14*
%TO.P,R8,2*%
%TO.N,Net-(U1-D7)*%
X103681500Y-118110000D03*
%TD*%
D13*
%TO.P,R4,1*%
%TO.N,Net-(NRF1-GND)*%
X111301500Y-102870000D03*
D14*
%TO.P,R4,2*%
%TO.N,Net-(U1-D4)*%
X111301500Y-110490000D03*
%TD*%
D15*
%TO.P,U2,1,~{PL}*%
%TO.N,Net-(ESP32-WROOM-32U1-25)*%
X114347000Y-129794000D03*
D16*
%TO.P,U2,2,CP*%
%TO.N,Net-(ESP32-WROOM-32U1-26)*%
X114347000Y-132334000D03*
%TO.P,U2,3,D4*%
%TO.N,Net-(U2-D4)*%
X114347000Y-134874000D03*
%TO.P,U2,4,D5*%
%TO.N,Net-(U2-D5)*%
X114347000Y-137414000D03*
%TO.P,U2,5,D6*%
%TO.N,Net-(U2-D6)*%
X114347000Y-139954000D03*
%TO.P,U2,6,D7*%
%TO.N,Net-(U2-D7)*%
X114347000Y-142494000D03*
%TO.P,U2,7,~{Q7}*%
%TO.N,unconnected-(U2-~{Q7}-Pad7)*%
X114347000Y-145034000D03*
%TO.P,U2,8,GND*%
%TO.N,Net-(NRF1-GND)*%
X114347000Y-147574000D03*
%TO.P,U2,9,Q7*%
%TO.N,Net-(U1-DS)*%
X121967000Y-147574000D03*
%TO.P,U2,10,DS*%
%TO.N,unconnected-(U2-DS-Pad10)*%
X121967000Y-145034000D03*
%TO.P,U2,11,D0*%
%TO.N,Net-(U2-D0)*%
X121967000Y-142494000D03*
%TO.P,U2,12,D1*%
%TO.N,Net-(U2-D1)*%
X121967000Y-139954000D03*
%TO.P,U2,13,D2*%
%TO.N,Net-(U2-D2)*%
X121967000Y-137414000D03*
%TO.P,U2,14,D3*%
%TO.N,Net-(U2-D3)*%
X121967000Y-134874000D03*
%TO.P,U2,15,~{CE}*%
%TO.N,Net-(NRF1-GND)*%
X121967000Y-132334000D03*
%TO.P,U2,16,VCC*%
%TO.N,Net-(ESP32-WROOM-32U1-3.3v)*%
X121967000Y-129794000D03*
%TD*%
D10*
%TO.P,SW4,1,1*%
%TO.N,Net-(U1-D3)*%
X137199500Y-110490000D03*
D11*
%TO.P,SW4,2,2*%
%TO.N,Net-(ESP32-WROOM-32U1-3.3v)*%
X139739500Y-110490000D03*
%TD*%
D13*
%TO.P,R9,1*%
%TO.N,Net-(NRF1-GND)*%
X125017500Y-134875000D03*
D14*
%TO.P,R9,2*%
%TO.N,Net-(U2-D0)*%
X125017500Y-142495000D03*
%TD*%
D10*
%TO.P,ESP32-WROOM-32U1,1,3.3v*%
%TO.N,Net-(ESP32-WROOM-32U1-3.3v)*%
X99314000Y-52578000D03*
X104314000Y-52578000D03*
D11*
%TO.P,ESP32-WROOM-32U1,2,EN*%
%TO.N,unconnected-(ESP32-WROOM-32U1-EN-Pad2)*%
X99314000Y-55118000D03*
X104314000Y-55118000D03*
%TO.P,ESP32-WROOM-32U1,3,VP*%
%TO.N,unconnected-(ESP32-WROOM-32U1-VP-Pad3)*%
X99314000Y-57658000D03*
X104314000Y-57658000D03*
%TO.P,ESP32-WROOM-32U1,4,VN*%
%TO.N,unconnected-(ESP32-WROOM-32U1-VN-Pad4)*%
X99314000Y-60198000D03*
X104314000Y-60198000D03*
%TO.P,ESP32-WROOM-32U1,5,34*%
%TO.N,unconnected-(ESP32-WROOM-32U1-34-Pad5)*%
X99314000Y-62738000D03*
X104314000Y-62738000D03*
%TO.P,ESP32-WROOM-32U1,6,35*%
%TO.N,unconnected-(ESP32-WROOM-32U1-35-Pad6)*%
X99314000Y-65278000D03*
X104314000Y-65278000D03*
%TO.P,ESP32-WROOM-32U1,7,32*%
%TO.N,Net-(ESP32-WROOM-32U1-32)*%
X99314000Y-67818000D03*
X104314000Y-67818000D03*
%TO.P,ESP32-WROOM-32U1,8,33*%
%TO.N,Net-(ESP32-WROOM-32U1-33)*%
X99314000Y-70358000D03*
X104314000Y-70358000D03*
%TO.P,ESP32-WROOM-32U1,9,25*%
%TO.N,Net-(ESP32-WROOM-32U1-25)*%
X99314000Y-72898000D03*
X104314000Y-72898000D03*
%TO.P,ESP32-WROOM-32U1,10,26*%
%TO.N,Net-(ESP32-WROOM-32U1-26)*%
X99314000Y-75438000D03*
X104314000Y-75438000D03*
%TO.P,ESP32-WROOM-32U1,11,27*%
%TO.N,Net-(ESP32-WROOM-32U1-27)*%
X99314000Y-77978000D03*
X104314000Y-77978000D03*
%TO.P,ESP32-WROOM-32U1,12,14*%
%TO.N,unconnected-(ESP32-WROOM-32U1-14-Pad12)*%
X99314000Y-80518000D03*
X104314000Y-80518000D03*
%TO.P,ESP32-WROOM-32U1,13,12*%
%TO.N,unconnected-(ESP32-WROOM-32U1-12-Pad13)*%
X99314000Y-83058000D03*
X104314000Y-83058000D03*
%TO.P,ESP32-WROOM-32U1,14,GND*%
%TO.N,Net-(NRF1-GND)*%
X99314000Y-85598000D03*
X104314000Y-85598000D03*
%TO.P,ESP32-WROOM-32U1,15,13*%
%TO.N,unconnected-(ESP32-WROOM-32U1-13-Pad15)*%
X99314000Y-88138000D03*
X104314000Y-88138000D03*
%TO.P,ESP32-WROOM-32U1,16,D2*%
%TO.N,unconnected-(ESP32-WROOM-32U1-D2-Pad16)*%
X99314000Y-90678000D03*
X104314000Y-90678000D03*
%TO.P,ESP32-WROOM-32U1,17,D3*%
%TO.N,unconnected-(ESP32-WROOM-32U1-D3-Pad17)*%
X99314000Y-93218000D03*
X104314000Y-93218000D03*
%TO.P,ESP32-WROOM-32U1,18,CMD*%
%TO.N,unconnected-(ESP32-WROOM-32U1-CMD-Pad18)*%
X99314000Y-95758000D03*
X104314000Y-95758000D03*
%TO.P,ESP32-WROOM-32U1,19,5V*%
%TO.N,unconnected-(ESP32-WROOM-32U1-5V-Pad19)*%
X99314000Y-98298000D03*
X104314000Y-98298000D03*
D10*
%TO.P,ESP32-WROOM-32U1,20,GND*%
%TO.N,unconnected-(ESP32-WROOM-32U1-GND-Pad20)*%
X132254000Y-52578000D03*
X137254000Y-52578000D03*
D11*
%TO.P,ESP32-WROOM-32U1,21,MOSI/23*%
%TO.N,Net-(ESP32-WROOM-32U1-MOSI{slash}23)*%
X132254000Y-55118000D03*
X137254000Y-55118000D03*
%TO.P,ESP32-WROOM-32U1,22,SCL/22*%
%TO.N,Net-(ESP32-WROOM-32U1-SCL{slash}22)*%
X132254000Y-57658000D03*
X137254000Y-57658000D03*
%TO.P,ESP32-WROOM-32U1,23,TX*%
%TO.N,unconnected-(ESP32-WROOM-32U1-TX-Pad23)*%
X132254000Y-60198000D03*
X137254000Y-60198000D03*
%TO.P,ESP32-WROOM-32U1,24,RX*%
%TO.N,unconnected-(ESP32-WROOM-32U1-RX-Pad24)*%
X132254000Y-62738000D03*
X137254000Y-62738000D03*
%TO.P,ESP32-WROOM-32U1,25,SDA/21*%
%TO.N,Net-(ESP32-WROOM-32U1-SDA{slash}21)*%
X132254000Y-65278000D03*
X137254000Y-65278000D03*
%TO.P,ESP32-WROOM-32U1,26,GND*%
%TO.N,unconnected-(ESP32-WROOM-32U1-GND-Pad26)*%
X132254000Y-67818000D03*
X137254000Y-67818000D03*
%TO.P,ESP32-WROOM-32U1,27,MISO/19*%
%TO.N,Net-(ESP32-WROOM-32U1-MISO{slash}19)*%
X132254000Y-70358000D03*
X137254000Y-70358000D03*
%TO.P,ESP32-WROOM-32U1,28,SCK/18*%
%TO.N,Net-(ESP32-WROOM-32U1-SCK{slash}18)*%
X132254000Y-72898000D03*
X137254000Y-72898000D03*
%TO.P,ESP32-WROOM-32U1,29,SS/5*%
%TO.N,unconnected-(ESP32-WROOM-32U1-SS{slash}5-Pad29)*%
X132254000Y-75438000D03*
X137254000Y-75438000D03*
%TO.P,ESP32-WROOM-32U1,30,17*%
%TO.N,unconnected-(ESP32-WROOM-32U1-17-Pad30)*%
X132254000Y-77978000D03*
X137254000Y-77978000D03*
%TO.P,ESP32-WROOM-32U1,31,16*%
%TO.N,unconnected-(ESP32-WROOM-32U1-16-Pad31)*%
X132254000Y-80518000D03*
X137254000Y-80518000D03*
%TO.P,ESP32-WROOM-32U1,32,4*%
%TO.N,unconnected-(ESP32-WROOM-32U1-4-Pad32)*%
X132254000Y-83058000D03*
X137254000Y-83058000D03*
%TO.P,ESP32-WROOM-32U1,33,0*%
%TO.N,unconnected-(ESP32-WROOM-32U1-0-Pad33)*%
X132254000Y-85598000D03*
X137254000Y-85598000D03*
%TO.P,ESP32-WROOM-32U1,34,2*%
%TO.N,unconnected-(ESP32-WROOM-32U1-2-Pad34)*%
X132254000Y-88138000D03*
X137254000Y-88138000D03*
%TO.P,ESP32-WROOM-32U1,35,15*%
%TO.N,unconnected-(ESP32-WROOM-32U1-15-Pad35)*%
X132254000Y-90678000D03*
X137254000Y-90678000D03*
%TO.P,ESP32-WROOM-32U1,36,D1*%
%TO.N,unconnected-(ESP32-WROOM-32U1-D1-Pad36)*%
X132254000Y-93218000D03*
X137254000Y-93218000D03*
%TO.P,ESP32-WROOM-32U1,37,D0*%
%TO.N,unconnected-(ESP32-WROOM-32U1-D0-Pad37)*%
X132254000Y-95758000D03*
X137254000Y-95758000D03*
%TO.P,ESP32-WROOM-32U1,38,CLK*%
%TO.N,unconnected-(ESP32-WROOM-32U1-CLK-Pad38)*%
X132254000Y-98298000D03*
X137254000Y-98298000D03*
%TD*%
D10*
%TO.P,SW3,1,1*%
%TO.N,Net-(U1-D2)*%
X137204500Y-114554000D03*
D11*
%TO.P,SW3,2,2*%
%TO.N,Net-(ESP32-WROOM-32U1-3.3v)*%
X139744500Y-114554000D03*
%TD*%
D13*
%TO.P,R7,1*%
%TO.N,Net-(NRF1-GND)*%
X132637500Y-110490000D03*
D14*
%TO.P,R7,2*%
%TO.N,Net-(U1-D0)*%
X132637500Y-118110000D03*
%TD*%
D10*
%TO.P,SW10,1,1*%
%TO.N,Net-(U2-D1)*%
X137204500Y-143002000D03*
D11*
%TO.P,SW10,2,2*%
%TO.N,Net-(ESP32-WROOM-32U1-3.3v)*%
X139744500Y-143002000D03*
%TD*%
D10*
%TO.P,SW11,1,1*%
%TO.N,Net-(U2-D2)*%
X137204500Y-138938000D03*
D11*
%TO.P,SW11,2,2*%
%TO.N,Net-(ESP32-WROOM-32U1-3.3v)*%
X139744500Y-138938000D03*
%TD*%
D10*
%TO.P,SW12,1,1*%
%TO.N,Net-(U2-D3)*%
X137204500Y-134874000D03*
D11*
%TO.P,SW12,2,2*%
%TO.N,Net-(ESP32-WROOM-32U1-3.3v)*%
X139744500Y-134874000D03*
%TD*%
D13*
%TO.P,R3,1*%
%TO.N,Net-(NRF1-GND)*%
X125017500Y-102870000D03*
D14*
%TO.P,R3,2*%
%TO.N,Net-(U1-D3)*%
X125017500Y-110490000D03*
%TD*%
D10*
%TO.P,Oled_screen1,1,VCC*%
%TO.N,Net-(ESP32-WROOM-32U1-3.3v)*%
X114484000Y-36576000D03*
D11*
%TO.P,Oled_screen1,2,GND*%
%TO.N,Net-(NRF1-GND)*%
X117024000Y-36576000D03*
%TO.P,Oled_screen1,3,SCK*%
%TO.N,Net-(ESP32-WROOM-32U1-SCL{slash}22)*%
X119564000Y-36576000D03*
%TO.P,Oled_screen1,4,SDA*%
%TO.N,Net-(ESP32-WROOM-32U1-SDA{slash}21)*%
X122104000Y-36576000D03*
%TD*%
D10*
%TO.P,SW6,1,1*%
%TO.N,Net-(U1-D5)*%
X99363500Y-114554000D03*
D11*
%TO.P,SW6,2,2*%
%TO.N,Net-(ESP32-WROOM-32U1-3.3v)*%
X96823500Y-114554000D03*
%TD*%
D13*
%TO.P,R10,1*%
%TO.N,Net-(NRF1-GND)*%
X127557500Y-132334000D03*
D14*
%TO.P,R10,2*%
%TO.N,Net-(U2-D1)*%
X127557500Y-139954000D03*
%TD*%
D10*
%TO.P,SW13,1,1*%
%TO.N,Net-(U2-D4)*%
X99363500Y-134874000D03*
D11*
%TO.P,SW13,2,2*%
%TO.N,Net-(ESP32-WROOM-32U1-3.3v)*%
X96823500Y-134874000D03*
%TD*%
D10*
%TO.P,SW1,1,1*%
%TO.N,Net-(U1-D0)*%
X137204500Y-122682000D03*
D11*
%TO.P,SW1,2,2*%
%TO.N,Net-(ESP32-WROOM-32U1-3.3v)*%
X139744500Y-122682000D03*
%TD*%
D10*
%TO.P,SW16,1,1*%
%TO.N,Net-(U2-D7)*%
X99363500Y-147066000D03*
D11*
%TO.P,SW16,2,2*%
%TO.N,Net-(ESP32-WROOM-32U1-3.3v)*%
X96823500Y-147066000D03*
%TD*%
D10*
%TO.P,SW7,1,1*%
%TO.N,Net-(U1-D6)*%
X99363500Y-118618000D03*
D11*
%TO.P,SW7,2,2*%
%TO.N,Net-(ESP32-WROOM-32U1-3.3v)*%
X96823500Y-118618000D03*
%TD*%
D10*
%TO.P,SW5,1,1*%
%TO.N,Net-(U1-D4)*%
X99358500Y-110490000D03*
D11*
%TO.P,SW5,2,2*%
%TO.N,Net-(ESP32-WROOM-32U1-3.3v)*%
X96818500Y-110490000D03*
%TD*%
D19*
%TO.N,Net-(ESP32-WROOM-32U1-26)*%
X104811057Y-79318000D02*
X115497000Y-90003943D01*
X103114000Y-78615057D02*
X103816943Y-79318000D01*
X103816943Y-79318000D02*
X104811057Y-79318000D01*
X104314000Y-75438000D02*
X103114000Y-76638000D01*
X115497000Y-90003943D02*
X115497000Y-106800000D01*
X103114000Y-76638000D02*
X103114000Y-78615057D01*
X115497000Y-106800000D02*
X114347000Y-107950000D01*
%TO.N,unconnected-(ESP32-WROOM-32U1-D0-Pad37)*%
X137254000Y-95758000D02*
X132254000Y-95758000D01*
%TO.N,unconnected-(ESP32-WROOM-32U1-EN-Pad2)*%
X104314000Y-55118000D02*
X99314000Y-55118000D01*
%TO.N,unconnected-(ESP32-WROOM-32U1-GND-Pad26)*%
X132254000Y-67818000D02*
X137254000Y-67818000D01*
%TO.N,unconnected-(ESP32-WROOM-32U1-VN-Pad4)*%
X104314000Y-60198000D02*
X99314000Y-60198000D01*
%TO.N,Net-(NRF1-GND)*%
X125017500Y-134874000D02*
X125017500Y-134875000D01*
X124508000Y-134875000D02*
X125017500Y-134875000D01*
X127557500Y-132334000D02*
X130097500Y-129794000D01*
X130111500Y-129785000D02*
X130097500Y-129785000D01*
X130097500Y-129794000D02*
X130097500Y-129785000D01*
X108761500Y-132334000D02*
X106221500Y-129794000D01*
X132637500Y-127259000D02*
X130111500Y-129785000D01*
X103681500Y-127259000D02*
X106207500Y-129785000D01*
X125017500Y-102870000D02*
X125017500Y-104899500D01*
X121967000Y-132334000D02*
X124508000Y-134875000D01*
X125017500Y-102870000D02*
X127557500Y-105410000D01*
X99408000Y-38070000D02*
X102102000Y-35376000D01*
X104314000Y-85598000D02*
X111301500Y-92585500D01*
X125017500Y-104899500D02*
X121967000Y-107950000D01*
X117024000Y-55609677D02*
X115651677Y-56982000D01*
X111301500Y-134874000D02*
X111301500Y-134875000D01*
X112692500Y-133484000D02*
X111301500Y-134875000D01*
X115824000Y-35376000D02*
X117024000Y-36576000D01*
X106221500Y-129794000D02*
X106221500Y-129785000D01*
X106221500Y-107950000D02*
X103681500Y-110490000D01*
X111301500Y-102870000D02*
X108761500Y-105410000D01*
X127557500Y-132334000D02*
X125017500Y-134874000D01*
X120817000Y-133484000D02*
X112692500Y-133484000D01*
X106207500Y-129785000D02*
X106221500Y-129785000D01*
X132637500Y-110490000D02*
X130097500Y-107950000D01*
X112816500Y-123190000D02*
X106221500Y-129785000D01*
X121967000Y-132334000D02*
X120817000Y-133484000D01*
X99314000Y-85598000D02*
X104314000Y-85598000D01*
X117024000Y-36576000D02*
X117024000Y-55609677D01*
X114347000Y-123190000D02*
X112816500Y-123190000D01*
X108761500Y-105410000D02*
X106221500Y-107950000D01*
X102102000Y-35376000D02*
X115824000Y-35376000D01*
X130097500Y-107950000D02*
X127557500Y-105410000D01*
X111301500Y-92585500D02*
X111301500Y-102870000D01*
X108761500Y-132334000D02*
X111301500Y-134874000D01*
%TO.N,unconnected-(ESP32-WROOM-32U1-GND-Pad20)*%
X132254000Y-52578000D02*
X137254000Y-52578000D01*
%TO.N,unconnected-(ESP32-WROOM-32U1-2-Pad34)*%
X132254000Y-88138000D02*
X137254000Y-88138000D01*
%TO.N,Net-(ESP32-WROOM-32U1-3.3v)*%
X99314000Y-52578000D02*
X104314000Y-52578000D01*
X101948000Y-38070000D02*
X112990000Y-38070000D01*
X98208000Y-45192943D02*
X99050943Y-44350000D01*
X96818500Y-110490000D02*
X96818500Y-114549000D01*
X100748000Y-39270000D02*
X101948000Y-38070000D01*
X96818500Y-114549000D02*
X96823500Y-114554000D01*
X120651677Y-104094677D02*
X121967000Y-105410000D01*
X104314000Y-52578000D02*
X98208000Y-46472000D01*
X139739500Y-110490000D02*
X139739500Y-114549000D01*
X96823500Y-134874000D02*
X96823500Y-122682000D01*
X139744500Y-125222000D02*
X139744500Y-122682000D01*
X139744500Y-134874000D02*
X139744500Y-125222000D01*
X100748000Y-43647057D02*
X100748000Y-39270000D01*
X100045057Y-44350000D02*
X100748000Y-43647057D01*
X98208000Y-46472000D02*
X98208000Y-45192943D01*
X96823500Y-122682000D02*
X96823500Y-118618000D01*
X96823500Y-147066000D02*
X96823500Y-143002000D01*
X96823500Y-138938000D02*
X96823500Y-134874000D01*
X96823500Y-143002000D02*
X96823500Y-138938000D01*
X139739500Y-114549000D02*
X139744500Y-114554000D01*
X112990000Y-38070000D02*
X114484000Y-36576000D01*
X120651677Y-56982000D02*
X120651677Y-104094677D01*
X139744500Y-143002000D02*
X139744500Y-138938000D01*
X139744500Y-147066000D02*
X139744500Y-143002000D01*
X139744500Y-138938000D02*
X139744500Y-134874000D01*
X126539000Y-125222000D02*
X139744500Y-125222000D01*
X99050943Y-44350000D02*
X100045057Y-44350000D01*
X96823500Y-118618000D02*
X96823500Y-114554000D01*
X96826000Y-122684500D02*
X96823500Y-122682000D01*
X121967000Y-129794000D02*
X126539000Y-125222000D01*
X139744500Y-114554000D02*
X139744500Y-118618000D01*
X139744500Y-122682000D02*
X139744500Y-118618000D01*
%TO.N,unconnected-(ESP32-WROOM-32U1-D2-Pad16)*%
X99314000Y-90678000D02*
X104314000Y-90678000D01*
%TO.N,Net-(ESP32-WROOM-32U1-SDA{slash}21)*%
X127254000Y-60278000D02*
X132254000Y-65278000D01*
X122104000Y-50730000D02*
X127254000Y-55880000D01*
X122104000Y-36576000D02*
X122104000Y-50730000D01*
X127254000Y-55880000D02*
X127254000Y-60278000D01*
X137254000Y-65278000D02*
X132254000Y-65278000D01*
%TO.N,unconnected-(ESP32-WROOM-32U1-13-Pad15)*%
X104314000Y-88138000D02*
X99314000Y-88138000D01*
%TO.N,unconnected-(ESP32-WROOM-32U1-17-Pad30)*%
X132254000Y-77978000D02*
X137254000Y-77978000D01*
%TO.N,unconnected-(ESP32-WROOM-32U1-VP-Pad3)*%
X99314000Y-57658000D02*
X104314000Y-57658000D01*
%TO.N,unconnected-(ESP32-WROOM-32U1-16-Pad31)*%
X137254000Y-80518000D02*
X132254000Y-80518000D01*
%TO.N,Net-(ESP32-WROOM-32U1-MOSI{slash}23)*%
X137254000Y-55118000D02*
X132254000Y-55118000D01*
%TO.N,Net-(ESP32-WROOM-32U1-25)*%
X104314000Y-72898000D02*
X99314000Y-72898000D01*
X104972000Y-81858000D02*
X114347000Y-91233000D01*
X103702001Y-81858000D02*
X104972000Y-81858000D01*
X102614000Y-80769999D02*
X103702001Y-81858000D01*
X104314000Y-72898000D02*
X102614000Y-74598000D01*
X102614000Y-74598000D02*
X102614000Y-80769999D01*
X114347000Y-91233000D02*
X114347000Y-105410000D01*
%TO.N,unconnected-(ESP32-WROOM-32U1-0-Pad33)*%
X137254000Y-85598000D02*
X132254000Y-85598000D01*
%TO.N,Net-(ESP32-WROOM-32U1-33)*%
X105514000Y-69158000D02*
X104314000Y-70358000D01*
X101948000Y-40610000D02*
X105514000Y-44176000D01*
X105514000Y-44176000D02*
X105514000Y-69158000D01*
X99314000Y-70358000D02*
X104314000Y-70358000D01*
%TO.N,unconnected-(ESP32-WROOM-32U1-4-Pad32)*%
X132254000Y-83058000D02*
X137254000Y-83058000D01*
%TO.N,Net-(ESP32-WROOM-32U1-32)*%
X96266000Y-64770000D02*
X99314000Y-67818000D01*
X96266000Y-43752000D02*
X96266000Y-64770000D01*
X99408000Y-40610000D02*
X96266000Y-43752000D01*
X104314000Y-67818000D02*
X99314000Y-67818000D01*
%TO.N,Net-(ESP32-WROOM-32U1-MISO{slash}19)*%
X137254000Y-70358000D02*
X132254000Y-70358000D01*
%TO.N,unconnected-(ESP32-WROOM-32U1-34-Pad5)*%
X99314000Y-62738000D02*
X104314000Y-62738000D01*
%TO.N,unconnected-(ESP32-WROOM-32U1-D3-Pad17)*%
X104314000Y-93218000D02*
X99314000Y-93218000D01*
%TO.N,unconnected-(ESP32-WROOM-32U1-35-Pad6)*%
X99314000Y-65278000D02*
X104314000Y-65278000D01*
%TO.N,Net-(ESP32-WROOM-32U1-27)*%
X118110000Y-91774000D02*
X118110000Y-119333000D01*
X104314000Y-77978000D02*
X118110000Y-91774000D01*
X118110000Y-119333000D02*
X121967000Y-123190000D01*
%TO.N,unconnected-(ESP32-WROOM-32U1-5V-Pad19)*%
X104314000Y-98298000D02*
X99314000Y-98298000D01*
%TO.N,unconnected-(ESP32-WROOM-32U1-CMD-Pad18)*%
X99314000Y-95758000D02*
X104314000Y-95758000D01*
%TO.N,unconnected-(ESP32-WROOM-32U1-TX-Pad23)*%
X137254000Y-60198000D02*
X132254000Y-60198000D01*
%TO.N,unconnected-(ESP32-WROOM-32U1-15-Pad35)*%
X137254000Y-90678000D02*
X132254000Y-90678000D01*
%TO.N,unconnected-(ESP32-WROOM-32U1-RX-Pad24)*%
X132254000Y-62738000D02*
X137254000Y-62738000D01*
%TO.N,Net-(ESP32-WROOM-32U1-SCL{slash}22)*%
X120764000Y-35376000D02*
X122601057Y-35376000D01*
X130810000Y-43584943D02*
X130810000Y-56214000D01*
X119564000Y-36576000D02*
X120764000Y-35376000D01*
X122601057Y-35376000D02*
X130810000Y-43584943D01*
X132254000Y-57658000D02*
X137254000Y-57658000D01*
X130810000Y-56214000D02*
X132254000Y-57658000D01*
%TO.N,unconnected-(ESP32-WROOM-32U1-D1-Pad36)*%
X132254000Y-93218000D02*
X137254000Y-93218000D01*
%TO.N,Net-(ESP32-WROOM-32U1-SCK{slash}18)*%
X132254000Y-72898000D02*
X137254000Y-72898000D01*
%TO.N,unconnected-(ESP32-WROOM-32U1-CLK-Pad38)*%
X132254000Y-98298000D02*
X137254000Y-98298000D01*
%TO.N,Net-(U1-D1)*%
X137204500Y-118618000D02*
X134156500Y-115570000D01*
X121967000Y-115570000D02*
X130097500Y-115570000D01*
X134156500Y-115570000D02*
X130097500Y-115570000D01*
%TO.N,Net-(U1-D2)*%
X137204500Y-114554000D02*
X135680500Y-113030000D01*
X135680500Y-113030000D02*
X127557500Y-113030000D01*
X121967000Y-113030000D02*
X127557500Y-113030000D01*
%TO.N,Net-(U1-D3)*%
X121967000Y-110490000D02*
X125017500Y-110490000D01*
X126067500Y-111540000D02*
X125017500Y-110490000D01*
X137199500Y-110490000D02*
X136149500Y-111540000D01*
X136149500Y-111540000D02*
X126067500Y-111540000D01*
%TO.N,Net-(U1-D4)*%
X111301500Y-110490000D02*
X110251500Y-111540000D01*
X110251500Y-111540000D02*
X100408500Y-111540000D01*
X100408500Y-111540000D02*
X99358500Y-110490000D01*
X114347000Y-110490000D02*
X111301500Y-110490000D01*
%TO.N,Net-(U1-D5)*%
X108761500Y-113030000D02*
X100887500Y-113030000D01*
X114347000Y-113030000D02*
X108761500Y-113030000D01*
X100887500Y-113030000D02*
X99363500Y-114554000D01*
%TO.N,Net-(U1-D6)*%
X106221500Y-115570000D02*
X102411500Y-115570000D01*
X102411500Y-115570000D02*
X99363500Y-118618000D01*
X114347000Y-115570000D02*
X106221500Y-115570000D01*
%TO.N,Net-(U1-D0)*%
X137204500Y-122677000D02*
X132637500Y-118110000D01*
X121967000Y-118110000D02*
X132637500Y-118110000D01*
X137204500Y-122682000D02*
X137204500Y-122677000D01*
%TO.N,Net-(U1-D7)*%
X99363500Y-122428000D02*
X103681500Y-118110000D01*
X99363500Y-122682000D02*
X99363500Y-122428000D01*
X103681500Y-118110000D02*
X114347000Y-118110000D01*
%TO.N,Net-(U2-D0)*%
X121968000Y-142495000D02*
X121967000Y-142494000D01*
X129588500Y-147066000D02*
X125017500Y-142495000D01*
X125017500Y-142495000D02*
X121968000Y-142495000D01*
X137204500Y-147066000D02*
X129588500Y-147066000D01*
%TO.N,Net-(U2-D1)*%
X127557500Y-139954000D02*
X121967000Y-139954000D01*
X137204500Y-143002000D02*
X130605500Y-143002000D01*
X130605500Y-143002000D02*
X127557500Y-139954000D01*
%TO.N,Net-(U2-D2)*%
X137204500Y-138938000D02*
X131630500Y-138938000D01*
X121976000Y-137405000D02*
X121967000Y-137414000D01*
X130097500Y-137405000D02*
X121976000Y-137405000D01*
X131630500Y-138938000D02*
X130097500Y-137405000D01*
%TO.N,Net-(U2-D3)*%
X123018000Y-135925000D02*
X131591500Y-135925000D01*
X131591500Y-135925000D02*
X132637500Y-134879000D01*
X137204500Y-134874000D02*
X132642500Y-134874000D01*
X121967000Y-134874000D02*
X123018000Y-135925000D01*
X132642500Y-134874000D02*
X132637500Y-134879000D01*
%TO.N,Net-(U2-D4)*%
X99363500Y-134874000D02*
X103676500Y-134874000D01*
X104727500Y-135925000D02*
X103681500Y-134879000D01*
X114347000Y-134874000D02*
X113296000Y-135925000D01*
X113296000Y-135925000D02*
X104727500Y-135925000D01*
X103676500Y-134874000D02*
X103681500Y-134879000D01*
%TO.N,Net-(U2-D5)*%
X106230500Y-137414000D02*
X106221500Y-137405000D01*
X114347000Y-137414000D02*
X106230500Y-137414000D01*
X99363500Y-138938000D02*
X104688500Y-138938000D01*
X104688500Y-138938000D02*
X106221500Y-137405000D01*
%TO.N,Net-(U2-D6)*%
X114347000Y-139954000D02*
X108761500Y-139954000D01*
X105713500Y-143002000D02*
X108761500Y-139954000D01*
X99363500Y-143002000D02*
X105713500Y-143002000D01*
%TO.N,Net-(U2-D7)*%
X111302500Y-142494000D02*
X111301500Y-142495000D01*
X111301500Y-142495000D02*
X106730500Y-147066000D01*
X106730500Y-147066000D02*
X99363500Y-147066000D01*
X114347000Y-142494000D02*
X111302500Y-142494000D01*
%TO.N,unconnected-(ESP32-WROOM-32U1-SS{slash}5-Pad29)*%
X137254000Y-75438000D02*
X132254000Y-75438000D01*
%TO.N,unconnected-(ESP32-WROOM-32U1-12-Pad13)*%
X104314000Y-83058000D02*
X99314000Y-83058000D01*
%TD*%
M02*
