M48
; DRILL file {KiCad 8.0.3} date 2024-06-22T22:46:12+0200
; FORMAT={-:-/ absolute / inch / decimal}
; #@! TF.CreationDate,2024-06-22T22:46:12+02:00
; #@! TF.GenerationSoftware,Kicad,Pcbnew,8.0.3
; #@! TF.FileFunction,Plated,1,2,PTH
FMAT,2
INCH
; #@! TA.AperFunction,Plated,PTH,ComponentDrill
T1C0.0276
; #@! TA.AperFunction,Plated,PTH,ComponentDrill
T2C0.0315
; #@! TA.AperFunction,Plated,PTH,ComponentDrill
T3C0.0394
; #@! TA.AperFunction,Plated,PTH,ComponentDrill
T4C0.0433
%
G90
G05
T1
X4.0819Y-5.04
X4.0819Y-5.34
X4.0819Y-4.35
X4.0819Y-4.65
X4.1819Y-5.14
X4.1819Y-5.44
X4.1819Y-4.25
X4.1819Y-4.55
X4.2819Y-5.24
X4.2819Y-5.54
X4.2819Y-4.15
X4.2819Y-4.45
X4.3819Y-5.34
X4.3819Y-5.64
X4.3819Y-4.05
X4.3819Y-4.35
X4.9219Y-4.05
X4.9219Y-4.35
X4.9222Y-5.3396
X4.9222Y-5.6396
X5.0219Y-4.15
X5.0219Y-4.45
X5.0222Y-5.2396
X5.0222Y-5.5396
X5.1219Y-4.25
X5.1219Y-4.55
X5.1222Y-5.1396
X5.1222Y-5.4396
X5.2219Y-4.35
X5.2219Y-4.65
X5.2222Y-5.0396
X5.2222Y-5.3396
T2
X4.5019Y-4.15
X4.5019Y-4.25
X4.5019Y-4.35
X4.5019Y-4.45
X4.5019Y-4.55
X4.5019Y-4.65
X4.5019Y-4.75
X4.5019Y-4.85
X4.5022Y-5.1396
X4.5022Y-5.2396
X4.5022Y-5.3396
X4.5022Y-5.4396
X4.5022Y-5.5396
X4.5022Y-5.6396
X4.5022Y-5.7396
X4.5022Y-5.8396
X4.8019Y-4.15
X4.8019Y-4.25
X4.8019Y-4.35
X4.8019Y-4.45
X4.8019Y-4.55
X4.8019Y-4.65
X4.8019Y-4.75
X4.8019Y-4.85
X4.8022Y-5.1396
X4.8022Y-5.2396
X4.8022Y-5.3396
X4.8022Y-5.4396
X4.8022Y-5.5396
X4.8022Y-5.6396
X4.8022Y-5.7396
X4.8022Y-5.8396
T3
X3.8118Y-4.35
X3.8119Y-4.51
X3.8119Y-4.67
X3.8119Y-4.83
X3.812Y-5.34
X3.812Y-5.5
X3.812Y-5.66
X3.812Y-5.82
X3.91Y-2.07
X3.91Y-2.17
X3.91Y-2.27
X3.91Y-2.37
X3.91Y-2.47
X3.91Y-2.57
X3.91Y-2.67
X3.91Y-2.77
X3.91Y-2.87
X3.91Y-2.97
X3.91Y-3.07
X3.91Y-3.17
X3.91Y-3.27
X3.91Y-3.37
X3.91Y-3.47
X3.91Y-3.57
X3.91Y-3.67
X3.91Y-3.77
X3.91Y-3.87
X3.9118Y-4.35
X3.9119Y-4.51
X3.9119Y-4.67
X3.9119Y-4.83
X3.912Y-5.34
X3.912Y-5.5
X3.912Y-5.66
X3.912Y-5.82
X3.9137Y-1.4988
X3.9137Y-1.5988
X3.9137Y-1.6988
X3.9137Y-1.7988
X4.0137Y-1.4988
X4.0137Y-1.5988
X4.0137Y-1.6988
X4.0137Y-1.7988
X4.1069Y-2.07
X4.1069Y-2.17
X4.1069Y-2.27
X4.1069Y-2.37
X4.1069Y-2.47
X4.1069Y-2.57
X4.1069Y-2.67
X4.1069Y-2.77
X4.1069Y-2.87
X4.1069Y-2.97
X4.1069Y-3.07
X4.1069Y-3.17
X4.1069Y-3.27
X4.1069Y-3.37
X4.1069Y-3.47
X4.1069Y-3.57
X4.1069Y-3.67
X4.1069Y-3.77
X4.1069Y-3.87
X4.5072Y-1.44
X4.5532Y-2.79
X4.6072Y-1.44
X4.7072Y-1.44
X4.7501Y-2.79
X4.8072Y-1.44
X5.2069Y-2.07
X5.2069Y-2.17
X5.2069Y-2.27
X5.2069Y-2.37
X5.2069Y-2.47
X5.2069Y-2.57
X5.2069Y-2.67
X5.2069Y-2.77
X5.2069Y-2.87
X5.2069Y-2.97
X5.2069Y-3.07
X5.2069Y-3.17
X5.2069Y-3.27
X5.2069Y-3.37
X5.2069Y-3.47
X5.2069Y-3.57
X5.2069Y-3.67
X5.2069Y-3.77
X5.2069Y-3.87
X5.3994Y-1.3988
X5.3994Y-1.4988
X5.3994Y-1.5988
X5.3994Y-1.6988
X5.3994Y-1.7988
X5.3994Y-1.8988
X5.4016Y-4.35
X5.4017Y-5.5
X5.4017Y-5.66
X5.4017Y-5.82
X5.4018Y-4.51
X5.4018Y-4.67
X5.4018Y-4.83
X5.4019Y-5.3369
X5.4037Y-2.07
X5.4037Y-2.17
X5.4037Y-2.27
X5.4037Y-2.37
X5.4037Y-2.47
X5.4037Y-2.57
X5.4037Y-2.67
X5.4037Y-2.77
X5.4037Y-2.87
X5.4037Y-2.97
X5.4037Y-3.07
X5.4037Y-3.17
X5.4037Y-3.27
X5.4037Y-3.37
X5.4037Y-3.47
X5.4037Y-3.57
X5.4037Y-3.67
X5.4037Y-3.77
X5.4037Y-3.87
X5.5016Y-4.35
X5.5017Y-5.5
X5.5017Y-5.66
X5.5017Y-5.82
X5.5018Y-4.51
X5.5018Y-4.67
X5.5018Y-4.83
X5.5019Y-5.3369
T4
X4.5569Y-3.87
X4.6569Y-3.87
X4.7569Y-3.87
M30
