M48
; DRILL file {KiCad 8.0.3} date 2024-06-28T16:19:57+0200
; FORMAT={-:-/ absolute / inch / decimal}
; #@! TF.CreationDate,2024-06-28T16:19:57+02:00
; #@! TF.GenerationSoftware,Kicad,Pcbnew,8.0.3
; #@! TF.FileFunction,Plated,1,2,PTH
FMAT,2
INCH
; #@! TA.AperFunction,Plated,PTH,ComponentDrill
T1C0.0276
; #@! TA.AperFunction,Plated,PTH,ComponentDrill
T2C0.0315
; #@! TA.AperFunction,Plated,PTH,ComponentDrill
T3C0.0394
%
G90
G05
T1
X4.0819Y-4.35
X4.0819Y-4.65
X4.0819Y-5.0102
X4.0819Y-5.3102
X4.1819Y-4.25
X4.1819Y-4.55
X4.1819Y-5.1096
X4.1819Y-5.4096
X4.2819Y-4.15
X4.2819Y-4.45
X4.2819Y-5.21
X4.2819Y-5.51
X4.3819Y-4.05
X4.3819Y-4.35
X4.3819Y-5.31
X4.3819Y-5.61
X4.9219Y-4.05
X4.9219Y-4.35
X4.9219Y-5.31
X4.9219Y-5.61
X5.0219Y-4.15
X5.0219Y-4.45
X5.0219Y-5.21
X5.0219Y-5.51
X5.1219Y-4.25
X5.1219Y-4.55
X5.1219Y-5.1096
X5.1219Y-5.4096
X5.2219Y-4.35
X5.2219Y-4.65
X5.2219Y-5.0102
X5.2219Y-5.3102
T2
X4.5019Y-4.15
X4.5019Y-4.25
X4.5019Y-4.35
X4.5019Y-4.45
X4.5019Y-4.55
X4.5019Y-4.65
X4.5019Y-4.75
X4.5019Y-4.85
X4.5019Y-5.11
X4.5019Y-5.21
X4.5019Y-5.31
X4.5019Y-5.41
X4.5019Y-5.51
X4.5019Y-5.61
X4.5019Y-5.71
X4.5019Y-5.81
X4.8019Y-4.15
X4.8019Y-4.25
X4.8019Y-4.35
X4.8019Y-4.45
X4.8019Y-4.55
X4.8019Y-4.65
X4.8019Y-4.75
X4.8019Y-4.85
X4.8019Y-5.11
X4.8019Y-5.21
X4.8019Y-5.31
X4.8019Y-5.41
X4.8019Y-5.51
X4.8019Y-5.61
X4.8019Y-5.71
X4.8019Y-5.81
T3
X3.8118Y-4.35
X3.8119Y-4.51
X3.8119Y-4.67
X3.8119Y-4.83
X3.8119Y-5.31
X3.8119Y-5.47
X3.8119Y-5.63
X3.8119Y-5.79
X3.91Y-2.07
X3.91Y-2.17
X3.91Y-2.27
X3.91Y-2.37
X3.91Y-2.47
X3.91Y-2.57
X3.91Y-2.67
X3.91Y-2.77
X3.91Y-2.87
X3.91Y-2.97
X3.91Y-3.07
X3.91Y-3.17
X3.91Y-3.27
X3.91Y-3.37
X3.91Y-3.47
X3.91Y-3.57
X3.91Y-3.67
X3.91Y-3.77
X3.91Y-3.87
X3.9118Y-4.35
X3.9119Y-4.51
X3.9119Y-4.67
X3.9119Y-4.83
X3.9119Y-5.31
X3.9119Y-5.47
X3.9119Y-5.63
X3.9119Y-5.79
X3.9137Y-1.4988
X3.9137Y-1.5988
X3.9137Y-1.6988
X3.9137Y-1.7988
X4.0137Y-1.4988
X4.0137Y-1.5988
X4.0137Y-1.6988
X4.0137Y-1.7988
X4.1069Y-2.07
X4.1069Y-2.17
X4.1069Y-2.27
X4.1069Y-2.37
X4.1069Y-2.47
X4.1069Y-2.57
X4.1069Y-2.67
X4.1069Y-2.77
X4.1069Y-2.87
X4.1069Y-2.97
X4.1069Y-3.07
X4.1069Y-3.17
X4.1069Y-3.27
X4.1069Y-3.37
X4.1069Y-3.47
X4.1069Y-3.57
X4.1069Y-3.67
X4.1069Y-3.77
X4.1069Y-3.87
X4.5072Y-1.44
X4.5532Y-2.2434
X4.6072Y-1.44
X4.7072Y-1.44
X4.7501Y-2.2434
X4.8072Y-1.44
X5.2069Y-2.07
X5.2069Y-2.17
X5.2069Y-2.27
X5.2069Y-2.37
X5.2069Y-2.47
X5.2069Y-2.57
X5.2069Y-2.67
X5.2069Y-2.77
X5.2069Y-2.87
X5.2069Y-2.97
X5.2069Y-3.07
X5.2069Y-3.17
X5.2069Y-3.27
X5.2069Y-3.37
X5.2069Y-3.47
X5.2069Y-3.57
X5.2069Y-3.67
X5.2069Y-3.77
X5.2069Y-3.87
X5.3994Y-1.3988
X5.3994Y-1.4988
X5.3994Y-1.5988
X5.3994Y-1.6988
X5.3994Y-1.7988
X5.3994Y-1.8988
X5.4016Y-4.35
X5.4018Y-4.51
X5.4018Y-4.67
X5.4018Y-4.83
X5.4018Y-5.31
X5.4018Y-5.47
X5.4018Y-5.63
X5.4018Y-5.79
X5.4037Y-2.07
X5.4037Y-2.17
X5.4037Y-2.27
X5.4037Y-2.37
X5.4037Y-2.47
X5.4037Y-2.57
X5.4037Y-2.67
X5.4037Y-2.77
X5.4037Y-2.87
X5.4037Y-2.97
X5.4037Y-3.07
X5.4037Y-3.17
X5.4037Y-3.27
X5.4037Y-3.37
X5.4037Y-3.47
X5.4037Y-3.57
X5.4037Y-3.67
X5.4037Y-3.77
X5.4037Y-3.87
X5.5016Y-4.35
X5.5018Y-4.51
X5.5018Y-4.67
X5.5018Y-4.83
X5.5018Y-5.31
X5.5018Y-5.47
X5.5018Y-5.63
X5.5018Y-5.79
M30
