%TF.GenerationSoftware,KiCad,Pcbnew,8.0.3*%
%TF.CreationDate,2024-06-28T16:19:56+02:00*%
%TF.ProjectId,arcade stick,61726361-6465-4207-9374-69636b2e6b69,rev?*%
%TF.SameCoordinates,Original*%
%TF.FileFunction,Soldermask,Top*%
%TF.FilePolarity,Negative*%
%FSLAX46Y46*%
G04 Gerber Fmt 4.6, Leading zero omitted, Abs format (unit mm)*
G04 Created by KiCad (PCBNEW 8.0.3) date 2024-06-28 16:19:56*
%MOMM*%
%LPD*%
G01*
G04 APERTURE LIST*
%ADD10R,1.700000X1.700000*%
%ADD11O,1.700000X1.700000*%
%ADD12C,1.700000*%
%ADD13C,1.400000*%
%ADD14O,1.400000X1.400000*%
%ADD15R,1.600000X1.600000*%
%ADD16O,1.600000X1.600000*%
%ADD17R,2.000000X2.000000*%
%ADD18C,2.000000*%
%ADD19C,3.200000*%
G04 APERTURE END LIST*
D10*
%TO.C,NRF1*%
X137146000Y-35530000D03*
D11*
X137146000Y-38070000D03*
X137146000Y-40610000D03*
X137146000Y-43150000D03*
X137146000Y-45690000D03*
X137146000Y-48230000D03*
D10*
X99408000Y-38070000D03*
D12*
X101948000Y-38070000D03*
X99408000Y-40610000D03*
X101948000Y-40610000D03*
X99408000Y-43150000D03*
X101948000Y-43150000D03*
X99408000Y-45690000D03*
X101948000Y-45690000D03*
%TD*%
D13*
%TO.C,R5*%
X108761500Y-105410000D03*
D14*
X108761500Y-113030000D03*
%TD*%
D13*
%TO.C,R6*%
X106221500Y-107950000D03*
D14*
X106221500Y-115570000D03*
%TD*%
D10*
%TO.C,SW14*%
X99363500Y-138938000D03*
D11*
X96823500Y-138938000D03*
%TD*%
D10*
%TO.C,SW8*%
X99363500Y-122682000D03*
D11*
X96823500Y-122682000D03*
%TD*%
D10*
%TO.C,SW15*%
X99363500Y-143002000D03*
D11*
X96823500Y-143002000D03*
%TD*%
D13*
%TO.C,R2*%
X127557500Y-105410000D03*
D14*
X127557500Y-113030000D03*
%TD*%
D13*
%TO.C,R15*%
X108761500Y-132334000D03*
D14*
X108761500Y-139954000D03*
%TD*%
D10*
%TO.C,SW2*%
X137204500Y-118618000D03*
D11*
X139744500Y-118618000D03*
%TD*%
D13*
%TO.C,R16*%
X111301500Y-134875000D03*
D14*
X111301500Y-142495000D03*
%TD*%
D15*
%TO.C,U1*%
X114347000Y-105410000D03*
D16*
X114347000Y-107950000D03*
X114347000Y-110490000D03*
X114347000Y-113030000D03*
X114347000Y-115570000D03*
X114347000Y-118110000D03*
X114347000Y-120650000D03*
X114347000Y-123190000D03*
X121967000Y-123190000D03*
X121967000Y-120650000D03*
X121967000Y-118110000D03*
X121967000Y-115570000D03*
X121967000Y-113030000D03*
X121967000Y-110490000D03*
X121967000Y-107950000D03*
X121967000Y-105410000D03*
%TD*%
D13*
%TO.C,R11*%
X130097500Y-129785000D03*
D14*
X130097500Y-137405000D03*
%TD*%
D13*
%TO.C,R1*%
X130097500Y-107950000D03*
D14*
X130097500Y-115570000D03*
%TD*%
D10*
%TO.C,SW9*%
X137204500Y-147066000D03*
D11*
X139744500Y-147066000D03*
%TD*%
D13*
%TO.C,R12*%
X132637500Y-127259000D03*
D14*
X132637500Y-134879000D03*
%TD*%
D13*
%TO.C,R13*%
X103681500Y-127259000D03*
D14*
X103681500Y-134879000D03*
%TD*%
D13*
%TO.C,R14*%
X106221500Y-129785000D03*
D14*
X106221500Y-137405000D03*
%TD*%
D17*
%TO.C,C1*%
X120651677Y-56982000D03*
D18*
X115651677Y-56982000D03*
%TD*%
D19*
%TO.C,REF\u002A\u002A*%
X138780000Y-103124000D03*
%TD*%
D13*
%TO.C,R8*%
X103681500Y-110490000D03*
D14*
X103681500Y-118110000D03*
%TD*%
D13*
%TO.C,R4*%
X111301500Y-102870000D03*
D14*
X111301500Y-110490000D03*
%TD*%
D15*
%TO.C,U2*%
X114347000Y-129794000D03*
D16*
X114347000Y-132334000D03*
X114347000Y-134874000D03*
X114347000Y-137414000D03*
X114347000Y-139954000D03*
X114347000Y-142494000D03*
X114347000Y-145034000D03*
X114347000Y-147574000D03*
X121967000Y-147574000D03*
X121967000Y-145034000D03*
X121967000Y-142494000D03*
X121967000Y-139954000D03*
X121967000Y-137414000D03*
X121967000Y-134874000D03*
X121967000Y-132334000D03*
X121967000Y-129794000D03*
%TD*%
D10*
%TO.C,SW4*%
X137199500Y-110490000D03*
D11*
X139739500Y-110490000D03*
%TD*%
D13*
%TO.C,R9*%
X125017500Y-134875000D03*
D14*
X125017500Y-142495000D03*
%TD*%
D10*
%TO.C,ESP32-WROOM-32U1*%
X99314000Y-52578000D03*
X104314000Y-52578000D03*
D11*
X99314000Y-55118000D03*
X104314000Y-55118000D03*
X99314000Y-57658000D03*
X104314000Y-57658000D03*
X99314000Y-60198000D03*
X104314000Y-60198000D03*
X99314000Y-62738000D03*
X104314000Y-62738000D03*
X99314000Y-65278000D03*
X104314000Y-65278000D03*
X99314000Y-67818000D03*
X104314000Y-67818000D03*
X99314000Y-70358000D03*
X104314000Y-70358000D03*
X99314000Y-72898000D03*
X104314000Y-72898000D03*
X99314000Y-75438000D03*
X104314000Y-75438000D03*
X99314000Y-77978000D03*
X104314000Y-77978000D03*
X99314000Y-80518000D03*
X104314000Y-80518000D03*
X99314000Y-83058000D03*
X104314000Y-83058000D03*
X99314000Y-85598000D03*
X104314000Y-85598000D03*
X99314000Y-88138000D03*
X104314000Y-88138000D03*
X99314000Y-90678000D03*
X104314000Y-90678000D03*
X99314000Y-93218000D03*
X104314000Y-93218000D03*
X99314000Y-95758000D03*
X104314000Y-95758000D03*
X99314000Y-98298000D03*
X104314000Y-98298000D03*
D10*
X132254000Y-52578000D03*
X137254000Y-52578000D03*
D11*
X132254000Y-55118000D03*
X137254000Y-55118000D03*
X132254000Y-57658000D03*
X137254000Y-57658000D03*
X132254000Y-60198000D03*
X137254000Y-60198000D03*
X132254000Y-62738000D03*
X137254000Y-62738000D03*
X132254000Y-65278000D03*
X137254000Y-65278000D03*
X132254000Y-67818000D03*
X137254000Y-67818000D03*
X132254000Y-70358000D03*
X137254000Y-70358000D03*
X132254000Y-72898000D03*
X137254000Y-72898000D03*
X132254000Y-75438000D03*
X137254000Y-75438000D03*
X132254000Y-77978000D03*
X137254000Y-77978000D03*
X132254000Y-80518000D03*
X137254000Y-80518000D03*
X132254000Y-83058000D03*
X137254000Y-83058000D03*
X132254000Y-85598000D03*
X137254000Y-85598000D03*
X132254000Y-88138000D03*
X137254000Y-88138000D03*
X132254000Y-90678000D03*
X137254000Y-90678000D03*
X132254000Y-93218000D03*
X137254000Y-93218000D03*
X132254000Y-95758000D03*
X137254000Y-95758000D03*
X132254000Y-98298000D03*
X137254000Y-98298000D03*
%TD*%
D10*
%TO.C,SW3*%
X137204500Y-114554000D03*
D11*
X139744500Y-114554000D03*
%TD*%
D13*
%TO.C,R7*%
X132637500Y-110490000D03*
D14*
X132637500Y-118110000D03*
%TD*%
D10*
%TO.C,SW10*%
X137204500Y-143002000D03*
D11*
X139744500Y-143002000D03*
%TD*%
D10*
%TO.C,SW11*%
X137204500Y-138938000D03*
D11*
X139744500Y-138938000D03*
%TD*%
D10*
%TO.C,SW12*%
X137204500Y-134874000D03*
D11*
X139744500Y-134874000D03*
%TD*%
D13*
%TO.C,R3*%
X125017500Y-102870000D03*
D14*
X125017500Y-110490000D03*
%TD*%
D10*
%TO.C,Oled_screen1*%
X114484000Y-36576000D03*
D11*
X117024000Y-36576000D03*
X119564000Y-36576000D03*
X122104000Y-36576000D03*
%TD*%
D10*
%TO.C,SW6*%
X99363500Y-114554000D03*
D11*
X96823500Y-114554000D03*
%TD*%
D13*
%TO.C,R10*%
X127557500Y-132334000D03*
D14*
X127557500Y-139954000D03*
%TD*%
D10*
%TO.C,SW13*%
X99363500Y-134874000D03*
D11*
X96823500Y-134874000D03*
%TD*%
D19*
%TO.C,REF\u002A\u002A*%
X97790000Y-103124000D03*
%TD*%
D10*
%TO.C,SW1*%
X137204500Y-122682000D03*
D11*
X139744500Y-122682000D03*
%TD*%
D10*
%TO.C,SW16*%
X99363500Y-147066000D03*
D11*
X96823500Y-147066000D03*
%TD*%
D10*
%TO.C,SW7*%
X99363500Y-118618000D03*
D11*
X96823500Y-118618000D03*
%TD*%
D10*
%TO.C,SW5*%
X99358500Y-110490000D03*
D11*
X96818500Y-110490000D03*
%TD*%
M02*
