G04 #@! TF.GenerationSoftware,KiCad,Pcbnew,8.0.2*
G04 #@! TF.CreationDate,2024-05-26T13:34:17+02:00*
G04 #@! TF.ProjectId,Playstation 2 breakout,506c6179-7374-4617-9469-6f6e20322062,rev?*
G04 #@! TF.SameCoordinates,Original*
G04 #@! TF.FileFunction,Copper,L1,Top*
G04 #@! TF.FilePolarity,Positive*
%FSLAX46Y46*%
G04 Gerber Fmt 4.6, Leading zero omitted, Abs format (unit mm)*
G04 Created by KiCad (PCBNEW 8.0.2) date 2024-05-26 13:34:17*
%MOMM*%
%LPD*%
G01*
G04 APERTURE LIST*
G04 #@! TA.AperFunction,ComponentPad*
%ADD10C,2.000000*%
G04 #@! TD*
G04 #@! TA.AperFunction,ComponentPad*
%ADD11C,4.000000*%
G04 #@! TD*
G04 #@! TA.AperFunction,ComponentPad*
%ADD12R,1.700000X1.700000*%
G04 #@! TD*
G04 #@! TA.AperFunction,ComponentPad*
%ADD13O,1.700000X1.700000*%
G04 #@! TD*
G04 #@! TA.AperFunction,Conductor*
%ADD14C,1.000000*%
G04 #@! TD*
G04 APERTURE END LIST*
D10*
X156462000Y-78129625D03*
X156462000Y-94129625D03*
X156462000Y-98129625D03*
X156462000Y-90129625D03*
X156462000Y-86129625D03*
X156462000Y-66129625D03*
D11*
X151384000Y-81468000D03*
D10*
X156462000Y-70129625D03*
X156462000Y-82129625D03*
X156462000Y-74129625D03*
D12*
X175004000Y-72593000D03*
D13*
X175004000Y-75133000D03*
X175004000Y-77673000D03*
X175004000Y-80213000D03*
X175004000Y-82753000D03*
X175004000Y-85293000D03*
X175004000Y-87833000D03*
X175004000Y-90373000D03*
D14*
X175004000Y-85293000D02*
X161298625Y-85293000D01*
X175004000Y-80213000D02*
X158378625Y-80213000D01*
X164218625Y-90373000D02*
X156462000Y-98129625D01*
X159838625Y-82753000D02*
X156462000Y-86129625D01*
X175004000Y-72593000D02*
X162925375Y-72593000D01*
X156918625Y-77673000D02*
X156462000Y-78129625D01*
X162925375Y-72593000D02*
X156462000Y-66129625D01*
X157465375Y-75133000D02*
X156462000Y-74129625D01*
X161298625Y-85293000D02*
X156462000Y-90129625D01*
X175004000Y-75133000D02*
X157465375Y-75133000D01*
X175004000Y-87833000D02*
X162758625Y-87833000D01*
X175004000Y-82753000D02*
X159838625Y-82753000D01*
X175004000Y-90373000D02*
X164218625Y-90373000D01*
X175004000Y-77673000D02*
X156918625Y-77673000D01*
X162758625Y-87833000D02*
X156462000Y-94129625D01*
X158378625Y-80213000D02*
X156462000Y-82129625D01*
M02*
