G04 #@! TF.GenerationSoftware,KiCad,Pcbnew,8.0.3*
G04 #@! TF.CreationDate,2024-06-28T16:30:34+02:00*
G04 #@! TF.ProjectId,Playstation 2 breakout,506c6179-7374-4617-9469-6f6e20322062,rev?*
G04 #@! TF.SameCoordinates,Original*
G04 #@! TF.FileFunction,Legend,Top*
G04 #@! TF.FilePolarity,Positive*
%FSLAX46Y46*%
G04 Gerber Fmt 4.6, Leading zero omitted, Abs format (unit mm)*
G04 Created by KiCad (PCBNEW 8.0.3) date 2024-06-28 16:30:34*
%MOMM*%
%LPD*%
G01*
G04 APERTURE LIST*
%ADD10C,0.150000*%
%ADD11C,0.120000*%
G04 APERTURE END LIST*
D10*
X176425279Y-85281319D02*
X176425279Y-84281319D01*
X176425279Y-84281319D02*
X176758612Y-84995604D01*
X176758612Y-84995604D02*
X177091945Y-84281319D01*
X177091945Y-84281319D02*
X177091945Y-85281319D01*
X177758612Y-84281319D02*
X177949088Y-84281319D01*
X177949088Y-84281319D02*
X178044326Y-84328938D01*
X178044326Y-84328938D02*
X178139564Y-84424176D01*
X178139564Y-84424176D02*
X178187183Y-84614652D01*
X178187183Y-84614652D02*
X178187183Y-84947985D01*
X178187183Y-84947985D02*
X178139564Y-85138461D01*
X178139564Y-85138461D02*
X178044326Y-85233700D01*
X178044326Y-85233700D02*
X177949088Y-85281319D01*
X177949088Y-85281319D02*
X177758612Y-85281319D01*
X177758612Y-85281319D02*
X177663374Y-85233700D01*
X177663374Y-85233700D02*
X177568136Y-85138461D01*
X177568136Y-85138461D02*
X177520517Y-84947985D01*
X177520517Y-84947985D02*
X177520517Y-84614652D01*
X177520517Y-84614652D02*
X177568136Y-84424176D01*
X177568136Y-84424176D02*
X177663374Y-84328938D01*
X177663374Y-84328938D02*
X177758612Y-84281319D01*
X178472898Y-84281319D02*
X179044326Y-84281319D01*
X178758612Y-85281319D02*
X178758612Y-84281319D01*
X179568136Y-84281319D02*
X179758612Y-84281319D01*
X179758612Y-84281319D02*
X179853850Y-84328938D01*
X179853850Y-84328938D02*
X179949088Y-84424176D01*
X179949088Y-84424176D02*
X179996707Y-84614652D01*
X179996707Y-84614652D02*
X179996707Y-84947985D01*
X179996707Y-84947985D02*
X179949088Y-85138461D01*
X179949088Y-85138461D02*
X179853850Y-85233700D01*
X179853850Y-85233700D02*
X179758612Y-85281319D01*
X179758612Y-85281319D02*
X179568136Y-85281319D01*
X179568136Y-85281319D02*
X179472898Y-85233700D01*
X179472898Y-85233700D02*
X179377660Y-85138461D01*
X179377660Y-85138461D02*
X179330041Y-84947985D01*
X179330041Y-84947985D02*
X179330041Y-84614652D01*
X179330041Y-84614652D02*
X179377660Y-84424176D01*
X179377660Y-84424176D02*
X179472898Y-84328938D01*
X179472898Y-84328938D02*
X179568136Y-84281319D01*
X180996707Y-85281319D02*
X180663374Y-84805128D01*
X180425279Y-85281319D02*
X180425279Y-84281319D01*
X180425279Y-84281319D02*
X180806231Y-84281319D01*
X180806231Y-84281319D02*
X180901469Y-84328938D01*
X180901469Y-84328938D02*
X180949088Y-84376557D01*
X180949088Y-84376557D02*
X180996707Y-84471795D01*
X180996707Y-84471795D02*
X180996707Y-84614652D01*
X180996707Y-84614652D02*
X180949088Y-84709890D01*
X180949088Y-84709890D02*
X180901469Y-84757509D01*
X180901469Y-84757509D02*
X180806231Y-84805128D01*
X180806231Y-84805128D02*
X180425279Y-84805128D01*
X176996707Y-69186080D02*
X176949088Y-69233700D01*
X176949088Y-69233700D02*
X176806231Y-69281319D01*
X176806231Y-69281319D02*
X176710993Y-69281319D01*
X176710993Y-69281319D02*
X176568136Y-69233700D01*
X176568136Y-69233700D02*
X176472898Y-69138461D01*
X176472898Y-69138461D02*
X176425279Y-69043223D01*
X176425279Y-69043223D02*
X176377660Y-68852747D01*
X176377660Y-68852747D02*
X176377660Y-68709890D01*
X176377660Y-68709890D02*
X176425279Y-68519414D01*
X176425279Y-68519414D02*
X176472898Y-68424176D01*
X176472898Y-68424176D02*
X176568136Y-68328938D01*
X176568136Y-68328938D02*
X176710993Y-68281319D01*
X176710993Y-68281319D02*
X176806231Y-68281319D01*
X176806231Y-68281319D02*
X176949088Y-68328938D01*
X176949088Y-68328938D02*
X176996707Y-68376557D01*
X177901469Y-69281319D02*
X177425279Y-69281319D01*
X177425279Y-69281319D02*
X177425279Y-68281319D01*
X178234803Y-69281319D02*
X178234803Y-68281319D01*
X178806231Y-69281319D02*
X178377660Y-68709890D01*
X178806231Y-68281319D02*
X178234803Y-68852747D01*
X176425279Y-93281319D02*
X176425279Y-92281319D01*
X176425279Y-92281319D02*
X176663374Y-92281319D01*
X176663374Y-92281319D02*
X176806231Y-92328938D01*
X176806231Y-92328938D02*
X176901469Y-92424176D01*
X176901469Y-92424176D02*
X176949088Y-92519414D01*
X176949088Y-92519414D02*
X176996707Y-92709890D01*
X176996707Y-92709890D02*
X176996707Y-92852747D01*
X176996707Y-92852747D02*
X176949088Y-93043223D01*
X176949088Y-93043223D02*
X176901469Y-93138461D01*
X176901469Y-93138461D02*
X176806231Y-93233700D01*
X176806231Y-93233700D02*
X176663374Y-93281319D01*
X176663374Y-93281319D02*
X176425279Y-93281319D01*
X177377660Y-92995604D02*
X177853850Y-92995604D01*
X177282422Y-93281319D02*
X177615755Y-92281319D01*
X177615755Y-92281319D02*
X177949088Y-93281319D01*
X178139565Y-92281319D02*
X178710993Y-92281319D01*
X178425279Y-93281319D02*
X178425279Y-92281319D01*
X178996708Y-92995604D02*
X179472898Y-92995604D01*
X178901470Y-93281319D02*
X179234803Y-92281319D01*
X179234803Y-92281319D02*
X179568136Y-93281319D01*
X176377660Y-72995604D02*
X176853850Y-72995604D01*
X176282422Y-73281319D02*
X176615755Y-72281319D01*
X176615755Y-72281319D02*
X176949088Y-73281319D01*
X177139565Y-72281319D02*
X177710993Y-72281319D01*
X177425279Y-73281319D02*
X177425279Y-72281319D01*
X177901470Y-72281319D02*
X178472898Y-72281319D01*
X178187184Y-73281319D02*
X178187184Y-72281319D01*
X178806232Y-73281319D02*
X178806232Y-72281319D01*
X178806232Y-72281319D02*
X179377660Y-73281319D01*
X179377660Y-73281319D02*
X179377660Y-72281319D01*
X176949088Y-80328938D02*
X176853850Y-80281319D01*
X176853850Y-80281319D02*
X176710993Y-80281319D01*
X176710993Y-80281319D02*
X176568136Y-80328938D01*
X176568136Y-80328938D02*
X176472898Y-80424176D01*
X176472898Y-80424176D02*
X176425279Y-80519414D01*
X176425279Y-80519414D02*
X176377660Y-80709890D01*
X176377660Y-80709890D02*
X176377660Y-80852747D01*
X176377660Y-80852747D02*
X176425279Y-81043223D01*
X176425279Y-81043223D02*
X176472898Y-81138461D01*
X176472898Y-81138461D02*
X176568136Y-81233700D01*
X176568136Y-81233700D02*
X176710993Y-81281319D01*
X176710993Y-81281319D02*
X176806231Y-81281319D01*
X176806231Y-81281319D02*
X176949088Y-81233700D01*
X176949088Y-81233700D02*
X176996707Y-81186080D01*
X176996707Y-81186080D02*
X176996707Y-80852747D01*
X176996707Y-80852747D02*
X176806231Y-80852747D01*
X177425279Y-81281319D02*
X177425279Y-80281319D01*
X177425279Y-80281319D02*
X177996707Y-81281319D01*
X177996707Y-81281319D02*
X177996707Y-80281319D01*
X178472898Y-81281319D02*
X178472898Y-80281319D01*
X178472898Y-80281319D02*
X178710993Y-80281319D01*
X178710993Y-80281319D02*
X178853850Y-80328938D01*
X178853850Y-80328938D02*
X178949088Y-80424176D01*
X178949088Y-80424176D02*
X178996707Y-80519414D01*
X178996707Y-80519414D02*
X179044326Y-80709890D01*
X179044326Y-80709890D02*
X179044326Y-80852747D01*
X179044326Y-80852747D02*
X178996707Y-81043223D01*
X178996707Y-81043223D02*
X178949088Y-81138461D01*
X178949088Y-81138461D02*
X178853850Y-81233700D01*
X178853850Y-81233700D02*
X178710993Y-81281319D01*
X178710993Y-81281319D02*
X178472898Y-81281319D01*
X176282422Y-76281319D02*
X176615755Y-77281319D01*
X176615755Y-77281319D02*
X176949088Y-76281319D01*
X177853850Y-77186080D02*
X177806231Y-77233700D01*
X177806231Y-77233700D02*
X177663374Y-77281319D01*
X177663374Y-77281319D02*
X177568136Y-77281319D01*
X177568136Y-77281319D02*
X177425279Y-77233700D01*
X177425279Y-77233700D02*
X177330041Y-77138461D01*
X177330041Y-77138461D02*
X177282422Y-77043223D01*
X177282422Y-77043223D02*
X177234803Y-76852747D01*
X177234803Y-76852747D02*
X177234803Y-76709890D01*
X177234803Y-76709890D02*
X177282422Y-76519414D01*
X177282422Y-76519414D02*
X177330041Y-76424176D01*
X177330041Y-76424176D02*
X177425279Y-76328938D01*
X177425279Y-76328938D02*
X177568136Y-76281319D01*
X177568136Y-76281319D02*
X177663374Y-76281319D01*
X177663374Y-76281319D02*
X177806231Y-76328938D01*
X177806231Y-76328938D02*
X177853850Y-76376557D01*
X178853850Y-77186080D02*
X178806231Y-77233700D01*
X178806231Y-77233700D02*
X178663374Y-77281319D01*
X178663374Y-77281319D02*
X178568136Y-77281319D01*
X178568136Y-77281319D02*
X178425279Y-77233700D01*
X178425279Y-77233700D02*
X178330041Y-77138461D01*
X178330041Y-77138461D02*
X178282422Y-77043223D01*
X178282422Y-77043223D02*
X178234803Y-76852747D01*
X178234803Y-76852747D02*
X178234803Y-76709890D01*
X178234803Y-76709890D02*
X178282422Y-76519414D01*
X178282422Y-76519414D02*
X178330041Y-76424176D01*
X178330041Y-76424176D02*
X178425279Y-76328938D01*
X178425279Y-76328938D02*
X178568136Y-76281319D01*
X178568136Y-76281319D02*
X178663374Y-76281319D01*
X178663374Y-76281319D02*
X178806231Y-76328938D01*
X178806231Y-76328938D02*
X178853850Y-76376557D01*
X176996707Y-89186080D02*
X176949088Y-89233700D01*
X176949088Y-89233700D02*
X176806231Y-89281319D01*
X176806231Y-89281319D02*
X176710993Y-89281319D01*
X176710993Y-89281319D02*
X176568136Y-89233700D01*
X176568136Y-89233700D02*
X176472898Y-89138461D01*
X176472898Y-89138461D02*
X176425279Y-89043223D01*
X176425279Y-89043223D02*
X176377660Y-88852747D01*
X176377660Y-88852747D02*
X176377660Y-88709890D01*
X176377660Y-88709890D02*
X176425279Y-88519414D01*
X176425279Y-88519414D02*
X176472898Y-88424176D01*
X176472898Y-88424176D02*
X176568136Y-88328938D01*
X176568136Y-88328938D02*
X176710993Y-88281319D01*
X176710993Y-88281319D02*
X176806231Y-88281319D01*
X176806231Y-88281319D02*
X176949088Y-88328938D01*
X176949088Y-88328938D02*
X176996707Y-88376557D01*
X177425279Y-89281319D02*
X177425279Y-88281319D01*
X177425279Y-88281319D02*
X177758612Y-88995604D01*
X177758612Y-88995604D02*
X178091945Y-88281319D01*
X178091945Y-88281319D02*
X178091945Y-89281319D01*
X178568136Y-89281319D02*
X178568136Y-88281319D01*
X178568136Y-88281319D02*
X178806231Y-88281319D01*
X178806231Y-88281319D02*
X178949088Y-88328938D01*
X178949088Y-88328938D02*
X179044326Y-88424176D01*
X179044326Y-88424176D02*
X179091945Y-88519414D01*
X179091945Y-88519414D02*
X179139564Y-88709890D01*
X179139564Y-88709890D02*
X179139564Y-88852747D01*
X179139564Y-88852747D02*
X179091945Y-89043223D01*
X179091945Y-89043223D02*
X179044326Y-89138461D01*
X179044326Y-89138461D02*
X178949088Y-89233700D01*
X178949088Y-89233700D02*
X178806231Y-89281319D01*
X178806231Y-89281319D02*
X178568136Y-89281319D01*
X176377660Y-60995604D02*
X176853850Y-60995604D01*
X176282422Y-61281319D02*
X176615755Y-60281319D01*
X176615755Y-60281319D02*
X176949088Y-61281319D01*
X177853850Y-61186080D02*
X177806231Y-61233700D01*
X177806231Y-61233700D02*
X177663374Y-61281319D01*
X177663374Y-61281319D02*
X177568136Y-61281319D01*
X177568136Y-61281319D02*
X177425279Y-61233700D01*
X177425279Y-61233700D02*
X177330041Y-61138461D01*
X177330041Y-61138461D02*
X177282422Y-61043223D01*
X177282422Y-61043223D02*
X177234803Y-60852747D01*
X177234803Y-60852747D02*
X177234803Y-60709890D01*
X177234803Y-60709890D02*
X177282422Y-60519414D01*
X177282422Y-60519414D02*
X177330041Y-60424176D01*
X177330041Y-60424176D02*
X177425279Y-60328938D01*
X177425279Y-60328938D02*
X177568136Y-60281319D01*
X177568136Y-60281319D02*
X177663374Y-60281319D01*
X177663374Y-60281319D02*
X177806231Y-60328938D01*
X177806231Y-60328938D02*
X177853850Y-60376557D01*
X178282422Y-61281319D02*
X178282422Y-60281319D01*
X178853850Y-61281319D02*
X178425279Y-60709890D01*
X178853850Y-60281319D02*
X178282422Y-60852747D01*
D11*
X187186500Y-66503000D02*
X188516500Y-66503000D01*
X187186500Y-67833000D02*
X187186500Y-66503000D01*
X187186500Y-69103000D02*
X187186500Y-86943000D01*
X187186500Y-69103000D02*
X189846500Y-69103000D01*
X187186500Y-86943000D02*
X189846500Y-86943000D01*
X189846500Y-69103000D02*
X189846500Y-86943000D01*
M02*
