G04 #@! TF.GenerationSoftware,KiCad,Pcbnew,8.0.2*
G04 #@! TF.CreationDate,2024-05-26T13:34:17+02:00*
G04 #@! TF.ProjectId,Playstation 2 breakout,506c6179-7374-4617-9469-6f6e20322062,rev?*
G04 #@! TF.SameCoordinates,Original*
G04 #@! TF.FileFunction,Soldermask,Bot*
G04 #@! TF.FilePolarity,Negative*
%FSLAX46Y46*%
G04 Gerber Fmt 4.6, Leading zero omitted, Abs format (unit mm)*
G04 Created by KiCad (PCBNEW 8.0.2) date 2024-05-26 13:34:17*
%MOMM*%
%LPD*%
G01*
G04 APERTURE LIST*
G04 APERTURE END LIST*
G36*
X156512938Y-97083642D02*
G01*
X156558923Y-97083642D01*
X156610139Y-97093215D01*
X156667040Y-97098820D01*
X156710261Y-97111931D01*
X156749474Y-97119261D01*
X156803785Y-97140301D01*
X156864200Y-97158628D01*
X156898720Y-97177079D01*
X156930232Y-97189287D01*
X156984977Y-97223184D01*
X157045904Y-97255750D01*
X157071506Y-97276761D01*
X157095048Y-97291338D01*
X157147212Y-97338892D01*
X157205169Y-97386456D01*
X157222342Y-97407382D01*
X157238301Y-97421930D01*
X157284629Y-97483278D01*
X157335875Y-97545721D01*
X157345783Y-97564259D01*
X157355122Y-97576625D01*
X157392274Y-97651238D01*
X157432997Y-97727425D01*
X157437340Y-97741742D01*
X157441528Y-97750153D01*
X157466267Y-97837101D01*
X157492805Y-97924585D01*
X157493676Y-97933436D01*
X157494577Y-97936600D01*
X157503938Y-98037627D01*
X157513000Y-98129625D01*
X157503938Y-98221630D01*
X157494577Y-98322649D01*
X157493676Y-98325812D01*
X157492805Y-98334665D01*
X157466262Y-98422163D01*
X157441528Y-98509096D01*
X157437341Y-98517504D01*
X157432997Y-98531825D01*
X157392267Y-98608024D01*
X157355122Y-98682624D01*
X157345785Y-98694987D01*
X157335875Y-98713529D01*
X157284620Y-98775982D01*
X157238301Y-98837319D01*
X157222345Y-98851863D01*
X157205169Y-98872794D01*
X157147201Y-98920366D01*
X157095048Y-98967911D01*
X157071511Y-98982484D01*
X157045904Y-99003500D01*
X156984965Y-99036072D01*
X156930232Y-99069962D01*
X156898726Y-99082167D01*
X156864200Y-99100622D01*
X156803773Y-99118952D01*
X156749474Y-99139988D01*
X156710268Y-99147316D01*
X156667040Y-99160430D01*
X156610136Y-99166034D01*
X156558923Y-99175608D01*
X156512938Y-99175608D01*
X156462000Y-99180625D01*
X156411062Y-99175608D01*
X156365077Y-99175608D01*
X156313863Y-99166034D01*
X156256960Y-99160430D01*
X156213732Y-99147317D01*
X156174525Y-99139988D01*
X156120221Y-99118950D01*
X156059800Y-99100622D01*
X156025275Y-99082168D01*
X155993767Y-99069962D01*
X155939027Y-99036068D01*
X155878096Y-99003500D01*
X155852491Y-98982486D01*
X155828951Y-98967911D01*
X155776788Y-98920358D01*
X155718831Y-98872794D01*
X155701656Y-98851867D01*
X155685698Y-98837319D01*
X155639367Y-98775967D01*
X155588125Y-98713529D01*
X155578216Y-98694991D01*
X155568877Y-98682624D01*
X155531717Y-98607997D01*
X155491003Y-98531825D01*
X155486660Y-98517509D01*
X155482471Y-98509096D01*
X155457721Y-98422110D01*
X155431195Y-98334665D01*
X155430323Y-98325817D01*
X155429422Y-98322649D01*
X155420044Y-98221458D01*
X155411000Y-98129625D01*
X155420044Y-98037798D01*
X155429422Y-97936600D01*
X155430323Y-97933430D01*
X155431195Y-97924585D01*
X155457716Y-97837154D01*
X155482471Y-97750153D01*
X155486661Y-97741737D01*
X155491003Y-97727425D01*
X155531710Y-97651266D01*
X155568877Y-97576625D01*
X155578218Y-97564254D01*
X155588125Y-97545721D01*
X155639357Y-97483293D01*
X155685698Y-97421930D01*
X155701660Y-97407378D01*
X155718831Y-97386456D01*
X155776777Y-97338900D01*
X155828951Y-97291338D01*
X155852496Y-97276759D01*
X155878096Y-97255750D01*
X155939015Y-97223188D01*
X155993767Y-97189287D01*
X156025282Y-97177077D01*
X156059800Y-97158628D01*
X156120209Y-97140302D01*
X156174525Y-97119261D01*
X156213739Y-97111930D01*
X156256960Y-97098820D01*
X156313860Y-97093215D01*
X156365077Y-97083642D01*
X156411062Y-97083642D01*
X156462000Y-97078625D01*
X156512938Y-97083642D01*
G37*
G36*
X156512938Y-93083642D02*
G01*
X156558923Y-93083642D01*
X156610139Y-93093215D01*
X156667040Y-93098820D01*
X156710261Y-93111931D01*
X156749474Y-93119261D01*
X156803785Y-93140301D01*
X156864200Y-93158628D01*
X156898720Y-93177079D01*
X156930232Y-93189287D01*
X156984977Y-93223184D01*
X157045904Y-93255750D01*
X157071506Y-93276761D01*
X157095048Y-93291338D01*
X157147212Y-93338892D01*
X157205169Y-93386456D01*
X157222342Y-93407382D01*
X157238301Y-93421930D01*
X157284629Y-93483278D01*
X157335875Y-93545721D01*
X157345783Y-93564259D01*
X157355122Y-93576625D01*
X157392274Y-93651238D01*
X157432997Y-93727425D01*
X157437340Y-93741742D01*
X157441528Y-93750153D01*
X157466267Y-93837101D01*
X157492805Y-93924585D01*
X157493676Y-93933436D01*
X157494577Y-93936600D01*
X157503938Y-94037627D01*
X157513000Y-94129625D01*
X157503938Y-94221630D01*
X157494577Y-94322649D01*
X157493676Y-94325812D01*
X157492805Y-94334665D01*
X157466262Y-94422163D01*
X157441528Y-94509096D01*
X157437341Y-94517504D01*
X157432997Y-94531825D01*
X157392267Y-94608024D01*
X157355122Y-94682624D01*
X157345785Y-94694987D01*
X157335875Y-94713529D01*
X157284620Y-94775982D01*
X157238301Y-94837319D01*
X157222345Y-94851863D01*
X157205169Y-94872794D01*
X157147201Y-94920366D01*
X157095048Y-94967911D01*
X157071511Y-94982484D01*
X157045904Y-95003500D01*
X156984965Y-95036072D01*
X156930232Y-95069962D01*
X156898726Y-95082167D01*
X156864200Y-95100622D01*
X156803773Y-95118952D01*
X156749474Y-95139988D01*
X156710268Y-95147316D01*
X156667040Y-95160430D01*
X156610136Y-95166034D01*
X156558923Y-95175608D01*
X156512938Y-95175608D01*
X156462000Y-95180625D01*
X156411062Y-95175608D01*
X156365077Y-95175608D01*
X156313863Y-95166034D01*
X156256960Y-95160430D01*
X156213732Y-95147317D01*
X156174525Y-95139988D01*
X156120221Y-95118950D01*
X156059800Y-95100622D01*
X156025275Y-95082168D01*
X155993767Y-95069962D01*
X155939027Y-95036068D01*
X155878096Y-95003500D01*
X155852491Y-94982486D01*
X155828951Y-94967911D01*
X155776788Y-94920358D01*
X155718831Y-94872794D01*
X155701656Y-94851867D01*
X155685698Y-94837319D01*
X155639367Y-94775967D01*
X155588125Y-94713529D01*
X155578216Y-94694991D01*
X155568877Y-94682624D01*
X155531717Y-94607997D01*
X155491003Y-94531825D01*
X155486660Y-94517509D01*
X155482471Y-94509096D01*
X155457721Y-94422110D01*
X155431195Y-94334665D01*
X155430323Y-94325817D01*
X155429422Y-94322649D01*
X155420044Y-94221458D01*
X155411000Y-94129625D01*
X155420044Y-94037798D01*
X155429422Y-93936600D01*
X155430323Y-93933430D01*
X155431195Y-93924585D01*
X155457716Y-93837154D01*
X155482471Y-93750153D01*
X155486661Y-93741737D01*
X155491003Y-93727425D01*
X155531710Y-93651266D01*
X155568877Y-93576625D01*
X155578218Y-93564254D01*
X155588125Y-93545721D01*
X155639357Y-93483293D01*
X155685698Y-93421930D01*
X155701660Y-93407378D01*
X155718831Y-93386456D01*
X155776777Y-93338900D01*
X155828951Y-93291338D01*
X155852496Y-93276759D01*
X155878096Y-93255750D01*
X155939015Y-93223188D01*
X155993767Y-93189287D01*
X156025282Y-93177077D01*
X156059800Y-93158628D01*
X156120209Y-93140302D01*
X156174525Y-93119261D01*
X156213739Y-93111930D01*
X156256960Y-93098820D01*
X156313860Y-93093215D01*
X156365077Y-93083642D01*
X156411062Y-93083642D01*
X156462000Y-93078625D01*
X156512938Y-93083642D01*
G37*
G36*
X175047983Y-89476936D02*
G01*
X175098180Y-89476936D01*
X175141524Y-89486149D01*
X175179659Y-89489905D01*
X175227566Y-89504437D01*
X175282424Y-89516098D01*
X175317530Y-89531728D01*
X175348566Y-89541143D01*
X175397884Y-89567504D01*
X175454500Y-89592711D01*
X175480822Y-89611835D01*
X175504232Y-89624348D01*
X175551988Y-89663540D01*
X175606887Y-89703427D01*
X175624711Y-89723223D01*
X175640675Y-89736324D01*
X175683572Y-89788594D01*
X175732924Y-89843405D01*
X175743292Y-89861363D01*
X175752651Y-89872767D01*
X175787273Y-89937542D01*
X175827104Y-90006530D01*
X175831685Y-90020630D01*
X175835856Y-90028433D01*
X175858852Y-90104242D01*
X175885311Y-90185672D01*
X175886242Y-90194532D01*
X175887094Y-90197340D01*
X175895384Y-90281513D01*
X175905000Y-90373000D01*
X175895383Y-90464494D01*
X175887094Y-90548659D01*
X175886242Y-90551466D01*
X175885311Y-90560328D01*
X175858848Y-90641771D01*
X175835856Y-90717566D01*
X175831686Y-90725366D01*
X175827104Y-90739470D01*
X175787266Y-90808470D01*
X175752651Y-90873232D01*
X175743294Y-90884633D01*
X175732924Y-90902595D01*
X175683563Y-90957415D01*
X175640675Y-91009675D01*
X175624714Y-91022773D01*
X175606887Y-91042573D01*
X175551977Y-91082467D01*
X175504232Y-91121651D01*
X175480827Y-91134161D01*
X175454500Y-91153289D01*
X175397873Y-91178500D01*
X175348566Y-91204856D01*
X175317537Y-91214268D01*
X175282424Y-91229902D01*
X175227555Y-91241564D01*
X175179659Y-91256094D01*
X175141532Y-91259849D01*
X175098180Y-91269064D01*
X175047973Y-91269064D01*
X175004000Y-91273395D01*
X174960027Y-91269064D01*
X174909820Y-91269064D01*
X174866467Y-91259849D01*
X174828340Y-91256094D01*
X174780441Y-91241563D01*
X174725576Y-91229902D01*
X174690464Y-91214269D01*
X174659433Y-91204856D01*
X174610120Y-91178498D01*
X174553500Y-91153289D01*
X174527175Y-91134163D01*
X174503767Y-91121651D01*
X174456013Y-91082460D01*
X174401113Y-91042573D01*
X174383287Y-91022776D01*
X174367324Y-91009675D01*
X174324425Y-90957402D01*
X174275076Y-90902595D01*
X174264708Y-90884637D01*
X174255348Y-90873232D01*
X174220719Y-90808447D01*
X174180896Y-90739470D01*
X174176315Y-90725371D01*
X174172143Y-90717566D01*
X174149136Y-90641725D01*
X174122689Y-90560328D01*
X174121758Y-90551471D01*
X174120905Y-90548659D01*
X174112600Y-90464342D01*
X174103000Y-90373000D01*
X174112599Y-90281664D01*
X174120905Y-90197340D01*
X174121758Y-90194527D01*
X174122689Y-90185672D01*
X174149132Y-90104288D01*
X174172143Y-90028433D01*
X174176315Y-90020626D01*
X174180896Y-90006530D01*
X174220712Y-89937565D01*
X174255348Y-89872767D01*
X174264710Y-89861359D01*
X174275076Y-89843405D01*
X174324416Y-89788607D01*
X174367324Y-89736324D01*
X174383291Y-89723219D01*
X174401113Y-89703427D01*
X174456002Y-89663546D01*
X174503767Y-89624348D01*
X174527180Y-89611833D01*
X174553500Y-89592711D01*
X174610109Y-89567506D01*
X174659433Y-89541143D01*
X174690471Y-89531727D01*
X174725576Y-89516098D01*
X174780430Y-89504438D01*
X174828340Y-89489905D01*
X174866476Y-89486148D01*
X174909820Y-89476936D01*
X174960016Y-89476936D01*
X175004000Y-89472604D01*
X175047983Y-89476936D01*
G37*
G36*
X156512938Y-89083642D02*
G01*
X156558923Y-89083642D01*
X156610139Y-89093215D01*
X156667040Y-89098820D01*
X156710261Y-89111931D01*
X156749474Y-89119261D01*
X156803785Y-89140301D01*
X156864200Y-89158628D01*
X156898720Y-89177079D01*
X156930232Y-89189287D01*
X156984977Y-89223184D01*
X157045904Y-89255750D01*
X157071506Y-89276761D01*
X157095048Y-89291338D01*
X157147212Y-89338892D01*
X157205169Y-89386456D01*
X157222342Y-89407382D01*
X157238301Y-89421930D01*
X157284629Y-89483278D01*
X157335875Y-89545721D01*
X157345783Y-89564259D01*
X157355122Y-89576625D01*
X157392274Y-89651238D01*
X157432997Y-89727425D01*
X157437340Y-89741742D01*
X157441528Y-89750153D01*
X157466267Y-89837101D01*
X157492805Y-89924585D01*
X157493676Y-89933436D01*
X157494577Y-89936600D01*
X157503938Y-90037627D01*
X157513000Y-90129625D01*
X157503938Y-90221630D01*
X157494577Y-90322649D01*
X157493676Y-90325812D01*
X157492805Y-90334665D01*
X157466262Y-90422163D01*
X157441528Y-90509096D01*
X157437341Y-90517504D01*
X157432997Y-90531825D01*
X157392267Y-90608024D01*
X157355122Y-90682624D01*
X157345785Y-90694987D01*
X157335875Y-90713529D01*
X157284620Y-90775982D01*
X157238301Y-90837319D01*
X157222345Y-90851863D01*
X157205169Y-90872794D01*
X157147201Y-90920366D01*
X157095048Y-90967911D01*
X157071511Y-90982484D01*
X157045904Y-91003500D01*
X156984965Y-91036072D01*
X156930232Y-91069962D01*
X156898726Y-91082167D01*
X156864200Y-91100622D01*
X156803773Y-91118952D01*
X156749474Y-91139988D01*
X156710268Y-91147316D01*
X156667040Y-91160430D01*
X156610136Y-91166034D01*
X156558923Y-91175608D01*
X156512938Y-91175608D01*
X156462000Y-91180625D01*
X156411062Y-91175608D01*
X156365077Y-91175608D01*
X156313863Y-91166034D01*
X156256960Y-91160430D01*
X156213732Y-91147317D01*
X156174525Y-91139988D01*
X156120221Y-91118950D01*
X156059800Y-91100622D01*
X156025275Y-91082168D01*
X155993767Y-91069962D01*
X155939027Y-91036068D01*
X155878096Y-91003500D01*
X155852491Y-90982486D01*
X155828951Y-90967911D01*
X155776788Y-90920358D01*
X155718831Y-90872794D01*
X155701656Y-90851867D01*
X155685698Y-90837319D01*
X155639367Y-90775967D01*
X155588125Y-90713529D01*
X155578216Y-90694991D01*
X155568877Y-90682624D01*
X155531717Y-90607997D01*
X155491003Y-90531825D01*
X155486660Y-90517509D01*
X155482471Y-90509096D01*
X155457721Y-90422110D01*
X155431195Y-90334665D01*
X155430323Y-90325817D01*
X155429422Y-90322649D01*
X155420044Y-90221458D01*
X155411000Y-90129625D01*
X155420044Y-90037798D01*
X155429422Y-89936600D01*
X155430323Y-89933430D01*
X155431195Y-89924585D01*
X155457716Y-89837154D01*
X155482471Y-89750153D01*
X155486661Y-89741737D01*
X155491003Y-89727425D01*
X155531710Y-89651266D01*
X155568877Y-89576625D01*
X155578218Y-89564254D01*
X155588125Y-89545721D01*
X155639357Y-89483293D01*
X155685698Y-89421930D01*
X155701660Y-89407378D01*
X155718831Y-89386456D01*
X155776777Y-89338900D01*
X155828951Y-89291338D01*
X155852496Y-89276759D01*
X155878096Y-89255750D01*
X155939015Y-89223188D01*
X155993767Y-89189287D01*
X156025282Y-89177077D01*
X156059800Y-89158628D01*
X156120209Y-89140302D01*
X156174525Y-89119261D01*
X156213739Y-89111930D01*
X156256960Y-89098820D01*
X156313860Y-89093215D01*
X156365077Y-89083642D01*
X156411062Y-89083642D01*
X156462000Y-89078625D01*
X156512938Y-89083642D01*
G37*
G36*
X175047983Y-86936936D02*
G01*
X175098180Y-86936936D01*
X175141524Y-86946149D01*
X175179659Y-86949905D01*
X175227566Y-86964437D01*
X175282424Y-86976098D01*
X175317530Y-86991728D01*
X175348566Y-87001143D01*
X175397884Y-87027504D01*
X175454500Y-87052711D01*
X175480822Y-87071835D01*
X175504232Y-87084348D01*
X175551988Y-87123540D01*
X175606887Y-87163427D01*
X175624711Y-87183223D01*
X175640675Y-87196324D01*
X175683572Y-87248594D01*
X175732924Y-87303405D01*
X175743292Y-87321363D01*
X175752651Y-87332767D01*
X175787273Y-87397542D01*
X175827104Y-87466530D01*
X175831685Y-87480630D01*
X175835856Y-87488433D01*
X175858852Y-87564242D01*
X175885311Y-87645672D01*
X175886242Y-87654532D01*
X175887094Y-87657340D01*
X175895384Y-87741513D01*
X175905000Y-87833000D01*
X175895383Y-87924494D01*
X175887094Y-88008659D01*
X175886242Y-88011466D01*
X175885311Y-88020328D01*
X175858848Y-88101771D01*
X175835856Y-88177566D01*
X175831686Y-88185366D01*
X175827104Y-88199470D01*
X175787266Y-88268470D01*
X175752651Y-88333232D01*
X175743294Y-88344633D01*
X175732924Y-88362595D01*
X175683563Y-88417415D01*
X175640675Y-88469675D01*
X175624714Y-88482773D01*
X175606887Y-88502573D01*
X175551977Y-88542467D01*
X175504232Y-88581651D01*
X175480827Y-88594161D01*
X175454500Y-88613289D01*
X175397873Y-88638500D01*
X175348566Y-88664856D01*
X175317537Y-88674268D01*
X175282424Y-88689902D01*
X175227555Y-88701564D01*
X175179659Y-88716094D01*
X175141532Y-88719849D01*
X175098180Y-88729064D01*
X175047973Y-88729064D01*
X175004000Y-88733395D01*
X174960027Y-88729064D01*
X174909820Y-88729064D01*
X174866467Y-88719849D01*
X174828340Y-88716094D01*
X174780441Y-88701563D01*
X174725576Y-88689902D01*
X174690464Y-88674269D01*
X174659433Y-88664856D01*
X174610120Y-88638498D01*
X174553500Y-88613289D01*
X174527175Y-88594163D01*
X174503767Y-88581651D01*
X174456013Y-88542460D01*
X174401113Y-88502573D01*
X174383287Y-88482776D01*
X174367324Y-88469675D01*
X174324425Y-88417402D01*
X174275076Y-88362595D01*
X174264708Y-88344637D01*
X174255348Y-88333232D01*
X174220719Y-88268447D01*
X174180896Y-88199470D01*
X174176315Y-88185371D01*
X174172143Y-88177566D01*
X174149136Y-88101725D01*
X174122689Y-88020328D01*
X174121758Y-88011471D01*
X174120905Y-88008659D01*
X174112600Y-87924342D01*
X174103000Y-87833000D01*
X174112599Y-87741664D01*
X174120905Y-87657340D01*
X174121758Y-87654527D01*
X174122689Y-87645672D01*
X174149132Y-87564288D01*
X174172143Y-87488433D01*
X174176315Y-87480626D01*
X174180896Y-87466530D01*
X174220712Y-87397565D01*
X174255348Y-87332767D01*
X174264710Y-87321359D01*
X174275076Y-87303405D01*
X174324416Y-87248607D01*
X174367324Y-87196324D01*
X174383291Y-87183219D01*
X174401113Y-87163427D01*
X174456002Y-87123546D01*
X174503767Y-87084348D01*
X174527180Y-87071833D01*
X174553500Y-87052711D01*
X174610109Y-87027506D01*
X174659433Y-87001143D01*
X174690471Y-86991727D01*
X174725576Y-86976098D01*
X174780430Y-86964438D01*
X174828340Y-86949905D01*
X174866476Y-86946148D01*
X174909820Y-86936936D01*
X174960016Y-86936936D01*
X175004000Y-86932604D01*
X175047983Y-86936936D01*
G37*
G36*
X156512938Y-85083642D02*
G01*
X156558923Y-85083642D01*
X156610139Y-85093215D01*
X156667040Y-85098820D01*
X156710261Y-85111931D01*
X156749474Y-85119261D01*
X156803785Y-85140301D01*
X156864200Y-85158628D01*
X156898720Y-85177079D01*
X156930232Y-85189287D01*
X156984977Y-85223184D01*
X157045904Y-85255750D01*
X157071506Y-85276761D01*
X157095048Y-85291338D01*
X157147212Y-85338892D01*
X157205169Y-85386456D01*
X157222342Y-85407382D01*
X157238301Y-85421930D01*
X157284629Y-85483278D01*
X157335875Y-85545721D01*
X157345783Y-85564259D01*
X157355122Y-85576625D01*
X157392274Y-85651238D01*
X157432997Y-85727425D01*
X157437340Y-85741742D01*
X157441528Y-85750153D01*
X157466267Y-85837101D01*
X157492805Y-85924585D01*
X157493676Y-85933436D01*
X157494577Y-85936600D01*
X157503938Y-86037627D01*
X157513000Y-86129625D01*
X157503938Y-86221630D01*
X157494577Y-86322649D01*
X157493676Y-86325812D01*
X157492805Y-86334665D01*
X157466262Y-86422163D01*
X157441528Y-86509096D01*
X157437341Y-86517504D01*
X157432997Y-86531825D01*
X157392267Y-86608024D01*
X157355122Y-86682624D01*
X157345785Y-86694987D01*
X157335875Y-86713529D01*
X157284620Y-86775982D01*
X157238301Y-86837319D01*
X157222345Y-86851863D01*
X157205169Y-86872794D01*
X157147201Y-86920366D01*
X157095048Y-86967911D01*
X157071511Y-86982484D01*
X157045904Y-87003500D01*
X156984965Y-87036072D01*
X156930232Y-87069962D01*
X156898726Y-87082167D01*
X156864200Y-87100622D01*
X156803773Y-87118952D01*
X156749474Y-87139988D01*
X156710268Y-87147316D01*
X156667040Y-87160430D01*
X156610136Y-87166034D01*
X156558923Y-87175608D01*
X156512938Y-87175608D01*
X156462000Y-87180625D01*
X156411062Y-87175608D01*
X156365077Y-87175608D01*
X156313863Y-87166034D01*
X156256960Y-87160430D01*
X156213732Y-87147317D01*
X156174525Y-87139988D01*
X156120221Y-87118950D01*
X156059800Y-87100622D01*
X156025275Y-87082168D01*
X155993767Y-87069962D01*
X155939027Y-87036068D01*
X155878096Y-87003500D01*
X155852491Y-86982486D01*
X155828951Y-86967911D01*
X155776788Y-86920358D01*
X155718831Y-86872794D01*
X155701656Y-86851867D01*
X155685698Y-86837319D01*
X155639367Y-86775967D01*
X155588125Y-86713529D01*
X155578216Y-86694991D01*
X155568877Y-86682624D01*
X155531717Y-86607997D01*
X155491003Y-86531825D01*
X155486660Y-86517509D01*
X155482471Y-86509096D01*
X155457721Y-86422110D01*
X155431195Y-86334665D01*
X155430323Y-86325817D01*
X155429422Y-86322649D01*
X155420044Y-86221458D01*
X155411000Y-86129625D01*
X155420044Y-86037798D01*
X155429422Y-85936600D01*
X155430323Y-85933430D01*
X155431195Y-85924585D01*
X155457716Y-85837154D01*
X155482471Y-85750153D01*
X155486661Y-85741737D01*
X155491003Y-85727425D01*
X155531710Y-85651266D01*
X155568877Y-85576625D01*
X155578218Y-85564254D01*
X155588125Y-85545721D01*
X155639357Y-85483293D01*
X155685698Y-85421930D01*
X155701660Y-85407378D01*
X155718831Y-85386456D01*
X155776777Y-85338900D01*
X155828951Y-85291338D01*
X155852496Y-85276759D01*
X155878096Y-85255750D01*
X155939015Y-85223188D01*
X155993767Y-85189287D01*
X156025282Y-85177077D01*
X156059800Y-85158628D01*
X156120209Y-85140302D01*
X156174525Y-85119261D01*
X156213739Y-85111930D01*
X156256960Y-85098820D01*
X156313860Y-85093215D01*
X156365077Y-85083642D01*
X156411062Y-85083642D01*
X156462000Y-85078625D01*
X156512938Y-85083642D01*
G37*
G36*
X175047983Y-84396936D02*
G01*
X175098180Y-84396936D01*
X175141524Y-84406149D01*
X175179659Y-84409905D01*
X175227566Y-84424437D01*
X175282424Y-84436098D01*
X175317530Y-84451728D01*
X175348566Y-84461143D01*
X175397884Y-84487504D01*
X175454500Y-84512711D01*
X175480822Y-84531835D01*
X175504232Y-84544348D01*
X175551988Y-84583540D01*
X175606887Y-84623427D01*
X175624711Y-84643223D01*
X175640675Y-84656324D01*
X175683572Y-84708594D01*
X175732924Y-84763405D01*
X175743292Y-84781363D01*
X175752651Y-84792767D01*
X175787273Y-84857542D01*
X175827104Y-84926530D01*
X175831685Y-84940630D01*
X175835856Y-84948433D01*
X175858852Y-85024242D01*
X175885311Y-85105672D01*
X175886242Y-85114532D01*
X175887094Y-85117340D01*
X175895384Y-85201513D01*
X175905000Y-85293000D01*
X175895383Y-85384494D01*
X175887094Y-85468659D01*
X175886242Y-85471466D01*
X175885311Y-85480328D01*
X175858848Y-85561771D01*
X175835856Y-85637566D01*
X175831686Y-85645366D01*
X175827104Y-85659470D01*
X175787266Y-85728470D01*
X175752651Y-85793232D01*
X175743294Y-85804633D01*
X175732924Y-85822595D01*
X175683563Y-85877415D01*
X175640675Y-85929675D01*
X175624714Y-85942773D01*
X175606887Y-85962573D01*
X175551977Y-86002467D01*
X175504232Y-86041651D01*
X175480827Y-86054161D01*
X175454500Y-86073289D01*
X175397873Y-86098500D01*
X175348566Y-86124856D01*
X175317537Y-86134268D01*
X175282424Y-86149902D01*
X175227555Y-86161564D01*
X175179659Y-86176094D01*
X175141532Y-86179849D01*
X175098180Y-86189064D01*
X175047973Y-86189064D01*
X175004000Y-86193395D01*
X174960027Y-86189064D01*
X174909820Y-86189064D01*
X174866467Y-86179849D01*
X174828340Y-86176094D01*
X174780441Y-86161563D01*
X174725576Y-86149902D01*
X174690464Y-86134269D01*
X174659433Y-86124856D01*
X174610120Y-86098498D01*
X174553500Y-86073289D01*
X174527175Y-86054163D01*
X174503767Y-86041651D01*
X174456013Y-86002460D01*
X174401113Y-85962573D01*
X174383287Y-85942776D01*
X174367324Y-85929675D01*
X174324425Y-85877402D01*
X174275076Y-85822595D01*
X174264708Y-85804637D01*
X174255348Y-85793232D01*
X174220719Y-85728447D01*
X174180896Y-85659470D01*
X174176315Y-85645371D01*
X174172143Y-85637566D01*
X174149136Y-85561725D01*
X174122689Y-85480328D01*
X174121758Y-85471471D01*
X174120905Y-85468659D01*
X174112600Y-85384342D01*
X174103000Y-85293000D01*
X174112599Y-85201664D01*
X174120905Y-85117340D01*
X174121758Y-85114527D01*
X174122689Y-85105672D01*
X174149132Y-85024288D01*
X174172143Y-84948433D01*
X174176315Y-84940626D01*
X174180896Y-84926530D01*
X174220712Y-84857565D01*
X174255348Y-84792767D01*
X174264710Y-84781359D01*
X174275076Y-84763405D01*
X174324416Y-84708607D01*
X174367324Y-84656324D01*
X174383291Y-84643219D01*
X174401113Y-84623427D01*
X174456002Y-84583546D01*
X174503767Y-84544348D01*
X174527180Y-84531833D01*
X174553500Y-84512711D01*
X174610109Y-84487506D01*
X174659433Y-84461143D01*
X174690471Y-84451727D01*
X174725576Y-84436098D01*
X174780430Y-84424438D01*
X174828340Y-84409905D01*
X174866476Y-84406148D01*
X174909820Y-84396936D01*
X174960016Y-84396936D01*
X175004000Y-84392604D01*
X175047983Y-84396936D01*
G37*
G36*
X175047983Y-81856936D02*
G01*
X175098180Y-81856936D01*
X175141524Y-81866149D01*
X175179659Y-81869905D01*
X175227566Y-81884437D01*
X175282424Y-81896098D01*
X175317530Y-81911728D01*
X175348566Y-81921143D01*
X175397884Y-81947504D01*
X175454500Y-81972711D01*
X175480822Y-81991835D01*
X175504232Y-82004348D01*
X175551988Y-82043540D01*
X175606887Y-82083427D01*
X175624711Y-82103223D01*
X175640675Y-82116324D01*
X175683572Y-82168594D01*
X175732924Y-82223405D01*
X175743292Y-82241363D01*
X175752651Y-82252767D01*
X175787273Y-82317542D01*
X175827104Y-82386530D01*
X175831685Y-82400630D01*
X175835856Y-82408433D01*
X175858852Y-82484242D01*
X175885311Y-82565672D01*
X175886242Y-82574532D01*
X175887094Y-82577340D01*
X175895384Y-82661513D01*
X175905000Y-82753000D01*
X175895383Y-82844494D01*
X175887094Y-82928659D01*
X175886242Y-82931466D01*
X175885311Y-82940328D01*
X175858848Y-83021771D01*
X175835856Y-83097566D01*
X175831686Y-83105366D01*
X175827104Y-83119470D01*
X175787266Y-83188470D01*
X175752651Y-83253232D01*
X175743294Y-83264633D01*
X175732924Y-83282595D01*
X175683563Y-83337415D01*
X175640675Y-83389675D01*
X175624714Y-83402773D01*
X175606887Y-83422573D01*
X175551977Y-83462467D01*
X175504232Y-83501651D01*
X175480827Y-83514161D01*
X175454500Y-83533289D01*
X175397873Y-83558500D01*
X175348566Y-83584856D01*
X175317537Y-83594268D01*
X175282424Y-83609902D01*
X175227555Y-83621564D01*
X175179659Y-83636094D01*
X175141532Y-83639849D01*
X175098180Y-83649064D01*
X175047973Y-83649064D01*
X175004000Y-83653395D01*
X174960027Y-83649064D01*
X174909820Y-83649064D01*
X174866467Y-83639849D01*
X174828340Y-83636094D01*
X174780441Y-83621563D01*
X174725576Y-83609902D01*
X174690464Y-83594269D01*
X174659433Y-83584856D01*
X174610120Y-83558498D01*
X174553500Y-83533289D01*
X174527175Y-83514163D01*
X174503767Y-83501651D01*
X174456013Y-83462460D01*
X174401113Y-83422573D01*
X174383287Y-83402776D01*
X174367324Y-83389675D01*
X174324425Y-83337402D01*
X174275076Y-83282595D01*
X174264708Y-83264637D01*
X174255348Y-83253232D01*
X174220719Y-83188447D01*
X174180896Y-83119470D01*
X174176315Y-83105371D01*
X174172143Y-83097566D01*
X174149136Y-83021725D01*
X174122689Y-82940328D01*
X174121758Y-82931471D01*
X174120905Y-82928659D01*
X174112600Y-82844342D01*
X174103000Y-82753000D01*
X174112599Y-82661664D01*
X174120905Y-82577340D01*
X174121758Y-82574527D01*
X174122689Y-82565672D01*
X174149132Y-82484288D01*
X174172143Y-82408433D01*
X174176315Y-82400626D01*
X174180896Y-82386530D01*
X174220712Y-82317565D01*
X174255348Y-82252767D01*
X174264710Y-82241359D01*
X174275076Y-82223405D01*
X174324416Y-82168607D01*
X174367324Y-82116324D01*
X174383291Y-82103219D01*
X174401113Y-82083427D01*
X174456002Y-82043546D01*
X174503767Y-82004348D01*
X174527180Y-81991833D01*
X174553500Y-81972711D01*
X174610109Y-81947506D01*
X174659433Y-81921143D01*
X174690471Y-81911727D01*
X174725576Y-81896098D01*
X174780430Y-81884438D01*
X174828340Y-81869905D01*
X174866476Y-81866148D01*
X174909820Y-81856936D01*
X174960016Y-81856936D01*
X175004000Y-81852604D01*
X175047983Y-81856936D01*
G37*
G36*
X151801288Y-79459899D02*
G01*
X152070838Y-79535423D01*
X152327593Y-79646947D01*
X152566771Y-79792395D01*
X152783916Y-79969055D01*
X152974984Y-80173639D01*
X153136414Y-80402333D01*
X153265200Y-80650879D01*
X153358943Y-80914647D01*
X153415897Y-81188722D01*
X153435000Y-81468000D01*
X153415897Y-81747278D01*
X153358943Y-82021353D01*
X153265200Y-82285121D01*
X153136414Y-82533667D01*
X152974984Y-82762361D01*
X152783916Y-82966945D01*
X152566771Y-83143605D01*
X152327593Y-83289053D01*
X152070838Y-83400577D01*
X151801288Y-83476101D01*
X151523965Y-83514219D01*
X151244035Y-83514219D01*
X150966712Y-83476101D01*
X150697162Y-83400577D01*
X150440407Y-83289053D01*
X150201229Y-83143605D01*
X149984084Y-82966945D01*
X149793016Y-82762361D01*
X149631586Y-82533667D01*
X149502800Y-82285121D01*
X149409057Y-82021353D01*
X149352103Y-81747278D01*
X149333000Y-81468000D01*
X149352103Y-81188722D01*
X149409057Y-80914647D01*
X149502800Y-80650879D01*
X149631586Y-80402333D01*
X149793016Y-80173639D01*
X149984084Y-79969055D01*
X150201229Y-79792395D01*
X150440407Y-79646947D01*
X150697162Y-79535423D01*
X150966712Y-79459899D01*
X151244035Y-79421781D01*
X151523965Y-79421781D01*
X151801288Y-79459899D01*
G37*
G36*
X156512938Y-81083642D02*
G01*
X156558923Y-81083642D01*
X156610139Y-81093215D01*
X156667040Y-81098820D01*
X156710261Y-81111931D01*
X156749474Y-81119261D01*
X156803785Y-81140301D01*
X156864200Y-81158628D01*
X156898720Y-81177079D01*
X156930232Y-81189287D01*
X156984977Y-81223184D01*
X157045904Y-81255750D01*
X157071506Y-81276761D01*
X157095048Y-81291338D01*
X157147212Y-81338892D01*
X157205169Y-81386456D01*
X157222342Y-81407382D01*
X157238301Y-81421930D01*
X157284629Y-81483278D01*
X157335875Y-81545721D01*
X157345783Y-81564259D01*
X157355122Y-81576625D01*
X157392274Y-81651238D01*
X157432997Y-81727425D01*
X157437340Y-81741742D01*
X157441528Y-81750153D01*
X157466267Y-81837101D01*
X157492805Y-81924585D01*
X157493676Y-81933436D01*
X157494577Y-81936600D01*
X157503938Y-82037627D01*
X157513000Y-82129625D01*
X157503938Y-82221630D01*
X157494577Y-82322649D01*
X157493676Y-82325812D01*
X157492805Y-82334665D01*
X157466262Y-82422163D01*
X157441528Y-82509096D01*
X157437341Y-82517504D01*
X157432997Y-82531825D01*
X157392267Y-82608024D01*
X157355122Y-82682624D01*
X157345785Y-82694987D01*
X157335875Y-82713529D01*
X157284620Y-82775982D01*
X157238301Y-82837319D01*
X157222345Y-82851863D01*
X157205169Y-82872794D01*
X157147201Y-82920366D01*
X157095048Y-82967911D01*
X157071511Y-82982484D01*
X157045904Y-83003500D01*
X156984965Y-83036072D01*
X156930232Y-83069962D01*
X156898726Y-83082167D01*
X156864200Y-83100622D01*
X156803773Y-83118952D01*
X156749474Y-83139988D01*
X156710268Y-83147316D01*
X156667040Y-83160430D01*
X156610136Y-83166034D01*
X156558923Y-83175608D01*
X156512938Y-83175608D01*
X156462000Y-83180625D01*
X156411062Y-83175608D01*
X156365077Y-83175608D01*
X156313863Y-83166034D01*
X156256960Y-83160430D01*
X156213732Y-83147317D01*
X156174525Y-83139988D01*
X156120221Y-83118950D01*
X156059800Y-83100622D01*
X156025275Y-83082168D01*
X155993767Y-83069962D01*
X155939027Y-83036068D01*
X155878096Y-83003500D01*
X155852491Y-82982486D01*
X155828951Y-82967911D01*
X155776788Y-82920358D01*
X155718831Y-82872794D01*
X155701656Y-82851867D01*
X155685698Y-82837319D01*
X155639367Y-82775967D01*
X155588125Y-82713529D01*
X155578216Y-82694991D01*
X155568877Y-82682624D01*
X155531717Y-82607997D01*
X155491003Y-82531825D01*
X155486660Y-82517509D01*
X155482471Y-82509096D01*
X155457721Y-82422110D01*
X155431195Y-82334665D01*
X155430323Y-82325817D01*
X155429422Y-82322649D01*
X155420044Y-82221458D01*
X155411000Y-82129625D01*
X155420044Y-82037798D01*
X155429422Y-81936600D01*
X155430323Y-81933430D01*
X155431195Y-81924585D01*
X155457716Y-81837154D01*
X155482471Y-81750153D01*
X155486661Y-81741737D01*
X155491003Y-81727425D01*
X155531710Y-81651266D01*
X155568877Y-81576625D01*
X155578218Y-81564254D01*
X155588125Y-81545721D01*
X155639357Y-81483293D01*
X155685698Y-81421930D01*
X155701660Y-81407378D01*
X155718831Y-81386456D01*
X155776777Y-81338900D01*
X155828951Y-81291338D01*
X155852496Y-81276759D01*
X155878096Y-81255750D01*
X155939015Y-81223188D01*
X155993767Y-81189287D01*
X156025282Y-81177077D01*
X156059800Y-81158628D01*
X156120209Y-81140302D01*
X156174525Y-81119261D01*
X156213739Y-81111930D01*
X156256960Y-81098820D01*
X156313860Y-81093215D01*
X156365077Y-81083642D01*
X156411062Y-81083642D01*
X156462000Y-81078625D01*
X156512938Y-81083642D01*
G37*
G36*
X175047983Y-79316936D02*
G01*
X175098180Y-79316936D01*
X175141524Y-79326149D01*
X175179659Y-79329905D01*
X175227566Y-79344437D01*
X175282424Y-79356098D01*
X175317530Y-79371728D01*
X175348566Y-79381143D01*
X175397884Y-79407504D01*
X175454500Y-79432711D01*
X175480822Y-79451835D01*
X175504232Y-79464348D01*
X175551988Y-79503540D01*
X175606887Y-79543427D01*
X175624711Y-79563223D01*
X175640675Y-79576324D01*
X175683572Y-79628594D01*
X175732924Y-79683405D01*
X175743292Y-79701363D01*
X175752651Y-79712767D01*
X175787273Y-79777542D01*
X175827104Y-79846530D01*
X175831685Y-79860630D01*
X175835856Y-79868433D01*
X175858852Y-79944242D01*
X175885311Y-80025672D01*
X175886242Y-80034532D01*
X175887094Y-80037340D01*
X175895384Y-80121513D01*
X175905000Y-80213000D01*
X175895383Y-80304494D01*
X175887094Y-80388659D01*
X175886242Y-80391466D01*
X175885311Y-80400328D01*
X175858848Y-80481771D01*
X175835856Y-80557566D01*
X175831686Y-80565366D01*
X175827104Y-80579470D01*
X175787266Y-80648470D01*
X175752651Y-80713232D01*
X175743294Y-80724633D01*
X175732924Y-80742595D01*
X175683563Y-80797415D01*
X175640675Y-80849675D01*
X175624714Y-80862773D01*
X175606887Y-80882573D01*
X175551977Y-80922467D01*
X175504232Y-80961651D01*
X175480827Y-80974161D01*
X175454500Y-80993289D01*
X175397873Y-81018500D01*
X175348566Y-81044856D01*
X175317537Y-81054268D01*
X175282424Y-81069902D01*
X175227555Y-81081564D01*
X175179659Y-81096094D01*
X175141532Y-81099849D01*
X175098180Y-81109064D01*
X175047973Y-81109064D01*
X175004000Y-81113395D01*
X174960027Y-81109064D01*
X174909820Y-81109064D01*
X174866467Y-81099849D01*
X174828340Y-81096094D01*
X174780441Y-81081563D01*
X174725576Y-81069902D01*
X174690464Y-81054269D01*
X174659433Y-81044856D01*
X174610120Y-81018498D01*
X174553500Y-80993289D01*
X174527175Y-80974163D01*
X174503767Y-80961651D01*
X174456013Y-80922460D01*
X174401113Y-80882573D01*
X174383287Y-80862776D01*
X174367324Y-80849675D01*
X174324425Y-80797402D01*
X174275076Y-80742595D01*
X174264708Y-80724637D01*
X174255348Y-80713232D01*
X174220719Y-80648447D01*
X174180896Y-80579470D01*
X174176315Y-80565371D01*
X174172143Y-80557566D01*
X174149136Y-80481725D01*
X174122689Y-80400328D01*
X174121758Y-80391471D01*
X174120905Y-80388659D01*
X174112600Y-80304342D01*
X174103000Y-80213000D01*
X174112599Y-80121664D01*
X174120905Y-80037340D01*
X174121758Y-80034527D01*
X174122689Y-80025672D01*
X174149132Y-79944288D01*
X174172143Y-79868433D01*
X174176315Y-79860626D01*
X174180896Y-79846530D01*
X174220712Y-79777565D01*
X174255348Y-79712767D01*
X174264710Y-79701359D01*
X174275076Y-79683405D01*
X174324416Y-79628607D01*
X174367324Y-79576324D01*
X174383291Y-79563219D01*
X174401113Y-79543427D01*
X174456002Y-79503546D01*
X174503767Y-79464348D01*
X174527180Y-79451833D01*
X174553500Y-79432711D01*
X174610109Y-79407506D01*
X174659433Y-79381143D01*
X174690471Y-79371727D01*
X174725576Y-79356098D01*
X174780430Y-79344438D01*
X174828340Y-79329905D01*
X174866476Y-79326148D01*
X174909820Y-79316936D01*
X174960016Y-79316936D01*
X175004000Y-79312604D01*
X175047983Y-79316936D01*
G37*
G36*
X156512938Y-77083642D02*
G01*
X156558923Y-77083642D01*
X156610139Y-77093215D01*
X156667040Y-77098820D01*
X156710261Y-77111931D01*
X156749474Y-77119261D01*
X156803785Y-77140301D01*
X156864200Y-77158628D01*
X156898720Y-77177079D01*
X156930232Y-77189287D01*
X156984977Y-77223184D01*
X157045904Y-77255750D01*
X157071506Y-77276761D01*
X157095048Y-77291338D01*
X157147212Y-77338892D01*
X157205169Y-77386456D01*
X157222342Y-77407382D01*
X157238301Y-77421930D01*
X157284629Y-77483278D01*
X157335875Y-77545721D01*
X157345783Y-77564259D01*
X157355122Y-77576625D01*
X157392274Y-77651238D01*
X157432997Y-77727425D01*
X157437340Y-77741742D01*
X157441528Y-77750153D01*
X157466267Y-77837101D01*
X157492805Y-77924585D01*
X157493676Y-77933436D01*
X157494577Y-77936600D01*
X157503938Y-78037627D01*
X157513000Y-78129625D01*
X157503938Y-78221630D01*
X157494577Y-78322649D01*
X157493676Y-78325812D01*
X157492805Y-78334665D01*
X157466262Y-78422163D01*
X157441528Y-78509096D01*
X157437341Y-78517504D01*
X157432997Y-78531825D01*
X157392267Y-78608024D01*
X157355122Y-78682624D01*
X157345785Y-78694987D01*
X157335875Y-78713529D01*
X157284620Y-78775982D01*
X157238301Y-78837319D01*
X157222345Y-78851863D01*
X157205169Y-78872794D01*
X157147201Y-78920366D01*
X157095048Y-78967911D01*
X157071511Y-78982484D01*
X157045904Y-79003500D01*
X156984965Y-79036072D01*
X156930232Y-79069962D01*
X156898726Y-79082167D01*
X156864200Y-79100622D01*
X156803773Y-79118952D01*
X156749474Y-79139988D01*
X156710268Y-79147316D01*
X156667040Y-79160430D01*
X156610136Y-79166034D01*
X156558923Y-79175608D01*
X156512938Y-79175608D01*
X156462000Y-79180625D01*
X156411062Y-79175608D01*
X156365077Y-79175608D01*
X156313863Y-79166034D01*
X156256960Y-79160430D01*
X156213732Y-79147317D01*
X156174525Y-79139988D01*
X156120221Y-79118950D01*
X156059800Y-79100622D01*
X156025275Y-79082168D01*
X155993767Y-79069962D01*
X155939027Y-79036068D01*
X155878096Y-79003500D01*
X155852491Y-78982486D01*
X155828951Y-78967911D01*
X155776788Y-78920358D01*
X155718831Y-78872794D01*
X155701656Y-78851867D01*
X155685698Y-78837319D01*
X155639367Y-78775967D01*
X155588125Y-78713529D01*
X155578216Y-78694991D01*
X155568877Y-78682624D01*
X155531717Y-78607997D01*
X155491003Y-78531825D01*
X155486660Y-78517509D01*
X155482471Y-78509096D01*
X155457721Y-78422110D01*
X155431195Y-78334665D01*
X155430323Y-78325817D01*
X155429422Y-78322649D01*
X155420044Y-78221458D01*
X155411000Y-78129625D01*
X155420044Y-78037798D01*
X155429422Y-77936600D01*
X155430323Y-77933430D01*
X155431195Y-77924585D01*
X155457716Y-77837154D01*
X155482471Y-77750153D01*
X155486661Y-77741737D01*
X155491003Y-77727425D01*
X155531710Y-77651266D01*
X155568877Y-77576625D01*
X155578218Y-77564254D01*
X155588125Y-77545721D01*
X155639357Y-77483293D01*
X155685698Y-77421930D01*
X155701660Y-77407378D01*
X155718831Y-77386456D01*
X155776777Y-77338900D01*
X155828951Y-77291338D01*
X155852496Y-77276759D01*
X155878096Y-77255750D01*
X155939015Y-77223188D01*
X155993767Y-77189287D01*
X156025282Y-77177077D01*
X156059800Y-77158628D01*
X156120209Y-77140302D01*
X156174525Y-77119261D01*
X156213739Y-77111930D01*
X156256960Y-77098820D01*
X156313860Y-77093215D01*
X156365077Y-77083642D01*
X156411062Y-77083642D01*
X156462000Y-77078625D01*
X156512938Y-77083642D01*
G37*
G36*
X175047983Y-76776936D02*
G01*
X175098180Y-76776936D01*
X175141524Y-76786149D01*
X175179659Y-76789905D01*
X175227566Y-76804437D01*
X175282424Y-76816098D01*
X175317530Y-76831728D01*
X175348566Y-76841143D01*
X175397884Y-76867504D01*
X175454500Y-76892711D01*
X175480822Y-76911835D01*
X175504232Y-76924348D01*
X175551988Y-76963540D01*
X175606887Y-77003427D01*
X175624711Y-77023223D01*
X175640675Y-77036324D01*
X175683572Y-77088594D01*
X175732924Y-77143405D01*
X175743292Y-77161363D01*
X175752651Y-77172767D01*
X175787273Y-77237542D01*
X175827104Y-77306530D01*
X175831685Y-77320630D01*
X175835856Y-77328433D01*
X175858852Y-77404242D01*
X175885311Y-77485672D01*
X175886242Y-77494532D01*
X175887094Y-77497340D01*
X175895384Y-77581513D01*
X175905000Y-77673000D01*
X175895383Y-77764494D01*
X175887094Y-77848659D01*
X175886242Y-77851466D01*
X175885311Y-77860328D01*
X175858848Y-77941771D01*
X175835856Y-78017566D01*
X175831686Y-78025366D01*
X175827104Y-78039470D01*
X175787266Y-78108470D01*
X175752651Y-78173232D01*
X175743294Y-78184633D01*
X175732924Y-78202595D01*
X175683563Y-78257415D01*
X175640675Y-78309675D01*
X175624714Y-78322773D01*
X175606887Y-78342573D01*
X175551977Y-78382467D01*
X175504232Y-78421651D01*
X175480827Y-78434161D01*
X175454500Y-78453289D01*
X175397873Y-78478500D01*
X175348566Y-78504856D01*
X175317537Y-78514268D01*
X175282424Y-78529902D01*
X175227555Y-78541564D01*
X175179659Y-78556094D01*
X175141532Y-78559849D01*
X175098180Y-78569064D01*
X175047973Y-78569064D01*
X175004000Y-78573395D01*
X174960027Y-78569064D01*
X174909820Y-78569064D01*
X174866467Y-78559849D01*
X174828340Y-78556094D01*
X174780441Y-78541563D01*
X174725576Y-78529902D01*
X174690464Y-78514269D01*
X174659433Y-78504856D01*
X174610120Y-78478498D01*
X174553500Y-78453289D01*
X174527175Y-78434163D01*
X174503767Y-78421651D01*
X174456013Y-78382460D01*
X174401113Y-78342573D01*
X174383287Y-78322776D01*
X174367324Y-78309675D01*
X174324425Y-78257402D01*
X174275076Y-78202595D01*
X174264708Y-78184637D01*
X174255348Y-78173232D01*
X174220719Y-78108447D01*
X174180896Y-78039470D01*
X174176315Y-78025371D01*
X174172143Y-78017566D01*
X174149136Y-77941725D01*
X174122689Y-77860328D01*
X174121758Y-77851471D01*
X174120905Y-77848659D01*
X174112600Y-77764342D01*
X174103000Y-77673000D01*
X174112599Y-77581664D01*
X174120905Y-77497340D01*
X174121758Y-77494527D01*
X174122689Y-77485672D01*
X174149132Y-77404288D01*
X174172143Y-77328433D01*
X174176315Y-77320626D01*
X174180896Y-77306530D01*
X174220712Y-77237565D01*
X174255348Y-77172767D01*
X174264710Y-77161359D01*
X174275076Y-77143405D01*
X174324416Y-77088607D01*
X174367324Y-77036324D01*
X174383291Y-77023219D01*
X174401113Y-77003427D01*
X174456002Y-76963546D01*
X174503767Y-76924348D01*
X174527180Y-76911833D01*
X174553500Y-76892711D01*
X174610109Y-76867506D01*
X174659433Y-76841143D01*
X174690471Y-76831727D01*
X174725576Y-76816098D01*
X174780430Y-76804438D01*
X174828340Y-76789905D01*
X174866476Y-76786148D01*
X174909820Y-76776936D01*
X174960016Y-76776936D01*
X175004000Y-76772604D01*
X175047983Y-76776936D01*
G37*
G36*
X175047983Y-74236936D02*
G01*
X175098180Y-74236936D01*
X175141524Y-74246149D01*
X175179659Y-74249905D01*
X175227566Y-74264437D01*
X175282424Y-74276098D01*
X175317530Y-74291728D01*
X175348566Y-74301143D01*
X175397884Y-74327504D01*
X175454500Y-74352711D01*
X175480822Y-74371835D01*
X175504232Y-74384348D01*
X175551988Y-74423540D01*
X175606887Y-74463427D01*
X175624711Y-74483223D01*
X175640675Y-74496324D01*
X175683572Y-74548594D01*
X175732924Y-74603405D01*
X175743292Y-74621363D01*
X175752651Y-74632767D01*
X175787273Y-74697542D01*
X175827104Y-74766530D01*
X175831685Y-74780630D01*
X175835856Y-74788433D01*
X175858852Y-74864242D01*
X175885311Y-74945672D01*
X175886242Y-74954532D01*
X175887094Y-74957340D01*
X175895384Y-75041513D01*
X175905000Y-75133000D01*
X175895383Y-75224494D01*
X175887094Y-75308659D01*
X175886242Y-75311466D01*
X175885311Y-75320328D01*
X175858848Y-75401771D01*
X175835856Y-75477566D01*
X175831686Y-75485366D01*
X175827104Y-75499470D01*
X175787266Y-75568470D01*
X175752651Y-75633232D01*
X175743294Y-75644633D01*
X175732924Y-75662595D01*
X175683563Y-75717415D01*
X175640675Y-75769675D01*
X175624714Y-75782773D01*
X175606887Y-75802573D01*
X175551977Y-75842467D01*
X175504232Y-75881651D01*
X175480827Y-75894161D01*
X175454500Y-75913289D01*
X175397873Y-75938500D01*
X175348566Y-75964856D01*
X175317537Y-75974268D01*
X175282424Y-75989902D01*
X175227555Y-76001564D01*
X175179659Y-76016094D01*
X175141532Y-76019849D01*
X175098180Y-76029064D01*
X175047973Y-76029064D01*
X175004000Y-76033395D01*
X174960027Y-76029064D01*
X174909820Y-76029064D01*
X174866467Y-76019849D01*
X174828340Y-76016094D01*
X174780441Y-76001563D01*
X174725576Y-75989902D01*
X174690464Y-75974269D01*
X174659433Y-75964856D01*
X174610120Y-75938498D01*
X174553500Y-75913289D01*
X174527175Y-75894163D01*
X174503767Y-75881651D01*
X174456013Y-75842460D01*
X174401113Y-75802573D01*
X174383287Y-75782776D01*
X174367324Y-75769675D01*
X174324425Y-75717402D01*
X174275076Y-75662595D01*
X174264708Y-75644637D01*
X174255348Y-75633232D01*
X174220719Y-75568447D01*
X174180896Y-75499470D01*
X174176315Y-75485371D01*
X174172143Y-75477566D01*
X174149136Y-75401725D01*
X174122689Y-75320328D01*
X174121758Y-75311471D01*
X174120905Y-75308659D01*
X174112600Y-75224342D01*
X174103000Y-75133000D01*
X174112599Y-75041664D01*
X174120905Y-74957340D01*
X174121758Y-74954527D01*
X174122689Y-74945672D01*
X174149132Y-74864288D01*
X174172143Y-74788433D01*
X174176315Y-74780626D01*
X174180896Y-74766530D01*
X174220712Y-74697565D01*
X174255348Y-74632767D01*
X174264710Y-74621359D01*
X174275076Y-74603405D01*
X174324416Y-74548607D01*
X174367324Y-74496324D01*
X174383291Y-74483219D01*
X174401113Y-74463427D01*
X174456002Y-74423546D01*
X174503767Y-74384348D01*
X174527180Y-74371833D01*
X174553500Y-74352711D01*
X174610109Y-74327506D01*
X174659433Y-74301143D01*
X174690471Y-74291727D01*
X174725576Y-74276098D01*
X174780430Y-74264438D01*
X174828340Y-74249905D01*
X174866476Y-74246148D01*
X174909820Y-74236936D01*
X174960016Y-74236936D01*
X175004000Y-74232604D01*
X175047983Y-74236936D01*
G37*
G36*
X156512938Y-73083642D02*
G01*
X156558923Y-73083642D01*
X156610139Y-73093215D01*
X156667040Y-73098820D01*
X156710261Y-73111931D01*
X156749474Y-73119261D01*
X156803785Y-73140301D01*
X156864200Y-73158628D01*
X156898720Y-73177079D01*
X156930232Y-73189287D01*
X156984977Y-73223184D01*
X157045904Y-73255750D01*
X157071506Y-73276761D01*
X157095048Y-73291338D01*
X157147212Y-73338892D01*
X157205169Y-73386456D01*
X157222342Y-73407382D01*
X157238301Y-73421930D01*
X157284629Y-73483278D01*
X157335875Y-73545721D01*
X157345783Y-73564259D01*
X157355122Y-73576625D01*
X157392274Y-73651238D01*
X157432997Y-73727425D01*
X157437340Y-73741742D01*
X157441528Y-73750153D01*
X157466267Y-73837101D01*
X157492805Y-73924585D01*
X157493676Y-73933436D01*
X157494577Y-73936600D01*
X157503938Y-74037627D01*
X157513000Y-74129625D01*
X157503938Y-74221630D01*
X157494577Y-74322649D01*
X157493676Y-74325812D01*
X157492805Y-74334665D01*
X157466262Y-74422163D01*
X157441528Y-74509096D01*
X157437341Y-74517504D01*
X157432997Y-74531825D01*
X157392267Y-74608024D01*
X157355122Y-74682624D01*
X157345785Y-74694987D01*
X157335875Y-74713529D01*
X157284620Y-74775982D01*
X157238301Y-74837319D01*
X157222345Y-74851863D01*
X157205169Y-74872794D01*
X157147201Y-74920366D01*
X157095048Y-74967911D01*
X157071511Y-74982484D01*
X157045904Y-75003500D01*
X156984965Y-75036072D01*
X156930232Y-75069962D01*
X156898726Y-75082167D01*
X156864200Y-75100622D01*
X156803773Y-75118952D01*
X156749474Y-75139988D01*
X156710268Y-75147316D01*
X156667040Y-75160430D01*
X156610136Y-75166034D01*
X156558923Y-75175608D01*
X156512938Y-75175608D01*
X156462000Y-75180625D01*
X156411062Y-75175608D01*
X156365077Y-75175608D01*
X156313863Y-75166034D01*
X156256960Y-75160430D01*
X156213732Y-75147317D01*
X156174525Y-75139988D01*
X156120221Y-75118950D01*
X156059800Y-75100622D01*
X156025275Y-75082168D01*
X155993767Y-75069962D01*
X155939027Y-75036068D01*
X155878096Y-75003500D01*
X155852491Y-74982486D01*
X155828951Y-74967911D01*
X155776788Y-74920358D01*
X155718831Y-74872794D01*
X155701656Y-74851867D01*
X155685698Y-74837319D01*
X155639367Y-74775967D01*
X155588125Y-74713529D01*
X155578216Y-74694991D01*
X155568877Y-74682624D01*
X155531717Y-74607997D01*
X155491003Y-74531825D01*
X155486660Y-74517509D01*
X155482471Y-74509096D01*
X155457721Y-74422110D01*
X155431195Y-74334665D01*
X155430323Y-74325817D01*
X155429422Y-74322649D01*
X155420044Y-74221458D01*
X155411000Y-74129625D01*
X155420044Y-74037798D01*
X155429422Y-73936600D01*
X155430323Y-73933430D01*
X155431195Y-73924585D01*
X155457716Y-73837154D01*
X155482471Y-73750153D01*
X155486661Y-73741737D01*
X155491003Y-73727425D01*
X155531710Y-73651266D01*
X155568877Y-73576625D01*
X155578218Y-73564254D01*
X155588125Y-73545721D01*
X155639357Y-73483293D01*
X155685698Y-73421930D01*
X155701660Y-73407378D01*
X155718831Y-73386456D01*
X155776777Y-73338900D01*
X155828951Y-73291338D01*
X155852496Y-73276759D01*
X155878096Y-73255750D01*
X155939015Y-73223188D01*
X155993767Y-73189287D01*
X156025282Y-73177077D01*
X156059800Y-73158628D01*
X156120209Y-73140302D01*
X156174525Y-73119261D01*
X156213739Y-73111930D01*
X156256960Y-73098820D01*
X156313860Y-73093215D01*
X156365077Y-73083642D01*
X156411062Y-73083642D01*
X156462000Y-73078625D01*
X156512938Y-73083642D01*
G37*
G36*
X175873517Y-71695882D02*
G01*
X175890062Y-71706938D01*
X175901118Y-71723483D01*
X175905000Y-71743000D01*
X175905000Y-73443000D01*
X175901118Y-73462517D01*
X175890062Y-73479062D01*
X175873517Y-73490118D01*
X175854000Y-73494000D01*
X174154000Y-73494000D01*
X174134483Y-73490118D01*
X174117938Y-73479062D01*
X174106882Y-73462517D01*
X174103000Y-73443000D01*
X174103000Y-71743000D01*
X174106882Y-71723483D01*
X174117938Y-71706938D01*
X174134483Y-71695882D01*
X174154000Y-71692000D01*
X175854000Y-71692000D01*
X175873517Y-71695882D01*
G37*
G36*
X156512938Y-69083642D02*
G01*
X156558923Y-69083642D01*
X156610139Y-69093215D01*
X156667040Y-69098820D01*
X156710261Y-69111931D01*
X156749474Y-69119261D01*
X156803785Y-69140301D01*
X156864200Y-69158628D01*
X156898720Y-69177079D01*
X156930232Y-69189287D01*
X156984977Y-69223184D01*
X157045904Y-69255750D01*
X157071506Y-69276761D01*
X157095048Y-69291338D01*
X157147212Y-69338892D01*
X157205169Y-69386456D01*
X157222342Y-69407382D01*
X157238301Y-69421930D01*
X157284629Y-69483278D01*
X157335875Y-69545721D01*
X157345783Y-69564259D01*
X157355122Y-69576625D01*
X157392274Y-69651238D01*
X157432997Y-69727425D01*
X157437340Y-69741742D01*
X157441528Y-69750153D01*
X157466267Y-69837101D01*
X157492805Y-69924585D01*
X157493676Y-69933436D01*
X157494577Y-69936600D01*
X157503938Y-70037627D01*
X157513000Y-70129625D01*
X157503938Y-70221630D01*
X157494577Y-70322649D01*
X157493676Y-70325812D01*
X157492805Y-70334665D01*
X157466262Y-70422163D01*
X157441528Y-70509096D01*
X157437341Y-70517504D01*
X157432997Y-70531825D01*
X157392267Y-70608024D01*
X157355122Y-70682624D01*
X157345785Y-70694987D01*
X157335875Y-70713529D01*
X157284620Y-70775982D01*
X157238301Y-70837319D01*
X157222345Y-70851863D01*
X157205169Y-70872794D01*
X157147201Y-70920366D01*
X157095048Y-70967911D01*
X157071511Y-70982484D01*
X157045904Y-71003500D01*
X156984965Y-71036072D01*
X156930232Y-71069962D01*
X156898726Y-71082167D01*
X156864200Y-71100622D01*
X156803773Y-71118952D01*
X156749474Y-71139988D01*
X156710268Y-71147316D01*
X156667040Y-71160430D01*
X156610136Y-71166034D01*
X156558923Y-71175608D01*
X156512938Y-71175608D01*
X156462000Y-71180625D01*
X156411062Y-71175608D01*
X156365077Y-71175608D01*
X156313863Y-71166034D01*
X156256960Y-71160430D01*
X156213732Y-71147317D01*
X156174525Y-71139988D01*
X156120221Y-71118950D01*
X156059800Y-71100622D01*
X156025275Y-71082168D01*
X155993767Y-71069962D01*
X155939027Y-71036068D01*
X155878096Y-71003500D01*
X155852491Y-70982486D01*
X155828951Y-70967911D01*
X155776788Y-70920358D01*
X155718831Y-70872794D01*
X155701656Y-70851867D01*
X155685698Y-70837319D01*
X155639367Y-70775967D01*
X155588125Y-70713529D01*
X155578216Y-70694991D01*
X155568877Y-70682624D01*
X155531717Y-70607997D01*
X155491003Y-70531825D01*
X155486660Y-70517509D01*
X155482471Y-70509096D01*
X155457721Y-70422110D01*
X155431195Y-70334665D01*
X155430323Y-70325817D01*
X155429422Y-70322649D01*
X155420044Y-70221458D01*
X155411000Y-70129625D01*
X155420044Y-70037798D01*
X155429422Y-69936600D01*
X155430323Y-69933430D01*
X155431195Y-69924585D01*
X155457716Y-69837154D01*
X155482471Y-69750153D01*
X155486661Y-69741737D01*
X155491003Y-69727425D01*
X155531710Y-69651266D01*
X155568877Y-69576625D01*
X155578218Y-69564254D01*
X155588125Y-69545721D01*
X155639357Y-69483293D01*
X155685698Y-69421930D01*
X155701660Y-69407378D01*
X155718831Y-69386456D01*
X155776777Y-69338900D01*
X155828951Y-69291338D01*
X155852496Y-69276759D01*
X155878096Y-69255750D01*
X155939015Y-69223188D01*
X155993767Y-69189287D01*
X156025282Y-69177077D01*
X156059800Y-69158628D01*
X156120209Y-69140302D01*
X156174525Y-69119261D01*
X156213739Y-69111930D01*
X156256960Y-69098820D01*
X156313860Y-69093215D01*
X156365077Y-69083642D01*
X156411062Y-69083642D01*
X156462000Y-69078625D01*
X156512938Y-69083642D01*
G37*
G36*
X156512938Y-65083642D02*
G01*
X156558923Y-65083642D01*
X156610139Y-65093215D01*
X156667040Y-65098820D01*
X156710261Y-65111931D01*
X156749474Y-65119261D01*
X156803785Y-65140301D01*
X156864200Y-65158628D01*
X156898720Y-65177079D01*
X156930232Y-65189287D01*
X156984977Y-65223184D01*
X157045904Y-65255750D01*
X157071506Y-65276761D01*
X157095048Y-65291338D01*
X157147212Y-65338892D01*
X157205169Y-65386456D01*
X157222342Y-65407382D01*
X157238301Y-65421930D01*
X157284629Y-65483278D01*
X157335875Y-65545721D01*
X157345783Y-65564259D01*
X157355122Y-65576625D01*
X157392274Y-65651238D01*
X157432997Y-65727425D01*
X157437340Y-65741742D01*
X157441528Y-65750153D01*
X157466267Y-65837101D01*
X157492805Y-65924585D01*
X157493676Y-65933436D01*
X157494577Y-65936600D01*
X157503938Y-66037627D01*
X157513000Y-66129625D01*
X157503938Y-66221630D01*
X157494577Y-66322649D01*
X157493676Y-66325812D01*
X157492805Y-66334665D01*
X157466262Y-66422163D01*
X157441528Y-66509096D01*
X157437341Y-66517504D01*
X157432997Y-66531825D01*
X157392267Y-66608024D01*
X157355122Y-66682624D01*
X157345785Y-66694987D01*
X157335875Y-66713529D01*
X157284620Y-66775982D01*
X157238301Y-66837319D01*
X157222345Y-66851863D01*
X157205169Y-66872794D01*
X157147201Y-66920366D01*
X157095048Y-66967911D01*
X157071511Y-66982484D01*
X157045904Y-67003500D01*
X156984965Y-67036072D01*
X156930232Y-67069962D01*
X156898726Y-67082167D01*
X156864200Y-67100622D01*
X156803773Y-67118952D01*
X156749474Y-67139988D01*
X156710268Y-67147316D01*
X156667040Y-67160430D01*
X156610136Y-67166034D01*
X156558923Y-67175608D01*
X156512938Y-67175608D01*
X156462000Y-67180625D01*
X156411062Y-67175608D01*
X156365077Y-67175608D01*
X156313863Y-67166034D01*
X156256960Y-67160430D01*
X156213732Y-67147317D01*
X156174525Y-67139988D01*
X156120221Y-67118950D01*
X156059800Y-67100622D01*
X156025275Y-67082168D01*
X155993767Y-67069962D01*
X155939027Y-67036068D01*
X155878096Y-67003500D01*
X155852491Y-66982486D01*
X155828951Y-66967911D01*
X155776788Y-66920358D01*
X155718831Y-66872794D01*
X155701656Y-66851867D01*
X155685698Y-66837319D01*
X155639367Y-66775967D01*
X155588125Y-66713529D01*
X155578216Y-66694991D01*
X155568877Y-66682624D01*
X155531717Y-66607997D01*
X155491003Y-66531825D01*
X155486660Y-66517509D01*
X155482471Y-66509096D01*
X155457721Y-66422110D01*
X155431195Y-66334665D01*
X155430323Y-66325817D01*
X155429422Y-66322649D01*
X155420044Y-66221458D01*
X155411000Y-66129625D01*
X155420044Y-66037798D01*
X155429422Y-65936600D01*
X155430323Y-65933430D01*
X155431195Y-65924585D01*
X155457716Y-65837154D01*
X155482471Y-65750153D01*
X155486661Y-65741737D01*
X155491003Y-65727425D01*
X155531710Y-65651266D01*
X155568877Y-65576625D01*
X155578218Y-65564254D01*
X155588125Y-65545721D01*
X155639357Y-65483293D01*
X155685698Y-65421930D01*
X155701660Y-65407378D01*
X155718831Y-65386456D01*
X155776777Y-65338900D01*
X155828951Y-65291338D01*
X155852496Y-65276759D01*
X155878096Y-65255750D01*
X155939015Y-65223188D01*
X155993767Y-65189287D01*
X156025282Y-65177077D01*
X156059800Y-65158628D01*
X156120209Y-65140302D01*
X156174525Y-65119261D01*
X156213739Y-65111930D01*
X156256960Y-65098820D01*
X156313860Y-65093215D01*
X156365077Y-65083642D01*
X156411062Y-65083642D01*
X156462000Y-65078625D01*
X156512938Y-65083642D01*
G37*
M02*
