%TF.GenerationSoftware,KiCad,Pcbnew,8.0.2*%
%TF.CreationDate,2024-05-07T22:28:17+02:00*%
%TF.ProjectId,WIITEST,57494954-4553-4542-9e6b-696361645f70,rev?*%
%TF.SameCoordinates,Original*%
%TF.FileFunction,Soldermask,Top*%
%TF.FilePolarity,Negative*%
%FSLAX46Y46*%
G04 Gerber Fmt 4.6, Leading zero omitted, Abs format (unit mm)*
G04 Created by KiCad (PCBNEW 8.0.2) date 2024-05-07 22:28:17*
%MOMM*%
%LPD*%
G01*
G04 APERTURE LIST*
%ADD10C,1.270000*%
%ADD11C,3.048000*%
%ADD12R,1.600000X1.600000*%
%ADD13O,1.600000X1.600000*%
G04 APERTURE END LIST*
D10*
%TO.C,U1*%
X121252000Y-61571200D03*
X121252000Y-63476200D03*
X123157000Y-61571200D03*
X123157000Y-63476200D03*
X125062000Y-61571200D03*
X125062000Y-63476200D03*
D11*
X129507000Y-60682200D03*
X129507000Y-55348200D03*
X116807000Y-60682200D03*
X116807000Y-55348200D03*
%TD*%
D12*
%TO.C,A1*%
X115547000Y-69875400D03*
D13*
X115547000Y-72415400D03*
X115547000Y-74955400D03*
X115547000Y-77495400D03*
X115547000Y-80035400D03*
X115547000Y-82575400D03*
X115547000Y-85115400D03*
X115547000Y-87655400D03*
X115547000Y-90195400D03*
X115547000Y-92735400D03*
X115547000Y-95275400D03*
X115547000Y-97815400D03*
X115547000Y-100355400D03*
X115547000Y-102895400D03*
X115547000Y-105435400D03*
X130787000Y-105435400D03*
X130787000Y-102895400D03*
X130787000Y-100355400D03*
X130787000Y-97815400D03*
X130787000Y-95275400D03*
X130787000Y-92735400D03*
X130787000Y-90195400D03*
X130787000Y-87655400D03*
X130787000Y-85115400D03*
X130787000Y-82575400D03*
X130787000Y-80035400D03*
X130787000Y-77495400D03*
X130787000Y-74955400D03*
X130787000Y-72415400D03*
X130787000Y-69875400D03*
%TD*%
M02*
