M48
; DRILL file {KiCad 8.0.2} date 2024-05-07T22:28:20+0200
; FORMAT={-:-/ absolute / inch / decimal}
; #@! TF.CreationDate,2024-05-07T22:28:20+02:00
; #@! TF.GenerationSoftware,Kicad,Pcbnew,8.0.2
; #@! TF.FileFunction,Plated,1,2,PTH
FMAT,2
INCH
; #@! TA.AperFunction,Plated,PTH,ComponentDrill
T1C0.0250
; #@! TA.AperFunction,Plated,PTH,ComponentDrill
T2C0.0394
; #@! TA.AperFunction,Plated,PTH,ComponentDrill
T3C0.0750
%
G90
G05
T1
X4.7737Y-2.4241
X4.7737Y-2.4991
X4.8487Y-2.4241
X4.8487Y-2.4991
X4.9237Y-2.4241
X4.9237Y-2.4991
T2
X4.5491Y-2.751
X4.5491Y-2.851
X4.5491Y-2.951
X4.5491Y-3.051
X4.5491Y-3.151
X4.5491Y-3.251
X4.5491Y-3.351
X4.5491Y-3.451
X4.5491Y-3.551
X4.5491Y-3.651
X4.5491Y-3.751
X4.5491Y-3.851
X4.5491Y-3.951
X4.5491Y-4.051
X4.5491Y-4.151
X5.1491Y-2.751
X5.1491Y-2.851
X5.1491Y-2.951
X5.1491Y-3.051
X5.1491Y-3.151
X5.1491Y-3.251
X5.1491Y-3.351
X5.1491Y-3.451
X5.1491Y-3.551
X5.1491Y-3.651
X5.1491Y-3.751
X5.1491Y-3.851
X5.1491Y-3.951
X5.1491Y-4.051
X5.1491Y-4.151
T3
X4.5987Y-2.1791
X4.5987Y-2.3891
X5.0987Y-2.1791
X5.0987Y-2.3891
M30
