%TF.GenerationSoftware,KiCad,Pcbnew,8.0.2*%
%TF.CreationDate,2024-06-06T15:09:29+02:00*%
%TF.ProjectId,remote controll_v1,72656d6f-7465-4206-936f-6e74726f6c6c,rev?*%
%TF.SameCoordinates,Original*%
%TF.FileFunction,Copper,L2,Bot*%
%TF.FilePolarity,Positive*%
%FSLAX46Y46*%
G04 Gerber Fmt 4.6, Leading zero omitted, Abs format (unit mm)*
G04 Created by KiCad (PCBNEW 8.0.2) date 2024-06-06 15:09:29*
%MOMM*%
%LPD*%
G01*
G04 APERTURE LIST*
%TA.AperFunction,ComponentPad*%
%ADD10C,1.400000*%
%TD*%
%TA.AperFunction,ComponentPad*%
%ADD11O,1.400000X1.400000*%
%TD*%
%TA.AperFunction,ComponentPad*%
%ADD12R,1.800000X1.800000*%
%TD*%
%TA.AperFunction,ComponentPad*%
%ADD13C,1.800000*%
%TD*%
%TA.AperFunction,ComponentPad*%
%ADD14R,1.700000X1.700000*%
%TD*%
%TA.AperFunction,ComponentPad*%
%ADD15O,1.700000X1.700000*%
%TD*%
%TA.AperFunction,ComponentPad*%
%ADD16R,1.600000X1.600000*%
%TD*%
%TA.AperFunction,ComponentPad*%
%ADD17C,1.600000*%
%TD*%
%TA.AperFunction,ComponentPad*%
%ADD18C,1.700000*%
%TD*%
%TA.AperFunction,ComponentPad*%
%ADD19O,1.600000X1.600000*%
%TD*%
%TA.AperFunction,ComponentPad*%
%ADD20R,1.905000X2.000000*%
%TD*%
%TA.AperFunction,ComponentPad*%
%ADD21O,1.905000X2.000000*%
%TD*%
%TA.AperFunction,ComponentPad*%
%ADD22R,2.000000X1.905000*%
%TD*%
%TA.AperFunction,ComponentPad*%
%ADD23O,2.000000X1.905000*%
%TD*%
%TA.AperFunction,Conductor*%
%ADD24C,0.300000*%
%TD*%
%TA.AperFunction,Conductor*%
%ADD25C,1.000000*%
%TD*%
G04 APERTURE END LIST*
D10*
%TO.P,R2,1*%
%TO.N,Net-(D2-A)*%
X221742000Y-96520000D03*
D11*
%TO.P,R2,2*%
%TO.N,Net-(3v3_regulator1-GND)*%
X229362000Y-96520000D03*
%TD*%
D12*
%TO.P,D2,1,K*%
%TO.N,Net-(A1-A6)*%
X217424000Y-99065000D03*
D13*
%TO.P,D2,2,A*%
%TO.N,Net-(D2-A)*%
X217424000Y-96525000D03*
%TD*%
D10*
%TO.P,R3,1*%
%TO.N,Net-(D3-A)*%
X221742000Y-89916000D03*
D11*
%TO.P,R3,2*%
%TO.N,Net-(3v3_regulator1-GND)*%
X229362000Y-89916000D03*
%TD*%
D14*
%TO.P,MPU1,1,VCC*%
%TO.N,Net-(A1-+5V)*%
X214689000Y-80117000D03*
D15*
%TO.P,MPU1,2,GND*%
%TO.N,Net-(3v3_regulator1-GND)*%
X217229000Y-80117000D03*
%TO.P,MPU1,3,SCL*%
%TO.N,Net-(A1-A5)*%
X219769000Y-80117000D03*
%TO.P,MPU1,4,SDA*%
%TO.N,Net-(A1-A4)*%
X222309000Y-80117000D03*
%TO.P,MPU1,5,EDA*%
%TO.N,unconnected-(MPU1-EDA-Pad5)*%
X224849000Y-80117000D03*
%TO.P,MPU1,6,ECL*%
%TO.N,unconnected-(MPU1-ECL-Pad6)*%
X227389000Y-80117000D03*
%TO.P,MPU1,7,ADO*%
%TO.N,unconnected-(MPU1-ADO-Pad7)*%
X229929000Y-80117000D03*
%TO.P,MPU1,8,INT*%
%TO.N,unconnected-(MPU1-INT-Pad8)*%
X232469000Y-80117000D03*
%TO.P,MPU1,9,NCS*%
%TO.N,unconnected-(MPU1-NCS-Pad9)*%
X235009000Y-80117000D03*
%TO.P,MPU1,10,FSYNC*%
%TO.N,unconnected-(MPU1-FSYNC-Pad10)*%
X237549000Y-80117000D03*
%TD*%
D10*
%TO.P,R1,1*%
%TO.N,Net-(D1-A)*%
X221742000Y-103129000D03*
D11*
%TO.P,R1,2*%
%TO.N,Net-(3v3_regulator1-GND)*%
X229362000Y-103129000D03*
%TD*%
D14*
%TO.P,MOTOR_A1,1,Input*%
%TO.N,Net-(MOTOR_A1-Input)*%
X189738000Y-70839000D03*
D15*
%TO.P,MOTOR_A1,2,GND*%
%TO.N,Net-(MOTOR_A1-GND)*%
X194818000Y-70839000D03*
%TD*%
D14*
%TO.P,GPS1,1,GND*%
%TO.N,Net-(3v3_regulator1-GND)*%
X222814000Y-140892000D03*
D15*
%TO.P,GPS1,2,TX*%
%TO.N,Net-(A1-D3)*%
X225354000Y-140892000D03*
%TO.P,GPS1,3,RX*%
%TO.N,Net-(A1-D2)*%
X227894000Y-140892000D03*
%TO.P,GPS1,4,VCC*%
%TO.N,Net-(A1-+5V)*%
X230434000Y-140892000D03*
%TD*%
D14*
%TO.P,TB6612FNG1,1,VM*%
%TO.N,Net-(3v3_regulator1-VI)*%
X178308000Y-87711000D03*
D15*
%TO.P,TB6612FNG1,2,VCC*%
%TO.N,Net-(A1-+5V)*%
X178308000Y-85171000D03*
%TO.P,TB6612FNG1,3,GND*%
%TO.N,Net-(3v3_regulator1-GND)*%
X178308000Y-82631000D03*
%TO.P,TB6612FNG1,4,AO1*%
%TO.N,Net-(MOTOR_B1-GND)*%
X178308000Y-80091000D03*
%TO.P,TB6612FNG1,5,AO2*%
%TO.N,Net-(MOTOR_B1-Input)*%
X178308000Y-77551000D03*
%TO.P,TB6612FNG1,6,BO2*%
%TO.N,Net-(MOTOR_A1-GND)*%
X178308000Y-75011000D03*
%TO.P,TB6612FNG1,7,BO1*%
%TO.N,Net-(MOTOR_A1-Input)*%
X178308000Y-72471000D03*
%TO.P,TB6612FNG1,8,GND*%
%TO.N,Net-(3v3_regulator1-GND)*%
X178308000Y-69931000D03*
D14*
%TO.P,TB6612FNG1,9,PWM_A*%
%TO.N,Net-(A1-A0)*%
X163068000Y-87711000D03*
D15*
%TO.P,TB6612FNG1,10,AI2*%
%TO.N,Net-(A1-D4)*%
X163068000Y-85171000D03*
%TO.P,TB6612FNG1,11,AI1*%
%TO.N,Net-(A1-D5)*%
X163068000Y-82631000D03*
%TO.P,TB6612FNG1,12,STBY*%
%TO.N,Net-(A1-D10)*%
X163068000Y-80091000D03*
%TO.P,TB6612FNG1,13,BI1*%
%TO.N,Net-(A1-D6)*%
X163068000Y-77551000D03*
%TO.P,TB6612FNG1,14,BI2*%
%TO.N,Net-(A1-D7)*%
X163068000Y-75011000D03*
%TO.P,TB6612FNG1,15,PWM_B*%
%TO.N,Net-(A1-A1)*%
X163068000Y-72471000D03*
%TO.P,TB6612FNG1,16,GND*%
%TO.N,Net-(3v3_regulator1-GND)*%
X163068000Y-69931000D03*
%TD*%
D12*
%TO.P,D1,1,K*%
%TO.N,Net-(A1-A3)*%
X217424000Y-105669000D03*
D13*
%TO.P,D1,2,A*%
%TO.N,Net-(D1-A)*%
X217424000Y-103129000D03*
%TD*%
D16*
%TO.P,C5v1,1*%
%TO.N,Net-(A1-+5V)*%
X192786000Y-89672000D03*
D17*
%TO.P,C5v1,2*%
%TO.N,Net-(3v3_regulator1-GND)*%
X192786000Y-93472000D03*
%TD*%
D14*
%TO.P,NRF1,0*%
%TO.N,N/C*%
X140178000Y-68059000D03*
D15*
X142718000Y-68059000D03*
X145258000Y-68059000D03*
X147798000Y-68059000D03*
X150338000Y-68059000D03*
X152878000Y-68059000D03*
D14*
%TO.P,NRF1,1,GND*%
%TO.N,Net-(3v3_regulator1-GND)*%
X142718000Y-105797000D03*
D18*
%TO.P,NRF1,2,VCC*%
%TO.N,Net-(3v3_regulator1-VO)*%
X142718000Y-103257000D03*
%TO.P,NRF1,3,CE*%
%TO.N,Net-(A1-D8)*%
X145258000Y-105797000D03*
%TO.P,NRF1,4,~{CSN}*%
%TO.N,Net-(A1-D9)*%
X145258000Y-103257000D03*
%TO.P,NRF1,5,SCK*%
%TO.N,Net-(A1-D13)*%
X147798000Y-105797000D03*
%TO.P,NRF1,6,MOSI*%
%TO.N,Net-(A1-D11)*%
X147798000Y-103257000D03*
%TO.P,NRF1,7,MISO*%
%TO.N,Net-(A1-D12)*%
X150338000Y-105797000D03*
%TO.P,NRF1,8,IRQ*%
%TO.N,unconnected-(NRF1-IRQ-Pad8)*%
X150338000Y-103257000D03*
%TD*%
D14*
%TO.P,A1,1,D1/TX*%
%TO.N,unconnected-(A1-D1{slash}TX-Pad1)*%
X166182000Y-101346000D03*
D16*
X176181857Y-101346000D03*
D15*
%TO.P,A1,2,D0/RX*%
%TO.N,unconnected-(A1-D0{slash}RX-Pad2)*%
X166182000Y-103886000D03*
D19*
X176181857Y-103886000D03*
D15*
%TO.P,A1,3,~{RESET}*%
%TO.N,unconnected-(A1-~{RESET}-Pad3)*%
X166182000Y-106426000D03*
D19*
X176181857Y-106426000D03*
D15*
%TO.P,A1,4,GND*%
%TO.N,Net-(3v3_regulator1-GND)*%
X166182000Y-108966000D03*
D19*
X176181857Y-108966000D03*
D15*
%TO.P,A1,5,D2*%
%TO.N,Net-(A1-D2)*%
X166182000Y-111506000D03*
D19*
X176181857Y-111506000D03*
D15*
%TO.P,A1,6,D3*%
%TO.N,Net-(A1-D3)*%
X166182000Y-114046000D03*
D19*
X176181857Y-114046000D03*
D15*
%TO.P,A1,7,D4*%
%TO.N,Net-(A1-D4)*%
X166182000Y-116586000D03*
D19*
X176181857Y-116586000D03*
D15*
%TO.P,A1,8,D5*%
%TO.N,Net-(A1-D5)*%
X166182000Y-119126000D03*
D19*
X176181857Y-119126000D03*
D15*
%TO.P,A1,9,D6*%
%TO.N,Net-(A1-D6)*%
X166182000Y-121666000D03*
D19*
X176181857Y-121666000D03*
D15*
%TO.P,A1,10,D7*%
%TO.N,Net-(A1-D7)*%
X166182000Y-124206000D03*
D19*
X176181857Y-124206000D03*
D15*
%TO.P,A1,11,D8*%
%TO.N,Net-(A1-D8)*%
X166182000Y-126746000D03*
D19*
X176181857Y-126746000D03*
D15*
%TO.P,A1,12,D9*%
%TO.N,Net-(A1-D9)*%
X166182000Y-129286000D03*
D19*
X176181857Y-129286000D03*
D15*
%TO.P,A1,13,D10*%
%TO.N,Net-(A1-D10)*%
X166182000Y-131826000D03*
D19*
X176181857Y-131826000D03*
D15*
%TO.P,A1,14,D11*%
%TO.N,Net-(A1-D11)*%
X166182000Y-134366000D03*
D19*
X176181857Y-134366000D03*
D15*
%TO.P,A1,15,D12*%
%TO.N,Net-(A1-D12)*%
X166182000Y-136906000D03*
D19*
X176181857Y-136906000D03*
%TO.P,A1,16,D13*%
%TO.N,Net-(A1-D13)*%
X191421857Y-136906000D03*
D15*
X201422000Y-136906000D03*
D19*
%TO.P,A1,17,3V3*%
%TO.N,unconnected-(A1-3V3-Pad17)*%
X191421857Y-134366000D03*
D15*
X201422000Y-134366000D03*
D19*
%TO.P,A1,18,AREF*%
%TO.N,unconnected-(A1-AREF-Pad18)*%
X191421857Y-131826000D03*
D15*
X201422000Y-131826000D03*
D19*
%TO.P,A1,19,A0*%
%TO.N,Net-(A1-A0)*%
X191421857Y-129286000D03*
D15*
X201422000Y-129286000D03*
D19*
%TO.P,A1,20,A1*%
%TO.N,Net-(A1-A1)*%
X191421857Y-126746000D03*
D15*
X201422000Y-126746000D03*
D19*
%TO.P,A1,21,A2*%
%TO.N,unconnected-(A1-A2-Pad21)*%
X191421857Y-124206000D03*
D15*
X201422000Y-124206000D03*
D19*
%TO.P,A1,22,A3*%
%TO.N,Net-(A1-A3)*%
X191421857Y-121666000D03*
D15*
X201422000Y-121666000D03*
D19*
%TO.P,A1,23,A4*%
%TO.N,Net-(A1-A4)*%
X191421857Y-119126000D03*
D15*
X201422000Y-119126000D03*
D19*
%TO.P,A1,24,A5*%
%TO.N,Net-(A1-A5)*%
X191421857Y-116586000D03*
D15*
X201422000Y-116586000D03*
D19*
%TO.P,A1,25,A6*%
%TO.N,Net-(A1-A6)*%
X191421857Y-114046000D03*
D15*
X201422000Y-114046000D03*
D19*
%TO.P,A1,26,A7*%
%TO.N,Net-(A1-A7)*%
X191421857Y-111506000D03*
D15*
X201422000Y-111506000D03*
D19*
%TO.P,A1,27,+5V*%
%TO.N,Net-(A1-+5V)*%
X191421857Y-108966000D03*
D15*
X201422000Y-108966000D03*
D19*
%TO.P,A1,28,~{RESET}*%
%TO.N,unconnected-(A1-~{RESET}-Pad28)*%
X191421857Y-106426000D03*
D15*
X201422000Y-106426000D03*
D19*
%TO.P,A1,29,GND*%
%TO.N,Net-(3v3_regulator1-GND)*%
X191421857Y-103886000D03*
D15*
X201422000Y-103886000D03*
D19*
%TO.P,A1,30,VIN*%
%TO.N,unconnected-(A1-VIN-Pad30)*%
X191421857Y-101346000D03*
D14*
X201422000Y-101346000D03*
%TD*%
%TO.P,MOTOR_B1,1,Input*%
%TO.N,Net-(MOTOR_B1-Input)*%
X203708000Y-70839000D03*
D15*
%TO.P,MOTOR_B1,2,GND*%
%TO.N,Net-(MOTOR_B1-GND)*%
X208788000Y-70839000D03*
%TD*%
D20*
%TO.P,3v3_regulator1,1,GND*%
%TO.N,Net-(3v3_regulator1-GND)*%
X149098000Y-123696000D03*
D21*
%TO.P,3v3_regulator1,2,VO*%
%TO.N,Net-(3v3_regulator1-VO)*%
X146558000Y-123696000D03*
%TO.P,3v3_regulator1,3,VI*%
%TO.N,Net-(3v3_regulator1-VI)*%
X144018000Y-123696000D03*
%TD*%
D16*
%TO.P,C3.3v1,1*%
%TO.N,Net-(3v3_regulator1-VO)*%
X144755349Y-113792000D03*
D17*
%TO.P,C3.3v1,2*%
%TO.N,Net-(3v3_regulator1-GND)*%
X148555349Y-113792000D03*
%TD*%
D14*
%TO.P,POWER_INPUT1,1,Input*%
%TO.N,Net-(3v3_regulator1-VI)*%
X234796000Y-94488000D03*
D15*
%TO.P,POWER_INPUT1,2,GND*%
%TO.N,Net-(3v3_regulator1-GND)*%
X234796000Y-99568000D03*
%TD*%
D22*
%TO.P,U1,1,IN*%
%TO.N,Net-(3v3_regulator1-VI)*%
X190414000Y-78740000D03*
D23*
%TO.P,U1,2,GND*%
%TO.N,Net-(3v3_regulator1-GND)*%
X190414000Y-81280000D03*
%TO.P,U1,3,OUT*%
%TO.N,Net-(A1-+5V)*%
X190414000Y-83820000D03*
%TD*%
D12*
%TO.P,D3,1,K*%
%TO.N,Net-(A1-A7)*%
X217424000Y-92461000D03*
D13*
%TO.P,D3,2,A*%
%TO.N,Net-(D3-A)*%
X217424000Y-89921000D03*
%TD*%
D16*
%TO.P,C12v1,1*%
%TO.N,Net-(3v3_regulator1-VI)*%
X205994000Y-89637349D03*
D17*
%TO.P,C12v1,2*%
%TO.N,Net-(3v3_regulator1-GND)*%
X205994000Y-93437349D03*
%TD*%
D24*
%TO.N,Net-(3v3_regulator1-GND)*%
X195580000Y-135636000D02*
X203344000Y-143400000D01*
X220306000Y-143400000D02*
X222814000Y-140892000D01*
D25*
X142240000Y-100076000D02*
X157292000Y-100076000D01*
X141068000Y-101248000D02*
X142240000Y-100076000D01*
D24*
X201422000Y-103886000D02*
X199898000Y-103886000D01*
D25*
X141068000Y-104147000D02*
X141068000Y-101248000D01*
X157292000Y-100076000D02*
X166182000Y-108966000D01*
D24*
X195580000Y-108204000D02*
X195580000Y-135636000D01*
X203344000Y-143400000D02*
X220306000Y-143400000D01*
X199898000Y-103886000D02*
X195580000Y-108204000D01*
D25*
X142718000Y-105797000D02*
X141068000Y-104147000D01*
%TO.N,Net-(3v3_regulator1-VI)*%
X137922000Y-100076000D02*
X137922000Y-115062000D01*
X144018000Y-121158000D02*
X144018000Y-123696000D01*
X201311349Y-89637349D02*
X190414000Y-78740000D01*
X178308000Y-87711000D02*
X172039000Y-93980000D01*
X144018000Y-93980000D02*
X137922000Y-100076000D01*
X190414000Y-78740000D02*
X187279000Y-78740000D01*
X137922000Y-115062000D02*
X144018000Y-121158000D01*
X172039000Y-93980000D02*
X144018000Y-93980000D01*
X205994000Y-89637349D02*
X201311349Y-89637349D01*
X187279000Y-78740000D02*
X178308000Y-87711000D01*
D24*
%TO.N,Net-(A1-A6)*%
X216403000Y-99065000D02*
X201422000Y-114046000D01*
X217424000Y-99065000D02*
X216403000Y-99065000D01*
%TO.N,Net-(A1-D8)*%
X166182000Y-126721000D02*
X166182000Y-126746000D01*
X145258000Y-105797000D02*
X166182000Y-126721000D01*
%TO.N,Net-(A1-D2)*%
X224186000Y-144600000D02*
X178636000Y-144600000D01*
X227894000Y-140892000D02*
X224186000Y-144600000D01*
X178636000Y-144600000D02*
X170688000Y-136652000D01*
X170688000Y-136652000D02*
X170688000Y-116999857D01*
X170688000Y-116999857D02*
X176181857Y-111506000D01*
%TO.N,Net-(A1-A3)*%
X217424000Y-105669000D02*
X211577000Y-105669000D01*
X209804000Y-107442000D02*
X209804000Y-113284000D01*
X209804000Y-113284000D02*
X201422000Y-121666000D01*
X211577000Y-105669000D02*
X209804000Y-107442000D01*
%TO.N,Net-(A1-+5V)*%
X199898000Y-137220478D02*
X199898000Y-110490000D01*
X228942000Y-139400000D02*
X202077522Y-139400000D01*
X199898000Y-110490000D02*
X201422000Y-108966000D01*
X230434000Y-140892000D02*
X228942000Y-139400000D01*
X202077522Y-139400000D02*
X199898000Y-137220478D01*
%TO.N,Net-(A1-D10)*%
X156563498Y-80091000D02*
X136972000Y-99682498D01*
X163068000Y-80091000D02*
X156563498Y-80091000D01*
X150114000Y-131826000D02*
X166182000Y-131826000D01*
X136972000Y-99682498D02*
X136972000Y-118684000D01*
X136972000Y-118684000D02*
X150114000Y-131826000D01*
%TO.N,Net-(A1-A7)*%
X202722000Y-107163000D02*
X202722000Y-110206000D01*
X202722000Y-110206000D02*
X201422000Y-111506000D01*
X217424000Y-92461000D02*
X202722000Y-107163000D01*
%TO.N,Net-(A1-D3)*%
X222246000Y-144000000D02*
X196578000Y-144000000D01*
X186182000Y-118110000D02*
X182118000Y-114046000D01*
X186182000Y-133604000D02*
X186182000Y-118110000D01*
X196578000Y-144000000D02*
X186182000Y-133604000D01*
X225354000Y-140892000D02*
X222246000Y-144000000D01*
X182118000Y-114046000D02*
X176181857Y-114046000D01*
D25*
%TO.N,Net-(MOTOR_A1-Input)*%
X179940000Y-70839000D02*
X178308000Y-72471000D01*
X189738000Y-70839000D02*
X179940000Y-70839000D01*
%TO.N,Net-(MOTOR_A1-GND)*%
X194818000Y-70839000D02*
X192759000Y-72898000D01*
X180421000Y-72898000D02*
X178308000Y-75011000D01*
X192759000Y-72898000D02*
X180421000Y-72898000D01*
%TO.N,Net-(MOTOR_B1-Input)*%
X200125000Y-74422000D02*
X181437000Y-74422000D01*
X181437000Y-74422000D02*
X178308000Y-77551000D01*
X203708000Y-70839000D02*
X200125000Y-74422000D01*
%TO.N,Net-(MOTOR_B1-GND)*%
X208788000Y-70839000D02*
X203427000Y-76200000D01*
X182199000Y-76200000D02*
X178308000Y-80091000D01*
X203427000Y-76200000D02*
X182199000Y-76200000D01*
%TD*%
M02*
