%TF.GenerationSoftware,KiCad,Pcbnew,8.0.3*%
%TF.CreationDate,2024-06-28T16:15:32+02:00*%
%TF.ProjectId,remote controll_v1,72656d6f-7465-4206-936f-6e74726f6c6c,rev?*%
%TF.SameCoordinates,Original*%
%TF.FileFunction,Soldermask,Bot*%
%TF.FilePolarity,Negative*%
%FSLAX46Y46*%
G04 Gerber Fmt 4.6, Leading zero omitted, Abs format (unit mm)*
G04 Created by KiCad (PCBNEW 8.0.3) date 2024-06-28 16:15:32*
%MOMM*%
%LPD*%
G01*
G04 APERTURE LIST*
%ADD10C,3.200000*%
%ADD11R,1.700000X1.700000*%
%ADD12O,1.700000X1.700000*%
%ADD13C,1.400000*%
%ADD14O,1.400000X1.400000*%
%ADD15R,1.800000X1.800000*%
%ADD16C,1.800000*%
%ADD17C,2.700000*%
%ADD18R,1.600000X1.600000*%
%ADD19C,1.600000*%
%ADD20C,1.700000*%
%ADD21O,1.600000X1.600000*%
%ADD22O,3.500000X3.500000*%
%ADD23R,1.905000X2.000000*%
%ADD24O,1.905000X2.000000*%
%ADD25R,2.000000X1.905000*%
%ADD26O,2.000000X1.905000*%
G04 APERTURE END LIST*
D10*
%TO.C,GPS1*%
X216364000Y-141400000D03*
X236864000Y-141400000D03*
X216364000Y-110700000D03*
X236864000Y-110700000D03*
D11*
X222814000Y-142300000D03*
D12*
X225354000Y-142300000D03*
X227894000Y-142300000D03*
X230434000Y-142300000D03*
%TD*%
D13*
%TO.C,R2*%
X221742000Y-96520000D03*
D14*
X229362000Y-96520000D03*
%TD*%
D15*
%TO.C,D2*%
X217424000Y-99065000D03*
D16*
X217424000Y-96525000D03*
%TD*%
D13*
%TO.C,R3*%
X221742000Y-89916000D03*
D14*
X229362000Y-89916000D03*
%TD*%
D17*
%TO.C,MPU1*%
X215146000Y-68179000D03*
X236990000Y-68179000D03*
D11*
X214689000Y-80117000D03*
D12*
X217229000Y-80117000D03*
X219769000Y-80117000D03*
X222309000Y-80117000D03*
X224849000Y-80117000D03*
X227389000Y-80117000D03*
X229929000Y-80117000D03*
X232469000Y-80117000D03*
X235009000Y-80117000D03*
X237549000Y-80117000D03*
%TD*%
D13*
%TO.C,R1*%
X221742000Y-103129000D03*
D14*
X229362000Y-103129000D03*
%TD*%
D11*
%TO.C,MOTOR_A1*%
X189738000Y-70839000D03*
D12*
X194818000Y-70839000D03*
%TD*%
D11*
%TO.C,TB6612FNG1*%
X178308000Y-87711000D03*
D12*
X178308000Y-85171000D03*
X178308000Y-82631000D03*
X178308000Y-80091000D03*
X178308000Y-77551000D03*
X178308000Y-75011000D03*
X178308000Y-72471000D03*
X178308000Y-69931000D03*
D11*
X163068000Y-87711000D03*
D12*
X163068000Y-85171000D03*
X163068000Y-82631000D03*
X163068000Y-80091000D03*
X163068000Y-77551000D03*
X163068000Y-75011000D03*
X163068000Y-72471000D03*
X163068000Y-69931000D03*
%TD*%
D15*
%TO.C,D1*%
X217424000Y-105669000D03*
D16*
X217424000Y-103129000D03*
%TD*%
D10*
%TO.C,REF\u002A\u002A*%
X133858000Y-62992000D03*
%TD*%
D18*
%TO.C,C5v1*%
X192786000Y-89672000D03*
D19*
X192786000Y-93472000D03*
%TD*%
D11*
%TO.C,NRF1*%
X140178000Y-68059000D03*
D12*
X142718000Y-68059000D03*
X145258000Y-68059000D03*
X147798000Y-68059000D03*
X150338000Y-68059000D03*
X152878000Y-68059000D03*
D11*
X142718000Y-105797000D03*
D20*
X142718000Y-103257000D03*
X145258000Y-105797000D03*
X145258000Y-103257000D03*
X147798000Y-105797000D03*
X147798000Y-103257000D03*
X150338000Y-105797000D03*
X150338000Y-103257000D03*
%TD*%
D10*
%TO.C,REF\u002A\u002A*%
X246888000Y-62992000D03*
%TD*%
D11*
%TO.C,A1*%
X166182000Y-101346000D03*
D18*
X176181857Y-101346000D03*
D12*
X166182000Y-103886000D03*
D21*
X176181857Y-103886000D03*
D12*
X166182000Y-106426000D03*
D21*
X176181857Y-106426000D03*
D12*
X166182000Y-108966000D03*
D21*
X176181857Y-108966000D03*
D12*
X166182000Y-111506000D03*
D21*
X176181857Y-111506000D03*
D12*
X166182000Y-114046000D03*
D21*
X176181857Y-114046000D03*
D12*
X166182000Y-116586000D03*
D21*
X176181857Y-116586000D03*
D12*
X166182000Y-119126000D03*
D21*
X176181857Y-119126000D03*
D12*
X166182000Y-121666000D03*
D21*
X176181857Y-121666000D03*
D12*
X166182000Y-124206000D03*
D21*
X176181857Y-124206000D03*
D12*
X166182000Y-126746000D03*
D21*
X176181857Y-126746000D03*
D12*
X166182000Y-129286000D03*
D21*
X176181857Y-129286000D03*
D12*
X166182000Y-131826000D03*
D21*
X176181857Y-131826000D03*
D12*
X166182000Y-134366000D03*
D21*
X176181857Y-134366000D03*
D12*
X166182000Y-136906000D03*
D21*
X176181857Y-136906000D03*
X191421857Y-136906000D03*
D12*
X201422000Y-136906000D03*
D21*
X191421857Y-134366000D03*
D12*
X201422000Y-134366000D03*
D21*
X191421857Y-131826000D03*
D12*
X201422000Y-131826000D03*
D21*
X191421857Y-129286000D03*
D12*
X201422000Y-129286000D03*
D21*
X191421857Y-126746000D03*
D12*
X201422000Y-126746000D03*
D21*
X191421857Y-124206000D03*
D12*
X201422000Y-124206000D03*
D21*
X191421857Y-121666000D03*
D12*
X201422000Y-121666000D03*
D21*
X191421857Y-119126000D03*
D12*
X201422000Y-119126000D03*
D21*
X191421857Y-116586000D03*
D12*
X201422000Y-116586000D03*
D21*
X191421857Y-114046000D03*
D12*
X201422000Y-114046000D03*
D21*
X191421857Y-111506000D03*
D12*
X201422000Y-111506000D03*
D21*
X191421857Y-108966000D03*
D12*
X201422000Y-108966000D03*
D21*
X191421857Y-106426000D03*
D12*
X201422000Y-106426000D03*
D21*
X191421857Y-103886000D03*
D12*
X201422000Y-103886000D03*
D21*
X191421857Y-101346000D03*
D11*
X201422000Y-101346000D03*
%TD*%
%TO.C,MOTOR_B1*%
X203708000Y-70839000D03*
D12*
X208788000Y-70839000D03*
%TD*%
D10*
%TO.C,REF\u002A\u002A*%
X133858000Y-146304000D03*
%TD*%
D22*
%TO.C,3v3_regulator1*%
X146558000Y-140356000D03*
D23*
X149098000Y-123696000D03*
D24*
X146558000Y-123696000D03*
X144018000Y-123696000D03*
%TD*%
D18*
%TO.C,C3.3v1*%
X144755349Y-113792000D03*
D19*
X148555349Y-113792000D03*
%TD*%
D10*
%TO.C,REF\u002A\u002A*%
X246888000Y-146304000D03*
%TD*%
D11*
%TO.C,POWER_INPUT1*%
X234796000Y-94488000D03*
D12*
X234796000Y-99568000D03*
%TD*%
D22*
%TO.C,U1*%
X207074000Y-81280000D03*
D25*
X190414000Y-78740000D03*
D26*
X190414000Y-81280000D03*
X190414000Y-83820000D03*
%TD*%
D15*
%TO.C,D3*%
X217424000Y-92461000D03*
D16*
X217424000Y-89921000D03*
%TD*%
D18*
%TO.C,C12v1*%
X205994000Y-89637349D03*
D19*
X205994000Y-93437349D03*
%TD*%
M02*
