M48
; DRILL file {KiCad 8.0.2} date 2024-06-06T15:09:32+0200
; FORMAT={-:-/ absolute / inch / decimal}
; #@! TF.CreationDate,2024-06-06T15:09:32+02:00
; #@! TF.GenerationSoftware,Kicad,Pcbnew,8.0.2
; #@! TF.FileFunction,Plated,1,2,PTH
FMAT,2
INCH
; #@! TA.AperFunction,Plated,PTH,ComponentDrill
T1C0.0276
; #@! TA.AperFunction,Plated,PTH,ComponentDrill
T2C0.0315
; #@! TA.AperFunction,Plated,PTH,ComponentDrill
T3C0.0354
; #@! TA.AperFunction,Plated,PTH,ComponentDrill
T4C0.0394
; #@! TA.AperFunction,Plated,PTH,ComponentDrill
T5C0.0433
%
G90
G05
T1
X8.73Y-3.54
X8.73Y-3.8
X8.73Y-4.0602
X9.03Y-3.54
X9.03Y-3.8
X9.03Y-4.0602
T2
X5.699Y-4.48
X5.8486Y-4.48
X7.59Y-3.5304
X7.59Y-3.68
X8.11Y-3.529
X8.11Y-3.6786
T3
X8.56Y-3.5402
X8.56Y-3.6402
X8.56Y-3.8002
X8.56Y-3.9002
X8.56Y-4.0602
X8.56Y-4.1602
T4
X5.5188Y-2.6795
X5.6188Y-2.6795
X5.6188Y-4.0652
X5.6188Y-4.1652
X5.7188Y-2.6795
X5.7188Y-4.0652
X5.7188Y-4.1652
X5.8188Y-2.6795
X5.8188Y-4.0652
X5.8188Y-4.1652
X5.9188Y-2.6795
X5.9188Y-4.0652
X5.9188Y-4.1652
X6.0188Y-2.6795
X6.42Y-2.7532
X6.42Y-2.8532
X6.42Y-2.9532
X6.42Y-3.0532
X6.42Y-3.1532
X6.42Y-3.2532
X6.42Y-3.3532
X6.42Y-3.4532
X6.5426Y-3.99
X6.5426Y-4.09
X6.5426Y-4.19
X6.5426Y-4.29
X6.5426Y-4.39
X6.5426Y-4.49
X6.5426Y-4.59
X6.5426Y-4.69
X6.5426Y-4.79
X6.5426Y-4.89
X6.5426Y-4.99
X6.5426Y-5.09
X6.5426Y-5.19
X6.5426Y-5.29
X6.5426Y-5.39
X6.9363Y-3.99
X6.9363Y-4.09
X6.9363Y-4.19
X6.9363Y-4.29
X6.9363Y-4.39
X6.9363Y-4.49
X6.9363Y-4.59
X6.9363Y-4.69
X6.9363Y-4.79
X6.9363Y-4.89
X6.9363Y-4.99
X6.9363Y-5.09
X6.9363Y-5.19
X6.9363Y-5.29
X6.9363Y-5.39
X7.02Y-2.7532
X7.02Y-2.8532
X7.02Y-2.9532
X7.02Y-3.0532
X7.02Y-3.1532
X7.02Y-3.2532
X7.02Y-3.3532
X7.02Y-3.4532
X7.47Y-2.7889
X7.5363Y-3.99
X7.5363Y-4.09
X7.5363Y-4.19
X7.5363Y-4.29
X7.5363Y-4.39
X7.5363Y-4.49
X7.5363Y-4.59
X7.5363Y-4.69
X7.5363Y-4.79
X7.5363Y-4.89
X7.5363Y-4.99
X7.5363Y-5.09
X7.5363Y-5.19
X7.5363Y-5.29
X7.5363Y-5.39
X7.67Y-2.7889
X7.93Y-3.99
X7.93Y-4.09
X7.93Y-4.19
X7.93Y-4.29
X7.93Y-4.39
X7.93Y-4.49
X7.93Y-4.59
X7.93Y-4.69
X7.93Y-4.79
X7.93Y-4.89
X7.93Y-4.99
X7.93Y-5.09
X7.93Y-5.19
X7.93Y-5.29
X7.93Y-5.39
X8.02Y-2.7889
X8.22Y-2.7889
X8.4523Y-3.1542
X8.5523Y-3.1542
X8.6523Y-3.1542
X8.7523Y-3.1542
X8.7722Y-5.5469
X8.8523Y-3.1542
X8.8722Y-5.5469
X8.9523Y-3.1542
X8.9722Y-5.5469
X9.0523Y-3.1542
X9.0722Y-5.5469
X9.1523Y-3.1542
X9.2439Y-3.72
X9.2439Y-3.92
X9.2523Y-3.1542
X9.3523Y-3.1542
T5
X5.67Y-4.8699
X5.77Y-4.8699
X5.87Y-4.8699
X7.4966Y-3.1
X7.4966Y-3.2
X7.4966Y-3.3
M30
