M48
; DRILL file {KiCad 8.0.2} date 2024-05-14T18:50:49+0200
; FORMAT={-:-/ absolute / inch / decimal}
; #@! TF.CreationDate,2024-05-14T18:50:49+02:00
; #@! TF.GenerationSoftware,Kicad,Pcbnew,8.0.2
; #@! TF.FileFunction,Plated,1,2,PTH
FMAT,2
INCH
; #@! TA.AperFunction,Plated,PTH,ComponentDrill
T1C0.0315
; #@! TA.AperFunction,Plated,PTH,ComponentDrill
T2C0.0354
; #@! TA.AperFunction,Plated,PTH,ComponentDrill
T3C0.0394
; #@! TA.AperFunction,Plated,PTH,ComponentDrill
T4C0.0433
; #@! TA.AperFunction,Plated,PTH,ComponentDrill
T5C0.0570
; #@! TA.AperFunction,Plated,PTH,ComponentDrill
T6C0.0906
%
G90
G05
T1
X4.96Y-1.2316
X4.96Y-1.33
T2
X6.1618Y-4.9916
X6.1618Y-5.09
X6.2444Y-5.09
X6.3468Y-5.09
X6.4295Y-4.9935
X6.4295Y-5.09
T3
X4.22Y-2.2563
X4.22Y-2.65
X4.22Y-3.25
X4.22Y-3.6437
X4.32Y-2.2563
X4.32Y-2.65
X4.32Y-3.25
X4.32Y-3.6437
X4.42Y-2.2563
X4.42Y-2.65
X4.42Y-3.25
X4.42Y-3.6437
X4.52Y-2.2563
X4.52Y-2.65
X4.52Y-3.25
X4.52Y-3.6437
X4.62Y-2.2563
X4.62Y-2.65
X4.62Y-3.25
X4.62Y-3.6437
X4.72Y-2.2563
X4.72Y-2.65
X4.72Y-3.25
X4.72Y-3.6437
X4.7604Y-4.1856
X4.82Y-2.2563
X4.82Y-2.65
X4.82Y-3.25
X4.82Y-3.6437
X4.8604Y-4.1856
X4.92Y-2.2563
X4.92Y-2.65
X4.92Y-3.25
X4.92Y-3.6437
X4.9604Y-4.1856
X5.02Y-2.2563
X5.02Y-2.65
X5.02Y-3.25
X5.02Y-3.6437
X5.0604Y-4.1856
X5.12Y-2.2563
X5.12Y-2.65
X5.12Y-3.25
X5.12Y-3.6437
X5.175Y-1.2988
X5.175Y-1.3988
X5.175Y-1.4988
X5.175Y-1.5988
X5.22Y-2.2563
X5.22Y-2.65
X5.22Y-3.25
X5.22Y-3.6437
X5.275Y-1.2988
X5.275Y-1.3988
X5.275Y-1.4988
X5.275Y-1.5988
X5.32Y-2.2563
X5.32Y-2.65
X5.32Y-3.25
X5.32Y-3.6437
X5.42Y-2.2563
X5.42Y-2.65
X5.42Y-3.25
X5.42Y-3.6437
X5.52Y-2.2563
X5.52Y-2.65
X5.52Y-3.25
X5.52Y-3.6437
X5.62Y-2.2563
X5.62Y-2.65
X5.62Y-3.25
X5.62Y-3.6437
X6.6607Y-1.1988
X6.6607Y-1.2988
X6.6607Y-1.3988
X6.6607Y-1.4988
X6.6607Y-1.5988
X6.6607Y-1.6988
T4
X4.7534Y-1.45
X4.7534Y-1.55
X4.7534Y-1.65
T5
X6.21Y-3.97
X6.21Y-4.13
X6.21Y-4.29
X6.2419Y-2.2016
X6.2419Y-2.3616
X6.2419Y-2.5216
X6.2419Y-2.78
X6.2419Y-2.94
X6.2419Y-3.1
X6.2419Y-3.26
X6.37Y-3.97
X6.37Y-4.13
X6.37Y-4.29
X6.37Y-4.45
T6
X6.0279Y-5.2081
X6.2956Y-5.2396
X6.5614Y-5.2081
M30
