%TF.GenerationSoftware,KiCad,Pcbnew,8.0.2*%
%TF.CreationDate,2024-05-05T23:20:41+02:00*%
%TF.ProjectId,arduino_nrf24_oled,61726475-696e-46f5-9f6e-726632345f6f,rev?*%
%TF.SameCoordinates,Original*%
%TF.FileFunction,Soldermask,Top*%
%TF.FilePolarity,Negative*%
%FSLAX46Y46*%
G04 Gerber Fmt 4.6, Leading zero omitted, Abs format (unit mm)*
G04 Created by KiCad (PCBNEW 8.0.2) date 2024-05-05 23:20:41*
%MOMM*%
%LPD*%
G01*
G04 APERTURE LIST*
%ADD10R,1.600000X1.600000*%
%ADD11C,1.600000*%
%ADD12O,1.600000X1.600000*%
%ADD13O,3.500000X3.500000*%
%ADD14R,1.905000X2.000000*%
%ADD15O,1.905000X2.000000*%
%ADD16R,1.700000X1.700000*%
%ADD17C,1.700000*%
G04 APERTURE END LIST*
D10*
%TO.C,C1*%
X121234200Y-79506200D03*
D11*
X118734200Y-79506200D03*
%TD*%
D10*
%TO.C,A1*%
X98184200Y-42556200D03*
D12*
X98184200Y-45096200D03*
X98184200Y-47636200D03*
X98184200Y-50176200D03*
X98184200Y-52716200D03*
X98184200Y-55256200D03*
X98184200Y-57796200D03*
X98184200Y-60336200D03*
X98184200Y-62876200D03*
X98184200Y-65416200D03*
X98184200Y-67956200D03*
X98184200Y-70496200D03*
X98184200Y-73036200D03*
X98184200Y-75576200D03*
X98184200Y-78116200D03*
X113424200Y-78116200D03*
X113424200Y-75576200D03*
X113424200Y-73036200D03*
X113424200Y-70496200D03*
X113424200Y-67956200D03*
X113424200Y-65416200D03*
X113424200Y-62876200D03*
X113424200Y-60336200D03*
X113424200Y-57796200D03*
X113424200Y-55256200D03*
X113424200Y-52716200D03*
X113424200Y-50176200D03*
X113424200Y-47636200D03*
X113424200Y-45096200D03*
X113424200Y-42556200D03*
%TD*%
D13*
%TO.C,U2*%
X121234200Y-58346200D03*
D14*
X118694200Y-75006200D03*
D15*
X121234200Y-75006200D03*
X123774200Y-75006200D03*
%TD*%
D16*
%TO.C,NRF24l01*%
X118155200Y-40746200D03*
D17*
X120695200Y-40746200D03*
X118155200Y-43286200D03*
X120695200Y-43286200D03*
X118155200Y-45826200D03*
X120695200Y-45826200D03*
X118155200Y-48366200D03*
X120695200Y-48366200D03*
%TD*%
M02*
