M48
; DRILL file {KiCad 8.0.2} date 2024-05-05T23:20:44+0200
; FORMAT={-:-/ absolute / inch / decimal}
; #@! TF.CreationDate,2024-05-05T23:20:44+02:00
; #@! TF.GenerationSoftware,Kicad,Pcbnew,8.0.2
; #@! TF.FileFunction,Plated,1,2,PTH
FMAT,2
INCH
; #@! TA.AperFunction,Plated,PTH,ComponentDrill
T1C0.0315
; #@! TA.AperFunction,Plated,PTH,ComponentDrill
T2C0.0394
; #@! TA.AperFunction,Plated,PTH,ComponentDrill
T3C0.0433
%
G90
G05
T1
X4.6746Y-3.1302
X4.773Y-3.1302
T2
X3.8655Y-1.6754
X3.8655Y-1.7754
X3.8655Y-1.8754
X3.8655Y-1.9754
X3.8655Y-2.0754
X3.8655Y-2.1754
X3.8655Y-2.2754
X3.8655Y-2.3754
X3.8655Y-2.4754
X3.8655Y-2.5754
X3.8655Y-2.6754
X3.8655Y-2.7754
X3.8655Y-2.8754
X3.8655Y-2.9754
X3.8655Y-3.0754
X4.4655Y-1.6754
X4.4655Y-1.7754
X4.4655Y-1.8754
X4.4655Y-1.9754
X4.4655Y-2.0754
X4.4655Y-2.1754
X4.4655Y-2.2754
X4.4655Y-2.3754
X4.4655Y-2.4754
X4.4655Y-2.5754
X4.4655Y-2.6754
X4.4655Y-2.7754
X4.4655Y-2.8754
X4.4655Y-2.9754
X4.4655Y-3.0754
X4.6518Y-1.6042
X4.6518Y-1.7042
X4.6518Y-1.8042
X4.6518Y-1.9042
X4.7518Y-1.6042
X4.7518Y-1.7042
X4.7518Y-1.8042
X4.7518Y-1.9042
T3
X4.673Y-2.953
X4.773Y-2.953
X4.873Y-2.953
M30
