%TF.GenerationSoftware,KiCad,Pcbnew,8.0.2*%
%TF.CreationDate,2024-05-05T23:20:41+02:00*%
%TF.ProjectId,arduino_nrf24_oled,61726475-696e-46f5-9f6e-726632345f6f,rev?*%
%TF.SameCoordinates,Original*%
%TF.FileFunction,Copper,L2,Bot*%
%TF.FilePolarity,Positive*%
%FSLAX46Y46*%
G04 Gerber Fmt 4.6, Leading zero omitted, Abs format (unit mm)*
G04 Created by KiCad (PCBNEW 8.0.2) date 2024-05-05 23:20:41*
%MOMM*%
%LPD*%
G01*
G04 APERTURE LIST*
%TA.AperFunction,ComponentPad*%
%ADD10R,1.600000X1.600000*%
%TD*%
%TA.AperFunction,ComponentPad*%
%ADD11C,1.600000*%
%TD*%
%TA.AperFunction,ComponentPad*%
%ADD12O,1.600000X1.600000*%
%TD*%
%TA.AperFunction,ComponentPad*%
%ADD13R,1.905000X2.000000*%
%TD*%
%TA.AperFunction,ComponentPad*%
%ADD14O,1.905000X2.000000*%
%TD*%
%TA.AperFunction,ComponentPad*%
%ADD15R,1.700000X1.700000*%
%TD*%
%TA.AperFunction,ComponentPad*%
%ADD16C,1.700000*%
%TD*%
G04 APERTURE END LIST*
D10*
%TO.P,C1,1*%
%TO.N,Net-(U1-VCC)*%
X121234200Y-79506200D03*
D11*
%TO.P,C1,2*%
%TO.N,Net-(U1-GND)*%
X118734200Y-79506200D03*
%TD*%
D10*
%TO.P,A1,1,D1/TX*%
%TO.N,unconnected-(A1-D1{slash}TX-Pad1)*%
X98184200Y-42556200D03*
D12*
%TO.P,A1,2,D0/RX*%
%TO.N,unconnected-(A1-D0{slash}RX-Pad2)*%
X98184200Y-45096200D03*
%TO.P,A1,3,~{RESET}*%
%TO.N,unconnected-(A1-~{RESET}-Pad3)*%
X98184200Y-47636200D03*
%TO.P,A1,4,GND*%
%TO.N,unconnected-(A1-GND-Pad4)*%
X98184200Y-50176200D03*
%TO.P,A1,5,D2*%
%TO.N,unconnected-(A1-D2-Pad5)*%
X98184200Y-52716200D03*
%TO.P,A1,6,D3*%
%TO.N,unconnected-(A1-D3-Pad6)*%
X98184200Y-55256200D03*
%TO.P,A1,7,D4*%
%TO.N,unconnected-(A1-D4-Pad7)*%
X98184200Y-57796200D03*
%TO.P,A1,8,D5*%
%TO.N,unconnected-(A1-D5-Pad8)*%
X98184200Y-60336200D03*
%TO.P,A1,9,D6*%
%TO.N,unconnected-(A1-D6-Pad9)*%
X98184200Y-62876200D03*
%TO.P,A1,10,D7*%
%TO.N,unconnected-(A1-D7-Pad10)*%
X98184200Y-65416200D03*
%TO.P,A1,11,D8*%
%TO.N,Net-(A1-D8)*%
X98184200Y-67956200D03*
%TO.P,A1,12,D9*%
%TO.N,Net-(A1-D9)*%
X98184200Y-70496200D03*
%TO.P,A1,13,D10*%
%TO.N,unconnected-(A1-D10-Pad13)*%
X98184200Y-73036200D03*
%TO.P,A1,14,D11*%
%TO.N,Net-(A1-D11)*%
X98184200Y-75576200D03*
%TO.P,A1,15,D12*%
%TO.N,Net-(A1-D12)*%
X98184200Y-78116200D03*
%TO.P,A1,16,D13*%
%TO.N,Net-(A1-D13)*%
X113424200Y-78116200D03*
%TO.P,A1,17,3V3*%
%TO.N,unconnected-(A1-3V3-Pad17)*%
X113424200Y-75576200D03*
%TO.P,A1,18,AREF*%
%TO.N,unconnected-(A1-AREF-Pad18)*%
X113424200Y-73036200D03*
%TO.P,A1,19,A0*%
%TO.N,unconnected-(A1-A0-Pad19)*%
X113424200Y-70496200D03*
%TO.P,A1,20,A1*%
%TO.N,unconnected-(A1-A1-Pad20)*%
X113424200Y-67956200D03*
%TO.P,A1,21,A2*%
%TO.N,unconnected-(A1-A2-Pad21)*%
X113424200Y-65416200D03*
%TO.P,A1,22,A3*%
%TO.N,unconnected-(A1-A3-Pad22)*%
X113424200Y-62876200D03*
%TO.P,A1,23,A4*%
%TO.N,unconnected-(A1-A4-Pad23)*%
X113424200Y-60336200D03*
%TO.P,A1,24,A5*%
%TO.N,unconnected-(A1-A5-Pad24)*%
X113424200Y-57796200D03*
%TO.P,A1,25,A6*%
%TO.N,unconnected-(A1-A6-Pad25)*%
X113424200Y-55256200D03*
%TO.P,A1,26,A7*%
%TO.N,unconnected-(A1-A7-Pad26)*%
X113424200Y-52716200D03*
%TO.P,A1,27,+5V*%
%TO.N,Net-(A1-+5V)*%
X113424200Y-50176200D03*
%TO.P,A1,28,~{RESET}*%
%TO.N,unconnected-(A1-~{RESET}-Pad28)*%
X113424200Y-47636200D03*
%TO.P,A1,29,GND*%
%TO.N,Net-(U1-GND)*%
X113424200Y-45096200D03*
%TO.P,A1,30,VIN*%
%TO.N,unconnected-(A1-VIN-Pad30)*%
X113424200Y-42556200D03*
%TD*%
D13*
%TO.P,U2,1,GND*%
%TO.N,Net-(U1-GND)*%
X118694200Y-75006200D03*
D14*
%TO.P,U2,2,VO*%
%TO.N,Net-(U1-VCC)*%
X121234200Y-75006200D03*
%TO.P,U2,3,VI*%
%TO.N,Net-(A1-+5V)*%
X123774200Y-75006200D03*
%TD*%
D15*
%TO.P,NRF24l01,1,GND*%
%TO.N,Net-(U1-GND)*%
X118155200Y-40746200D03*
D16*
%TO.P,NRF24l01,2,VCC*%
%TO.N,Net-(U1-VCC)*%
X120695200Y-40746200D03*
%TO.P,NRF24l01,3,CE*%
%TO.N,Net-(A1-D8)*%
X118155200Y-43286200D03*
%TO.P,NRF24l01,4,~{CSN}*%
%TO.N,Net-(A1-D9)*%
X120695200Y-43286200D03*
%TO.P,NRF24l01,5,SCK*%
%TO.N,Net-(A1-D13)*%
X118155200Y-45826200D03*
%TO.P,NRF24l01,6,MOSI*%
%TO.N,Net-(A1-D11)*%
X120695200Y-45826200D03*
%TO.P,NRF24l01,7,MISO*%
%TO.N,Net-(A1-D12)*%
X118155200Y-48366200D03*
%TO.P,NRF24l01,8,IRQ*%
%TO.N,unconnected-(U1-IRQ-Pad8)*%
X120695200Y-48366200D03*
%TD*%
M02*
