%TF.GenerationSoftware,KiCad,Pcbnew,8.0.2*%
%TF.CreationDate,2024-05-05T23:20:41+02:00*%
%TF.ProjectId,arduino_nrf24_oled,61726475-696e-46f5-9f6e-726632345f6f,rev?*%
%TF.SameCoordinates,Original*%
%TF.FileFunction,Legend,Top*%
%TF.FilePolarity,Positive*%
%FSLAX46Y46*%
G04 Gerber Fmt 4.6, Leading zero omitted, Abs format (unit mm)*
G04 Created by KiCad (PCBNEW 8.0.2) date 2024-05-05 23:20:41*
%MOMM*%
%LPD*%
G01*
G04 APERTURE LIST*
%ADD10C,0.150000*%
%ADD11C,0.120000*%
G04 APERTURE END LIST*
D10*
X119817533Y-83615780D02*
X119769914Y-83663400D01*
X119769914Y-83663400D02*
X119627057Y-83711019D01*
X119627057Y-83711019D02*
X119531819Y-83711019D01*
X119531819Y-83711019D02*
X119388962Y-83663400D01*
X119388962Y-83663400D02*
X119293724Y-83568161D01*
X119293724Y-83568161D02*
X119246105Y-83472923D01*
X119246105Y-83472923D02*
X119198486Y-83282447D01*
X119198486Y-83282447D02*
X119198486Y-83139590D01*
X119198486Y-83139590D02*
X119246105Y-82949114D01*
X119246105Y-82949114D02*
X119293724Y-82853876D01*
X119293724Y-82853876D02*
X119388962Y-82758638D01*
X119388962Y-82758638D02*
X119531819Y-82711019D01*
X119531819Y-82711019D02*
X119627057Y-82711019D01*
X119627057Y-82711019D02*
X119769914Y-82758638D01*
X119769914Y-82758638D02*
X119817533Y-82806257D01*
X120769914Y-83711019D02*
X120198486Y-83711019D01*
X120484200Y-83711019D02*
X120484200Y-82711019D01*
X120484200Y-82711019D02*
X120388962Y-82853876D01*
X120388962Y-82853876D02*
X120293724Y-82949114D01*
X120293724Y-82949114D02*
X120198486Y-82996733D01*
X105089914Y-37645304D02*
X105566104Y-37645304D01*
X104994676Y-37931019D02*
X105328009Y-36931019D01*
X105328009Y-36931019D02*
X105661342Y-37931019D01*
X106518485Y-37931019D02*
X105947057Y-37931019D01*
X106232771Y-37931019D02*
X106232771Y-36931019D01*
X106232771Y-36931019D02*
X106137533Y-37073876D01*
X106137533Y-37073876D02*
X106042295Y-37169114D01*
X106042295Y-37169114D02*
X105947057Y-37216733D01*
X104542295Y-77571019D02*
X104542295Y-78380542D01*
X104542295Y-78380542D02*
X104589914Y-78475780D01*
X104589914Y-78475780D02*
X104637533Y-78523400D01*
X104637533Y-78523400D02*
X104732771Y-78571019D01*
X104732771Y-78571019D02*
X104923247Y-78571019D01*
X104923247Y-78571019D02*
X105018485Y-78523400D01*
X105018485Y-78523400D02*
X105066104Y-78475780D01*
X105066104Y-78475780D02*
X105113723Y-78380542D01*
X105113723Y-78380542D02*
X105113723Y-77571019D01*
X105542295Y-78523400D02*
X105685152Y-78571019D01*
X105685152Y-78571019D02*
X105923247Y-78571019D01*
X105923247Y-78571019D02*
X106018485Y-78523400D01*
X106018485Y-78523400D02*
X106066104Y-78475780D01*
X106066104Y-78475780D02*
X106113723Y-78380542D01*
X106113723Y-78380542D02*
X106113723Y-78285304D01*
X106113723Y-78285304D02*
X106066104Y-78190066D01*
X106066104Y-78190066D02*
X106018485Y-78142447D01*
X106018485Y-78142447D02*
X105923247Y-78094828D01*
X105923247Y-78094828D02*
X105732771Y-78047209D01*
X105732771Y-78047209D02*
X105637533Y-77999590D01*
X105637533Y-77999590D02*
X105589914Y-77951971D01*
X105589914Y-77951971D02*
X105542295Y-77856733D01*
X105542295Y-77856733D02*
X105542295Y-77761495D01*
X105542295Y-77761495D02*
X105589914Y-77666257D01*
X105589914Y-77666257D02*
X105637533Y-77618638D01*
X105637533Y-77618638D02*
X105732771Y-77571019D01*
X105732771Y-77571019D02*
X105970866Y-77571019D01*
X105970866Y-77571019D02*
X106113723Y-77618638D01*
X106875628Y-78047209D02*
X107018485Y-78094828D01*
X107018485Y-78094828D02*
X107066104Y-78142447D01*
X107066104Y-78142447D02*
X107113723Y-78237685D01*
X107113723Y-78237685D02*
X107113723Y-78380542D01*
X107113723Y-78380542D02*
X107066104Y-78475780D01*
X107066104Y-78475780D02*
X107018485Y-78523400D01*
X107018485Y-78523400D02*
X106923247Y-78571019D01*
X106923247Y-78571019D02*
X106542295Y-78571019D01*
X106542295Y-78571019D02*
X106542295Y-77571019D01*
X106542295Y-77571019D02*
X106875628Y-77571019D01*
X106875628Y-77571019D02*
X106970866Y-77618638D01*
X106970866Y-77618638D02*
X107018485Y-77666257D01*
X107018485Y-77666257D02*
X107066104Y-77761495D01*
X107066104Y-77761495D02*
X107066104Y-77856733D01*
X107066104Y-77856733D02*
X107018485Y-77951971D01*
X107018485Y-77951971D02*
X106970866Y-77999590D01*
X106970866Y-77999590D02*
X106875628Y-78047209D01*
X106875628Y-78047209D02*
X106542295Y-78047209D01*
X120472295Y-53881019D02*
X120472295Y-54690542D01*
X120472295Y-54690542D02*
X120519914Y-54785780D01*
X120519914Y-54785780D02*
X120567533Y-54833400D01*
X120567533Y-54833400D02*
X120662771Y-54881019D01*
X120662771Y-54881019D02*
X120853247Y-54881019D01*
X120853247Y-54881019D02*
X120948485Y-54833400D01*
X120948485Y-54833400D02*
X120996104Y-54785780D01*
X120996104Y-54785780D02*
X121043723Y-54690542D01*
X121043723Y-54690542D02*
X121043723Y-53881019D01*
X121472295Y-53976257D02*
X121519914Y-53928638D01*
X121519914Y-53928638D02*
X121615152Y-53881019D01*
X121615152Y-53881019D02*
X121853247Y-53881019D01*
X121853247Y-53881019D02*
X121948485Y-53928638D01*
X121948485Y-53928638D02*
X121996104Y-53976257D01*
X121996104Y-53976257D02*
X122043723Y-54071495D01*
X122043723Y-54071495D02*
X122043723Y-54166733D01*
X122043723Y-54166733D02*
X121996104Y-54309590D01*
X121996104Y-54309590D02*
X121424676Y-54881019D01*
X121424676Y-54881019D02*
X122043723Y-54881019D01*
X117802447Y-52372419D02*
X117802447Y-51372419D01*
X117802447Y-51372419D02*
X118373875Y-52372419D01*
X118373875Y-52372419D02*
X118373875Y-51372419D01*
X119421494Y-52372419D02*
X119088161Y-51896228D01*
X118850066Y-52372419D02*
X118850066Y-51372419D01*
X118850066Y-51372419D02*
X119231018Y-51372419D01*
X119231018Y-51372419D02*
X119326256Y-51420038D01*
X119326256Y-51420038D02*
X119373875Y-51467657D01*
X119373875Y-51467657D02*
X119421494Y-51562895D01*
X119421494Y-51562895D02*
X119421494Y-51705752D01*
X119421494Y-51705752D02*
X119373875Y-51800990D01*
X119373875Y-51800990D02*
X119326256Y-51848609D01*
X119326256Y-51848609D02*
X119231018Y-51896228D01*
X119231018Y-51896228D02*
X118850066Y-51896228D01*
X120183399Y-51848609D02*
X119850066Y-51848609D01*
X119850066Y-52372419D02*
X119850066Y-51372419D01*
X119850066Y-51372419D02*
X120326256Y-51372419D01*
X120659590Y-51467657D02*
X120707209Y-51420038D01*
X120707209Y-51420038D02*
X120802447Y-51372419D01*
X120802447Y-51372419D02*
X121040542Y-51372419D01*
X121040542Y-51372419D02*
X121135780Y-51420038D01*
X121135780Y-51420038D02*
X121183399Y-51467657D01*
X121183399Y-51467657D02*
X121231018Y-51562895D01*
X121231018Y-51562895D02*
X121231018Y-51658133D01*
X121231018Y-51658133D02*
X121183399Y-51800990D01*
X121183399Y-51800990D02*
X120611971Y-52372419D01*
X120611971Y-52372419D02*
X121231018Y-52372419D01*
X122088161Y-51705752D02*
X122088161Y-52372419D01*
X121850066Y-51324800D02*
X121611971Y-52039085D01*
X121611971Y-52039085D02*
X122231018Y-52039085D01*
X122754828Y-52372419D02*
X122659590Y-52324800D01*
X122659590Y-52324800D02*
X122611971Y-52229561D01*
X122611971Y-52229561D02*
X122611971Y-51372419D01*
X123326257Y-51372419D02*
X123421495Y-51372419D01*
X123421495Y-51372419D02*
X123516733Y-51420038D01*
X123516733Y-51420038D02*
X123564352Y-51467657D01*
X123564352Y-51467657D02*
X123611971Y-51562895D01*
X123611971Y-51562895D02*
X123659590Y-51753371D01*
X123659590Y-51753371D02*
X123659590Y-51991466D01*
X123659590Y-51991466D02*
X123611971Y-52181942D01*
X123611971Y-52181942D02*
X123564352Y-52277180D01*
X123564352Y-52277180D02*
X123516733Y-52324800D01*
X123516733Y-52324800D02*
X123421495Y-52372419D01*
X123421495Y-52372419D02*
X123326257Y-52372419D01*
X123326257Y-52372419D02*
X123231019Y-52324800D01*
X123231019Y-52324800D02*
X123183400Y-52277180D01*
X123183400Y-52277180D02*
X123135781Y-52181942D01*
X123135781Y-52181942D02*
X123088162Y-51991466D01*
X123088162Y-51991466D02*
X123088162Y-51753371D01*
X123088162Y-51753371D02*
X123135781Y-51562895D01*
X123135781Y-51562895D02*
X123183400Y-51467657D01*
X123183400Y-51467657D02*
X123231019Y-51420038D01*
X123231019Y-51420038D02*
X123326257Y-51372419D01*
X124611971Y-52372419D02*
X124040543Y-52372419D01*
X124326257Y-52372419D02*
X124326257Y-51372419D01*
X124326257Y-51372419D02*
X124231019Y-51515276D01*
X124231019Y-51515276D02*
X124135781Y-51610514D01*
X124135781Y-51610514D02*
X124040543Y-51658133D01*
D11*
%TO.C,C1*%
X122788975Y-80981200D02*
X122288975Y-80981200D01*
X122538975Y-81231200D02*
X122538975Y-80731200D01*
X119984200Y-82086200D02*
X119984200Y-76926200D01*
X119944200Y-82086200D02*
X119944200Y-76926200D01*
X119904200Y-82085200D02*
X119904200Y-76927200D01*
X119864200Y-82084200D02*
X119864200Y-76928200D01*
X119824200Y-82082200D02*
X119824200Y-76930200D01*
X119784200Y-82079200D02*
X119784200Y-76933200D01*
X119744200Y-82075200D02*
X119744200Y-80546200D01*
X119744200Y-78466200D02*
X119744200Y-76937200D01*
X119704200Y-82071200D02*
X119704200Y-80546200D01*
X119704200Y-78466200D02*
X119704200Y-76941200D01*
X119664200Y-82067200D02*
X119664200Y-80546200D01*
X119664200Y-78466200D02*
X119664200Y-76945200D01*
X119624200Y-82062200D02*
X119624200Y-80546200D01*
X119624200Y-78466200D02*
X119624200Y-76950200D01*
X119584200Y-82056200D02*
X119584200Y-80546200D01*
X119584200Y-78466200D02*
X119584200Y-76956200D01*
X119544200Y-82049200D02*
X119544200Y-80546200D01*
X119544200Y-78466200D02*
X119544200Y-76963200D01*
X119504200Y-82042200D02*
X119504200Y-80546200D01*
X119504200Y-78466200D02*
X119504200Y-76970200D01*
X119464200Y-82034200D02*
X119464200Y-80546200D01*
X119464200Y-78466200D02*
X119464200Y-76978200D01*
X119424200Y-82026200D02*
X119424200Y-80546200D01*
X119424200Y-78466200D02*
X119424200Y-76986200D01*
X119384200Y-82017200D02*
X119384200Y-80546200D01*
X119384200Y-78466200D02*
X119384200Y-76995200D01*
X119344200Y-82007200D02*
X119344200Y-80546200D01*
X119344200Y-78466200D02*
X119344200Y-77005200D01*
X119304200Y-81997200D02*
X119304200Y-80546200D01*
X119304200Y-78466200D02*
X119304200Y-77015200D01*
X119263200Y-81986200D02*
X119263200Y-80546200D01*
X119263200Y-78466200D02*
X119263200Y-77026200D01*
X119223200Y-81974200D02*
X119223200Y-80546200D01*
X119223200Y-78466200D02*
X119223200Y-77038200D01*
X119183200Y-81961200D02*
X119183200Y-80546200D01*
X119183200Y-78466200D02*
X119183200Y-77051200D01*
X119143200Y-81948200D02*
X119143200Y-80546200D01*
X119143200Y-78466200D02*
X119143200Y-77064200D01*
X119103200Y-81934200D02*
X119103200Y-80546200D01*
X119103200Y-78466200D02*
X119103200Y-77078200D01*
X119063200Y-81920200D02*
X119063200Y-80546200D01*
X119063200Y-78466200D02*
X119063200Y-77092200D01*
X119023200Y-81904200D02*
X119023200Y-80546200D01*
X119023200Y-78466200D02*
X119023200Y-77108200D01*
X118983200Y-81888200D02*
X118983200Y-80546200D01*
X118983200Y-78466200D02*
X118983200Y-77124200D01*
X118943200Y-81871200D02*
X118943200Y-80546200D01*
X118943200Y-78466200D02*
X118943200Y-77141200D01*
X118903200Y-81854200D02*
X118903200Y-80546200D01*
X118903200Y-78466200D02*
X118903200Y-77158200D01*
X118863200Y-81835200D02*
X118863200Y-80546200D01*
X118863200Y-78466200D02*
X118863200Y-77177200D01*
X118823200Y-81816200D02*
X118823200Y-80546200D01*
X118823200Y-78466200D02*
X118823200Y-77196200D01*
X118783200Y-81796200D02*
X118783200Y-80546200D01*
X118783200Y-78466200D02*
X118783200Y-77216200D01*
X118743200Y-81774200D02*
X118743200Y-80546200D01*
X118743200Y-78466200D02*
X118743200Y-77238200D01*
X118703200Y-81753200D02*
X118703200Y-80546200D01*
X118703200Y-78466200D02*
X118703200Y-77259200D01*
X118663200Y-81730200D02*
X118663200Y-80546200D01*
X118663200Y-78466200D02*
X118663200Y-77282200D01*
X118623200Y-81706200D02*
X118623200Y-80546200D01*
X118623200Y-78466200D02*
X118623200Y-77306200D01*
X118583200Y-81681200D02*
X118583200Y-80546200D01*
X118583200Y-78466200D02*
X118583200Y-77331200D01*
X118543200Y-81655200D02*
X118543200Y-80546200D01*
X118543200Y-78466200D02*
X118543200Y-77357200D01*
X118503200Y-81628200D02*
X118503200Y-80546200D01*
X118503200Y-78466200D02*
X118503200Y-77384200D01*
X118463200Y-81601200D02*
X118463200Y-80546200D01*
X118463200Y-78466200D02*
X118463200Y-77411200D01*
X118423200Y-81571200D02*
X118423200Y-80546200D01*
X118423200Y-78466200D02*
X118423200Y-77441200D01*
X118383200Y-81541200D02*
X118383200Y-80546200D01*
X118383200Y-78466200D02*
X118383200Y-77471200D01*
X118343200Y-81510200D02*
X118343200Y-80546200D01*
X118343200Y-78466200D02*
X118343200Y-77502200D01*
X118303200Y-81477200D02*
X118303200Y-80546200D01*
X118303200Y-78466200D02*
X118303200Y-77535200D01*
X118263200Y-81443200D02*
X118263200Y-80546200D01*
X118263200Y-78466200D02*
X118263200Y-77569200D01*
X118223200Y-81407200D02*
X118223200Y-80546200D01*
X118223200Y-78466200D02*
X118223200Y-77605200D01*
X118183200Y-81370200D02*
X118183200Y-80546200D01*
X118183200Y-78466200D02*
X118183200Y-77642200D01*
X118143200Y-81332200D02*
X118143200Y-80546200D01*
X118143200Y-78466200D02*
X118143200Y-77680200D01*
X118103200Y-81291200D02*
X118103200Y-80546200D01*
X118103200Y-78466200D02*
X118103200Y-77721200D01*
X118063200Y-81249200D02*
X118063200Y-80546200D01*
X118063200Y-78466200D02*
X118063200Y-77763200D01*
X118023200Y-81205200D02*
X118023200Y-80546200D01*
X118023200Y-78466200D02*
X118023200Y-77807200D01*
X117983200Y-81159200D02*
X117983200Y-80546200D01*
X117983200Y-78466200D02*
X117983200Y-77853200D01*
X117943200Y-81111200D02*
X117943200Y-80546200D01*
X117943200Y-78466200D02*
X117943200Y-77901200D01*
X117903200Y-81060200D02*
X117903200Y-80546200D01*
X117903200Y-78466200D02*
X117903200Y-77952200D01*
X117863200Y-81006200D02*
X117863200Y-80546200D01*
X117863200Y-78466200D02*
X117863200Y-78006200D01*
X117823200Y-80949200D02*
X117823200Y-80546200D01*
X117823200Y-78466200D02*
X117823200Y-78063200D01*
X117783200Y-80889200D02*
X117783200Y-80546200D01*
X117783200Y-78466200D02*
X117783200Y-78123200D01*
X117743200Y-80825200D02*
X117743200Y-80546200D01*
X117743200Y-78466200D02*
X117743200Y-78187200D01*
X117703200Y-80757200D02*
X117703200Y-80546200D01*
X117703200Y-78466200D02*
X117703200Y-78255200D01*
X117663200Y-80684200D02*
X117663200Y-78328200D01*
X117623200Y-80604200D02*
X117623200Y-78408200D01*
X117583200Y-80517200D02*
X117583200Y-78495200D01*
X117543200Y-80421200D02*
X117543200Y-78591200D01*
X117503200Y-80311200D02*
X117503200Y-78701200D01*
X117463200Y-80183200D02*
X117463200Y-78829200D01*
X117423200Y-80024200D02*
X117423200Y-78988200D01*
X117383200Y-79790200D02*
X117383200Y-79222200D01*
X122604200Y-79506200D02*
G75*
G02*
X117364200Y-79506200I-2620000J0D01*
G01*
X117364200Y-79506200D02*
G75*
G02*
X122604200Y-79506200I2620000J0D01*
G01*
%TO.C,A1*%
X96784200Y-38616200D02*
X96784200Y-41286200D01*
X96784200Y-43826200D02*
X96784200Y-82056200D01*
X96784200Y-82056200D02*
X101864200Y-82056200D01*
X99454200Y-41286200D02*
X96784200Y-41286200D01*
X99454200Y-43826200D02*
X96784200Y-43826200D01*
X99454200Y-43826200D02*
X99454200Y-41286200D01*
X99454200Y-43826200D02*
X99454200Y-79386200D01*
X99454200Y-79386200D02*
X96784200Y-79386200D01*
X101864200Y-74176200D02*
X109744200Y-74176200D01*
X101864200Y-84596200D02*
X101864200Y-74176200D01*
X109744200Y-74176200D02*
X109744200Y-84596200D01*
X109744200Y-84596200D02*
X101864200Y-84596200D01*
X112154200Y-41286200D02*
X112154200Y-79386200D01*
X112154200Y-41286200D02*
X114824200Y-41286200D01*
X112154200Y-79386200D02*
X114824200Y-79386200D01*
X114824200Y-38616200D02*
X96784200Y-38616200D01*
X114824200Y-82056200D02*
X109744200Y-82056200D01*
X114824200Y-82056200D02*
X114824200Y-38616200D01*
%TO.C,U2*%
X116114200Y-55426200D02*
X116114200Y-71316200D01*
X116114200Y-55426200D02*
X126354200Y-55426200D01*
X116114200Y-71316200D02*
X126354200Y-71316200D01*
X118694200Y-71316200D02*
X118694200Y-73856200D01*
X121234200Y-71316200D02*
X121234200Y-73856200D01*
X123774200Y-71316200D02*
X123774200Y-73856200D01*
X126354200Y-55426200D02*
X126354200Y-71316200D01*
%TO.C,NRF24l01*%
X116555200Y-38646200D02*
X116555200Y-38646200D01*
X116555200Y-38646200D02*
X145755200Y-38646200D01*
X116555200Y-54096200D02*
X116555200Y-38646200D01*
X116885200Y-39222200D02*
X116885200Y-39222200D01*
X116885200Y-39222200D02*
X122219200Y-39222200D01*
X116885200Y-49890200D02*
X116885200Y-39222200D01*
X116885200Y-49890200D02*
X116885200Y-49890200D01*
X122219200Y-39222200D02*
X122219200Y-49890200D01*
X122219200Y-49890200D02*
X116885200Y-49890200D01*
X145755200Y-38646200D02*
X145755200Y-54096200D01*
X145755200Y-54096200D02*
X116555200Y-54096200D01*
X116355200Y-40746200D02*
X116019200Y-40986200D01*
X116019200Y-40506200D01*
X116355200Y-40746200D01*
G36*
X116355200Y-40746200D02*
G01*
X116019200Y-40986200D01*
X116019200Y-40506200D01*
X116355200Y-40746200D01*
G37*
%TD*%
M02*
