%TF.GenerationSoftware,KiCad,Pcbnew,8.0.3*%
%TF.CreationDate,2024-06-28T16:27:34+02:00*%
%TF.ProjectId,multiradio,6d756c74-6972-4616-9469-6f2e6b696361,rev?*%
%TF.SameCoordinates,Original*%
%TF.FileFunction,Copper,L2,Bot*%
%TF.FilePolarity,Positive*%
%FSLAX46Y46*%
G04 Gerber Fmt 4.6, Leading zero omitted, Abs format (unit mm)*
G04 Created by KiCad (PCBNEW 8.0.3) date 2024-06-28 16:27:34*
%MOMM*%
%LPD*%
G01*
G04 APERTURE LIST*
%TA.AperFunction,ComponentPad*%
%ADD10R,1.700000X1.700000*%
%TD*%
%TA.AperFunction,ComponentPad*%
%ADD11O,1.700000X1.700000*%
%TD*%
%TA.AperFunction,ComponentPad*%
%ADD12C,3.048000*%
%TD*%
%TA.AperFunction,ComponentPad*%
%ADD13C,1.270000*%
%TD*%
%TA.AperFunction,ComponentPad*%
%ADD14C,4.000000*%
%TD*%
%TA.AperFunction,ComponentPad*%
%ADD15C,2.000000*%
%TD*%
%TA.AperFunction,ComponentPad*%
%ADD16R,2.400000X2.400000*%
%TD*%
%TA.AperFunction,ComponentPad*%
%ADD17C,2.400000*%
%TD*%
%TA.AperFunction,ComponentPad*%
%ADD18C,2.540000*%
%TD*%
%TA.AperFunction,ComponentPad*%
%ADD19R,1.905000X2.000000*%
%TD*%
%TA.AperFunction,ComponentPad*%
%ADD20O,1.905000X2.000000*%
%TD*%
%TA.AperFunction,ComponentPad*%
%ADD21C,3.100000*%
%TD*%
%TA.AperFunction,ComponentPad*%
%ADD22O,2.650000X0.850000*%
%TD*%
%TA.AperFunction,ComponentPad*%
%ADD23O,1.200000X0.800000*%
%TD*%
%TA.AperFunction,ComponentPad*%
%ADD24C,1.422400*%
%TD*%
%TA.AperFunction,ComponentPad*%
%ADD25O,1.422400X1.422400*%
%TD*%
%TA.AperFunction,ComponentPad*%
%ADD26C,3.500000*%
%TD*%
%TA.AperFunction,ComponentPad*%
%ADD27C,2.100000*%
%TD*%
%TA.AperFunction,ComponentPad*%
%ADD28C,1.700000*%
%TD*%
%TA.AperFunction,ComponentPad*%
%ADD29R,1.600000X1.600000*%
%TD*%
%TA.AperFunction,ComponentPad*%
%ADD30O,1.600000X1.600000*%
%TD*%
%TA.AperFunction,Conductor*%
%ADD31C,0.300000*%
%TD*%
G04 APERTURE END LIST*
D10*
%TO.P,Display1,1,SDA*%
%TO.N,Net-(A1-A4)*%
X133537000Y-121365000D03*
D11*
%TO.P,Display1,2,SCL*%
%TO.N,Net-(A1-A5)*%
X133537000Y-118825000D03*
%TO.P,Display1,3,GND*%
%TO.N,Net-(3v3_regulator1-GND)*%
X133537000Y-116285000D03*
%TO.P,Display1,4,VCC*%
%TO.N,Net-(3v3_regulator1-VI)*%
X133537000Y-113745000D03*
%TD*%
D12*
%TO.P,wii1,*%
%TO.N,*%
X196996750Y-132334000D03*
X196996750Y-127000000D03*
X184296750Y-132334000D03*
X184296750Y-127000000D03*
D13*
%TO.P,wii1,1,VCC_3.3V*%
%TO.N,Net-(3v3_regulator1-VO)*%
X188741750Y-124206000D03*
%TO.P,wii1,2,SCL*%
%TO.N,Net-(U2-LV2)*%
X188741750Y-126111000D03*
%TO.P,wii1,3,Detect_device*%
%TO.N,unconnected-(wii1-Detect_device-Pad3)*%
X190646750Y-124206000D03*
%TO.P,wii1,4,NC*%
%TO.N,unconnected-(wii1-NC-Pad4)*%
X190646750Y-126111000D03*
%TO.P,wii1,5,SDA*%
%TO.N,Net-(U2-LV1)*%
X192551750Y-124206000D03*
%TO.P,wii1,6,GND*%
%TO.N,Net-(3v3_regulator1-GND)*%
X192551750Y-126111000D03*
%TD*%
D14*
%TO.P,Playstation1,*%
%TO.N,*%
X183476000Y-54888000D03*
D15*
%TO.P,Playstation1,1,DATA*%
%TO.N,Net-(Playstation1-DATA)*%
X188976000Y-70888000D03*
%TO.P,Playstation1,2,CMD*%
%TO.N,Net-(Playstation1-CMD)*%
X188976000Y-66888000D03*
%TO.P,Playstation1,3,MOTOR*%
%TO.N,unconnected-(Playstation1-MOTOR-Pad3)*%
X188976000Y-62888000D03*
%TO.P,Playstation1,4,GND*%
%TO.N,Net-(3v3_regulator1-GND)*%
X188976000Y-58888000D03*
%TO.P,Playstation1,5,3.3V*%
%TO.N,Net-(3v3_regulator1-VO)*%
X188976000Y-54888000D03*
%TO.P,Playstation1,6,ATTN*%
%TO.N,Net-(Playstation1-ATTN)*%
X188976000Y-50888000D03*
%TO.P,Playstation1,7,CLK*%
%TO.N,Net-(Playstation1-CLK)*%
X188976000Y-46888000D03*
%TO.P,Playstation1,8,NC*%
%TO.N,unconnected-(Playstation1-NC-Pad8)*%
X188976000Y-42888000D03*
%TO.P,Playstation1,9,ACK*%
%TO.N,unconnected-(Playstation1-ACK-Pad9)*%
X188976000Y-38888000D03*
%TD*%
D16*
%TO.P,C2,1*%
%TO.N,Net-(3v3_regulator1-VO)*%
X144272000Y-66040000D03*
D17*
%TO.P,C2,2*%
%TO.N,Net-(3v3_regulator1-GND)*%
X149272000Y-66040000D03*
%TD*%
D18*
%TO.P,Snes1,1,5V*%
%TO.N,Net-(3v3_regulator1-VI)*%
X147121000Y-45564750D03*
%TO.P,Snes1,2,CLK*%
%TO.N,Net-(A1-D8)*%
X143057000Y-45564750D03*
%TO.P,Snes1,3,LTCH*%
%TO.N,Net-(A1-D7)*%
X138993000Y-45564750D03*
%TO.P,Snes1,4,DATA*%
%TO.N,Net-(A1-D6)*%
X134929000Y-45564750D03*
%TO.P,Snes1,5*%
%TO.N,N/C*%
X128365000Y-45564750D03*
%TO.P,Snes1,6*%
X124301000Y-45564750D03*
%TO.P,Snes1,7,GND*%
%TO.N,Net-(3v3_regulator1-GND)*%
X120237000Y-45564750D03*
%TD*%
D19*
%TO.P,3v3_regulator1,1,GND*%
%TO.N,Net-(3v3_regulator1-GND)*%
X128524000Y-74762000D03*
D20*
%TO.P,3v3_regulator1,2,VO*%
%TO.N,Net-(3v3_regulator1-VO)*%
X131064000Y-74762000D03*
%TO.P,3v3_regulator1,3,VI*%
%TO.N,Net-(3v3_regulator1-VI)*%
X133604000Y-74762000D03*
%TD*%
D21*
%TO.P,N64_controller1,1,3.3v*%
%TO.N,Net-(3v3_regulator1-VO)*%
X190647000Y-85090000D03*
%TO.P,N64_controller1,2,DATA*%
%TO.N,Net-(N64_controller1-DATA)*%
X190647000Y-89154000D03*
%TO.P,N64_controller1,3,GND*%
%TO.N,Net-(3v3_regulator1-GND)*%
X190647000Y-93218000D03*
%TD*%
D10*
%TO.P,MPU1,1,VCC*%
%TO.N,Net-(3v3_regulator1-VI)*%
X133312000Y-93161000D03*
D11*
%TO.P,MPU1,2,GND*%
%TO.N,Net-(3v3_regulator1-GND)*%
X135852000Y-93161000D03*
%TO.P,MPU1,3,SCL*%
%TO.N,Net-(A1-A5)*%
X138392000Y-93161000D03*
%TO.P,MPU1,4,SDA*%
%TO.N,Net-(A1-A4)*%
X140932000Y-93161000D03*
%TO.P,MPU1,5,EDA*%
%TO.N,unconnected-(MPU1-EDA-Pad5)*%
X143472000Y-93161000D03*
%TO.P,MPU1,6,ECL*%
%TO.N,unconnected-(MPU1-ECL-Pad6)*%
X146012000Y-93161000D03*
%TO.P,MPU1,7,ADO*%
%TO.N,unconnected-(MPU1-ADO-Pad7)*%
X148552000Y-93161000D03*
%TO.P,MPU1,8,INT*%
%TO.N,unconnected-(MPU1-INT-Pad8)*%
X151092000Y-93161000D03*
%TO.P,MPU1,9,NCS*%
%TO.N,unconnected-(MPU1-NCS-Pad9)*%
X153632000Y-93161000D03*
%TO.P,MPU1,10,FSYNC*%
%TO.N,unconnected-(MPU1-FSYNC-Pad10)*%
X156172000Y-93161000D03*
%TD*%
D22*
%TO.P,Gamecube1,0*%
%TO.N,N/C*%
X190646750Y-116097000D03*
D23*
%TO.P,Gamecube1,1,5v*%
%TO.N,unconnected-(Gamecube1-5v-Pad1)*%
X192556750Y-110982000D03*
%TO.P,Gamecube1,2,DATA*%
%TO.N,Net-(Gamecube1-DATA)*%
X190646750Y-110982000D03*
%TO.P,Gamecube1,3,GND*%
%TO.N,Net-(3v3_regulator1-GND)*%
X188736750Y-110982000D03*
%TO.P,Gamecube1,4,GND*%
X192556750Y-109712000D03*
%TO.P,Gamecube1,5,NC*%
%TO.N,unconnected-(Gamecube1-NC-Pad5)*%
X190646750Y-109712000D03*
%TO.P,Gamecube1,6,3.3v*%
%TO.N,Net-(3v3_regulator1-VO)*%
X188736750Y-109712000D03*
%TD*%
D16*
%TO.P,C1,1*%
%TO.N,Net-(3v3_regulator1-VI)*%
X169175729Y-59690000D03*
D17*
%TO.P,C1,2*%
%TO.N,Net-(3v3_regulator1-GND)*%
X164175729Y-59690000D03*
%TD*%
D24*
%TO.P,ps/2_connector1,1*%
%TO.N,unconnected-(ps/2_connector1-Pad1)*%
X170994000Y-45115000D03*
%TO.P,ps/2_connector1,2,5v*%
%TO.N,Net-(3v3_regulator1-VI)*%
X170994000Y-42615000D03*
%TO.P,ps/2_connector1,3*%
%TO.N,unconnected-(ps/2_connector1-Pad3)*%
X168894000Y-42615000D03*
%TO.P,ps/2_connector1,4,DATA*%
%TO.N,Net-(A1-D3)*%
X166294000Y-42615000D03*
%TO.P,ps/2_connector1,5,GND*%
%TO.N,Net-(3v3_regulator1-GND)*%
X164194000Y-42615000D03*
D25*
%TO.P,ps/2_connector1,6,CLK*%
%TO.N,Net-(A1-D2)*%
X164194000Y-45065000D03*
D26*
%TO.P,ps/2_connector1,SH1*%
%TO.N,N/C*%
X174394000Y-39615000D03*
%TO.P,ps/2_connector1,SH2*%
X167594000Y-38815000D03*
%TO.P,ps/2_connector1,SH3*%
X160844000Y-39615000D03*
%TD*%
D10*
%TO.P,U2,1,LV1*%
%TO.N,Net-(U2-LV1)*%
X176857000Y-95094500D03*
X174317000Y-95094500D03*
D11*
%TO.P,U2,2,LV2*%
%TO.N,Net-(U2-LV2)*%
X176857000Y-92554500D03*
X174317000Y-92554500D03*
%TO.P,U2,3,LV3*%
%TO.N,Net-(N64_controller1-DATA)*%
X176857000Y-90014500D03*
X174317000Y-90014500D03*
%TO.P,U2,4,LV4*%
%TO.N,Net-(Gamecube1-DATA)*%
X176857000Y-87474500D03*
X174317000Y-87474500D03*
%TO.P,U2,5,LV*%
%TO.N,Net-(3v3_regulator1-VO)*%
X176857000Y-84934500D03*
X174317000Y-84934500D03*
%TO.P,U2,6,GND*%
%TO.N,Net-(3v3_regulator1-GND)*%
X176857000Y-82394500D03*
X174317000Y-82394500D03*
%TO.P,U2,7,LV5*%
%TO.N,Net-(Playstation1-CMD)*%
X176857000Y-79854500D03*
X174317000Y-79854500D03*
%TO.P,U2,8,LV6*%
%TO.N,Net-(Playstation1-DATA)*%
X176857000Y-77314500D03*
X174317000Y-77314500D03*
%TO.P,U2,9,LV7*%
%TO.N,Net-(Playstation1-CLK)*%
X176857000Y-74774500D03*
X174317000Y-74774500D03*
%TO.P,U2,10,LV8*%
%TO.N,Net-(Playstation1-ATTN)*%
X176857000Y-72234500D03*
X174317000Y-72234500D03*
D10*
%TO.P,U2,11,HV1*%
%TO.N,Net-(A1-A4)*%
X164157000Y-95094500D03*
X161617000Y-95094500D03*
D11*
%TO.P,U2,12,HV2*%
%TO.N,Net-(A1-A5)*%
X164157000Y-92554500D03*
X161617000Y-92554500D03*
%TO.P,U2,13,HV3*%
%TO.N,Net-(A1-D5)*%
X164157000Y-90014500D03*
X161617000Y-90014500D03*
%TO.P,U2,14,HV4*%
%TO.N,Net-(A1-D4)*%
X164157000Y-87474500D03*
X161617000Y-87474500D03*
%TO.P,U2,15,HV*%
%TO.N,Net-(3v3_regulator1-VI)*%
X164157000Y-84934500D03*
X161617000Y-84934500D03*
%TO.P,U2,16,GND*%
%TO.N,Net-(3v3_regulator1-GND)*%
X164157000Y-82394500D03*
X161617000Y-82394500D03*
%TO.P,U2,17,HV5*%
%TO.N,Net-(A1-D11)*%
X164157000Y-79854500D03*
X161617000Y-79854500D03*
%TO.P,U2,18,HV6*%
%TO.N,Net-(A1-D12)*%
X164157000Y-77314500D03*
X161617000Y-77314500D03*
%TO.P,U2,19,HV7*%
%TO.N,Net-(A1-D13)*%
X164157000Y-74774500D03*
X161617000Y-74774500D03*
%TO.P,U2,20,HV8*%
%TO.N,Net-(A1-D10)*%
X164157000Y-72234500D03*
X161617000Y-72234500D03*
%TD*%
D27*
%TO.P,Nes1,1,5V*%
%TO.N,Net-(3v3_regulator1-VI)*%
X93218000Y-49568600D03*
%TO.P,Nes1,2,CLK*%
%TO.N,Net-(A1-D8)*%
X93218000Y-51880000D03*
%TO.P,Nes1,3,LTCH*%
%TO.N,Net-(A1-D7)*%
X97282000Y-51880000D03*
%TO.P,Nes1,4,DATA*%
%TO.N,Net-(A1-D6)*%
X101346000Y-51880000D03*
%TO.P,Nes1,5*%
%TO.N,N/C*%
X97282000Y-49568600D03*
%TO.P,Nes1,6*%
X101346000Y-49568600D03*
%TO.P,Nes1,7,GND*%
%TO.N,Net-(3v3_regulator1-GND)*%
X89154000Y-51880000D03*
%TD*%
D10*
%TO.P,NRF1,*%
%TO.N,*%
X83275000Y-75295000D03*
D11*
X83275000Y-72755000D03*
X83275000Y-70215000D03*
X83275000Y-67675000D03*
X83275000Y-65135000D03*
X83275000Y-62595000D03*
D10*
%TO.P,NRF1,1,GND*%
%TO.N,Net-(3v3_regulator1-GND)*%
X121013000Y-72755000D03*
D28*
%TO.P,NRF1,2,VCC*%
%TO.N,Net-(3v3_regulator1-VO)*%
X118473000Y-72755000D03*
%TO.P,NRF1,3,CE*%
%TO.N,Net-(A1-D9)*%
X121013000Y-70215000D03*
%TO.P,NRF1,4,~{CSN}*%
%TO.N,Net-(A1-D10)*%
X118473000Y-70215000D03*
%TO.P,NRF1,5,SCK*%
%TO.N,Net-(A1-D13)*%
X121013000Y-67675000D03*
%TO.P,NRF1,6,MOSI*%
%TO.N,Net-(A1-D11)*%
X118473000Y-67675000D03*
%TO.P,NRF1,7,MISO*%
%TO.N,Net-(A1-D12)*%
X121013000Y-65135000D03*
%TO.P,NRF1,8,IRQ*%
%TO.N,unconnected-(NRF1-IRQ-Pad8)*%
X118473000Y-65135000D03*
%TD*%
D10*
%TO.P,A1,1,D1/TX*%
%TO.N,unconnected-(A1-D1{slash}TX-Pad1)*%
X123797000Y-89445000D03*
D29*
X123797000Y-99444857D03*
D11*
%TO.P,A1,2,D0/RX*%
%TO.N,unconnected-(A1-D0{slash}RX-Pad2)*%
X121257000Y-89445000D03*
D30*
X121257000Y-99444857D03*
D11*
%TO.P,A1,3,~{RESET}*%
%TO.N,unconnected-(A1-~{RESET}-Pad3)*%
X118717000Y-89445000D03*
D30*
X118717000Y-99444857D03*
D11*
%TO.P,A1,4,GND*%
%TO.N,Net-(3v3_regulator1-GND)*%
X116177000Y-89445000D03*
D30*
X116177000Y-99444857D03*
D11*
%TO.P,A1,5,D2*%
%TO.N,Net-(A1-D2)*%
X113637000Y-89445000D03*
D30*
X113637000Y-99444857D03*
D11*
%TO.P,A1,6,D3*%
%TO.N,Net-(A1-D3)*%
X111097000Y-89445000D03*
D30*
X111097000Y-99444857D03*
D11*
%TO.P,A1,7,D4*%
%TO.N,Net-(A1-D4)*%
X108557000Y-89445000D03*
D30*
X108557000Y-99444857D03*
D11*
%TO.P,A1,8,D5*%
%TO.N,Net-(A1-D5)*%
X106017000Y-89445000D03*
D30*
X106017000Y-99444857D03*
D11*
%TO.P,A1,9,D6*%
%TO.N,Net-(A1-D6)*%
X103477000Y-89445000D03*
D30*
X103477000Y-99444857D03*
D11*
%TO.P,A1,10,D7*%
%TO.N,Net-(A1-D7)*%
X100937000Y-89445000D03*
D30*
X100937000Y-99444857D03*
D11*
%TO.P,A1,11,D8*%
%TO.N,Net-(A1-D8)*%
X98397000Y-89445000D03*
D30*
X98397000Y-99444857D03*
D11*
%TO.P,A1,12,D9*%
%TO.N,Net-(A1-D9)*%
X95857000Y-89445000D03*
D30*
X95857000Y-99444857D03*
D11*
%TO.P,A1,13,D10*%
%TO.N,Net-(A1-D10)*%
X93317000Y-89445000D03*
D30*
X93317000Y-99444857D03*
D11*
%TO.P,A1,14,D11*%
%TO.N,Net-(A1-D11)*%
X90777000Y-89445000D03*
D30*
X90777000Y-99444857D03*
D11*
%TO.P,A1,15,D12*%
%TO.N,Net-(A1-D12)*%
X88237000Y-89445000D03*
D30*
X88237000Y-99444857D03*
%TO.P,A1,16,D13*%
%TO.N,Net-(A1-D13)*%
X88237000Y-114684857D03*
D11*
X88237000Y-124685000D03*
D30*
%TO.P,A1,17,3V3*%
%TO.N,unconnected-(A1-3V3-Pad17)*%
X90777000Y-114684857D03*
D11*
X90777000Y-124685000D03*
D30*
%TO.P,A1,18,AREF*%
%TO.N,unconnected-(A1-AREF-Pad18)*%
X93317000Y-114684857D03*
D11*
X93317000Y-124685000D03*
D30*
%TO.P,A1,19,A0*%
%TO.N,unconnected-(A1-A0-Pad19)*%
X95857000Y-114684857D03*
D11*
X95857000Y-124685000D03*
D30*
%TO.P,A1,20,A1*%
%TO.N,unconnected-(A1-A1-Pad20)*%
X98397000Y-114684857D03*
D11*
X98397000Y-124685000D03*
D30*
%TO.P,A1,21,A2*%
%TO.N,unconnected-(A1-A2-Pad21)*%
X100937000Y-114684857D03*
D11*
X100937000Y-124685000D03*
D30*
%TO.P,A1,22,A3*%
%TO.N,unconnected-(A1-A3-Pad22)*%
X103477000Y-114684857D03*
D11*
X103477000Y-124685000D03*
D30*
%TO.P,A1,23,A4*%
%TO.N,Net-(A1-A4)*%
X106017000Y-114684857D03*
D11*
X106017000Y-124685000D03*
D30*
%TO.P,A1,24,A5*%
%TO.N,Net-(A1-A5)*%
X108557000Y-114684857D03*
D11*
X108557000Y-124685000D03*
D30*
%TO.P,A1,25,A6*%
%TO.N,unconnected-(A1-A6-Pad25)*%
X111097000Y-114684857D03*
D11*
X111097000Y-124685000D03*
D30*
%TO.P,A1,26,A7*%
%TO.N,unconnected-(A1-A7-Pad26)*%
X113637000Y-114684857D03*
D11*
X113637000Y-124685000D03*
D30*
%TO.P,A1,27,+5V*%
%TO.N,Net-(3v3_regulator1-VI)*%
X116177000Y-114684857D03*
D11*
X116177000Y-124685000D03*
D30*
%TO.P,A1,28,~{RESET}*%
%TO.N,unconnected-(A1-~{RESET}-Pad28)*%
X118717000Y-114684857D03*
D11*
X118717000Y-124685000D03*
D30*
%TO.P,A1,29,GND*%
%TO.N,Net-(3v3_regulator1-GND)*%
X121257000Y-114684857D03*
D11*
X121257000Y-124685000D03*
D30*
%TO.P,A1,30,VIN*%
%TO.N,unconnected-(A1-VIN-Pad30)*%
X123797000Y-114684857D03*
D10*
X123797000Y-124685000D03*
%TD*%
D31*
%TO.N,Net-(3v3_regulator1-VI)*%
X116840000Y-52578000D02*
X133604000Y-69342000D01*
X93218000Y-49568600D02*
X95034600Y-47752000D01*
X95034600Y-47752000D02*
X112014000Y-47752000D01*
X149399000Y-113745000D02*
X133537000Y-113745000D01*
X166624000Y-96520000D02*
X149399000Y-113745000D01*
X134365999Y-117602000D02*
X119094143Y-117602000D01*
X147121000Y-45564750D02*
X140107750Y-52578000D01*
X133537000Y-113745000D02*
X134874000Y-115082000D01*
X133604000Y-69342000D02*
X133604000Y-74762000D01*
X112014000Y-47752000D02*
X116840000Y-52578000D01*
X134874000Y-115082000D02*
X134874000Y-117093999D01*
X119094143Y-117602000D02*
X116177000Y-114684857D01*
X134874000Y-117093999D02*
X134365999Y-117602000D01*
X166624000Y-87401500D02*
X166624000Y-96520000D01*
X164157000Y-84934500D02*
X166624000Y-87401500D01*
X140107750Y-52578000D02*
X116840000Y-52578000D01*
%TO.N,Net-(3v3_regulator1-GND)*%
X193802000Y-124860750D02*
X192551750Y-126111000D01*
X133537000Y-116285000D02*
X122857143Y-116285000D01*
X188736750Y-110982000D02*
X193802000Y-116047250D01*
X122857143Y-116285000D02*
X121257000Y-114684857D01*
X193802000Y-116047250D02*
X193802000Y-124860750D01*
%TO.N,Net-(3v3_regulator1-VO)*%
X170966000Y-72898000D02*
X169164000Y-72898000D01*
X144272000Y-66040000D02*
X147066000Y-68834000D01*
X187976000Y-109712000D02*
X187198000Y-110490000D01*
X118473000Y-72755000D02*
X122172000Y-76454000D01*
X129372000Y-76454000D02*
X131064000Y-74762000D01*
X173326500Y-84934500D02*
X174317000Y-84934500D01*
X147066000Y-68834000D02*
X164537106Y-68834000D01*
X168648000Y-72898000D02*
X168648000Y-80256000D01*
X188976000Y-54888000D02*
X170966000Y-72898000D01*
X169164000Y-72898000D02*
X168648000Y-72898000D01*
X164537106Y-68834000D02*
X168601106Y-72898000D01*
X187198000Y-122662250D02*
X188741750Y-124206000D01*
X187198000Y-110490000D02*
X187198000Y-122662250D01*
X188736750Y-109712000D02*
X187976000Y-109712000D01*
X168601106Y-72898000D02*
X169164000Y-72898000D01*
X168648000Y-80256000D02*
X173326500Y-84934500D01*
X122172000Y-76454000D02*
X129372000Y-76454000D01*
%TO.N,Net-(A1-D7)*%
X97282000Y-85790000D02*
X100937000Y-89445000D01*
X97282000Y-51880000D02*
X97282000Y-85790000D01*
%TO.N,Net-(A1-D5)*%
X112076000Y-95504000D02*
X156127500Y-95504000D01*
X106017000Y-89445000D02*
X112076000Y-95504000D01*
X156127500Y-95504000D02*
X161617000Y-90014500D01*
%TO.N,Net-(A1-A5)*%
X112697143Y-118825000D02*
X108557000Y-114684857D01*
X133537000Y-118825000D02*
X112697143Y-118825000D01*
%TO.N,Net-(A1-D3)*%
X164654057Y-81194500D02*
X159597500Y-81194500D01*
X141224000Y-68271106D02*
X142794894Y-69842000D01*
X142794894Y-69842000D02*
X164130894Y-69842000D01*
X165081000Y-41402000D02*
X163576000Y-41402000D01*
X157557500Y-83234500D02*
X117307500Y-83234500D01*
X166294000Y-42615000D02*
X165081000Y-41402000D01*
X117307500Y-83234500D02*
X111097000Y-89445000D01*
X159597500Y-81194500D02*
X157557500Y-83234500D01*
X164130894Y-69842000D02*
X167648000Y-73359107D01*
X141224000Y-63754000D02*
X141224000Y-68271106D01*
X167648000Y-73359107D02*
X167648000Y-78200557D01*
X163576000Y-41402000D02*
X141224000Y-63754000D01*
X167648000Y-78200557D02*
X164654057Y-81194500D01*
%TO.N,Net-(A1-D11)*%
X121554529Y-66475000D02*
X122428000Y-65601529D01*
X115586000Y-73974661D02*
X120081339Y-78470000D01*
X160232500Y-78470000D02*
X161617000Y-79854500D01*
X115586000Y-65262000D02*
X115586000Y-73974661D01*
X119673000Y-66475000D02*
X121554529Y-66475000D01*
X120081339Y-78470000D02*
X160232500Y-78470000D01*
X120904000Y-62992000D02*
X117856000Y-62992000D01*
X122428000Y-64516000D02*
X120904000Y-62992000D01*
X122428000Y-65601529D02*
X122428000Y-64516000D01*
X118473000Y-67675000D02*
X119673000Y-66475000D01*
X117856000Y-62992000D02*
X115586000Y-65262000D01*
%TO.N,Net-(A1-D12)*%
X116086000Y-73740107D02*
X120315893Y-77970000D01*
X160961500Y-77970000D02*
X161617000Y-77314500D01*
X119370000Y-63492000D02*
X118118000Y-63492000D01*
X121013000Y-65135000D02*
X119370000Y-63492000D01*
X116086000Y-65524000D02*
X116086000Y-73740107D01*
X120315893Y-77970000D02*
X160961500Y-77970000D01*
X118118000Y-63492000D02*
X116086000Y-65524000D01*
%TO.N,Net-(A1-D8)*%
X93218000Y-51880000D02*
X93218000Y-84266000D01*
X93218000Y-84266000D02*
X98397000Y-89445000D01*
%TO.N,Net-(A1-D4)*%
X110298000Y-91186000D02*
X157905500Y-91186000D01*
X108557000Y-89445000D02*
X110298000Y-91186000D01*
X157905500Y-91186000D02*
X161617000Y-87474500D01*
%TO.N,Net-(A1-D2)*%
X159597500Y-83734500D02*
X155448000Y-87884000D01*
X141732000Y-68072000D02*
X143002000Y-69342000D01*
X164194000Y-45065000D02*
X160620106Y-45065000D01*
X155448000Y-87884000D02*
X115198000Y-87884000D01*
X141732000Y-63953106D02*
X141732000Y-68072000D01*
X168148000Y-80240557D02*
X164654057Y-83734500D01*
X143002000Y-69342000D02*
X164338000Y-69342000D01*
X164654057Y-83734500D02*
X159597500Y-83734500D01*
X115198000Y-87884000D02*
X113637000Y-89445000D01*
X160620106Y-45065000D02*
X141732000Y-63953106D01*
X164338000Y-69342000D02*
X168148000Y-73152000D01*
X168148000Y-73152000D02*
X168148000Y-80240557D01*
%TO.N,Net-(A1-D10)*%
X156889500Y-76962000D02*
X161617000Y-72234500D01*
X117086000Y-73325895D02*
X120722105Y-76962000D01*
X118473000Y-70215000D02*
X117086000Y-71602000D01*
X120722105Y-76962000D02*
X156889500Y-76962000D01*
X117086000Y-71602000D02*
X117086000Y-73325895D01*
%TO.N,Net-(A1-D13)*%
X116586000Y-73533001D02*
X120522999Y-77470000D01*
X120522999Y-77470000D02*
X158921500Y-77470000D01*
X158921500Y-77470000D02*
X161617000Y-74774500D01*
X117421000Y-69015000D02*
X116586000Y-69850000D01*
X116586000Y-69850000D02*
X116586000Y-73533001D01*
X121013000Y-67675000D02*
X119673000Y-69015000D01*
X119673000Y-69015000D02*
X117421000Y-69015000D01*
%TO.N,Net-(A1-D6)*%
X101346000Y-51880000D02*
X101346000Y-87314000D01*
X101346000Y-87314000D02*
X103477000Y-89445000D01*
%TO.N,Net-(A1-A4)*%
X109337000Y-121365000D02*
X106017000Y-124685000D01*
X133537000Y-121365000D02*
X109337000Y-121365000D01*
%TO.N,Net-(N64_controller1-DATA)*%
X190647000Y-89154000D02*
X177717500Y-89154000D01*
X177717500Y-89154000D02*
X176857000Y-90014500D01*
%TO.N,Net-(U2-LV2)*%
X171450000Y-95421500D02*
X174317000Y-92554500D01*
X188595000Y-126111000D02*
X171450000Y-108966000D01*
X171450000Y-108966000D02*
X171450000Y-95421500D01*
X188741750Y-126111000D02*
X188595000Y-126111000D01*
%TD*%
M02*
