M48
; DRILL file {KiCad 8.0.3} date 2024-06-28T16:27:35+0200
; FORMAT={-:-/ absolute / inch / decimal}
; #@! TF.CreationDate,2024-06-28T16:27:35+02:00
; #@! TF.GenerationSoftware,Kicad,Pcbnew,8.0.3
; #@! TF.FileFunction,Plated,1,2,PTH
FMAT,2
INCH
; #@! TA.AperFunction,Plated,PTH,ComponentDrill
T1C0.0118
; #@! TA.AperFunction,Plated,PTH,ComponentDrill
T2C0.0138
; #@! TA.AperFunction,Plated,PTH,ComponentDrill
T3C0.0250
; #@! TA.AperFunction,Plated,PTH,ComponentDrill
T4C0.0354
; #@! TA.AperFunction,Plated,PTH,ComponentDrill
T5C0.0394
; #@! TA.AperFunction,Plated,PTH,ComponentDrill
T6C0.0433
; #@! TA.AperFunction,Plated,PTH,ComponentDrill
T7C0.0472
; #@! TA.AperFunction,Plated,PTH,ComponentDrill
T8C0.0551
; #@! TA.AperFunction,Plated,PTH,ComponentDrill
T9C0.0570
; #@! TA.AperFunction,Plated,PTH,ComponentDrill
T10C0.0750
; #@! TA.AperFunction,Plated,PTH,ComponentDrill
T11C0.0787
; #@! TA.AperFunction,Plated,PTH,ComponentDrill
T12C0.0866
; #@! TA.AperFunction,Plated,PTH,ComponentDrill
T13C0.0906
%
G90
G05
T3
X7.4308Y-4.89
X7.4308Y-4.965
X7.5058Y-4.89
X7.5058Y-4.965
X7.5808Y-4.89
X7.5808Y-4.965
T4
X6.4643Y-1.6778
X6.4643Y-1.7742
X6.547Y-1.6778
X6.6494Y-1.6778
X6.732Y-1.6778
X6.732Y-1.7762
T5
X3.2785Y-2.4644
X3.2785Y-2.5644
X3.2785Y-2.6644
X3.2785Y-2.7644
X3.2785Y-2.8644
X3.2785Y-2.9644
X3.4739Y-3.5215
X3.4739Y-3.9152
X3.4739Y-4.5152
X3.4739Y-4.9089
X3.5739Y-3.5215
X3.5739Y-3.9152
X3.5739Y-4.5152
X3.5739Y-4.9089
X3.6739Y-3.5215
X3.6739Y-3.9152
X3.6739Y-4.5152
X3.6739Y-4.9089
X3.7739Y-3.5215
X3.7739Y-3.9152
X3.7739Y-4.5152
X3.7739Y-4.9089
X3.8739Y-3.5215
X3.8739Y-3.9152
X3.8739Y-4.5152
X3.8739Y-4.9089
X3.9739Y-3.5215
X3.9739Y-3.9152
X3.9739Y-4.5152
X3.9739Y-4.9089
X4.0739Y-3.5215
X4.0739Y-3.9152
X4.0739Y-4.5152
X4.0739Y-4.9089
X4.1739Y-3.5215
X4.1739Y-3.9152
X4.1739Y-4.5152
X4.1739Y-4.9089
X4.2739Y-3.5215
X4.2739Y-3.9152
X4.2739Y-4.5152
X4.2739Y-4.9089
X4.3739Y-3.5215
X4.3739Y-3.9152
X4.3739Y-4.5152
X4.3739Y-4.9089
X4.4739Y-3.5215
X4.4739Y-3.9152
X4.4739Y-4.5152
X4.4739Y-4.9089
X4.5739Y-3.5215
X4.5739Y-3.9152
X4.5739Y-4.5152
X4.5739Y-4.9089
X4.6643Y-2.5644
X4.6643Y-2.6644
X4.6643Y-2.7644
X4.6643Y-2.8644
X4.6739Y-3.5215
X4.6739Y-3.9152
X4.6739Y-4.5152
X4.6739Y-4.9089
X4.7643Y-2.5644
X4.7643Y-2.6644
X4.7643Y-2.7644
X4.7643Y-2.8644
X4.7739Y-3.5215
X4.7739Y-3.9152
X4.7739Y-4.5152
X4.7739Y-4.9089
X4.8739Y-3.5215
X4.8739Y-3.9152
X4.8739Y-4.5152
X4.8739Y-4.9089
X5.2485Y-3.6678
X5.2574Y-4.4781
X5.2574Y-4.5781
X5.2574Y-4.6781
X5.2574Y-4.7781
X5.3485Y-3.6678
X5.4485Y-3.6678
X5.5485Y-3.6678
X5.6485Y-3.6678
X5.7485Y-3.6678
X5.8485Y-3.6678
X5.9485Y-3.6678
X6.0485Y-3.6678
X6.1485Y-3.6678
X6.3629Y-2.8439
X6.3629Y-2.9439
X6.3629Y-3.0439
X6.3629Y-3.1439
X6.3629Y-3.2439
X6.3629Y-3.3439
X6.3629Y-3.4439
X6.3629Y-3.5439
X6.3629Y-3.6439
X6.3629Y-3.7439
X6.4629Y-2.8439
X6.4629Y-2.9439
X6.4629Y-3.0439
X6.4629Y-3.1439
X6.4629Y-3.2439
X6.4629Y-3.3439
X6.4629Y-3.4439
X6.4629Y-3.5439
X6.4629Y-3.6439
X6.4629Y-3.7439
X6.8629Y-2.8439
X6.8629Y-2.9439
X6.8629Y-3.0439
X6.8629Y-3.1439
X6.8629Y-3.2439
X6.8629Y-3.3439
X6.8629Y-3.4439
X6.8629Y-3.5439
X6.8629Y-3.6439
X6.8629Y-3.7439
X6.9629Y-2.8439
X6.9629Y-2.9439
X6.9629Y-3.0439
X6.9629Y-3.1439
X6.9629Y-3.2439
X6.9629Y-3.3439
X6.9629Y-3.4439
X6.9629Y-3.5439
X6.9629Y-3.6439
X6.9629Y-3.7439
T6
X5.06Y-2.9434
X5.16Y-2.9434
X5.26Y-2.9434
T7
X5.68Y-2.6
X5.8769Y-2.6
X6.4636Y-2.35
X6.6605Y-2.35
X7.44Y-1.531
X7.44Y-1.6885
X7.44Y-1.846
X7.44Y-2.0035
X7.44Y-2.1609
X7.44Y-2.3184
X7.44Y-2.4759
X7.44Y-2.6334
X7.44Y-2.7909
T8
X3.51Y-2.0425
X3.67Y-1.9515
X3.67Y-2.0425
X3.83Y-1.9515
X3.83Y-2.0425
X3.99Y-1.9515
X3.99Y-2.0425
T9
X4.7337Y-1.7939
X4.8937Y-1.7939
X5.0537Y-1.7939
X5.3122Y-1.7939
X5.4722Y-1.7939
X5.6322Y-1.7939
X5.7922Y-1.7939
T10
X7.2558Y-5.0
X7.2558Y-5.21
X7.7558Y-5.0
X7.7558Y-5.21
T11
X7.2235Y-2.1609
T12
X7.5058Y-3.35
X7.5058Y-3.51
X7.5058Y-3.67
T13
X6.3324Y-1.5596
X6.5982Y-1.5281
X6.8659Y-1.5596
T1
G00X7.4227Y-4.3194
M15
G01X7.4385Y-4.3194
M16
G05
G00X7.4227Y-4.3694
M15
G01X7.4385Y-4.3694
M16
G05
G00X7.4979Y-4.3194
M15
G01X7.5137Y-4.3194
M16
G05
G00X7.4979Y-4.3694
M15
G01X7.5137Y-4.3694
M16
G05
G00X7.5731Y-4.3194
M15
G01X7.5888Y-4.3194
M16
G05
G00X7.5731Y-4.3694
M15
G01X7.5888Y-4.3694
M16
G05
T2
G00X7.4703Y-4.5707
M15
G01X7.5412Y-4.5707
M16
G05
M30
