%TF.GenerationSoftware,KiCad,Pcbnew,8.0.3*%
%TF.CreationDate,2024-06-28T16:27:34+02:00*%
%TF.ProjectId,multiradio,6d756c74-6972-4616-9469-6f2e6b696361,rev?*%
%TF.SameCoordinates,Original*%
%TF.FileFunction,Soldermask,Top*%
%TF.FilePolarity,Negative*%
%FSLAX46Y46*%
G04 Gerber Fmt 4.6, Leading zero omitted, Abs format (unit mm)*
G04 Created by KiCad (PCBNEW 8.0.3) date 2024-06-28 16:27:34*
%MOMM*%
%LPD*%
G01*
G04 APERTURE LIST*
%ADD10C,2.200000*%
%ADD11R,1.700000X1.700000*%
%ADD12O,1.700000X1.700000*%
%ADD13C,3.048000*%
%ADD14C,1.270000*%
%ADD15C,3.200000*%
%ADD16C,4.000000*%
%ADD17C,2.000000*%
%ADD18R,2.400000X2.400000*%
%ADD19C,2.400000*%
%ADD20C,2.743200*%
%ADD21O,3.500000X3.500000*%
%ADD22R,1.905000X2.000000*%
%ADD23O,1.905000X2.000000*%
%ADD24C,3.303200*%
%ADD25C,2.700000*%
%ADD26O,2.650000X0.850000*%
%ADD27O,1.200000X0.800000*%
%ADD28C,1.625600*%
%ADD29O,1.625600X1.625600*%
%ADD30C,3.703200*%
%ADD31C,3.810000*%
%ADD32C,2.303200*%
%ADD33C,1.700000*%
%ADD34R,1.600000X1.600000*%
%ADD35O,1.600000X1.600000*%
G04 APERTURE END LIST*
D10*
%TO.C,Display1*%
X136587000Y-132065000D03*
X173887000Y-132065000D03*
X136587000Y-103065000D03*
X173887000Y-103065000D03*
D11*
X133537000Y-121365000D03*
D12*
X133537000Y-118825000D03*
X133537000Y-116285000D03*
X133537000Y-113745000D03*
%TD*%
D13*
%TO.C,wii1*%
X196996750Y-132334000D03*
X196996750Y-127000000D03*
X184296750Y-132334000D03*
X184296750Y-127000000D03*
D14*
X188741750Y-124206000D03*
X188741750Y-126111000D03*
X190646750Y-124206000D03*
X190646750Y-126111000D03*
X192551750Y-124206000D03*
X192551750Y-126111000D03*
%TD*%
D15*
%TO.C,REF\u002A\u002A*%
X174752000Y-51308000D03*
%TD*%
%TO.C,REF\u002A\u002A*%
X106426000Y-107442000D03*
%TD*%
D16*
%TO.C,Playstation1*%
X183476000Y-54888000D03*
D17*
X188976000Y-70888000D03*
X188976000Y-66888000D03*
X188976000Y-62888000D03*
X188976000Y-58888000D03*
X188976000Y-54888000D03*
X188976000Y-50888000D03*
X188976000Y-46888000D03*
X188976000Y-42888000D03*
X188976000Y-38888000D03*
%TD*%
D18*
%TO.C,C2*%
X144272000Y-66040000D03*
D19*
X149272000Y-66040000D03*
%TD*%
D15*
%TO.C,REF\u002A\u002A*%
X88646000Y-59182000D03*
%TD*%
D20*
%TO.C,Snes1*%
X147121000Y-45564750D03*
X143057000Y-45564750D03*
X138993000Y-45564750D03*
X134929000Y-45564750D03*
X128365000Y-45564750D03*
X124301000Y-45564750D03*
X120237000Y-45564750D03*
%TD*%
D21*
%TO.C,3v3_regulator1*%
X131064000Y-58102000D03*
D22*
X128524000Y-74762000D03*
D23*
X131064000Y-74762000D03*
X133604000Y-74762000D03*
%TD*%
D24*
%TO.C,N64_controller1*%
X190647000Y-85090000D03*
X190647000Y-89154000D03*
X190647000Y-93218000D03*
%TD*%
D25*
%TO.C,MPU1*%
X133769000Y-81223000D03*
X155613000Y-81223000D03*
D11*
X133312000Y-93161000D03*
D12*
X135852000Y-93161000D03*
X138392000Y-93161000D03*
X140932000Y-93161000D03*
X143472000Y-93161000D03*
X146012000Y-93161000D03*
X148552000Y-93161000D03*
X151092000Y-93161000D03*
X153632000Y-93161000D03*
X156172000Y-93161000D03*
%TD*%
D26*
%TO.C,Gamecube1*%
X190646750Y-116097000D03*
D27*
X192556750Y-110982000D03*
X190646750Y-110982000D03*
X188736750Y-110982000D03*
X192556750Y-109712000D03*
X190646750Y-109712000D03*
X188736750Y-109712000D03*
%TD*%
D15*
%TO.C,REF\u002A\u002A*%
X84328000Y-132334000D03*
%TD*%
%TO.C,REF\u002A\u002A*%
X200406000Y-76708000D03*
%TD*%
D18*
%TO.C,C1*%
X169175729Y-59690000D03*
D19*
X164175729Y-59690000D03*
%TD*%
D28*
%TO.C,ps/2_connector1*%
X170994000Y-45115000D03*
X170994000Y-42615000D03*
X168894000Y-42615000D03*
X166294000Y-42615000D03*
X164194000Y-42615000D03*
D29*
X164194000Y-45065000D03*
D30*
X174394000Y-39615000D03*
X167594000Y-38815000D03*
X160844000Y-39615000D03*
%TD*%
D11*
%TO.C,U2*%
X176857000Y-95094500D03*
X174317000Y-95094500D03*
D12*
X176857000Y-92554500D03*
X174317000Y-92554500D03*
X176857000Y-90014500D03*
X174317000Y-90014500D03*
X176857000Y-87474500D03*
X174317000Y-87474500D03*
X176857000Y-84934500D03*
X174317000Y-84934500D03*
X176857000Y-82394500D03*
X174317000Y-82394500D03*
X176857000Y-79854500D03*
X174317000Y-79854500D03*
X176857000Y-77314500D03*
X174317000Y-77314500D03*
X176857000Y-74774500D03*
X174317000Y-74774500D03*
X176857000Y-72234500D03*
X174317000Y-72234500D03*
D11*
X164157000Y-95094500D03*
X161617000Y-95094500D03*
D12*
X164157000Y-92554500D03*
X161617000Y-92554500D03*
X164157000Y-90014500D03*
X161617000Y-90014500D03*
X164157000Y-87474500D03*
X161617000Y-87474500D03*
X164157000Y-84934500D03*
X161617000Y-84934500D03*
X164157000Y-82394500D03*
X161617000Y-82394500D03*
X164157000Y-79854500D03*
X161617000Y-79854500D03*
X164157000Y-77314500D03*
X161617000Y-77314500D03*
X164157000Y-74774500D03*
X161617000Y-74774500D03*
X164157000Y-72234500D03*
X161617000Y-72234500D03*
%TD*%
D31*
%TO.C,Nes1*%
X105257600Y-39180000D03*
X85267800Y-39180000D03*
D32*
X93218000Y-49568600D03*
X93218000Y-51880000D03*
X97282000Y-51880000D03*
X101346000Y-51880000D03*
X97282000Y-49568600D03*
X101346000Y-49568600D03*
X89154000Y-51880000D03*
%TD*%
D15*
%TO.C,REF\u002A\u002A*%
X84328000Y-82042000D03*
%TD*%
D11*
%TO.C,NRF1*%
X83275000Y-75295000D03*
D12*
X83275000Y-72755000D03*
X83275000Y-70215000D03*
X83275000Y-67675000D03*
X83275000Y-65135000D03*
X83275000Y-62595000D03*
D11*
X121013000Y-72755000D03*
D33*
X118473000Y-72755000D03*
X121013000Y-70215000D03*
X118473000Y-70215000D03*
X121013000Y-67675000D03*
X118473000Y-67675000D03*
X121013000Y-65135000D03*
X118473000Y-65135000D03*
%TD*%
D15*
%TO.C,REF\u002A\u002A*%
X200406000Y-100584000D03*
%TD*%
D11*
%TO.C,A1*%
X123797000Y-89445000D03*
D34*
X123797000Y-99444857D03*
D12*
X121257000Y-89445000D03*
D35*
X121257000Y-99444857D03*
D12*
X118717000Y-89445000D03*
D35*
X118717000Y-99444857D03*
D12*
X116177000Y-89445000D03*
D35*
X116177000Y-99444857D03*
D12*
X113637000Y-89445000D03*
D35*
X113637000Y-99444857D03*
D12*
X111097000Y-89445000D03*
D35*
X111097000Y-99444857D03*
D12*
X108557000Y-89445000D03*
D35*
X108557000Y-99444857D03*
D12*
X106017000Y-89445000D03*
D35*
X106017000Y-99444857D03*
D12*
X103477000Y-89445000D03*
D35*
X103477000Y-99444857D03*
D12*
X100937000Y-89445000D03*
D35*
X100937000Y-99444857D03*
D12*
X98397000Y-89445000D03*
D35*
X98397000Y-99444857D03*
D12*
X95857000Y-89445000D03*
D35*
X95857000Y-99444857D03*
D12*
X93317000Y-89445000D03*
D35*
X93317000Y-99444857D03*
D12*
X90777000Y-89445000D03*
D35*
X90777000Y-99444857D03*
D12*
X88237000Y-89445000D03*
D35*
X88237000Y-99444857D03*
X88237000Y-114684857D03*
D12*
X88237000Y-124685000D03*
D35*
X90777000Y-114684857D03*
D12*
X90777000Y-124685000D03*
D35*
X93317000Y-114684857D03*
D12*
X93317000Y-124685000D03*
D35*
X95857000Y-114684857D03*
D12*
X95857000Y-124685000D03*
D35*
X98397000Y-114684857D03*
D12*
X98397000Y-124685000D03*
D35*
X100937000Y-114684857D03*
D12*
X100937000Y-124685000D03*
D35*
X103477000Y-114684857D03*
D12*
X103477000Y-124685000D03*
D35*
X106017000Y-114684857D03*
D12*
X106017000Y-124685000D03*
D35*
X108557000Y-114684857D03*
D12*
X108557000Y-124685000D03*
D35*
X111097000Y-114684857D03*
D12*
X111097000Y-124685000D03*
D35*
X113637000Y-114684857D03*
D12*
X113637000Y-124685000D03*
D35*
X116177000Y-114684857D03*
D12*
X116177000Y-124685000D03*
D35*
X118717000Y-114684857D03*
D12*
X118717000Y-124685000D03*
D35*
X121257000Y-114684857D03*
D12*
X121257000Y-124685000D03*
D35*
X123797000Y-114684857D03*
D11*
X123797000Y-124685000D03*
%TD*%
M02*
