%TF.GenerationSoftware,KiCad,Pcbnew,8.0.3*%
%TF.CreationDate,2024-06-28T16:27:34+02:00*%
%TF.ProjectId,multiradio,6d756c74-6972-4616-9469-6f2e6b696361,rev?*%
%TF.SameCoordinates,Original*%
%TF.FileFunction,Copper,L1,Top*%
%TF.FilePolarity,Positive*%
%FSLAX46Y46*%
G04 Gerber Fmt 4.6, Leading zero omitted, Abs format (unit mm)*
G04 Created by KiCad (PCBNEW 8.0.3) date 2024-06-28 16:27:34*
%MOMM*%
%LPD*%
G01*
G04 APERTURE LIST*
%TA.AperFunction,ComponentPad*%
%ADD10R,1.700000X1.700000*%
%TD*%
%TA.AperFunction,ComponentPad*%
%ADD11O,1.700000X1.700000*%
%TD*%
%TA.AperFunction,ComponentPad*%
%ADD12C,3.048000*%
%TD*%
%TA.AperFunction,ComponentPad*%
%ADD13C,1.270000*%
%TD*%
%TA.AperFunction,ComponentPad*%
%ADD14C,4.000000*%
%TD*%
%TA.AperFunction,ComponentPad*%
%ADD15C,2.000000*%
%TD*%
%TA.AperFunction,ComponentPad*%
%ADD16R,2.400000X2.400000*%
%TD*%
%TA.AperFunction,ComponentPad*%
%ADD17C,2.400000*%
%TD*%
%TA.AperFunction,ComponentPad*%
%ADD18C,2.540000*%
%TD*%
%TA.AperFunction,ComponentPad*%
%ADD19R,1.905000X2.000000*%
%TD*%
%TA.AperFunction,ComponentPad*%
%ADD20O,1.905000X2.000000*%
%TD*%
%TA.AperFunction,ComponentPad*%
%ADD21C,3.100000*%
%TD*%
%TA.AperFunction,ComponentPad*%
%ADD22O,2.650000X0.850000*%
%TD*%
%TA.AperFunction,ComponentPad*%
%ADD23O,1.200000X0.800000*%
%TD*%
%TA.AperFunction,ComponentPad*%
%ADD24C,1.422400*%
%TD*%
%TA.AperFunction,ComponentPad*%
%ADD25O,1.422400X1.422400*%
%TD*%
%TA.AperFunction,ComponentPad*%
%ADD26C,3.500000*%
%TD*%
%TA.AperFunction,ComponentPad*%
%ADD27C,2.100000*%
%TD*%
%TA.AperFunction,ComponentPad*%
%ADD28C,1.700000*%
%TD*%
%TA.AperFunction,ComponentPad*%
%ADD29R,1.600000X1.600000*%
%TD*%
%TA.AperFunction,ComponentPad*%
%ADD30O,1.600000X1.600000*%
%TD*%
%TA.AperFunction,Conductor*%
%ADD31C,0.300000*%
%TD*%
G04 APERTURE END LIST*
D10*
%TO.P,Display1,1,SDA*%
%TO.N,Net-(A1-A4)*%
X133537000Y-121365000D03*
D11*
%TO.P,Display1,2,SCL*%
%TO.N,Net-(A1-A5)*%
X133537000Y-118825000D03*
%TO.P,Display1,3,GND*%
%TO.N,Net-(3v3_regulator1-GND)*%
X133537000Y-116285000D03*
%TO.P,Display1,4,VCC*%
%TO.N,Net-(3v3_regulator1-VI)*%
X133537000Y-113745000D03*
%TD*%
D12*
%TO.P,wii1,*%
%TO.N,*%
X196996750Y-132334000D03*
X196996750Y-127000000D03*
X184296750Y-132334000D03*
X184296750Y-127000000D03*
D13*
%TO.P,wii1,1,VCC_3.3V*%
%TO.N,Net-(3v3_regulator1-VO)*%
X188741750Y-124206000D03*
%TO.P,wii1,2,SCL*%
%TO.N,Net-(U2-LV2)*%
X188741750Y-126111000D03*
%TO.P,wii1,3,Detect_device*%
%TO.N,unconnected-(wii1-Detect_device-Pad3)*%
X190646750Y-124206000D03*
%TO.P,wii1,4,NC*%
%TO.N,unconnected-(wii1-NC-Pad4)*%
X190646750Y-126111000D03*
%TO.P,wii1,5,SDA*%
%TO.N,Net-(U2-LV1)*%
X192551750Y-124206000D03*
%TO.P,wii1,6,GND*%
%TO.N,Net-(3v3_regulator1-GND)*%
X192551750Y-126111000D03*
%TD*%
D14*
%TO.P,Playstation1,*%
%TO.N,*%
X183476000Y-54888000D03*
D15*
%TO.P,Playstation1,1,DATA*%
%TO.N,Net-(Playstation1-DATA)*%
X188976000Y-70888000D03*
%TO.P,Playstation1,2,CMD*%
%TO.N,Net-(Playstation1-CMD)*%
X188976000Y-66888000D03*
%TO.P,Playstation1,3,MOTOR*%
%TO.N,unconnected-(Playstation1-MOTOR-Pad3)*%
X188976000Y-62888000D03*
%TO.P,Playstation1,4,GND*%
%TO.N,Net-(3v3_regulator1-GND)*%
X188976000Y-58888000D03*
%TO.P,Playstation1,5,3.3V*%
%TO.N,Net-(3v3_regulator1-VO)*%
X188976000Y-54888000D03*
%TO.P,Playstation1,6,ATTN*%
%TO.N,Net-(Playstation1-ATTN)*%
X188976000Y-50888000D03*
%TO.P,Playstation1,7,CLK*%
%TO.N,Net-(Playstation1-CLK)*%
X188976000Y-46888000D03*
%TO.P,Playstation1,8,NC*%
%TO.N,unconnected-(Playstation1-NC-Pad8)*%
X188976000Y-42888000D03*
%TO.P,Playstation1,9,ACK*%
%TO.N,unconnected-(Playstation1-ACK-Pad9)*%
X188976000Y-38888000D03*
%TD*%
D16*
%TO.P,C2,1*%
%TO.N,Net-(3v3_regulator1-VO)*%
X144272000Y-66040000D03*
D17*
%TO.P,C2,2*%
%TO.N,Net-(3v3_regulator1-GND)*%
X149272000Y-66040000D03*
%TD*%
D18*
%TO.P,Snes1,1,5V*%
%TO.N,Net-(3v3_regulator1-VI)*%
X147121000Y-45564750D03*
%TO.P,Snes1,2,CLK*%
%TO.N,Net-(A1-D8)*%
X143057000Y-45564750D03*
%TO.P,Snes1,3,LTCH*%
%TO.N,Net-(A1-D7)*%
X138993000Y-45564750D03*
%TO.P,Snes1,4,DATA*%
%TO.N,Net-(A1-D6)*%
X134929000Y-45564750D03*
%TO.P,Snes1,5*%
%TO.N,N/C*%
X128365000Y-45564750D03*
%TO.P,Snes1,6*%
X124301000Y-45564750D03*
%TO.P,Snes1,7,GND*%
%TO.N,Net-(3v3_regulator1-GND)*%
X120237000Y-45564750D03*
%TD*%
D19*
%TO.P,3v3_regulator1,1,GND*%
%TO.N,Net-(3v3_regulator1-GND)*%
X128524000Y-74762000D03*
D20*
%TO.P,3v3_regulator1,2,VO*%
%TO.N,Net-(3v3_regulator1-VO)*%
X131064000Y-74762000D03*
%TO.P,3v3_regulator1,3,VI*%
%TO.N,Net-(3v3_regulator1-VI)*%
X133604000Y-74762000D03*
%TD*%
D21*
%TO.P,N64_controller1,1,3.3v*%
%TO.N,Net-(3v3_regulator1-VO)*%
X190647000Y-85090000D03*
%TO.P,N64_controller1,2,DATA*%
%TO.N,Net-(N64_controller1-DATA)*%
X190647000Y-89154000D03*
%TO.P,N64_controller1,3,GND*%
%TO.N,Net-(3v3_regulator1-GND)*%
X190647000Y-93218000D03*
%TD*%
D10*
%TO.P,MPU1,1,VCC*%
%TO.N,Net-(3v3_regulator1-VI)*%
X133312000Y-93161000D03*
D11*
%TO.P,MPU1,2,GND*%
%TO.N,Net-(3v3_regulator1-GND)*%
X135852000Y-93161000D03*
%TO.P,MPU1,3,SCL*%
%TO.N,Net-(A1-A5)*%
X138392000Y-93161000D03*
%TO.P,MPU1,4,SDA*%
%TO.N,Net-(A1-A4)*%
X140932000Y-93161000D03*
%TO.P,MPU1,5,EDA*%
%TO.N,unconnected-(MPU1-EDA-Pad5)*%
X143472000Y-93161000D03*
%TO.P,MPU1,6,ECL*%
%TO.N,unconnected-(MPU1-ECL-Pad6)*%
X146012000Y-93161000D03*
%TO.P,MPU1,7,ADO*%
%TO.N,unconnected-(MPU1-ADO-Pad7)*%
X148552000Y-93161000D03*
%TO.P,MPU1,8,INT*%
%TO.N,unconnected-(MPU1-INT-Pad8)*%
X151092000Y-93161000D03*
%TO.P,MPU1,9,NCS*%
%TO.N,unconnected-(MPU1-NCS-Pad9)*%
X153632000Y-93161000D03*
%TO.P,MPU1,10,FSYNC*%
%TO.N,unconnected-(MPU1-FSYNC-Pad10)*%
X156172000Y-93161000D03*
%TD*%
D22*
%TO.P,Gamecube1,0*%
%TO.N,N/C*%
X190646750Y-116097000D03*
D23*
%TO.P,Gamecube1,1,5v*%
%TO.N,unconnected-(Gamecube1-5v-Pad1)*%
X192556750Y-110982000D03*
%TO.P,Gamecube1,2,DATA*%
%TO.N,Net-(Gamecube1-DATA)*%
X190646750Y-110982000D03*
%TO.P,Gamecube1,3,GND*%
%TO.N,Net-(3v3_regulator1-GND)*%
X188736750Y-110982000D03*
%TO.P,Gamecube1,4,GND*%
X192556750Y-109712000D03*
%TO.P,Gamecube1,5,NC*%
%TO.N,unconnected-(Gamecube1-NC-Pad5)*%
X190646750Y-109712000D03*
%TO.P,Gamecube1,6,3.3v*%
%TO.N,Net-(3v3_regulator1-VO)*%
X188736750Y-109712000D03*
%TD*%
D16*
%TO.P,C1,1*%
%TO.N,Net-(3v3_regulator1-VI)*%
X169175729Y-59690000D03*
D17*
%TO.P,C1,2*%
%TO.N,Net-(3v3_regulator1-GND)*%
X164175729Y-59690000D03*
%TD*%
D24*
%TO.P,ps/2_connector1,1*%
%TO.N,unconnected-(ps/2_connector1-Pad1)*%
X170994000Y-45115000D03*
%TO.P,ps/2_connector1,2,5v*%
%TO.N,Net-(3v3_regulator1-VI)*%
X170994000Y-42615000D03*
%TO.P,ps/2_connector1,3*%
%TO.N,unconnected-(ps/2_connector1-Pad3)*%
X168894000Y-42615000D03*
%TO.P,ps/2_connector1,4,DATA*%
%TO.N,Net-(A1-D3)*%
X166294000Y-42615000D03*
%TO.P,ps/2_connector1,5,GND*%
%TO.N,Net-(3v3_regulator1-GND)*%
X164194000Y-42615000D03*
D25*
%TO.P,ps/2_connector1,6,CLK*%
%TO.N,Net-(A1-D2)*%
X164194000Y-45065000D03*
D26*
%TO.P,ps/2_connector1,SH1*%
%TO.N,N/C*%
X174394000Y-39615000D03*
%TO.P,ps/2_connector1,SH2*%
X167594000Y-38815000D03*
%TO.P,ps/2_connector1,SH3*%
X160844000Y-39615000D03*
%TD*%
D10*
%TO.P,U2,1,LV1*%
%TO.N,Net-(U2-LV1)*%
X176857000Y-95094500D03*
X174317000Y-95094500D03*
D11*
%TO.P,U2,2,LV2*%
%TO.N,Net-(U2-LV2)*%
X176857000Y-92554500D03*
X174317000Y-92554500D03*
%TO.P,U2,3,LV3*%
%TO.N,Net-(N64_controller1-DATA)*%
X176857000Y-90014500D03*
X174317000Y-90014500D03*
%TO.P,U2,4,LV4*%
%TO.N,Net-(Gamecube1-DATA)*%
X176857000Y-87474500D03*
X174317000Y-87474500D03*
%TO.P,U2,5,LV*%
%TO.N,Net-(3v3_regulator1-VO)*%
X176857000Y-84934500D03*
X174317000Y-84934500D03*
%TO.P,U2,6,GND*%
%TO.N,Net-(3v3_regulator1-GND)*%
X176857000Y-82394500D03*
X174317000Y-82394500D03*
%TO.P,U2,7,LV5*%
%TO.N,Net-(Playstation1-CMD)*%
X176857000Y-79854500D03*
X174317000Y-79854500D03*
%TO.P,U2,8,LV6*%
%TO.N,Net-(Playstation1-DATA)*%
X176857000Y-77314500D03*
X174317000Y-77314500D03*
%TO.P,U2,9,LV7*%
%TO.N,Net-(Playstation1-CLK)*%
X176857000Y-74774500D03*
X174317000Y-74774500D03*
%TO.P,U2,10,LV8*%
%TO.N,Net-(Playstation1-ATTN)*%
X176857000Y-72234500D03*
X174317000Y-72234500D03*
D10*
%TO.P,U2,11,HV1*%
%TO.N,Net-(A1-A4)*%
X164157000Y-95094500D03*
X161617000Y-95094500D03*
D11*
%TO.P,U2,12,HV2*%
%TO.N,Net-(A1-A5)*%
X164157000Y-92554500D03*
X161617000Y-92554500D03*
%TO.P,U2,13,HV3*%
%TO.N,Net-(A1-D5)*%
X164157000Y-90014500D03*
X161617000Y-90014500D03*
%TO.P,U2,14,HV4*%
%TO.N,Net-(A1-D4)*%
X164157000Y-87474500D03*
X161617000Y-87474500D03*
%TO.P,U2,15,HV*%
%TO.N,Net-(3v3_regulator1-VI)*%
X164157000Y-84934500D03*
X161617000Y-84934500D03*
%TO.P,U2,16,GND*%
%TO.N,Net-(3v3_regulator1-GND)*%
X164157000Y-82394500D03*
X161617000Y-82394500D03*
%TO.P,U2,17,HV5*%
%TO.N,Net-(A1-D11)*%
X164157000Y-79854500D03*
X161617000Y-79854500D03*
%TO.P,U2,18,HV6*%
%TO.N,Net-(A1-D12)*%
X164157000Y-77314500D03*
X161617000Y-77314500D03*
%TO.P,U2,19,HV7*%
%TO.N,Net-(A1-D13)*%
X164157000Y-74774500D03*
X161617000Y-74774500D03*
%TO.P,U2,20,HV8*%
%TO.N,Net-(A1-D10)*%
X164157000Y-72234500D03*
X161617000Y-72234500D03*
%TD*%
D27*
%TO.P,Nes1,1,5V*%
%TO.N,Net-(3v3_regulator1-VI)*%
X93218000Y-49568600D03*
%TO.P,Nes1,2,CLK*%
%TO.N,Net-(A1-D8)*%
X93218000Y-51880000D03*
%TO.P,Nes1,3,LTCH*%
%TO.N,Net-(A1-D7)*%
X97282000Y-51880000D03*
%TO.P,Nes1,4,DATA*%
%TO.N,Net-(A1-D6)*%
X101346000Y-51880000D03*
%TO.P,Nes1,5*%
%TO.N,N/C*%
X97282000Y-49568600D03*
%TO.P,Nes1,6*%
X101346000Y-49568600D03*
%TO.P,Nes1,7,GND*%
%TO.N,Net-(3v3_regulator1-GND)*%
X89154000Y-51880000D03*
%TD*%
D10*
%TO.P,NRF1,*%
%TO.N,*%
X83275000Y-75295000D03*
D11*
X83275000Y-72755000D03*
X83275000Y-70215000D03*
X83275000Y-67675000D03*
X83275000Y-65135000D03*
X83275000Y-62595000D03*
D10*
%TO.P,NRF1,1,GND*%
%TO.N,Net-(3v3_regulator1-GND)*%
X121013000Y-72755000D03*
D28*
%TO.P,NRF1,2,VCC*%
%TO.N,Net-(3v3_regulator1-VO)*%
X118473000Y-72755000D03*
%TO.P,NRF1,3,CE*%
%TO.N,Net-(A1-D9)*%
X121013000Y-70215000D03*
%TO.P,NRF1,4,~{CSN}*%
%TO.N,Net-(A1-D10)*%
X118473000Y-70215000D03*
%TO.P,NRF1,5,SCK*%
%TO.N,Net-(A1-D13)*%
X121013000Y-67675000D03*
%TO.P,NRF1,6,MOSI*%
%TO.N,Net-(A1-D11)*%
X118473000Y-67675000D03*
%TO.P,NRF1,7,MISO*%
%TO.N,Net-(A1-D12)*%
X121013000Y-65135000D03*
%TO.P,NRF1,8,IRQ*%
%TO.N,unconnected-(NRF1-IRQ-Pad8)*%
X118473000Y-65135000D03*
%TD*%
D10*
%TO.P,A1,1,D1/TX*%
%TO.N,unconnected-(A1-D1{slash}TX-Pad1)*%
X123797000Y-89445000D03*
D29*
X123797000Y-99444857D03*
D11*
%TO.P,A1,2,D0/RX*%
%TO.N,unconnected-(A1-D0{slash}RX-Pad2)*%
X121257000Y-89445000D03*
D30*
X121257000Y-99444857D03*
D11*
%TO.P,A1,3,~{RESET}*%
%TO.N,unconnected-(A1-~{RESET}-Pad3)*%
X118717000Y-89445000D03*
D30*
X118717000Y-99444857D03*
D11*
%TO.P,A1,4,GND*%
%TO.N,Net-(3v3_regulator1-GND)*%
X116177000Y-89445000D03*
D30*
X116177000Y-99444857D03*
D11*
%TO.P,A1,5,D2*%
%TO.N,Net-(A1-D2)*%
X113637000Y-89445000D03*
D30*
X113637000Y-99444857D03*
D11*
%TO.P,A1,6,D3*%
%TO.N,Net-(A1-D3)*%
X111097000Y-89445000D03*
D30*
X111097000Y-99444857D03*
D11*
%TO.P,A1,7,D4*%
%TO.N,Net-(A1-D4)*%
X108557000Y-89445000D03*
D30*
X108557000Y-99444857D03*
D11*
%TO.P,A1,8,D5*%
%TO.N,Net-(A1-D5)*%
X106017000Y-89445000D03*
D30*
X106017000Y-99444857D03*
D11*
%TO.P,A1,9,D6*%
%TO.N,Net-(A1-D6)*%
X103477000Y-89445000D03*
D30*
X103477000Y-99444857D03*
D11*
%TO.P,A1,10,D7*%
%TO.N,Net-(A1-D7)*%
X100937000Y-89445000D03*
D30*
X100937000Y-99444857D03*
D11*
%TO.P,A1,11,D8*%
%TO.N,Net-(A1-D8)*%
X98397000Y-89445000D03*
D30*
X98397000Y-99444857D03*
D11*
%TO.P,A1,12,D9*%
%TO.N,Net-(A1-D9)*%
X95857000Y-89445000D03*
D30*
X95857000Y-99444857D03*
D11*
%TO.P,A1,13,D10*%
%TO.N,Net-(A1-D10)*%
X93317000Y-89445000D03*
D30*
X93317000Y-99444857D03*
D11*
%TO.P,A1,14,D11*%
%TO.N,Net-(A1-D11)*%
X90777000Y-89445000D03*
D30*
X90777000Y-99444857D03*
D11*
%TO.P,A1,15,D12*%
%TO.N,Net-(A1-D12)*%
X88237000Y-89445000D03*
D30*
X88237000Y-99444857D03*
%TO.P,A1,16,D13*%
%TO.N,Net-(A1-D13)*%
X88237000Y-114684857D03*
D11*
X88237000Y-124685000D03*
D30*
%TO.P,A1,17,3V3*%
%TO.N,unconnected-(A1-3V3-Pad17)*%
X90777000Y-114684857D03*
D11*
X90777000Y-124685000D03*
D30*
%TO.P,A1,18,AREF*%
%TO.N,unconnected-(A1-AREF-Pad18)*%
X93317000Y-114684857D03*
D11*
X93317000Y-124685000D03*
D30*
%TO.P,A1,19,A0*%
%TO.N,unconnected-(A1-A0-Pad19)*%
X95857000Y-114684857D03*
D11*
X95857000Y-124685000D03*
D30*
%TO.P,A1,20,A1*%
%TO.N,unconnected-(A1-A1-Pad20)*%
X98397000Y-114684857D03*
D11*
X98397000Y-124685000D03*
D30*
%TO.P,A1,21,A2*%
%TO.N,unconnected-(A1-A2-Pad21)*%
X100937000Y-114684857D03*
D11*
X100937000Y-124685000D03*
D30*
%TO.P,A1,22,A3*%
%TO.N,unconnected-(A1-A3-Pad22)*%
X103477000Y-114684857D03*
D11*
X103477000Y-124685000D03*
D30*
%TO.P,A1,23,A4*%
%TO.N,Net-(A1-A4)*%
X106017000Y-114684857D03*
D11*
X106017000Y-124685000D03*
D30*
%TO.P,A1,24,A5*%
%TO.N,Net-(A1-A5)*%
X108557000Y-114684857D03*
D11*
X108557000Y-124685000D03*
D30*
%TO.P,A1,25,A6*%
%TO.N,unconnected-(A1-A6-Pad25)*%
X111097000Y-114684857D03*
D11*
X111097000Y-124685000D03*
D30*
%TO.P,A1,26,A7*%
%TO.N,unconnected-(A1-A7-Pad26)*%
X113637000Y-114684857D03*
D11*
X113637000Y-124685000D03*
D30*
%TO.P,A1,27,+5V*%
%TO.N,Net-(3v3_regulator1-VI)*%
X116177000Y-114684857D03*
D11*
X116177000Y-124685000D03*
D30*
%TO.P,A1,28,~{RESET}*%
%TO.N,unconnected-(A1-~{RESET}-Pad28)*%
X118717000Y-114684857D03*
D11*
X118717000Y-124685000D03*
D30*
%TO.P,A1,29,GND*%
%TO.N,Net-(3v3_regulator1-GND)*%
X121257000Y-114684857D03*
D11*
X121257000Y-124685000D03*
D30*
%TO.P,A1,30,VIN*%
%TO.N,unconnected-(A1-VIN-Pad30)*%
X123797000Y-114684857D03*
D10*
X123797000Y-124685000D03*
%TD*%
D31*
%TO.N,Net-(3v3_regulator1-VI)*%
X116177000Y-114684857D02*
X116177000Y-124685000D01*
X135519000Y-90954000D02*
X133312000Y-93161000D01*
X133312000Y-93161000D02*
X141538500Y-84934500D01*
X141538500Y-84934500D02*
X161617000Y-84934500D01*
X133604000Y-74762000D02*
X135519000Y-76677000D01*
X147121000Y-45564750D02*
X156617750Y-36068000D01*
X170994000Y-38406000D02*
X170994000Y-42615000D01*
X164157000Y-84934500D02*
X161617000Y-84934500D01*
X170994000Y-42615000D02*
X169175729Y-44433271D01*
X135519000Y-76677000D02*
X135519000Y-90954000D01*
X169175729Y-44433271D02*
X169175729Y-59690000D01*
X156617750Y-36068000D02*
X168656000Y-36068000D01*
X168656000Y-36068000D02*
X170994000Y-38406000D01*
%TO.N,Net-(3v3_regulator1-GND)*%
X191614500Y-82394500D02*
X176857000Y-82394500D01*
X121257000Y-104524857D02*
X116177000Y-99444857D01*
X120237000Y-45564750D02*
X93942607Y-45564750D01*
X89154000Y-50353357D02*
X89154000Y-51880000D01*
X128524000Y-63500000D02*
X128524000Y-74762000D01*
X149272000Y-66040000D02*
X157825729Y-66040000D01*
X128524000Y-74762000D02*
X123020000Y-74762000D01*
X121257000Y-107756000D02*
X121257000Y-114684857D01*
X121013000Y-84609000D02*
X116177000Y-89445000D01*
X116177000Y-89445000D02*
X116177000Y-99444857D01*
X193294000Y-90571000D02*
X193294000Y-84074000D01*
X190647000Y-93218000D02*
X193294000Y-90571000D01*
X165725729Y-61240000D02*
X186624000Y-61240000D01*
X190647000Y-107802250D02*
X192556750Y-109712000D01*
X176857000Y-82394500D02*
X174317000Y-82394500D01*
X164175729Y-59690000D02*
X165725729Y-61240000D01*
X135852000Y-93161000D02*
X121257000Y-107756000D01*
X149272000Y-66040000D02*
X149272000Y-70049500D01*
X164175729Y-59690000D02*
X165375729Y-58490000D01*
X149272000Y-66040000D02*
X146986000Y-63754000D01*
X190647000Y-93218000D02*
X190647000Y-107802250D01*
X123020000Y-74762000D02*
X121013000Y-72755000D01*
X165375729Y-43796729D02*
X164194000Y-42615000D01*
X149272000Y-70049500D02*
X161617000Y-82394500D01*
X193024000Y-109712000D02*
X194310000Y-110998000D01*
X146986000Y-63754000D02*
X139532000Y-63754000D01*
X193294000Y-84074000D02*
X191614500Y-82394500D01*
X194310000Y-110998000D02*
X194310000Y-124352750D01*
X93942607Y-45564750D02*
X89154000Y-50353357D01*
X164157000Y-82394500D02*
X174317000Y-82394500D01*
X157825729Y-66040000D02*
X164175729Y-59690000D01*
X165375729Y-58490000D02*
X165375729Y-43796729D01*
X186624000Y-61240000D02*
X188976000Y-58888000D01*
X194310000Y-124352750D02*
X192551750Y-126111000D01*
X139532000Y-63754000D02*
X128524000Y-74762000D01*
X121257000Y-114684857D02*
X121257000Y-104524857D01*
X161617000Y-82394500D02*
X164157000Y-82394500D01*
X120396000Y-55372000D02*
X128524000Y-63500000D01*
X89154000Y-51880000D02*
X92646000Y-55372000D01*
X121257000Y-114684857D02*
X121257000Y-124685000D01*
X192556750Y-109712000D02*
X193024000Y-109712000D01*
X92646000Y-55372000D02*
X120396000Y-55372000D01*
X121013000Y-72755000D02*
X121013000Y-84609000D01*
%TO.N,Net-(3v3_regulator1-VO)*%
X186690000Y-107665250D02*
X188736750Y-109712000D01*
X139786000Y-66040000D02*
X131064000Y-74762000D01*
X174317000Y-84934500D02*
X176857000Y-84934500D01*
X190647000Y-85090000D02*
X177012500Y-85090000D01*
X190647000Y-85197000D02*
X186690000Y-89154000D01*
X186690000Y-89154000D02*
X186690000Y-107665250D01*
X144272000Y-66040000D02*
X139786000Y-66040000D01*
X190647000Y-85090000D02*
X190647000Y-85197000D01*
X177012500Y-85090000D02*
X176857000Y-84934500D01*
%TO.N,Net-(A1-D7)*%
X100937000Y-89445000D02*
X100937000Y-99444857D01*
X130709750Y-53848000D02*
X99250000Y-53848000D01*
X138993000Y-45564750D02*
X130709750Y-53848000D01*
X99250000Y-53848000D02*
X97282000Y-51880000D01*
%TO.N,Net-(A1-D9)*%
X113887000Y-71415000D02*
X95857000Y-89445000D01*
X95857000Y-89445000D02*
X95857000Y-99444857D01*
X119813000Y-71415000D02*
X113887000Y-71415000D01*
X121013000Y-70215000D02*
X119813000Y-71415000D01*
%TO.N,unconnected-(A1-~{RESET}-Pad3)*%
X118717000Y-89445000D02*
X118717000Y-99444857D01*
%TO.N,unconnected-(A1-~{RESET}-Pad28)*%
X118717000Y-124685000D02*
X118717000Y-114684857D01*
%TO.N,unconnected-(A1-A3-Pad22)*%
X103477000Y-124685000D02*
X103477000Y-114684857D01*
%TO.N,unconnected-(A1-3V3-Pad17)*%
X90777000Y-114684857D02*
X90777000Y-124685000D01*
%TO.N,Net-(A1-D5)*%
X161617000Y-90014500D02*
X164157000Y-90014500D01*
X106017000Y-89445000D02*
X106017000Y-99444857D01*
%TO.N,Net-(A1-A5)*%
X138392000Y-93161000D02*
X139848500Y-91704500D01*
X138392000Y-113970000D02*
X133537000Y-118825000D01*
X108557000Y-124685000D02*
X108557000Y-114684857D01*
X160767000Y-91704500D02*
X161617000Y-92554500D01*
X139848500Y-91704500D02*
X160767000Y-91704500D01*
X138392000Y-93161000D02*
X138392000Y-113970000D01*
X164157000Y-92554500D02*
X161617000Y-92554500D01*
%TO.N,Net-(A1-D3)*%
X111097000Y-89445000D02*
X111097000Y-99444857D01*
%TO.N,unconnected-(A1-A2-Pad21)*%
X100937000Y-114684857D02*
X100937000Y-124685000D01*
%TO.N,unconnected-(A1-A6-Pad25)*%
X111097000Y-114684857D02*
X111097000Y-124685000D01*
%TO.N,Net-(A1-D11)*%
X164157000Y-79854500D02*
X161617000Y-79854500D01*
X118473000Y-67675000D02*
X112547000Y-67675000D01*
X90777000Y-89445000D02*
X90777000Y-99444857D01*
X112547000Y-67675000D02*
X90777000Y-89445000D01*
%TO.N,Net-(A1-D12)*%
X88237000Y-99444857D02*
X88237000Y-89445000D01*
X121013000Y-65135000D02*
X119813000Y-66335000D01*
X111347000Y-66335000D02*
X88237000Y-89445000D01*
X119813000Y-66335000D02*
X111347000Y-66335000D01*
X161617000Y-77314500D02*
X164157000Y-77314500D01*
%TO.N,unconnected-(A1-A1-Pad20)*%
X98397000Y-124685000D02*
X98397000Y-114684857D01*
%TO.N,Net-(A1-D8)*%
X134011750Y-54610000D02*
X95948000Y-54610000D01*
X98397000Y-99444857D02*
X98397000Y-89445000D01*
X143057000Y-45564750D02*
X134011750Y-54610000D01*
X95948000Y-54610000D02*
X93218000Y-51880000D01*
%TO.N,unconnected-(A1-AREF-Pad18)*%
X93317000Y-124685000D02*
X93317000Y-114684857D01*
%TO.N,Net-(A1-D4)*%
X108557000Y-99444857D02*
X108557000Y-89445000D01*
X164157000Y-87474500D02*
X161617000Y-87474500D01*
%TO.N,Net-(A1-D2)*%
X113637000Y-99444857D02*
X113637000Y-89445000D01*
%TO.N,Net-(A1-D10)*%
X118473000Y-70215000D02*
X112547000Y-70215000D01*
X93317000Y-99444857D02*
X93317000Y-89445000D01*
X161617000Y-72234500D02*
X164157000Y-72234500D01*
X112547000Y-70215000D02*
X93317000Y-89445000D01*
%TO.N,Net-(A1-D13)*%
X84836000Y-111283857D02*
X88237000Y-114684857D01*
X111506000Y-63754000D02*
X84836000Y-90424000D01*
X122428000Y-64684471D02*
X121497529Y-63754000D01*
X122428000Y-66260000D02*
X122428000Y-64684471D01*
X121013000Y-67675000D02*
X122428000Y-66260000D01*
X164157000Y-74774500D02*
X161617000Y-74774500D01*
X121497529Y-63754000D02*
X111506000Y-63754000D01*
X88237000Y-124685000D02*
X88237000Y-114684857D01*
X84836000Y-90424000D02*
X84836000Y-111283857D01*
%TO.N,unconnected-(A1-A0-Pad19)*%
X95857000Y-114684857D02*
X95857000Y-124685000D01*
%TO.N,unconnected-(A1-A7-Pad26)*%
X113637000Y-124685000D02*
X113637000Y-114684857D01*
%TO.N,Net-(A1-D6)*%
X103477000Y-99444857D02*
X103477000Y-89445000D01*
X134929000Y-45564750D02*
X127407750Y-53086000D01*
X127407750Y-53086000D02*
X102552000Y-53086000D01*
X102552000Y-53086000D02*
X101346000Y-51880000D01*
%TO.N,unconnected-(A1-VIN-Pad30)*%
X123797000Y-124685000D02*
X123797000Y-114684857D01*
%TO.N,unconnected-(A1-D1{slash}TX-Pad1)*%
X123797000Y-89445000D02*
X123797000Y-99444857D01*
%TO.N,Net-(A1-A4)*%
X161617000Y-95094500D02*
X164157000Y-95094500D01*
X140932000Y-113970000D02*
X133537000Y-121365000D01*
X140932000Y-93161000D02*
X142865500Y-95094500D01*
X140932000Y-93161000D02*
X140932000Y-113970000D01*
X142865500Y-95094500D02*
X161617000Y-95094500D01*
X106017000Y-114684857D02*
X106017000Y-124685000D01*
%TO.N,unconnected-(A1-D0{slash}RX-Pad2)*%
X121257000Y-99444857D02*
X121257000Y-89445000D01*
%TO.N,Net-(Gamecube1-DATA)*%
X174317000Y-87474500D02*
X172974000Y-88817500D01*
X173510500Y-91214500D02*
X177521278Y-91214500D01*
X182118000Y-95811222D02*
X182118000Y-106680000D01*
X172974000Y-88817500D02*
X172974000Y-90678000D01*
X177521278Y-91214500D02*
X182118000Y-95811222D01*
X189360750Y-112268000D02*
X190646750Y-110982000D01*
X176857000Y-87474500D02*
X174317000Y-87474500D01*
X172974000Y-90678000D02*
X173510500Y-91214500D01*
X182118000Y-106680000D02*
X187706000Y-112268000D01*
X187706000Y-112268000D02*
X189360750Y-112268000D01*
%TO.N,Net-(N64_controller1-DATA)*%
X174317000Y-90014500D02*
X176857000Y-90014500D01*
%TO.N,Net-(U2-LV2)*%
X174317000Y-92554500D02*
X176857000Y-92554500D01*
%TO.N,Net-(U2-LV1)*%
X192551750Y-124206000D02*
X176857000Y-108511250D01*
X176857000Y-108511250D02*
X176857000Y-95094500D01*
X174317000Y-95094500D02*
X176857000Y-95094500D01*
%TO.N,Net-(Playstation1-DATA)*%
X176857000Y-77314500D02*
X174317000Y-77314500D01*
X188976000Y-70888000D02*
X183283500Y-70888000D01*
X183283500Y-70888000D02*
X176857000Y-77314500D01*
%TO.N,Net-(Playstation1-ATTN)*%
X176857000Y-72234500D02*
X174317000Y-72234500D01*
X190754000Y-60452000D02*
X190500000Y-60706000D01*
X188385500Y-60706000D02*
X176857000Y-72234500D01*
X188976000Y-50888000D02*
X190754000Y-52666000D01*
X190754000Y-52666000D02*
X190754000Y-60452000D01*
X190500000Y-60706000D02*
X188385500Y-60706000D01*
%TO.N,Net-(Playstation1-CLK)*%
X189738000Y-64770000D02*
X186861500Y-64770000D01*
X191770000Y-62738000D02*
X189738000Y-64770000D01*
X174317000Y-74774500D02*
X176857000Y-74774500D01*
X188976000Y-46888000D02*
X191770000Y-49682000D01*
X186861500Y-64770000D02*
X176857000Y-74774500D01*
X191770000Y-49682000D02*
X191770000Y-62738000D01*
%TO.N,Net-(Playstation1-CMD)*%
X191008000Y-72898000D02*
X188468000Y-75438000D01*
X188468000Y-75438000D02*
X181273500Y-75438000D01*
X191008000Y-68920000D02*
X191008000Y-72898000D01*
X174317000Y-79854500D02*
X176857000Y-79854500D01*
X188976000Y-66888000D02*
X191008000Y-68920000D01*
X181273500Y-75438000D02*
X176857000Y-79854500D01*
%TD*%
M02*
