%TF.GenerationSoftware,KiCad,Pcbnew,8.0.2*%
%TF.CreationDate,2024-05-11T00:53:14+02:00*%
%TF.ProjectId,Gamecube controller breakout,47616d65-6375-4626-9520-636f6e74726f,rev?*%
%TF.SameCoordinates,Original*%
%TF.FileFunction,Copper,L1,Top*%
%TF.FilePolarity,Positive*%
%FSLAX46Y46*%
G04 Gerber Fmt 4.6, Leading zero omitted, Abs format (unit mm)*
G04 Created by KiCad (PCBNEW 8.0.2) date 2024-05-11 00:53:14*
%MOMM*%
%LPD*%
G01*
G04 APERTURE LIST*
%TA.AperFunction,NonConductor*%
%ADD10C,0.200000*%
%TD*%
%TA.AperFunction,ComponentPad*%
%ADD11O,1.200000X0.800000*%
%TD*%
%TA.AperFunction,ComponentPad*%
%ADD12R,1.700000X1.700000*%
%TD*%
%TA.AperFunction,ComponentPad*%
%ADD13O,1.700000X1.700000*%
%TD*%
%TA.AperFunction,ComponentPad*%
%ADD14O,2.650000X0.850000*%
%TD*%
%TA.AperFunction,Conductor*%
%ADD15C,0.800000*%
%TD*%
%TA.AperFunction,Conductor*%
%ADD16C,0.500000*%
%TD*%
G04 APERTURE END LIST*
D10*
X126292600Y-76412130D02*
X151292600Y-76412130D01*
X151292600Y-111412130D01*
X126292600Y-111412130D01*
X126292600Y-76412130D01*
D11*
%TO.P,,3*%
%TO.N,N/C*%
X136882600Y-101297580D03*
%TD*%
%TO.P,,4*%
%TO.N,N/C*%
X140702600Y-100027580D03*
%TD*%
D12*
%TO.P,REF\u002A\u002A,1*%
%TO.N,N/C*%
X142592600Y-82412200D03*
D13*
%TO.P,REF\u002A\u002A,2*%
X140052600Y-82412200D03*
%TO.P,REF\u002A\u002A,3*%
X137512600Y-82412200D03*
%TO.P,REF\u002A\u002A,4*%
X134972600Y-82412200D03*
%TD*%
D11*
%TO.P,,5*%
%TO.N,N/C*%
X138792600Y-100027580D03*
%TD*%
D14*
%TO.P,,0*%
%TO.N,N/C*%
X138792600Y-106412580D03*
%TD*%
D11*
%TO.P,,2*%
%TO.N,N/C*%
X138792600Y-101297580D03*
%TD*%
%TO.P,,1*%
%TO.N,N/C*%
X140702600Y-101297580D03*
%TD*%
%TO.P,,6*%
%TO.N,N/C*%
X136882600Y-100027580D03*
%TD*%
D15*
%TO.N,*%
X145288000Y-88392000D02*
X145288000Y-99822000D01*
X143510000Y-88646000D02*
X140052600Y-85188600D01*
X140052600Y-82412200D02*
X140052600Y-85188600D01*
X134972600Y-98117580D02*
X136882600Y-100027580D01*
X139954000Y-103124000D02*
X138792600Y-101962600D01*
X137512600Y-82412200D02*
X134874000Y-79773600D01*
X138792600Y-101962600D02*
X138792600Y-101297580D01*
X140702600Y-101297580D02*
X141526420Y-101297580D01*
X134571580Y-101297580D02*
X132334000Y-99060000D01*
X142592600Y-82412200D02*
X142592600Y-85696600D01*
X141526420Y-101297580D02*
X143510000Y-99314000D01*
X140702600Y-88378600D02*
X137512600Y-85188600D01*
X143510000Y-99314000D02*
X143510000Y-88646000D01*
X142592600Y-85696600D02*
X145288000Y-88392000D01*
X134972600Y-82412200D02*
X134972600Y-98117580D01*
X132334000Y-79756000D02*
X132334000Y-99060000D01*
X145288000Y-99822000D02*
X141986000Y-103124000D01*
X141986000Y-103124000D02*
X139954000Y-103124000D01*
D16*
X138792600Y-101297580D02*
X138792600Y-101306520D01*
D15*
X137512600Y-85188600D02*
X137512600Y-82412200D01*
X136882600Y-101297580D02*
X134571580Y-101297580D01*
X134874000Y-79756000D02*
X132334000Y-79756000D01*
X134874000Y-79773600D02*
X134874000Y-79756000D01*
X140702600Y-100027580D02*
X140702600Y-88378600D01*
%TD*%
M02*
