%TF.GenerationSoftware,KiCad,Pcbnew,8.0.2*%
%TF.CreationDate,2024-05-09T22:20:53+02:00*%
%TF.ProjectId,Gamecube controller breakout,47616d65-6375-4626-9520-636f6e74726f,rev?*%
%TF.SameCoordinates,Original*%
%TF.FileFunction,Legend,Top*%
%TF.FilePolarity,Positive*%
%FSLAX46Y46*%
G04 Gerber Fmt 4.6, Leading zero omitted, Abs format (unit mm)*
G04 Created by KiCad (PCBNEW 8.0.2) date 2024-05-09 22:20:53*
%MOMM*%
%LPD*%
G01*
G04 APERTURE LIST*
%ADD10C,0.000000*%
%ADD11C,0.100000*%
%ADD12C,0.120000*%
G04 APERTURE END LIST*
D10*
G36*
X141015100Y-89488780D02*
G01*
X137796920Y-89488780D01*
X137796920Y-89446360D01*
X141015100Y-89446360D01*
X141015100Y-89488780D01*
G37*
G36*
X139999100Y-88684230D02*
G01*
X139658740Y-88684230D01*
X139658740Y-88642070D01*
X139999100Y-88642070D01*
X139999100Y-88684230D01*
G37*
G36*
X140507100Y-91478230D02*
G01*
X139277740Y-91478230D01*
X139277740Y-91436070D01*
X140507100Y-91436070D01*
X140507100Y-91478230D01*
G37*
G36*
X138431920Y-88388190D02*
G01*
X137118740Y-88388190D01*
X137118740Y-88345770D01*
X138431920Y-88345770D01*
X138431920Y-88388190D01*
G37*
G36*
X140166740Y-91690190D02*
G01*
X138939920Y-91690190D01*
X138939920Y-91647770D01*
X140166740Y-91647770D01*
X140166740Y-91690190D01*
G37*
G36*
X139955920Y-88091780D02*
G01*
X137626740Y-88091780D01*
X137626740Y-88049360D01*
X139955920Y-88049360D01*
X139955920Y-88091780D01*
G37*
G36*
X139574920Y-92028780D02*
G01*
X138007740Y-92028780D01*
X138007740Y-91986360D01*
X139574920Y-91986360D01*
X139574920Y-92028780D01*
G37*
G36*
X137245740Y-90039190D02*
G01*
X136570100Y-90039190D01*
X136570100Y-89996770D01*
X137245740Y-89996770D01*
X137245740Y-90039190D01*
G37*
G36*
X139999100Y-91774780D02*
G01*
X137586100Y-91774780D01*
X137586100Y-91732360D01*
X139999100Y-91732360D01*
X139999100Y-91774780D01*
G37*
G36*
X140336920Y-88472780D02*
G01*
X139277740Y-88472780D01*
X139277740Y-88430360D01*
X140336920Y-88430360D01*
X140336920Y-88472780D01*
G37*
G36*
X141015100Y-89319230D02*
G01*
X139955920Y-89319230D01*
X139955920Y-89277070D01*
X141015100Y-89277070D01*
X141015100Y-89319230D01*
G37*
G36*
X140336920Y-88303230D02*
G01*
X139023740Y-88303230D01*
X139023740Y-88261070D01*
X140336920Y-88261070D01*
X140336920Y-88303230D01*
G37*
G36*
X138896740Y-87499190D02*
G01*
X138685920Y-87499190D01*
X138685920Y-87456770D01*
X138896740Y-87456770D01*
X138896740Y-87499190D01*
G37*
G36*
X141015100Y-91139780D02*
G01*
X139872100Y-91139780D01*
X139872100Y-91097360D01*
X141015100Y-91097360D01*
X141015100Y-91139780D01*
G37*
G36*
X137245740Y-89446230D02*
G01*
X136570100Y-89446230D01*
X136570100Y-89404070D01*
X137245740Y-89404070D01*
X137245740Y-89446230D01*
G37*
G36*
X139745100Y-87964780D02*
G01*
X137880740Y-87964780D01*
X137880740Y-87922360D01*
X139745100Y-87922360D01*
X139745100Y-87964780D01*
G37*
G36*
X141015100Y-89827230D02*
G01*
X137796920Y-89827230D01*
X137796920Y-89785070D01*
X141015100Y-89785070D01*
X141015100Y-89827230D01*
G37*
G36*
X137245740Y-90547190D02*
G01*
X136570100Y-90547190D01*
X136570100Y-90504770D01*
X137245740Y-90504770D01*
X137245740Y-90547190D01*
G37*
G36*
X137245740Y-90293190D02*
G01*
X136570100Y-90293190D01*
X136570100Y-90250770D01*
X137245740Y-90250770D01*
X137245740Y-90293190D01*
G37*
G36*
X140380100Y-88345780D02*
G01*
X139066920Y-88345780D01*
X139066920Y-88303360D01*
X140380100Y-88303360D01*
X140380100Y-88345780D01*
G37*
G36*
X137245740Y-90843230D02*
G01*
X136570100Y-90843230D01*
X136570100Y-90801070D01*
X137245740Y-90801070D01*
X137245740Y-90843230D01*
G37*
G36*
X141015100Y-89912190D02*
G01*
X140336920Y-89912190D01*
X140336920Y-89869770D01*
X141015100Y-89869770D01*
X141015100Y-89912190D01*
G37*
G36*
X141015100Y-91055190D02*
G01*
X139999100Y-91055190D01*
X139999100Y-91012770D01*
X141015100Y-91012770D01*
X141015100Y-91055190D01*
G37*
G36*
X139364100Y-92155780D02*
G01*
X138221100Y-92155780D01*
X138221100Y-92113360D01*
X139364100Y-92113360D01*
X139364100Y-92155780D01*
G37*
G36*
X139828920Y-90293190D02*
G01*
X137796920Y-90293190D01*
X137796920Y-90250770D01*
X139828920Y-90250770D01*
X139828920Y-90293190D01*
G37*
G36*
X139320920Y-90843230D02*
G01*
X138261740Y-90843230D01*
X138261740Y-90801070D01*
X139320920Y-90801070D01*
X139320920Y-90843230D01*
G37*
G36*
X140293740Y-89869780D02*
G01*
X137796920Y-89869780D01*
X137796920Y-89827360D01*
X140293740Y-89827360D01*
X140293740Y-89869780D01*
G37*
G36*
X140463920Y-91520780D02*
G01*
X139237100Y-91520780D01*
X139237100Y-91478360D01*
X140463920Y-91478360D01*
X140463920Y-91520780D01*
G37*
G36*
X137245740Y-90420190D02*
G01*
X136570100Y-90420190D01*
X136570100Y-90377770D01*
X137245740Y-90377770D01*
X137245740Y-90420190D01*
G37*
G36*
X141015100Y-91097230D02*
G01*
X139955920Y-91097230D01*
X139955920Y-91055070D01*
X141015100Y-91055070D01*
X141015100Y-91097230D01*
G37*
G36*
X139193920Y-89023190D02*
G01*
X138388740Y-89023190D01*
X138388740Y-88980770D01*
X139193920Y-88980770D01*
X139193920Y-89023190D01*
G37*
G36*
X139872100Y-91859230D02*
G01*
X137713100Y-91859230D01*
X137713100Y-91817070D01*
X139872100Y-91817070D01*
X139872100Y-91859230D01*
G37*
G36*
X137753740Y-88769190D02*
G01*
X136570100Y-88769190D01*
X136570100Y-88726770D01*
X137753740Y-88726770D01*
X137753740Y-88769190D01*
G37*
G36*
X139320920Y-92198190D02*
G01*
X138304920Y-92198190D01*
X138304920Y-92155770D01*
X139320920Y-92155770D01*
X139320920Y-92198190D01*
G37*
G36*
X141015100Y-90208230D02*
G01*
X140336920Y-90208230D01*
X140336920Y-90166070D01*
X141015100Y-90166070D01*
X141015100Y-90208230D01*
G37*
G36*
X141015100Y-90674190D02*
G01*
X140336920Y-90674190D01*
X140336920Y-90631770D01*
X141015100Y-90631770D01*
X141015100Y-90674190D01*
G37*
G36*
X141015100Y-90293190D02*
G01*
X140336920Y-90293190D01*
X140336920Y-90250770D01*
X141015100Y-90250770D01*
X141015100Y-90293190D01*
G37*
G36*
X139574920Y-89277190D02*
G01*
X137967100Y-89277190D01*
X137967100Y-89234770D01*
X139574920Y-89234770D01*
X139574920Y-89277190D01*
G37*
G36*
X141015100Y-90885780D02*
G01*
X140293740Y-90885780D01*
X140293740Y-90843360D01*
X141015100Y-90843360D01*
X141015100Y-90885780D01*
G37*
G36*
X139658740Y-89319230D02*
G01*
X137880740Y-89319230D01*
X137880740Y-89277070D01*
X139658740Y-89277070D01*
X139658740Y-89319230D01*
G37*
G36*
X139023740Y-91012780D02*
G01*
X138602100Y-91012780D01*
X138602100Y-90970360D01*
X139023740Y-90970360D01*
X139023740Y-91012780D01*
G37*
G36*
X141015100Y-88938230D02*
G01*
X140590920Y-88938230D01*
X140590920Y-88896070D01*
X141015100Y-88896070D01*
X141015100Y-88938230D01*
G37*
G36*
X138856100Y-91097230D02*
G01*
X138729100Y-91097230D01*
X138729100Y-91055070D01*
X138856100Y-91055070D01*
X138856100Y-91097230D01*
G37*
G36*
X139150740Y-92282780D02*
G01*
X138431920Y-92282780D01*
X138431920Y-92240360D01*
X139150740Y-92240360D01*
X139150740Y-92282780D01*
G37*
G36*
X141015100Y-89700230D02*
G01*
X137796920Y-89700230D01*
X137796920Y-89658070D01*
X141015100Y-89658070D01*
X141015100Y-89700230D01*
G37*
G36*
X141015100Y-89615780D02*
G01*
X137796920Y-89615780D01*
X137796920Y-89573360D01*
X141015100Y-89573360D01*
X141015100Y-89615780D01*
G37*
G36*
X138558920Y-88303230D02*
G01*
X137288920Y-88303230D01*
X137288920Y-88261070D01*
X138558920Y-88261070D01*
X138558920Y-88303230D01*
G37*
G36*
X139066920Y-88938230D02*
G01*
X138515740Y-88938230D01*
X138515740Y-88896070D01*
X139066920Y-88896070D01*
X139066920Y-88938230D01*
G37*
G36*
X138304920Y-88472780D02*
G01*
X136991740Y-88472780D01*
X136991740Y-88430360D01*
X138304920Y-88430360D01*
X138304920Y-88472780D01*
G37*
G36*
X141015100Y-88726780D02*
G01*
X140928740Y-88726780D01*
X140928740Y-88684360D01*
X141015100Y-88684360D01*
X141015100Y-88726780D01*
G37*
G36*
X141015100Y-91012780D02*
G01*
X140082920Y-91012780D01*
X140082920Y-90970360D01*
X141015100Y-90970360D01*
X141015100Y-91012780D01*
G37*
G36*
X137542920Y-91012780D02*
G01*
X136570100Y-91012780D01*
X136570100Y-90970360D01*
X137542920Y-90970360D01*
X137542920Y-91012780D01*
G37*
G36*
X140717920Y-91351230D02*
G01*
X139491100Y-91351230D01*
X139491100Y-91309070D01*
X140717920Y-91309070D01*
X140717920Y-91351230D01*
G37*
G36*
X138475100Y-91563190D02*
G01*
X137205100Y-91563190D01*
X137205100Y-91520770D01*
X138475100Y-91520770D01*
X138475100Y-91563190D01*
G37*
G36*
X139237100Y-92240230D02*
G01*
X138348100Y-92240230D01*
X138348100Y-92198070D01*
X139237100Y-92198070D01*
X139237100Y-92240230D01*
G37*
G36*
X140039740Y-88134190D02*
G01*
X137586100Y-88134190D01*
X137586100Y-88091770D01*
X140039740Y-88091770D01*
X140039740Y-88134190D01*
G37*
G36*
X140166740Y-88218780D02*
G01*
X138856100Y-88218780D01*
X138856100Y-88176360D01*
X140166740Y-88176360D01*
X140166740Y-88218780D01*
G37*
G36*
X138515740Y-91605230D02*
G01*
X137288920Y-91605230D01*
X137288920Y-91563070D01*
X138515740Y-91563070D01*
X138515740Y-91605230D01*
G37*
G36*
X141015100Y-90801190D02*
G01*
X140336920Y-90801190D01*
X140336920Y-90758770D01*
X141015100Y-90758770D01*
X141015100Y-90801190D01*
G37*
G36*
X137245740Y-90589230D02*
G01*
X136570100Y-90589230D01*
X136570100Y-90547070D01*
X137245740Y-90547070D01*
X137245740Y-90589230D01*
G37*
G36*
X139150740Y-87626190D02*
G01*
X138475100Y-87626190D01*
X138475100Y-87583770D01*
X139150740Y-87583770D01*
X139150740Y-87626190D01*
G37*
G36*
X141015100Y-91182190D02*
G01*
X139785740Y-91182190D01*
X139785740Y-91139770D01*
X141015100Y-91139770D01*
X141015100Y-91182190D01*
G37*
G36*
X137245740Y-89404190D02*
G01*
X136570100Y-89404190D01*
X136570100Y-89361770D01*
X137245740Y-89361770D01*
X137245740Y-89404190D01*
G37*
G36*
X141015100Y-89150190D02*
G01*
X140253100Y-89150190D01*
X140253100Y-89107770D01*
X141015100Y-89107770D01*
X141015100Y-89150190D01*
G37*
G36*
X139658740Y-91986230D02*
G01*
X137923920Y-91986230D01*
X137923920Y-91944070D01*
X139658740Y-91944070D01*
X139658740Y-91986230D01*
G37*
G36*
X140674740Y-91393780D02*
G01*
X139447920Y-91393780D01*
X139447920Y-91351360D01*
X140674740Y-91351360D01*
X140674740Y-91393780D01*
G37*
G36*
X139872100Y-90123780D02*
G01*
X137796920Y-90123780D01*
X137796920Y-90081360D01*
X139872100Y-90081360D01*
X139872100Y-90123780D01*
G37*
G36*
X138983100Y-87541230D02*
G01*
X138602100Y-87541230D01*
X138602100Y-87499070D01*
X138983100Y-87499070D01*
X138983100Y-87541230D01*
G37*
G36*
X139828920Y-90335230D02*
G01*
X137796920Y-90335230D01*
X137796920Y-90293070D01*
X139828920Y-90293070D01*
X139828920Y-90335230D01*
G37*
G36*
X137459100Y-88938230D02*
G01*
X136570100Y-88938230D01*
X136570100Y-88896070D01*
X137459100Y-88896070D01*
X137459100Y-88938230D01*
G37*
G36*
X141015100Y-89404190D02*
G01*
X139828920Y-89404190D01*
X139828920Y-89361770D01*
X141015100Y-89361770D01*
X141015100Y-89404190D01*
G37*
G36*
X138939920Y-88853780D02*
G01*
X138642740Y-88853780D01*
X138642740Y-88811360D01*
X138939920Y-88811360D01*
X138939920Y-88853780D01*
G37*
G36*
X141015100Y-90250780D02*
G01*
X140336920Y-90250780D01*
X140336920Y-90208360D01*
X141015100Y-90208360D01*
X141015100Y-90250780D01*
G37*
G36*
X137245740Y-89954230D02*
G01*
X136570100Y-89954230D01*
X136570100Y-89912070D01*
X137245740Y-89912070D01*
X137245740Y-89954230D01*
G37*
G36*
X141015100Y-89234780D02*
G01*
X140126100Y-89234780D01*
X140126100Y-89192360D01*
X141015100Y-89192360D01*
X141015100Y-89234780D01*
G37*
G36*
X137245740Y-89869780D02*
G01*
X136570100Y-89869780D01*
X136570100Y-89827360D01*
X137245740Y-89827360D01*
X137245740Y-89869780D01*
G37*
G36*
X139066920Y-87583780D02*
G01*
X138515740Y-87583780D01*
X138515740Y-87541360D01*
X139066920Y-87541360D01*
X139066920Y-87583780D01*
G37*
G36*
X140082920Y-88642190D02*
G01*
X139574920Y-88642190D01*
X139574920Y-88599770D01*
X140082920Y-88599770D01*
X140082920Y-88642190D01*
G37*
G36*
X141015100Y-89277190D02*
G01*
X140039740Y-89277190D01*
X140039740Y-89234770D01*
X141015100Y-89234770D01*
X141015100Y-89277190D01*
G37*
G36*
X138685920Y-91690190D02*
G01*
X137459100Y-91690190D01*
X137459100Y-91647770D01*
X138685920Y-91647770D01*
X138685920Y-91690190D01*
G37*
G36*
X139955920Y-91817190D02*
G01*
X137626740Y-91817190D01*
X137626740Y-91774770D01*
X139955920Y-91774770D01*
X139955920Y-91817190D01*
G37*
G36*
X139745100Y-89361780D02*
G01*
X137840100Y-89361780D01*
X137840100Y-89319360D01*
X139745100Y-89319360D01*
X139745100Y-89361780D01*
G37*
G36*
X137713100Y-88811230D02*
G01*
X136570100Y-88811230D01*
X136570100Y-88769070D01*
X137713100Y-88769070D01*
X137713100Y-88811230D01*
G37*
G36*
X137967100Y-91266780D02*
G01*
X136737740Y-91266780D01*
X136737740Y-91224360D01*
X137967100Y-91224360D01*
X137967100Y-91266780D01*
G37*
G36*
X139828920Y-90504780D02*
G01*
X137796920Y-90504780D01*
X137796920Y-90462360D01*
X139828920Y-90462360D01*
X139828920Y-90504780D01*
G37*
G36*
X140082920Y-88176230D02*
G01*
X137499740Y-88176230D01*
X137499740Y-88134070D01*
X140082920Y-88134070D01*
X140082920Y-88176230D01*
G37*
G36*
X141015100Y-90716230D02*
G01*
X140336920Y-90716230D01*
X140336920Y-90674070D01*
X141015100Y-90674070D01*
X141015100Y-90716230D01*
G37*
G36*
X140126100Y-89954230D02*
G01*
X137796920Y-89954230D01*
X137796920Y-89912070D01*
X140126100Y-89912070D01*
X140126100Y-89954230D01*
G37*
G36*
X139828920Y-90547190D02*
G01*
X137796920Y-90547190D01*
X137796920Y-90504770D01*
X139828920Y-90504770D01*
X139828920Y-90547190D01*
G37*
G36*
X137245740Y-90250780D02*
G01*
X136570100Y-90250780D01*
X136570100Y-90208360D01*
X137245740Y-90208360D01*
X137245740Y-90250780D01*
G37*
G36*
X139828920Y-90377780D02*
G01*
X137796920Y-90377780D01*
X137796920Y-90335360D01*
X139828920Y-90335360D01*
X139828920Y-90377780D01*
G37*
G36*
X137245740Y-90166190D02*
G01*
X136570100Y-90166190D01*
X136570100Y-90123770D01*
X137245740Y-90123770D01*
X137245740Y-90166190D01*
G37*
G36*
X139277740Y-87710780D02*
G01*
X138304920Y-87710780D01*
X138304920Y-87668360D01*
X139277740Y-87668360D01*
X139277740Y-87710780D01*
G37*
G36*
X141015100Y-89531190D02*
G01*
X137796920Y-89531190D01*
X137796920Y-89488770D01*
X141015100Y-89488770D01*
X141015100Y-89531190D01*
G37*
G36*
X137923920Y-88684230D02*
G01*
X136610740Y-88684230D01*
X136610740Y-88642070D01*
X137923920Y-88642070D01*
X137923920Y-88684230D01*
G37*
G36*
X140420740Y-88430230D02*
G01*
X139237100Y-88430230D01*
X139237100Y-88388070D01*
X140420740Y-88388070D01*
X140420740Y-88430230D01*
G37*
G36*
X139277740Y-89065230D02*
G01*
X138304920Y-89065230D01*
X138304920Y-89023070D01*
X139277740Y-89023070D01*
X139277740Y-89065230D01*
G37*
G36*
X137245740Y-89827230D02*
G01*
X136570100Y-89827230D01*
X136570100Y-89785070D01*
X137245740Y-89785070D01*
X137245740Y-89827230D01*
G37*
G36*
X138221100Y-88515190D02*
G01*
X136907920Y-88515190D01*
X136907920Y-88472770D01*
X138221100Y-88472770D01*
X138221100Y-88515190D01*
G37*
G36*
X137245740Y-89150190D02*
G01*
X136570100Y-89150190D01*
X136570100Y-89107770D01*
X137245740Y-89107770D01*
X137245740Y-89150190D01*
G37*
G36*
X139023740Y-92367230D02*
G01*
X138602100Y-92367230D01*
X138602100Y-92325070D01*
X139023740Y-92325070D01*
X139023740Y-92367230D01*
G37*
G36*
X140082920Y-89996780D02*
G01*
X137796920Y-89996780D01*
X137796920Y-89954360D01*
X140082920Y-89954360D01*
X140082920Y-89996780D01*
G37*
G36*
X138221100Y-91436190D02*
G01*
X136991740Y-91436190D01*
X136991740Y-91393770D01*
X138221100Y-91393770D01*
X138221100Y-91436190D01*
G37*
G36*
X139491100Y-90758780D02*
G01*
X138134740Y-90758780D01*
X138134740Y-90716360D01*
X139491100Y-90716360D01*
X139491100Y-90758780D01*
G37*
G36*
X141015100Y-90420190D02*
G01*
X140336920Y-90420190D01*
X140336920Y-90377770D01*
X141015100Y-90377770D01*
X141015100Y-90420190D01*
G37*
G36*
X140463920Y-88388190D02*
G01*
X139150740Y-88388190D01*
X139150740Y-88345770D01*
X140463920Y-88345770D01*
X140463920Y-88388190D01*
G37*
G36*
X139785740Y-91901780D02*
G01*
X137796920Y-91901780D01*
X137796920Y-91859360D01*
X139785740Y-91859360D01*
X139785740Y-91901780D01*
G37*
G36*
X139364100Y-87753190D02*
G01*
X138221100Y-87753190D01*
X138221100Y-87710770D01*
X139364100Y-87710770D01*
X139364100Y-87753190D01*
G37*
G36*
X137459100Y-90970230D02*
G01*
X136570100Y-90970230D01*
X136570100Y-90928070D01*
X137459100Y-90928070D01*
X137459100Y-90970230D01*
G37*
G36*
X141015100Y-90589230D02*
G01*
X140336920Y-90589230D01*
X140336920Y-90547070D01*
X141015100Y-90547070D01*
X141015100Y-90589230D01*
G37*
G36*
X139531740Y-92071190D02*
G01*
X138094100Y-92071190D01*
X138094100Y-92028770D01*
X139531740Y-92028770D01*
X139531740Y-92071190D01*
G37*
G36*
X141015100Y-89573230D02*
G01*
X137796920Y-89573230D01*
X137796920Y-89531070D01*
X141015100Y-89531070D01*
X141015100Y-89573230D01*
G37*
G36*
X139447920Y-89192230D02*
G01*
X138094100Y-89192230D01*
X138094100Y-89150070D01*
X139447920Y-89150070D01*
X139447920Y-89192230D01*
G37*
G36*
X141015100Y-89361780D02*
G01*
X139912740Y-89361780D01*
X139912740Y-89319360D01*
X141015100Y-89319360D01*
X141015100Y-89361780D01*
G37*
G36*
X141015100Y-89954230D02*
G01*
X140336920Y-89954230D01*
X140336920Y-89912070D01*
X141015100Y-89912070D01*
X141015100Y-89954230D01*
G37*
G36*
X137880740Y-91224230D02*
G01*
X136653920Y-91224230D01*
X136653920Y-91182070D01*
X137880740Y-91182070D01*
X137880740Y-91224230D01*
G37*
G36*
X141015100Y-88811230D02*
G01*
X140801740Y-88811230D01*
X140801740Y-88769070D01*
X141015100Y-88769070D01*
X141015100Y-88811230D01*
G37*
G36*
X139110100Y-92325190D02*
G01*
X138515740Y-92325190D01*
X138515740Y-92282770D01*
X139110100Y-92282770D01*
X139110100Y-92325190D01*
G37*
G36*
X137753740Y-91139780D02*
G01*
X136570100Y-91139780D01*
X136570100Y-91097360D01*
X137753740Y-91097360D01*
X137753740Y-91139780D01*
G37*
G36*
X139531740Y-89234780D02*
G01*
X138050920Y-89234780D01*
X138050920Y-89192360D01*
X139531740Y-89192360D01*
X139531740Y-89234780D01*
G37*
G36*
X138602100Y-91647780D02*
G01*
X137372740Y-91647780D01*
X137372740Y-91605360D01*
X138602100Y-91605360D01*
X138602100Y-91647780D01*
G37*
G36*
X137245740Y-89065230D02*
G01*
X136570100Y-89065230D01*
X136570100Y-89023070D01*
X137245740Y-89023070D01*
X137245740Y-89065230D01*
G37*
G36*
X138050920Y-88599780D02*
G01*
X136780920Y-88599780D01*
X136780920Y-88557360D01*
X138050920Y-88557360D01*
X138050920Y-88599780D01*
G37*
G36*
X137245740Y-89488780D02*
G01*
X136570100Y-89488780D01*
X136570100Y-89446360D01*
X137245740Y-89446360D01*
X137245740Y-89488780D01*
G37*
G36*
X141015100Y-90335230D02*
G01*
X140336920Y-90335230D01*
X140336920Y-90293070D01*
X141015100Y-90293070D01*
X141015100Y-90335230D01*
G37*
G36*
X137542920Y-88896190D02*
G01*
X136570100Y-88896190D01*
X136570100Y-88853770D01*
X137542920Y-88853770D01*
X137542920Y-88896190D01*
G37*
G36*
X141015100Y-90547190D02*
G01*
X140336920Y-90547190D01*
X140336920Y-90504770D01*
X141015100Y-90504770D01*
X141015100Y-90547190D01*
G37*
G36*
X138007740Y-88642190D02*
G01*
X136697100Y-88642190D01*
X136697100Y-88599770D01*
X138007740Y-88599770D01*
X138007740Y-88642190D01*
G37*
G36*
X137796920Y-91182190D02*
G01*
X136570100Y-91182190D01*
X136570100Y-91139770D01*
X137796920Y-91139770D01*
X137796920Y-91182190D01*
G37*
G36*
X137669920Y-91097230D02*
G01*
X136570100Y-91097230D01*
X136570100Y-91055070D01*
X137669920Y-91055070D01*
X137669920Y-91097230D01*
G37*
G36*
X139193920Y-90928190D02*
G01*
X138431920Y-90928190D01*
X138431920Y-90885770D01*
X139193920Y-90885770D01*
X139193920Y-90928190D01*
G37*
G36*
X137245740Y-89107780D02*
G01*
X136570100Y-89107780D01*
X136570100Y-89065360D01*
X137245740Y-89065360D01*
X137245740Y-89107780D01*
G37*
G36*
X140253100Y-91647780D02*
G01*
X138983100Y-91647780D01*
X138983100Y-91605360D01*
X140253100Y-91605360D01*
X140253100Y-91647780D01*
G37*
G36*
X140293740Y-88515190D02*
G01*
X139364100Y-88515190D01*
X139364100Y-88472770D01*
X140293740Y-88472770D01*
X140293740Y-88515190D01*
G37*
G36*
X137245740Y-90758780D02*
G01*
X136570100Y-90758780D01*
X136570100Y-90716360D01*
X137245740Y-90716360D01*
X137245740Y-90758780D01*
G37*
G36*
X139658740Y-90674190D02*
G01*
X137967100Y-90674190D01*
X137967100Y-90631770D01*
X139658740Y-90631770D01*
X139658740Y-90674190D01*
G37*
G36*
X138177920Y-91393780D02*
G01*
X136951100Y-91393780D01*
X136951100Y-91351360D01*
X138177920Y-91351360D01*
X138177920Y-91393780D01*
G37*
G36*
X138983100Y-88896190D02*
G01*
X138602100Y-88896190D01*
X138602100Y-88853770D01*
X138983100Y-88853770D01*
X138983100Y-88896190D01*
G37*
G36*
X141015100Y-89023190D02*
G01*
X140463920Y-89023190D01*
X140463920Y-88980770D01*
X141015100Y-88980770D01*
X141015100Y-89023190D01*
G37*
G36*
X137245740Y-89615780D02*
G01*
X136570100Y-89615780D01*
X136570100Y-89573360D01*
X137245740Y-89573360D01*
X137245740Y-89615780D01*
G37*
G36*
X137245740Y-90377780D02*
G01*
X136570100Y-90377780D01*
X136570100Y-90335360D01*
X137245740Y-90335360D01*
X137245740Y-90377780D01*
G37*
G36*
X141015100Y-89742780D02*
G01*
X137796920Y-89742780D01*
X137796920Y-89700360D01*
X141015100Y-89700360D01*
X141015100Y-89742780D01*
G37*
G36*
X137586100Y-91055190D02*
G01*
X136570100Y-91055190D01*
X136570100Y-91012770D01*
X137586100Y-91012770D01*
X137586100Y-91055190D01*
G37*
G36*
X141015100Y-88769190D02*
G01*
X140888100Y-88769190D01*
X140888100Y-88726770D01*
X141015100Y-88726770D01*
X141015100Y-88769190D01*
G37*
G36*
X141015100Y-90377780D02*
G01*
X140336920Y-90377780D01*
X140336920Y-90335360D01*
X141015100Y-90335360D01*
X141015100Y-90377780D01*
G37*
G36*
X139404740Y-90801190D02*
G01*
X138221100Y-90801190D01*
X138221100Y-90758770D01*
X139404740Y-90758770D01*
X139404740Y-90801190D01*
G37*
G36*
X137415920Y-88980780D02*
G01*
X136570100Y-88980780D01*
X136570100Y-88938360D01*
X137415920Y-88938360D01*
X137415920Y-88980780D01*
G37*
G36*
X139872100Y-88049230D02*
G01*
X137713100Y-88049230D01*
X137713100Y-88007070D01*
X139872100Y-88007070D01*
X139872100Y-88049230D01*
G37*
G36*
X140380100Y-91563190D02*
G01*
X139150740Y-91563190D01*
X139150740Y-91520770D01*
X140380100Y-91520770D01*
X140380100Y-91563190D01*
G37*
G36*
X140293740Y-91605230D02*
G01*
X139066920Y-91605230D01*
X139066920Y-91563070D01*
X140293740Y-91563070D01*
X140293740Y-91605230D01*
G37*
G36*
X141015100Y-89869780D02*
G01*
X140336920Y-89869780D01*
X140336920Y-89827360D01*
X141015100Y-89827360D01*
X141015100Y-89869780D01*
G37*
G36*
X141015100Y-89192230D02*
G01*
X140166740Y-89192230D01*
X140166740Y-89150070D01*
X141015100Y-89150070D01*
X141015100Y-89192230D01*
G37*
G36*
X138729100Y-91732230D02*
G01*
X137499740Y-91732230D01*
X137499740Y-91690070D01*
X138729100Y-91690070D01*
X138729100Y-91732230D01*
G37*
G36*
X140209920Y-89912190D02*
G01*
X137796920Y-89912190D01*
X137796920Y-89869770D01*
X140209920Y-89869770D01*
X140209920Y-89912190D01*
G37*
G36*
X138642740Y-88261190D02*
G01*
X137332100Y-88261190D01*
X137332100Y-88218770D01*
X138642740Y-88218770D01*
X138642740Y-88261190D01*
G37*
G36*
X138939920Y-92409780D02*
G01*
X138642740Y-92409780D01*
X138642740Y-92367360D01*
X138939920Y-92367360D01*
X138939920Y-92409780D01*
G37*
G36*
X139701920Y-90631780D02*
G01*
X137923920Y-90631780D01*
X137923920Y-90589360D01*
X139701920Y-90589360D01*
X139701920Y-90631780D01*
G37*
G36*
X137245740Y-90208230D02*
G01*
X136570100Y-90208230D01*
X136570100Y-90166070D01*
X137245740Y-90166070D01*
X137245740Y-90208230D01*
G37*
G36*
X137245740Y-89658190D02*
G01*
X136570100Y-89658190D01*
X136570100Y-89615770D01*
X137245740Y-89615770D01*
X137245740Y-89658190D01*
G37*
G36*
X138348100Y-88430230D02*
G01*
X137034920Y-88430230D01*
X137034920Y-88388070D01*
X138348100Y-88388070D01*
X138348100Y-88430230D01*
G37*
G36*
X141015100Y-90039190D02*
G01*
X140336920Y-90039190D01*
X140336920Y-89996770D01*
X141015100Y-89996770D01*
X141015100Y-90039190D01*
G37*
G36*
X141015100Y-90462230D02*
G01*
X140336920Y-90462230D01*
X140336920Y-90420070D01*
X141015100Y-90420070D01*
X141015100Y-90462230D01*
G37*
G36*
X141015100Y-89065230D02*
G01*
X140380100Y-89065230D01*
X140380100Y-89023070D01*
X141015100Y-89023070D01*
X141015100Y-89065230D01*
G37*
G36*
X137245740Y-90674190D02*
G01*
X136570100Y-90674190D01*
X136570100Y-90631770D01*
X137245740Y-90631770D01*
X137245740Y-90674190D01*
G37*
G36*
X139999100Y-90039190D02*
G01*
X137796920Y-90039190D01*
X137796920Y-89996770D01*
X139999100Y-89996770D01*
X139999100Y-90039190D01*
G37*
G36*
X137245740Y-89700230D02*
G01*
X136570100Y-89700230D01*
X136570100Y-89658070D01*
X137245740Y-89658070D01*
X137245740Y-89700230D01*
G37*
G36*
X141015100Y-90081230D02*
G01*
X140336920Y-90081230D01*
X140336920Y-90039070D01*
X141015100Y-90039070D01*
X141015100Y-90081230D01*
G37*
G36*
X138515740Y-88345780D02*
G01*
X137205100Y-88345780D01*
X137205100Y-88303360D01*
X138515740Y-88303360D01*
X138515740Y-88345780D01*
G37*
G36*
X141015100Y-90758780D02*
G01*
X140336920Y-90758780D01*
X140336920Y-90716360D01*
X141015100Y-90716360D01*
X141015100Y-90758780D01*
G37*
G36*
X139574920Y-90716230D02*
G01*
X138050920Y-90716230D01*
X138050920Y-90674070D01*
X139574920Y-90674070D01*
X139574920Y-90716230D01*
G37*
G36*
X141015100Y-88896190D02*
G01*
X140674740Y-88896190D01*
X140674740Y-88853770D01*
X141015100Y-88853770D01*
X141015100Y-88896190D01*
G37*
G36*
X138856100Y-88811230D02*
G01*
X138729100Y-88811230D01*
X138729100Y-88769070D01*
X138856100Y-88769070D01*
X138856100Y-88811230D01*
G37*
G36*
X139237100Y-90885780D02*
G01*
X138348100Y-90885780D01*
X138348100Y-90843360D01*
X139237100Y-90843360D01*
X139237100Y-90885780D01*
G37*
G36*
X140126100Y-88599780D02*
G01*
X139491100Y-88599780D01*
X139491100Y-88557360D01*
X140126100Y-88557360D01*
X140126100Y-88599780D01*
G37*
G36*
X139785740Y-90589230D02*
G01*
X137840100Y-90589230D01*
X137840100Y-90547070D01*
X139785740Y-90547070D01*
X139785740Y-90589230D01*
G37*
G36*
X138094100Y-91351230D02*
G01*
X136864740Y-91351230D01*
X136864740Y-91309070D01*
X138094100Y-91309070D01*
X138094100Y-91351230D01*
G37*
G36*
X140801740Y-91309190D02*
G01*
X139574920Y-91309190D01*
X139574920Y-91266770D01*
X140801740Y-91266770D01*
X140801740Y-91309190D01*
G37*
G36*
X137245740Y-90801190D02*
G01*
X136570100Y-90801190D01*
X136570100Y-90758770D01*
X137245740Y-90758770D01*
X137245740Y-90801190D01*
G37*
G36*
X137245740Y-89277190D02*
G01*
X136570100Y-89277190D01*
X136570100Y-89234770D01*
X137245740Y-89234770D01*
X137245740Y-89277190D01*
G37*
G36*
X141015100Y-90166190D02*
G01*
X140336920Y-90166190D01*
X140336920Y-90123770D01*
X141015100Y-90123770D01*
X141015100Y-90166190D01*
G37*
G36*
X140253100Y-88261190D02*
G01*
X138939920Y-88261190D01*
X138939920Y-88218770D01*
X140253100Y-88218770D01*
X140253100Y-88261190D01*
G37*
G36*
X137245740Y-89742780D02*
G01*
X136570100Y-89742780D01*
X136570100Y-89700360D01*
X137245740Y-89700360D01*
X137245740Y-89742780D01*
G37*
G36*
X140928740Y-91224230D02*
G01*
X139701920Y-91224230D01*
X139701920Y-91182070D01*
X140928740Y-91182070D01*
X140928740Y-91224230D01*
G37*
G36*
X141015100Y-90123780D02*
G01*
X140336920Y-90123780D01*
X140336920Y-90081360D01*
X141015100Y-90081360D01*
X141015100Y-90123780D01*
G37*
G36*
X138729100Y-88218780D02*
G01*
X137415920Y-88218780D01*
X137415920Y-88176360D01*
X138729100Y-88176360D01*
X138729100Y-88218780D01*
G37*
G36*
X137840100Y-88726780D02*
G01*
X136570100Y-88726780D01*
X136570100Y-88684360D01*
X137840100Y-88684360D01*
X137840100Y-88726780D01*
G37*
G36*
X139110100Y-90970230D02*
G01*
X138515740Y-90970230D01*
X138515740Y-90928070D01*
X139110100Y-90928070D01*
X139110100Y-90970230D01*
G37*
G36*
X137245740Y-89234780D02*
G01*
X136570100Y-89234780D01*
X136570100Y-89192360D01*
X137245740Y-89192360D01*
X137245740Y-89234780D01*
G37*
G36*
X137372740Y-90928190D02*
G01*
X136570100Y-90928190D01*
X136570100Y-90885770D01*
X137372740Y-90885770D01*
X137372740Y-90928190D01*
G37*
G36*
X138304920Y-91478230D02*
G01*
X137078100Y-91478230D01*
X137078100Y-91436070D01*
X138304920Y-91436070D01*
X138304920Y-91478230D01*
G37*
G36*
X137245740Y-89361780D02*
G01*
X136570100Y-89361780D01*
X136570100Y-89319360D01*
X137245740Y-89319360D01*
X137245740Y-89361780D01*
G37*
G36*
X139955920Y-90081230D02*
G01*
X137796920Y-90081230D01*
X137796920Y-90039070D01*
X139955920Y-90039070D01*
X139955920Y-90081230D01*
G37*
G36*
X137245740Y-90631780D02*
G01*
X136570100Y-90631780D01*
X136570100Y-90589360D01*
X137245740Y-90589360D01*
X137245740Y-90631780D01*
G37*
G36*
X141015100Y-90843230D02*
G01*
X140336920Y-90843230D01*
X140336920Y-90801070D01*
X141015100Y-90801070D01*
X141015100Y-90843230D01*
G37*
G36*
X139574920Y-87880190D02*
G01*
X138007740Y-87880190D01*
X138007740Y-87837770D01*
X139574920Y-87837770D01*
X139574920Y-87880190D01*
G37*
G36*
X137245740Y-89319230D02*
G01*
X136570100Y-89319230D01*
X136570100Y-89277070D01*
X137245740Y-89277070D01*
X137245740Y-89319230D01*
G37*
G36*
X138856100Y-92452190D02*
G01*
X138729100Y-92452190D01*
X138729100Y-92409770D01*
X138856100Y-92409770D01*
X138856100Y-92452190D01*
G37*
G36*
X138007740Y-91309190D02*
G01*
X136780920Y-91309190D01*
X136780920Y-91266770D01*
X138007740Y-91266770D01*
X138007740Y-91309190D01*
G37*
G36*
X138856100Y-87456780D02*
G01*
X138769740Y-87456780D01*
X138769740Y-87414360D01*
X138856100Y-87414360D01*
X138856100Y-87456780D01*
G37*
G36*
X137245740Y-90716230D02*
G01*
X136570100Y-90716230D01*
X136570100Y-90674070D01*
X137245740Y-90674070D01*
X137245740Y-90716230D01*
G37*
G36*
X139110100Y-88980780D02*
G01*
X138431920Y-88980780D01*
X138431920Y-88938360D01*
X139110100Y-88938360D01*
X139110100Y-88980780D01*
G37*
G36*
X141015100Y-90970230D02*
G01*
X140166740Y-90970230D01*
X140166740Y-90928070D01*
X141015100Y-90928070D01*
X141015100Y-90970230D01*
G37*
G36*
X139828920Y-90208230D02*
G01*
X137796920Y-90208230D01*
X137796920Y-90166070D01*
X139828920Y-90166070D01*
X139828920Y-90208230D01*
G37*
G36*
X139320920Y-89107780D02*
G01*
X138261740Y-89107780D01*
X138261740Y-89065360D01*
X139320920Y-89065360D01*
X139320920Y-89107780D01*
G37*
G36*
X137245740Y-89573230D02*
G01*
X136570100Y-89573230D01*
X136570100Y-89531070D01*
X137245740Y-89531070D01*
X137245740Y-89573230D01*
G37*
G36*
X139912740Y-88726780D02*
G01*
X139701920Y-88726780D01*
X139701920Y-88684360D01*
X139912740Y-88684360D01*
X139912740Y-88726780D01*
G37*
G36*
X137245740Y-90335230D02*
G01*
X136570100Y-90335230D01*
X136570100Y-90293070D01*
X137245740Y-90293070D01*
X137245740Y-90335230D01*
G37*
G36*
X137245740Y-89912190D02*
G01*
X136570100Y-89912190D01*
X136570100Y-89869770D01*
X137245740Y-89869770D01*
X137245740Y-89912190D01*
G37*
G36*
X139828920Y-90250780D02*
G01*
X137796920Y-90250780D01*
X137796920Y-90208360D01*
X139828920Y-90208360D01*
X139828920Y-90250780D01*
G37*
G36*
X139828920Y-90462230D02*
G01*
X137796920Y-90462230D01*
X137796920Y-90420070D01*
X139828920Y-90420070D01*
X139828920Y-90462230D01*
G37*
G36*
X139828920Y-90420190D02*
G01*
X137796920Y-90420190D01*
X137796920Y-90377770D01*
X139828920Y-90377770D01*
X139828920Y-90420190D01*
G37*
G36*
X137626740Y-88853780D02*
G01*
X136570100Y-88853780D01*
X136570100Y-88811360D01*
X137626740Y-88811360D01*
X137626740Y-88853780D01*
G37*
G36*
X137245740Y-90504780D02*
G01*
X136570100Y-90504780D01*
X136570100Y-90462360D01*
X137245740Y-90462360D01*
X137245740Y-90504780D01*
G37*
G36*
X138939920Y-91055190D02*
G01*
X138642740Y-91055190D01*
X138642740Y-91012770D01*
X138939920Y-91012770D01*
X138939920Y-91055190D01*
G37*
G36*
X137332100Y-89023190D02*
G01*
X136570100Y-89023190D01*
X136570100Y-88980770D01*
X137332100Y-88980770D01*
X137332100Y-89023190D01*
G37*
G36*
X139447920Y-92113230D02*
G01*
X138134740Y-92113230D01*
X138134740Y-92071070D01*
X139447920Y-92071070D01*
X139447920Y-92113230D01*
G37*
G36*
X141015100Y-89446230D02*
G01*
X137796920Y-89446230D01*
X137796920Y-89404070D01*
X141015100Y-89404070D01*
X141015100Y-89446230D01*
G37*
G36*
X139785740Y-88007190D02*
G01*
X137796920Y-88007190D01*
X137796920Y-87964770D01*
X139785740Y-87964770D01*
X139785740Y-88007190D01*
G37*
G36*
X138134740Y-88557230D02*
G01*
X136824100Y-88557230D01*
X136824100Y-88515070D01*
X138134740Y-88515070D01*
X138134740Y-88557230D01*
G37*
G36*
X140209920Y-88557230D02*
G01*
X139447920Y-88557230D01*
X139447920Y-88515070D01*
X140209920Y-88515070D01*
X140209920Y-88557230D01*
G37*
G36*
X137332100Y-90885780D02*
G01*
X136570100Y-90885780D01*
X136570100Y-90843360D01*
X137332100Y-90843360D01*
X137332100Y-90885780D01*
G37*
G36*
X140082920Y-91732230D02*
G01*
X138856100Y-91732230D01*
X138856100Y-91690070D01*
X140082920Y-91690070D01*
X140082920Y-91732230D01*
G37*
G36*
X141015100Y-88980780D02*
G01*
X140547740Y-88980780D01*
X140547740Y-88938360D01*
X141015100Y-88938360D01*
X141015100Y-88980780D01*
G37*
G36*
X141015100Y-89658190D02*
G01*
X137796920Y-89658190D01*
X137796920Y-89615770D01*
X141015100Y-89615770D01*
X141015100Y-89658190D01*
G37*
G36*
X139658740Y-87922230D02*
G01*
X137923920Y-87922230D01*
X137923920Y-87880070D01*
X139658740Y-87880070D01*
X139658740Y-87922230D01*
G37*
G36*
X141015100Y-89996780D02*
G01*
X140336920Y-89996780D01*
X140336920Y-89954360D01*
X141015100Y-89954360D01*
X141015100Y-89996780D01*
G37*
G36*
X137245740Y-90462230D02*
G01*
X136570100Y-90462230D01*
X136570100Y-90420070D01*
X137245740Y-90420070D01*
X137245740Y-90462230D01*
G37*
G36*
X137245740Y-89531190D02*
G01*
X136570100Y-89531190D01*
X136570100Y-89488770D01*
X137245740Y-89488770D01*
X137245740Y-89531190D01*
G37*
G36*
X137245740Y-89996780D02*
G01*
X136570100Y-89996780D01*
X136570100Y-89954360D01*
X137245740Y-89954360D01*
X137245740Y-89996780D01*
G37*
G36*
X139447920Y-87795230D02*
G01*
X138177920Y-87795230D01*
X138177920Y-87753070D01*
X139447920Y-87753070D01*
X139447920Y-87795230D01*
G37*
G36*
X139828920Y-90166190D02*
G01*
X137796920Y-90166190D01*
X137796920Y-90123770D01*
X139828920Y-90123770D01*
X139828920Y-90166190D01*
G37*
G36*
X139491100Y-87837780D02*
G01*
X138094100Y-87837780D01*
X138094100Y-87795360D01*
X139491100Y-87795360D01*
X139491100Y-87837780D01*
G37*
G36*
X137245740Y-89192230D02*
G01*
X136570100Y-89192230D01*
X136570100Y-89150070D01*
X137245740Y-89150070D01*
X137245740Y-89192230D01*
G37*
G36*
X141015100Y-90631780D02*
G01*
X140336920Y-90631780D01*
X140336920Y-90589360D01*
X141015100Y-90589360D01*
X141015100Y-90631780D01*
G37*
G36*
X139745100Y-91944190D02*
G01*
X137880740Y-91944190D01*
X137880740Y-91901770D01*
X139745100Y-91901770D01*
X139745100Y-91944190D01*
G37*
G36*
X141015100Y-89785190D02*
G01*
X137796920Y-89785190D01*
X137796920Y-89742770D01*
X141015100Y-89742770D01*
X141015100Y-89785190D01*
G37*
G36*
X141015100Y-89107780D02*
G01*
X140336920Y-89107780D01*
X140336920Y-89065360D01*
X141015100Y-89065360D01*
X141015100Y-89107780D01*
G37*
G36*
X141015100Y-88853780D02*
G01*
X140761100Y-88853780D01*
X140761100Y-88811360D01*
X141015100Y-88811360D01*
X141015100Y-88853780D01*
G37*
G36*
X139872100Y-88769190D02*
G01*
X139785740Y-88769190D01*
X139785740Y-88726770D01*
X139872100Y-88726770D01*
X139872100Y-88769190D01*
G37*
G36*
X139193920Y-87668230D02*
G01*
X138388740Y-87668230D01*
X138388740Y-87626070D01*
X139193920Y-87626070D01*
X139193920Y-87668230D01*
G37*
G36*
X140888100Y-91266780D02*
G01*
X139658740Y-91266780D01*
X139658740Y-91224360D01*
X140888100Y-91224360D01*
X140888100Y-91266780D01*
G37*
G36*
X137245740Y-89785190D02*
G01*
X136570100Y-89785190D01*
X136570100Y-89742770D01*
X137245740Y-89742770D01*
X137245740Y-89785190D01*
G37*
G36*
X138812920Y-87414230D02*
G01*
X138769740Y-87414230D01*
X138769740Y-87372070D01*
X138812920Y-87372070D01*
X138812920Y-87414230D01*
G37*
G36*
X137245740Y-90081230D02*
G01*
X136570100Y-90081230D01*
X136570100Y-90039070D01*
X137245740Y-90039070D01*
X137245740Y-90081230D01*
G37*
G36*
X139404740Y-89150190D02*
G01*
X138177920Y-89150190D01*
X138177920Y-89107770D01*
X139404740Y-89107770D01*
X139404740Y-89150190D01*
G37*
G36*
X139785740Y-89404190D02*
G01*
X137796920Y-89404190D01*
X137796920Y-89361770D01*
X139785740Y-89361770D01*
X139785740Y-89404190D01*
G37*
G36*
X140590920Y-91436190D02*
G01*
X139364100Y-91436190D01*
X139364100Y-91393770D01*
X140590920Y-91393770D01*
X140590920Y-91436190D01*
G37*
G36*
X141015100Y-90504780D02*
G01*
X140336920Y-90504780D01*
X140336920Y-90462360D01*
X141015100Y-90462360D01*
X141015100Y-90504780D01*
G37*
G36*
X137245740Y-90123780D02*
G01*
X136570100Y-90123780D01*
X136570100Y-90081360D01*
X137245740Y-90081360D01*
X137245740Y-90123780D01*
G37*
G36*
X141015100Y-90928190D02*
G01*
X140253100Y-90928190D01*
X140253100Y-90885770D01*
X141015100Y-90885770D01*
X141015100Y-90928190D01*
G37*
G36*
X138388740Y-91520780D02*
G01*
X137161920Y-91520780D01*
X137161920Y-91478360D01*
X138388740Y-91478360D01*
X138388740Y-91520780D01*
G37*
D11*
X141180180Y-78858941D02*
X141180180Y-78382751D01*
X141180180Y-78382751D02*
X140703990Y-78335132D01*
X140703990Y-78335132D02*
X140751609Y-78382751D01*
X140751609Y-78382751D02*
X140799228Y-78477989D01*
X140799228Y-78477989D02*
X140799228Y-78716084D01*
X140799228Y-78716084D02*
X140751609Y-78811322D01*
X140751609Y-78811322D02*
X140703990Y-78858941D01*
X140703990Y-78858941D02*
X140608752Y-78906560D01*
X140608752Y-78906560D02*
X140370657Y-78906560D01*
X140370657Y-78906560D02*
X140275419Y-78858941D01*
X140275419Y-78858941D02*
X140227800Y-78811322D01*
X140227800Y-78811322D02*
X140180180Y-78716084D01*
X140180180Y-78716084D02*
X140180180Y-78477989D01*
X140180180Y-78477989D02*
X140227800Y-78382751D01*
X140227800Y-78382751D02*
X140275419Y-78335132D01*
X140846847Y-79239894D02*
X140180180Y-79477989D01*
X140180180Y-79477989D02*
X140846847Y-79716084D01*
X136100180Y-77573227D02*
X136100180Y-78192274D01*
X136100180Y-78192274D02*
X135719228Y-77858941D01*
X135719228Y-77858941D02*
X135719228Y-78001798D01*
X135719228Y-78001798D02*
X135671609Y-78097036D01*
X135671609Y-78097036D02*
X135623990Y-78144655D01*
X135623990Y-78144655D02*
X135528752Y-78192274D01*
X135528752Y-78192274D02*
X135290657Y-78192274D01*
X135290657Y-78192274D02*
X135195419Y-78144655D01*
X135195419Y-78144655D02*
X135147800Y-78097036D01*
X135147800Y-78097036D02*
X135100180Y-78001798D01*
X135100180Y-78001798D02*
X135100180Y-77716084D01*
X135100180Y-77716084D02*
X135147800Y-77620846D01*
X135147800Y-77620846D02*
X135195419Y-77573227D01*
X135195419Y-78620846D02*
X135147800Y-78668465D01*
X135147800Y-78668465D02*
X135100180Y-78620846D01*
X135100180Y-78620846D02*
X135147800Y-78573227D01*
X135147800Y-78573227D02*
X135195419Y-78620846D01*
X135195419Y-78620846D02*
X135100180Y-78620846D01*
X136100180Y-79001798D02*
X136100180Y-79620845D01*
X136100180Y-79620845D02*
X135719228Y-79287512D01*
X135719228Y-79287512D02*
X135719228Y-79430369D01*
X135719228Y-79430369D02*
X135671609Y-79525607D01*
X135671609Y-79525607D02*
X135623990Y-79573226D01*
X135623990Y-79573226D02*
X135528752Y-79620845D01*
X135528752Y-79620845D02*
X135290657Y-79620845D01*
X135290657Y-79620845D02*
X135195419Y-79573226D01*
X135195419Y-79573226D02*
X135147800Y-79525607D01*
X135147800Y-79525607D02*
X135100180Y-79430369D01*
X135100180Y-79430369D02*
X135100180Y-79144655D01*
X135100180Y-79144655D02*
X135147800Y-79049417D01*
X135147800Y-79049417D02*
X135195419Y-79001798D01*
X135766847Y-79954179D02*
X135100180Y-80192274D01*
X135100180Y-80192274D02*
X135766847Y-80430369D01*
X142720180Y-77930370D02*
X143720180Y-77930370D01*
X143720180Y-77930370D02*
X143720180Y-78168465D01*
X143720180Y-78168465D02*
X143672561Y-78311322D01*
X143672561Y-78311322D02*
X143577323Y-78406560D01*
X143577323Y-78406560D02*
X143482085Y-78454179D01*
X143482085Y-78454179D02*
X143291609Y-78501798D01*
X143291609Y-78501798D02*
X143148752Y-78501798D01*
X143148752Y-78501798D02*
X142958276Y-78454179D01*
X142958276Y-78454179D02*
X142863038Y-78406560D01*
X142863038Y-78406560D02*
X142767800Y-78311322D01*
X142767800Y-78311322D02*
X142720180Y-78168465D01*
X142720180Y-78168465D02*
X142720180Y-77930370D01*
X143005895Y-78882751D02*
X143005895Y-79358941D01*
X142720180Y-78787513D02*
X143720180Y-79120846D01*
X143720180Y-79120846D02*
X142720180Y-79454179D01*
X143720180Y-79644656D02*
X143720180Y-80216084D01*
X142720180Y-79930370D02*
X143720180Y-79930370D01*
X138592561Y-78239893D02*
X138640180Y-78144655D01*
X138640180Y-78144655D02*
X138640180Y-78001798D01*
X138640180Y-78001798D02*
X138592561Y-77858941D01*
X138592561Y-77858941D02*
X138497323Y-77763703D01*
X138497323Y-77763703D02*
X138402085Y-77716084D01*
X138402085Y-77716084D02*
X138211609Y-77668465D01*
X138211609Y-77668465D02*
X138068752Y-77668465D01*
X138068752Y-77668465D02*
X137878276Y-77716084D01*
X137878276Y-77716084D02*
X137783038Y-77763703D01*
X137783038Y-77763703D02*
X137687800Y-77858941D01*
X137687800Y-77858941D02*
X137640180Y-78001798D01*
X137640180Y-78001798D02*
X137640180Y-78097036D01*
X137640180Y-78097036D02*
X137687800Y-78239893D01*
X137687800Y-78239893D02*
X137735419Y-78287512D01*
X137735419Y-78287512D02*
X138068752Y-78287512D01*
X138068752Y-78287512D02*
X138068752Y-78097036D01*
X137640180Y-78716084D02*
X138640180Y-78716084D01*
X138640180Y-78716084D02*
X137640180Y-79287512D01*
X137640180Y-79287512D02*
X138640180Y-79287512D01*
X137640180Y-79763703D02*
X138640180Y-79763703D01*
X138640180Y-79763703D02*
X138640180Y-80001798D01*
X138640180Y-80001798D02*
X138592561Y-80144655D01*
X138592561Y-80144655D02*
X138497323Y-80239893D01*
X138497323Y-80239893D02*
X138402085Y-80287512D01*
X138402085Y-80287512D02*
X138211609Y-80335131D01*
X138211609Y-80335131D02*
X138068752Y-80335131D01*
X138068752Y-80335131D02*
X137878276Y-80287512D01*
X137878276Y-80287512D02*
X137783038Y-80239893D01*
X137783038Y-80239893D02*
X137687800Y-80144655D01*
X137687800Y-80144655D02*
X137640180Y-80001798D01*
X137640180Y-80001798D02*
X137640180Y-79763703D01*
D12*
%TO.C,REF\u002A\u002A*%
X143922600Y-81082200D02*
X143922600Y-82412200D01*
X142592600Y-81082200D02*
X143922600Y-81082200D01*
X141322600Y-83742200D02*
X133642600Y-83742200D01*
X141322600Y-81082200D02*
X141322600Y-83742200D01*
X141322600Y-81082200D02*
X133642600Y-81082200D01*
X133642600Y-81082200D02*
X133642600Y-83742200D01*
%TD*%
M02*
