%TF.GenerationSoftware,KiCad,Pcbnew,8.0.2*%
%TF.CreationDate,2024-05-09T22:20:53+02:00*%
%TF.ProjectId,Gamecube controller breakout,47616d65-6375-4626-9520-636f6e74726f,rev?*%
%TF.SameCoordinates,Original*%
%TF.FileFunction,Copper,L1,Top*%
%TF.FilePolarity,Positive*%
%FSLAX46Y46*%
G04 Gerber Fmt 4.6, Leading zero omitted, Abs format (unit mm)*
G04 Created by KiCad (PCBNEW 8.0.2) date 2024-05-09 22:20:53*
%MOMM*%
%LPD*%
G01*
G04 APERTURE LIST*
%TA.AperFunction,NonConductor*%
%ADD10C,0.200000*%
%TD*%
%TA.AperFunction,ComponentPad*%
%ADD11O,1.200000X0.800000*%
%TD*%
%TA.AperFunction,ComponentPad*%
%ADD12O,1.700000X1.700000*%
%TD*%
%TA.AperFunction,ComponentPad*%
%ADD13R,1.700000X1.700000*%
%TD*%
%TA.AperFunction,ComponentPad*%
%ADD14O,2.650000X0.850000*%
%TD*%
%TA.AperFunction,Conductor*%
%ADD15C,0.500000*%
%TD*%
G04 APERTURE END LIST*
D10*
X126292600Y-76412130D02*
X151292600Y-76412130D01*
X151292600Y-111412130D01*
X126292600Y-111412130D01*
X126292600Y-76412130D01*
D11*
%TO.P,,3*%
%TO.N,N/C*%
X136882600Y-101297580D03*
%TD*%
%TO.P,,4*%
%TO.N,N/C*%
X140702600Y-100027580D03*
%TD*%
D12*
%TO.P,REF\u002A\u002A,4*%
%TO.N,N/C*%
X134972600Y-82412200D03*
%TO.P,REF\u002A\u002A,3*%
X137512600Y-82412200D03*
%TO.P,REF\u002A\u002A,2*%
X140052600Y-82412200D03*
D13*
%TO.P,REF\u002A\u002A,1*%
X142592600Y-82412200D03*
%TD*%
D11*
%TO.P,,5*%
%TO.N,N/C*%
X138792600Y-100027580D03*
%TD*%
D14*
%TO.P,,0*%
%TO.N,N/C*%
X138792600Y-106412580D03*
%TD*%
D11*
%TO.P,,2*%
%TO.N,N/C*%
X138792600Y-101297580D03*
%TD*%
%TO.P,,1*%
%TO.N,N/C*%
X140702600Y-101297580D03*
%TD*%
%TO.P,,6*%
%TO.N,N/C*%
X136882600Y-100027580D03*
%TD*%
D15*
%TO.N,*%
X142269240Y-100846160D02*
X141817820Y-101297580D01*
X142269240Y-85834760D02*
X142269240Y-100846160D01*
X140052600Y-83618120D02*
X142269240Y-85834760D01*
X140052600Y-82412200D02*
X140052600Y-83618120D01*
X141817820Y-101297580D02*
X140702600Y-101297580D01*
X143971040Y-83790640D02*
X142592600Y-82412200D01*
X143971040Y-100871560D02*
X143971040Y-83790640D01*
X140161040Y-102674960D02*
X142167640Y-102674960D01*
X142167640Y-102674960D02*
X143971040Y-100871560D01*
X138792600Y-101306520D02*
X140161040Y-102674960D01*
X138792600Y-101297580D02*
X138792600Y-101306520D01*
X134559760Y-79459360D02*
X137512600Y-82412200D01*
X131906040Y-80907160D02*
X133353840Y-79459360D01*
X133353840Y-79459360D02*
X134559760Y-79459360D01*
X131906040Y-97188560D02*
X131906040Y-80907160D01*
X136015060Y-101297580D02*
X131906040Y-97188560D01*
X136882600Y-101297580D02*
X136015060Y-101297580D01*
X140702600Y-85602200D02*
X137512600Y-82412200D01*
X140702600Y-100027580D02*
X140702600Y-85602200D01*
X136882600Y-100027580D02*
X136882600Y-84322200D01*
X136882600Y-84322200D02*
X134972600Y-82412200D01*
%TD*%
M02*
