%TF.GenerationSoftware,KiCad,Pcbnew,9.0.0*%
%TF.CreationDate,2025-10-27T19:16:05+01:00*%
%TF.ProjectId,wii_breakout_mount,7769695f-6272-4656-916b-6f75745f6d6f,rev?*%
%TF.SameCoordinates,Original*%
%TF.FileFunction,Profile,NP*%
%FSLAX46Y46*%
G04 Gerber Fmt 4.6, Leading zero omitted, Abs format (unit mm)*
G04 Created by KiCad (PCBNEW 9.0.0) date 2025-10-27 19:16:05*
%MOMM*%
%LPD*%
G01*
G04 APERTURE LIST*
%ADD10C,0.150000*%
%TA.AperFunction,Profile*%
%ADD11C,0.200000*%
%TD*%
G04 APERTURE END LIST*
D10*
X107217731Y-66056961D02*
X107122493Y-66152200D01*
X107122493Y-66152200D02*
X106836779Y-66247438D01*
X106836779Y-66247438D02*
X106646303Y-66247438D01*
X106646303Y-66247438D02*
X106360588Y-66152200D01*
X106360588Y-66152200D02*
X106170112Y-65961723D01*
X106170112Y-65961723D02*
X106074874Y-65771247D01*
X106074874Y-65771247D02*
X105979636Y-65390295D01*
X105979636Y-65390295D02*
X105979636Y-65104580D01*
X105979636Y-65104580D02*
X106074874Y-64723628D01*
X106074874Y-64723628D02*
X106170112Y-64533152D01*
X106170112Y-64533152D02*
X106360588Y-64342676D01*
X106360588Y-64342676D02*
X106646303Y-64247438D01*
X106646303Y-64247438D02*
X106836779Y-64247438D01*
X106836779Y-64247438D02*
X107122493Y-64342676D01*
X107122493Y-64342676D02*
X107217731Y-64437914D01*
X109217731Y-66247438D02*
X108551064Y-65295057D01*
X108074874Y-66247438D02*
X108074874Y-64247438D01*
X108074874Y-64247438D02*
X108836779Y-64247438D01*
X108836779Y-64247438D02*
X109027255Y-64342676D01*
X109027255Y-64342676D02*
X109122493Y-64437914D01*
X109122493Y-64437914D02*
X109217731Y-64628390D01*
X109217731Y-64628390D02*
X109217731Y-64914104D01*
X109217731Y-64914104D02*
X109122493Y-65104580D01*
X109122493Y-65104580D02*
X109027255Y-65199819D01*
X109027255Y-65199819D02*
X108836779Y-65295057D01*
X108836779Y-65295057D02*
X108074874Y-65295057D01*
X110646303Y-64247438D02*
X110646303Y-65676009D01*
X110646303Y-65676009D02*
X110551064Y-65961723D01*
X110551064Y-65961723D02*
X110360588Y-66152200D01*
X110360588Y-66152200D02*
X110074874Y-66247438D01*
X110074874Y-66247438D02*
X109884398Y-66247438D01*
D11*
X99000000Y-50000000D02*
X139000000Y-50000000D01*
X139000000Y-78000000D01*
X99000000Y-78000000D01*
X99000000Y-50000000D01*
M02*
