%TF.GenerationSoftware,KiCad,Pcbnew,8.0.2*%
%TF.CreationDate,2024-05-14T18:44:45+02:00*%
%TF.ProjectId,5v radio,35762072-6164-4696-9f2e-6b696361645f,rev?*%
%TF.SameCoordinates,Original*%
%TF.FileFunction,Copper,L2,Bot*%
%TF.FilePolarity,Positive*%
%FSLAX46Y46*%
G04 Gerber Fmt 4.6, Leading zero omitted, Abs format (unit mm)*
G04 Created by KiCad (PCBNEW 8.0.2) date 2024-05-14 18:44:45*
%MOMM*%
%LPD*%
G01*
G04 APERTURE LIST*
%TA.AperFunction,ComponentPad*%
%ADD10R,1.700000X1.700000*%
%TD*%
%TA.AperFunction,ComponentPad*%
%ADD11O,1.700000X1.700000*%
%TD*%
%TA.AperFunction,ComponentPad*%
%ADD12C,2.540000*%
%TD*%
%TA.AperFunction,ComponentPad*%
%ADD13R,1.600000X1.600000*%
%TD*%
%TA.AperFunction,ComponentPad*%
%ADD14O,1.600000X1.600000*%
%TD*%
%TA.AperFunction,ComponentPad*%
%ADD15C,1.600000*%
%TD*%
%TA.AperFunction,ComponentPad*%
%ADD16C,1.700000*%
%TD*%
%TA.AperFunction,ComponentPad*%
%ADD17R,2.000000X1.905000*%
%TD*%
%TA.AperFunction,ComponentPad*%
%ADD18O,2.000000X1.905000*%
%TD*%
%TA.AperFunction,ComponentPad*%
%ADD19C,1.422400*%
%TD*%
%TA.AperFunction,ComponentPad*%
%ADD20O,1.422400X1.422400*%
%TD*%
%TA.AperFunction,ComponentPad*%
%ADD21C,3.500000*%
%TD*%
%TA.AperFunction,Conductor*%
%ADD22C,0.300000*%
%TD*%
G04 APERTURE END LIST*
D10*
%TO.P,Oled_screen1,1,VCC*%
%TO.N,Net-(3v3_regulator1-VI)*%
X120914000Y-106314000D03*
D11*
%TO.P,Oled_screen1,2,GND*%
%TO.N,Net-(3v3_regulator1-GND)*%
X123454000Y-106314000D03*
%TO.P,Oled_screen1,3,SCK*%
%TO.N,Net-(A1-A5)*%
X125994000Y-106314000D03*
%TO.P,Oled_screen1,4,SDA*%
%TO.N,Net-(A1-A4)*%
X128534000Y-106314000D03*
%TD*%
D12*
%TO.P,Nes1,1,5V*%
%TO.N,Net-(3v3_regulator1-VI)*%
X157734000Y-108966000D03*
%TO.P,Nes1,2,CLK*%
%TO.N,Net-(A1-D6)*%
X161798000Y-108966000D03*
%TO.P,Nes1,3,LTCH*%
%TO.N,Net-(A1-D5)*%
X161798000Y-104902000D03*
%TO.P,Nes1,4,DATA*%
%TO.N,Net-(A1-D4)*%
X161798000Y-100838000D03*
%TO.P,Nes1,5*%
%TO.N,N/C*%
X157734000Y-104902000D03*
%TO.P,Nes1,6*%
X157734000Y-100838000D03*
%TO.P,Nes1,7,GND*%
%TO.N,Net-(3v3_regulator1-GND)*%
X161798000Y-113030000D03*
%TD*%
D10*
%TO.P,A1,1,D1/TX*%
%TO.N,unconnected-(A1-D1{slash}TX-Pad1)*%
X142748000Y-57310143D03*
D13*
X142748000Y-67310000D03*
D11*
%TO.P,A1,2,D0/RX*%
%TO.N,unconnected-(A1-D0{slash}RX-Pad2)*%
X140208000Y-57310143D03*
D14*
X140208000Y-67310000D03*
D11*
%TO.P,A1,3,~{RESET}*%
%TO.N,unconnected-(A1-~{RESET}-Pad3)*%
X137668000Y-57310143D03*
D14*
X137668000Y-67310000D03*
D11*
%TO.P,A1,4,GND*%
%TO.N,Net-(3v3_regulator1-GND)*%
X135128000Y-57310143D03*
D14*
X135128000Y-67310000D03*
D11*
%TO.P,A1,5,D2*%
%TO.N,Net-(A1-D2)*%
X132588000Y-57310143D03*
D14*
X132588000Y-67310000D03*
D11*
%TO.P,A1,6,D3*%
%TO.N,Net-(A1-D3)*%
X130048000Y-57310143D03*
D14*
X130048000Y-67310000D03*
D11*
%TO.P,A1,7,D4*%
%TO.N,Net-(A1-D4)*%
X127508000Y-57310143D03*
D14*
X127508000Y-67310000D03*
D11*
%TO.P,A1,8,D5*%
%TO.N,Net-(A1-D5)*%
X124968000Y-57310143D03*
D14*
X124968000Y-67310000D03*
D11*
%TO.P,A1,9,D6*%
%TO.N,Net-(A1-D6)*%
X122428000Y-57310143D03*
D14*
X122428000Y-67310000D03*
D11*
%TO.P,A1,10,D7*%
%TO.N,Net-(A1-D7)*%
X119888000Y-57310143D03*
D14*
X119888000Y-67310000D03*
D11*
%TO.P,A1,11,D8*%
%TO.N,Net-(A1-D8)*%
X117348000Y-57310143D03*
D14*
X117348000Y-67310000D03*
D11*
%TO.P,A1,12,D9*%
%TO.N,Net-(A1-D9)*%
X114808000Y-57310143D03*
D14*
X114808000Y-67310000D03*
D11*
%TO.P,A1,13,D10*%
%TO.N,unconnected-(A1-D10-Pad13)*%
X112268000Y-57310143D03*
D14*
X112268000Y-67310000D03*
D11*
%TO.P,A1,14,D11*%
%TO.N,Net-(A1-D11)*%
X109728000Y-57310143D03*
D14*
X109728000Y-67310000D03*
D11*
%TO.P,A1,15,D12*%
%TO.N,Net-(A1-D12)*%
X107188000Y-57310143D03*
D14*
X107188000Y-67310000D03*
%TO.P,A1,16,D13*%
%TO.N,Net-(A1-D13)*%
X107188000Y-82550000D03*
D11*
X107188000Y-92550143D03*
D14*
%TO.P,A1,17,3V3*%
%TO.N,unconnected-(A1-3V3-Pad17)*%
X109728000Y-82550000D03*
D11*
X109728000Y-92550143D03*
D14*
%TO.P,A1,18,AREF*%
%TO.N,unconnected-(A1-AREF-Pad18)*%
X112268000Y-82550000D03*
D11*
X112268000Y-92550143D03*
D14*
%TO.P,A1,19,A0*%
%TO.N,unconnected-(A1-A0-Pad19)*%
X114808000Y-82550000D03*
D11*
X114808000Y-92550143D03*
D14*
%TO.P,A1,20,A1*%
%TO.N,unconnected-(A1-A1-Pad20)*%
X117348000Y-82550000D03*
D11*
X117348000Y-92550143D03*
D14*
%TO.P,A1,21,A2*%
%TO.N,unconnected-(A1-A2-Pad21)*%
X119888000Y-82550000D03*
D11*
X119888000Y-92550143D03*
D14*
%TO.P,A1,22,A3*%
%TO.N,unconnected-(A1-A3-Pad22)*%
X122428000Y-82550000D03*
D11*
X122428000Y-92550143D03*
D14*
%TO.P,A1,23,A4*%
%TO.N,Net-(A1-A4)*%
X124968000Y-82550000D03*
D11*
X124968000Y-92550143D03*
D14*
%TO.P,A1,24,A5*%
%TO.N,Net-(A1-A5)*%
X127508000Y-82550000D03*
D11*
X127508000Y-92550143D03*
D14*
%TO.P,A1,25,A6*%
%TO.N,unconnected-(A1-A6-Pad25)*%
X130048000Y-82550000D03*
D11*
X130048000Y-92550143D03*
D14*
%TO.P,A1,26,A7*%
%TO.N,unconnected-(A1-A7-Pad26)*%
X132588000Y-82550000D03*
D11*
X132588000Y-92550143D03*
D14*
%TO.P,A1,27,+5V*%
%TO.N,Net-(3v3_regulator1-VI)*%
X135128000Y-82550000D03*
D11*
X135128000Y-92550143D03*
D14*
%TO.P,A1,28,~{RESET}*%
%TO.N,unconnected-(A1-~{RESET}-Pad28)*%
X137668000Y-82550000D03*
D11*
X137668000Y-92550143D03*
D14*
%TO.P,A1,29,GND*%
%TO.N,Net-(3v3_regulator1-GND)*%
X140208000Y-82550000D03*
D11*
X140208000Y-92550143D03*
D14*
%TO.P,A1,30,VIN*%
%TO.N,unconnected-(A1-VIN-Pad30)*%
X142748000Y-82550000D03*
D10*
X142748000Y-92550143D03*
%TD*%
D13*
%TO.P,C1,1*%
%TO.N,Net-(3v3_regulator1-VO)*%
X125984000Y-31282000D03*
D15*
%TO.P,C1,2*%
%TO.N,Net-(3v3_regulator1-GND)*%
X125984000Y-33782000D03*
%TD*%
D12*
%TO.P,Snes1,7,GND*%
%TO.N,Net-(3v3_regulator1-GND)*%
X158544600Y-55920000D03*
%TO.P,Snes1,6*%
%TO.N,N/C*%
X158544600Y-59984000D03*
%TO.P,Snes1,5*%
X158544600Y-64048000D03*
%TO.P,Snes1,4,DATA*%
%TO.N,Net-(A1-D4)*%
X158544600Y-70612000D03*
%TO.P,Snes1,3,LTCH*%
%TO.N,Net-(A1-D5)*%
X158544600Y-74676000D03*
%TO.P,Snes1,2,CLK*%
%TO.N,Net-(A1-D6)*%
X158544600Y-78740000D03*
%TO.P,Snes1,1,5V*%
%TO.N,Net-(3v3_regulator1-VI)*%
X158544600Y-82804000D03*
%TD*%
D10*
%TO.P,NRF24,0*%
%TO.N,N/C*%
X169183000Y-30450000D03*
D11*
X169183000Y-32990000D03*
X169183000Y-35530000D03*
X169183000Y-38070000D03*
X169183000Y-40610000D03*
X169183000Y-43150000D03*
D10*
%TO.P,NRF24,1,GND*%
%TO.N,Net-(3v3_regulator1-GND)*%
X131445000Y-32990000D03*
D16*
%TO.P,NRF24,2,VCC*%
%TO.N,Net-(3v3_regulator1-VO)*%
X133985000Y-32990000D03*
%TO.P,NRF24,3,CE*%
%TO.N,Net-(A1-D8)*%
X131445000Y-35530000D03*
%TO.P,NRF24,4,~{CSN}*%
%TO.N,Net-(A1-D9)*%
X133985000Y-35530000D03*
%TO.P,NRF24,5,SCK*%
%TO.N,Net-(A1-D13)*%
X131445000Y-38070000D03*
%TO.P,NRF24,6,MOSI*%
%TO.N,Net-(A1-D11)*%
X133985000Y-38070000D03*
%TO.P,NRF24,7,MISO*%
%TO.N,Net-(A1-D12)*%
X131445000Y-40610000D03*
%TO.P,NRF24,8,IRQ*%
%TO.N,Net-(A1-D7)*%
X133985000Y-40610000D03*
%TD*%
D17*
%TO.P,3v3_regulator1,1,GND*%
%TO.N,Net-(3v3_regulator1-GND)*%
X120736000Y-41910000D03*
D18*
%TO.P,3v3_regulator1,2,VO*%
%TO.N,Net-(3v3_regulator1-VO)*%
X120736000Y-39370000D03*
%TO.P,3v3_regulator1,3,VI*%
%TO.N,Net-(3v3_regulator1-VI)*%
X120736000Y-36830000D03*
%TD*%
D19*
%TO.P,ps/2_connector1,1*%
%TO.N,unconnected-(ps/2_connector1-Pad1)*%
X156508600Y-126786000D03*
%TO.P,ps/2_connector1,2,5v*%
%TO.N,Net-(3v3_regulator1-VI)*%
X156508600Y-129286000D03*
%TO.P,ps/2_connector1,3*%
%TO.N,unconnected-(ps/2_connector1-Pad3)*%
X158608600Y-129286000D03*
%TO.P,ps/2_connector1,4,DATA*%
%TO.N,Net-(A1-D3)*%
X161208600Y-129286000D03*
%TO.P,ps/2_connector1,5,GND*%
%TO.N,Net-(3v3_regulator1-GND)*%
X163308600Y-129286000D03*
D20*
%TO.P,ps/2_connector1,6,CLK*%
%TO.N,Net-(A1-D2)*%
X163308600Y-126836000D03*
D21*
%TO.P,ps/2_connector1,SH1*%
%TO.N,N/C*%
X153108600Y-132286000D03*
%TO.P,ps/2_connector1,SH2*%
X159908600Y-133086000D03*
%TO.P,ps/2_connector1,SH3*%
X166658600Y-132286000D03*
%TD*%
D22*
%TO.N,Net-(A1-D2)*%
X164019800Y-112960774D02*
X164019800Y-126124800D01*
X164019800Y-126124800D02*
X163308600Y-126836000D01*
X162469026Y-111410000D02*
X164019800Y-112960774D01*
X161126974Y-111410000D02*
X162469026Y-111410000D01*
X160178000Y-110461026D02*
X161126974Y-111410000D01*
X158405026Y-107346000D02*
X160178000Y-109118974D01*
X155165026Y-107346000D02*
X158405026Y-107346000D01*
X141548000Y-93728974D02*
X155165026Y-107346000D01*
X160178000Y-109118974D02*
X160178000Y-110461026D01*
X141548000Y-92193086D02*
X141548000Y-93728974D01*
X139008000Y-89653086D02*
X141548000Y-92193086D01*
X139008000Y-73730000D02*
X139008000Y-89653086D01*
X132588000Y-67310000D02*
X139008000Y-73730000D01*
%TO.N,Net-(A1-D3)*%
X136328000Y-93047200D02*
X136328000Y-73590000D01*
X161208600Y-117927800D02*
X136328000Y-93047200D01*
X136328000Y-73590000D02*
X130048000Y-67310000D01*
X161208600Y-129286000D02*
X161208600Y-117927800D01*
%TO.N,Net-(3v3_regulator1-GND)*%
X161798000Y-113030000D02*
X161798000Y-127775400D01*
X161798000Y-127775400D02*
X163308600Y-129286000D01*
%TO.N,Net-(A1-D6)*%
X163418000Y-83613400D02*
X158544600Y-78740000D01*
X163418000Y-107346000D02*
X163418000Y-83613400D01*
X161798000Y-108966000D02*
X163418000Y-107346000D01*
%TO.N,Net-(3v3_regulator1-GND)*%
X140208000Y-93731026D02*
X159506974Y-113030000D01*
X159506974Y-113030000D02*
X161798000Y-113030000D01*
X140208000Y-93731026D02*
X140208000Y-92550143D01*
X135128000Y-67310000D02*
X135128000Y-67564000D01*
X120736000Y-41910000D02*
X125984000Y-36662000D01*
X135128000Y-67564000D02*
X140208000Y-72644000D01*
X125984000Y-36662000D02*
X125984000Y-33782000D01*
X140208000Y-72644000D02*
X140208000Y-82550000D01*
%TO.N,Net-(A1-D9)*%
X116008000Y-58510143D02*
X114808000Y-57310143D01*
X118548000Y-51632000D02*
X118548000Y-57807200D01*
X117845057Y-58510143D02*
X116008000Y-58510143D01*
X132645000Y-38567057D02*
X131842057Y-39370000D01*
X131842057Y-39370000D02*
X130810000Y-39370000D01*
X130810000Y-39370000D02*
X118548000Y-51632000D01*
X133985000Y-35530000D02*
X132645000Y-36870000D01*
X118548000Y-57807200D02*
X117845057Y-58510143D01*
X132645000Y-36870000D02*
X132645000Y-38567057D01*
%TO.N,Net-(A1-D8)*%
X131445000Y-35530000D02*
X117348000Y-49627000D01*
X117348000Y-49627000D02*
X117348000Y-57310143D01*
%TO.N,Net-(A1-D13)*%
X121088000Y-68650000D02*
X107188000Y-82550000D01*
X131445000Y-38070000D02*
X131445000Y-37362894D01*
X132645000Y-40112943D02*
X132645000Y-42856086D01*
X135185000Y-38567057D02*
X134482057Y-39270000D01*
X121088000Y-54413086D02*
X121088000Y-68650000D01*
X131445000Y-37362894D02*
X132785000Y-36022894D01*
X135185000Y-35032943D02*
X135185000Y-38567057D01*
X132785000Y-36022894D02*
X132785000Y-35032943D01*
X132645000Y-42856086D02*
X121088000Y-54413086D01*
X132785000Y-35032943D02*
X133487943Y-34330000D01*
X134482057Y-39270000D02*
X133487943Y-39270000D01*
X133487943Y-39270000D02*
X132645000Y-40112943D01*
X134482057Y-34330000D02*
X135185000Y-35032943D01*
X133487943Y-34330000D02*
X134482057Y-34330000D01*
%TO.N,Net-(3v3_regulator1-VO)*%
X124834000Y-32432000D02*
X125984000Y-31282000D01*
X120736000Y-39370000D02*
X124834000Y-35272000D01*
X124834000Y-35272000D02*
X124834000Y-32432000D01*
%TO.N,Net-(3v3_regulator1-VI)*%
X121364143Y-106314000D02*
X135128000Y-92550143D01*
X120914000Y-106314000D02*
X121364143Y-106314000D01*
%TD*%
M02*
