%TF.GenerationSoftware,KiCad,Pcbnew,8.0.2*%
%TF.CreationDate,2024-05-14T18:44:45+02:00*%
%TF.ProjectId,5v radio,35762072-6164-4696-9f2e-6b696361645f,rev?*%
%TF.SameCoordinates,Original*%
%TF.FileFunction,Legend,Top*%
%TF.FilePolarity,Positive*%
%FSLAX46Y46*%
G04 Gerber Fmt 4.6, Leading zero omitted, Abs format (unit mm)*
G04 Created by KiCad (PCBNEW 8.0.2) date 2024-05-14 18:44:45*
%MOMM*%
%LPD*%
G01*
G04 APERTURE LIST*
%ADD10C,0.100000*%
%ADD11C,0.150000*%
%ADD12C,0.120000*%
%ADD13C,0.203200*%
%ADD14C,0.127000*%
G04 APERTURE END LIST*
D10*
X98806000Y-27178000D02*
X172212000Y-27178000D01*
X172212000Y-140716000D01*
X98806000Y-140716000D01*
X98806000Y-27178000D01*
D11*
X143423371Y-96563112D02*
X141923371Y-97063112D01*
X141923371Y-97063112D02*
X143423371Y-97563112D01*
X141923371Y-98063111D02*
X143423371Y-98063111D01*
X141923371Y-98777397D02*
X143423371Y-98777397D01*
X143423371Y-98777397D02*
X141923371Y-99634540D01*
X141923371Y-99634540D02*
X143423371Y-99634540D01*
X140811942Y-97063112D02*
X140883371Y-96920255D01*
X140883371Y-96920255D02*
X140883371Y-96705969D01*
X140883371Y-96705969D02*
X140811942Y-96491683D01*
X140811942Y-96491683D02*
X140669085Y-96348826D01*
X140669085Y-96348826D02*
X140526228Y-96277397D01*
X140526228Y-96277397D02*
X140240514Y-96205969D01*
X140240514Y-96205969D02*
X140026228Y-96205969D01*
X140026228Y-96205969D02*
X139740514Y-96277397D01*
X139740514Y-96277397D02*
X139597657Y-96348826D01*
X139597657Y-96348826D02*
X139454800Y-96491683D01*
X139454800Y-96491683D02*
X139383371Y-96705969D01*
X139383371Y-96705969D02*
X139383371Y-96848826D01*
X139383371Y-96848826D02*
X139454800Y-97063112D01*
X139454800Y-97063112D02*
X139526228Y-97134540D01*
X139526228Y-97134540D02*
X140026228Y-97134540D01*
X140026228Y-97134540D02*
X140026228Y-96848826D01*
X139383371Y-97777397D02*
X140883371Y-97777397D01*
X140883371Y-97777397D02*
X139383371Y-98634540D01*
X139383371Y-98634540D02*
X140883371Y-98634540D01*
X139383371Y-99348826D02*
X140883371Y-99348826D01*
X140883371Y-99348826D02*
X140883371Y-99705969D01*
X140883371Y-99705969D02*
X140811942Y-99920255D01*
X140811942Y-99920255D02*
X140669085Y-100063112D01*
X140669085Y-100063112D02*
X140526228Y-100134541D01*
X140526228Y-100134541D02*
X140240514Y-100205969D01*
X140240514Y-100205969D02*
X140026228Y-100205969D01*
X140026228Y-100205969D02*
X139740514Y-100134541D01*
X139740514Y-100134541D02*
X139597657Y-100063112D01*
X139597657Y-100063112D02*
X139454800Y-99920255D01*
X139454800Y-99920255D02*
X139383371Y-99705969D01*
X139383371Y-99705969D02*
X139383371Y-99348826D01*
X122031942Y-95634541D02*
X122031942Y-96348827D01*
X121603371Y-95491684D02*
X123103371Y-95991684D01*
X123103371Y-95991684D02*
X121603371Y-96491684D01*
X121603371Y-96991683D02*
X123103371Y-96991683D01*
X123103371Y-96991683D02*
X123103371Y-97348826D01*
X123103371Y-97348826D02*
X123031942Y-97563112D01*
X123031942Y-97563112D02*
X122889085Y-97705969D01*
X122889085Y-97705969D02*
X122746228Y-97777398D01*
X122746228Y-97777398D02*
X122460514Y-97848826D01*
X122460514Y-97848826D02*
X122246228Y-97848826D01*
X122246228Y-97848826D02*
X121960514Y-97777398D01*
X121960514Y-97777398D02*
X121817657Y-97705969D01*
X121817657Y-97705969D02*
X121674800Y-97563112D01*
X121674800Y-97563112D02*
X121603371Y-97348826D01*
X121603371Y-97348826D02*
X121603371Y-96991683D01*
X121746228Y-99348826D02*
X121674800Y-99277398D01*
X121674800Y-99277398D02*
X121603371Y-99063112D01*
X121603371Y-99063112D02*
X121603371Y-98920255D01*
X121603371Y-98920255D02*
X121674800Y-98705969D01*
X121674800Y-98705969D02*
X121817657Y-98563112D01*
X121817657Y-98563112D02*
X121960514Y-98491683D01*
X121960514Y-98491683D02*
X122246228Y-98420255D01*
X122246228Y-98420255D02*
X122460514Y-98420255D01*
X122460514Y-98420255D02*
X122746228Y-98491683D01*
X122746228Y-98491683D02*
X122889085Y-98563112D01*
X122889085Y-98563112D02*
X123031942Y-98705969D01*
X123031942Y-98705969D02*
X123103371Y-98920255D01*
X123103371Y-98920255D02*
X123103371Y-99063112D01*
X123103371Y-99063112D02*
X123031942Y-99277398D01*
X123031942Y-99277398D02*
X122960514Y-99348826D01*
X123103371Y-99848826D02*
X123103371Y-100777398D01*
X123103371Y-100777398D02*
X122531942Y-100277398D01*
X122531942Y-100277398D02*
X122531942Y-100491683D01*
X122531942Y-100491683D02*
X122460514Y-100634541D01*
X122460514Y-100634541D02*
X122389085Y-100705969D01*
X122389085Y-100705969D02*
X122246228Y-100777398D01*
X122246228Y-100777398D02*
X121889085Y-100777398D01*
X121889085Y-100777398D02*
X121746228Y-100705969D01*
X121746228Y-100705969D02*
X121674800Y-100634541D01*
X121674800Y-100634541D02*
X121603371Y-100491683D01*
X121603371Y-100491683D02*
X121603371Y-100063112D01*
X121603371Y-100063112D02*
X121674800Y-99920255D01*
X121674800Y-99920255D02*
X121746228Y-99848826D01*
X129223371Y-51001969D02*
X130723371Y-51001969D01*
X130723371Y-51001969D02*
X130723371Y-51359112D01*
X130723371Y-51359112D02*
X130651942Y-51573398D01*
X130651942Y-51573398D02*
X130509085Y-51716255D01*
X130509085Y-51716255D02*
X130366228Y-51787684D01*
X130366228Y-51787684D02*
X130080514Y-51859112D01*
X130080514Y-51859112D02*
X129866228Y-51859112D01*
X129866228Y-51859112D02*
X129580514Y-51787684D01*
X129580514Y-51787684D02*
X129437657Y-51716255D01*
X129437657Y-51716255D02*
X129294800Y-51573398D01*
X129294800Y-51573398D02*
X129223371Y-51359112D01*
X129223371Y-51359112D02*
X129223371Y-51001969D01*
X130723371Y-52359112D02*
X130723371Y-53287684D01*
X130723371Y-53287684D02*
X130151942Y-52787684D01*
X130151942Y-52787684D02*
X130151942Y-53001969D01*
X130151942Y-53001969D02*
X130080514Y-53144827D01*
X130080514Y-53144827D02*
X130009085Y-53216255D01*
X130009085Y-53216255D02*
X129866228Y-53287684D01*
X129866228Y-53287684D02*
X129509085Y-53287684D01*
X129509085Y-53287684D02*
X129366228Y-53216255D01*
X129366228Y-53216255D02*
X129294800Y-53144827D01*
X129294800Y-53144827D02*
X129223371Y-53001969D01*
X129223371Y-53001969D02*
X129223371Y-52573398D01*
X129223371Y-52573398D02*
X129294800Y-52430541D01*
X129294800Y-52430541D02*
X129366228Y-52359112D01*
X136843371Y-97384540D02*
X137557657Y-96884540D01*
X136843371Y-96527397D02*
X138343371Y-96527397D01*
X138343371Y-96527397D02*
X138343371Y-97098826D01*
X138343371Y-97098826D02*
X138271942Y-97241683D01*
X138271942Y-97241683D02*
X138200514Y-97313112D01*
X138200514Y-97313112D02*
X138057657Y-97384540D01*
X138057657Y-97384540D02*
X137843371Y-97384540D01*
X137843371Y-97384540D02*
X137700514Y-97313112D01*
X137700514Y-97313112D02*
X137629085Y-97241683D01*
X137629085Y-97241683D02*
X137557657Y-97098826D01*
X137557657Y-97098826D02*
X137557657Y-96527397D01*
X136914800Y-97955969D02*
X136843371Y-98170255D01*
X136843371Y-98170255D02*
X136843371Y-98527397D01*
X136843371Y-98527397D02*
X136914800Y-98670255D01*
X136914800Y-98670255D02*
X136986228Y-98741683D01*
X136986228Y-98741683D02*
X137129085Y-98813112D01*
X137129085Y-98813112D02*
X137271942Y-98813112D01*
X137271942Y-98813112D02*
X137414800Y-98741683D01*
X137414800Y-98741683D02*
X137486228Y-98670255D01*
X137486228Y-98670255D02*
X137557657Y-98527397D01*
X137557657Y-98527397D02*
X137629085Y-98241683D01*
X137629085Y-98241683D02*
X137700514Y-98098826D01*
X137700514Y-98098826D02*
X137771942Y-98027397D01*
X137771942Y-98027397D02*
X137914800Y-97955969D01*
X137914800Y-97955969D02*
X138057657Y-97955969D01*
X138057657Y-97955969D02*
X138200514Y-98027397D01*
X138200514Y-98027397D02*
X138271942Y-98098826D01*
X138271942Y-98098826D02*
X138343371Y-98241683D01*
X138343371Y-98241683D02*
X138343371Y-98598826D01*
X138343371Y-98598826D02*
X138271942Y-98813112D01*
X138343371Y-99241683D02*
X138343371Y-100098826D01*
X136843371Y-99670254D02*
X138343371Y-99670254D01*
X114411942Y-95634541D02*
X114411942Y-96348827D01*
X113983371Y-95491684D02*
X115483371Y-95991684D01*
X115483371Y-95991684D02*
X113983371Y-96491684D01*
X113983371Y-96991683D02*
X115483371Y-96991683D01*
X115483371Y-96991683D02*
X115483371Y-97348826D01*
X115483371Y-97348826D02*
X115411942Y-97563112D01*
X115411942Y-97563112D02*
X115269085Y-97705969D01*
X115269085Y-97705969D02*
X115126228Y-97777398D01*
X115126228Y-97777398D02*
X114840514Y-97848826D01*
X114840514Y-97848826D02*
X114626228Y-97848826D01*
X114626228Y-97848826D02*
X114340514Y-97777398D01*
X114340514Y-97777398D02*
X114197657Y-97705969D01*
X114197657Y-97705969D02*
X114054800Y-97563112D01*
X114054800Y-97563112D02*
X113983371Y-97348826D01*
X113983371Y-97348826D02*
X113983371Y-96991683D01*
X114126228Y-99348826D02*
X114054800Y-99277398D01*
X114054800Y-99277398D02*
X113983371Y-99063112D01*
X113983371Y-99063112D02*
X113983371Y-98920255D01*
X113983371Y-98920255D02*
X114054800Y-98705969D01*
X114054800Y-98705969D02*
X114197657Y-98563112D01*
X114197657Y-98563112D02*
X114340514Y-98491683D01*
X114340514Y-98491683D02*
X114626228Y-98420255D01*
X114626228Y-98420255D02*
X114840514Y-98420255D01*
X114840514Y-98420255D02*
X115126228Y-98491683D01*
X115126228Y-98491683D02*
X115269085Y-98563112D01*
X115269085Y-98563112D02*
X115411942Y-98705969D01*
X115411942Y-98705969D02*
X115483371Y-98920255D01*
X115483371Y-98920255D02*
X115483371Y-99063112D01*
X115483371Y-99063112D02*
X115411942Y-99277398D01*
X115411942Y-99277398D02*
X115340514Y-99348826D01*
X115483371Y-100277398D02*
X115483371Y-100420255D01*
X115483371Y-100420255D02*
X115411942Y-100563112D01*
X115411942Y-100563112D02*
X115340514Y-100634541D01*
X115340514Y-100634541D02*
X115197657Y-100705969D01*
X115197657Y-100705969D02*
X114911942Y-100777398D01*
X114911942Y-100777398D02*
X114554800Y-100777398D01*
X114554800Y-100777398D02*
X114269085Y-100705969D01*
X114269085Y-100705969D02*
X114126228Y-100634541D01*
X114126228Y-100634541D02*
X114054800Y-100563112D01*
X114054800Y-100563112D02*
X113983371Y-100420255D01*
X113983371Y-100420255D02*
X113983371Y-100277398D01*
X113983371Y-100277398D02*
X114054800Y-100134541D01*
X114054800Y-100134541D02*
X114126228Y-100063112D01*
X114126228Y-100063112D02*
X114269085Y-99991683D01*
X114269085Y-99991683D02*
X114554800Y-99920255D01*
X114554800Y-99920255D02*
X114911942Y-99920255D01*
X114911942Y-99920255D02*
X115197657Y-99991683D01*
X115197657Y-99991683D02*
X115340514Y-100063112D01*
X115340514Y-100063112D02*
X115411942Y-100134541D01*
X115411942Y-100134541D02*
X115483371Y-100277398D01*
X143423371Y-50216255D02*
X143423371Y-51073398D01*
X141923371Y-50644826D02*
X143423371Y-50644826D01*
X143423371Y-51430540D02*
X141923371Y-52430540D01*
X143423371Y-52430540D02*
X141923371Y-51430540D01*
X141923371Y-53001968D02*
X143423371Y-53001968D01*
X143423371Y-53001968D02*
X143423371Y-53359111D01*
X143423371Y-53359111D02*
X143351942Y-53573397D01*
X143351942Y-53573397D02*
X143209085Y-53716254D01*
X143209085Y-53716254D02*
X143066228Y-53787683D01*
X143066228Y-53787683D02*
X142780514Y-53859111D01*
X142780514Y-53859111D02*
X142566228Y-53859111D01*
X142566228Y-53859111D02*
X142280514Y-53787683D01*
X142280514Y-53787683D02*
X142137657Y-53716254D01*
X142137657Y-53716254D02*
X141994800Y-53573397D01*
X141994800Y-53573397D02*
X141923371Y-53359111D01*
X141923371Y-53359111D02*
X141923371Y-53001968D01*
X106688800Y-96277398D02*
X106617371Y-96491684D01*
X106617371Y-96491684D02*
X106617371Y-96848826D01*
X106617371Y-96848826D02*
X106688800Y-96991684D01*
X106688800Y-96991684D02*
X106760228Y-97063112D01*
X106760228Y-97063112D02*
X106903085Y-97134541D01*
X106903085Y-97134541D02*
X107045942Y-97134541D01*
X107045942Y-97134541D02*
X107188800Y-97063112D01*
X107188800Y-97063112D02*
X107260228Y-96991684D01*
X107260228Y-96991684D02*
X107331657Y-96848826D01*
X107331657Y-96848826D02*
X107403085Y-96563112D01*
X107403085Y-96563112D02*
X107474514Y-96420255D01*
X107474514Y-96420255D02*
X107545942Y-96348826D01*
X107545942Y-96348826D02*
X107688800Y-96277398D01*
X107688800Y-96277398D02*
X107831657Y-96277398D01*
X107831657Y-96277398D02*
X107974514Y-96348826D01*
X107974514Y-96348826D02*
X108045942Y-96420255D01*
X108045942Y-96420255D02*
X108117371Y-96563112D01*
X108117371Y-96563112D02*
X108117371Y-96920255D01*
X108117371Y-96920255D02*
X108045942Y-97134541D01*
X106760228Y-98634540D02*
X106688800Y-98563112D01*
X106688800Y-98563112D02*
X106617371Y-98348826D01*
X106617371Y-98348826D02*
X106617371Y-98205969D01*
X106617371Y-98205969D02*
X106688800Y-97991683D01*
X106688800Y-97991683D02*
X106831657Y-97848826D01*
X106831657Y-97848826D02*
X106974514Y-97777397D01*
X106974514Y-97777397D02*
X107260228Y-97705969D01*
X107260228Y-97705969D02*
X107474514Y-97705969D01*
X107474514Y-97705969D02*
X107760228Y-97777397D01*
X107760228Y-97777397D02*
X107903085Y-97848826D01*
X107903085Y-97848826D02*
X108045942Y-97991683D01*
X108045942Y-97991683D02*
X108117371Y-98205969D01*
X108117371Y-98205969D02*
X108117371Y-98348826D01*
X108117371Y-98348826D02*
X108045942Y-98563112D01*
X108045942Y-98563112D02*
X107974514Y-98634540D01*
X106617371Y-99277397D02*
X108117371Y-99277397D01*
X106617371Y-100134540D02*
X107474514Y-99491683D01*
X108117371Y-100134540D02*
X107260228Y-99277397D01*
X126683371Y-51001969D02*
X128183371Y-51001969D01*
X128183371Y-51001969D02*
X128183371Y-51359112D01*
X128183371Y-51359112D02*
X128111942Y-51573398D01*
X128111942Y-51573398D02*
X127969085Y-51716255D01*
X127969085Y-51716255D02*
X127826228Y-51787684D01*
X127826228Y-51787684D02*
X127540514Y-51859112D01*
X127540514Y-51859112D02*
X127326228Y-51859112D01*
X127326228Y-51859112D02*
X127040514Y-51787684D01*
X127040514Y-51787684D02*
X126897657Y-51716255D01*
X126897657Y-51716255D02*
X126754800Y-51573398D01*
X126754800Y-51573398D02*
X126683371Y-51359112D01*
X126683371Y-51359112D02*
X126683371Y-51001969D01*
X127683371Y-53144827D02*
X126683371Y-53144827D01*
X128254800Y-52787684D02*
X127183371Y-52430541D01*
X127183371Y-52430541D02*
X127183371Y-53359112D01*
X126754800Y-96420255D02*
X126683371Y-96634541D01*
X126683371Y-96634541D02*
X126683371Y-96991683D01*
X126683371Y-96991683D02*
X126754800Y-97134541D01*
X126754800Y-97134541D02*
X126826228Y-97205969D01*
X126826228Y-97205969D02*
X126969085Y-97277398D01*
X126969085Y-97277398D02*
X127111942Y-97277398D01*
X127111942Y-97277398D02*
X127254800Y-97205969D01*
X127254800Y-97205969D02*
X127326228Y-97134541D01*
X127326228Y-97134541D02*
X127397657Y-96991683D01*
X127397657Y-96991683D02*
X127469085Y-96705969D01*
X127469085Y-96705969D02*
X127540514Y-96563112D01*
X127540514Y-96563112D02*
X127611942Y-96491683D01*
X127611942Y-96491683D02*
X127754800Y-96420255D01*
X127754800Y-96420255D02*
X127897657Y-96420255D01*
X127897657Y-96420255D02*
X128040514Y-96491683D01*
X128040514Y-96491683D02*
X128111942Y-96563112D01*
X128111942Y-96563112D02*
X128183371Y-96705969D01*
X128183371Y-96705969D02*
X128183371Y-97063112D01*
X128183371Y-97063112D02*
X128111942Y-97277398D01*
X126826228Y-98777397D02*
X126754800Y-98705969D01*
X126754800Y-98705969D02*
X126683371Y-98491683D01*
X126683371Y-98491683D02*
X126683371Y-98348826D01*
X126683371Y-98348826D02*
X126754800Y-98134540D01*
X126754800Y-98134540D02*
X126897657Y-97991683D01*
X126897657Y-97991683D02*
X127040514Y-97920254D01*
X127040514Y-97920254D02*
X127326228Y-97848826D01*
X127326228Y-97848826D02*
X127540514Y-97848826D01*
X127540514Y-97848826D02*
X127826228Y-97920254D01*
X127826228Y-97920254D02*
X127969085Y-97991683D01*
X127969085Y-97991683D02*
X128111942Y-98134540D01*
X128111942Y-98134540D02*
X128183371Y-98348826D01*
X128183371Y-98348826D02*
X128183371Y-98491683D01*
X128183371Y-98491683D02*
X128111942Y-98705969D01*
X128111942Y-98705969D02*
X128040514Y-98777397D01*
X126683371Y-100134540D02*
X126683371Y-99420254D01*
X126683371Y-99420254D02*
X128183371Y-99420254D01*
X124214800Y-96384541D02*
X124143371Y-96598827D01*
X124143371Y-96598827D02*
X124143371Y-96955969D01*
X124143371Y-96955969D02*
X124214800Y-97098827D01*
X124214800Y-97098827D02*
X124286228Y-97170255D01*
X124286228Y-97170255D02*
X124429085Y-97241684D01*
X124429085Y-97241684D02*
X124571942Y-97241684D01*
X124571942Y-97241684D02*
X124714800Y-97170255D01*
X124714800Y-97170255D02*
X124786228Y-97098827D01*
X124786228Y-97098827D02*
X124857657Y-96955969D01*
X124857657Y-96955969D02*
X124929085Y-96670255D01*
X124929085Y-96670255D02*
X125000514Y-96527398D01*
X125000514Y-96527398D02*
X125071942Y-96455969D01*
X125071942Y-96455969D02*
X125214800Y-96384541D01*
X125214800Y-96384541D02*
X125357657Y-96384541D01*
X125357657Y-96384541D02*
X125500514Y-96455969D01*
X125500514Y-96455969D02*
X125571942Y-96527398D01*
X125571942Y-96527398D02*
X125643371Y-96670255D01*
X125643371Y-96670255D02*
X125643371Y-97027398D01*
X125643371Y-97027398D02*
X125571942Y-97241684D01*
X124143371Y-97884540D02*
X125643371Y-97884540D01*
X125643371Y-97884540D02*
X125643371Y-98241683D01*
X125643371Y-98241683D02*
X125571942Y-98455969D01*
X125571942Y-98455969D02*
X125429085Y-98598826D01*
X125429085Y-98598826D02*
X125286228Y-98670255D01*
X125286228Y-98670255D02*
X125000514Y-98741683D01*
X125000514Y-98741683D02*
X124786228Y-98741683D01*
X124786228Y-98741683D02*
X124500514Y-98670255D01*
X124500514Y-98670255D02*
X124357657Y-98598826D01*
X124357657Y-98598826D02*
X124214800Y-98455969D01*
X124214800Y-98455969D02*
X124143371Y-98241683D01*
X124143371Y-98241683D02*
X124143371Y-97884540D01*
X124571942Y-99313112D02*
X124571942Y-100027398D01*
X124143371Y-99170255D02*
X125643371Y-99670255D01*
X125643371Y-99670255D02*
X124143371Y-100170255D01*
X135803371Y-97920255D02*
X135803371Y-97205969D01*
X135803371Y-97205969D02*
X135089085Y-97134541D01*
X135089085Y-97134541D02*
X135160514Y-97205969D01*
X135160514Y-97205969D02*
X135231942Y-97348827D01*
X135231942Y-97348827D02*
X135231942Y-97705969D01*
X135231942Y-97705969D02*
X135160514Y-97848827D01*
X135160514Y-97848827D02*
X135089085Y-97920255D01*
X135089085Y-97920255D02*
X134946228Y-97991684D01*
X134946228Y-97991684D02*
X134589085Y-97991684D01*
X134589085Y-97991684D02*
X134446228Y-97920255D01*
X134446228Y-97920255D02*
X134374800Y-97848827D01*
X134374800Y-97848827D02*
X134303371Y-97705969D01*
X134303371Y-97705969D02*
X134303371Y-97348827D01*
X134303371Y-97348827D02*
X134374800Y-97205969D01*
X134374800Y-97205969D02*
X134446228Y-97134541D01*
X135803371Y-98420255D02*
X134303371Y-98920255D01*
X134303371Y-98920255D02*
X135803371Y-99420255D01*
X135731942Y-50966255D02*
X135803371Y-50823398D01*
X135803371Y-50823398D02*
X135803371Y-50609112D01*
X135803371Y-50609112D02*
X135731942Y-50394826D01*
X135731942Y-50394826D02*
X135589085Y-50251969D01*
X135589085Y-50251969D02*
X135446228Y-50180540D01*
X135446228Y-50180540D02*
X135160514Y-50109112D01*
X135160514Y-50109112D02*
X134946228Y-50109112D01*
X134946228Y-50109112D02*
X134660514Y-50180540D01*
X134660514Y-50180540D02*
X134517657Y-50251969D01*
X134517657Y-50251969D02*
X134374800Y-50394826D01*
X134374800Y-50394826D02*
X134303371Y-50609112D01*
X134303371Y-50609112D02*
X134303371Y-50751969D01*
X134303371Y-50751969D02*
X134374800Y-50966255D01*
X134374800Y-50966255D02*
X134446228Y-51037683D01*
X134446228Y-51037683D02*
X134946228Y-51037683D01*
X134946228Y-51037683D02*
X134946228Y-50751969D01*
X134303371Y-51680540D02*
X135803371Y-51680540D01*
X135803371Y-51680540D02*
X134303371Y-52537683D01*
X134303371Y-52537683D02*
X135803371Y-52537683D01*
X134303371Y-53251969D02*
X135803371Y-53251969D01*
X135803371Y-53251969D02*
X135803371Y-53609112D01*
X135803371Y-53609112D02*
X135731942Y-53823398D01*
X135731942Y-53823398D02*
X135589085Y-53966255D01*
X135589085Y-53966255D02*
X135446228Y-54037684D01*
X135446228Y-54037684D02*
X135160514Y-54109112D01*
X135160514Y-54109112D02*
X134946228Y-54109112D01*
X134946228Y-54109112D02*
X134660514Y-54037684D01*
X134660514Y-54037684D02*
X134517657Y-53966255D01*
X134517657Y-53966255D02*
X134374800Y-53823398D01*
X134374800Y-53823398D02*
X134303371Y-53609112D01*
X134303371Y-53609112D02*
X134303371Y-53251969D01*
X116523371Y-51001969D02*
X118023371Y-51001969D01*
X118023371Y-51001969D02*
X118023371Y-51359112D01*
X118023371Y-51359112D02*
X117951942Y-51573398D01*
X117951942Y-51573398D02*
X117809085Y-51716255D01*
X117809085Y-51716255D02*
X117666228Y-51787684D01*
X117666228Y-51787684D02*
X117380514Y-51859112D01*
X117380514Y-51859112D02*
X117166228Y-51859112D01*
X117166228Y-51859112D02*
X116880514Y-51787684D01*
X116880514Y-51787684D02*
X116737657Y-51716255D01*
X116737657Y-51716255D02*
X116594800Y-51573398D01*
X116594800Y-51573398D02*
X116523371Y-51359112D01*
X116523371Y-51359112D02*
X116523371Y-51001969D01*
X117380514Y-52716255D02*
X117451942Y-52573398D01*
X117451942Y-52573398D02*
X117523371Y-52501969D01*
X117523371Y-52501969D02*
X117666228Y-52430541D01*
X117666228Y-52430541D02*
X117737657Y-52430541D01*
X117737657Y-52430541D02*
X117880514Y-52501969D01*
X117880514Y-52501969D02*
X117951942Y-52573398D01*
X117951942Y-52573398D02*
X118023371Y-52716255D01*
X118023371Y-52716255D02*
X118023371Y-53001969D01*
X118023371Y-53001969D02*
X117951942Y-53144827D01*
X117951942Y-53144827D02*
X117880514Y-53216255D01*
X117880514Y-53216255D02*
X117737657Y-53287684D01*
X117737657Y-53287684D02*
X117666228Y-53287684D01*
X117666228Y-53287684D02*
X117523371Y-53216255D01*
X117523371Y-53216255D02*
X117451942Y-53144827D01*
X117451942Y-53144827D02*
X117380514Y-53001969D01*
X117380514Y-53001969D02*
X117380514Y-52716255D01*
X117380514Y-52716255D02*
X117309085Y-52573398D01*
X117309085Y-52573398D02*
X117237657Y-52501969D01*
X117237657Y-52501969D02*
X117094800Y-52430541D01*
X117094800Y-52430541D02*
X116809085Y-52430541D01*
X116809085Y-52430541D02*
X116666228Y-52501969D01*
X116666228Y-52501969D02*
X116594800Y-52573398D01*
X116594800Y-52573398D02*
X116523371Y-52716255D01*
X116523371Y-52716255D02*
X116523371Y-53001969D01*
X116523371Y-53001969D02*
X116594800Y-53144827D01*
X116594800Y-53144827D02*
X116666228Y-53216255D01*
X116666228Y-53216255D02*
X116809085Y-53287684D01*
X116809085Y-53287684D02*
X117094800Y-53287684D01*
X117094800Y-53287684D02*
X117237657Y-53216255D01*
X117237657Y-53216255D02*
X117309085Y-53144827D01*
X117309085Y-53144827D02*
X117380514Y-53001969D01*
X110403371Y-96348826D02*
X110403371Y-97277398D01*
X110403371Y-97277398D02*
X109831942Y-96777398D01*
X109831942Y-96777398D02*
X109831942Y-96991683D01*
X109831942Y-96991683D02*
X109760514Y-97134541D01*
X109760514Y-97134541D02*
X109689085Y-97205969D01*
X109689085Y-97205969D02*
X109546228Y-97277398D01*
X109546228Y-97277398D02*
X109189085Y-97277398D01*
X109189085Y-97277398D02*
X109046228Y-97205969D01*
X109046228Y-97205969D02*
X108974800Y-97134541D01*
X108974800Y-97134541D02*
X108903371Y-96991683D01*
X108903371Y-96991683D02*
X108903371Y-96563112D01*
X108903371Y-96563112D02*
X108974800Y-96420255D01*
X108974800Y-96420255D02*
X109046228Y-96348826D01*
X110403371Y-97705969D02*
X108903371Y-98205969D01*
X108903371Y-98205969D02*
X110403371Y-98705969D01*
X110403371Y-99063111D02*
X110403371Y-99991683D01*
X110403371Y-99991683D02*
X109831942Y-99491683D01*
X109831942Y-99491683D02*
X109831942Y-99705968D01*
X109831942Y-99705968D02*
X109760514Y-99848826D01*
X109760514Y-99848826D02*
X109689085Y-99920254D01*
X109689085Y-99920254D02*
X109546228Y-99991683D01*
X109546228Y-99991683D02*
X109189085Y-99991683D01*
X109189085Y-99991683D02*
X109046228Y-99920254D01*
X109046228Y-99920254D02*
X108974800Y-99848826D01*
X108974800Y-99848826D02*
X108903371Y-99705968D01*
X108903371Y-99705968D02*
X108903371Y-99277397D01*
X108903371Y-99277397D02*
X108974800Y-99134540D01*
X108974800Y-99134540D02*
X109046228Y-99063111D01*
X129651942Y-95634541D02*
X129651942Y-96348827D01*
X129223371Y-95491684D02*
X130723371Y-95991684D01*
X130723371Y-95991684D02*
X129223371Y-96491684D01*
X129223371Y-96991683D02*
X130723371Y-96991683D01*
X130723371Y-96991683D02*
X130723371Y-97348826D01*
X130723371Y-97348826D02*
X130651942Y-97563112D01*
X130651942Y-97563112D02*
X130509085Y-97705969D01*
X130509085Y-97705969D02*
X130366228Y-97777398D01*
X130366228Y-97777398D02*
X130080514Y-97848826D01*
X130080514Y-97848826D02*
X129866228Y-97848826D01*
X129866228Y-97848826D02*
X129580514Y-97777398D01*
X129580514Y-97777398D02*
X129437657Y-97705969D01*
X129437657Y-97705969D02*
X129294800Y-97563112D01*
X129294800Y-97563112D02*
X129223371Y-97348826D01*
X129223371Y-97348826D02*
X129223371Y-96991683D01*
X129366228Y-99348826D02*
X129294800Y-99277398D01*
X129294800Y-99277398D02*
X129223371Y-99063112D01*
X129223371Y-99063112D02*
X129223371Y-98920255D01*
X129223371Y-98920255D02*
X129294800Y-98705969D01*
X129294800Y-98705969D02*
X129437657Y-98563112D01*
X129437657Y-98563112D02*
X129580514Y-98491683D01*
X129580514Y-98491683D02*
X129866228Y-98420255D01*
X129866228Y-98420255D02*
X130080514Y-98420255D01*
X130080514Y-98420255D02*
X130366228Y-98491683D01*
X130366228Y-98491683D02*
X130509085Y-98563112D01*
X130509085Y-98563112D02*
X130651942Y-98705969D01*
X130651942Y-98705969D02*
X130723371Y-98920255D01*
X130723371Y-98920255D02*
X130723371Y-99063112D01*
X130723371Y-99063112D02*
X130651942Y-99277398D01*
X130651942Y-99277398D02*
X130580514Y-99348826D01*
X130723371Y-100634541D02*
X130723371Y-100348826D01*
X130723371Y-100348826D02*
X130651942Y-100205969D01*
X130651942Y-100205969D02*
X130580514Y-100134541D01*
X130580514Y-100134541D02*
X130366228Y-99991683D01*
X130366228Y-99991683D02*
X130080514Y-99920255D01*
X130080514Y-99920255D02*
X129509085Y-99920255D01*
X129509085Y-99920255D02*
X129366228Y-99991683D01*
X129366228Y-99991683D02*
X129294800Y-100063112D01*
X129294800Y-100063112D02*
X129223371Y-100205969D01*
X129223371Y-100205969D02*
X129223371Y-100491683D01*
X129223371Y-100491683D02*
X129294800Y-100634541D01*
X129294800Y-100634541D02*
X129366228Y-100705969D01*
X129366228Y-100705969D02*
X129509085Y-100777398D01*
X129509085Y-100777398D02*
X129866228Y-100777398D01*
X129866228Y-100777398D02*
X130009085Y-100705969D01*
X130009085Y-100705969D02*
X130080514Y-100634541D01*
X130080514Y-100634541D02*
X130151942Y-100491683D01*
X130151942Y-100491683D02*
X130151942Y-100205969D01*
X130151942Y-100205969D02*
X130080514Y-100063112D01*
X130080514Y-100063112D02*
X130009085Y-99991683D01*
X130009085Y-99991683D02*
X129866228Y-99920255D01*
X121603371Y-51001969D02*
X123103371Y-51001969D01*
X123103371Y-51001969D02*
X123103371Y-51359112D01*
X123103371Y-51359112D02*
X123031942Y-51573398D01*
X123031942Y-51573398D02*
X122889085Y-51716255D01*
X122889085Y-51716255D02*
X122746228Y-51787684D01*
X122746228Y-51787684D02*
X122460514Y-51859112D01*
X122460514Y-51859112D02*
X122246228Y-51859112D01*
X122246228Y-51859112D02*
X121960514Y-51787684D01*
X121960514Y-51787684D02*
X121817657Y-51716255D01*
X121817657Y-51716255D02*
X121674800Y-51573398D01*
X121674800Y-51573398D02*
X121603371Y-51359112D01*
X121603371Y-51359112D02*
X121603371Y-51001969D01*
X123103371Y-53144827D02*
X123103371Y-52859112D01*
X123103371Y-52859112D02*
X123031942Y-52716255D01*
X123031942Y-52716255D02*
X122960514Y-52644827D01*
X122960514Y-52644827D02*
X122746228Y-52501969D01*
X122746228Y-52501969D02*
X122460514Y-52430541D01*
X122460514Y-52430541D02*
X121889085Y-52430541D01*
X121889085Y-52430541D02*
X121746228Y-52501969D01*
X121746228Y-52501969D02*
X121674800Y-52573398D01*
X121674800Y-52573398D02*
X121603371Y-52716255D01*
X121603371Y-52716255D02*
X121603371Y-53001969D01*
X121603371Y-53001969D02*
X121674800Y-53144827D01*
X121674800Y-53144827D02*
X121746228Y-53216255D01*
X121746228Y-53216255D02*
X121889085Y-53287684D01*
X121889085Y-53287684D02*
X122246228Y-53287684D01*
X122246228Y-53287684D02*
X122389085Y-53216255D01*
X122389085Y-53216255D02*
X122460514Y-53144827D01*
X122460514Y-53144827D02*
X122531942Y-53001969D01*
X122531942Y-53001969D02*
X122531942Y-52716255D01*
X122531942Y-52716255D02*
X122460514Y-52573398D01*
X122460514Y-52573398D02*
X122389085Y-52501969D01*
X122389085Y-52501969D02*
X122246228Y-52430541D01*
X107733180Y-73668095D02*
X106923657Y-73668095D01*
X106923657Y-73668095D02*
X106828419Y-73715714D01*
X106828419Y-73715714D02*
X106780800Y-73763333D01*
X106780800Y-73763333D02*
X106733180Y-73858571D01*
X106733180Y-73858571D02*
X106733180Y-74049047D01*
X106733180Y-74049047D02*
X106780800Y-74144285D01*
X106780800Y-74144285D02*
X106828419Y-74191904D01*
X106828419Y-74191904D02*
X106923657Y-74239523D01*
X106923657Y-74239523D02*
X107733180Y-74239523D01*
X106780800Y-74668095D02*
X106733180Y-74810952D01*
X106733180Y-74810952D02*
X106733180Y-75049047D01*
X106733180Y-75049047D02*
X106780800Y-75144285D01*
X106780800Y-75144285D02*
X106828419Y-75191904D01*
X106828419Y-75191904D02*
X106923657Y-75239523D01*
X106923657Y-75239523D02*
X107018895Y-75239523D01*
X107018895Y-75239523D02*
X107114133Y-75191904D01*
X107114133Y-75191904D02*
X107161752Y-75144285D01*
X107161752Y-75144285D02*
X107209371Y-75049047D01*
X107209371Y-75049047D02*
X107256990Y-74858571D01*
X107256990Y-74858571D02*
X107304609Y-74763333D01*
X107304609Y-74763333D02*
X107352228Y-74715714D01*
X107352228Y-74715714D02*
X107447466Y-74668095D01*
X107447466Y-74668095D02*
X107542704Y-74668095D01*
X107542704Y-74668095D02*
X107637942Y-74715714D01*
X107637942Y-74715714D02*
X107685561Y-74763333D01*
X107685561Y-74763333D02*
X107733180Y-74858571D01*
X107733180Y-74858571D02*
X107733180Y-75096666D01*
X107733180Y-75096666D02*
X107685561Y-75239523D01*
X107256990Y-76001428D02*
X107209371Y-76144285D01*
X107209371Y-76144285D02*
X107161752Y-76191904D01*
X107161752Y-76191904D02*
X107066514Y-76239523D01*
X107066514Y-76239523D02*
X106923657Y-76239523D01*
X106923657Y-76239523D02*
X106828419Y-76191904D01*
X106828419Y-76191904D02*
X106780800Y-76144285D01*
X106780800Y-76144285D02*
X106733180Y-76049047D01*
X106733180Y-76049047D02*
X106733180Y-75668095D01*
X106733180Y-75668095D02*
X107733180Y-75668095D01*
X107733180Y-75668095D02*
X107733180Y-76001428D01*
X107733180Y-76001428D02*
X107685561Y-76096666D01*
X107685561Y-76096666D02*
X107637942Y-76144285D01*
X107637942Y-76144285D02*
X107542704Y-76191904D01*
X107542704Y-76191904D02*
X107447466Y-76191904D01*
X107447466Y-76191904D02*
X107352228Y-76144285D01*
X107352228Y-76144285D02*
X107304609Y-76096666D01*
X107304609Y-76096666D02*
X107256990Y-76001428D01*
X107256990Y-76001428D02*
X107256990Y-75668095D01*
X108903371Y-49751968D02*
X110403371Y-49751968D01*
X110403371Y-49751968D02*
X109331942Y-50251968D01*
X109331942Y-50251968D02*
X110403371Y-50751968D01*
X110403371Y-50751968D02*
X108903371Y-50751968D01*
X110403371Y-51751969D02*
X110403371Y-52037683D01*
X110403371Y-52037683D02*
X110331942Y-52180540D01*
X110331942Y-52180540D02*
X110189085Y-52323397D01*
X110189085Y-52323397D02*
X109903371Y-52394826D01*
X109903371Y-52394826D02*
X109403371Y-52394826D01*
X109403371Y-52394826D02*
X109117657Y-52323397D01*
X109117657Y-52323397D02*
X108974800Y-52180540D01*
X108974800Y-52180540D02*
X108903371Y-52037683D01*
X108903371Y-52037683D02*
X108903371Y-51751969D01*
X108903371Y-51751969D02*
X108974800Y-51609112D01*
X108974800Y-51609112D02*
X109117657Y-51466254D01*
X109117657Y-51466254D02*
X109403371Y-51394826D01*
X109403371Y-51394826D02*
X109903371Y-51394826D01*
X109903371Y-51394826D02*
X110189085Y-51466254D01*
X110189085Y-51466254D02*
X110331942Y-51609112D01*
X110331942Y-51609112D02*
X110403371Y-51751969D01*
X108974800Y-52966255D02*
X108903371Y-53180541D01*
X108903371Y-53180541D02*
X108903371Y-53537683D01*
X108903371Y-53537683D02*
X108974800Y-53680541D01*
X108974800Y-53680541D02*
X109046228Y-53751969D01*
X109046228Y-53751969D02*
X109189085Y-53823398D01*
X109189085Y-53823398D02*
X109331942Y-53823398D01*
X109331942Y-53823398D02*
X109474800Y-53751969D01*
X109474800Y-53751969D02*
X109546228Y-53680541D01*
X109546228Y-53680541D02*
X109617657Y-53537683D01*
X109617657Y-53537683D02*
X109689085Y-53251969D01*
X109689085Y-53251969D02*
X109760514Y-53109112D01*
X109760514Y-53109112D02*
X109831942Y-53037683D01*
X109831942Y-53037683D02*
X109974800Y-52966255D01*
X109974800Y-52966255D02*
X110117657Y-52966255D01*
X110117657Y-52966255D02*
X110260514Y-53037683D01*
X110260514Y-53037683D02*
X110331942Y-53109112D01*
X110331942Y-53109112D02*
X110403371Y-53251969D01*
X110403371Y-53251969D02*
X110403371Y-53609112D01*
X110403371Y-53609112D02*
X110331942Y-53823398D01*
X108903371Y-54466254D02*
X110403371Y-54466254D01*
X106363371Y-49751968D02*
X107863371Y-49751968D01*
X107863371Y-49751968D02*
X106791942Y-50251968D01*
X106791942Y-50251968D02*
X107863371Y-50751968D01*
X107863371Y-50751968D02*
X106363371Y-50751968D01*
X106363371Y-51466254D02*
X107863371Y-51466254D01*
X106434800Y-52109112D02*
X106363371Y-52323398D01*
X106363371Y-52323398D02*
X106363371Y-52680540D01*
X106363371Y-52680540D02*
X106434800Y-52823398D01*
X106434800Y-52823398D02*
X106506228Y-52894826D01*
X106506228Y-52894826D02*
X106649085Y-52966255D01*
X106649085Y-52966255D02*
X106791942Y-52966255D01*
X106791942Y-52966255D02*
X106934800Y-52894826D01*
X106934800Y-52894826D02*
X107006228Y-52823398D01*
X107006228Y-52823398D02*
X107077657Y-52680540D01*
X107077657Y-52680540D02*
X107149085Y-52394826D01*
X107149085Y-52394826D02*
X107220514Y-52251969D01*
X107220514Y-52251969D02*
X107291942Y-52180540D01*
X107291942Y-52180540D02*
X107434800Y-52109112D01*
X107434800Y-52109112D02*
X107577657Y-52109112D01*
X107577657Y-52109112D02*
X107720514Y-52180540D01*
X107720514Y-52180540D02*
X107791942Y-52251969D01*
X107791942Y-52251969D02*
X107863371Y-52394826D01*
X107863371Y-52394826D02*
X107863371Y-52751969D01*
X107863371Y-52751969D02*
X107791942Y-52966255D01*
X107863371Y-53894826D02*
X107863371Y-54180540D01*
X107863371Y-54180540D02*
X107791942Y-54323397D01*
X107791942Y-54323397D02*
X107649085Y-54466254D01*
X107649085Y-54466254D02*
X107363371Y-54537683D01*
X107363371Y-54537683D02*
X106863371Y-54537683D01*
X106863371Y-54537683D02*
X106577657Y-54466254D01*
X106577657Y-54466254D02*
X106434800Y-54323397D01*
X106434800Y-54323397D02*
X106363371Y-54180540D01*
X106363371Y-54180540D02*
X106363371Y-53894826D01*
X106363371Y-53894826D02*
X106434800Y-53751969D01*
X106434800Y-53751969D02*
X106577657Y-53609111D01*
X106577657Y-53609111D02*
X106863371Y-53537683D01*
X106863371Y-53537683D02*
X107363371Y-53537683D01*
X107363371Y-53537683D02*
X107649085Y-53609111D01*
X107649085Y-53609111D02*
X107791942Y-53751969D01*
X107791942Y-53751969D02*
X107863371Y-53894826D01*
X131763371Y-51001969D02*
X133263371Y-51001969D01*
X133263371Y-51001969D02*
X133263371Y-51359112D01*
X133263371Y-51359112D02*
X133191942Y-51573398D01*
X133191942Y-51573398D02*
X133049085Y-51716255D01*
X133049085Y-51716255D02*
X132906228Y-51787684D01*
X132906228Y-51787684D02*
X132620514Y-51859112D01*
X132620514Y-51859112D02*
X132406228Y-51859112D01*
X132406228Y-51859112D02*
X132120514Y-51787684D01*
X132120514Y-51787684D02*
X131977657Y-51716255D01*
X131977657Y-51716255D02*
X131834800Y-51573398D01*
X131834800Y-51573398D02*
X131763371Y-51359112D01*
X131763371Y-51359112D02*
X131763371Y-51001969D01*
X133120514Y-52430541D02*
X133191942Y-52501969D01*
X133191942Y-52501969D02*
X133263371Y-52644827D01*
X133263371Y-52644827D02*
X133263371Y-53001969D01*
X133263371Y-53001969D02*
X133191942Y-53144827D01*
X133191942Y-53144827D02*
X133120514Y-53216255D01*
X133120514Y-53216255D02*
X132977657Y-53287684D01*
X132977657Y-53287684D02*
X132834800Y-53287684D01*
X132834800Y-53287684D02*
X132620514Y-53216255D01*
X132620514Y-53216255D02*
X131763371Y-52359112D01*
X131763371Y-52359112D02*
X131763371Y-53287684D01*
X119491942Y-95634541D02*
X119491942Y-96348827D01*
X119063371Y-95491684D02*
X120563371Y-95991684D01*
X120563371Y-95991684D02*
X119063371Y-96491684D01*
X119063371Y-96991683D02*
X120563371Y-96991683D01*
X120563371Y-96991683D02*
X120563371Y-97348826D01*
X120563371Y-97348826D02*
X120491942Y-97563112D01*
X120491942Y-97563112D02*
X120349085Y-97705969D01*
X120349085Y-97705969D02*
X120206228Y-97777398D01*
X120206228Y-97777398D02*
X119920514Y-97848826D01*
X119920514Y-97848826D02*
X119706228Y-97848826D01*
X119706228Y-97848826D02*
X119420514Y-97777398D01*
X119420514Y-97777398D02*
X119277657Y-97705969D01*
X119277657Y-97705969D02*
X119134800Y-97563112D01*
X119134800Y-97563112D02*
X119063371Y-97348826D01*
X119063371Y-97348826D02*
X119063371Y-96991683D01*
X119206228Y-99348826D02*
X119134800Y-99277398D01*
X119134800Y-99277398D02*
X119063371Y-99063112D01*
X119063371Y-99063112D02*
X119063371Y-98920255D01*
X119063371Y-98920255D02*
X119134800Y-98705969D01*
X119134800Y-98705969D02*
X119277657Y-98563112D01*
X119277657Y-98563112D02*
X119420514Y-98491683D01*
X119420514Y-98491683D02*
X119706228Y-98420255D01*
X119706228Y-98420255D02*
X119920514Y-98420255D01*
X119920514Y-98420255D02*
X120206228Y-98491683D01*
X120206228Y-98491683D02*
X120349085Y-98563112D01*
X120349085Y-98563112D02*
X120491942Y-98705969D01*
X120491942Y-98705969D02*
X120563371Y-98920255D01*
X120563371Y-98920255D02*
X120563371Y-99063112D01*
X120563371Y-99063112D02*
X120491942Y-99277398D01*
X120491942Y-99277398D02*
X120420514Y-99348826D01*
X120420514Y-99920255D02*
X120491942Y-99991683D01*
X120491942Y-99991683D02*
X120563371Y-100134541D01*
X120563371Y-100134541D02*
X120563371Y-100491683D01*
X120563371Y-100491683D02*
X120491942Y-100634541D01*
X120491942Y-100634541D02*
X120420514Y-100705969D01*
X120420514Y-100705969D02*
X120277657Y-100777398D01*
X120277657Y-100777398D02*
X120134800Y-100777398D01*
X120134800Y-100777398D02*
X119920514Y-100705969D01*
X119920514Y-100705969D02*
X119063371Y-99848826D01*
X119063371Y-99848826D02*
X119063371Y-100777398D01*
X116951942Y-95634541D02*
X116951942Y-96348827D01*
X116523371Y-95491684D02*
X118023371Y-95991684D01*
X118023371Y-95991684D02*
X116523371Y-96491684D01*
X116523371Y-96991683D02*
X118023371Y-96991683D01*
X118023371Y-96991683D02*
X118023371Y-97348826D01*
X118023371Y-97348826D02*
X117951942Y-97563112D01*
X117951942Y-97563112D02*
X117809085Y-97705969D01*
X117809085Y-97705969D02*
X117666228Y-97777398D01*
X117666228Y-97777398D02*
X117380514Y-97848826D01*
X117380514Y-97848826D02*
X117166228Y-97848826D01*
X117166228Y-97848826D02*
X116880514Y-97777398D01*
X116880514Y-97777398D02*
X116737657Y-97705969D01*
X116737657Y-97705969D02*
X116594800Y-97563112D01*
X116594800Y-97563112D02*
X116523371Y-97348826D01*
X116523371Y-97348826D02*
X116523371Y-96991683D01*
X116666228Y-99348826D02*
X116594800Y-99277398D01*
X116594800Y-99277398D02*
X116523371Y-99063112D01*
X116523371Y-99063112D02*
X116523371Y-98920255D01*
X116523371Y-98920255D02*
X116594800Y-98705969D01*
X116594800Y-98705969D02*
X116737657Y-98563112D01*
X116737657Y-98563112D02*
X116880514Y-98491683D01*
X116880514Y-98491683D02*
X117166228Y-98420255D01*
X117166228Y-98420255D02*
X117380514Y-98420255D01*
X117380514Y-98420255D02*
X117666228Y-98491683D01*
X117666228Y-98491683D02*
X117809085Y-98563112D01*
X117809085Y-98563112D02*
X117951942Y-98705969D01*
X117951942Y-98705969D02*
X118023371Y-98920255D01*
X118023371Y-98920255D02*
X118023371Y-99063112D01*
X118023371Y-99063112D02*
X117951942Y-99277398D01*
X117951942Y-99277398D02*
X117880514Y-99348826D01*
X116523371Y-100777398D02*
X116523371Y-99920255D01*
X116523371Y-100348826D02*
X118023371Y-100348826D01*
X118023371Y-100348826D02*
X117809085Y-100205969D01*
X117809085Y-100205969D02*
X117666228Y-100063112D01*
X117666228Y-100063112D02*
X117594800Y-99920255D01*
X132191942Y-95634541D02*
X132191942Y-96348827D01*
X131763371Y-95491684D02*
X133263371Y-95991684D01*
X133263371Y-95991684D02*
X131763371Y-96491684D01*
X131763371Y-96991683D02*
X133263371Y-96991683D01*
X133263371Y-96991683D02*
X133263371Y-97348826D01*
X133263371Y-97348826D02*
X133191942Y-97563112D01*
X133191942Y-97563112D02*
X133049085Y-97705969D01*
X133049085Y-97705969D02*
X132906228Y-97777398D01*
X132906228Y-97777398D02*
X132620514Y-97848826D01*
X132620514Y-97848826D02*
X132406228Y-97848826D01*
X132406228Y-97848826D02*
X132120514Y-97777398D01*
X132120514Y-97777398D02*
X131977657Y-97705969D01*
X131977657Y-97705969D02*
X131834800Y-97563112D01*
X131834800Y-97563112D02*
X131763371Y-97348826D01*
X131763371Y-97348826D02*
X131763371Y-96991683D01*
X131906228Y-99348826D02*
X131834800Y-99277398D01*
X131834800Y-99277398D02*
X131763371Y-99063112D01*
X131763371Y-99063112D02*
X131763371Y-98920255D01*
X131763371Y-98920255D02*
X131834800Y-98705969D01*
X131834800Y-98705969D02*
X131977657Y-98563112D01*
X131977657Y-98563112D02*
X132120514Y-98491683D01*
X132120514Y-98491683D02*
X132406228Y-98420255D01*
X132406228Y-98420255D02*
X132620514Y-98420255D01*
X132620514Y-98420255D02*
X132906228Y-98491683D01*
X132906228Y-98491683D02*
X133049085Y-98563112D01*
X133049085Y-98563112D02*
X133191942Y-98705969D01*
X133191942Y-98705969D02*
X133263371Y-98920255D01*
X133263371Y-98920255D02*
X133263371Y-99063112D01*
X133263371Y-99063112D02*
X133191942Y-99277398D01*
X133191942Y-99277398D02*
X133120514Y-99348826D01*
X133263371Y-99848826D02*
X133263371Y-100848826D01*
X133263371Y-100848826D02*
X131763371Y-100205969D01*
X119063371Y-51001969D02*
X120563371Y-51001969D01*
X120563371Y-51001969D02*
X120563371Y-51359112D01*
X120563371Y-51359112D02*
X120491942Y-51573398D01*
X120491942Y-51573398D02*
X120349085Y-51716255D01*
X120349085Y-51716255D02*
X120206228Y-51787684D01*
X120206228Y-51787684D02*
X119920514Y-51859112D01*
X119920514Y-51859112D02*
X119706228Y-51859112D01*
X119706228Y-51859112D02*
X119420514Y-51787684D01*
X119420514Y-51787684D02*
X119277657Y-51716255D01*
X119277657Y-51716255D02*
X119134800Y-51573398D01*
X119134800Y-51573398D02*
X119063371Y-51359112D01*
X119063371Y-51359112D02*
X119063371Y-51001969D01*
X120563371Y-52359112D02*
X120563371Y-53359112D01*
X120563371Y-53359112D02*
X119063371Y-52716255D01*
X113983371Y-51001969D02*
X115483371Y-51001969D01*
X115483371Y-51001969D02*
X115483371Y-51359112D01*
X115483371Y-51359112D02*
X115411942Y-51573398D01*
X115411942Y-51573398D02*
X115269085Y-51716255D01*
X115269085Y-51716255D02*
X115126228Y-51787684D01*
X115126228Y-51787684D02*
X114840514Y-51859112D01*
X114840514Y-51859112D02*
X114626228Y-51859112D01*
X114626228Y-51859112D02*
X114340514Y-51787684D01*
X114340514Y-51787684D02*
X114197657Y-51716255D01*
X114197657Y-51716255D02*
X114054800Y-51573398D01*
X114054800Y-51573398D02*
X113983371Y-51359112D01*
X113983371Y-51359112D02*
X113983371Y-51001969D01*
X113983371Y-52573398D02*
X113983371Y-52859112D01*
X113983371Y-52859112D02*
X114054800Y-53001969D01*
X114054800Y-53001969D02*
X114126228Y-53073398D01*
X114126228Y-53073398D02*
X114340514Y-53216255D01*
X114340514Y-53216255D02*
X114626228Y-53287684D01*
X114626228Y-53287684D02*
X115197657Y-53287684D01*
X115197657Y-53287684D02*
X115340514Y-53216255D01*
X115340514Y-53216255D02*
X115411942Y-53144827D01*
X115411942Y-53144827D02*
X115483371Y-53001969D01*
X115483371Y-53001969D02*
X115483371Y-52716255D01*
X115483371Y-52716255D02*
X115411942Y-52573398D01*
X115411942Y-52573398D02*
X115340514Y-52501969D01*
X115340514Y-52501969D02*
X115197657Y-52430541D01*
X115197657Y-52430541D02*
X114840514Y-52430541D01*
X114840514Y-52430541D02*
X114697657Y-52501969D01*
X114697657Y-52501969D02*
X114626228Y-52573398D01*
X114626228Y-52573398D02*
X114554800Y-52716255D01*
X114554800Y-52716255D02*
X114554800Y-53001969D01*
X114554800Y-53001969D02*
X114626228Y-53144827D01*
X114626228Y-53144827D02*
X114697657Y-53216255D01*
X114697657Y-53216255D02*
X114840514Y-53287684D01*
X111871942Y-95777398D02*
X111871942Y-96491684D01*
X111443371Y-95634541D02*
X112943371Y-96134541D01*
X112943371Y-96134541D02*
X111443371Y-96634541D01*
X111443371Y-97991683D02*
X112157657Y-97491683D01*
X111443371Y-97134540D02*
X112943371Y-97134540D01*
X112943371Y-97134540D02*
X112943371Y-97705969D01*
X112943371Y-97705969D02*
X112871942Y-97848826D01*
X112871942Y-97848826D02*
X112800514Y-97920255D01*
X112800514Y-97920255D02*
X112657657Y-97991683D01*
X112657657Y-97991683D02*
X112443371Y-97991683D01*
X112443371Y-97991683D02*
X112300514Y-97920255D01*
X112300514Y-97920255D02*
X112229085Y-97848826D01*
X112229085Y-97848826D02*
X112157657Y-97705969D01*
X112157657Y-97705969D02*
X112157657Y-97134540D01*
X112229085Y-98634540D02*
X112229085Y-99134540D01*
X111443371Y-99348826D02*
X111443371Y-98634540D01*
X111443371Y-98634540D02*
X112943371Y-98634540D01*
X112943371Y-98634540D02*
X112943371Y-99348826D01*
X112229085Y-100491683D02*
X112229085Y-99991683D01*
X111443371Y-99991683D02*
X112943371Y-99991683D01*
X112943371Y-99991683D02*
X112943371Y-100705969D01*
X136843371Y-51287683D02*
X137557657Y-50787683D01*
X136843371Y-50430540D02*
X138343371Y-50430540D01*
X138343371Y-50430540D02*
X138343371Y-51001969D01*
X138343371Y-51001969D02*
X138271942Y-51144826D01*
X138271942Y-51144826D02*
X138200514Y-51216255D01*
X138200514Y-51216255D02*
X138057657Y-51287683D01*
X138057657Y-51287683D02*
X137843371Y-51287683D01*
X137843371Y-51287683D02*
X137700514Y-51216255D01*
X137700514Y-51216255D02*
X137629085Y-51144826D01*
X137629085Y-51144826D02*
X137557657Y-51001969D01*
X137557657Y-51001969D02*
X137557657Y-50430540D01*
X136914800Y-51859112D02*
X136843371Y-52073398D01*
X136843371Y-52073398D02*
X136843371Y-52430540D01*
X136843371Y-52430540D02*
X136914800Y-52573398D01*
X136914800Y-52573398D02*
X136986228Y-52644826D01*
X136986228Y-52644826D02*
X137129085Y-52716255D01*
X137129085Y-52716255D02*
X137271942Y-52716255D01*
X137271942Y-52716255D02*
X137414800Y-52644826D01*
X137414800Y-52644826D02*
X137486228Y-52573398D01*
X137486228Y-52573398D02*
X137557657Y-52430540D01*
X137557657Y-52430540D02*
X137629085Y-52144826D01*
X137629085Y-52144826D02*
X137700514Y-52001969D01*
X137700514Y-52001969D02*
X137771942Y-51930540D01*
X137771942Y-51930540D02*
X137914800Y-51859112D01*
X137914800Y-51859112D02*
X138057657Y-51859112D01*
X138057657Y-51859112D02*
X138200514Y-51930540D01*
X138200514Y-51930540D02*
X138271942Y-52001969D01*
X138271942Y-52001969D02*
X138343371Y-52144826D01*
X138343371Y-52144826D02*
X138343371Y-52501969D01*
X138343371Y-52501969D02*
X138271942Y-52716255D01*
X138343371Y-53144826D02*
X138343371Y-54001969D01*
X136843371Y-53573397D02*
X138343371Y-53573397D01*
X111514800Y-50966255D02*
X111443371Y-51180541D01*
X111443371Y-51180541D02*
X111443371Y-51537683D01*
X111443371Y-51537683D02*
X111514800Y-51680541D01*
X111514800Y-51680541D02*
X111586228Y-51751969D01*
X111586228Y-51751969D02*
X111729085Y-51823398D01*
X111729085Y-51823398D02*
X111871942Y-51823398D01*
X111871942Y-51823398D02*
X112014800Y-51751969D01*
X112014800Y-51751969D02*
X112086228Y-51680541D01*
X112086228Y-51680541D02*
X112157657Y-51537683D01*
X112157657Y-51537683D02*
X112229085Y-51251969D01*
X112229085Y-51251969D02*
X112300514Y-51109112D01*
X112300514Y-51109112D02*
X112371942Y-51037683D01*
X112371942Y-51037683D02*
X112514800Y-50966255D01*
X112514800Y-50966255D02*
X112657657Y-50966255D01*
X112657657Y-50966255D02*
X112800514Y-51037683D01*
X112800514Y-51037683D02*
X112871942Y-51109112D01*
X112871942Y-51109112D02*
X112943371Y-51251969D01*
X112943371Y-51251969D02*
X112943371Y-51609112D01*
X112943371Y-51609112D02*
X112871942Y-51823398D01*
X111514800Y-52394826D02*
X111443371Y-52609112D01*
X111443371Y-52609112D02*
X111443371Y-52966254D01*
X111443371Y-52966254D02*
X111514800Y-53109112D01*
X111514800Y-53109112D02*
X111586228Y-53180540D01*
X111586228Y-53180540D02*
X111729085Y-53251969D01*
X111729085Y-53251969D02*
X111871942Y-53251969D01*
X111871942Y-53251969D02*
X112014800Y-53180540D01*
X112014800Y-53180540D02*
X112086228Y-53109112D01*
X112086228Y-53109112D02*
X112157657Y-52966254D01*
X112157657Y-52966254D02*
X112229085Y-52680540D01*
X112229085Y-52680540D02*
X112300514Y-52537683D01*
X112300514Y-52537683D02*
X112371942Y-52466254D01*
X112371942Y-52466254D02*
X112514800Y-52394826D01*
X112514800Y-52394826D02*
X112657657Y-52394826D01*
X112657657Y-52394826D02*
X112800514Y-52466254D01*
X112800514Y-52466254D02*
X112871942Y-52537683D01*
X112871942Y-52537683D02*
X112943371Y-52680540D01*
X112943371Y-52680540D02*
X112943371Y-53037683D01*
X112943371Y-53037683D02*
X112871942Y-53251969D01*
X139383371Y-51109112D02*
X140097657Y-50609112D01*
X139383371Y-50251969D02*
X140883371Y-50251969D01*
X140883371Y-50251969D02*
X140883371Y-50823398D01*
X140883371Y-50823398D02*
X140811942Y-50966255D01*
X140811942Y-50966255D02*
X140740514Y-51037684D01*
X140740514Y-51037684D02*
X140597657Y-51109112D01*
X140597657Y-51109112D02*
X140383371Y-51109112D01*
X140383371Y-51109112D02*
X140240514Y-51037684D01*
X140240514Y-51037684D02*
X140169085Y-50966255D01*
X140169085Y-50966255D02*
X140097657Y-50823398D01*
X140097657Y-50823398D02*
X140097657Y-50251969D01*
X140883371Y-51609112D02*
X139383371Y-52609112D01*
X140883371Y-52609112D02*
X139383371Y-51609112D01*
X139383371Y-53180540D02*
X140883371Y-53180540D01*
X140883371Y-53180540D02*
X140883371Y-53537683D01*
X140883371Y-53537683D02*
X140811942Y-53751969D01*
X140811942Y-53751969D02*
X140669085Y-53894826D01*
X140669085Y-53894826D02*
X140526228Y-53966255D01*
X140526228Y-53966255D02*
X140240514Y-54037683D01*
X140240514Y-54037683D02*
X140026228Y-54037683D01*
X140026228Y-54037683D02*
X139740514Y-53966255D01*
X139740514Y-53966255D02*
X139597657Y-53894826D01*
X139597657Y-53894826D02*
X139454800Y-53751969D01*
X139454800Y-53751969D02*
X139383371Y-53537683D01*
X139383371Y-53537683D02*
X139383371Y-53180540D01*
X124143371Y-51001969D02*
X125643371Y-51001969D01*
X125643371Y-51001969D02*
X125643371Y-51359112D01*
X125643371Y-51359112D02*
X125571942Y-51573398D01*
X125571942Y-51573398D02*
X125429085Y-51716255D01*
X125429085Y-51716255D02*
X125286228Y-51787684D01*
X125286228Y-51787684D02*
X125000514Y-51859112D01*
X125000514Y-51859112D02*
X124786228Y-51859112D01*
X124786228Y-51859112D02*
X124500514Y-51787684D01*
X124500514Y-51787684D02*
X124357657Y-51716255D01*
X124357657Y-51716255D02*
X124214800Y-51573398D01*
X124214800Y-51573398D02*
X124143371Y-51359112D01*
X124143371Y-51359112D02*
X124143371Y-51001969D01*
X125643371Y-53216255D02*
X125643371Y-52501969D01*
X125643371Y-52501969D02*
X124929085Y-52430541D01*
X124929085Y-52430541D02*
X125000514Y-52501969D01*
X125000514Y-52501969D02*
X125071942Y-52644827D01*
X125071942Y-52644827D02*
X125071942Y-53001969D01*
X125071942Y-53001969D02*
X125000514Y-53144827D01*
X125000514Y-53144827D02*
X124929085Y-53216255D01*
X124929085Y-53216255D02*
X124786228Y-53287684D01*
X124786228Y-53287684D02*
X124429085Y-53287684D01*
X124429085Y-53287684D02*
X124286228Y-53216255D01*
X124286228Y-53216255D02*
X124214800Y-53144827D01*
X124214800Y-53144827D02*
X124143371Y-53001969D01*
X124143371Y-53001969D02*
X124143371Y-52644827D01*
X124143371Y-52644827D02*
X124214800Y-52501969D01*
X124214800Y-52501969D02*
X124286228Y-52430541D01*
D12*
%TO.C,Oled_screen1*%
X119584000Y-107644000D02*
X119584000Y-106314000D01*
X120914000Y-107644000D02*
X119584000Y-107644000D01*
X122184000Y-104984000D02*
X129864000Y-104984000D01*
X122184000Y-107644000D02*
X122184000Y-104984000D01*
X122184000Y-107644000D02*
X129864000Y-107644000D01*
X129864000Y-107644000D02*
X129864000Y-104984000D01*
D10*
X106964000Y-104614000D02*
X142464000Y-104614000D01*
X142464000Y-138314000D01*
X106964000Y-138314000D01*
X106964000Y-104614000D01*
D13*
%TO.C,Nes1*%
X151460200Y-117348000D02*
X151460200Y-97028000D01*
D14*
X153162000Y-109314637D02*
X153162000Y-100330000D01*
D13*
X153746200Y-94742000D02*
X165608000Y-94742000D01*
D14*
X155448000Y-100838000D02*
X155448000Y-109035106D01*
X157226000Y-96266000D02*
X162306000Y-96266000D01*
X159065337Y-116702112D02*
X154352319Y-112188318D01*
X160181553Y-114715553D02*
X156117554Y-110651553D01*
X161798000Y-98552000D02*
X157734000Y-98552000D01*
D13*
X162839400Y-119634000D02*
X153746200Y-119634000D01*
D14*
X164084000Y-100838000D02*
X164084000Y-113099106D01*
D13*
X165608000Y-119634000D02*
X162839400Y-119634000D01*
D14*
X166370000Y-100330000D02*
X166370000Y-113583625D01*
D13*
X167894000Y-97028000D02*
X167894000Y-117348000D01*
X151460200Y-97028000D02*
G75*
G02*
X153746200Y-94742000I2286000J0D01*
G01*
D14*
X153162000Y-100330000D02*
G75*
G02*
X157226002Y-96266000I4064002J-2D01*
G01*
D13*
X153746200Y-119634000D02*
G75*
G02*
X151460200Y-117348000I0J2286000D01*
G01*
D14*
X154352319Y-112188318D02*
G75*
G02*
X153161996Y-109314637I2873751J2873718D01*
G01*
X155448000Y-100838000D02*
G75*
G02*
X157734000Y-98552000I2286000J0D01*
G01*
X156117554Y-110651553D02*
G75*
G02*
X155448001Y-109035106I1616416J1616433D01*
G01*
X161798000Y-98552000D02*
G75*
G02*
X164084000Y-100838000I0J-2286000D01*
G01*
X162306000Y-96266000D02*
G75*
G02*
X166370001Y-100330001I1J-4064000D01*
G01*
X164084000Y-113099106D02*
G75*
G02*
X160181556Y-114715549I-2286000J6D01*
G01*
D13*
X165608000Y-94742000D02*
G75*
G02*
X167894000Y-97028000I0J-2286000D01*
G01*
D14*
X166370000Y-113583625D02*
G75*
G02*
X159065338Y-116702109I-4318000J5D01*
G01*
D13*
X167894000Y-117348000D02*
G75*
G02*
X165608000Y-119634000I-2286000J0D01*
G01*
X159639000Y-100838000D02*
G75*
G02*
X155829000Y-100838000I-1905000J0D01*
G01*
X155829000Y-100838000D02*
G75*
G02*
X159639000Y-100838000I1905000J0D01*
G01*
X159639000Y-104902000D02*
G75*
G02*
X155829000Y-104902000I-1905000J0D01*
G01*
X155829000Y-104902000D02*
G75*
G02*
X159639000Y-104902000I1905000J0D01*
G01*
X159639000Y-108966000D02*
G75*
G02*
X155829000Y-108966000I-1905000J0D01*
G01*
X155829000Y-108966000D02*
G75*
G02*
X159639000Y-108966000I1905000J0D01*
G01*
X163703000Y-100838000D02*
G75*
G02*
X159893000Y-100838000I-1905000J0D01*
G01*
X159893000Y-100838000D02*
G75*
G02*
X163703000Y-100838000I1905000J0D01*
G01*
X163703000Y-104902000D02*
G75*
G02*
X159893000Y-104902000I-1905000J0D01*
G01*
X159893000Y-104902000D02*
G75*
G02*
X163703000Y-104902000I1905000J0D01*
G01*
X163703000Y-108966000D02*
G75*
G02*
X159893000Y-108966000I-1905000J0D01*
G01*
X159893000Y-108966000D02*
G75*
G02*
X163703000Y-108966000I1905000J0D01*
G01*
X163703000Y-113030000D02*
G75*
G02*
X159893000Y-113030000I-1905000J0D01*
G01*
X159893000Y-113030000D02*
G75*
G02*
X163703000Y-113030000I1905000J0D01*
G01*
D12*
%TO.C,A1*%
X100708000Y-70990000D02*
X111128000Y-70990000D01*
X100708000Y-78870000D02*
X100708000Y-70990000D01*
X103248000Y-65910000D02*
X103248000Y-70990000D01*
X103248000Y-83950000D02*
X103248000Y-78870000D01*
X103248000Y-83950000D02*
X146688000Y-83950000D01*
X105918000Y-68580000D02*
X105918000Y-65910000D01*
X105918000Y-81280000D02*
X105918000Y-83950000D01*
X111128000Y-70990000D02*
X111128000Y-78870000D01*
X111128000Y-78870000D02*
X100708000Y-78870000D01*
X141478000Y-65910000D02*
X103248000Y-65910000D01*
X141478000Y-68580000D02*
X105918000Y-68580000D01*
X141478000Y-68580000D02*
X141478000Y-65910000D01*
X141478000Y-68580000D02*
X144018000Y-68580000D01*
X144018000Y-68580000D02*
X144018000Y-65910000D01*
X144018000Y-81280000D02*
X105918000Y-81280000D01*
X144018000Y-81280000D02*
X144018000Y-83950000D01*
X146688000Y-65910000D02*
X144018000Y-65910000D01*
X146688000Y-83950000D02*
X146688000Y-65910000D01*
D10*
X146688000Y-47430000D02*
X100688000Y-47430000D01*
X100688000Y-102430000D01*
X146688000Y-102430000D01*
X146688000Y-47430000D01*
D12*
%TO.C,C1*%
X124944000Y-32772000D02*
X122762000Y-32772000D01*
X124944000Y-32812000D02*
X122766000Y-32812000D01*
X124944000Y-32852000D02*
X122769000Y-32852000D01*
X124944000Y-32892000D02*
X122773000Y-32892000D01*
X124944000Y-32932000D02*
X122778000Y-32932000D01*
X124944000Y-32972000D02*
X122783000Y-32972000D01*
X124944000Y-33012000D02*
X122789000Y-33012000D01*
X124944000Y-33052000D02*
X122795000Y-33052000D01*
X124944000Y-33092000D02*
X122802000Y-33092000D01*
X124944000Y-33132000D02*
X122809000Y-33132000D01*
X124944000Y-33172000D02*
X122817000Y-33172000D01*
X124944000Y-33212000D02*
X122825000Y-33212000D01*
X124944000Y-33253000D02*
X122834000Y-33253000D01*
X124944000Y-33293000D02*
X122843000Y-33293000D01*
X124944000Y-33333000D02*
X122853000Y-33333000D01*
X124944000Y-33373000D02*
X122863000Y-33373000D01*
X124944000Y-33413000D02*
X122874000Y-33413000D01*
X124944000Y-33453000D02*
X122886000Y-33453000D01*
X124944000Y-33493000D02*
X122898000Y-33493000D01*
X124944000Y-33533000D02*
X122910000Y-33533000D01*
X124944000Y-33573000D02*
X122923000Y-33573000D01*
X124944000Y-33613000D02*
X122937000Y-33613000D01*
X124944000Y-33653000D02*
X122951000Y-33653000D01*
X124944000Y-33693000D02*
X122966000Y-33693000D01*
X124944000Y-33733000D02*
X122982000Y-33733000D01*
X124944000Y-33773000D02*
X122998000Y-33773000D01*
X124944000Y-33813000D02*
X123014000Y-33813000D01*
X124944000Y-33853000D02*
X123032000Y-33853000D01*
X124944000Y-33893000D02*
X123050000Y-33893000D01*
X124944000Y-33933000D02*
X123068000Y-33933000D01*
X124944000Y-33973000D02*
X123088000Y-33973000D01*
X124944000Y-34013000D02*
X123108000Y-34013000D01*
X124944000Y-34053000D02*
X123128000Y-34053000D01*
X124944000Y-34093000D02*
X123150000Y-34093000D01*
X124944000Y-34133000D02*
X123172000Y-34133000D01*
X124944000Y-34173000D02*
X123194000Y-34173000D01*
X124944000Y-34213000D02*
X123218000Y-34213000D01*
X124944000Y-34253000D02*
X123242000Y-34253000D01*
X124944000Y-34293000D02*
X123268000Y-34293000D01*
X124944000Y-34333000D02*
X123294000Y-34333000D01*
X124944000Y-34373000D02*
X123320000Y-34373000D01*
X124944000Y-34413000D02*
X123348000Y-34413000D01*
X124944000Y-34453000D02*
X123377000Y-34453000D01*
X124944000Y-34493000D02*
X123406000Y-34493000D01*
X124944000Y-34533000D02*
X123436000Y-34533000D01*
X124944000Y-34573000D02*
X123468000Y-34573000D01*
X124944000Y-34613000D02*
X123500000Y-34613000D01*
X124944000Y-34653000D02*
X123534000Y-34653000D01*
X124944000Y-34693000D02*
X123568000Y-34693000D01*
X124944000Y-34733000D02*
X123604000Y-34733000D01*
X124944000Y-34773000D02*
X123641000Y-34773000D01*
X124944000Y-34813000D02*
X123679000Y-34813000D01*
X126386000Y-35773000D02*
X125582000Y-35773000D01*
X126617000Y-35733000D02*
X125351000Y-35733000D01*
X126786000Y-35693000D02*
X125182000Y-35693000D01*
X126924000Y-35653000D02*
X125044000Y-35653000D01*
X127043000Y-35613000D02*
X124925000Y-35613000D01*
X127149000Y-35573000D02*
X124819000Y-35573000D01*
X127246000Y-35533000D02*
X124722000Y-35533000D01*
X127334000Y-35493000D02*
X124634000Y-35493000D01*
X127416000Y-35453000D02*
X124552000Y-35453000D01*
X127493000Y-35413000D02*
X124475000Y-35413000D01*
X127565000Y-35373000D02*
X124403000Y-35373000D01*
X127634000Y-35333000D02*
X124334000Y-35333000D01*
X127698000Y-35293000D02*
X124270000Y-35293000D01*
X127760000Y-35253000D02*
X124208000Y-35253000D01*
X127818000Y-35213000D02*
X124150000Y-35213000D01*
X127823000Y-29031759D02*
X127823000Y-29661759D01*
X127874000Y-35173000D02*
X124094000Y-35173000D01*
X127928000Y-35133000D02*
X124040000Y-35133000D01*
X127979000Y-35093000D02*
X123989000Y-35093000D01*
X128028000Y-35053000D02*
X123940000Y-35053000D01*
X128076000Y-35013000D02*
X123892000Y-35013000D01*
X128121000Y-34973000D02*
X123847000Y-34973000D01*
X128138000Y-29346759D02*
X127508000Y-29346759D01*
X128166000Y-34933000D02*
X123802000Y-34933000D01*
X128208000Y-34893000D02*
X123760000Y-34893000D01*
X128249000Y-34853000D02*
X123719000Y-34853000D01*
X128289000Y-34813000D02*
X127024000Y-34813000D01*
X128327000Y-34773000D02*
X127024000Y-34773000D01*
X128364000Y-34733000D02*
X127024000Y-34733000D01*
X128400000Y-34693000D02*
X127024000Y-34693000D01*
X128434000Y-34653000D02*
X127024000Y-34653000D01*
X128468000Y-34613000D02*
X127024000Y-34613000D01*
X128500000Y-34573000D02*
X127024000Y-34573000D01*
X128532000Y-34533000D02*
X127024000Y-34533000D01*
X128562000Y-34493000D02*
X127024000Y-34493000D01*
X128591000Y-34453000D02*
X127024000Y-34453000D01*
X128620000Y-34413000D02*
X127024000Y-34413000D01*
X128648000Y-34373000D02*
X127024000Y-34373000D01*
X128674000Y-34333000D02*
X127024000Y-34333000D01*
X128700000Y-34293000D02*
X127024000Y-34293000D01*
X128726000Y-34253000D02*
X127024000Y-34253000D01*
X128750000Y-34213000D02*
X127024000Y-34213000D01*
X128774000Y-34173000D02*
X127024000Y-34173000D01*
X128796000Y-34133000D02*
X127024000Y-34133000D01*
X128818000Y-34093000D02*
X127024000Y-34093000D01*
X128840000Y-34053000D02*
X127024000Y-34053000D01*
X128860000Y-34013000D02*
X127024000Y-34013000D01*
X128880000Y-33973000D02*
X127024000Y-33973000D01*
X128900000Y-33933000D02*
X127024000Y-33933000D01*
X128918000Y-33893000D02*
X127024000Y-33893000D01*
X128936000Y-33853000D02*
X127024000Y-33853000D01*
X128954000Y-33813000D02*
X127024000Y-33813000D01*
X128970000Y-33773000D02*
X127024000Y-33773000D01*
X128986000Y-33733000D02*
X127024000Y-33733000D01*
X129002000Y-33693000D02*
X127024000Y-33693000D01*
X129017000Y-33653000D02*
X127024000Y-33653000D01*
X129031000Y-33613000D02*
X127024000Y-33613000D01*
X129045000Y-33573000D02*
X127024000Y-33573000D01*
X129058000Y-33533000D02*
X127024000Y-33533000D01*
X129070000Y-33493000D02*
X127024000Y-33493000D01*
X129082000Y-33453000D02*
X127024000Y-33453000D01*
X129094000Y-33413000D02*
X127024000Y-33413000D01*
X129105000Y-33373000D02*
X127024000Y-33373000D01*
X129115000Y-33333000D02*
X127024000Y-33333000D01*
X129125000Y-33293000D02*
X127024000Y-33293000D01*
X129134000Y-33253000D02*
X127024000Y-33253000D01*
X129143000Y-33212000D02*
X127024000Y-33212000D01*
X129151000Y-33172000D02*
X127024000Y-33172000D01*
X129159000Y-33132000D02*
X127024000Y-33132000D01*
X129166000Y-33092000D02*
X127024000Y-33092000D01*
X129173000Y-33052000D02*
X127024000Y-33052000D01*
X129179000Y-33012000D02*
X127024000Y-33012000D01*
X129185000Y-32972000D02*
X127024000Y-32972000D01*
X129190000Y-32932000D02*
X127024000Y-32932000D01*
X129195000Y-32892000D02*
X127024000Y-32892000D01*
X129199000Y-32852000D02*
X127024000Y-32852000D01*
X129202000Y-32812000D02*
X127024000Y-32812000D01*
X129206000Y-32772000D02*
X127024000Y-32772000D01*
X129208000Y-32732000D02*
X122760000Y-32732000D01*
X129211000Y-32692000D02*
X122757000Y-32692000D01*
X129212000Y-32652000D02*
X122756000Y-32652000D01*
X129214000Y-32532000D02*
X122754000Y-32532000D01*
X129214000Y-32572000D02*
X122754000Y-32572000D01*
X129214000Y-32612000D02*
X122754000Y-32612000D01*
X129254000Y-32532000D02*
G75*
G02*
X122714000Y-32532000I-3270000J0D01*
G01*
X122714000Y-32532000D02*
G75*
G02*
X129254000Y-32532000I3270000J0D01*
G01*
D13*
%TO.C,Snes1*%
X160449600Y-82804000D02*
G75*
G02*
X156639600Y-82804000I-1905000J0D01*
G01*
X156639600Y-82804000D02*
G75*
G02*
X160449600Y-82804000I1905000J0D01*
G01*
X160449600Y-78740000D02*
G75*
G02*
X156639600Y-78740000I-1905000J0D01*
G01*
X156639600Y-78740000D02*
G75*
G02*
X160449600Y-78740000I1905000J0D01*
G01*
X160449600Y-74676000D02*
G75*
G02*
X156639600Y-74676000I-1905000J0D01*
G01*
X156639600Y-74676000D02*
G75*
G02*
X160449600Y-74676000I1905000J0D01*
G01*
X160449600Y-70612000D02*
G75*
G02*
X156639600Y-70612000I-1905000J0D01*
G01*
X156639600Y-70612000D02*
G75*
G02*
X160449600Y-70612000I1905000J0D01*
G01*
X160449600Y-64048000D02*
G75*
G02*
X156639600Y-64048000I-1905000J0D01*
G01*
X156639600Y-64048000D02*
G75*
G02*
X160449600Y-64048000I1905000J0D01*
G01*
X160449600Y-59984000D02*
G75*
G02*
X156639600Y-59984000I-1905000J0D01*
G01*
X156639600Y-59984000D02*
G75*
G02*
X160449600Y-59984000I1905000J0D01*
G01*
X160449600Y-55920000D02*
G75*
G02*
X156639600Y-55920000I-1905000J0D01*
G01*
X156639600Y-55920000D02*
G75*
G02*
X160449600Y-55920000I1905000J0D01*
G01*
D14*
X164428600Y-88770000D02*
G75*
G02*
X162904599Y-90294001I-1524003J2D01*
G01*
X164408599Y-86779999D02*
G75*
G02*
X162884600Y-88304000I-1524001J0D01*
G01*
X163118600Y-86194000D02*
G75*
G02*
X162318600Y-86994000I-800001J1D01*
G01*
X161183600Y-66471000D02*
G75*
G02*
X160983600Y-66671000I-200000J0D01*
G01*
X161163600Y-84280000D02*
G75*
G02*
X160363600Y-85080000I-800001J1D01*
G01*
X160963600Y-68280000D02*
G75*
G02*
X161163600Y-68480000I0J-200000D01*
G01*
X158683600Y-53271000D02*
G75*
G02*
X161183600Y-55771000I0J-2500000D01*
G01*
X158428600Y-47894000D02*
G75*
G02*
X164428600Y-53894000I0J-6000000D01*
G01*
X158418600Y-51194000D02*
G75*
G02*
X163118600Y-55894000I0J-4700000D01*
G01*
X158408600Y-49804000D02*
G75*
G02*
X164408600Y-55804000I0J-6000000D01*
G01*
X156663600Y-85080000D02*
G75*
G02*
X155863600Y-84280000I1J800001D01*
G01*
X156083600Y-66671000D02*
G75*
G02*
X155883600Y-66471000I0J200000D01*
G01*
X155883600Y-55771000D02*
G75*
G02*
X158383600Y-53271000I2500000J0D01*
G01*
X155863600Y-68480000D02*
G75*
G02*
X156063600Y-68280000I200000J0D01*
G01*
X154518600Y-86994000D02*
G75*
G02*
X153718600Y-86194000I1J800001D01*
G01*
X153952600Y-90294000D02*
G75*
G02*
X152428600Y-88770000I-1J1523999D01*
G01*
X153932600Y-88304000D02*
G75*
G02*
X152408600Y-86780000I-1J1523999D01*
G01*
X153718600Y-55894000D02*
G75*
G02*
X158418600Y-51194000I4700000J0D01*
G01*
X152428600Y-53894000D02*
G75*
G02*
X158428601Y-47894000I6000000J0D01*
G01*
X152408600Y-55804000D02*
G75*
G02*
X158408600Y-49804000I6000000J0D01*
G01*
X164428600Y-53894000D02*
X164428600Y-88770000D01*
X164408600Y-86780000D02*
X164408600Y-55804000D01*
X163118600Y-86194000D02*
X163118600Y-55894000D01*
X162904600Y-90294000D02*
X153952600Y-90294000D01*
X161183600Y-66471000D02*
X161183600Y-55771000D01*
X161163600Y-84280000D02*
X161163600Y-68480000D01*
X160983600Y-66671000D02*
X156083600Y-66671000D01*
X160963600Y-68280000D02*
X156063600Y-68280000D01*
X160363600Y-85080000D02*
X156663600Y-85080000D01*
X158683600Y-53271000D02*
X158383600Y-53271000D01*
X155883600Y-66471000D02*
X155883600Y-55771000D01*
X155863600Y-84280000D02*
X155863600Y-68480000D01*
X154518600Y-86994000D02*
X162318600Y-86994000D01*
X153932600Y-88304000D02*
X162884600Y-88304000D01*
X153718600Y-86194000D02*
X153718600Y-55894000D01*
X152428600Y-88770000D02*
X152428600Y-53894000D01*
X152408600Y-86780000D02*
X152408600Y-55804000D01*
D12*
%TO.C,NRF24*%
X130175000Y-31466000D02*
X130175000Y-31466000D01*
X130175000Y-31466000D02*
X135509000Y-31466000D01*
X130175000Y-42134000D02*
X130175000Y-31466000D01*
X130175000Y-42134000D02*
X130175000Y-42134000D01*
X135509000Y-31466000D02*
X135509000Y-42134000D01*
X135509000Y-42134000D02*
X130175000Y-42134000D01*
D10*
X129921000Y-29180000D02*
X170721000Y-29180000D01*
X170721000Y-44480000D01*
X129921000Y-44480000D01*
X129921000Y-29180000D01*
D12*
%TO.C,3v3_regulator1*%
X101156000Y-34250000D02*
X117046000Y-34250000D01*
X101156000Y-44490000D02*
X101156000Y-34250000D01*
X101156000Y-44490000D02*
X117046000Y-44490000D01*
X117046000Y-36830000D02*
X119586000Y-36830000D01*
X117046000Y-39370000D02*
X119586000Y-39370000D01*
X117046000Y-41910000D02*
X119586000Y-41910000D01*
X117046000Y-44490000D02*
X117046000Y-34250000D01*
%TO.C,ps/2_connector1*%
D10*
X152766600Y-125436000D02*
X166766600Y-125436000D01*
X166766600Y-138336000D01*
X152766600Y-138336000D01*
X152766600Y-125436000D01*
%TD*%
M02*
