%TF.GenerationSoftware,KiCad,Pcbnew,8.0.2*%
%TF.CreationDate,2024-05-26T17:51:25+02:00*%
%TF.ProjectId,bom test,626f6d20-7465-4737-942e-6b696361645f,rev?*%
%TF.SameCoordinates,Original*%
%TF.FileFunction,Legend,Top*%
%TF.FilePolarity,Positive*%
%FSLAX46Y46*%
G04 Gerber Fmt 4.6, Leading zero omitted, Abs format (unit mm)*
G04 Created by KiCad (PCBNEW 8.0.2) date 2024-05-26 17:51:25*
%MOMM*%
%LPD*%
G01*
G04 APERTURE LIST*
%ADD10C,0.150000*%
%ADD11C,0.120000*%
G04 APERTURE END LIST*
D10*
X109410666Y-95846819D02*
X109077333Y-95370628D01*
X108839238Y-95846819D02*
X108839238Y-94846819D01*
X108839238Y-94846819D02*
X109220190Y-94846819D01*
X109220190Y-94846819D02*
X109315428Y-94894438D01*
X109315428Y-94894438D02*
X109363047Y-94942057D01*
X109363047Y-94942057D02*
X109410666Y-95037295D01*
X109410666Y-95037295D02*
X109410666Y-95180152D01*
X109410666Y-95180152D02*
X109363047Y-95275390D01*
X109363047Y-95275390D02*
X109315428Y-95323009D01*
X109315428Y-95323009D02*
X109220190Y-95370628D01*
X109220190Y-95370628D02*
X108839238Y-95370628D01*
X109839238Y-95323009D02*
X110172571Y-95323009D01*
X110315428Y-95846819D02*
X109839238Y-95846819D01*
X109839238Y-95846819D02*
X109839238Y-94846819D01*
X109839238Y-94846819D02*
X110315428Y-94846819D01*
X111077333Y-95323009D02*
X110744000Y-95323009D01*
X110744000Y-95846819D02*
X110744000Y-94846819D01*
X110744000Y-94846819D02*
X111220190Y-94846819D01*
X111744000Y-94846819D02*
X111744000Y-95084914D01*
X111505905Y-94989676D02*
X111744000Y-95084914D01*
X111744000Y-95084914D02*
X111982095Y-94989676D01*
X111601143Y-95275390D02*
X111744000Y-95084914D01*
X111744000Y-95084914D02*
X111886857Y-95275390D01*
X112505905Y-94846819D02*
X112505905Y-95084914D01*
X112267810Y-94989676D02*
X112505905Y-95084914D01*
X112505905Y-95084914D02*
X112744000Y-94989676D01*
X112363048Y-95275390D02*
X112505905Y-95084914D01*
X112505905Y-95084914D02*
X112648762Y-95275390D01*
X109156666Y-94260819D02*
X108823333Y-93784628D01*
X108585238Y-94260819D02*
X108585238Y-93260819D01*
X108585238Y-93260819D02*
X108966190Y-93260819D01*
X108966190Y-93260819D02*
X109061428Y-93308438D01*
X109061428Y-93308438D02*
X109109047Y-93356057D01*
X109109047Y-93356057D02*
X109156666Y-93451295D01*
X109156666Y-93451295D02*
X109156666Y-93594152D01*
X109156666Y-93594152D02*
X109109047Y-93689390D01*
X109109047Y-93689390D02*
X109061428Y-93737009D01*
X109061428Y-93737009D02*
X108966190Y-93784628D01*
X108966190Y-93784628D02*
X108585238Y-93784628D01*
X109585238Y-93737009D02*
X109918571Y-93737009D01*
X110061428Y-94260819D02*
X109585238Y-94260819D01*
X109585238Y-94260819D02*
X109585238Y-93260819D01*
X109585238Y-93260819D02*
X110061428Y-93260819D01*
X110823333Y-93737009D02*
X110490000Y-93737009D01*
X110490000Y-94260819D02*
X110490000Y-93260819D01*
X110490000Y-93260819D02*
X110966190Y-93260819D01*
X111490000Y-93260819D02*
X111490000Y-93498914D01*
X111251905Y-93403676D02*
X111490000Y-93498914D01*
X111490000Y-93498914D02*
X111728095Y-93403676D01*
X111347143Y-93689390D02*
X111490000Y-93498914D01*
X111490000Y-93498914D02*
X111632857Y-93689390D01*
X112251905Y-93260819D02*
X112251905Y-93498914D01*
X112013810Y-93403676D02*
X112251905Y-93498914D01*
X112251905Y-93498914D02*
X112490000Y-93403676D01*
X112109048Y-93689390D02*
X112251905Y-93498914D01*
X112251905Y-93498914D02*
X112394762Y-93689390D01*
D11*
%TO.C,REF\u002A\u002A*%
X113614000Y-93472000D02*
X112664000Y-93472000D01*
X112664000Y-94392000D02*
X112664000Y-92552000D01*
X112664000Y-92552000D02*
X108824000Y-92552000D01*
X108824000Y-94392000D02*
X112664000Y-94392000D01*
X108824000Y-92552000D02*
X108824000Y-94392000D01*
X107874000Y-93472000D02*
X108824000Y-93472000D01*
X107930000Y-87355000D02*
X107930000Y-90445000D01*
X107930000Y-87355170D02*
G75*
G02*
X113480000Y-88900462I2560000J-1544830D01*
G01*
X113480000Y-88899538D02*
G75*
G02*
X107930000Y-90444830I-2990000J-462D01*
G01*
X112990000Y-88900000D02*
G75*
G02*
X107990000Y-88900000I-2500000J0D01*
G01*
X107990000Y-88900000D02*
G75*
G02*
X112990000Y-88900000I2500000J0D01*
G01*
X106580000Y-100546000D02*
X106580000Y-97316000D01*
X106580000Y-104716000D02*
X106580000Y-102766000D01*
X107300000Y-95396000D02*
X108380000Y-95396000D01*
X108380000Y-95396000D02*
X108380000Y-94966000D01*
X112600000Y-95396000D02*
X113680000Y-95396000D01*
X114400000Y-100546000D02*
X114400000Y-97316000D01*
X114400000Y-104716000D02*
X106580000Y-104716000D01*
X114400000Y-104716000D02*
X114400000Y-102766000D01*
%TD*%
M02*
