%TF.GenerationSoftware,KiCad,Pcbnew,8.0.3*%
%TF.CreationDate,2024-06-28T16:04:17+02:00*%
%TF.ProjectId,3.3v radio with battery,332e3376-2072-4616-9469-6f2077697468,rev?*%
%TF.SameCoordinates,Original*%
%TF.FileFunction,Copper,L2,Bot*%
%TF.FilePolarity,Positive*%
%FSLAX46Y46*%
G04 Gerber Fmt 4.6, Leading zero omitted, Abs format (unit mm)*
G04 Created by KiCad (PCBNEW 8.0.3) date 2024-06-28 16:04:17*
%MOMM*%
%LPD*%
G01*
G04 APERTURE LIST*
%TA.AperFunction,ComponentPad*%
%ADD10C,2.000000*%
%TD*%
%TA.AperFunction,ComponentPad*%
%ADD11R,1.700000X1.700000*%
%TD*%
%TA.AperFunction,ComponentPad*%
%ADD12O,1.700000X1.700000*%
%TD*%
%TA.AperFunction,ComponentPad*%
%ADD13R,1.600000X1.600000*%
%TD*%
%TA.AperFunction,ComponentPad*%
%ADD14C,1.600000*%
%TD*%
%TA.AperFunction,ComponentPad*%
%ADD15C,3.000000*%
%TD*%
%TA.AperFunction,ComponentPad*%
%ADD16C,1.700000*%
%TD*%
%TA.AperFunction,ComponentPad*%
%ADD17R,1.350000X1.350000*%
%TD*%
%TA.AperFunction,ComponentPad*%
%ADD18C,4.000000*%
%TD*%
%TA.AperFunction,ComponentPad*%
%ADD19C,3.048000*%
%TD*%
%TA.AperFunction,ComponentPad*%
%ADD20C,1.270000*%
%TD*%
%TA.AperFunction,Conductor*%
%ADD21C,0.300000*%
%TD*%
G04 APERTURE END LIST*
D10*
%TO.P,U6,*%
%TO.N,*%
X106606000Y-121964000D03*
X113406000Y-133764000D03*
%TO.P,U6,1,no*%
%TO.N,unconnected-(U6-no-Pad1)*%
X108506000Y-124664000D03*
%TO.P,U6,2,no*%
%TO.N,Net-(U3-GND_IN)*%
X111506000Y-124664000D03*
%TO.P,U6,3,nc*%
%TO.N,unconnected-(U6-nc-Pad3)*%
X108506000Y-127864000D03*
%TO.P,U6,4,nc*%
%TO.N,Net-(U3-ON{slash}OFF)*%
X111506000Y-127864000D03*
%TO.P,U6,5,nc*%
%TO.N,unconnected-(U6-nc-Pad5)*%
X108506000Y-131064000D03*
%TO.P,U6,6,nc*%
%TO.N,unconnected-(U6-nc-Pad6)*%
X111506000Y-131064000D03*
%TD*%
D11*
%TO.P,Oled_screen1,1,VCC*%
%TO.N,Net-(ESP32-WROOM-32U1-3.3v)*%
X217764500Y-89926000D03*
D12*
%TO.P,Oled_screen1,2,GND*%
%TO.N,Net-(GPS1-GND)*%
X217764500Y-92466000D03*
%TO.P,Oled_screen1,3,SCK*%
%TO.N,Net-(ESP32-WROOM-32U1-SCL{slash}22)*%
X217764500Y-95006000D03*
%TO.P,Oled_screen1,4,SDA*%
%TO.N,Net-(ESP32-WROOM-32U1-SDA{slash}21)*%
X217764500Y-97546000D03*
%TD*%
D10*
%TO.P,U2,1,DATA*%
%TO.N,Net-(ESP32-WROOM-32U1-MISO{slash}19)*%
X95581500Y-110387625D03*
%TO.P,U2,2,CMD*%
%TO.N,Net-(ESP32-WROOM-32U1-MOSI{slash}23)*%
X95581500Y-106387625D03*
%TO.P,U2,3,MOTOR*%
%TO.N,unconnected-(U2-MOTOR-Pad3)*%
X95581500Y-102387625D03*
%TO.P,U2,4,GND*%
%TO.N,Net-(GPS1-GND)*%
X95581500Y-98387625D03*
%TO.P,U2,5,3.3V*%
%TO.N,Net-(ESP32-WROOM-32U1-3.3v)*%
X95581500Y-94387625D03*
%TO.P,U2,6,ATTN*%
%TO.N,Net-(ESP32-WROOM-32U1-SS{slash}5)*%
X95581500Y-90387625D03*
%TO.P,U2,7,CLK*%
%TO.N,Net-(ESP32-WROOM-32U1-SCK{slash}18)*%
X95581500Y-86387625D03*
%TO.P,U2,8,NC*%
%TO.N,unconnected-(U2-NC-Pad8)*%
X95581500Y-82387625D03*
%TO.P,U2,9,ACK*%
%TO.N,unconnected-(U2-ACK-Pad9)*%
X95581500Y-78387625D03*
%TD*%
D11*
%TO.P,U3,1,VOUT*%
%TO.N,Net-(J1-VBUS)*%
X156194000Y-120912500D03*
D12*
%TO.P,U3,2,GND_OUT*%
%TO.N,Net-(J1-GND)*%
X156194000Y-123452500D03*
%TO.P,U3,3,BAT_POSITIVE*%
%TO.N,Net-(U3-BAT_POSITIVE)*%
X156194000Y-125992500D03*
%TO.P,U3,4,BAT_GND*%
%TO.N,Net-(U3-BAT_GND)*%
X156194000Y-128532500D03*
%TO.P,U3,5,GND_IN*%
%TO.N,Net-(U3-GND_IN)*%
X156194000Y-131072500D03*
%TO.P,U3,6,VIN*%
%TO.N,Net-(U3-VIN)*%
X156194000Y-133612500D03*
%TD*%
D13*
%TO.P,C1,1*%
%TO.N,Net-(ESP32-WROOM-32U1-3.3v)*%
X191516000Y-82675349D03*
D14*
%TO.P,C1,2*%
%TO.N,Net-(GPS1-GND)*%
X191516000Y-86175349D03*
%TD*%
D15*
%TO.P,U4,*%
%TO.N,*%
X80602000Y-120206000D03*
X80602000Y-132246000D03*
D16*
%TO.P,U4,1,data-*%
%TO.N,Net-(J1-D-)*%
X85312000Y-124976000D03*
%TO.P,U4,2,data+*%
%TO.N,Net-(J1-D+)*%
X83312000Y-124976000D03*
%TO.P,U4,3,GND*%
%TO.N,Net-(U3-GND_IN)*%
X83312000Y-127476000D03*
%TO.P,U4,4,VIN*%
%TO.N,Net-(U3-VIN)*%
X85312000Y-127476000D03*
%TD*%
D11*
%TO.P,GPS1,1,GND*%
%TO.N,Net-(GPS1-GND)*%
X120950000Y-89148000D03*
D12*
%TO.P,GPS1,2,TX*%
%TO.N,Net-(ESP32-WROOM-32U1-RX2{slash}16)*%
X118410000Y-89148000D03*
%TO.P,GPS1,3,RX*%
%TO.N,Net-(ESP32-WROOM-32U1-TX2{slash}17)*%
X115870000Y-89148000D03*
%TO.P,GPS1,4,VCC*%
%TO.N,Net-(ESP32-WROOM-32U1-3.3v)*%
X113330000Y-89148000D03*
%TD*%
D16*
%TO.P,REF\u002A\u002A,*%
%TO.N,*%
X224047000Y-116576000D03*
X218947000Y-116576000D03*
X224047000Y-121676000D03*
X218947000Y-121676000D03*
%TO.P,REF\u002A\u002A,1*%
%TO.N,N/C*%
X221497000Y-119126000D03*
%TD*%
D11*
%TO.P,NRF1,*%
%TO.N,*%
X223078000Y-61946000D03*
D12*
X223078000Y-64486000D03*
X223078000Y-67026000D03*
X223078000Y-69566000D03*
X223078000Y-72106000D03*
X223078000Y-74646000D03*
D11*
%TO.P,NRF1,1,GND*%
%TO.N,Net-(GPS1-GND)*%
X185340000Y-64486000D03*
D16*
%TO.P,NRF1,2,VCC*%
%TO.N,Net-(ESP32-WROOM-32U1-3.3v)*%
X187880000Y-64486000D03*
%TO.P,NRF1,3,CE*%
%TO.N,Net-(ESP32-WROOM-32U1-32)*%
X185340000Y-67026000D03*
%TO.P,NRF1,4,~{CSN}*%
%TO.N,Net-(ESP32-WROOM-32U1-33)*%
X187880000Y-67026000D03*
%TO.P,NRF1,5,SCK*%
%TO.N,Net-(ESP32-WROOM-32U1-SCK{slash}18)*%
X185340000Y-69566000D03*
%TO.P,NRF1,6,MOSI*%
%TO.N,Net-(ESP32-WROOM-32U1-MOSI{slash}23)*%
X187880000Y-69566000D03*
%TO.P,NRF1,7,MISO*%
%TO.N,Net-(ESP32-WROOM-32U1-MISO{slash}19)*%
X185340000Y-72106000D03*
%TO.P,NRF1,8,IRQ*%
%TO.N,unconnected-(NRF1-IRQ-Pad8)*%
X187880000Y-72106000D03*
%TD*%
D11*
%TO.P,J1,1,VBUS*%
%TO.N,Net-(J1-VBUS)*%
X99568000Y-118110000D03*
D12*
%TO.P,J1,2,D-*%
%TO.N,Net-(J1-D-)*%
X97028000Y-118110000D03*
%TO.P,J1,3,D+*%
%TO.N,Net-(J1-D+)*%
X94488000Y-118110000D03*
%TO.P,J1,4,GND*%
%TO.N,Net-(J1-GND)*%
X91948000Y-118110000D03*
%TD*%
D13*
%TO.P,C2,1*%
%TO.N,Net-(ESP32-WROOM-32U1-3.3v)*%
X201516000Y-82675349D03*
D14*
%TO.P,C2,2*%
%TO.N,Net-(GPS1-GND)*%
X201516000Y-86175349D03*
%TD*%
D17*
%TO.P,SMA ANTENNA,1*%
%TO.N,N/C*%
X211488000Y-119126000D03*
%TD*%
D18*
%TO.P,U5,1,BAT_+*%
%TO.N,Net-(U3-BAT_POSITIVE)*%
X137794000Y-103886000D03*
%TO.P,U5,2,BAT_-*%
%TO.N,Net-(U3-BAT_GND)*%
X210694000Y-103886000D03*
%TD*%
D11*
%TO.P,MPU1,1,VCC*%
%TO.N,Net-(ESP32-WROOM-32U1-3.3v)*%
X193751000Y-121666000D03*
D12*
%TO.P,MPU1,2,GND*%
%TO.N,Net-(GPS1-GND)*%
X191211000Y-121666000D03*
%TO.P,MPU1,3,SCL*%
%TO.N,Net-(ESP32-WROOM-32U1-SCL{slash}22)*%
X188671000Y-121666000D03*
%TO.P,MPU1,4,SDA*%
%TO.N,Net-(ESP32-WROOM-32U1-SDA{slash}21)*%
X186131000Y-121666000D03*
%TO.P,MPU1,5,EDA*%
%TO.N,unconnected-(MPU1-EDA-Pad5)*%
X183591000Y-121666000D03*
%TO.P,MPU1,6,ECL*%
%TO.N,unconnected-(MPU1-ECL-Pad6)*%
X181051000Y-121666000D03*
%TO.P,MPU1,7,ADO*%
%TO.N,unconnected-(MPU1-ADO-Pad7)*%
X178511000Y-121666000D03*
%TO.P,MPU1,8,INT*%
%TO.N,unconnected-(MPU1-INT-Pad8)*%
X175971000Y-121666000D03*
%TO.P,MPU1,9,NCS*%
%TO.N,unconnected-(MPU1-NCS-Pad9)*%
X173431000Y-121666000D03*
%TO.P,MPU1,10,FSYNC*%
%TO.N,unconnected-(MPU1-FSYNC-Pad10)*%
X170891000Y-121666000D03*
%TD*%
D13*
%TO.P,C3,1*%
%TO.N,Net-(ESP32-WROOM-32U1-3.3v)*%
X211516000Y-82675349D03*
D14*
%TO.P,C3,2*%
%TO.N,Net-(GPS1-GND)*%
X211516000Y-86175349D03*
%TD*%
D11*
%TO.P,ESP32-WROOM-32U1,1,3.3v*%
%TO.N,Net-(ESP32-WROOM-32U1-3.3v)*%
X134874000Y-89836000D03*
X134874000Y-84836000D03*
D12*
%TO.P,ESP32-WROOM-32U1,2,EN*%
%TO.N,unconnected-(ESP32-WROOM-32U1-EN-Pad2)*%
X137414000Y-89836000D03*
X137414000Y-84836000D03*
%TO.P,ESP32-WROOM-32U1,3,VP*%
%TO.N,unconnected-(ESP32-WROOM-32U1-VP-Pad3)*%
X139954000Y-89836000D03*
X139954000Y-84836000D03*
%TO.P,ESP32-WROOM-32U1,4,VN*%
%TO.N,unconnected-(ESP32-WROOM-32U1-VN-Pad4)*%
X142494000Y-89836000D03*
X142494000Y-84836000D03*
%TO.P,ESP32-WROOM-32U1,5,34*%
%TO.N,unconnected-(ESP32-WROOM-32U1-34-Pad5)*%
X145034000Y-89836000D03*
X145034000Y-84836000D03*
%TO.P,ESP32-WROOM-32U1,6,35*%
%TO.N,unconnected-(ESP32-WROOM-32U1-35-Pad6)*%
X147574000Y-89836000D03*
X147574000Y-84836000D03*
%TO.P,ESP32-WROOM-32U1,7,32*%
%TO.N,Net-(ESP32-WROOM-32U1-32)*%
X150114000Y-89836000D03*
X150114000Y-84836000D03*
%TO.P,ESP32-WROOM-32U1,8,33*%
%TO.N,Net-(ESP32-WROOM-32U1-33)*%
X152654000Y-89836000D03*
X152654000Y-84836000D03*
%TO.P,ESP32-WROOM-32U1,9,25*%
%TO.N,unconnected-(ESP32-WROOM-32U1-25-Pad9)*%
X155194000Y-89836000D03*
X155194000Y-84836000D03*
%TO.P,ESP32-WROOM-32U1,10,26*%
%TO.N,unconnected-(ESP32-WROOM-32U1-26-Pad10)*%
X157734000Y-89836000D03*
X157734000Y-84836000D03*
%TO.P,ESP32-WROOM-32U1,11,27*%
%TO.N,unconnected-(ESP32-WROOM-32U1-27-Pad11)*%
X160274000Y-89836000D03*
X160274000Y-84836000D03*
%TO.P,ESP32-WROOM-32U1,12,14*%
%TO.N,unconnected-(ESP32-WROOM-32U1-14-Pad12)*%
X162814000Y-89836000D03*
X162814000Y-84836000D03*
%TO.P,ESP32-WROOM-32U1,13,12*%
%TO.N,unconnected-(ESP32-WROOM-32U1-12-Pad13)*%
X165354000Y-89836000D03*
X165354000Y-84836000D03*
%TO.P,ESP32-WROOM-32U1,14,GND*%
%TO.N,Net-(GPS1-GND)*%
X167894000Y-89836000D03*
X167894000Y-84836000D03*
%TO.P,ESP32-WROOM-32U1,15,13*%
%TO.N,unconnected-(ESP32-WROOM-32U1-13-Pad15)*%
X170434000Y-89836000D03*
X170434000Y-84836000D03*
%TO.P,ESP32-WROOM-32U1,16,D2*%
%TO.N,unconnected-(ESP32-WROOM-32U1-D2-Pad16)*%
X172974000Y-89836000D03*
X172974000Y-84836000D03*
%TO.P,ESP32-WROOM-32U1,17,D3*%
%TO.N,unconnected-(ESP32-WROOM-32U1-D3-Pad17)*%
X175514000Y-89836000D03*
X175514000Y-84836000D03*
%TO.P,ESP32-WROOM-32U1,18,CMD*%
%TO.N,unconnected-(ESP32-WROOM-32U1-CMD-Pad18)*%
X178054000Y-89836000D03*
X178054000Y-84836000D03*
%TO.P,ESP32-WROOM-32U1,19,5V*%
%TO.N,unconnected-(ESP32-WROOM-32U1-5V-Pad19)*%
X180594000Y-89836000D03*
X180594000Y-84836000D03*
D11*
%TO.P,ESP32-WROOM-32U1,20,GND*%
%TO.N,unconnected-(ESP32-WROOM-32U1-GND-Pad20)*%
X134874000Y-56896000D03*
X134874000Y-51896000D03*
D12*
%TO.P,ESP32-WROOM-32U1,21,MOSI/23*%
%TO.N,Net-(ESP32-WROOM-32U1-MOSI{slash}23)*%
X137414000Y-56896000D03*
X137414000Y-51896000D03*
%TO.P,ESP32-WROOM-32U1,22,SCL/22*%
%TO.N,Net-(ESP32-WROOM-32U1-SCL{slash}22)*%
X139954000Y-56896000D03*
X139954000Y-51896000D03*
%TO.P,ESP32-WROOM-32U1,23,TX*%
%TO.N,unconnected-(ESP32-WROOM-32U1-TX-Pad23)*%
X142494000Y-56896000D03*
X142494000Y-51896000D03*
%TO.P,ESP32-WROOM-32U1,24,RX*%
%TO.N,unconnected-(ESP32-WROOM-32U1-RX-Pad24)*%
X145034000Y-56896000D03*
X145034000Y-51896000D03*
%TO.P,ESP32-WROOM-32U1,25,SDA/21*%
%TO.N,Net-(ESP32-WROOM-32U1-SDA{slash}21)*%
X147574000Y-56896000D03*
X147574000Y-51896000D03*
%TO.P,ESP32-WROOM-32U1,26,GND*%
%TO.N,unconnected-(ESP32-WROOM-32U1-GND-Pad26)*%
X150114000Y-56896000D03*
X150114000Y-51896000D03*
%TO.P,ESP32-WROOM-32U1,27,MISO/19*%
%TO.N,Net-(ESP32-WROOM-32U1-MISO{slash}19)*%
X152654000Y-56896000D03*
X152654000Y-51896000D03*
%TO.P,ESP32-WROOM-32U1,28,SCK/18*%
%TO.N,Net-(ESP32-WROOM-32U1-SCK{slash}18)*%
X155194000Y-56896000D03*
X155194000Y-51896000D03*
%TO.P,ESP32-WROOM-32U1,29,SS/5*%
%TO.N,Net-(ESP32-WROOM-32U1-SS{slash}5)*%
X157734000Y-56896000D03*
X157734000Y-51896000D03*
%TO.P,ESP32-WROOM-32U1,30,TX2/17*%
%TO.N,Net-(ESP32-WROOM-32U1-TX2{slash}17)*%
X160274000Y-56896000D03*
X160274000Y-51896000D03*
%TO.P,ESP32-WROOM-32U1,31,RX2/16*%
%TO.N,Net-(ESP32-WROOM-32U1-RX2{slash}16)*%
X162814000Y-56896000D03*
X162814000Y-51896000D03*
%TO.P,ESP32-WROOM-32U1,32,4*%
%TO.N,unconnected-(ESP32-WROOM-32U1-4-Pad32)*%
X165354000Y-56896000D03*
X165354000Y-51896000D03*
%TO.P,ESP32-WROOM-32U1,33,0*%
%TO.N,unconnected-(ESP32-WROOM-32U1-0-Pad33)*%
X167894000Y-56896000D03*
X167894000Y-51896000D03*
%TO.P,ESP32-WROOM-32U1,34,2*%
%TO.N,unconnected-(ESP32-WROOM-32U1-2-Pad34)*%
X170434000Y-56896000D03*
X170434000Y-51896000D03*
%TO.P,ESP32-WROOM-32U1,35,15*%
%TO.N,unconnected-(ESP32-WROOM-32U1-15-Pad35)*%
X172974000Y-56896000D03*
X172974000Y-51896000D03*
%TO.P,ESP32-WROOM-32U1,36,D1*%
%TO.N,unconnected-(ESP32-WROOM-32U1-D1-Pad36)*%
X175514000Y-56896000D03*
X175514000Y-51896000D03*
%TO.P,ESP32-WROOM-32U1,37,D0*%
%TO.N,unconnected-(ESP32-WROOM-32U1-D0-Pad37)*%
X178054000Y-56896000D03*
X178054000Y-51896000D03*
%TO.P,ESP32-WROOM-32U1,38,CLK*%
%TO.N,unconnected-(ESP32-WROOM-32U1-CLK-Pad38)*%
X180594000Y-56896000D03*
X180594000Y-51896000D03*
%TD*%
D11*
%TO.P,U7,1,VCC*%
%TO.N,Net-(ESP32-WROOM-32U1-3.3v)*%
X123490000Y-102648000D03*
D12*
%TO.P,U7,2,GND*%
%TO.N,Net-(GPS1-GND)*%
X120950000Y-102648000D03*
%TO.P,U7,3,SCL*%
%TO.N,Net-(ESP32-WROOM-32U1-SCL{slash}22)*%
X118410000Y-102648000D03*
%TO.P,U7,4,SDA*%
%TO.N,Net-(ESP32-WROOM-32U1-SDA{slash}21)*%
X115870000Y-102648000D03*
%TO.P,U7,5,CSB*%
%TO.N,unconnected-(U7-CSB-Pad5)*%
X113330000Y-102648000D03*
%TO.P,U7,6,SDO*%
%TO.N,unconnected-(U7-SDO-Pad6)*%
X110790000Y-102648000D03*
%TD*%
D19*
%TO.P,U1,*%
%TO.N,*%
X75692000Y-67576000D03*
X81026000Y-67576000D03*
X75692000Y-54876000D03*
X81026000Y-54876000D03*
D20*
%TO.P,U1,1,VCC_3.3V*%
%TO.N,Net-(ESP32-WROOM-32U1-3.3v)*%
X83820000Y-59321000D03*
%TO.P,U1,2,SCL*%
%TO.N,Net-(ESP32-WROOM-32U1-SCL{slash}22)*%
X81915000Y-59321000D03*
%TO.P,U1,3,Detect_device*%
%TO.N,unconnected-(U1-Detect_device-Pad3)*%
X83820000Y-61226000D03*
%TO.P,U1,4,NC*%
%TO.N,unconnected-(U1-NC-Pad4)*%
X81915000Y-61226000D03*
%TO.P,U1,5,SDA*%
%TO.N,Net-(ESP32-WROOM-32U1-SDA{slash}21)*%
X83820000Y-63131000D03*
%TO.P,U1,6,GND*%
%TO.N,Net-(GPS1-GND)*%
X81915000Y-63131000D03*
%TD*%
D11*
%TO.P,TP1,1,1*%
%TO.N,Net-(U3-ON{slash}OFF)*%
X121506000Y-127864000D03*
%TD*%
D21*
%TO.N,Net-(ESP32-WROOM-32U1-SS{slash}5)*%
X135136000Y-53840000D02*
X155790000Y-53840000D01*
X155790000Y-53840000D02*
X157734000Y-51896000D01*
X98588375Y-90387625D02*
X135136000Y-53840000D01*
X95581500Y-90387625D02*
X98588375Y-90387625D01*
%TO.N,unconnected-(ESP32-WROOM-32U1-0-Pad33)*%
X167894000Y-51896000D02*
X167894000Y-56896000D01*
%TO.N,Net-(ESP32-WROOM-32U1-SCK{slash}18)*%
X127000000Y-53340000D02*
X153750000Y-53340000D01*
X153750000Y-53340000D02*
X155194000Y-51896000D01*
X95581500Y-86387625D02*
X95581500Y-84758500D01*
X95581500Y-84758500D02*
X127000000Y-53340000D01*
%TO.N,Net-(ESP32-WROOM-32U1-MISO{slash}19)*%
X136421106Y-58596000D02*
X150954000Y-58596000D01*
X95581500Y-110387625D02*
X114554000Y-91415125D01*
X114554000Y-91415125D02*
X114554000Y-80463106D01*
X150954000Y-58596000D02*
X152654000Y-56896000D01*
X114554000Y-80463106D02*
X136421106Y-58596000D01*
%TO.N,unconnected-(ESP32-WROOM-32U1-CLK-Pad38)*%
X180594000Y-56896000D02*
X180594000Y-51896000D01*
%TO.N,unconnected-(ESP32-WROOM-32U1-2-Pad34)*%
X170434000Y-56896000D02*
X170434000Y-51896000D01*
%TO.N,unconnected-(ESP32-WROOM-32U1-D1-Pad36)*%
X175514000Y-56896000D02*
X175514000Y-51896000D01*
%TO.N,Net-(ESP32-WROOM-32U1-TX2{slash}17)*%
X115870000Y-89148000D02*
X145922000Y-59096000D01*
X145922000Y-59096000D02*
X158074000Y-59096000D01*
X158074000Y-59096000D02*
X160274000Y-56896000D01*
%TO.N,unconnected-(ESP32-WROOM-32U1-4-Pad32)*%
X165354000Y-56896000D02*
X165354000Y-51896000D01*
%TO.N,unconnected-(ESP32-WROOM-32U1-D0-Pad37)*%
X178054000Y-51896000D02*
X178054000Y-56896000D01*
%TO.N,Net-(ESP32-WROOM-32U1-SDA{slash}21)*%
X96913000Y-50038000D02*
X145716000Y-50038000D01*
X83820000Y-63131000D02*
X96913000Y-50038000D01*
X145716000Y-50038000D02*
X147574000Y-51896000D01*
%TO.N,unconnected-(ESP32-WROOM-32U1-15-Pad35)*%
X172974000Y-51896000D02*
X172974000Y-56896000D01*
%TO.N,Net-(GPS1-GND)*%
X164004000Y-93726000D02*
X167894000Y-89836000D01*
X89904000Y-71120000D02*
X92456000Y-71120000D01*
X191516000Y-86175349D02*
X188652651Y-83312000D01*
X169418000Y-83312000D02*
X167894000Y-84836000D01*
X92456000Y-71120000D02*
X93980000Y-72644000D01*
X165434000Y-87376000D02*
X167894000Y-89836000D01*
X81915000Y-63131000D02*
X89904000Y-71120000D01*
X191211000Y-86480349D02*
X191516000Y-86175349D01*
X131826000Y-87376000D02*
X165434000Y-87376000D01*
X93980000Y-72644000D02*
X93980000Y-96786125D01*
X191516000Y-86175349D02*
X201516000Y-86175349D01*
X191211000Y-121666000D02*
X191211000Y-86480349D01*
X129872000Y-93726000D02*
X164004000Y-93726000D01*
X130048000Y-85598000D02*
X131826000Y-87376000D01*
X120950000Y-102648000D02*
X129872000Y-93726000D01*
X188652651Y-83312000D02*
X169418000Y-83312000D01*
X120950000Y-89148000D02*
X124500000Y-85598000D01*
X124500000Y-85598000D02*
X130048000Y-85598000D01*
X93980000Y-96786125D02*
X95581500Y-98387625D01*
X211516000Y-86175349D02*
X201516000Y-86175349D01*
%TO.N,Net-(ESP32-WROOM-32U1-32)*%
X167924000Y-67026000D02*
X150114000Y-84836000D01*
X185340000Y-67026000D02*
X167924000Y-67026000D01*
%TO.N,Net-(ESP32-WROOM-32U1-3.3v)*%
X131906000Y-89836000D02*
X134874000Y-89836000D01*
X211516000Y-82675349D02*
X201516000Y-82675349D01*
X119634000Y-102108000D02*
X131906000Y-89836000D01*
X191516000Y-82675349D02*
X201516000Y-82675349D01*
X193751000Y-121666000D02*
X193751000Y-104699000D01*
X208524000Y-89926000D02*
X217764500Y-89926000D01*
X123490000Y-102648000D02*
X121998000Y-104140000D01*
X120142000Y-104140000D02*
X119634000Y-103632000D01*
X121998000Y-104140000D02*
X120142000Y-104140000D01*
X193751000Y-104699000D02*
X208524000Y-89926000D01*
X119634000Y-103632000D02*
X119634000Y-102108000D01*
%TO.N,Net-(ESP32-WROOM-32U1-33)*%
X187880000Y-67026000D02*
X186540000Y-68366000D01*
X169124000Y-68366000D02*
X152654000Y-84836000D01*
X186540000Y-68366000D02*
X169124000Y-68366000D01*
%TO.N,Net-(ESP32-WROOM-32U1-MOSI{slash}23)*%
X110236000Y-84074000D02*
X137414000Y-56896000D01*
X96931500Y-92806500D02*
X105664000Y-84074000D01*
X105664000Y-84074000D02*
X110236000Y-84074000D01*
X96931500Y-105037625D02*
X96931500Y-92806500D01*
X95581500Y-106387625D02*
X96931500Y-105037625D01*
%TO.N,Net-(J1-D+)*%
X94488000Y-118110000D02*
X89154000Y-123444000D01*
X89154000Y-123444000D02*
X84844000Y-123444000D01*
X84844000Y-123444000D02*
X83312000Y-124976000D01*
%TO.N,Net-(J1-D-)*%
X97028000Y-118110000D02*
X90162000Y-124976000D01*
X90162000Y-124976000D02*
X85312000Y-124976000D01*
%TO.N,Net-(U3-GND_IN)*%
X83312000Y-127476000D02*
X84550000Y-126238000D01*
X104140000Y-123444000D02*
X106934000Y-126238000D01*
X89607106Y-126238000D02*
X92401106Y-123444000D01*
X92401106Y-123444000D02*
X104140000Y-123444000D01*
X106934000Y-126238000D02*
X109932000Y-126238000D01*
X84550000Y-126238000D02*
X89607106Y-126238000D01*
X109932000Y-126238000D02*
X111506000Y-124664000D01*
%TO.N,Net-(U3-ON{slash}OFF)*%
X111506000Y-127864000D02*
X121506000Y-127864000D01*
%TO.N,Net-(ESP32-WROOM-32U1-RX2{slash}16)*%
X118410000Y-89148000D02*
X147962000Y-59596000D01*
X147962000Y-59596000D02*
X160114000Y-59596000D01*
X162814000Y-51896000D02*
X162814000Y-56896000D01*
X160114000Y-59596000D02*
X162814000Y-56896000D01*
%TD*%
M02*
