%TF.GenerationSoftware,KiCad,Pcbnew,8.0.3*%
%TF.CreationDate,2024-06-22T19:33:56+02:00*%
%TF.ProjectId,3.3v radio with battery,332e3376-2072-4616-9469-6f2077697468,rev?*%
%TF.SameCoordinates,Original*%
%TF.FileFunction,Copper,L2,Bot*%
%TF.FilePolarity,Positive*%
%FSLAX46Y46*%
G04 Gerber Fmt 4.6, Leading zero omitted, Abs format (unit mm)*
G04 Created by KiCad (PCBNEW 8.0.3) date 2024-06-22 19:33:56*
%MOMM*%
%LPD*%
G01*
G04 APERTURE LIST*
%TA.AperFunction,ComponentPad*%
%ADD10C,2.000000*%
%TD*%
%TA.AperFunction,ComponentPad*%
%ADD11R,1.700000X1.700000*%
%TD*%
%TA.AperFunction,ComponentPad*%
%ADD12O,1.700000X1.700000*%
%TD*%
%TA.AperFunction,ComponentPad*%
%ADD13R,1.600000X1.600000*%
%TD*%
%TA.AperFunction,ComponentPad*%
%ADD14C,1.600000*%
%TD*%
%TA.AperFunction,ComponentPad*%
%ADD15C,3.000000*%
%TD*%
%TA.AperFunction,ComponentPad*%
%ADD16C,1.700000*%
%TD*%
%TA.AperFunction,ComponentPad*%
%ADD17R,1.350000X1.350000*%
%TD*%
%TA.AperFunction,ComponentPad*%
%ADD18C,4.000000*%
%TD*%
%TA.AperFunction,ComponentPad*%
%ADD19C,3.048000*%
%TD*%
%TA.AperFunction,ComponentPad*%
%ADD20C,1.270000*%
%TD*%
%TA.AperFunction,Conductor*%
%ADD21C,0.200000*%
%TD*%
G04 APERTURE END LIST*
D10*
%TO.P,U6,*%
%TO.N,*%
X132006000Y-122878000D03*
X138806000Y-134678000D03*
%TO.P,U6,1,no*%
%TO.N,unconnected-(U6-no-Pad1)*%
X133906000Y-125578000D03*
%TO.P,U6,2,no*%
%TO.N,Net-(U3-GND_IN)*%
X136906000Y-125578000D03*
%TO.P,U6,3,nc*%
%TO.N,unconnected-(U6-nc-Pad3)*%
X133906000Y-128778000D03*
%TO.P,U6,4,nc*%
%TO.N,Net-(U3-ON{slash}OFF)*%
X136906000Y-128778000D03*
%TO.P,U6,5,nc*%
%TO.N,unconnected-(U6-nc-Pad5)*%
X133906000Y-131978000D03*
%TO.P,U6,6,nc*%
%TO.N,unconnected-(U6-nc-Pad6)*%
X136906000Y-131978000D03*
%TD*%
D11*
%TO.P,Oled_screen1,1,VCC*%
%TO.N,Net-(ESP32-WROOM-32U1-3.3v)*%
X217764500Y-89926000D03*
D12*
%TO.P,Oled_screen1,2,GND*%
%TO.N,Net-(MPU1-GND)*%
X217764500Y-92466000D03*
%TO.P,Oled_screen1,3,SCK*%
%TO.N,Net-(ESP32-WROOM-32U1-SCL{slash}22)*%
X217764500Y-95006000D03*
%TO.P,Oled_screen1,4,SDA*%
%TO.N,Net-(ESP32-WROOM-32U1-SDA{slash}21)*%
X217764500Y-97546000D03*
%TD*%
D10*
%TO.P,U2,1,DATA*%
%TO.N,Net-(ESP32-WROOM-32U1-MISO{slash}19)*%
X123267500Y-110387625D03*
%TO.P,U2,2,CMD*%
%TO.N,Net-(ESP32-WROOM-32U1-MOSI{slash}23)*%
X123267500Y-106387625D03*
%TO.P,U2,3,MOTOR*%
%TO.N,unconnected-(U2-MOTOR-Pad3)*%
X123267500Y-102387625D03*
%TO.P,U2,4,GND*%
%TO.N,Net-(MPU1-GND)*%
X123267500Y-98387625D03*
%TO.P,U2,5,3.3V*%
%TO.N,Net-(ESP32-WROOM-32U1-3.3v)*%
X123267500Y-94387625D03*
%TO.P,U2,6,ATTN*%
%TO.N,Net-(ESP32-WROOM-32U1-SS{slash}5)*%
X123267500Y-90387625D03*
%TO.P,U2,7,CLK*%
%TO.N,Net-(ESP32-WROOM-32U1-SCK{slash}18)*%
X123267500Y-86387625D03*
%TO.P,U2,8,NC*%
%TO.N,unconnected-(U2-NC-Pad8)*%
X123267500Y-82387625D03*
%TO.P,U2,9,ACK*%
%TO.N,unconnected-(U2-ACK-Pad9)*%
X123267500Y-78387625D03*
%TD*%
D11*
%TO.P,U3,1,VOUT*%
%TO.N,Net-(J1-VBUS)*%
X173174000Y-122419500D03*
D12*
%TO.P,U3,2,GND_OUT*%
%TO.N,Net-(J1-GND)*%
X173174000Y-124959500D03*
%TO.P,U3,3,BAT_POSITIVE*%
%TO.N,Net-(U3-BAT_POSITIVE)*%
X173174000Y-127499500D03*
%TO.P,U3,4,BAT_GND*%
%TO.N,Net-(U3-BAT_GND)*%
X173174000Y-130039500D03*
%TO.P,U3,5,GND_IN*%
%TO.N,Net-(U3-GND_IN)*%
X173174000Y-132579500D03*
%TO.P,U3,6,VIN*%
%TO.N,Net-(U3-VIN)*%
X173174000Y-135119500D03*
%TD*%
D13*
%TO.P,C1,1*%
%TO.N,Net-(ESP32-WROOM-32U1-3.3v)*%
X191516000Y-82675349D03*
D14*
%TO.P,C1,2*%
%TO.N,Net-(MPU1-GND)*%
X191516000Y-86175349D03*
%TD*%
D15*
%TO.P,U4,*%
%TO.N,*%
X108288000Y-120206000D03*
X108288000Y-132246000D03*
D16*
%TO.P,U4,1,data-*%
%TO.N,Net-(J1-D-)*%
X112998000Y-124976000D03*
%TO.P,U4,2,data+*%
%TO.N,Net-(J1-D+)*%
X110998000Y-124976000D03*
%TO.P,U4,3,GND*%
%TO.N,Net-(U3-GND_IN)*%
X110998000Y-127476000D03*
%TO.P,U4,4,VIN*%
%TO.N,Net-(U3-VIN)*%
X112998000Y-127476000D03*
%TD*%
%TO.P,REF\u002A\u002A,*%
%TO.N,*%
X224047000Y-116576000D03*
X218947000Y-116576000D03*
X224047000Y-121676000D03*
X218947000Y-121676000D03*
%TO.P,REF\u002A\u002A,1*%
%TO.N,N/C*%
X221497000Y-119126000D03*
%TD*%
D11*
%TO.P,NRF1,*%
%TO.N,*%
X223078000Y-61946000D03*
D12*
X223078000Y-64486000D03*
X223078000Y-67026000D03*
X223078000Y-69566000D03*
X223078000Y-72106000D03*
X223078000Y-74646000D03*
D11*
%TO.P,NRF1,1,GND*%
%TO.N,Net-(MPU1-GND)*%
X185340000Y-64486000D03*
D16*
%TO.P,NRF1,2,VCC*%
%TO.N,Net-(ESP32-WROOM-32U1-3.3v)*%
X187880000Y-64486000D03*
%TO.P,NRF1,3,CE*%
%TO.N,Net-(ESP32-WROOM-32U1-16)*%
X185340000Y-67026000D03*
%TO.P,NRF1,4,~{CSN}*%
%TO.N,Net-(ESP32-WROOM-32U1-17)*%
X187880000Y-67026000D03*
%TO.P,NRF1,5,SCK*%
%TO.N,Net-(ESP32-WROOM-32U1-SCK{slash}18)*%
X185340000Y-69566000D03*
%TO.P,NRF1,6,MOSI*%
%TO.N,Net-(ESP32-WROOM-32U1-MOSI{slash}23)*%
X187880000Y-69566000D03*
%TO.P,NRF1,7,MISO*%
%TO.N,Net-(ESP32-WROOM-32U1-MISO{slash}19)*%
X185340000Y-72106000D03*
%TO.P,NRF1,8,IRQ*%
%TO.N,unconnected-(NRF1-IRQ-Pad8)*%
X187880000Y-72106000D03*
%TD*%
D11*
%TO.P,J1,1,VBUS*%
%TO.N,Net-(J1-VBUS)*%
X127254000Y-117602000D03*
D12*
%TO.P,J1,2,D-*%
%TO.N,Net-(J1-D-)*%
X124714000Y-117602000D03*
%TO.P,J1,3,D+*%
%TO.N,Net-(J1-D+)*%
X122174000Y-117602000D03*
%TO.P,J1,4,GND*%
%TO.N,Net-(J1-GND)*%
X119634000Y-117602000D03*
%TD*%
D13*
%TO.P,C2,1*%
%TO.N,Net-(ESP32-WROOM-32U1-3.3v)*%
X201516000Y-82675349D03*
D14*
%TO.P,C2,2*%
%TO.N,Net-(MPU1-GND)*%
X201516000Y-86175349D03*
%TD*%
D17*
%TO.P,SMA ANTENNA,1*%
%TO.N,N/C*%
X211488000Y-119126000D03*
%TD*%
D18*
%TO.P,U5,1,BAT_+*%
%TO.N,Net-(U3-BAT_POSITIVE)*%
X138556000Y-103886000D03*
%TO.P,U5,2,BAT_-*%
%TO.N,Net-(U3-BAT_GND)*%
X211456000Y-103886000D03*
%TD*%
D11*
%TO.P,MPU1,1,VCC*%
%TO.N,Net-(ESP32-WROOM-32U1-3.3v)*%
X203349000Y-122174000D03*
D12*
%TO.P,MPU1,2,GND*%
%TO.N,Net-(MPU1-GND)*%
X200809000Y-122174000D03*
%TO.P,MPU1,3,SCL*%
%TO.N,Net-(ESP32-WROOM-32U1-SCL{slash}22)*%
X198269000Y-122174000D03*
%TO.P,MPU1,4,SDA*%
%TO.N,Net-(ESP32-WROOM-32U1-SDA{slash}21)*%
X195729000Y-122174000D03*
%TO.P,MPU1,5,EDA*%
%TO.N,unconnected-(MPU1-EDA-Pad5)*%
X193189000Y-122174000D03*
%TO.P,MPU1,6,ECL*%
%TO.N,unconnected-(MPU1-ECL-Pad6)*%
X190649000Y-122174000D03*
%TO.P,MPU1,7,ADO*%
%TO.N,unconnected-(MPU1-ADO-Pad7)*%
X188109000Y-122174000D03*
%TO.P,MPU1,8,INT*%
%TO.N,unconnected-(MPU1-INT-Pad8)*%
X185569000Y-122174000D03*
%TO.P,MPU1,9,NCS*%
%TO.N,unconnected-(MPU1-NCS-Pad9)*%
X183029000Y-122174000D03*
%TO.P,MPU1,10,FSYNC*%
%TO.N,unconnected-(MPU1-FSYNC-Pad10)*%
X180489000Y-122174000D03*
%TD*%
D13*
%TO.P,C3,1*%
%TO.N,Net-(ESP32-WROOM-32U1-3.3v)*%
X211516000Y-82675349D03*
D14*
%TO.P,C3,2*%
%TO.N,Net-(MPU1-GND)*%
X211516000Y-86175349D03*
%TD*%
D11*
%TO.P,ESP32-WROOM-32U1,1,3.3v*%
%TO.N,Net-(ESP32-WROOM-32U1-3.3v)*%
X134874000Y-89836000D03*
X134874000Y-84836000D03*
D12*
%TO.P,ESP32-WROOM-32U1,2,EN*%
%TO.N,unconnected-(ESP32-WROOM-32U1-EN-Pad2)*%
X137414000Y-89836000D03*
X137414000Y-84836000D03*
%TO.P,ESP32-WROOM-32U1,3,VP*%
%TO.N,unconnected-(ESP32-WROOM-32U1-VP-Pad3)*%
X139954000Y-89836000D03*
X139954000Y-84836000D03*
%TO.P,ESP32-WROOM-32U1,4,VN*%
%TO.N,unconnected-(ESP32-WROOM-32U1-VN-Pad4)*%
X142494000Y-89836000D03*
X142494000Y-84836000D03*
%TO.P,ESP32-WROOM-32U1,5,34*%
%TO.N,unconnected-(ESP32-WROOM-32U1-34-Pad5)*%
X145034000Y-89836000D03*
X145034000Y-84836000D03*
%TO.P,ESP32-WROOM-32U1,6,35*%
%TO.N,unconnected-(ESP32-WROOM-32U1-35-Pad6)*%
X147574000Y-89836000D03*
X147574000Y-84836000D03*
%TO.P,ESP32-WROOM-32U1,7,32*%
%TO.N,unconnected-(ESP32-WROOM-32U1-32-Pad7)*%
X150114000Y-89836000D03*
X150114000Y-84836000D03*
%TO.P,ESP32-WROOM-32U1,8,33*%
%TO.N,unconnected-(ESP32-WROOM-32U1-33-Pad8)*%
X152654000Y-89836000D03*
X152654000Y-84836000D03*
%TO.P,ESP32-WROOM-32U1,9,25*%
%TO.N,unconnected-(ESP32-WROOM-32U1-25-Pad9)*%
X155194000Y-89836000D03*
X155194000Y-84836000D03*
%TO.P,ESP32-WROOM-32U1,10,26*%
%TO.N,unconnected-(ESP32-WROOM-32U1-26-Pad10)*%
X157734000Y-89836000D03*
X157734000Y-84836000D03*
%TO.P,ESP32-WROOM-32U1,11,27*%
%TO.N,unconnected-(ESP32-WROOM-32U1-27-Pad11)*%
X160274000Y-89836000D03*
X160274000Y-84836000D03*
%TO.P,ESP32-WROOM-32U1,12,14*%
%TO.N,unconnected-(ESP32-WROOM-32U1-14-Pad12)*%
X162814000Y-89836000D03*
X162814000Y-84836000D03*
%TO.P,ESP32-WROOM-32U1,13,12*%
%TO.N,unconnected-(ESP32-WROOM-32U1-12-Pad13)*%
X165354000Y-89836000D03*
X165354000Y-84836000D03*
%TO.P,ESP32-WROOM-32U1,14,GND*%
%TO.N,unconnected-(ESP32-WROOM-32U1-GND-Pad14)*%
X167894000Y-89836000D03*
X167894000Y-84836000D03*
%TO.P,ESP32-WROOM-32U1,15,13*%
%TO.N,unconnected-(ESP32-WROOM-32U1-13-Pad15)*%
X170434000Y-89836000D03*
X170434000Y-84836000D03*
%TO.P,ESP32-WROOM-32U1,16,D2*%
%TO.N,unconnected-(ESP32-WROOM-32U1-D2-Pad16)*%
X172974000Y-89836000D03*
X172974000Y-84836000D03*
%TO.P,ESP32-WROOM-32U1,17,D3*%
%TO.N,unconnected-(ESP32-WROOM-32U1-D3-Pad17)*%
X175514000Y-89836000D03*
X175514000Y-84836000D03*
%TO.P,ESP32-WROOM-32U1,18,CMD*%
%TO.N,unconnected-(ESP32-WROOM-32U1-CMD-Pad18)*%
X178054000Y-89836000D03*
X178054000Y-84836000D03*
%TO.P,ESP32-WROOM-32U1,19,5V*%
%TO.N,unconnected-(ESP32-WROOM-32U1-5V-Pad19)*%
X180594000Y-89836000D03*
X180594000Y-84836000D03*
D11*
%TO.P,ESP32-WROOM-32U1,20,GND*%
%TO.N,Net-(MPU1-GND)*%
X134874000Y-56896000D03*
X134874000Y-51896000D03*
D12*
%TO.P,ESP32-WROOM-32U1,21,MOSI/23*%
%TO.N,Net-(ESP32-WROOM-32U1-MOSI{slash}23)*%
X137414000Y-56896000D03*
X137414000Y-51896000D03*
%TO.P,ESP32-WROOM-32U1,22,SCL/22*%
%TO.N,Net-(ESP32-WROOM-32U1-SCL{slash}22)*%
X139954000Y-56896000D03*
X139954000Y-51896000D03*
%TO.P,ESP32-WROOM-32U1,23,TX*%
%TO.N,unconnected-(ESP32-WROOM-32U1-TX-Pad23)*%
X142494000Y-56896000D03*
X142494000Y-51896000D03*
%TO.P,ESP32-WROOM-32U1,24,RX*%
%TO.N,unconnected-(ESP32-WROOM-32U1-RX-Pad24)*%
X145034000Y-56896000D03*
X145034000Y-51896000D03*
%TO.P,ESP32-WROOM-32U1,25,SDA/21*%
%TO.N,Net-(ESP32-WROOM-32U1-SDA{slash}21)*%
X147574000Y-56896000D03*
X147574000Y-51896000D03*
%TO.P,ESP32-WROOM-32U1,26,GND*%
%TO.N,unconnected-(ESP32-WROOM-32U1-GND-Pad26)*%
X150114000Y-56896000D03*
X150114000Y-51896000D03*
%TO.P,ESP32-WROOM-32U1,27,MISO/19*%
%TO.N,Net-(ESP32-WROOM-32U1-MISO{slash}19)*%
X152654000Y-56896000D03*
X152654000Y-51896000D03*
%TO.P,ESP32-WROOM-32U1,28,SCK/18*%
%TO.N,Net-(ESP32-WROOM-32U1-SCK{slash}18)*%
X155194000Y-56896000D03*
X155194000Y-51896000D03*
%TO.P,ESP32-WROOM-32U1,29,SS/5*%
%TO.N,Net-(ESP32-WROOM-32U1-SS{slash}5)*%
X157734000Y-56896000D03*
X157734000Y-51896000D03*
%TO.P,ESP32-WROOM-32U1,30,17*%
%TO.N,Net-(ESP32-WROOM-32U1-17)*%
X160274000Y-56896000D03*
X160274000Y-51896000D03*
%TO.P,ESP32-WROOM-32U1,31,16*%
%TO.N,Net-(ESP32-WROOM-32U1-16)*%
X162814000Y-56896000D03*
X162814000Y-51896000D03*
%TO.P,ESP32-WROOM-32U1,32,4*%
%TO.N,unconnected-(ESP32-WROOM-32U1-4-Pad32)*%
X165354000Y-56896000D03*
X165354000Y-51896000D03*
%TO.P,ESP32-WROOM-32U1,33,0*%
%TO.N,unconnected-(ESP32-WROOM-32U1-0-Pad33)*%
X167894000Y-56896000D03*
X167894000Y-51896000D03*
%TO.P,ESP32-WROOM-32U1,34,2*%
%TO.N,unconnected-(ESP32-WROOM-32U1-2-Pad34)*%
X170434000Y-56896000D03*
X170434000Y-51896000D03*
%TO.P,ESP32-WROOM-32U1,35,15*%
%TO.N,unconnected-(ESP32-WROOM-32U1-15-Pad35)*%
X172974000Y-56896000D03*
X172974000Y-51896000D03*
%TO.P,ESP32-WROOM-32U1,36,D1*%
%TO.N,unconnected-(ESP32-WROOM-32U1-D1-Pad36)*%
X175514000Y-56896000D03*
X175514000Y-51896000D03*
%TO.P,ESP32-WROOM-32U1,37,D0*%
%TO.N,unconnected-(ESP32-WROOM-32U1-D0-Pad37)*%
X178054000Y-56896000D03*
X178054000Y-51896000D03*
%TO.P,ESP32-WROOM-32U1,38,CLK*%
%TO.N,unconnected-(ESP32-WROOM-32U1-CLK-Pad38)*%
X180594000Y-56896000D03*
X180594000Y-51896000D03*
%TD*%
D19*
%TO.P,U1,*%
%TO.N,*%
X103378000Y-67576000D03*
X108712000Y-67576000D03*
X103378000Y-54876000D03*
X108712000Y-54876000D03*
D20*
%TO.P,U1,1,VCC_3.3V*%
%TO.N,Net-(ESP32-WROOM-32U1-3.3v)*%
X111506000Y-59321000D03*
%TO.P,U1,2,SCL*%
%TO.N,Net-(ESP32-WROOM-32U1-SCL{slash}22)*%
X109601000Y-59321000D03*
%TO.P,U1,3,Detect_device*%
%TO.N,unconnected-(U1-Detect_device-Pad3)*%
X111506000Y-61226000D03*
%TO.P,U1,4,NC*%
%TO.N,unconnected-(U1-NC-Pad4)*%
X109601000Y-61226000D03*
%TO.P,U1,5,SDA*%
%TO.N,Net-(ESP32-WROOM-32U1-SDA{slash}21)*%
X111506000Y-63131000D03*
%TO.P,U1,6,GND*%
%TO.N,Net-(MPU1-GND)*%
X109601000Y-63131000D03*
%TD*%
D11*
%TO.P,TP1,1,1*%
%TO.N,Net-(U3-ON{slash}OFF)*%
X144906000Y-128778000D03*
%TD*%
D21*
%TO.N,Net-(ESP32-WROOM-32U1-SS{slash}5)*%
X157734000Y-51896000D02*
X157734000Y-56896000D01*
%TO.N,Net-(ESP32-WROOM-32U1-MISO{slash}19)*%
X136144000Y-97511125D02*
X136144000Y-73406000D01*
X136144000Y-73406000D02*
X152654000Y-56896000D01*
X167864000Y-72106000D02*
X152654000Y-56896000D01*
X185340000Y-72106000D02*
X167864000Y-72106000D01*
X123267500Y-110387625D02*
X136144000Y-97511125D01*
%TO.N,Net-(ESP32-WROOM-32U1-SDA{slash}21)*%
X147574000Y-51896000D02*
X148824000Y-50646000D01*
X219202000Y-96108500D02*
X217764500Y-97546000D01*
X219202000Y-87961349D02*
X219202000Y-96108500D01*
X181886651Y-50646000D02*
X219202000Y-87961349D01*
X148824000Y-50646000D02*
X181886651Y-50646000D01*
%TO.N,Net-(MPU1-GND)*%
X188458000Y-63236000D02*
X192716000Y-67494000D01*
X211516000Y-86217500D02*
X211516000Y-86175349D01*
X192716000Y-67494000D02*
X192716000Y-84975349D01*
X192716000Y-84975349D02*
X191516000Y-86175349D01*
X186590000Y-63236000D02*
X188458000Y-63236000D01*
X185340000Y-64486000D02*
X186590000Y-63236000D01*
X217764500Y-92466000D02*
X211516000Y-86217500D01*
%TO.N,Net-(ESP32-WROOM-32U1-3.3v)*%
X121412000Y-92532125D02*
X121412000Y-69227000D01*
X121412000Y-69227000D02*
X111506000Y-59321000D01*
X123267500Y-94387625D02*
X121412000Y-92532125D01*
%TO.N,Net-(ESP32-WROOM-32U1-MOSI{slash}23)*%
X153904000Y-56368000D02*
X150682000Y-53146000D01*
X150682000Y-53146000D02*
X138664000Y-53146000D01*
X186630000Y-70816000D02*
X167306233Y-70816000D01*
X153904000Y-57413767D02*
X153904000Y-56368000D01*
X187880000Y-69566000D02*
X186630000Y-70816000D01*
X167306233Y-70816000D02*
X153904000Y-57413767D01*
X138664000Y-53146000D02*
X137414000Y-51896000D01*
X133624000Y-60686000D02*
X137414000Y-56896000D01*
X123267500Y-106387625D02*
X133624000Y-96031125D01*
X133624000Y-96031125D02*
X133624000Y-60686000D01*
%TO.N,Net-(U3-BAT_POSITIVE)*%
X162169500Y-127499500D02*
X138556000Y-103886000D01*
X173174000Y-127499500D02*
X162169500Y-127499500D01*
%TO.N,Net-(U3-BAT_GND)*%
X176784000Y-126429500D02*
X176784000Y-116586000D01*
X173174000Y-130039500D02*
X176784000Y-126429500D01*
X189484000Y-103886000D02*
X176784000Y-116586000D01*
X211456000Y-103886000D02*
X189484000Y-103886000D01*
%TO.N,Net-(U3-ON{slash}OFF)*%
X144906000Y-128778000D02*
X144906000Y-129158000D01*
%TD*%
M02*
