M48
; DRILL file {KiCad 8.0.3} date 2024-06-22T19:33:58+0200
; FORMAT={-:-/ absolute / inch / decimal}
; #@! TF.CreationDate,2024-06-22T19:33:58+02:00
; #@! TF.GenerationSoftware,Kicad,Pcbnew,8.0.3
; #@! TF.FileFunction,Plated,1,2,PTH
FMAT,2
INCH
; #@! TA.AperFunction,Plated,PTH,ComponentDrill
T1C0.0250
; #@! TA.AperFunction,Plated,PTH,ComponentDrill
T2C0.0315
; #@! TA.AperFunction,Plated,PTH,ComponentDrill
T3C0.0394
; #@! TA.AperFunction,Plated,PTH,ComponentDrill
T4C0.0472
; #@! TA.AperFunction,Plated,PTH,ComponentDrill
T5C0.0512
; #@! TA.AperFunction,Plated,PTH,ComponentDrill
T6C0.0750
; #@! TA.AperFunction,Plated,PTH,ComponentDrill
T7C0.0787
; #@! TA.AperFunction,Plated,PTH,ComponentDrill
T8C0.0945
%
G90
G05
T1
X4.315Y-2.3355
X4.315Y-2.4105
X4.315Y-2.4855
X4.39Y-2.3355
X4.39Y-2.4105
X4.39Y-2.4855
T2
X7.54Y-3.2549
X7.54Y-3.3927
X7.9337Y-3.2549
X7.9337Y-3.3927
X8.3263Y-4.69
X8.3274Y-3.2549
X8.3274Y-3.3927
T3
X4.37Y-4.9203
X4.37Y-5.0187
X4.4487Y-4.9203
X4.4487Y-5.0187
X4.71Y-4.63
X4.81Y-4.63
X4.91Y-4.63
X5.01Y-4.63
X5.31Y-2.0431
X5.31Y-2.24
X5.31Y-3.34
X5.31Y-3.5369
X5.41Y-2.0431
X5.41Y-2.24
X5.41Y-3.34
X5.41Y-3.5369
X5.51Y-2.0431
X5.51Y-2.24
X5.51Y-3.34
X5.51Y-3.5369
X5.61Y-2.0431
X5.61Y-2.24
X5.61Y-3.34
X5.61Y-3.5369
X5.705Y-5.07
X5.71Y-2.0431
X5.71Y-2.24
X5.71Y-3.34
X5.71Y-3.5369
X5.81Y-2.0431
X5.81Y-2.24
X5.81Y-3.34
X5.81Y-3.5369
X5.91Y-2.0431
X5.91Y-2.24
X5.91Y-3.34
X5.91Y-3.5369
X6.01Y-2.0431
X6.01Y-2.24
X6.01Y-3.34
X6.01Y-3.5369
X6.11Y-2.0431
X6.11Y-2.24
X6.11Y-3.34
X6.11Y-3.5369
X6.21Y-2.0431
X6.21Y-2.24
X6.21Y-3.34
X6.21Y-3.5369
X6.31Y-2.0431
X6.31Y-2.24
X6.31Y-3.34
X6.31Y-3.5369
X6.41Y-2.0431
X6.41Y-2.24
X6.41Y-3.34
X6.41Y-3.5369
X6.51Y-2.0431
X6.51Y-2.24
X6.51Y-3.34
X6.51Y-3.5369
X6.61Y-2.0431
X6.61Y-2.24
X6.61Y-3.34
X6.61Y-3.5369
X6.71Y-2.0431
X6.71Y-2.24
X6.71Y-3.34
X6.71Y-3.5369
X6.81Y-2.0431
X6.81Y-2.24
X6.81Y-3.34
X6.81Y-3.5369
X6.8179Y-4.8197
X6.8179Y-4.9197
X6.8179Y-5.0197
X6.8179Y-5.1197
X6.8179Y-5.2197
X6.8179Y-5.3197
X6.91Y-2.0431
X6.91Y-2.24
X6.91Y-3.34
X6.91Y-3.5369
X7.01Y-2.0431
X7.01Y-2.24
X7.01Y-3.34
X7.01Y-3.5369
X7.1059Y-4.81
X7.11Y-2.0431
X7.11Y-2.24
X7.11Y-3.34
X7.11Y-3.5369
X7.2059Y-4.81
X7.2969Y-2.5388
X7.2969Y-2.6388
X7.2969Y-2.7388
X7.2969Y-2.8388
X7.3059Y-4.81
X7.3969Y-2.5388
X7.3969Y-2.6388
X7.3969Y-2.7388
X7.3969Y-2.8388
X7.4059Y-4.81
X7.5059Y-4.81
X7.6059Y-4.81
X7.7059Y-4.81
X7.8059Y-4.81
X7.9059Y-4.81
X8.0059Y-4.81
X8.5734Y-3.5404
X8.5734Y-3.6404
X8.5734Y-3.7404
X8.5734Y-3.8404
X8.62Y-4.5896
X8.62Y-4.7904
X8.7204Y-4.69
X8.7826Y-2.4388
X8.7826Y-2.5388
X8.7826Y-2.6388
X8.7826Y-2.7388
X8.7826Y-2.8388
X8.7826Y-2.9388
X8.8207Y-4.5896
X8.8207Y-4.7904
T4
X4.8531Y-3.0861
X4.8531Y-3.2436
X4.8531Y-3.4011
X4.8531Y-3.5586
X4.8531Y-3.716
X4.8531Y-3.8735
X4.8531Y-4.031
X4.8531Y-4.1885
X4.8531Y-4.346
T5
X5.1971Y-4.8377
X5.2719Y-4.944
X5.2719Y-5.07
X5.2719Y-5.196
X5.39Y-4.944
X5.39Y-5.07
X5.39Y-5.196
X5.4648Y-5.3023
T6
X4.07Y-2.1605
X4.07Y-2.6605
X4.28Y-2.1605
X4.28Y-2.6605
T7
X5.455Y-4.09
X8.325Y-4.09
T8
X4.2633Y-4.7325
X4.2633Y-5.2065
M30
