%TF.GenerationSoftware,KiCad,Pcbnew,8.0.3*%
%TF.CreationDate,2024-06-28T16:04:17+02:00*%
%TF.ProjectId,3.3v radio with battery,332e3376-2072-4616-9469-6f2077697468,rev?*%
%TF.SameCoordinates,Original*%
%TF.FileFunction,Soldermask,Bot*%
%TF.FilePolarity,Negative*%
%FSLAX46Y46*%
G04 Gerber Fmt 4.6, Leading zero omitted, Abs format (unit mm)*
G04 Created by KiCad (PCBNEW 8.0.3) date 2024-06-28 16:04:17*
%MOMM*%
%LPD*%
G01*
G04 APERTURE LIST*
%ADD10C,2.000000*%
%ADD11R,1.700000X1.700000*%
%ADD12O,1.700000X1.700000*%
%ADD13C,3.200000*%
%ADD14R,1.600000X1.600000*%
%ADD15C,1.600000*%
%ADD16C,3.000000*%
%ADD17C,1.700000*%
%ADD18R,1.350000X1.350000*%
%ADD19C,4.000000*%
%ADD20C,2.700000*%
%ADD21C,3.048000*%
%ADD22C,1.270000*%
G04 APERTURE END LIST*
D10*
%TO.C,U6*%
X106606000Y-121964000D03*
X113406000Y-133764000D03*
X108506000Y-124664000D03*
X111506000Y-124664000D03*
X108506000Y-127864000D03*
X111506000Y-127864000D03*
X108506000Y-131064000D03*
X111506000Y-131064000D03*
%TD*%
D11*
%TO.C,Oled_screen1*%
X217764500Y-89926000D03*
D12*
X217764500Y-92466000D03*
X217764500Y-95006000D03*
X217764500Y-97546000D03*
%TD*%
D10*
%TO.C,U2*%
X95581500Y-110387625D03*
X95581500Y-106387625D03*
X95581500Y-102387625D03*
X95581500Y-98387625D03*
X95581500Y-94387625D03*
X95581500Y-90387625D03*
X95581500Y-86387625D03*
X95581500Y-82387625D03*
X95581500Y-78387625D03*
%TD*%
D13*
%TO.C,REF\u002A\u002A*%
X222250000Y-53975000D03*
%TD*%
D11*
%TO.C,U3*%
X156194000Y-120912500D03*
D12*
X156194000Y-123452500D03*
X156194000Y-125992500D03*
X156194000Y-128532500D03*
X156194000Y-131072500D03*
X156194000Y-133612500D03*
%TD*%
D14*
%TO.C,C1*%
X191516000Y-82675349D03*
D15*
X191516000Y-86175349D03*
%TD*%
D16*
%TO.C,U4*%
X80602000Y-120206000D03*
X80602000Y-132246000D03*
D17*
X85312000Y-124976000D03*
X83312000Y-124976000D03*
X83312000Y-127476000D03*
X85312000Y-127476000D03*
%TD*%
D13*
%TO.C,GPS1*%
X106890000Y-88248000D03*
X127390000Y-88248000D03*
X106890000Y-57548000D03*
X127390000Y-57548000D03*
D11*
X120950000Y-89148000D03*
D12*
X118410000Y-89148000D03*
X115870000Y-89148000D03*
X113330000Y-89148000D03*
%TD*%
D17*
%TO.C,REF\u002A\u002A*%
X224047000Y-116576000D03*
X218947000Y-116576000D03*
X224047000Y-121676000D03*
X218947000Y-121676000D03*
X221497000Y-119126000D03*
%TD*%
D11*
%TO.C,NRF1*%
X223078000Y-61946000D03*
D12*
X223078000Y-64486000D03*
X223078000Y-67026000D03*
X223078000Y-69566000D03*
X223078000Y-72106000D03*
X223078000Y-74646000D03*
D11*
X185340000Y-64486000D03*
D17*
X187880000Y-64486000D03*
X185340000Y-67026000D03*
X187880000Y-67026000D03*
X185340000Y-69566000D03*
X187880000Y-69566000D03*
X185340000Y-72106000D03*
X187880000Y-72106000D03*
%TD*%
D13*
%TO.C,REF\u002A\u002A*%
X222250000Y-133477000D03*
%TD*%
D11*
%TO.C,J1*%
X99568000Y-118110000D03*
D12*
X97028000Y-118110000D03*
X94488000Y-118110000D03*
X91948000Y-118110000D03*
%TD*%
D14*
%TO.C,C2*%
X201516000Y-82675349D03*
D15*
X201516000Y-86175349D03*
%TD*%
D18*
%TO.C,SMA ANTENNA*%
X211488000Y-119126000D03*
%TD*%
D19*
%TO.C,U5*%
X137794000Y-103886000D03*
X210694000Y-103886000D03*
%TD*%
D20*
%TO.C,MPU1*%
X193294000Y-133604000D03*
X171450000Y-133604000D03*
D11*
X193751000Y-121666000D03*
D12*
X191211000Y-121666000D03*
X188671000Y-121666000D03*
X186131000Y-121666000D03*
X183591000Y-121666000D03*
X181051000Y-121666000D03*
X178511000Y-121666000D03*
X175971000Y-121666000D03*
X173431000Y-121666000D03*
X170891000Y-121666000D03*
%TD*%
D14*
%TO.C,C3*%
X211516000Y-82675349D03*
D15*
X211516000Y-86175349D03*
%TD*%
D11*
%TO.C,ESP32-WROOM-32U1*%
X134874000Y-89836000D03*
X134874000Y-84836000D03*
D12*
X137414000Y-89836000D03*
X137414000Y-84836000D03*
X139954000Y-89836000D03*
X139954000Y-84836000D03*
X142494000Y-89836000D03*
X142494000Y-84836000D03*
X145034000Y-89836000D03*
X145034000Y-84836000D03*
X147574000Y-89836000D03*
X147574000Y-84836000D03*
X150114000Y-89836000D03*
X150114000Y-84836000D03*
X152654000Y-89836000D03*
X152654000Y-84836000D03*
X155194000Y-89836000D03*
X155194000Y-84836000D03*
X157734000Y-89836000D03*
X157734000Y-84836000D03*
X160274000Y-89836000D03*
X160274000Y-84836000D03*
X162814000Y-89836000D03*
X162814000Y-84836000D03*
X165354000Y-89836000D03*
X165354000Y-84836000D03*
X167894000Y-89836000D03*
X167894000Y-84836000D03*
X170434000Y-89836000D03*
X170434000Y-84836000D03*
X172974000Y-89836000D03*
X172974000Y-84836000D03*
X175514000Y-89836000D03*
X175514000Y-84836000D03*
X178054000Y-89836000D03*
X178054000Y-84836000D03*
X180594000Y-89836000D03*
X180594000Y-84836000D03*
D11*
X134874000Y-56896000D03*
X134874000Y-51896000D03*
D12*
X137414000Y-56896000D03*
X137414000Y-51896000D03*
X139954000Y-56896000D03*
X139954000Y-51896000D03*
X142494000Y-56896000D03*
X142494000Y-51896000D03*
X145034000Y-56896000D03*
X145034000Y-51896000D03*
X147574000Y-56896000D03*
X147574000Y-51896000D03*
X150114000Y-56896000D03*
X150114000Y-51896000D03*
X152654000Y-56896000D03*
X152654000Y-51896000D03*
X155194000Y-56896000D03*
X155194000Y-51896000D03*
X157734000Y-56896000D03*
X157734000Y-51896000D03*
X160274000Y-56896000D03*
X160274000Y-51896000D03*
X162814000Y-56896000D03*
X162814000Y-51896000D03*
X165354000Y-56896000D03*
X165354000Y-51896000D03*
X167894000Y-56896000D03*
X167894000Y-51896000D03*
X170434000Y-56896000D03*
X170434000Y-51896000D03*
X172974000Y-56896000D03*
X172974000Y-51896000D03*
X175514000Y-56896000D03*
X175514000Y-51896000D03*
X178054000Y-56896000D03*
X178054000Y-51896000D03*
X180594000Y-56896000D03*
X180594000Y-51896000D03*
%TD*%
D13*
%TO.C,U7*%
X122340000Y-111098000D03*
X111940000Y-111098000D03*
D11*
X123490000Y-102648000D03*
D12*
X120950000Y-102648000D03*
X118410000Y-102648000D03*
X115870000Y-102648000D03*
X113330000Y-102648000D03*
X110790000Y-102648000D03*
%TD*%
D13*
%TO.C,REF\u002A\u002A*%
X96520000Y-58726000D03*
%TD*%
%TO.C,REF\u002A\u002A*%
X96520000Y-128726000D03*
%TD*%
D21*
%TO.C,U1*%
X75692000Y-67576000D03*
X81026000Y-67576000D03*
X75692000Y-54876000D03*
X81026000Y-54876000D03*
D22*
X83820000Y-59321000D03*
X81915000Y-59321000D03*
X83820000Y-61226000D03*
X81915000Y-61226000D03*
X83820000Y-63131000D03*
X81915000Y-63131000D03*
%TD*%
D11*
%TO.C,TP1*%
X121506000Y-127864000D03*
%TD*%
M02*
