M48
; DRILL file {KiCad 8.0.3} date 2024-06-28T16:04:19+0200
; FORMAT={-:-/ absolute / inch / decimal}
; #@! TF.CreationDate,2024-06-28T16:04:19+02:00
; #@! TF.GenerationSoftware,Kicad,Pcbnew,8.0.3
; #@! TF.FileFunction,Plated,1,2,PTH
FMAT,2
INCH
; #@! TA.AperFunction,Plated,PTH,ComponentDrill
T1C0.0250
; #@! TA.AperFunction,Plated,PTH,ComponentDrill
T2C0.0315
; #@! TA.AperFunction,Plated,PTH,ComponentDrill
T3C0.0394
; #@! TA.AperFunction,Plated,PTH,ComponentDrill
T4C0.0472
; #@! TA.AperFunction,Plated,PTH,ComponentDrill
T5C0.0512
; #@! TA.AperFunction,Plated,PTH,ComponentDrill
T6C0.0750
; #@! TA.AperFunction,Plated,PTH,ComponentDrill
T7C0.0787
; #@! TA.AperFunction,Plated,PTH,ComponentDrill
T8C0.0945
%
G90
G05
T1
X3.225Y-2.3355
X3.225Y-2.4105
X3.225Y-2.4855
X3.3Y-2.3355
X3.3Y-2.4105
X3.3Y-2.4855
T2
X7.54Y-3.2549
X7.54Y-3.3927
X7.9337Y-3.2549
X7.9337Y-3.3927
X8.3263Y-4.69
X8.3274Y-3.2549
X8.3274Y-3.3927
T3
X3.28Y-4.9203
X3.28Y-5.0187
X3.3587Y-4.9203
X3.3587Y-5.0187
X3.62Y-4.65
X3.72Y-4.65
X3.82Y-4.65
X3.92Y-4.65
X4.3618Y-4.0413
X4.4618Y-3.5098
X4.4618Y-4.0413
X4.5618Y-3.5098
X4.5618Y-4.0413
X4.6618Y-3.5098
X4.6618Y-4.0413
X4.7618Y-3.5098
X4.7618Y-4.0413
X4.7837Y-5.034
X4.8618Y-4.0413
X5.31Y-2.0431
X5.31Y-2.24
X5.31Y-3.34
X5.31Y-3.5369
X5.41Y-2.0431
X5.41Y-2.24
X5.41Y-3.34
X5.41Y-3.5369
X5.51Y-2.0431
X5.51Y-2.24
X5.51Y-3.34
X5.51Y-3.5369
X5.61Y-2.0431
X5.61Y-2.24
X5.61Y-3.34
X5.61Y-3.5369
X5.71Y-2.0431
X5.71Y-2.24
X5.71Y-3.34
X5.71Y-3.5369
X5.81Y-2.0431
X5.81Y-2.24
X5.81Y-3.34
X5.81Y-3.5369
X5.91Y-2.0431
X5.91Y-2.24
X5.91Y-3.34
X5.91Y-3.5369
X6.01Y-2.0431
X6.01Y-2.24
X6.01Y-3.34
X6.01Y-3.5369
X6.11Y-2.0431
X6.11Y-2.24
X6.11Y-3.34
X6.11Y-3.5369
X6.1494Y-4.7603
X6.1494Y-4.8603
X6.1494Y-4.9603
X6.1494Y-5.0603
X6.1494Y-5.1603
X6.1494Y-5.2603
X6.21Y-2.0431
X6.21Y-2.24
X6.21Y-3.34
X6.21Y-3.5369
X6.31Y-2.0431
X6.31Y-2.24
X6.31Y-3.34
X6.31Y-3.5369
X6.41Y-2.0431
X6.41Y-2.24
X6.41Y-3.34
X6.41Y-3.5369
X6.51Y-2.0431
X6.51Y-2.24
X6.51Y-3.34
X6.51Y-3.5369
X6.61Y-2.0431
X6.61Y-2.24
X6.61Y-3.34
X6.61Y-3.5369
X6.71Y-2.0431
X6.71Y-2.24
X6.71Y-3.34
X6.71Y-3.5369
X6.728Y-4.79
X6.81Y-2.0431
X6.81Y-2.24
X6.81Y-3.34
X6.81Y-3.5369
X6.828Y-4.79
X6.91Y-2.0431
X6.91Y-2.24
X6.91Y-3.34
X6.91Y-3.5369
X6.928Y-4.79
X7.01Y-2.0431
X7.01Y-2.24
X7.01Y-3.34
X7.01Y-3.5369
X7.028Y-4.79
X7.11Y-2.0431
X7.11Y-2.24
X7.11Y-3.34
X7.11Y-3.5369
X7.128Y-4.79
X7.228Y-4.79
X7.2969Y-2.5388
X7.2969Y-2.6388
X7.2969Y-2.7388
X7.2969Y-2.8388
X7.328Y-4.79
X7.3969Y-2.5388
X7.3969Y-2.6388
X7.3969Y-2.7388
X7.3969Y-2.8388
X7.428Y-4.79
X7.528Y-4.79
X7.628Y-4.79
X8.5734Y-3.5404
X8.5734Y-3.6404
X8.5734Y-3.7404
X8.5734Y-3.8404
X8.62Y-4.5896
X8.62Y-4.7904
X8.7204Y-4.69
X8.7826Y-2.4388
X8.7826Y-2.5388
X8.7826Y-2.6388
X8.7826Y-2.7388
X8.7826Y-2.8388
X8.7826Y-2.9388
X8.8207Y-4.5896
X8.8207Y-4.7904
T4
X3.7631Y-3.0861
X3.7631Y-3.2436
X3.7631Y-3.4011
X3.7631Y-3.5586
X3.7631Y-3.716
X3.7631Y-3.8735
X3.7631Y-4.031
X3.7631Y-4.1885
X3.7631Y-4.346
T5
X4.1971Y-4.8017
X4.2719Y-4.908
X4.2719Y-5.034
X4.2719Y-5.16
X4.39Y-4.908
X4.39Y-5.034
X4.39Y-5.16
X4.4648Y-5.2663
T6
X2.98Y-2.1605
X2.98Y-2.6605
X3.19Y-2.1605
X3.19Y-2.6605
T7
X5.425Y-4.09
X8.295Y-4.09
T8
X3.1733Y-4.7325
X3.1733Y-5.2065
M30
