%TF.GenerationSoftware,KiCad,Pcbnew,8.0.3*%
%TF.CreationDate,2024-06-28T16:04:17+02:00*%
%TF.ProjectId,3.3v radio with battery,332e3376-2072-4616-9469-6f2077697468,rev?*%
%TF.SameCoordinates,Original*%
%TF.FileFunction,Legend,Top*%
%TF.FilePolarity,Positive*%
%FSLAX46Y46*%
G04 Gerber Fmt 4.6, Leading zero omitted, Abs format (unit mm)*
G04 Created by KiCad (PCBNEW 8.0.3) date 2024-06-28 16:04:17*
%MOMM*%
%LPD*%
G01*
G04 APERTURE LIST*
%ADD10C,0.300000*%
%ADD11C,0.100000*%
%ADD12C,0.150000*%
%ADD13C,0.120000*%
%ADD14C,0.200000*%
G04 APERTURE END LIST*
D10*
X131307844Y-103700983D02*
X135117368Y-103700983D01*
X133212606Y-105605745D02*
X133212606Y-101796221D01*
D11*
X197566360Y-58523942D02*
X197423503Y-58666800D01*
X197423503Y-58666800D02*
X196994931Y-58809657D01*
X196994931Y-58809657D02*
X196709217Y-58809657D01*
X196709217Y-58809657D02*
X196280646Y-58666800D01*
X196280646Y-58666800D02*
X195994931Y-58381085D01*
X195994931Y-58381085D02*
X195852074Y-58095371D01*
X195852074Y-58095371D02*
X195709217Y-57523942D01*
X195709217Y-57523942D02*
X195709217Y-57095371D01*
X195709217Y-57095371D02*
X195852074Y-56523942D01*
X195852074Y-56523942D02*
X195994931Y-56238228D01*
X195994931Y-56238228D02*
X196280646Y-55952514D01*
X196280646Y-55952514D02*
X196709217Y-55809657D01*
X196709217Y-55809657D02*
X196994931Y-55809657D01*
X196994931Y-55809657D02*
X197423503Y-55952514D01*
X197423503Y-55952514D02*
X197566360Y-56095371D01*
X200566360Y-58809657D02*
X199566360Y-57381085D01*
X198852074Y-58809657D02*
X198852074Y-55809657D01*
X198852074Y-55809657D02*
X199994931Y-55809657D01*
X199994931Y-55809657D02*
X200280646Y-55952514D01*
X200280646Y-55952514D02*
X200423503Y-56095371D01*
X200423503Y-56095371D02*
X200566360Y-56381085D01*
X200566360Y-56381085D02*
X200566360Y-56809657D01*
X200566360Y-56809657D02*
X200423503Y-57095371D01*
X200423503Y-57095371D02*
X200280646Y-57238228D01*
X200280646Y-57238228D02*
X199994931Y-57381085D01*
X199994931Y-57381085D02*
X198852074Y-57381085D01*
X202709217Y-55809657D02*
X202709217Y-57952514D01*
X202709217Y-57952514D02*
X202566360Y-58381085D01*
X202566360Y-58381085D02*
X202280646Y-58666800D01*
X202280646Y-58666800D02*
X201852074Y-58809657D01*
X201852074Y-58809657D02*
X201566360Y-58809657D01*
X91353312Y-115466990D02*
X91277122Y-115428895D01*
X91277122Y-115428895D02*
X91162836Y-115428895D01*
X91162836Y-115428895D02*
X91048550Y-115466990D01*
X91048550Y-115466990D02*
X90972360Y-115543180D01*
X90972360Y-115543180D02*
X90934265Y-115619371D01*
X90934265Y-115619371D02*
X90896169Y-115771752D01*
X90896169Y-115771752D02*
X90896169Y-115886038D01*
X90896169Y-115886038D02*
X90934265Y-116038419D01*
X90934265Y-116038419D02*
X90972360Y-116114609D01*
X90972360Y-116114609D02*
X91048550Y-116190800D01*
X91048550Y-116190800D02*
X91162836Y-116228895D01*
X91162836Y-116228895D02*
X91239027Y-116228895D01*
X91239027Y-116228895D02*
X91353312Y-116190800D01*
X91353312Y-116190800D02*
X91391408Y-116152704D01*
X91391408Y-116152704D02*
X91391408Y-115886038D01*
X91391408Y-115886038D02*
X91239027Y-115886038D01*
X91734265Y-116228895D02*
X91734265Y-115428895D01*
X91734265Y-115428895D02*
X92191408Y-116228895D01*
X92191408Y-116228895D02*
X92191408Y-115428895D01*
X92572360Y-116228895D02*
X92572360Y-115428895D01*
X92572360Y-115428895D02*
X92762836Y-115428895D01*
X92762836Y-115428895D02*
X92877122Y-115466990D01*
X92877122Y-115466990D02*
X92953312Y-115543180D01*
X92953312Y-115543180D02*
X92991407Y-115619371D01*
X92991407Y-115619371D02*
X93029503Y-115771752D01*
X93029503Y-115771752D02*
X93029503Y-115886038D01*
X93029503Y-115886038D02*
X92991407Y-116038419D01*
X92991407Y-116038419D02*
X92953312Y-116114609D01*
X92953312Y-116114609D02*
X92877122Y-116190800D01*
X92877122Y-116190800D02*
X92762836Y-116228895D01*
X92762836Y-116228895D02*
X92572360Y-116228895D01*
X93981884Y-116228895D02*
X93981884Y-115428895D01*
X93981884Y-115428895D02*
X94172360Y-115428895D01*
X94172360Y-115428895D02*
X94286646Y-115466990D01*
X94286646Y-115466990D02*
X94362836Y-115543180D01*
X94362836Y-115543180D02*
X94400931Y-115619371D01*
X94400931Y-115619371D02*
X94439027Y-115771752D01*
X94439027Y-115771752D02*
X94439027Y-115886038D01*
X94439027Y-115886038D02*
X94400931Y-116038419D01*
X94400931Y-116038419D02*
X94362836Y-116114609D01*
X94362836Y-116114609D02*
X94286646Y-116190800D01*
X94286646Y-116190800D02*
X94172360Y-116228895D01*
X94172360Y-116228895D02*
X93981884Y-116228895D01*
X94781884Y-115924133D02*
X95391408Y-115924133D01*
X95086646Y-116228895D02*
X95086646Y-115619371D01*
X96381884Y-116228895D02*
X96381884Y-115428895D01*
X96381884Y-115428895D02*
X96572360Y-115428895D01*
X96572360Y-115428895D02*
X96686646Y-115466990D01*
X96686646Y-115466990D02*
X96762836Y-115543180D01*
X96762836Y-115543180D02*
X96800931Y-115619371D01*
X96800931Y-115619371D02*
X96839027Y-115771752D01*
X96839027Y-115771752D02*
X96839027Y-115886038D01*
X96839027Y-115886038D02*
X96800931Y-116038419D01*
X96800931Y-116038419D02*
X96762836Y-116114609D01*
X96762836Y-116114609D02*
X96686646Y-116190800D01*
X96686646Y-116190800D02*
X96572360Y-116228895D01*
X96572360Y-116228895D02*
X96381884Y-116228895D01*
X97181884Y-115924133D02*
X97791408Y-115924133D01*
X98667598Y-115428895D02*
X98934265Y-116228895D01*
X98934265Y-116228895D02*
X99200931Y-115428895D01*
X99924741Y-116152704D02*
X99886645Y-116190800D01*
X99886645Y-116190800D02*
X99772360Y-116228895D01*
X99772360Y-116228895D02*
X99696169Y-116228895D01*
X99696169Y-116228895D02*
X99581883Y-116190800D01*
X99581883Y-116190800D02*
X99505693Y-116114609D01*
X99505693Y-116114609D02*
X99467598Y-116038419D01*
X99467598Y-116038419D02*
X99429502Y-115886038D01*
X99429502Y-115886038D02*
X99429502Y-115771752D01*
X99429502Y-115771752D02*
X99467598Y-115619371D01*
X99467598Y-115619371D02*
X99505693Y-115543180D01*
X99505693Y-115543180D02*
X99581883Y-115466990D01*
X99581883Y-115466990D02*
X99696169Y-115428895D01*
X99696169Y-115428895D02*
X99772360Y-115428895D01*
X99772360Y-115428895D02*
X99886645Y-115466990D01*
X99886645Y-115466990D02*
X99924741Y-115505085D01*
X100724741Y-116152704D02*
X100686645Y-116190800D01*
X100686645Y-116190800D02*
X100572360Y-116228895D01*
X100572360Y-116228895D02*
X100496169Y-116228895D01*
X100496169Y-116228895D02*
X100381883Y-116190800D01*
X100381883Y-116190800D02*
X100305693Y-116114609D01*
X100305693Y-116114609D02*
X100267598Y-116038419D01*
X100267598Y-116038419D02*
X100229502Y-115886038D01*
X100229502Y-115886038D02*
X100229502Y-115771752D01*
X100229502Y-115771752D02*
X100267598Y-115619371D01*
X100267598Y-115619371D02*
X100305693Y-115543180D01*
X100305693Y-115543180D02*
X100381883Y-115466990D01*
X100381883Y-115466990D02*
X100496169Y-115428895D01*
X100496169Y-115428895D02*
X100572360Y-115428895D01*
X100572360Y-115428895D02*
X100686645Y-115466990D01*
X100686645Y-115466990D02*
X100724741Y-115505085D01*
D12*
X214499880Y-85344319D02*
X214690356Y-85344319D01*
X214690356Y-85344319D02*
X214785594Y-85391938D01*
X214785594Y-85391938D02*
X214880832Y-85487176D01*
X214880832Y-85487176D02*
X214928451Y-85677652D01*
X214928451Y-85677652D02*
X214928451Y-86010985D01*
X214928451Y-86010985D02*
X214880832Y-86201461D01*
X214880832Y-86201461D02*
X214785594Y-86296700D01*
X214785594Y-86296700D02*
X214690356Y-86344319D01*
X214690356Y-86344319D02*
X214499880Y-86344319D01*
X214499880Y-86344319D02*
X214404642Y-86296700D01*
X214404642Y-86296700D02*
X214309404Y-86201461D01*
X214309404Y-86201461D02*
X214261785Y-86010985D01*
X214261785Y-86010985D02*
X214261785Y-85677652D01*
X214261785Y-85677652D02*
X214309404Y-85487176D01*
X214309404Y-85487176D02*
X214404642Y-85391938D01*
X214404642Y-85391938D02*
X214499880Y-85344319D01*
X215499880Y-86344319D02*
X215404642Y-86296700D01*
X215404642Y-86296700D02*
X215357023Y-86201461D01*
X215357023Y-86201461D02*
X215357023Y-85344319D01*
X216261785Y-86296700D02*
X216166547Y-86344319D01*
X216166547Y-86344319D02*
X215976071Y-86344319D01*
X215976071Y-86344319D02*
X215880833Y-86296700D01*
X215880833Y-86296700D02*
X215833214Y-86201461D01*
X215833214Y-86201461D02*
X215833214Y-85820509D01*
X215833214Y-85820509D02*
X215880833Y-85725271D01*
X215880833Y-85725271D02*
X215976071Y-85677652D01*
X215976071Y-85677652D02*
X216166547Y-85677652D01*
X216166547Y-85677652D02*
X216261785Y-85725271D01*
X216261785Y-85725271D02*
X216309404Y-85820509D01*
X216309404Y-85820509D02*
X216309404Y-85915747D01*
X216309404Y-85915747D02*
X215833214Y-86010985D01*
X217166547Y-86344319D02*
X217166547Y-85344319D01*
X217166547Y-86296700D02*
X217071309Y-86344319D01*
X217071309Y-86344319D02*
X216880833Y-86344319D01*
X216880833Y-86344319D02*
X216785595Y-86296700D01*
X216785595Y-86296700D02*
X216737976Y-86249080D01*
X216737976Y-86249080D02*
X216690357Y-86153842D01*
X216690357Y-86153842D02*
X216690357Y-85868128D01*
X216690357Y-85868128D02*
X216737976Y-85772890D01*
X216737976Y-85772890D02*
X216785595Y-85725271D01*
X216785595Y-85725271D02*
X216880833Y-85677652D01*
X216880833Y-85677652D02*
X217071309Y-85677652D01*
X217071309Y-85677652D02*
X217166547Y-85725271D01*
X217404643Y-86439557D02*
X218166547Y-86439557D01*
X218357024Y-86296700D02*
X218452262Y-86344319D01*
X218452262Y-86344319D02*
X218642738Y-86344319D01*
X218642738Y-86344319D02*
X218737976Y-86296700D01*
X218737976Y-86296700D02*
X218785595Y-86201461D01*
X218785595Y-86201461D02*
X218785595Y-86153842D01*
X218785595Y-86153842D02*
X218737976Y-86058604D01*
X218737976Y-86058604D02*
X218642738Y-86010985D01*
X218642738Y-86010985D02*
X218499881Y-86010985D01*
X218499881Y-86010985D02*
X218404643Y-85963366D01*
X218404643Y-85963366D02*
X218357024Y-85868128D01*
X218357024Y-85868128D02*
X218357024Y-85820509D01*
X218357024Y-85820509D02*
X218404643Y-85725271D01*
X218404643Y-85725271D02*
X218499881Y-85677652D01*
X218499881Y-85677652D02*
X218642738Y-85677652D01*
X218642738Y-85677652D02*
X218737976Y-85725271D01*
X219642738Y-86296700D02*
X219547500Y-86344319D01*
X219547500Y-86344319D02*
X219357024Y-86344319D01*
X219357024Y-86344319D02*
X219261786Y-86296700D01*
X219261786Y-86296700D02*
X219214167Y-86249080D01*
X219214167Y-86249080D02*
X219166548Y-86153842D01*
X219166548Y-86153842D02*
X219166548Y-85868128D01*
X219166548Y-85868128D02*
X219214167Y-85772890D01*
X219214167Y-85772890D02*
X219261786Y-85725271D01*
X219261786Y-85725271D02*
X219357024Y-85677652D01*
X219357024Y-85677652D02*
X219547500Y-85677652D01*
X219547500Y-85677652D02*
X219642738Y-85725271D01*
X220071310Y-86344319D02*
X220071310Y-85677652D01*
X220071310Y-85868128D02*
X220118929Y-85772890D01*
X220118929Y-85772890D02*
X220166548Y-85725271D01*
X220166548Y-85725271D02*
X220261786Y-85677652D01*
X220261786Y-85677652D02*
X220357024Y-85677652D01*
X221071310Y-86296700D02*
X220976072Y-86344319D01*
X220976072Y-86344319D02*
X220785596Y-86344319D01*
X220785596Y-86344319D02*
X220690358Y-86296700D01*
X220690358Y-86296700D02*
X220642739Y-86201461D01*
X220642739Y-86201461D02*
X220642739Y-85820509D01*
X220642739Y-85820509D02*
X220690358Y-85725271D01*
X220690358Y-85725271D02*
X220785596Y-85677652D01*
X220785596Y-85677652D02*
X220976072Y-85677652D01*
X220976072Y-85677652D02*
X221071310Y-85725271D01*
X221071310Y-85725271D02*
X221118929Y-85820509D01*
X221118929Y-85820509D02*
X221118929Y-85915747D01*
X221118929Y-85915747D02*
X220642739Y-86010985D01*
X221928453Y-86296700D02*
X221833215Y-86344319D01*
X221833215Y-86344319D02*
X221642739Y-86344319D01*
X221642739Y-86344319D02*
X221547501Y-86296700D01*
X221547501Y-86296700D02*
X221499882Y-86201461D01*
X221499882Y-86201461D02*
X221499882Y-85820509D01*
X221499882Y-85820509D02*
X221547501Y-85725271D01*
X221547501Y-85725271D02*
X221642739Y-85677652D01*
X221642739Y-85677652D02*
X221833215Y-85677652D01*
X221833215Y-85677652D02*
X221928453Y-85725271D01*
X221928453Y-85725271D02*
X221976072Y-85820509D01*
X221976072Y-85820509D02*
X221976072Y-85915747D01*
X221976072Y-85915747D02*
X221499882Y-86010985D01*
X222404644Y-85677652D02*
X222404644Y-86344319D01*
X222404644Y-85772890D02*
X222452263Y-85725271D01*
X222452263Y-85725271D02*
X222547501Y-85677652D01*
X222547501Y-85677652D02*
X222690358Y-85677652D01*
X222690358Y-85677652D02*
X222785596Y-85725271D01*
X222785596Y-85725271D02*
X222833215Y-85820509D01*
X222833215Y-85820509D02*
X222833215Y-86344319D01*
X223833215Y-86344319D02*
X223261787Y-86344319D01*
X223547501Y-86344319D02*
X223547501Y-85344319D01*
X223547501Y-85344319D02*
X223452263Y-85487176D01*
X223452263Y-85487176D02*
X223357025Y-85582414D01*
X223357025Y-85582414D02*
X223261787Y-85630033D01*
X98489707Y-107162205D02*
X98442088Y-107209825D01*
X98442088Y-107209825D02*
X98299231Y-107257444D01*
X98299231Y-107257444D02*
X98203993Y-107257444D01*
X98203993Y-107257444D02*
X98061136Y-107209825D01*
X98061136Y-107209825D02*
X97965898Y-107114586D01*
X97965898Y-107114586D02*
X97918279Y-107019348D01*
X97918279Y-107019348D02*
X97870660Y-106828872D01*
X97870660Y-106828872D02*
X97870660Y-106686015D01*
X97870660Y-106686015D02*
X97918279Y-106495539D01*
X97918279Y-106495539D02*
X97965898Y-106400301D01*
X97965898Y-106400301D02*
X98061136Y-106305063D01*
X98061136Y-106305063D02*
X98203993Y-106257444D01*
X98203993Y-106257444D02*
X98299231Y-106257444D01*
X98299231Y-106257444D02*
X98442088Y-106305063D01*
X98442088Y-106305063D02*
X98489707Y-106352682D01*
X98918279Y-107257444D02*
X98918279Y-106257444D01*
X98918279Y-106257444D02*
X99251612Y-106971729D01*
X99251612Y-106971729D02*
X99584945Y-106257444D01*
X99584945Y-106257444D02*
X99584945Y-107257444D01*
X100061136Y-107257444D02*
X100061136Y-106257444D01*
X100061136Y-106257444D02*
X100299231Y-106257444D01*
X100299231Y-106257444D02*
X100442088Y-106305063D01*
X100442088Y-106305063D02*
X100537326Y-106400301D01*
X100537326Y-106400301D02*
X100584945Y-106495539D01*
X100584945Y-106495539D02*
X100632564Y-106686015D01*
X100632564Y-106686015D02*
X100632564Y-106828872D01*
X100632564Y-106828872D02*
X100584945Y-107019348D01*
X100584945Y-107019348D02*
X100537326Y-107114586D01*
X100537326Y-107114586D02*
X100442088Y-107209825D01*
X100442088Y-107209825D02*
X100299231Y-107257444D01*
X100299231Y-107257444D02*
X100061136Y-107257444D01*
X99140660Y-77193729D02*
X99616850Y-77193729D01*
X99045422Y-77479444D02*
X99378755Y-76479444D01*
X99378755Y-76479444D02*
X99712088Y-77479444D01*
X100616850Y-77384205D02*
X100569231Y-77431825D01*
X100569231Y-77431825D02*
X100426374Y-77479444D01*
X100426374Y-77479444D02*
X100331136Y-77479444D01*
X100331136Y-77479444D02*
X100188279Y-77431825D01*
X100188279Y-77431825D02*
X100093041Y-77336586D01*
X100093041Y-77336586D02*
X100045422Y-77241348D01*
X100045422Y-77241348D02*
X99997803Y-77050872D01*
X99997803Y-77050872D02*
X99997803Y-76908015D01*
X99997803Y-76908015D02*
X100045422Y-76717539D01*
X100045422Y-76717539D02*
X100093041Y-76622301D01*
X100093041Y-76622301D02*
X100188279Y-76527063D01*
X100188279Y-76527063D02*
X100331136Y-76479444D01*
X100331136Y-76479444D02*
X100426374Y-76479444D01*
X100426374Y-76479444D02*
X100569231Y-76527063D01*
X100569231Y-76527063D02*
X100616850Y-76574682D01*
X101045422Y-77479444D02*
X101045422Y-76479444D01*
X101616850Y-77479444D02*
X101188279Y-76908015D01*
X101616850Y-76479444D02*
X101045422Y-77050872D01*
X97918279Y-111257444D02*
X97918279Y-110257444D01*
X97918279Y-110257444D02*
X98156374Y-110257444D01*
X98156374Y-110257444D02*
X98299231Y-110305063D01*
X98299231Y-110305063D02*
X98394469Y-110400301D01*
X98394469Y-110400301D02*
X98442088Y-110495539D01*
X98442088Y-110495539D02*
X98489707Y-110686015D01*
X98489707Y-110686015D02*
X98489707Y-110828872D01*
X98489707Y-110828872D02*
X98442088Y-111019348D01*
X98442088Y-111019348D02*
X98394469Y-111114586D01*
X98394469Y-111114586D02*
X98299231Y-111209825D01*
X98299231Y-111209825D02*
X98156374Y-111257444D01*
X98156374Y-111257444D02*
X97918279Y-111257444D01*
X98870660Y-110971729D02*
X99346850Y-110971729D01*
X98775422Y-111257444D02*
X99108755Y-110257444D01*
X99108755Y-110257444D02*
X99442088Y-111257444D01*
X99632565Y-110257444D02*
X100203993Y-110257444D01*
X99918279Y-111257444D02*
X99918279Y-110257444D01*
X100489708Y-110971729D02*
X100965898Y-110971729D01*
X100394470Y-111257444D02*
X100727803Y-110257444D01*
X100727803Y-110257444D02*
X101061136Y-111257444D01*
X97775422Y-94257444D02*
X98108755Y-95257444D01*
X98108755Y-95257444D02*
X98442088Y-94257444D01*
X99346850Y-95162205D02*
X99299231Y-95209825D01*
X99299231Y-95209825D02*
X99156374Y-95257444D01*
X99156374Y-95257444D02*
X99061136Y-95257444D01*
X99061136Y-95257444D02*
X98918279Y-95209825D01*
X98918279Y-95209825D02*
X98823041Y-95114586D01*
X98823041Y-95114586D02*
X98775422Y-95019348D01*
X98775422Y-95019348D02*
X98727803Y-94828872D01*
X98727803Y-94828872D02*
X98727803Y-94686015D01*
X98727803Y-94686015D02*
X98775422Y-94495539D01*
X98775422Y-94495539D02*
X98823041Y-94400301D01*
X98823041Y-94400301D02*
X98918279Y-94305063D01*
X98918279Y-94305063D02*
X99061136Y-94257444D01*
X99061136Y-94257444D02*
X99156374Y-94257444D01*
X99156374Y-94257444D02*
X99299231Y-94305063D01*
X99299231Y-94305063D02*
X99346850Y-94352682D01*
X100346850Y-95162205D02*
X100299231Y-95209825D01*
X100299231Y-95209825D02*
X100156374Y-95257444D01*
X100156374Y-95257444D02*
X100061136Y-95257444D01*
X100061136Y-95257444D02*
X99918279Y-95209825D01*
X99918279Y-95209825D02*
X99823041Y-95114586D01*
X99823041Y-95114586D02*
X99775422Y-95019348D01*
X99775422Y-95019348D02*
X99727803Y-94828872D01*
X99727803Y-94828872D02*
X99727803Y-94686015D01*
X99727803Y-94686015D02*
X99775422Y-94495539D01*
X99775422Y-94495539D02*
X99823041Y-94400301D01*
X99823041Y-94400301D02*
X99918279Y-94305063D01*
X99918279Y-94305063D02*
X100061136Y-94257444D01*
X100061136Y-94257444D02*
X100156374Y-94257444D01*
X100156374Y-94257444D02*
X100299231Y-94305063D01*
X100299231Y-94305063D02*
X100346850Y-94352682D01*
X97918279Y-103257444D02*
X97918279Y-102257444D01*
X97918279Y-102257444D02*
X98251612Y-102971729D01*
X98251612Y-102971729D02*
X98584945Y-102257444D01*
X98584945Y-102257444D02*
X98584945Y-103257444D01*
X99251612Y-102257444D02*
X99442088Y-102257444D01*
X99442088Y-102257444D02*
X99537326Y-102305063D01*
X99537326Y-102305063D02*
X99632564Y-102400301D01*
X99632564Y-102400301D02*
X99680183Y-102590777D01*
X99680183Y-102590777D02*
X99680183Y-102924110D01*
X99680183Y-102924110D02*
X99632564Y-103114586D01*
X99632564Y-103114586D02*
X99537326Y-103209825D01*
X99537326Y-103209825D02*
X99442088Y-103257444D01*
X99442088Y-103257444D02*
X99251612Y-103257444D01*
X99251612Y-103257444D02*
X99156374Y-103209825D01*
X99156374Y-103209825D02*
X99061136Y-103114586D01*
X99061136Y-103114586D02*
X99013517Y-102924110D01*
X99013517Y-102924110D02*
X99013517Y-102590777D01*
X99013517Y-102590777D02*
X99061136Y-102400301D01*
X99061136Y-102400301D02*
X99156374Y-102305063D01*
X99156374Y-102305063D02*
X99251612Y-102257444D01*
X99965898Y-102257444D02*
X100537326Y-102257444D01*
X100251612Y-103257444D02*
X100251612Y-102257444D01*
X101061136Y-102257444D02*
X101251612Y-102257444D01*
X101251612Y-102257444D02*
X101346850Y-102305063D01*
X101346850Y-102305063D02*
X101442088Y-102400301D01*
X101442088Y-102400301D02*
X101489707Y-102590777D01*
X101489707Y-102590777D02*
X101489707Y-102924110D01*
X101489707Y-102924110D02*
X101442088Y-103114586D01*
X101442088Y-103114586D02*
X101346850Y-103209825D01*
X101346850Y-103209825D02*
X101251612Y-103257444D01*
X101251612Y-103257444D02*
X101061136Y-103257444D01*
X101061136Y-103257444D02*
X100965898Y-103209825D01*
X100965898Y-103209825D02*
X100870660Y-103114586D01*
X100870660Y-103114586D02*
X100823041Y-102924110D01*
X100823041Y-102924110D02*
X100823041Y-102590777D01*
X100823041Y-102590777D02*
X100870660Y-102400301D01*
X100870660Y-102400301D02*
X100965898Y-102305063D01*
X100965898Y-102305063D02*
X101061136Y-102257444D01*
X102489707Y-103257444D02*
X102156374Y-102781253D01*
X101918279Y-103257444D02*
X101918279Y-102257444D01*
X101918279Y-102257444D02*
X102299231Y-102257444D01*
X102299231Y-102257444D02*
X102394469Y-102305063D01*
X102394469Y-102305063D02*
X102442088Y-102352682D01*
X102442088Y-102352682D02*
X102489707Y-102447920D01*
X102489707Y-102447920D02*
X102489707Y-102590777D01*
X102489707Y-102590777D02*
X102442088Y-102686015D01*
X102442088Y-102686015D02*
X102394469Y-102733634D01*
X102394469Y-102733634D02*
X102299231Y-102781253D01*
X102299231Y-102781253D02*
X101918279Y-102781253D01*
X98442088Y-98305063D02*
X98346850Y-98257444D01*
X98346850Y-98257444D02*
X98203993Y-98257444D01*
X98203993Y-98257444D02*
X98061136Y-98305063D01*
X98061136Y-98305063D02*
X97965898Y-98400301D01*
X97965898Y-98400301D02*
X97918279Y-98495539D01*
X97918279Y-98495539D02*
X97870660Y-98686015D01*
X97870660Y-98686015D02*
X97870660Y-98828872D01*
X97870660Y-98828872D02*
X97918279Y-99019348D01*
X97918279Y-99019348D02*
X97965898Y-99114586D01*
X97965898Y-99114586D02*
X98061136Y-99209825D01*
X98061136Y-99209825D02*
X98203993Y-99257444D01*
X98203993Y-99257444D02*
X98299231Y-99257444D01*
X98299231Y-99257444D02*
X98442088Y-99209825D01*
X98442088Y-99209825D02*
X98489707Y-99162205D01*
X98489707Y-99162205D02*
X98489707Y-98828872D01*
X98489707Y-98828872D02*
X98299231Y-98828872D01*
X98918279Y-99257444D02*
X98918279Y-98257444D01*
X98918279Y-98257444D02*
X99489707Y-99257444D01*
X99489707Y-99257444D02*
X99489707Y-98257444D01*
X99965898Y-99257444D02*
X99965898Y-98257444D01*
X99965898Y-98257444D02*
X100203993Y-98257444D01*
X100203993Y-98257444D02*
X100346850Y-98305063D01*
X100346850Y-98305063D02*
X100442088Y-98400301D01*
X100442088Y-98400301D02*
X100489707Y-98495539D01*
X100489707Y-98495539D02*
X100537326Y-98686015D01*
X100537326Y-98686015D02*
X100537326Y-98828872D01*
X100537326Y-98828872D02*
X100489707Y-99019348D01*
X100489707Y-99019348D02*
X100442088Y-99114586D01*
X100442088Y-99114586D02*
X100346850Y-99209825D01*
X100346850Y-99209825D02*
X100203993Y-99257444D01*
X100203993Y-99257444D02*
X99965898Y-99257444D01*
X98489707Y-87162205D02*
X98442088Y-87209825D01*
X98442088Y-87209825D02*
X98299231Y-87257444D01*
X98299231Y-87257444D02*
X98203993Y-87257444D01*
X98203993Y-87257444D02*
X98061136Y-87209825D01*
X98061136Y-87209825D02*
X97965898Y-87114586D01*
X97965898Y-87114586D02*
X97918279Y-87019348D01*
X97918279Y-87019348D02*
X97870660Y-86828872D01*
X97870660Y-86828872D02*
X97870660Y-86686015D01*
X97870660Y-86686015D02*
X97918279Y-86495539D01*
X97918279Y-86495539D02*
X97965898Y-86400301D01*
X97965898Y-86400301D02*
X98061136Y-86305063D01*
X98061136Y-86305063D02*
X98203993Y-86257444D01*
X98203993Y-86257444D02*
X98299231Y-86257444D01*
X98299231Y-86257444D02*
X98442088Y-86305063D01*
X98442088Y-86305063D02*
X98489707Y-86352682D01*
X99394469Y-87257444D02*
X98918279Y-87257444D01*
X98918279Y-87257444D02*
X98918279Y-86257444D01*
X99727803Y-87257444D02*
X99727803Y-86257444D01*
X100299231Y-87257444D02*
X99870660Y-86686015D01*
X100299231Y-86257444D02*
X99727803Y-86828872D01*
X97870660Y-90971729D02*
X98346850Y-90971729D01*
X97775422Y-91257444D02*
X98108755Y-90257444D01*
X98108755Y-90257444D02*
X98442088Y-91257444D01*
X98632565Y-90257444D02*
X99203993Y-90257444D01*
X98918279Y-91257444D02*
X98918279Y-90257444D01*
X99394470Y-90257444D02*
X99965898Y-90257444D01*
X99680184Y-91257444D02*
X99680184Y-90257444D01*
X100299232Y-91257444D02*
X100299232Y-90257444D01*
X100299232Y-90257444D02*
X100870660Y-91257444D01*
X100870660Y-91257444D02*
X100870660Y-90257444D01*
X197125580Y-84592015D02*
X197173200Y-84639634D01*
X197173200Y-84639634D02*
X197220819Y-84782491D01*
X197220819Y-84782491D02*
X197220819Y-84877729D01*
X197220819Y-84877729D02*
X197173200Y-85020586D01*
X197173200Y-85020586D02*
X197077961Y-85115824D01*
X197077961Y-85115824D02*
X196982723Y-85163443D01*
X196982723Y-85163443D02*
X196792247Y-85211062D01*
X196792247Y-85211062D02*
X196649390Y-85211062D01*
X196649390Y-85211062D02*
X196458914Y-85163443D01*
X196458914Y-85163443D02*
X196363676Y-85115824D01*
X196363676Y-85115824D02*
X196268438Y-85020586D01*
X196268438Y-85020586D02*
X196220819Y-84877729D01*
X196220819Y-84877729D02*
X196220819Y-84782491D01*
X196220819Y-84782491D02*
X196268438Y-84639634D01*
X196268438Y-84639634D02*
X196316057Y-84592015D01*
X197220819Y-83639634D02*
X197220819Y-84211062D01*
X197220819Y-83925348D02*
X196220819Y-83925348D01*
X196220819Y-83925348D02*
X196363676Y-84020586D01*
X196363676Y-84020586D02*
X196458914Y-84115824D01*
X196458914Y-84115824D02*
X196506533Y-84211062D01*
D11*
X93840595Y-117870419D02*
X93840595Y-118679942D01*
X93840595Y-118679942D02*
X93888214Y-118775180D01*
X93888214Y-118775180D02*
X93935833Y-118822800D01*
X93935833Y-118822800D02*
X94031071Y-118870419D01*
X94031071Y-118870419D02*
X94221547Y-118870419D01*
X94221547Y-118870419D02*
X94316785Y-118822800D01*
X94316785Y-118822800D02*
X94364404Y-118775180D01*
X94364404Y-118775180D02*
X94412023Y-118679942D01*
X94412023Y-118679942D02*
X94412023Y-117870419D01*
X95316785Y-118203752D02*
X95316785Y-118870419D01*
X95078690Y-117822800D02*
X94840595Y-118537085D01*
X94840595Y-118537085D02*
X95459642Y-118537085D01*
X121490461Y-83977074D02*
X121538080Y-83881836D01*
X121538080Y-83881836D02*
X121538080Y-83738979D01*
X121538080Y-83738979D02*
X121490461Y-83596122D01*
X121490461Y-83596122D02*
X121395223Y-83500884D01*
X121395223Y-83500884D02*
X121299985Y-83453265D01*
X121299985Y-83453265D02*
X121109509Y-83405646D01*
X121109509Y-83405646D02*
X120966652Y-83405646D01*
X120966652Y-83405646D02*
X120776176Y-83453265D01*
X120776176Y-83453265D02*
X120680938Y-83500884D01*
X120680938Y-83500884D02*
X120585700Y-83596122D01*
X120585700Y-83596122D02*
X120538080Y-83738979D01*
X120538080Y-83738979D02*
X120538080Y-83834217D01*
X120538080Y-83834217D02*
X120585700Y-83977074D01*
X120585700Y-83977074D02*
X120633319Y-84024693D01*
X120633319Y-84024693D02*
X120966652Y-84024693D01*
X120966652Y-84024693D02*
X120966652Y-83834217D01*
X120538080Y-84453265D02*
X121538080Y-84453265D01*
X121538080Y-84453265D02*
X120538080Y-85024693D01*
X120538080Y-85024693D02*
X121538080Y-85024693D01*
X120538080Y-85500884D02*
X121538080Y-85500884D01*
X121538080Y-85500884D02*
X121538080Y-85738979D01*
X121538080Y-85738979D02*
X121490461Y-85881836D01*
X121490461Y-85881836D02*
X121395223Y-85977074D01*
X121395223Y-85977074D02*
X121299985Y-86024693D01*
X121299985Y-86024693D02*
X121109509Y-86072312D01*
X121109509Y-86072312D02*
X120966652Y-86072312D01*
X120966652Y-86072312D02*
X120776176Y-86024693D01*
X120776176Y-86024693D02*
X120680938Y-85977074D01*
X120680938Y-85977074D02*
X120585700Y-85881836D01*
X120585700Y-85881836D02*
X120538080Y-85738979D01*
X120538080Y-85738979D02*
X120538080Y-85500884D01*
X115458080Y-84572312D02*
X115934271Y-84238979D01*
X115458080Y-84000884D02*
X116458080Y-84000884D01*
X116458080Y-84000884D02*
X116458080Y-84381836D01*
X116458080Y-84381836D02*
X116410461Y-84477074D01*
X116410461Y-84477074D02*
X116362842Y-84524693D01*
X116362842Y-84524693D02*
X116267604Y-84572312D01*
X116267604Y-84572312D02*
X116124747Y-84572312D01*
X116124747Y-84572312D02*
X116029509Y-84524693D01*
X116029509Y-84524693D02*
X115981890Y-84477074D01*
X115981890Y-84477074D02*
X115934271Y-84381836D01*
X115934271Y-84381836D02*
X115934271Y-84000884D01*
X116458080Y-84905646D02*
X115458080Y-85572312D01*
X116458080Y-85572312D02*
X115458080Y-84905646D01*
X113918080Y-83405646D02*
X112918080Y-83738979D01*
X112918080Y-83738979D02*
X113918080Y-84072312D01*
X113013319Y-84977074D02*
X112965700Y-84929455D01*
X112965700Y-84929455D02*
X112918080Y-84786598D01*
X112918080Y-84786598D02*
X112918080Y-84691360D01*
X112918080Y-84691360D02*
X112965700Y-84548503D01*
X112965700Y-84548503D02*
X113060938Y-84453265D01*
X113060938Y-84453265D02*
X113156176Y-84405646D01*
X113156176Y-84405646D02*
X113346652Y-84358027D01*
X113346652Y-84358027D02*
X113489509Y-84358027D01*
X113489509Y-84358027D02*
X113679985Y-84405646D01*
X113679985Y-84405646D02*
X113775223Y-84453265D01*
X113775223Y-84453265D02*
X113870461Y-84548503D01*
X113870461Y-84548503D02*
X113918080Y-84691360D01*
X113918080Y-84691360D02*
X113918080Y-84786598D01*
X113918080Y-84786598D02*
X113870461Y-84929455D01*
X113870461Y-84929455D02*
X113822842Y-84977074D01*
X113013319Y-85977074D02*
X112965700Y-85929455D01*
X112965700Y-85929455D02*
X112918080Y-85786598D01*
X112918080Y-85786598D02*
X112918080Y-85691360D01*
X112918080Y-85691360D02*
X112965700Y-85548503D01*
X112965700Y-85548503D02*
X113060938Y-85453265D01*
X113060938Y-85453265D02*
X113156176Y-85405646D01*
X113156176Y-85405646D02*
X113346652Y-85358027D01*
X113346652Y-85358027D02*
X113489509Y-85358027D01*
X113489509Y-85358027D02*
X113679985Y-85405646D01*
X113679985Y-85405646D02*
X113775223Y-85453265D01*
X113775223Y-85453265D02*
X113870461Y-85548503D01*
X113870461Y-85548503D02*
X113918080Y-85691360D01*
X113918080Y-85691360D02*
X113918080Y-85786598D01*
X113918080Y-85786598D02*
X113870461Y-85929455D01*
X113870461Y-85929455D02*
X113822842Y-85977074D01*
X118998080Y-83977074D02*
X118998080Y-84548502D01*
X117998080Y-84262788D02*
X118998080Y-84262788D01*
X118998080Y-84786598D02*
X117998080Y-85453264D01*
X118998080Y-85453264D02*
X117998080Y-84786598D01*
X230927580Y-117782666D02*
X231403771Y-117449333D01*
X230927580Y-117211238D02*
X231927580Y-117211238D01*
X231927580Y-117211238D02*
X231927580Y-117592190D01*
X231927580Y-117592190D02*
X231879961Y-117687428D01*
X231879961Y-117687428D02*
X231832342Y-117735047D01*
X231832342Y-117735047D02*
X231737104Y-117782666D01*
X231737104Y-117782666D02*
X231594247Y-117782666D01*
X231594247Y-117782666D02*
X231499009Y-117735047D01*
X231499009Y-117735047D02*
X231451390Y-117687428D01*
X231451390Y-117687428D02*
X231403771Y-117592190D01*
X231403771Y-117592190D02*
X231403771Y-117211238D01*
X231451390Y-118211238D02*
X231451390Y-118544571D01*
X230927580Y-118687428D02*
X230927580Y-118211238D01*
X230927580Y-118211238D02*
X231927580Y-118211238D01*
X231927580Y-118211238D02*
X231927580Y-118687428D01*
X231451390Y-119449333D02*
X231451390Y-119116000D01*
X230927580Y-119116000D02*
X231927580Y-119116000D01*
X231927580Y-119116000D02*
X231927580Y-119592190D01*
X231927580Y-120116000D02*
X231689485Y-120116000D01*
X231784723Y-119877905D02*
X231689485Y-120116000D01*
X231689485Y-120116000D02*
X231784723Y-120354095D01*
X231499009Y-119973143D02*
X231689485Y-120116000D01*
X231689485Y-120116000D02*
X231499009Y-120258857D01*
X231927580Y-120877905D02*
X231689485Y-120877905D01*
X231784723Y-120639810D02*
X231689485Y-120877905D01*
X231689485Y-120877905D02*
X231784723Y-121116000D01*
X231499009Y-120735048D02*
X231689485Y-120877905D01*
X231689485Y-120877905D02*
X231499009Y-121020762D01*
D12*
X101352819Y-118443333D02*
X102067104Y-118443333D01*
X102067104Y-118443333D02*
X102209961Y-118490952D01*
X102209961Y-118490952D02*
X102305200Y-118586190D01*
X102305200Y-118586190D02*
X102352819Y-118729047D01*
X102352819Y-118729047D02*
X102352819Y-118824285D01*
X102352819Y-117443333D02*
X102352819Y-118014761D01*
X102352819Y-117729047D02*
X101352819Y-117729047D01*
X101352819Y-117729047D02*
X101495676Y-117824285D01*
X101495676Y-117824285D02*
X101590914Y-117919523D01*
X101590914Y-117919523D02*
X101638533Y-118014761D01*
X207125580Y-84592015D02*
X207173200Y-84639634D01*
X207173200Y-84639634D02*
X207220819Y-84782491D01*
X207220819Y-84782491D02*
X207220819Y-84877729D01*
X207220819Y-84877729D02*
X207173200Y-85020586D01*
X207173200Y-85020586D02*
X207077961Y-85115824D01*
X207077961Y-85115824D02*
X206982723Y-85163443D01*
X206982723Y-85163443D02*
X206792247Y-85211062D01*
X206792247Y-85211062D02*
X206649390Y-85211062D01*
X206649390Y-85211062D02*
X206458914Y-85163443D01*
X206458914Y-85163443D02*
X206363676Y-85115824D01*
X206363676Y-85115824D02*
X206268438Y-85020586D01*
X206268438Y-85020586D02*
X206220819Y-84877729D01*
X206220819Y-84877729D02*
X206220819Y-84782491D01*
X206220819Y-84782491D02*
X206268438Y-84639634D01*
X206268438Y-84639634D02*
X206316057Y-84592015D01*
X206316057Y-84211062D02*
X206268438Y-84163443D01*
X206268438Y-84163443D02*
X206220819Y-84068205D01*
X206220819Y-84068205D02*
X206220819Y-83830110D01*
X206220819Y-83830110D02*
X206268438Y-83734872D01*
X206268438Y-83734872D02*
X206316057Y-83687253D01*
X206316057Y-83687253D02*
X206411295Y-83639634D01*
X206411295Y-83639634D02*
X206506533Y-83639634D01*
X206506533Y-83639634D02*
X206649390Y-83687253D01*
X206649390Y-83687253D02*
X207220819Y-84258681D01*
X207220819Y-84258681D02*
X207220819Y-83639634D01*
X206559428Y-121593200D02*
X206702285Y-121640819D01*
X206702285Y-121640819D02*
X206940380Y-121640819D01*
X206940380Y-121640819D02*
X207035618Y-121593200D01*
X207035618Y-121593200D02*
X207083237Y-121545580D01*
X207083237Y-121545580D02*
X207130856Y-121450342D01*
X207130856Y-121450342D02*
X207130856Y-121355104D01*
X207130856Y-121355104D02*
X207083237Y-121259866D01*
X207083237Y-121259866D02*
X207035618Y-121212247D01*
X207035618Y-121212247D02*
X206940380Y-121164628D01*
X206940380Y-121164628D02*
X206749904Y-121117009D01*
X206749904Y-121117009D02*
X206654666Y-121069390D01*
X206654666Y-121069390D02*
X206607047Y-121021771D01*
X206607047Y-121021771D02*
X206559428Y-120926533D01*
X206559428Y-120926533D02*
X206559428Y-120831295D01*
X206559428Y-120831295D02*
X206607047Y-120736057D01*
X206607047Y-120736057D02*
X206654666Y-120688438D01*
X206654666Y-120688438D02*
X206749904Y-120640819D01*
X206749904Y-120640819D02*
X206987999Y-120640819D01*
X206987999Y-120640819D02*
X207130856Y-120688438D01*
X207559428Y-121640819D02*
X207559428Y-120640819D01*
X207559428Y-120640819D02*
X207892761Y-121355104D01*
X207892761Y-121355104D02*
X208226094Y-120640819D01*
X208226094Y-120640819D02*
X208226094Y-121640819D01*
X208654666Y-121355104D02*
X209130856Y-121355104D01*
X208559428Y-121640819D02*
X208892761Y-120640819D01*
X208892761Y-120640819D02*
X209226094Y-121640819D01*
X210273714Y-121355104D02*
X210749904Y-121355104D01*
X210178476Y-121640819D02*
X210511809Y-120640819D01*
X210511809Y-120640819D02*
X210845142Y-121640819D01*
X211178476Y-121640819D02*
X211178476Y-120640819D01*
X211178476Y-120640819D02*
X211749904Y-121640819D01*
X211749904Y-121640819D02*
X211749904Y-120640819D01*
X212083238Y-120640819D02*
X212654666Y-120640819D01*
X212368952Y-121640819D02*
X212368952Y-120640819D01*
X212988000Y-121117009D02*
X213321333Y-121117009D01*
X213464190Y-121640819D02*
X212988000Y-121640819D01*
X212988000Y-121640819D02*
X212988000Y-120640819D01*
X212988000Y-120640819D02*
X213464190Y-120640819D01*
X213892762Y-121640819D02*
X213892762Y-120640819D01*
X213892762Y-120640819D02*
X214464190Y-121640819D01*
X214464190Y-121640819D02*
X214464190Y-120640819D01*
X214940381Y-121640819D02*
X214940381Y-120640819D01*
X214940381Y-120640819D02*
X215511809Y-121640819D01*
X215511809Y-121640819D02*
X215511809Y-120640819D01*
X215940381Y-121355104D02*
X216416571Y-121355104D01*
X215845143Y-121640819D02*
X216178476Y-120640819D01*
X216178476Y-120640819D02*
X216511809Y-121640819D01*
D10*
X213857844Y-103954983D02*
X217667368Y-103954983D01*
D11*
X183785390Y-115738932D02*
X183785390Y-116072265D01*
X183261580Y-116215122D02*
X183261580Y-115738932D01*
X183261580Y-115738932D02*
X184261580Y-115738932D01*
X184261580Y-115738932D02*
X184261580Y-116215122D01*
X183261580Y-116643694D02*
X184261580Y-116643694D01*
X184261580Y-116643694D02*
X184261580Y-116881789D01*
X184261580Y-116881789D02*
X184213961Y-117024646D01*
X184213961Y-117024646D02*
X184118723Y-117119884D01*
X184118723Y-117119884D02*
X184023485Y-117167503D01*
X184023485Y-117167503D02*
X183833009Y-117215122D01*
X183833009Y-117215122D02*
X183690152Y-117215122D01*
X183690152Y-117215122D02*
X183499676Y-117167503D01*
X183499676Y-117167503D02*
X183404438Y-117119884D01*
X183404438Y-117119884D02*
X183309200Y-117024646D01*
X183309200Y-117024646D02*
X183261580Y-116881789D01*
X183261580Y-116881789D02*
X183261580Y-116643694D01*
X183547295Y-117596075D02*
X183547295Y-118072265D01*
X183261580Y-117500837D02*
X184261580Y-117834170D01*
X184261580Y-117834170D02*
X183261580Y-118167503D01*
X185849200Y-115667503D02*
X185801580Y-115810360D01*
X185801580Y-115810360D02*
X185801580Y-116048455D01*
X185801580Y-116048455D02*
X185849200Y-116143693D01*
X185849200Y-116143693D02*
X185896819Y-116191312D01*
X185896819Y-116191312D02*
X185992057Y-116238931D01*
X185992057Y-116238931D02*
X186087295Y-116238931D01*
X186087295Y-116238931D02*
X186182533Y-116191312D01*
X186182533Y-116191312D02*
X186230152Y-116143693D01*
X186230152Y-116143693D02*
X186277771Y-116048455D01*
X186277771Y-116048455D02*
X186325390Y-115857979D01*
X186325390Y-115857979D02*
X186373009Y-115762741D01*
X186373009Y-115762741D02*
X186420628Y-115715122D01*
X186420628Y-115715122D02*
X186515866Y-115667503D01*
X186515866Y-115667503D02*
X186611104Y-115667503D01*
X186611104Y-115667503D02*
X186706342Y-115715122D01*
X186706342Y-115715122D02*
X186753961Y-115762741D01*
X186753961Y-115762741D02*
X186801580Y-115857979D01*
X186801580Y-115857979D02*
X186801580Y-116096074D01*
X186801580Y-116096074D02*
X186753961Y-116238931D01*
X185801580Y-116667503D02*
X186801580Y-116667503D01*
X186801580Y-116667503D02*
X186801580Y-116905598D01*
X186801580Y-116905598D02*
X186753961Y-117048455D01*
X186753961Y-117048455D02*
X186658723Y-117143693D01*
X186658723Y-117143693D02*
X186563485Y-117191312D01*
X186563485Y-117191312D02*
X186373009Y-117238931D01*
X186373009Y-117238931D02*
X186230152Y-117238931D01*
X186230152Y-117238931D02*
X186039676Y-117191312D01*
X186039676Y-117191312D02*
X185944438Y-117143693D01*
X185944438Y-117143693D02*
X185849200Y-117048455D01*
X185849200Y-117048455D02*
X185801580Y-116905598D01*
X185801580Y-116905598D02*
X185801580Y-116667503D01*
X186087295Y-117619884D02*
X186087295Y-118096074D01*
X185801580Y-117524646D02*
X186801580Y-117857979D01*
X186801580Y-117857979D02*
X185801580Y-118191312D01*
X194421580Y-115548456D02*
X193421580Y-115881789D01*
X193421580Y-115881789D02*
X194421580Y-116215122D01*
X193516819Y-117119884D02*
X193469200Y-117072265D01*
X193469200Y-117072265D02*
X193421580Y-116929408D01*
X193421580Y-116929408D02*
X193421580Y-116834170D01*
X193421580Y-116834170D02*
X193469200Y-116691313D01*
X193469200Y-116691313D02*
X193564438Y-116596075D01*
X193564438Y-116596075D02*
X193659676Y-116548456D01*
X193659676Y-116548456D02*
X193850152Y-116500837D01*
X193850152Y-116500837D02*
X193993009Y-116500837D01*
X193993009Y-116500837D02*
X194183485Y-116548456D01*
X194183485Y-116548456D02*
X194278723Y-116596075D01*
X194278723Y-116596075D02*
X194373961Y-116691313D01*
X194373961Y-116691313D02*
X194421580Y-116834170D01*
X194421580Y-116834170D02*
X194421580Y-116929408D01*
X194421580Y-116929408D02*
X194373961Y-117072265D01*
X194373961Y-117072265D02*
X194326342Y-117119884D01*
X193516819Y-118119884D02*
X193469200Y-118072265D01*
X193469200Y-118072265D02*
X193421580Y-117929408D01*
X193421580Y-117929408D02*
X193421580Y-117834170D01*
X193421580Y-117834170D02*
X193469200Y-117691313D01*
X193469200Y-117691313D02*
X193564438Y-117596075D01*
X193564438Y-117596075D02*
X193659676Y-117548456D01*
X193659676Y-117548456D02*
X193850152Y-117500837D01*
X193850152Y-117500837D02*
X193993009Y-117500837D01*
X193993009Y-117500837D02*
X194183485Y-117548456D01*
X194183485Y-117548456D02*
X194278723Y-117596075D01*
X194278723Y-117596075D02*
X194373961Y-117691313D01*
X194373961Y-117691313D02*
X194421580Y-117834170D01*
X194421580Y-117834170D02*
X194421580Y-117929408D01*
X194421580Y-117929408D02*
X194373961Y-118072265D01*
X194373961Y-118072265D02*
X194326342Y-118119884D01*
X171085390Y-115096074D02*
X171085390Y-114762741D01*
X170561580Y-114762741D02*
X171561580Y-114762741D01*
X171561580Y-114762741D02*
X171561580Y-115238931D01*
X170609200Y-115572265D02*
X170561580Y-115715122D01*
X170561580Y-115715122D02*
X170561580Y-115953217D01*
X170561580Y-115953217D02*
X170609200Y-116048455D01*
X170609200Y-116048455D02*
X170656819Y-116096074D01*
X170656819Y-116096074D02*
X170752057Y-116143693D01*
X170752057Y-116143693D02*
X170847295Y-116143693D01*
X170847295Y-116143693D02*
X170942533Y-116096074D01*
X170942533Y-116096074D02*
X170990152Y-116048455D01*
X170990152Y-116048455D02*
X171037771Y-115953217D01*
X171037771Y-115953217D02*
X171085390Y-115762741D01*
X171085390Y-115762741D02*
X171133009Y-115667503D01*
X171133009Y-115667503D02*
X171180628Y-115619884D01*
X171180628Y-115619884D02*
X171275866Y-115572265D01*
X171275866Y-115572265D02*
X171371104Y-115572265D01*
X171371104Y-115572265D02*
X171466342Y-115619884D01*
X171466342Y-115619884D02*
X171513961Y-115667503D01*
X171513961Y-115667503D02*
X171561580Y-115762741D01*
X171561580Y-115762741D02*
X171561580Y-116000836D01*
X171561580Y-116000836D02*
X171513961Y-116143693D01*
X171037771Y-116762741D02*
X170561580Y-116762741D01*
X171561580Y-116429408D02*
X171037771Y-116762741D01*
X171037771Y-116762741D02*
X171561580Y-117096074D01*
X170561580Y-117429408D02*
X171561580Y-117429408D01*
X171561580Y-117429408D02*
X170561580Y-118000836D01*
X170561580Y-118000836D02*
X171561580Y-118000836D01*
X170656819Y-119048455D02*
X170609200Y-119000836D01*
X170609200Y-119000836D02*
X170561580Y-118857979D01*
X170561580Y-118857979D02*
X170561580Y-118762741D01*
X170561580Y-118762741D02*
X170609200Y-118619884D01*
X170609200Y-118619884D02*
X170704438Y-118524646D01*
X170704438Y-118524646D02*
X170799676Y-118477027D01*
X170799676Y-118477027D02*
X170990152Y-118429408D01*
X170990152Y-118429408D02*
X171133009Y-118429408D01*
X171133009Y-118429408D02*
X171323485Y-118477027D01*
X171323485Y-118477027D02*
X171418723Y-118524646D01*
X171418723Y-118524646D02*
X171513961Y-118619884D01*
X171513961Y-118619884D02*
X171561580Y-118762741D01*
X171561580Y-118762741D02*
X171561580Y-118857979D01*
X171561580Y-118857979D02*
X171513961Y-119000836D01*
X171513961Y-119000836D02*
X171466342Y-119048455D01*
X175641580Y-115977027D02*
X176641580Y-115977027D01*
X175641580Y-116453217D02*
X176641580Y-116453217D01*
X176641580Y-116453217D02*
X175641580Y-117024645D01*
X175641580Y-117024645D02*
X176641580Y-117024645D01*
X176641580Y-117357979D02*
X176641580Y-117929407D01*
X175641580Y-117643693D02*
X176641580Y-117643693D01*
X191833961Y-116119884D02*
X191881580Y-116024646D01*
X191881580Y-116024646D02*
X191881580Y-115881789D01*
X191881580Y-115881789D02*
X191833961Y-115738932D01*
X191833961Y-115738932D02*
X191738723Y-115643694D01*
X191738723Y-115643694D02*
X191643485Y-115596075D01*
X191643485Y-115596075D02*
X191453009Y-115548456D01*
X191453009Y-115548456D02*
X191310152Y-115548456D01*
X191310152Y-115548456D02*
X191119676Y-115596075D01*
X191119676Y-115596075D02*
X191024438Y-115643694D01*
X191024438Y-115643694D02*
X190929200Y-115738932D01*
X190929200Y-115738932D02*
X190881580Y-115881789D01*
X190881580Y-115881789D02*
X190881580Y-115977027D01*
X190881580Y-115977027D02*
X190929200Y-116119884D01*
X190929200Y-116119884D02*
X190976819Y-116167503D01*
X190976819Y-116167503D02*
X191310152Y-116167503D01*
X191310152Y-116167503D02*
X191310152Y-115977027D01*
X190881580Y-116596075D02*
X191881580Y-116596075D01*
X191881580Y-116596075D02*
X190881580Y-117167503D01*
X190881580Y-117167503D02*
X191881580Y-117167503D01*
X190881580Y-117643694D02*
X191881580Y-117643694D01*
X191881580Y-117643694D02*
X191881580Y-117881789D01*
X191881580Y-117881789D02*
X191833961Y-118024646D01*
X191833961Y-118024646D02*
X191738723Y-118119884D01*
X191738723Y-118119884D02*
X191643485Y-118167503D01*
X191643485Y-118167503D02*
X191453009Y-118215122D01*
X191453009Y-118215122D02*
X191310152Y-118215122D01*
X191310152Y-118215122D02*
X191119676Y-118167503D01*
X191119676Y-118167503D02*
X191024438Y-118119884D01*
X191024438Y-118119884D02*
X190929200Y-118024646D01*
X190929200Y-118024646D02*
X190881580Y-117881789D01*
X190881580Y-117881789D02*
X190881580Y-117643694D01*
X173101580Y-115619884D02*
X174101580Y-115619884D01*
X174101580Y-115619884D02*
X173101580Y-116191312D01*
X173101580Y-116191312D02*
X174101580Y-116191312D01*
X173196819Y-117238931D02*
X173149200Y-117191312D01*
X173149200Y-117191312D02*
X173101580Y-117048455D01*
X173101580Y-117048455D02*
X173101580Y-116953217D01*
X173101580Y-116953217D02*
X173149200Y-116810360D01*
X173149200Y-116810360D02*
X173244438Y-116715122D01*
X173244438Y-116715122D02*
X173339676Y-116667503D01*
X173339676Y-116667503D02*
X173530152Y-116619884D01*
X173530152Y-116619884D02*
X173673009Y-116619884D01*
X173673009Y-116619884D02*
X173863485Y-116667503D01*
X173863485Y-116667503D02*
X173958723Y-116715122D01*
X173958723Y-116715122D02*
X174053961Y-116810360D01*
X174053961Y-116810360D02*
X174101580Y-116953217D01*
X174101580Y-116953217D02*
X174101580Y-117048455D01*
X174101580Y-117048455D02*
X174053961Y-117191312D01*
X174053961Y-117191312D02*
X174006342Y-117238931D01*
X173149200Y-117619884D02*
X173101580Y-117762741D01*
X173101580Y-117762741D02*
X173101580Y-118000836D01*
X173101580Y-118000836D02*
X173149200Y-118096074D01*
X173149200Y-118096074D02*
X173196819Y-118143693D01*
X173196819Y-118143693D02*
X173292057Y-118191312D01*
X173292057Y-118191312D02*
X173387295Y-118191312D01*
X173387295Y-118191312D02*
X173482533Y-118143693D01*
X173482533Y-118143693D02*
X173530152Y-118096074D01*
X173530152Y-118096074D02*
X173577771Y-118000836D01*
X173577771Y-118000836D02*
X173625390Y-117810360D01*
X173625390Y-117810360D02*
X173673009Y-117715122D01*
X173673009Y-117715122D02*
X173720628Y-117667503D01*
X173720628Y-117667503D02*
X173815866Y-117619884D01*
X173815866Y-117619884D02*
X173911104Y-117619884D01*
X173911104Y-117619884D02*
X174006342Y-117667503D01*
X174006342Y-117667503D02*
X174053961Y-117715122D01*
X174053961Y-117715122D02*
X174101580Y-117810360D01*
X174101580Y-117810360D02*
X174101580Y-118048455D01*
X174101580Y-118048455D02*
X174053961Y-118191312D01*
X178467295Y-115619884D02*
X178467295Y-116096074D01*
X178181580Y-115524646D02*
X179181580Y-115857979D01*
X179181580Y-115857979D02*
X178181580Y-116191312D01*
X178181580Y-116524646D02*
X179181580Y-116524646D01*
X179181580Y-116524646D02*
X179181580Y-116762741D01*
X179181580Y-116762741D02*
X179133961Y-116905598D01*
X179133961Y-116905598D02*
X179038723Y-117000836D01*
X179038723Y-117000836D02*
X178943485Y-117048455D01*
X178943485Y-117048455D02*
X178753009Y-117096074D01*
X178753009Y-117096074D02*
X178610152Y-117096074D01*
X178610152Y-117096074D02*
X178419676Y-117048455D01*
X178419676Y-117048455D02*
X178324438Y-117000836D01*
X178324438Y-117000836D02*
X178229200Y-116905598D01*
X178229200Y-116905598D02*
X178181580Y-116762741D01*
X178181580Y-116762741D02*
X178181580Y-116524646D01*
X179181580Y-117715122D02*
X179181580Y-117905598D01*
X179181580Y-117905598D02*
X179133961Y-118000836D01*
X179133961Y-118000836D02*
X179038723Y-118096074D01*
X179038723Y-118096074D02*
X178848247Y-118143693D01*
X178848247Y-118143693D02*
X178514914Y-118143693D01*
X178514914Y-118143693D02*
X178324438Y-118096074D01*
X178324438Y-118096074D02*
X178229200Y-118000836D01*
X178229200Y-118000836D02*
X178181580Y-117905598D01*
X178181580Y-117905598D02*
X178181580Y-117715122D01*
X178181580Y-117715122D02*
X178229200Y-117619884D01*
X178229200Y-117619884D02*
X178324438Y-117524646D01*
X178324438Y-117524646D02*
X178514914Y-117477027D01*
X178514914Y-117477027D02*
X178848247Y-117477027D01*
X178848247Y-117477027D02*
X179038723Y-117524646D01*
X179038723Y-117524646D02*
X179133961Y-117619884D01*
X179133961Y-117619884D02*
X179181580Y-117715122D01*
X181245390Y-115762741D02*
X181245390Y-116096074D01*
X180721580Y-116238931D02*
X180721580Y-115762741D01*
X180721580Y-115762741D02*
X181721580Y-115762741D01*
X181721580Y-115762741D02*
X181721580Y-116238931D01*
X180816819Y-117238931D02*
X180769200Y-117191312D01*
X180769200Y-117191312D02*
X180721580Y-117048455D01*
X180721580Y-117048455D02*
X180721580Y-116953217D01*
X180721580Y-116953217D02*
X180769200Y-116810360D01*
X180769200Y-116810360D02*
X180864438Y-116715122D01*
X180864438Y-116715122D02*
X180959676Y-116667503D01*
X180959676Y-116667503D02*
X181150152Y-116619884D01*
X181150152Y-116619884D02*
X181293009Y-116619884D01*
X181293009Y-116619884D02*
X181483485Y-116667503D01*
X181483485Y-116667503D02*
X181578723Y-116715122D01*
X181578723Y-116715122D02*
X181673961Y-116810360D01*
X181673961Y-116810360D02*
X181721580Y-116953217D01*
X181721580Y-116953217D02*
X181721580Y-117048455D01*
X181721580Y-117048455D02*
X181673961Y-117191312D01*
X181673961Y-117191312D02*
X181626342Y-117238931D01*
X180721580Y-118143693D02*
X180721580Y-117667503D01*
X180721580Y-117667503D02*
X181721580Y-117667503D01*
X188389200Y-115691313D02*
X188341580Y-115834170D01*
X188341580Y-115834170D02*
X188341580Y-116072265D01*
X188341580Y-116072265D02*
X188389200Y-116167503D01*
X188389200Y-116167503D02*
X188436819Y-116215122D01*
X188436819Y-116215122D02*
X188532057Y-116262741D01*
X188532057Y-116262741D02*
X188627295Y-116262741D01*
X188627295Y-116262741D02*
X188722533Y-116215122D01*
X188722533Y-116215122D02*
X188770152Y-116167503D01*
X188770152Y-116167503D02*
X188817771Y-116072265D01*
X188817771Y-116072265D02*
X188865390Y-115881789D01*
X188865390Y-115881789D02*
X188913009Y-115786551D01*
X188913009Y-115786551D02*
X188960628Y-115738932D01*
X188960628Y-115738932D02*
X189055866Y-115691313D01*
X189055866Y-115691313D02*
X189151104Y-115691313D01*
X189151104Y-115691313D02*
X189246342Y-115738932D01*
X189246342Y-115738932D02*
X189293961Y-115786551D01*
X189293961Y-115786551D02*
X189341580Y-115881789D01*
X189341580Y-115881789D02*
X189341580Y-116119884D01*
X189341580Y-116119884D02*
X189293961Y-116262741D01*
X188436819Y-117262741D02*
X188389200Y-117215122D01*
X188389200Y-117215122D02*
X188341580Y-117072265D01*
X188341580Y-117072265D02*
X188341580Y-116977027D01*
X188341580Y-116977027D02*
X188389200Y-116834170D01*
X188389200Y-116834170D02*
X188484438Y-116738932D01*
X188484438Y-116738932D02*
X188579676Y-116691313D01*
X188579676Y-116691313D02*
X188770152Y-116643694D01*
X188770152Y-116643694D02*
X188913009Y-116643694D01*
X188913009Y-116643694D02*
X189103485Y-116691313D01*
X189103485Y-116691313D02*
X189198723Y-116738932D01*
X189198723Y-116738932D02*
X189293961Y-116834170D01*
X189293961Y-116834170D02*
X189341580Y-116977027D01*
X189341580Y-116977027D02*
X189341580Y-117072265D01*
X189341580Y-117072265D02*
X189293961Y-117215122D01*
X189293961Y-117215122D02*
X189246342Y-117262741D01*
X188341580Y-118167503D02*
X188341580Y-117691313D01*
X188341580Y-117691313D02*
X189341580Y-117691313D01*
D12*
X217125580Y-84592015D02*
X217173200Y-84639634D01*
X217173200Y-84639634D02*
X217220819Y-84782491D01*
X217220819Y-84782491D02*
X217220819Y-84877729D01*
X217220819Y-84877729D02*
X217173200Y-85020586D01*
X217173200Y-85020586D02*
X217077961Y-85115824D01*
X217077961Y-85115824D02*
X216982723Y-85163443D01*
X216982723Y-85163443D02*
X216792247Y-85211062D01*
X216792247Y-85211062D02*
X216649390Y-85211062D01*
X216649390Y-85211062D02*
X216458914Y-85163443D01*
X216458914Y-85163443D02*
X216363676Y-85115824D01*
X216363676Y-85115824D02*
X216268438Y-85020586D01*
X216268438Y-85020586D02*
X216220819Y-84877729D01*
X216220819Y-84877729D02*
X216220819Y-84782491D01*
X216220819Y-84782491D02*
X216268438Y-84639634D01*
X216268438Y-84639634D02*
X216316057Y-84592015D01*
X216220819Y-84258681D02*
X216220819Y-83639634D01*
X216220819Y-83639634D02*
X216601771Y-83972967D01*
X216601771Y-83972967D02*
X216601771Y-83830110D01*
X216601771Y-83830110D02*
X216649390Y-83734872D01*
X216649390Y-83734872D02*
X216697009Y-83687253D01*
X216697009Y-83687253D02*
X216792247Y-83639634D01*
X216792247Y-83639634D02*
X217030342Y-83639634D01*
X217030342Y-83639634D02*
X217125580Y-83687253D01*
X217125580Y-83687253D02*
X217173200Y-83734872D01*
X217173200Y-83734872D02*
X217220819Y-83830110D01*
X217220819Y-83830110D02*
X217220819Y-84115824D01*
X217220819Y-84115824D02*
X217173200Y-84211062D01*
X217173200Y-84211062D02*
X217125580Y-84258681D01*
D11*
X115862904Y-120759580D02*
X115862904Y-119950057D01*
X115862904Y-119950057D02*
X115815285Y-119854819D01*
X115815285Y-119854819D02*
X115767666Y-119807200D01*
X115767666Y-119807200D02*
X115672428Y-119759580D01*
X115672428Y-119759580D02*
X115481952Y-119759580D01*
X115481952Y-119759580D02*
X115386714Y-119807200D01*
X115386714Y-119807200D02*
X115339095Y-119854819D01*
X115339095Y-119854819D02*
X115291476Y-119950057D01*
X115291476Y-119950057D02*
X115291476Y-120759580D01*
X114910523Y-120759580D02*
X114243857Y-120759580D01*
X114243857Y-120759580D02*
X114672428Y-119759580D01*
D12*
X75805866Y-61487904D02*
X75758247Y-61440285D01*
X75758247Y-61440285D02*
X75710628Y-61345047D01*
X75710628Y-61345047D02*
X75805866Y-61154571D01*
X75805866Y-61154571D02*
X75758247Y-61059333D01*
X75758247Y-61059333D02*
X75710628Y-61011714D01*
X120244095Y-124988819D02*
X120815523Y-124988819D01*
X120529809Y-125988819D02*
X120529809Y-124988819D01*
X121148857Y-125988819D02*
X121148857Y-124988819D01*
X121148857Y-124988819D02*
X121529809Y-124988819D01*
X121529809Y-124988819D02*
X121625047Y-125036438D01*
X121625047Y-125036438D02*
X121672666Y-125084057D01*
X121672666Y-125084057D02*
X121720285Y-125179295D01*
X121720285Y-125179295D02*
X121720285Y-125322152D01*
X121720285Y-125322152D02*
X121672666Y-125417390D01*
X121672666Y-125417390D02*
X121625047Y-125465009D01*
X121625047Y-125465009D02*
X121529809Y-125512628D01*
X121529809Y-125512628D02*
X121148857Y-125512628D01*
X122672666Y-125988819D02*
X122101238Y-125988819D01*
X122386952Y-125988819D02*
X122386952Y-124988819D01*
X122386952Y-124988819D02*
X122291714Y-125131676D01*
X122291714Y-125131676D02*
X122196476Y-125226914D01*
X122196476Y-125226914D02*
X122101238Y-125274533D01*
D13*
%TO.C,Oled_screen1*%
X216494500Y-88656000D02*
X217764500Y-88656000D01*
X216494500Y-89926000D02*
X216494500Y-88656000D01*
X218807429Y-92086000D02*
X219204500Y-92086000D01*
X218807429Y-92846000D02*
X219204500Y-92846000D01*
X218807429Y-94626000D02*
X219204500Y-94626000D01*
X218807429Y-95386000D02*
X219204500Y-95386000D01*
X218807429Y-97166000D02*
X219204500Y-97166000D01*
X218807429Y-97926000D02*
X219204500Y-97926000D01*
X218874500Y-89546000D02*
X219204500Y-89546000D01*
X218874500Y-90306000D02*
X219204500Y-90306000D01*
X219204500Y-88596000D02*
X219204500Y-98876000D01*
X219204500Y-91196000D02*
X221864500Y-91196000D01*
X219204500Y-93736000D02*
X221864500Y-93736000D01*
X219204500Y-96276000D02*
X221864500Y-96276000D01*
X219204500Y-98876000D02*
X221864500Y-98876000D01*
X221864500Y-88596000D02*
X219204500Y-88596000D01*
X221864500Y-89546000D02*
X227864500Y-89546000D01*
X221864500Y-89606000D02*
X227864500Y-89606000D01*
X221864500Y-89726000D02*
X227864500Y-89726000D01*
X221864500Y-89846000D02*
X227864500Y-89846000D01*
X221864500Y-89966000D02*
X227864500Y-89966000D01*
X221864500Y-90086000D02*
X227864500Y-90086000D01*
X221864500Y-90206000D02*
X227864500Y-90206000D01*
X221864500Y-92086000D02*
X227864500Y-92086000D01*
X221864500Y-94626000D02*
X227864500Y-94626000D01*
X221864500Y-97166000D02*
X227864500Y-97166000D01*
X221864500Y-98876000D02*
X221864500Y-88596000D01*
X227864500Y-89546000D02*
X227864500Y-90306000D01*
X227864500Y-90306000D02*
X221864500Y-90306000D01*
X227864500Y-92086000D02*
X227864500Y-92846000D01*
X227864500Y-92846000D02*
X221864500Y-92846000D01*
X227864500Y-94626000D02*
X227864500Y-95386000D01*
X227864500Y-95386000D02*
X221864500Y-95386000D01*
X227864500Y-97166000D02*
X227864500Y-97926000D01*
X227864500Y-97926000D02*
X221864500Y-97926000D01*
%TO.C,U3*%
D14*
X132826000Y-119262500D02*
X157826000Y-119262500D01*
X157826000Y-135262500D01*
X132826000Y-135262500D01*
X132826000Y-119262500D01*
D13*
%TO.C,C1*%
X190476000Y-85146349D02*
X187499000Y-85146349D01*
X190476000Y-85186349D02*
X187506000Y-85186349D01*
X190476000Y-85226349D02*
X187514000Y-85226349D01*
X190476000Y-85266349D02*
X187522000Y-85266349D01*
X190476000Y-85306349D02*
X187531000Y-85306349D01*
X190476000Y-85346349D02*
X187540000Y-85346349D01*
X190476000Y-85386349D02*
X187549000Y-85386349D01*
X190476000Y-85426349D02*
X187559000Y-85426349D01*
X190476000Y-85466349D02*
X187569000Y-85466349D01*
X190476000Y-85506349D02*
X187580000Y-85506349D01*
X190476000Y-85546349D02*
X187591000Y-85546349D01*
X190476000Y-85586349D02*
X187602000Y-85586349D01*
X190476000Y-85626349D02*
X187614000Y-85626349D01*
X190476000Y-85666349D02*
X187627000Y-85666349D01*
X190476000Y-85706349D02*
X187639000Y-85706349D01*
X190476000Y-85746349D02*
X187653000Y-85746349D01*
X190476000Y-85786349D02*
X187666000Y-85786349D01*
X190476000Y-85826349D02*
X187681000Y-85826349D01*
X190476000Y-85866349D02*
X187695000Y-85866349D01*
X190476000Y-85906349D02*
X187711000Y-85906349D01*
X190476000Y-85946349D02*
X187726000Y-85946349D01*
X190476000Y-85986349D02*
X187742000Y-85986349D01*
X190476000Y-86026349D02*
X187759000Y-86026349D01*
X190476000Y-86066349D02*
X187776000Y-86066349D01*
X190476000Y-86106349D02*
X187794000Y-86106349D01*
X190476000Y-86146349D02*
X187812000Y-86146349D01*
X190476000Y-86186349D02*
X187830000Y-86186349D01*
X190476000Y-86226349D02*
X187850000Y-86226349D01*
X190476000Y-86266349D02*
X187869000Y-86266349D01*
X190476000Y-86306349D02*
X187889000Y-86306349D01*
X190476000Y-86346349D02*
X187910000Y-86346349D01*
X190476000Y-86386349D02*
X187932000Y-86386349D01*
X190476000Y-86426349D02*
X187954000Y-86426349D01*
X190476000Y-86466349D02*
X187976000Y-86466349D01*
X190476000Y-86506349D02*
X187999000Y-86506349D01*
X190476000Y-86546349D02*
X188023000Y-86546349D01*
X190476000Y-86586349D02*
X188047000Y-86586349D01*
X190476000Y-86626349D02*
X188072000Y-86626349D01*
X190476000Y-86666349D02*
X188098000Y-86666349D01*
X190476000Y-86706349D02*
X188124000Y-86706349D01*
X190476000Y-86746349D02*
X188151000Y-86746349D01*
X190476000Y-86786349D02*
X188178000Y-86786349D01*
X190476000Y-86826349D02*
X188207000Y-86826349D01*
X190476000Y-86866349D02*
X188236000Y-86866349D01*
X190476000Y-86906349D02*
X188266000Y-86906349D01*
X190476000Y-86946349D02*
X188296000Y-86946349D01*
X190476000Y-86986349D02*
X188327000Y-86986349D01*
X190476000Y-87026349D02*
X188360000Y-87026349D01*
X190476000Y-87066349D02*
X188392000Y-87066349D01*
X190476000Y-87106349D02*
X188426000Y-87106349D01*
X190476000Y-87146349D02*
X188461000Y-87146349D01*
X190476000Y-87186349D02*
X188497000Y-87186349D01*
X192049000Y-88506349D02*
X190983000Y-88506349D01*
X192284000Y-88466349D02*
X190748000Y-88466349D01*
X192464000Y-88426349D02*
X190568000Y-88426349D01*
X192614000Y-88386349D02*
X190418000Y-88386349D01*
X192745000Y-88346349D02*
X190287000Y-88346349D01*
X192862000Y-88306349D02*
X190170000Y-88306349D01*
X192969000Y-88266349D02*
X190063000Y-88266349D01*
X193068000Y-88226349D02*
X189964000Y-88226349D01*
X193161000Y-88186349D02*
X189871000Y-88186349D01*
X193247000Y-88146349D02*
X189785000Y-88146349D01*
X193329000Y-88106349D02*
X189703000Y-88106349D01*
X193406000Y-88066349D02*
X189626000Y-88066349D01*
X193480000Y-88026349D02*
X189552000Y-88026349D01*
X193550000Y-87986349D02*
X189482000Y-87986349D01*
X193618000Y-87946349D02*
X189414000Y-87946349D01*
X193682000Y-87906349D02*
X189350000Y-87906349D01*
X193744000Y-87866349D02*
X189288000Y-87866349D01*
X193803000Y-87826349D02*
X189229000Y-87826349D01*
X193831000Y-80015651D02*
X193831000Y-80815651D01*
X193861000Y-87786349D02*
X189171000Y-87786349D01*
X193916000Y-87746349D02*
X189116000Y-87746349D01*
X193970000Y-87706349D02*
X189062000Y-87706349D01*
X194021000Y-87666349D02*
X189011000Y-87666349D01*
X194072000Y-87626349D02*
X188960000Y-87626349D01*
X194120000Y-87586349D02*
X188912000Y-87586349D01*
X194167000Y-87546349D02*
X188865000Y-87546349D01*
X194213000Y-87506349D02*
X188819000Y-87506349D01*
X194231000Y-80415651D02*
X193431000Y-80415651D01*
X194257000Y-87466349D02*
X188775000Y-87466349D01*
X194300000Y-87426349D02*
X188732000Y-87426349D01*
X194342000Y-87386349D02*
X188690000Y-87386349D01*
X194383000Y-87346349D02*
X188649000Y-87346349D01*
X194423000Y-87306349D02*
X188609000Y-87306349D01*
X194461000Y-87266349D02*
X188571000Y-87266349D01*
X194499000Y-87226349D02*
X188533000Y-87226349D01*
X194535000Y-87186349D02*
X192556000Y-87186349D01*
X194571000Y-87146349D02*
X192556000Y-87146349D01*
X194606000Y-87106349D02*
X192556000Y-87106349D01*
X194640000Y-87066349D02*
X192556000Y-87066349D01*
X194672000Y-87026349D02*
X192556000Y-87026349D01*
X194705000Y-86986349D02*
X192556000Y-86986349D01*
X194736000Y-86946349D02*
X192556000Y-86946349D01*
X194766000Y-86906349D02*
X192556000Y-86906349D01*
X194796000Y-86866349D02*
X192556000Y-86866349D01*
X194825000Y-86826349D02*
X192556000Y-86826349D01*
X194854000Y-86786349D02*
X192556000Y-86786349D01*
X194881000Y-86746349D02*
X192556000Y-86746349D01*
X194908000Y-86706349D02*
X192556000Y-86706349D01*
X194934000Y-86666349D02*
X192556000Y-86666349D01*
X194960000Y-86626349D02*
X192556000Y-86626349D01*
X194985000Y-86586349D02*
X192556000Y-86586349D01*
X195009000Y-86546349D02*
X192556000Y-86546349D01*
X195033000Y-86506349D02*
X192556000Y-86506349D01*
X195056000Y-86466349D02*
X192556000Y-86466349D01*
X195078000Y-86426349D02*
X192556000Y-86426349D01*
X195100000Y-86386349D02*
X192556000Y-86386349D01*
X195122000Y-86346349D02*
X192556000Y-86346349D01*
X195143000Y-86306349D02*
X192556000Y-86306349D01*
X195163000Y-86266349D02*
X192556000Y-86266349D01*
X195182000Y-86226349D02*
X192556000Y-86226349D01*
X195202000Y-86186349D02*
X192556000Y-86186349D01*
X195220000Y-86146349D02*
X192556000Y-86146349D01*
X195238000Y-86106349D02*
X192556000Y-86106349D01*
X195256000Y-86066349D02*
X192556000Y-86066349D01*
X195273000Y-86026349D02*
X192556000Y-86026349D01*
X195290000Y-85986349D02*
X192556000Y-85986349D01*
X195306000Y-85946349D02*
X192556000Y-85946349D01*
X195321000Y-85906349D02*
X192556000Y-85906349D01*
X195337000Y-85866349D02*
X192556000Y-85866349D01*
X195351000Y-85826349D02*
X192556000Y-85826349D01*
X195366000Y-85786349D02*
X192556000Y-85786349D01*
X195379000Y-85746349D02*
X192556000Y-85746349D01*
X195393000Y-85706349D02*
X192556000Y-85706349D01*
X195405000Y-85666349D02*
X192556000Y-85666349D01*
X195418000Y-85626349D02*
X192556000Y-85626349D01*
X195430000Y-85586349D02*
X192556000Y-85586349D01*
X195441000Y-85546349D02*
X192556000Y-85546349D01*
X195452000Y-85506349D02*
X192556000Y-85506349D01*
X195463000Y-85466349D02*
X192556000Y-85466349D01*
X195473000Y-85426349D02*
X192556000Y-85426349D01*
X195483000Y-85386349D02*
X192556000Y-85386349D01*
X195492000Y-85346349D02*
X192556000Y-85346349D01*
X195501000Y-85306349D02*
X192556000Y-85306349D01*
X195510000Y-85266349D02*
X192556000Y-85266349D01*
X195518000Y-85226349D02*
X192556000Y-85226349D01*
X195526000Y-85186349D02*
X192556000Y-85186349D01*
X195533000Y-85146349D02*
X192556000Y-85146349D01*
X195540000Y-85105349D02*
X187492000Y-85105349D01*
X195546000Y-85065349D02*
X187486000Y-85065349D01*
X195553000Y-85025349D02*
X187479000Y-85025349D01*
X195558000Y-84985349D02*
X187474000Y-84985349D01*
X195564000Y-84945349D02*
X187468000Y-84945349D01*
X195568000Y-84905349D02*
X187464000Y-84905349D01*
X195573000Y-84865349D02*
X187459000Y-84865349D01*
X195577000Y-84825349D02*
X187455000Y-84825349D01*
X195581000Y-84785349D02*
X187451000Y-84785349D01*
X195584000Y-84745349D02*
X187448000Y-84745349D01*
X195587000Y-84705349D02*
X187445000Y-84705349D01*
X195590000Y-84665349D02*
X187442000Y-84665349D01*
X195592000Y-84625349D02*
X187440000Y-84625349D01*
X195593000Y-84585349D02*
X187439000Y-84585349D01*
X195595000Y-84545349D02*
X187437000Y-84545349D01*
X195596000Y-84425349D02*
X187436000Y-84425349D01*
X195596000Y-84465349D02*
X187436000Y-84465349D01*
X195596000Y-84505349D02*
X187436000Y-84505349D01*
X195636000Y-84425349D02*
G75*
G02*
X187396000Y-84425349I-4120000J0D01*
G01*
X187396000Y-84425349D02*
G75*
G02*
X195636000Y-84425349I4120000J0D01*
G01*
%TO.C,U4*%
D11*
X87376000Y-120151000D02*
X71076000Y-120151000D01*
X71076000Y-132301000D01*
X87376000Y-132301000D01*
X87376000Y-120151000D01*
%TO.C,GPS1*%
X104640000Y-90398000D02*
X129640000Y-90398000D01*
X129640000Y-55398000D01*
X104640000Y-55398000D01*
X104640000Y-90398000D01*
D13*
%TO.C,NRF1*%
X184070000Y-62962000D02*
X184070000Y-62962000D01*
X184070000Y-62962000D02*
X189404000Y-62962000D01*
X184070000Y-73630000D02*
X184070000Y-62962000D01*
X184070000Y-73630000D02*
X184070000Y-73630000D01*
X189404000Y-62962000D02*
X189404000Y-73630000D01*
X189404000Y-73630000D02*
X184070000Y-73630000D01*
D11*
X183816000Y-60676000D02*
X224616000Y-60676000D01*
X224616000Y-75976000D01*
X183816000Y-75976000D01*
X183816000Y-60676000D01*
D13*
%TO.C,J1*%
X90618000Y-116780000D02*
X90618000Y-119440000D01*
X98298000Y-116780000D02*
X90618000Y-116780000D01*
X98298000Y-116780000D02*
X98298000Y-119440000D01*
X98298000Y-119440000D02*
X90618000Y-119440000D01*
X99568000Y-116780000D02*
X100898000Y-116780000D01*
X100898000Y-116780000D02*
X100898000Y-118110000D01*
%TO.C,C2*%
X200476000Y-85146349D02*
X197499000Y-85146349D01*
X200476000Y-85186349D02*
X197506000Y-85186349D01*
X200476000Y-85226349D02*
X197514000Y-85226349D01*
X200476000Y-85266349D02*
X197522000Y-85266349D01*
X200476000Y-85306349D02*
X197531000Y-85306349D01*
X200476000Y-85346349D02*
X197540000Y-85346349D01*
X200476000Y-85386349D02*
X197549000Y-85386349D01*
X200476000Y-85426349D02*
X197559000Y-85426349D01*
X200476000Y-85466349D02*
X197569000Y-85466349D01*
X200476000Y-85506349D02*
X197580000Y-85506349D01*
X200476000Y-85546349D02*
X197591000Y-85546349D01*
X200476000Y-85586349D02*
X197602000Y-85586349D01*
X200476000Y-85626349D02*
X197614000Y-85626349D01*
X200476000Y-85666349D02*
X197627000Y-85666349D01*
X200476000Y-85706349D02*
X197639000Y-85706349D01*
X200476000Y-85746349D02*
X197653000Y-85746349D01*
X200476000Y-85786349D02*
X197666000Y-85786349D01*
X200476000Y-85826349D02*
X197681000Y-85826349D01*
X200476000Y-85866349D02*
X197695000Y-85866349D01*
X200476000Y-85906349D02*
X197711000Y-85906349D01*
X200476000Y-85946349D02*
X197726000Y-85946349D01*
X200476000Y-85986349D02*
X197742000Y-85986349D01*
X200476000Y-86026349D02*
X197759000Y-86026349D01*
X200476000Y-86066349D02*
X197776000Y-86066349D01*
X200476000Y-86106349D02*
X197794000Y-86106349D01*
X200476000Y-86146349D02*
X197812000Y-86146349D01*
X200476000Y-86186349D02*
X197830000Y-86186349D01*
X200476000Y-86226349D02*
X197850000Y-86226349D01*
X200476000Y-86266349D02*
X197869000Y-86266349D01*
X200476000Y-86306349D02*
X197889000Y-86306349D01*
X200476000Y-86346349D02*
X197910000Y-86346349D01*
X200476000Y-86386349D02*
X197932000Y-86386349D01*
X200476000Y-86426349D02*
X197954000Y-86426349D01*
X200476000Y-86466349D02*
X197976000Y-86466349D01*
X200476000Y-86506349D02*
X197999000Y-86506349D01*
X200476000Y-86546349D02*
X198023000Y-86546349D01*
X200476000Y-86586349D02*
X198047000Y-86586349D01*
X200476000Y-86626349D02*
X198072000Y-86626349D01*
X200476000Y-86666349D02*
X198098000Y-86666349D01*
X200476000Y-86706349D02*
X198124000Y-86706349D01*
X200476000Y-86746349D02*
X198151000Y-86746349D01*
X200476000Y-86786349D02*
X198178000Y-86786349D01*
X200476000Y-86826349D02*
X198207000Y-86826349D01*
X200476000Y-86866349D02*
X198236000Y-86866349D01*
X200476000Y-86906349D02*
X198266000Y-86906349D01*
X200476000Y-86946349D02*
X198296000Y-86946349D01*
X200476000Y-86986349D02*
X198327000Y-86986349D01*
X200476000Y-87026349D02*
X198360000Y-87026349D01*
X200476000Y-87066349D02*
X198392000Y-87066349D01*
X200476000Y-87106349D02*
X198426000Y-87106349D01*
X200476000Y-87146349D02*
X198461000Y-87146349D01*
X200476000Y-87186349D02*
X198497000Y-87186349D01*
X202049000Y-88506349D02*
X200983000Y-88506349D01*
X202284000Y-88466349D02*
X200748000Y-88466349D01*
X202464000Y-88426349D02*
X200568000Y-88426349D01*
X202614000Y-88386349D02*
X200418000Y-88386349D01*
X202745000Y-88346349D02*
X200287000Y-88346349D01*
X202862000Y-88306349D02*
X200170000Y-88306349D01*
X202969000Y-88266349D02*
X200063000Y-88266349D01*
X203068000Y-88226349D02*
X199964000Y-88226349D01*
X203161000Y-88186349D02*
X199871000Y-88186349D01*
X203247000Y-88146349D02*
X199785000Y-88146349D01*
X203329000Y-88106349D02*
X199703000Y-88106349D01*
X203406000Y-88066349D02*
X199626000Y-88066349D01*
X203480000Y-88026349D02*
X199552000Y-88026349D01*
X203550000Y-87986349D02*
X199482000Y-87986349D01*
X203618000Y-87946349D02*
X199414000Y-87946349D01*
X203682000Y-87906349D02*
X199350000Y-87906349D01*
X203744000Y-87866349D02*
X199288000Y-87866349D01*
X203803000Y-87826349D02*
X199229000Y-87826349D01*
X203831000Y-80015651D02*
X203831000Y-80815651D01*
X203861000Y-87786349D02*
X199171000Y-87786349D01*
X203916000Y-87746349D02*
X199116000Y-87746349D01*
X203970000Y-87706349D02*
X199062000Y-87706349D01*
X204021000Y-87666349D02*
X199011000Y-87666349D01*
X204072000Y-87626349D02*
X198960000Y-87626349D01*
X204120000Y-87586349D02*
X198912000Y-87586349D01*
X204167000Y-87546349D02*
X198865000Y-87546349D01*
X204213000Y-87506349D02*
X198819000Y-87506349D01*
X204231000Y-80415651D02*
X203431000Y-80415651D01*
X204257000Y-87466349D02*
X198775000Y-87466349D01*
X204300000Y-87426349D02*
X198732000Y-87426349D01*
X204342000Y-87386349D02*
X198690000Y-87386349D01*
X204383000Y-87346349D02*
X198649000Y-87346349D01*
X204423000Y-87306349D02*
X198609000Y-87306349D01*
X204461000Y-87266349D02*
X198571000Y-87266349D01*
X204499000Y-87226349D02*
X198533000Y-87226349D01*
X204535000Y-87186349D02*
X202556000Y-87186349D01*
X204571000Y-87146349D02*
X202556000Y-87146349D01*
X204606000Y-87106349D02*
X202556000Y-87106349D01*
X204640000Y-87066349D02*
X202556000Y-87066349D01*
X204672000Y-87026349D02*
X202556000Y-87026349D01*
X204705000Y-86986349D02*
X202556000Y-86986349D01*
X204736000Y-86946349D02*
X202556000Y-86946349D01*
X204766000Y-86906349D02*
X202556000Y-86906349D01*
X204796000Y-86866349D02*
X202556000Y-86866349D01*
X204825000Y-86826349D02*
X202556000Y-86826349D01*
X204854000Y-86786349D02*
X202556000Y-86786349D01*
X204881000Y-86746349D02*
X202556000Y-86746349D01*
X204908000Y-86706349D02*
X202556000Y-86706349D01*
X204934000Y-86666349D02*
X202556000Y-86666349D01*
X204960000Y-86626349D02*
X202556000Y-86626349D01*
X204985000Y-86586349D02*
X202556000Y-86586349D01*
X205009000Y-86546349D02*
X202556000Y-86546349D01*
X205033000Y-86506349D02*
X202556000Y-86506349D01*
X205056000Y-86466349D02*
X202556000Y-86466349D01*
X205078000Y-86426349D02*
X202556000Y-86426349D01*
X205100000Y-86386349D02*
X202556000Y-86386349D01*
X205122000Y-86346349D02*
X202556000Y-86346349D01*
X205143000Y-86306349D02*
X202556000Y-86306349D01*
X205163000Y-86266349D02*
X202556000Y-86266349D01*
X205182000Y-86226349D02*
X202556000Y-86226349D01*
X205202000Y-86186349D02*
X202556000Y-86186349D01*
X205220000Y-86146349D02*
X202556000Y-86146349D01*
X205238000Y-86106349D02*
X202556000Y-86106349D01*
X205256000Y-86066349D02*
X202556000Y-86066349D01*
X205273000Y-86026349D02*
X202556000Y-86026349D01*
X205290000Y-85986349D02*
X202556000Y-85986349D01*
X205306000Y-85946349D02*
X202556000Y-85946349D01*
X205321000Y-85906349D02*
X202556000Y-85906349D01*
X205337000Y-85866349D02*
X202556000Y-85866349D01*
X205351000Y-85826349D02*
X202556000Y-85826349D01*
X205366000Y-85786349D02*
X202556000Y-85786349D01*
X205379000Y-85746349D02*
X202556000Y-85746349D01*
X205393000Y-85706349D02*
X202556000Y-85706349D01*
X205405000Y-85666349D02*
X202556000Y-85666349D01*
X205418000Y-85626349D02*
X202556000Y-85626349D01*
X205430000Y-85586349D02*
X202556000Y-85586349D01*
X205441000Y-85546349D02*
X202556000Y-85546349D01*
X205452000Y-85506349D02*
X202556000Y-85506349D01*
X205463000Y-85466349D02*
X202556000Y-85466349D01*
X205473000Y-85426349D02*
X202556000Y-85426349D01*
X205483000Y-85386349D02*
X202556000Y-85386349D01*
X205492000Y-85346349D02*
X202556000Y-85346349D01*
X205501000Y-85306349D02*
X202556000Y-85306349D01*
X205510000Y-85266349D02*
X202556000Y-85266349D01*
X205518000Y-85226349D02*
X202556000Y-85226349D01*
X205526000Y-85186349D02*
X202556000Y-85186349D01*
X205533000Y-85146349D02*
X202556000Y-85146349D01*
X205540000Y-85105349D02*
X197492000Y-85105349D01*
X205546000Y-85065349D02*
X197486000Y-85065349D01*
X205553000Y-85025349D02*
X197479000Y-85025349D01*
X205558000Y-84985349D02*
X197474000Y-84985349D01*
X205564000Y-84945349D02*
X197468000Y-84945349D01*
X205568000Y-84905349D02*
X197464000Y-84905349D01*
X205573000Y-84865349D02*
X197459000Y-84865349D01*
X205577000Y-84825349D02*
X197455000Y-84825349D01*
X205581000Y-84785349D02*
X197451000Y-84785349D01*
X205584000Y-84745349D02*
X197448000Y-84745349D01*
X205587000Y-84705349D02*
X197445000Y-84705349D01*
X205590000Y-84665349D02*
X197442000Y-84665349D01*
X205592000Y-84625349D02*
X197440000Y-84625349D01*
X205593000Y-84585349D02*
X197439000Y-84585349D01*
X205595000Y-84545349D02*
X197437000Y-84545349D01*
X205596000Y-84425349D02*
X197436000Y-84425349D01*
X205596000Y-84465349D02*
X197436000Y-84465349D01*
X205596000Y-84505349D02*
X197436000Y-84505349D01*
X205636000Y-84425349D02*
G75*
G02*
X197396000Y-84425349I-4120000J0D01*
G01*
X197396000Y-84425349D02*
G75*
G02*
X205636000Y-84425349I4120000J0D01*
G01*
%TO.C,SMA ANTENNA*%
X210428000Y-118126000D02*
X210428000Y-118066000D01*
X212548000Y-118066000D02*
X210428000Y-118066000D01*
X212548000Y-118126000D02*
X210428000Y-118126000D01*
X212548000Y-118126000D02*
X212548000Y-118066000D01*
X212548000Y-119126000D02*
X212548000Y-120186000D01*
X212548000Y-120186000D02*
X211488000Y-120186000D01*
%TO.C,U5*%
D11*
X135394000Y-93436000D02*
X213094000Y-93436000D01*
X213094000Y-114336000D01*
X135394000Y-114336000D01*
X135394000Y-93436000D01*
%TO.C,MPU1*%
X195326000Y-120262000D02*
X169326000Y-120262000D01*
X169326000Y-135262000D01*
X195326000Y-135262000D01*
X195326000Y-120262000D01*
D13*
%TO.C,C3*%
X210476000Y-85146349D02*
X207499000Y-85146349D01*
X210476000Y-85186349D02*
X207506000Y-85186349D01*
X210476000Y-85226349D02*
X207514000Y-85226349D01*
X210476000Y-85266349D02*
X207522000Y-85266349D01*
X210476000Y-85306349D02*
X207531000Y-85306349D01*
X210476000Y-85346349D02*
X207540000Y-85346349D01*
X210476000Y-85386349D02*
X207549000Y-85386349D01*
X210476000Y-85426349D02*
X207559000Y-85426349D01*
X210476000Y-85466349D02*
X207569000Y-85466349D01*
X210476000Y-85506349D02*
X207580000Y-85506349D01*
X210476000Y-85546349D02*
X207591000Y-85546349D01*
X210476000Y-85586349D02*
X207602000Y-85586349D01*
X210476000Y-85626349D02*
X207614000Y-85626349D01*
X210476000Y-85666349D02*
X207627000Y-85666349D01*
X210476000Y-85706349D02*
X207639000Y-85706349D01*
X210476000Y-85746349D02*
X207653000Y-85746349D01*
X210476000Y-85786349D02*
X207666000Y-85786349D01*
X210476000Y-85826349D02*
X207681000Y-85826349D01*
X210476000Y-85866349D02*
X207695000Y-85866349D01*
X210476000Y-85906349D02*
X207711000Y-85906349D01*
X210476000Y-85946349D02*
X207726000Y-85946349D01*
X210476000Y-85986349D02*
X207742000Y-85986349D01*
X210476000Y-86026349D02*
X207759000Y-86026349D01*
X210476000Y-86066349D02*
X207776000Y-86066349D01*
X210476000Y-86106349D02*
X207794000Y-86106349D01*
X210476000Y-86146349D02*
X207812000Y-86146349D01*
X210476000Y-86186349D02*
X207830000Y-86186349D01*
X210476000Y-86226349D02*
X207850000Y-86226349D01*
X210476000Y-86266349D02*
X207869000Y-86266349D01*
X210476000Y-86306349D02*
X207889000Y-86306349D01*
X210476000Y-86346349D02*
X207910000Y-86346349D01*
X210476000Y-86386349D02*
X207932000Y-86386349D01*
X210476000Y-86426349D02*
X207954000Y-86426349D01*
X210476000Y-86466349D02*
X207976000Y-86466349D01*
X210476000Y-86506349D02*
X207999000Y-86506349D01*
X210476000Y-86546349D02*
X208023000Y-86546349D01*
X210476000Y-86586349D02*
X208047000Y-86586349D01*
X210476000Y-86626349D02*
X208072000Y-86626349D01*
X210476000Y-86666349D02*
X208098000Y-86666349D01*
X210476000Y-86706349D02*
X208124000Y-86706349D01*
X210476000Y-86746349D02*
X208151000Y-86746349D01*
X210476000Y-86786349D02*
X208178000Y-86786349D01*
X210476000Y-86826349D02*
X208207000Y-86826349D01*
X210476000Y-86866349D02*
X208236000Y-86866349D01*
X210476000Y-86906349D02*
X208266000Y-86906349D01*
X210476000Y-86946349D02*
X208296000Y-86946349D01*
X210476000Y-86986349D02*
X208327000Y-86986349D01*
X210476000Y-87026349D02*
X208360000Y-87026349D01*
X210476000Y-87066349D02*
X208392000Y-87066349D01*
X210476000Y-87106349D02*
X208426000Y-87106349D01*
X210476000Y-87146349D02*
X208461000Y-87146349D01*
X210476000Y-87186349D02*
X208497000Y-87186349D01*
X212049000Y-88506349D02*
X210983000Y-88506349D01*
X212284000Y-88466349D02*
X210748000Y-88466349D01*
X212464000Y-88426349D02*
X210568000Y-88426349D01*
X212614000Y-88386349D02*
X210418000Y-88386349D01*
X212745000Y-88346349D02*
X210287000Y-88346349D01*
X212862000Y-88306349D02*
X210170000Y-88306349D01*
X212969000Y-88266349D02*
X210063000Y-88266349D01*
X213068000Y-88226349D02*
X209964000Y-88226349D01*
X213161000Y-88186349D02*
X209871000Y-88186349D01*
X213247000Y-88146349D02*
X209785000Y-88146349D01*
X213329000Y-88106349D02*
X209703000Y-88106349D01*
X213406000Y-88066349D02*
X209626000Y-88066349D01*
X213480000Y-88026349D02*
X209552000Y-88026349D01*
X213550000Y-87986349D02*
X209482000Y-87986349D01*
X213618000Y-87946349D02*
X209414000Y-87946349D01*
X213682000Y-87906349D02*
X209350000Y-87906349D01*
X213744000Y-87866349D02*
X209288000Y-87866349D01*
X213803000Y-87826349D02*
X209229000Y-87826349D01*
X213831000Y-80015651D02*
X213831000Y-80815651D01*
X213861000Y-87786349D02*
X209171000Y-87786349D01*
X213916000Y-87746349D02*
X209116000Y-87746349D01*
X213970000Y-87706349D02*
X209062000Y-87706349D01*
X214021000Y-87666349D02*
X209011000Y-87666349D01*
X214072000Y-87626349D02*
X208960000Y-87626349D01*
X214120000Y-87586349D02*
X208912000Y-87586349D01*
X214167000Y-87546349D02*
X208865000Y-87546349D01*
X214213000Y-87506349D02*
X208819000Y-87506349D01*
X214231000Y-80415651D02*
X213431000Y-80415651D01*
X214257000Y-87466349D02*
X208775000Y-87466349D01*
X214300000Y-87426349D02*
X208732000Y-87426349D01*
X214342000Y-87386349D02*
X208690000Y-87386349D01*
X214383000Y-87346349D02*
X208649000Y-87346349D01*
X214423000Y-87306349D02*
X208609000Y-87306349D01*
X214461000Y-87266349D02*
X208571000Y-87266349D01*
X214499000Y-87226349D02*
X208533000Y-87226349D01*
X214535000Y-87186349D02*
X212556000Y-87186349D01*
X214571000Y-87146349D02*
X212556000Y-87146349D01*
X214606000Y-87106349D02*
X212556000Y-87106349D01*
X214640000Y-87066349D02*
X212556000Y-87066349D01*
X214672000Y-87026349D02*
X212556000Y-87026349D01*
X214705000Y-86986349D02*
X212556000Y-86986349D01*
X214736000Y-86946349D02*
X212556000Y-86946349D01*
X214766000Y-86906349D02*
X212556000Y-86906349D01*
X214796000Y-86866349D02*
X212556000Y-86866349D01*
X214825000Y-86826349D02*
X212556000Y-86826349D01*
X214854000Y-86786349D02*
X212556000Y-86786349D01*
X214881000Y-86746349D02*
X212556000Y-86746349D01*
X214908000Y-86706349D02*
X212556000Y-86706349D01*
X214934000Y-86666349D02*
X212556000Y-86666349D01*
X214960000Y-86626349D02*
X212556000Y-86626349D01*
X214985000Y-86586349D02*
X212556000Y-86586349D01*
X215009000Y-86546349D02*
X212556000Y-86546349D01*
X215033000Y-86506349D02*
X212556000Y-86506349D01*
X215056000Y-86466349D02*
X212556000Y-86466349D01*
X215078000Y-86426349D02*
X212556000Y-86426349D01*
X215100000Y-86386349D02*
X212556000Y-86386349D01*
X215122000Y-86346349D02*
X212556000Y-86346349D01*
X215143000Y-86306349D02*
X212556000Y-86306349D01*
X215163000Y-86266349D02*
X212556000Y-86266349D01*
X215182000Y-86226349D02*
X212556000Y-86226349D01*
X215202000Y-86186349D02*
X212556000Y-86186349D01*
X215220000Y-86146349D02*
X212556000Y-86146349D01*
X215238000Y-86106349D02*
X212556000Y-86106349D01*
X215256000Y-86066349D02*
X212556000Y-86066349D01*
X215273000Y-86026349D02*
X212556000Y-86026349D01*
X215290000Y-85986349D02*
X212556000Y-85986349D01*
X215306000Y-85946349D02*
X212556000Y-85946349D01*
X215321000Y-85906349D02*
X212556000Y-85906349D01*
X215337000Y-85866349D02*
X212556000Y-85866349D01*
X215351000Y-85826349D02*
X212556000Y-85826349D01*
X215366000Y-85786349D02*
X212556000Y-85786349D01*
X215379000Y-85746349D02*
X212556000Y-85746349D01*
X215393000Y-85706349D02*
X212556000Y-85706349D01*
X215405000Y-85666349D02*
X212556000Y-85666349D01*
X215418000Y-85626349D02*
X212556000Y-85626349D01*
X215430000Y-85586349D02*
X212556000Y-85586349D01*
X215441000Y-85546349D02*
X212556000Y-85546349D01*
X215452000Y-85506349D02*
X212556000Y-85506349D01*
X215463000Y-85466349D02*
X212556000Y-85466349D01*
X215473000Y-85426349D02*
X212556000Y-85426349D01*
X215483000Y-85386349D02*
X212556000Y-85386349D01*
X215492000Y-85346349D02*
X212556000Y-85346349D01*
X215501000Y-85306349D02*
X212556000Y-85306349D01*
X215510000Y-85266349D02*
X212556000Y-85266349D01*
X215518000Y-85226349D02*
X212556000Y-85226349D01*
X215526000Y-85186349D02*
X212556000Y-85186349D01*
X215533000Y-85146349D02*
X212556000Y-85146349D01*
X215540000Y-85105349D02*
X207492000Y-85105349D01*
X215546000Y-85065349D02*
X207486000Y-85065349D01*
X215553000Y-85025349D02*
X207479000Y-85025349D01*
X215558000Y-84985349D02*
X207474000Y-84985349D01*
X215564000Y-84945349D02*
X207468000Y-84945349D01*
X215568000Y-84905349D02*
X207464000Y-84905349D01*
X215573000Y-84865349D02*
X207459000Y-84865349D01*
X215577000Y-84825349D02*
X207455000Y-84825349D01*
X215581000Y-84785349D02*
X207451000Y-84785349D01*
X215584000Y-84745349D02*
X207448000Y-84745349D01*
X215587000Y-84705349D02*
X207445000Y-84705349D01*
X215590000Y-84665349D02*
X207442000Y-84665349D01*
X215592000Y-84625349D02*
X207440000Y-84625349D01*
X215593000Y-84585349D02*
X207439000Y-84585349D01*
X215595000Y-84545349D02*
X207437000Y-84545349D01*
X215596000Y-84425349D02*
X207436000Y-84425349D01*
X215596000Y-84465349D02*
X207436000Y-84465349D01*
X215596000Y-84505349D02*
X207436000Y-84505349D01*
X215636000Y-84425349D02*
G75*
G02*
X207396000Y-84425349I-4120000J0D01*
G01*
X207396000Y-84425349D02*
G75*
G02*
X215636000Y-84425349I4120000J0D01*
G01*
%TO.C,U7*%
D14*
X124640000Y-113398000D02*
X109640000Y-113398000D01*
X109640000Y-101398000D01*
X124640000Y-101398000D01*
X124640000Y-113398000D01*
D12*
%TO.C,U1*%
X71374000Y-54876000D02*
X73660000Y-54876000D01*
X71374000Y-67576000D02*
X71374000Y-54876000D01*
X73660000Y-67576000D02*
X71374000Y-67576000D01*
X78994000Y-54876000D02*
X77724000Y-54876000D01*
X78994000Y-67576000D02*
X77724000Y-67576000D01*
X85090000Y-54876000D02*
X83058000Y-54876000D01*
X85090000Y-54876000D02*
X85090000Y-67576000D01*
X85090000Y-67576000D02*
X83058000Y-67576000D01*
D13*
%TO.C,TP1*%
X120176000Y-126534000D02*
X121506000Y-126534000D01*
X120176000Y-127864000D02*
X120176000Y-126534000D01*
X120176000Y-129134000D02*
X120176000Y-129194000D01*
X120176000Y-129134000D02*
X122836000Y-129134000D01*
X120176000Y-129194000D02*
X122836000Y-129194000D01*
X122836000Y-129134000D02*
X122836000Y-129194000D01*
%TD*%
M02*
