%TF.GenerationSoftware,KiCad,Pcbnew,8.0.3*%
%TF.CreationDate,2024-06-22T19:33:56+02:00*%
%TF.ProjectId,3.3v radio with battery,332e3376-2072-4616-9469-6f2077697468,rev?*%
%TF.SameCoordinates,Original*%
%TF.FileFunction,Legend,Top*%
%TF.FilePolarity,Positive*%
%FSLAX46Y46*%
G04 Gerber Fmt 4.6, Leading zero omitted, Abs format (unit mm)*
G04 Created by KiCad (PCBNEW 8.0.3) date 2024-06-22 19:33:56*
%MOMM*%
%LPD*%
G01*
G04 APERTURE LIST*
%ADD10C,0.100000*%
%ADD11C,0.150000*%
%ADD12C,0.300000*%
%ADD13C,0.120000*%
%ADD14C,0.200000*%
G04 APERTURE END LIST*
D10*
X197566360Y-58523942D02*
X197423503Y-58666800D01*
X197423503Y-58666800D02*
X196994931Y-58809657D01*
X196994931Y-58809657D02*
X196709217Y-58809657D01*
X196709217Y-58809657D02*
X196280646Y-58666800D01*
X196280646Y-58666800D02*
X195994931Y-58381085D01*
X195994931Y-58381085D02*
X195852074Y-58095371D01*
X195852074Y-58095371D02*
X195709217Y-57523942D01*
X195709217Y-57523942D02*
X195709217Y-57095371D01*
X195709217Y-57095371D02*
X195852074Y-56523942D01*
X195852074Y-56523942D02*
X195994931Y-56238228D01*
X195994931Y-56238228D02*
X196280646Y-55952514D01*
X196280646Y-55952514D02*
X196709217Y-55809657D01*
X196709217Y-55809657D02*
X196994931Y-55809657D01*
X196994931Y-55809657D02*
X197423503Y-55952514D01*
X197423503Y-55952514D02*
X197566360Y-56095371D01*
X200566360Y-58809657D02*
X199566360Y-57381085D01*
X198852074Y-58809657D02*
X198852074Y-55809657D01*
X198852074Y-55809657D02*
X199994931Y-55809657D01*
X199994931Y-55809657D02*
X200280646Y-55952514D01*
X200280646Y-55952514D02*
X200423503Y-56095371D01*
X200423503Y-56095371D02*
X200566360Y-56381085D01*
X200566360Y-56381085D02*
X200566360Y-56809657D01*
X200566360Y-56809657D02*
X200423503Y-57095371D01*
X200423503Y-57095371D02*
X200280646Y-57238228D01*
X200280646Y-57238228D02*
X199994931Y-57381085D01*
X199994931Y-57381085D02*
X198852074Y-57381085D01*
X202709217Y-55809657D02*
X202709217Y-57952514D01*
X202709217Y-57952514D02*
X202566360Y-58381085D01*
X202566360Y-58381085D02*
X202280646Y-58666800D01*
X202280646Y-58666800D02*
X201852074Y-58809657D01*
X201852074Y-58809657D02*
X201566360Y-58809657D01*
X119039312Y-114958990D02*
X118963122Y-114920895D01*
X118963122Y-114920895D02*
X118848836Y-114920895D01*
X118848836Y-114920895D02*
X118734550Y-114958990D01*
X118734550Y-114958990D02*
X118658360Y-115035180D01*
X118658360Y-115035180D02*
X118620265Y-115111371D01*
X118620265Y-115111371D02*
X118582169Y-115263752D01*
X118582169Y-115263752D02*
X118582169Y-115378038D01*
X118582169Y-115378038D02*
X118620265Y-115530419D01*
X118620265Y-115530419D02*
X118658360Y-115606609D01*
X118658360Y-115606609D02*
X118734550Y-115682800D01*
X118734550Y-115682800D02*
X118848836Y-115720895D01*
X118848836Y-115720895D02*
X118925027Y-115720895D01*
X118925027Y-115720895D02*
X119039312Y-115682800D01*
X119039312Y-115682800D02*
X119077408Y-115644704D01*
X119077408Y-115644704D02*
X119077408Y-115378038D01*
X119077408Y-115378038D02*
X118925027Y-115378038D01*
X119420265Y-115720895D02*
X119420265Y-114920895D01*
X119420265Y-114920895D02*
X119877408Y-115720895D01*
X119877408Y-115720895D02*
X119877408Y-114920895D01*
X120258360Y-115720895D02*
X120258360Y-114920895D01*
X120258360Y-114920895D02*
X120448836Y-114920895D01*
X120448836Y-114920895D02*
X120563122Y-114958990D01*
X120563122Y-114958990D02*
X120639312Y-115035180D01*
X120639312Y-115035180D02*
X120677407Y-115111371D01*
X120677407Y-115111371D02*
X120715503Y-115263752D01*
X120715503Y-115263752D02*
X120715503Y-115378038D01*
X120715503Y-115378038D02*
X120677407Y-115530419D01*
X120677407Y-115530419D02*
X120639312Y-115606609D01*
X120639312Y-115606609D02*
X120563122Y-115682800D01*
X120563122Y-115682800D02*
X120448836Y-115720895D01*
X120448836Y-115720895D02*
X120258360Y-115720895D01*
X121667884Y-115720895D02*
X121667884Y-114920895D01*
X121667884Y-114920895D02*
X121858360Y-114920895D01*
X121858360Y-114920895D02*
X121972646Y-114958990D01*
X121972646Y-114958990D02*
X122048836Y-115035180D01*
X122048836Y-115035180D02*
X122086931Y-115111371D01*
X122086931Y-115111371D02*
X122125027Y-115263752D01*
X122125027Y-115263752D02*
X122125027Y-115378038D01*
X122125027Y-115378038D02*
X122086931Y-115530419D01*
X122086931Y-115530419D02*
X122048836Y-115606609D01*
X122048836Y-115606609D02*
X121972646Y-115682800D01*
X121972646Y-115682800D02*
X121858360Y-115720895D01*
X121858360Y-115720895D02*
X121667884Y-115720895D01*
X122467884Y-115416133D02*
X123077408Y-115416133D01*
X122772646Y-115720895D02*
X122772646Y-115111371D01*
X124067884Y-115720895D02*
X124067884Y-114920895D01*
X124067884Y-114920895D02*
X124258360Y-114920895D01*
X124258360Y-114920895D02*
X124372646Y-114958990D01*
X124372646Y-114958990D02*
X124448836Y-115035180D01*
X124448836Y-115035180D02*
X124486931Y-115111371D01*
X124486931Y-115111371D02*
X124525027Y-115263752D01*
X124525027Y-115263752D02*
X124525027Y-115378038D01*
X124525027Y-115378038D02*
X124486931Y-115530419D01*
X124486931Y-115530419D02*
X124448836Y-115606609D01*
X124448836Y-115606609D02*
X124372646Y-115682800D01*
X124372646Y-115682800D02*
X124258360Y-115720895D01*
X124258360Y-115720895D02*
X124067884Y-115720895D01*
X124867884Y-115416133D02*
X125477408Y-115416133D01*
X126353598Y-114920895D02*
X126620265Y-115720895D01*
X126620265Y-115720895D02*
X126886931Y-114920895D01*
X127610741Y-115644704D02*
X127572645Y-115682800D01*
X127572645Y-115682800D02*
X127458360Y-115720895D01*
X127458360Y-115720895D02*
X127382169Y-115720895D01*
X127382169Y-115720895D02*
X127267883Y-115682800D01*
X127267883Y-115682800D02*
X127191693Y-115606609D01*
X127191693Y-115606609D02*
X127153598Y-115530419D01*
X127153598Y-115530419D02*
X127115502Y-115378038D01*
X127115502Y-115378038D02*
X127115502Y-115263752D01*
X127115502Y-115263752D02*
X127153598Y-115111371D01*
X127153598Y-115111371D02*
X127191693Y-115035180D01*
X127191693Y-115035180D02*
X127267883Y-114958990D01*
X127267883Y-114958990D02*
X127382169Y-114920895D01*
X127382169Y-114920895D02*
X127458360Y-114920895D01*
X127458360Y-114920895D02*
X127572645Y-114958990D01*
X127572645Y-114958990D02*
X127610741Y-114997085D01*
X128410741Y-115644704D02*
X128372645Y-115682800D01*
X128372645Y-115682800D02*
X128258360Y-115720895D01*
X128258360Y-115720895D02*
X128182169Y-115720895D01*
X128182169Y-115720895D02*
X128067883Y-115682800D01*
X128067883Y-115682800D02*
X127991693Y-115606609D01*
X127991693Y-115606609D02*
X127953598Y-115530419D01*
X127953598Y-115530419D02*
X127915502Y-115378038D01*
X127915502Y-115378038D02*
X127915502Y-115263752D01*
X127915502Y-115263752D02*
X127953598Y-115111371D01*
X127953598Y-115111371D02*
X127991693Y-115035180D01*
X127991693Y-115035180D02*
X128067883Y-114958990D01*
X128067883Y-114958990D02*
X128182169Y-114920895D01*
X128182169Y-114920895D02*
X128258360Y-114920895D01*
X128258360Y-114920895D02*
X128372645Y-114958990D01*
X128372645Y-114958990D02*
X128410741Y-114997085D01*
D11*
X214499880Y-85344319D02*
X214690356Y-85344319D01*
X214690356Y-85344319D02*
X214785594Y-85391938D01*
X214785594Y-85391938D02*
X214880832Y-85487176D01*
X214880832Y-85487176D02*
X214928451Y-85677652D01*
X214928451Y-85677652D02*
X214928451Y-86010985D01*
X214928451Y-86010985D02*
X214880832Y-86201461D01*
X214880832Y-86201461D02*
X214785594Y-86296700D01*
X214785594Y-86296700D02*
X214690356Y-86344319D01*
X214690356Y-86344319D02*
X214499880Y-86344319D01*
X214499880Y-86344319D02*
X214404642Y-86296700D01*
X214404642Y-86296700D02*
X214309404Y-86201461D01*
X214309404Y-86201461D02*
X214261785Y-86010985D01*
X214261785Y-86010985D02*
X214261785Y-85677652D01*
X214261785Y-85677652D02*
X214309404Y-85487176D01*
X214309404Y-85487176D02*
X214404642Y-85391938D01*
X214404642Y-85391938D02*
X214499880Y-85344319D01*
X215499880Y-86344319D02*
X215404642Y-86296700D01*
X215404642Y-86296700D02*
X215357023Y-86201461D01*
X215357023Y-86201461D02*
X215357023Y-85344319D01*
X216261785Y-86296700D02*
X216166547Y-86344319D01*
X216166547Y-86344319D02*
X215976071Y-86344319D01*
X215976071Y-86344319D02*
X215880833Y-86296700D01*
X215880833Y-86296700D02*
X215833214Y-86201461D01*
X215833214Y-86201461D02*
X215833214Y-85820509D01*
X215833214Y-85820509D02*
X215880833Y-85725271D01*
X215880833Y-85725271D02*
X215976071Y-85677652D01*
X215976071Y-85677652D02*
X216166547Y-85677652D01*
X216166547Y-85677652D02*
X216261785Y-85725271D01*
X216261785Y-85725271D02*
X216309404Y-85820509D01*
X216309404Y-85820509D02*
X216309404Y-85915747D01*
X216309404Y-85915747D02*
X215833214Y-86010985D01*
X217166547Y-86344319D02*
X217166547Y-85344319D01*
X217166547Y-86296700D02*
X217071309Y-86344319D01*
X217071309Y-86344319D02*
X216880833Y-86344319D01*
X216880833Y-86344319D02*
X216785595Y-86296700D01*
X216785595Y-86296700D02*
X216737976Y-86249080D01*
X216737976Y-86249080D02*
X216690357Y-86153842D01*
X216690357Y-86153842D02*
X216690357Y-85868128D01*
X216690357Y-85868128D02*
X216737976Y-85772890D01*
X216737976Y-85772890D02*
X216785595Y-85725271D01*
X216785595Y-85725271D02*
X216880833Y-85677652D01*
X216880833Y-85677652D02*
X217071309Y-85677652D01*
X217071309Y-85677652D02*
X217166547Y-85725271D01*
X217404643Y-86439557D02*
X218166547Y-86439557D01*
X218357024Y-86296700D02*
X218452262Y-86344319D01*
X218452262Y-86344319D02*
X218642738Y-86344319D01*
X218642738Y-86344319D02*
X218737976Y-86296700D01*
X218737976Y-86296700D02*
X218785595Y-86201461D01*
X218785595Y-86201461D02*
X218785595Y-86153842D01*
X218785595Y-86153842D02*
X218737976Y-86058604D01*
X218737976Y-86058604D02*
X218642738Y-86010985D01*
X218642738Y-86010985D02*
X218499881Y-86010985D01*
X218499881Y-86010985D02*
X218404643Y-85963366D01*
X218404643Y-85963366D02*
X218357024Y-85868128D01*
X218357024Y-85868128D02*
X218357024Y-85820509D01*
X218357024Y-85820509D02*
X218404643Y-85725271D01*
X218404643Y-85725271D02*
X218499881Y-85677652D01*
X218499881Y-85677652D02*
X218642738Y-85677652D01*
X218642738Y-85677652D02*
X218737976Y-85725271D01*
X219642738Y-86296700D02*
X219547500Y-86344319D01*
X219547500Y-86344319D02*
X219357024Y-86344319D01*
X219357024Y-86344319D02*
X219261786Y-86296700D01*
X219261786Y-86296700D02*
X219214167Y-86249080D01*
X219214167Y-86249080D02*
X219166548Y-86153842D01*
X219166548Y-86153842D02*
X219166548Y-85868128D01*
X219166548Y-85868128D02*
X219214167Y-85772890D01*
X219214167Y-85772890D02*
X219261786Y-85725271D01*
X219261786Y-85725271D02*
X219357024Y-85677652D01*
X219357024Y-85677652D02*
X219547500Y-85677652D01*
X219547500Y-85677652D02*
X219642738Y-85725271D01*
X220071310Y-86344319D02*
X220071310Y-85677652D01*
X220071310Y-85868128D02*
X220118929Y-85772890D01*
X220118929Y-85772890D02*
X220166548Y-85725271D01*
X220166548Y-85725271D02*
X220261786Y-85677652D01*
X220261786Y-85677652D02*
X220357024Y-85677652D01*
X221071310Y-86296700D02*
X220976072Y-86344319D01*
X220976072Y-86344319D02*
X220785596Y-86344319D01*
X220785596Y-86344319D02*
X220690358Y-86296700D01*
X220690358Y-86296700D02*
X220642739Y-86201461D01*
X220642739Y-86201461D02*
X220642739Y-85820509D01*
X220642739Y-85820509D02*
X220690358Y-85725271D01*
X220690358Y-85725271D02*
X220785596Y-85677652D01*
X220785596Y-85677652D02*
X220976072Y-85677652D01*
X220976072Y-85677652D02*
X221071310Y-85725271D01*
X221071310Y-85725271D02*
X221118929Y-85820509D01*
X221118929Y-85820509D02*
X221118929Y-85915747D01*
X221118929Y-85915747D02*
X220642739Y-86010985D01*
X221928453Y-86296700D02*
X221833215Y-86344319D01*
X221833215Y-86344319D02*
X221642739Y-86344319D01*
X221642739Y-86344319D02*
X221547501Y-86296700D01*
X221547501Y-86296700D02*
X221499882Y-86201461D01*
X221499882Y-86201461D02*
X221499882Y-85820509D01*
X221499882Y-85820509D02*
X221547501Y-85725271D01*
X221547501Y-85725271D02*
X221642739Y-85677652D01*
X221642739Y-85677652D02*
X221833215Y-85677652D01*
X221833215Y-85677652D02*
X221928453Y-85725271D01*
X221928453Y-85725271D02*
X221976072Y-85820509D01*
X221976072Y-85820509D02*
X221976072Y-85915747D01*
X221976072Y-85915747D02*
X221499882Y-86010985D01*
X222404644Y-85677652D02*
X222404644Y-86344319D01*
X222404644Y-85772890D02*
X222452263Y-85725271D01*
X222452263Y-85725271D02*
X222547501Y-85677652D01*
X222547501Y-85677652D02*
X222690358Y-85677652D01*
X222690358Y-85677652D02*
X222785596Y-85725271D01*
X222785596Y-85725271D02*
X222833215Y-85820509D01*
X222833215Y-85820509D02*
X222833215Y-86344319D01*
X223833215Y-86344319D02*
X223261787Y-86344319D01*
X223547501Y-86344319D02*
X223547501Y-85344319D01*
X223547501Y-85344319D02*
X223452263Y-85487176D01*
X223452263Y-85487176D02*
X223357025Y-85582414D01*
X223357025Y-85582414D02*
X223261787Y-85630033D01*
X126175707Y-107162205D02*
X126128088Y-107209825D01*
X126128088Y-107209825D02*
X125985231Y-107257444D01*
X125985231Y-107257444D02*
X125889993Y-107257444D01*
X125889993Y-107257444D02*
X125747136Y-107209825D01*
X125747136Y-107209825D02*
X125651898Y-107114586D01*
X125651898Y-107114586D02*
X125604279Y-107019348D01*
X125604279Y-107019348D02*
X125556660Y-106828872D01*
X125556660Y-106828872D02*
X125556660Y-106686015D01*
X125556660Y-106686015D02*
X125604279Y-106495539D01*
X125604279Y-106495539D02*
X125651898Y-106400301D01*
X125651898Y-106400301D02*
X125747136Y-106305063D01*
X125747136Y-106305063D02*
X125889993Y-106257444D01*
X125889993Y-106257444D02*
X125985231Y-106257444D01*
X125985231Y-106257444D02*
X126128088Y-106305063D01*
X126128088Y-106305063D02*
X126175707Y-106352682D01*
X126604279Y-107257444D02*
X126604279Y-106257444D01*
X126604279Y-106257444D02*
X126937612Y-106971729D01*
X126937612Y-106971729D02*
X127270945Y-106257444D01*
X127270945Y-106257444D02*
X127270945Y-107257444D01*
X127747136Y-107257444D02*
X127747136Y-106257444D01*
X127747136Y-106257444D02*
X127985231Y-106257444D01*
X127985231Y-106257444D02*
X128128088Y-106305063D01*
X128128088Y-106305063D02*
X128223326Y-106400301D01*
X128223326Y-106400301D02*
X128270945Y-106495539D01*
X128270945Y-106495539D02*
X128318564Y-106686015D01*
X128318564Y-106686015D02*
X128318564Y-106828872D01*
X128318564Y-106828872D02*
X128270945Y-107019348D01*
X128270945Y-107019348D02*
X128223326Y-107114586D01*
X128223326Y-107114586D02*
X128128088Y-107209825D01*
X128128088Y-107209825D02*
X127985231Y-107257444D01*
X127985231Y-107257444D02*
X127747136Y-107257444D01*
X125556660Y-78971729D02*
X126032850Y-78971729D01*
X125461422Y-79257444D02*
X125794755Y-78257444D01*
X125794755Y-78257444D02*
X126128088Y-79257444D01*
X127032850Y-79162205D02*
X126985231Y-79209825D01*
X126985231Y-79209825D02*
X126842374Y-79257444D01*
X126842374Y-79257444D02*
X126747136Y-79257444D01*
X126747136Y-79257444D02*
X126604279Y-79209825D01*
X126604279Y-79209825D02*
X126509041Y-79114586D01*
X126509041Y-79114586D02*
X126461422Y-79019348D01*
X126461422Y-79019348D02*
X126413803Y-78828872D01*
X126413803Y-78828872D02*
X126413803Y-78686015D01*
X126413803Y-78686015D02*
X126461422Y-78495539D01*
X126461422Y-78495539D02*
X126509041Y-78400301D01*
X126509041Y-78400301D02*
X126604279Y-78305063D01*
X126604279Y-78305063D02*
X126747136Y-78257444D01*
X126747136Y-78257444D02*
X126842374Y-78257444D01*
X126842374Y-78257444D02*
X126985231Y-78305063D01*
X126985231Y-78305063D02*
X127032850Y-78352682D01*
X127461422Y-79257444D02*
X127461422Y-78257444D01*
X128032850Y-79257444D02*
X127604279Y-78686015D01*
X128032850Y-78257444D02*
X127461422Y-78828872D01*
X125604279Y-111257444D02*
X125604279Y-110257444D01*
X125604279Y-110257444D02*
X125842374Y-110257444D01*
X125842374Y-110257444D02*
X125985231Y-110305063D01*
X125985231Y-110305063D02*
X126080469Y-110400301D01*
X126080469Y-110400301D02*
X126128088Y-110495539D01*
X126128088Y-110495539D02*
X126175707Y-110686015D01*
X126175707Y-110686015D02*
X126175707Y-110828872D01*
X126175707Y-110828872D02*
X126128088Y-111019348D01*
X126128088Y-111019348D02*
X126080469Y-111114586D01*
X126080469Y-111114586D02*
X125985231Y-111209825D01*
X125985231Y-111209825D02*
X125842374Y-111257444D01*
X125842374Y-111257444D02*
X125604279Y-111257444D01*
X126556660Y-110971729D02*
X127032850Y-110971729D01*
X126461422Y-111257444D02*
X126794755Y-110257444D01*
X126794755Y-110257444D02*
X127128088Y-111257444D01*
X127318565Y-110257444D02*
X127889993Y-110257444D01*
X127604279Y-111257444D02*
X127604279Y-110257444D01*
X128175708Y-110971729D02*
X128651898Y-110971729D01*
X128080470Y-111257444D02*
X128413803Y-110257444D01*
X128413803Y-110257444D02*
X128747136Y-111257444D01*
X125461422Y-94257444D02*
X125794755Y-95257444D01*
X125794755Y-95257444D02*
X126128088Y-94257444D01*
X127032850Y-95162205D02*
X126985231Y-95209825D01*
X126985231Y-95209825D02*
X126842374Y-95257444D01*
X126842374Y-95257444D02*
X126747136Y-95257444D01*
X126747136Y-95257444D02*
X126604279Y-95209825D01*
X126604279Y-95209825D02*
X126509041Y-95114586D01*
X126509041Y-95114586D02*
X126461422Y-95019348D01*
X126461422Y-95019348D02*
X126413803Y-94828872D01*
X126413803Y-94828872D02*
X126413803Y-94686015D01*
X126413803Y-94686015D02*
X126461422Y-94495539D01*
X126461422Y-94495539D02*
X126509041Y-94400301D01*
X126509041Y-94400301D02*
X126604279Y-94305063D01*
X126604279Y-94305063D02*
X126747136Y-94257444D01*
X126747136Y-94257444D02*
X126842374Y-94257444D01*
X126842374Y-94257444D02*
X126985231Y-94305063D01*
X126985231Y-94305063D02*
X127032850Y-94352682D01*
X128032850Y-95162205D02*
X127985231Y-95209825D01*
X127985231Y-95209825D02*
X127842374Y-95257444D01*
X127842374Y-95257444D02*
X127747136Y-95257444D01*
X127747136Y-95257444D02*
X127604279Y-95209825D01*
X127604279Y-95209825D02*
X127509041Y-95114586D01*
X127509041Y-95114586D02*
X127461422Y-95019348D01*
X127461422Y-95019348D02*
X127413803Y-94828872D01*
X127413803Y-94828872D02*
X127413803Y-94686015D01*
X127413803Y-94686015D02*
X127461422Y-94495539D01*
X127461422Y-94495539D02*
X127509041Y-94400301D01*
X127509041Y-94400301D02*
X127604279Y-94305063D01*
X127604279Y-94305063D02*
X127747136Y-94257444D01*
X127747136Y-94257444D02*
X127842374Y-94257444D01*
X127842374Y-94257444D02*
X127985231Y-94305063D01*
X127985231Y-94305063D02*
X128032850Y-94352682D01*
X125604279Y-103257444D02*
X125604279Y-102257444D01*
X125604279Y-102257444D02*
X125937612Y-102971729D01*
X125937612Y-102971729D02*
X126270945Y-102257444D01*
X126270945Y-102257444D02*
X126270945Y-103257444D01*
X126937612Y-102257444D02*
X127128088Y-102257444D01*
X127128088Y-102257444D02*
X127223326Y-102305063D01*
X127223326Y-102305063D02*
X127318564Y-102400301D01*
X127318564Y-102400301D02*
X127366183Y-102590777D01*
X127366183Y-102590777D02*
X127366183Y-102924110D01*
X127366183Y-102924110D02*
X127318564Y-103114586D01*
X127318564Y-103114586D02*
X127223326Y-103209825D01*
X127223326Y-103209825D02*
X127128088Y-103257444D01*
X127128088Y-103257444D02*
X126937612Y-103257444D01*
X126937612Y-103257444D02*
X126842374Y-103209825D01*
X126842374Y-103209825D02*
X126747136Y-103114586D01*
X126747136Y-103114586D02*
X126699517Y-102924110D01*
X126699517Y-102924110D02*
X126699517Y-102590777D01*
X126699517Y-102590777D02*
X126747136Y-102400301D01*
X126747136Y-102400301D02*
X126842374Y-102305063D01*
X126842374Y-102305063D02*
X126937612Y-102257444D01*
X127651898Y-102257444D02*
X128223326Y-102257444D01*
X127937612Y-103257444D02*
X127937612Y-102257444D01*
X128747136Y-102257444D02*
X128937612Y-102257444D01*
X128937612Y-102257444D02*
X129032850Y-102305063D01*
X129032850Y-102305063D02*
X129128088Y-102400301D01*
X129128088Y-102400301D02*
X129175707Y-102590777D01*
X129175707Y-102590777D02*
X129175707Y-102924110D01*
X129175707Y-102924110D02*
X129128088Y-103114586D01*
X129128088Y-103114586D02*
X129032850Y-103209825D01*
X129032850Y-103209825D02*
X128937612Y-103257444D01*
X128937612Y-103257444D02*
X128747136Y-103257444D01*
X128747136Y-103257444D02*
X128651898Y-103209825D01*
X128651898Y-103209825D02*
X128556660Y-103114586D01*
X128556660Y-103114586D02*
X128509041Y-102924110D01*
X128509041Y-102924110D02*
X128509041Y-102590777D01*
X128509041Y-102590777D02*
X128556660Y-102400301D01*
X128556660Y-102400301D02*
X128651898Y-102305063D01*
X128651898Y-102305063D02*
X128747136Y-102257444D01*
X130175707Y-103257444D02*
X129842374Y-102781253D01*
X129604279Y-103257444D02*
X129604279Y-102257444D01*
X129604279Y-102257444D02*
X129985231Y-102257444D01*
X129985231Y-102257444D02*
X130080469Y-102305063D01*
X130080469Y-102305063D02*
X130128088Y-102352682D01*
X130128088Y-102352682D02*
X130175707Y-102447920D01*
X130175707Y-102447920D02*
X130175707Y-102590777D01*
X130175707Y-102590777D02*
X130128088Y-102686015D01*
X130128088Y-102686015D02*
X130080469Y-102733634D01*
X130080469Y-102733634D02*
X129985231Y-102781253D01*
X129985231Y-102781253D02*
X129604279Y-102781253D01*
X126128088Y-98305063D02*
X126032850Y-98257444D01*
X126032850Y-98257444D02*
X125889993Y-98257444D01*
X125889993Y-98257444D02*
X125747136Y-98305063D01*
X125747136Y-98305063D02*
X125651898Y-98400301D01*
X125651898Y-98400301D02*
X125604279Y-98495539D01*
X125604279Y-98495539D02*
X125556660Y-98686015D01*
X125556660Y-98686015D02*
X125556660Y-98828872D01*
X125556660Y-98828872D02*
X125604279Y-99019348D01*
X125604279Y-99019348D02*
X125651898Y-99114586D01*
X125651898Y-99114586D02*
X125747136Y-99209825D01*
X125747136Y-99209825D02*
X125889993Y-99257444D01*
X125889993Y-99257444D02*
X125985231Y-99257444D01*
X125985231Y-99257444D02*
X126128088Y-99209825D01*
X126128088Y-99209825D02*
X126175707Y-99162205D01*
X126175707Y-99162205D02*
X126175707Y-98828872D01*
X126175707Y-98828872D02*
X125985231Y-98828872D01*
X126604279Y-99257444D02*
X126604279Y-98257444D01*
X126604279Y-98257444D02*
X127175707Y-99257444D01*
X127175707Y-99257444D02*
X127175707Y-98257444D01*
X127651898Y-99257444D02*
X127651898Y-98257444D01*
X127651898Y-98257444D02*
X127889993Y-98257444D01*
X127889993Y-98257444D02*
X128032850Y-98305063D01*
X128032850Y-98305063D02*
X128128088Y-98400301D01*
X128128088Y-98400301D02*
X128175707Y-98495539D01*
X128175707Y-98495539D02*
X128223326Y-98686015D01*
X128223326Y-98686015D02*
X128223326Y-98828872D01*
X128223326Y-98828872D02*
X128175707Y-99019348D01*
X128175707Y-99019348D02*
X128128088Y-99114586D01*
X128128088Y-99114586D02*
X128032850Y-99209825D01*
X128032850Y-99209825D02*
X127889993Y-99257444D01*
X127889993Y-99257444D02*
X127651898Y-99257444D01*
X126175707Y-87162205D02*
X126128088Y-87209825D01*
X126128088Y-87209825D02*
X125985231Y-87257444D01*
X125985231Y-87257444D02*
X125889993Y-87257444D01*
X125889993Y-87257444D02*
X125747136Y-87209825D01*
X125747136Y-87209825D02*
X125651898Y-87114586D01*
X125651898Y-87114586D02*
X125604279Y-87019348D01*
X125604279Y-87019348D02*
X125556660Y-86828872D01*
X125556660Y-86828872D02*
X125556660Y-86686015D01*
X125556660Y-86686015D02*
X125604279Y-86495539D01*
X125604279Y-86495539D02*
X125651898Y-86400301D01*
X125651898Y-86400301D02*
X125747136Y-86305063D01*
X125747136Y-86305063D02*
X125889993Y-86257444D01*
X125889993Y-86257444D02*
X125985231Y-86257444D01*
X125985231Y-86257444D02*
X126128088Y-86305063D01*
X126128088Y-86305063D02*
X126175707Y-86352682D01*
X127080469Y-87257444D02*
X126604279Y-87257444D01*
X126604279Y-87257444D02*
X126604279Y-86257444D01*
X127413803Y-87257444D02*
X127413803Y-86257444D01*
X127985231Y-87257444D02*
X127556660Y-86686015D01*
X127985231Y-86257444D02*
X127413803Y-86828872D01*
X125556660Y-90971729D02*
X126032850Y-90971729D01*
X125461422Y-91257444D02*
X125794755Y-90257444D01*
X125794755Y-90257444D02*
X126128088Y-91257444D01*
X126318565Y-90257444D02*
X126889993Y-90257444D01*
X126604279Y-91257444D02*
X126604279Y-90257444D01*
X127080470Y-90257444D02*
X127651898Y-90257444D01*
X127366184Y-91257444D02*
X127366184Y-90257444D01*
X127985232Y-91257444D02*
X127985232Y-90257444D01*
X127985232Y-90257444D02*
X128556660Y-91257444D01*
X128556660Y-91257444D02*
X128556660Y-90257444D01*
X197125580Y-84592015D02*
X197173200Y-84639634D01*
X197173200Y-84639634D02*
X197220819Y-84782491D01*
X197220819Y-84782491D02*
X197220819Y-84877729D01*
X197220819Y-84877729D02*
X197173200Y-85020586D01*
X197173200Y-85020586D02*
X197077961Y-85115824D01*
X197077961Y-85115824D02*
X196982723Y-85163443D01*
X196982723Y-85163443D02*
X196792247Y-85211062D01*
X196792247Y-85211062D02*
X196649390Y-85211062D01*
X196649390Y-85211062D02*
X196458914Y-85163443D01*
X196458914Y-85163443D02*
X196363676Y-85115824D01*
X196363676Y-85115824D02*
X196268438Y-85020586D01*
X196268438Y-85020586D02*
X196220819Y-84877729D01*
X196220819Y-84877729D02*
X196220819Y-84782491D01*
X196220819Y-84782491D02*
X196268438Y-84639634D01*
X196268438Y-84639634D02*
X196316057Y-84592015D01*
X197220819Y-83639634D02*
X197220819Y-84211062D01*
X197220819Y-83925348D02*
X196220819Y-83925348D01*
X196220819Y-83925348D02*
X196363676Y-84020586D01*
X196363676Y-84020586D02*
X196458914Y-84115824D01*
X196458914Y-84115824D02*
X196506533Y-84211062D01*
D10*
X121526595Y-117870419D02*
X121526595Y-118679942D01*
X121526595Y-118679942D02*
X121574214Y-118775180D01*
X121574214Y-118775180D02*
X121621833Y-118822800D01*
X121621833Y-118822800D02*
X121717071Y-118870419D01*
X121717071Y-118870419D02*
X121907547Y-118870419D01*
X121907547Y-118870419D02*
X122002785Y-118822800D01*
X122002785Y-118822800D02*
X122050404Y-118775180D01*
X122050404Y-118775180D02*
X122098023Y-118679942D01*
X122098023Y-118679942D02*
X122098023Y-117870419D01*
X123002785Y-118203752D02*
X123002785Y-118870419D01*
X122764690Y-117822800D02*
X122526595Y-118537085D01*
X122526595Y-118537085D02*
X123145642Y-118537085D01*
X230927580Y-117782666D02*
X231403771Y-117449333D01*
X230927580Y-117211238D02*
X231927580Y-117211238D01*
X231927580Y-117211238D02*
X231927580Y-117592190D01*
X231927580Y-117592190D02*
X231879961Y-117687428D01*
X231879961Y-117687428D02*
X231832342Y-117735047D01*
X231832342Y-117735047D02*
X231737104Y-117782666D01*
X231737104Y-117782666D02*
X231594247Y-117782666D01*
X231594247Y-117782666D02*
X231499009Y-117735047D01*
X231499009Y-117735047D02*
X231451390Y-117687428D01*
X231451390Y-117687428D02*
X231403771Y-117592190D01*
X231403771Y-117592190D02*
X231403771Y-117211238D01*
X231451390Y-118211238D02*
X231451390Y-118544571D01*
X230927580Y-118687428D02*
X230927580Y-118211238D01*
X230927580Y-118211238D02*
X231927580Y-118211238D01*
X231927580Y-118211238D02*
X231927580Y-118687428D01*
X231451390Y-119449333D02*
X231451390Y-119116000D01*
X230927580Y-119116000D02*
X231927580Y-119116000D01*
X231927580Y-119116000D02*
X231927580Y-119592190D01*
X231927580Y-120116000D02*
X231689485Y-120116000D01*
X231784723Y-119877905D02*
X231689485Y-120116000D01*
X231689485Y-120116000D02*
X231784723Y-120354095D01*
X231499009Y-119973143D02*
X231689485Y-120116000D01*
X231689485Y-120116000D02*
X231499009Y-120258857D01*
X231927580Y-120877905D02*
X231689485Y-120877905D01*
X231784723Y-120639810D02*
X231689485Y-120877905D01*
X231689485Y-120877905D02*
X231784723Y-121116000D01*
X231499009Y-120735048D02*
X231689485Y-120877905D01*
X231689485Y-120877905D02*
X231499009Y-121020762D01*
D11*
X129038819Y-117935333D02*
X129753104Y-117935333D01*
X129753104Y-117935333D02*
X129895961Y-117982952D01*
X129895961Y-117982952D02*
X129991200Y-118078190D01*
X129991200Y-118078190D02*
X130038819Y-118221047D01*
X130038819Y-118221047D02*
X130038819Y-118316285D01*
X130038819Y-116935333D02*
X130038819Y-117506761D01*
X130038819Y-117221047D02*
X129038819Y-117221047D01*
X129038819Y-117221047D02*
X129181676Y-117316285D01*
X129181676Y-117316285D02*
X129276914Y-117411523D01*
X129276914Y-117411523D02*
X129324533Y-117506761D01*
X207125580Y-84592015D02*
X207173200Y-84639634D01*
X207173200Y-84639634D02*
X207220819Y-84782491D01*
X207220819Y-84782491D02*
X207220819Y-84877729D01*
X207220819Y-84877729D02*
X207173200Y-85020586D01*
X207173200Y-85020586D02*
X207077961Y-85115824D01*
X207077961Y-85115824D02*
X206982723Y-85163443D01*
X206982723Y-85163443D02*
X206792247Y-85211062D01*
X206792247Y-85211062D02*
X206649390Y-85211062D01*
X206649390Y-85211062D02*
X206458914Y-85163443D01*
X206458914Y-85163443D02*
X206363676Y-85115824D01*
X206363676Y-85115824D02*
X206268438Y-85020586D01*
X206268438Y-85020586D02*
X206220819Y-84877729D01*
X206220819Y-84877729D02*
X206220819Y-84782491D01*
X206220819Y-84782491D02*
X206268438Y-84639634D01*
X206268438Y-84639634D02*
X206316057Y-84592015D01*
X206316057Y-84211062D02*
X206268438Y-84163443D01*
X206268438Y-84163443D02*
X206220819Y-84068205D01*
X206220819Y-84068205D02*
X206220819Y-83830110D01*
X206220819Y-83830110D02*
X206268438Y-83734872D01*
X206268438Y-83734872D02*
X206316057Y-83687253D01*
X206316057Y-83687253D02*
X206411295Y-83639634D01*
X206411295Y-83639634D02*
X206506533Y-83639634D01*
X206506533Y-83639634D02*
X206649390Y-83687253D01*
X206649390Y-83687253D02*
X207220819Y-84258681D01*
X207220819Y-84258681D02*
X207220819Y-83639634D01*
X206559428Y-121593200D02*
X206702285Y-121640819D01*
X206702285Y-121640819D02*
X206940380Y-121640819D01*
X206940380Y-121640819D02*
X207035618Y-121593200D01*
X207035618Y-121593200D02*
X207083237Y-121545580D01*
X207083237Y-121545580D02*
X207130856Y-121450342D01*
X207130856Y-121450342D02*
X207130856Y-121355104D01*
X207130856Y-121355104D02*
X207083237Y-121259866D01*
X207083237Y-121259866D02*
X207035618Y-121212247D01*
X207035618Y-121212247D02*
X206940380Y-121164628D01*
X206940380Y-121164628D02*
X206749904Y-121117009D01*
X206749904Y-121117009D02*
X206654666Y-121069390D01*
X206654666Y-121069390D02*
X206607047Y-121021771D01*
X206607047Y-121021771D02*
X206559428Y-120926533D01*
X206559428Y-120926533D02*
X206559428Y-120831295D01*
X206559428Y-120831295D02*
X206607047Y-120736057D01*
X206607047Y-120736057D02*
X206654666Y-120688438D01*
X206654666Y-120688438D02*
X206749904Y-120640819D01*
X206749904Y-120640819D02*
X206987999Y-120640819D01*
X206987999Y-120640819D02*
X207130856Y-120688438D01*
X207559428Y-121640819D02*
X207559428Y-120640819D01*
X207559428Y-120640819D02*
X207892761Y-121355104D01*
X207892761Y-121355104D02*
X208226094Y-120640819D01*
X208226094Y-120640819D02*
X208226094Y-121640819D01*
X208654666Y-121355104D02*
X209130856Y-121355104D01*
X208559428Y-121640819D02*
X208892761Y-120640819D01*
X208892761Y-120640819D02*
X209226094Y-121640819D01*
X210273714Y-121355104D02*
X210749904Y-121355104D01*
X210178476Y-121640819D02*
X210511809Y-120640819D01*
X210511809Y-120640819D02*
X210845142Y-121640819D01*
X211178476Y-121640819D02*
X211178476Y-120640819D01*
X211178476Y-120640819D02*
X211749904Y-121640819D01*
X211749904Y-121640819D02*
X211749904Y-120640819D01*
X212083238Y-120640819D02*
X212654666Y-120640819D01*
X212368952Y-121640819D02*
X212368952Y-120640819D01*
X212988000Y-121117009D02*
X213321333Y-121117009D01*
X213464190Y-121640819D02*
X212988000Y-121640819D01*
X212988000Y-121640819D02*
X212988000Y-120640819D01*
X212988000Y-120640819D02*
X213464190Y-120640819D01*
X213892762Y-121640819D02*
X213892762Y-120640819D01*
X213892762Y-120640819D02*
X214464190Y-121640819D01*
X214464190Y-121640819D02*
X214464190Y-120640819D01*
X214940381Y-121640819D02*
X214940381Y-120640819D01*
X214940381Y-120640819D02*
X215511809Y-121640819D01*
X215511809Y-121640819D02*
X215511809Y-120640819D01*
X215940381Y-121355104D02*
X216416571Y-121355104D01*
X215845143Y-121640819D02*
X216178476Y-120640819D01*
X216178476Y-120640819D02*
X216511809Y-121640819D01*
D12*
X131307844Y-103700983D02*
X135117368Y-103700983D01*
X133212606Y-105605745D02*
X133212606Y-101796221D01*
X214619844Y-103954983D02*
X218429368Y-103954983D01*
D10*
X193383390Y-116246932D02*
X193383390Y-116580265D01*
X192859580Y-116723122D02*
X192859580Y-116246932D01*
X192859580Y-116246932D02*
X193859580Y-116246932D01*
X193859580Y-116246932D02*
X193859580Y-116723122D01*
X192859580Y-117151694D02*
X193859580Y-117151694D01*
X193859580Y-117151694D02*
X193859580Y-117389789D01*
X193859580Y-117389789D02*
X193811961Y-117532646D01*
X193811961Y-117532646D02*
X193716723Y-117627884D01*
X193716723Y-117627884D02*
X193621485Y-117675503D01*
X193621485Y-117675503D02*
X193431009Y-117723122D01*
X193431009Y-117723122D02*
X193288152Y-117723122D01*
X193288152Y-117723122D02*
X193097676Y-117675503D01*
X193097676Y-117675503D02*
X193002438Y-117627884D01*
X193002438Y-117627884D02*
X192907200Y-117532646D01*
X192907200Y-117532646D02*
X192859580Y-117389789D01*
X192859580Y-117389789D02*
X192859580Y-117151694D01*
X193145295Y-118104075D02*
X193145295Y-118580265D01*
X192859580Y-118008837D02*
X193859580Y-118342170D01*
X193859580Y-118342170D02*
X192859580Y-118675503D01*
X195447200Y-116175503D02*
X195399580Y-116318360D01*
X195399580Y-116318360D02*
X195399580Y-116556455D01*
X195399580Y-116556455D02*
X195447200Y-116651693D01*
X195447200Y-116651693D02*
X195494819Y-116699312D01*
X195494819Y-116699312D02*
X195590057Y-116746931D01*
X195590057Y-116746931D02*
X195685295Y-116746931D01*
X195685295Y-116746931D02*
X195780533Y-116699312D01*
X195780533Y-116699312D02*
X195828152Y-116651693D01*
X195828152Y-116651693D02*
X195875771Y-116556455D01*
X195875771Y-116556455D02*
X195923390Y-116365979D01*
X195923390Y-116365979D02*
X195971009Y-116270741D01*
X195971009Y-116270741D02*
X196018628Y-116223122D01*
X196018628Y-116223122D02*
X196113866Y-116175503D01*
X196113866Y-116175503D02*
X196209104Y-116175503D01*
X196209104Y-116175503D02*
X196304342Y-116223122D01*
X196304342Y-116223122D02*
X196351961Y-116270741D01*
X196351961Y-116270741D02*
X196399580Y-116365979D01*
X196399580Y-116365979D02*
X196399580Y-116604074D01*
X196399580Y-116604074D02*
X196351961Y-116746931D01*
X195399580Y-117175503D02*
X196399580Y-117175503D01*
X196399580Y-117175503D02*
X196399580Y-117413598D01*
X196399580Y-117413598D02*
X196351961Y-117556455D01*
X196351961Y-117556455D02*
X196256723Y-117651693D01*
X196256723Y-117651693D02*
X196161485Y-117699312D01*
X196161485Y-117699312D02*
X195971009Y-117746931D01*
X195971009Y-117746931D02*
X195828152Y-117746931D01*
X195828152Y-117746931D02*
X195637676Y-117699312D01*
X195637676Y-117699312D02*
X195542438Y-117651693D01*
X195542438Y-117651693D02*
X195447200Y-117556455D01*
X195447200Y-117556455D02*
X195399580Y-117413598D01*
X195399580Y-117413598D02*
X195399580Y-117175503D01*
X195685295Y-118127884D02*
X195685295Y-118604074D01*
X195399580Y-118032646D02*
X196399580Y-118365979D01*
X196399580Y-118365979D02*
X195399580Y-118699312D01*
X204019580Y-116056456D02*
X203019580Y-116389789D01*
X203019580Y-116389789D02*
X204019580Y-116723122D01*
X203114819Y-117627884D02*
X203067200Y-117580265D01*
X203067200Y-117580265D02*
X203019580Y-117437408D01*
X203019580Y-117437408D02*
X203019580Y-117342170D01*
X203019580Y-117342170D02*
X203067200Y-117199313D01*
X203067200Y-117199313D02*
X203162438Y-117104075D01*
X203162438Y-117104075D02*
X203257676Y-117056456D01*
X203257676Y-117056456D02*
X203448152Y-117008837D01*
X203448152Y-117008837D02*
X203591009Y-117008837D01*
X203591009Y-117008837D02*
X203781485Y-117056456D01*
X203781485Y-117056456D02*
X203876723Y-117104075D01*
X203876723Y-117104075D02*
X203971961Y-117199313D01*
X203971961Y-117199313D02*
X204019580Y-117342170D01*
X204019580Y-117342170D02*
X204019580Y-117437408D01*
X204019580Y-117437408D02*
X203971961Y-117580265D01*
X203971961Y-117580265D02*
X203924342Y-117627884D01*
X203114819Y-118627884D02*
X203067200Y-118580265D01*
X203067200Y-118580265D02*
X203019580Y-118437408D01*
X203019580Y-118437408D02*
X203019580Y-118342170D01*
X203019580Y-118342170D02*
X203067200Y-118199313D01*
X203067200Y-118199313D02*
X203162438Y-118104075D01*
X203162438Y-118104075D02*
X203257676Y-118056456D01*
X203257676Y-118056456D02*
X203448152Y-118008837D01*
X203448152Y-118008837D02*
X203591009Y-118008837D01*
X203591009Y-118008837D02*
X203781485Y-118056456D01*
X203781485Y-118056456D02*
X203876723Y-118104075D01*
X203876723Y-118104075D02*
X203971961Y-118199313D01*
X203971961Y-118199313D02*
X204019580Y-118342170D01*
X204019580Y-118342170D02*
X204019580Y-118437408D01*
X204019580Y-118437408D02*
X203971961Y-118580265D01*
X203971961Y-118580265D02*
X203924342Y-118627884D01*
X180683390Y-115604074D02*
X180683390Y-115270741D01*
X180159580Y-115270741D02*
X181159580Y-115270741D01*
X181159580Y-115270741D02*
X181159580Y-115746931D01*
X180207200Y-116080265D02*
X180159580Y-116223122D01*
X180159580Y-116223122D02*
X180159580Y-116461217D01*
X180159580Y-116461217D02*
X180207200Y-116556455D01*
X180207200Y-116556455D02*
X180254819Y-116604074D01*
X180254819Y-116604074D02*
X180350057Y-116651693D01*
X180350057Y-116651693D02*
X180445295Y-116651693D01*
X180445295Y-116651693D02*
X180540533Y-116604074D01*
X180540533Y-116604074D02*
X180588152Y-116556455D01*
X180588152Y-116556455D02*
X180635771Y-116461217D01*
X180635771Y-116461217D02*
X180683390Y-116270741D01*
X180683390Y-116270741D02*
X180731009Y-116175503D01*
X180731009Y-116175503D02*
X180778628Y-116127884D01*
X180778628Y-116127884D02*
X180873866Y-116080265D01*
X180873866Y-116080265D02*
X180969104Y-116080265D01*
X180969104Y-116080265D02*
X181064342Y-116127884D01*
X181064342Y-116127884D02*
X181111961Y-116175503D01*
X181111961Y-116175503D02*
X181159580Y-116270741D01*
X181159580Y-116270741D02*
X181159580Y-116508836D01*
X181159580Y-116508836D02*
X181111961Y-116651693D01*
X180635771Y-117270741D02*
X180159580Y-117270741D01*
X181159580Y-116937408D02*
X180635771Y-117270741D01*
X180635771Y-117270741D02*
X181159580Y-117604074D01*
X180159580Y-117937408D02*
X181159580Y-117937408D01*
X181159580Y-117937408D02*
X180159580Y-118508836D01*
X180159580Y-118508836D02*
X181159580Y-118508836D01*
X180254819Y-119556455D02*
X180207200Y-119508836D01*
X180207200Y-119508836D02*
X180159580Y-119365979D01*
X180159580Y-119365979D02*
X180159580Y-119270741D01*
X180159580Y-119270741D02*
X180207200Y-119127884D01*
X180207200Y-119127884D02*
X180302438Y-119032646D01*
X180302438Y-119032646D02*
X180397676Y-118985027D01*
X180397676Y-118985027D02*
X180588152Y-118937408D01*
X180588152Y-118937408D02*
X180731009Y-118937408D01*
X180731009Y-118937408D02*
X180921485Y-118985027D01*
X180921485Y-118985027D02*
X181016723Y-119032646D01*
X181016723Y-119032646D02*
X181111961Y-119127884D01*
X181111961Y-119127884D02*
X181159580Y-119270741D01*
X181159580Y-119270741D02*
X181159580Y-119365979D01*
X181159580Y-119365979D02*
X181111961Y-119508836D01*
X181111961Y-119508836D02*
X181064342Y-119556455D01*
X185239580Y-116485027D02*
X186239580Y-116485027D01*
X185239580Y-116961217D02*
X186239580Y-116961217D01*
X186239580Y-116961217D02*
X185239580Y-117532645D01*
X185239580Y-117532645D02*
X186239580Y-117532645D01*
X186239580Y-117865979D02*
X186239580Y-118437407D01*
X185239580Y-118151693D02*
X186239580Y-118151693D01*
X201431961Y-116627884D02*
X201479580Y-116532646D01*
X201479580Y-116532646D02*
X201479580Y-116389789D01*
X201479580Y-116389789D02*
X201431961Y-116246932D01*
X201431961Y-116246932D02*
X201336723Y-116151694D01*
X201336723Y-116151694D02*
X201241485Y-116104075D01*
X201241485Y-116104075D02*
X201051009Y-116056456D01*
X201051009Y-116056456D02*
X200908152Y-116056456D01*
X200908152Y-116056456D02*
X200717676Y-116104075D01*
X200717676Y-116104075D02*
X200622438Y-116151694D01*
X200622438Y-116151694D02*
X200527200Y-116246932D01*
X200527200Y-116246932D02*
X200479580Y-116389789D01*
X200479580Y-116389789D02*
X200479580Y-116485027D01*
X200479580Y-116485027D02*
X200527200Y-116627884D01*
X200527200Y-116627884D02*
X200574819Y-116675503D01*
X200574819Y-116675503D02*
X200908152Y-116675503D01*
X200908152Y-116675503D02*
X200908152Y-116485027D01*
X200479580Y-117104075D02*
X201479580Y-117104075D01*
X201479580Y-117104075D02*
X200479580Y-117675503D01*
X200479580Y-117675503D02*
X201479580Y-117675503D01*
X200479580Y-118151694D02*
X201479580Y-118151694D01*
X201479580Y-118151694D02*
X201479580Y-118389789D01*
X201479580Y-118389789D02*
X201431961Y-118532646D01*
X201431961Y-118532646D02*
X201336723Y-118627884D01*
X201336723Y-118627884D02*
X201241485Y-118675503D01*
X201241485Y-118675503D02*
X201051009Y-118723122D01*
X201051009Y-118723122D02*
X200908152Y-118723122D01*
X200908152Y-118723122D02*
X200717676Y-118675503D01*
X200717676Y-118675503D02*
X200622438Y-118627884D01*
X200622438Y-118627884D02*
X200527200Y-118532646D01*
X200527200Y-118532646D02*
X200479580Y-118389789D01*
X200479580Y-118389789D02*
X200479580Y-118151694D01*
X182699580Y-116127884D02*
X183699580Y-116127884D01*
X183699580Y-116127884D02*
X182699580Y-116699312D01*
X182699580Y-116699312D02*
X183699580Y-116699312D01*
X182794819Y-117746931D02*
X182747200Y-117699312D01*
X182747200Y-117699312D02*
X182699580Y-117556455D01*
X182699580Y-117556455D02*
X182699580Y-117461217D01*
X182699580Y-117461217D02*
X182747200Y-117318360D01*
X182747200Y-117318360D02*
X182842438Y-117223122D01*
X182842438Y-117223122D02*
X182937676Y-117175503D01*
X182937676Y-117175503D02*
X183128152Y-117127884D01*
X183128152Y-117127884D02*
X183271009Y-117127884D01*
X183271009Y-117127884D02*
X183461485Y-117175503D01*
X183461485Y-117175503D02*
X183556723Y-117223122D01*
X183556723Y-117223122D02*
X183651961Y-117318360D01*
X183651961Y-117318360D02*
X183699580Y-117461217D01*
X183699580Y-117461217D02*
X183699580Y-117556455D01*
X183699580Y-117556455D02*
X183651961Y-117699312D01*
X183651961Y-117699312D02*
X183604342Y-117746931D01*
X182747200Y-118127884D02*
X182699580Y-118270741D01*
X182699580Y-118270741D02*
X182699580Y-118508836D01*
X182699580Y-118508836D02*
X182747200Y-118604074D01*
X182747200Y-118604074D02*
X182794819Y-118651693D01*
X182794819Y-118651693D02*
X182890057Y-118699312D01*
X182890057Y-118699312D02*
X182985295Y-118699312D01*
X182985295Y-118699312D02*
X183080533Y-118651693D01*
X183080533Y-118651693D02*
X183128152Y-118604074D01*
X183128152Y-118604074D02*
X183175771Y-118508836D01*
X183175771Y-118508836D02*
X183223390Y-118318360D01*
X183223390Y-118318360D02*
X183271009Y-118223122D01*
X183271009Y-118223122D02*
X183318628Y-118175503D01*
X183318628Y-118175503D02*
X183413866Y-118127884D01*
X183413866Y-118127884D02*
X183509104Y-118127884D01*
X183509104Y-118127884D02*
X183604342Y-118175503D01*
X183604342Y-118175503D02*
X183651961Y-118223122D01*
X183651961Y-118223122D02*
X183699580Y-118318360D01*
X183699580Y-118318360D02*
X183699580Y-118556455D01*
X183699580Y-118556455D02*
X183651961Y-118699312D01*
X188065295Y-116127884D02*
X188065295Y-116604074D01*
X187779580Y-116032646D02*
X188779580Y-116365979D01*
X188779580Y-116365979D02*
X187779580Y-116699312D01*
X187779580Y-117032646D02*
X188779580Y-117032646D01*
X188779580Y-117032646D02*
X188779580Y-117270741D01*
X188779580Y-117270741D02*
X188731961Y-117413598D01*
X188731961Y-117413598D02*
X188636723Y-117508836D01*
X188636723Y-117508836D02*
X188541485Y-117556455D01*
X188541485Y-117556455D02*
X188351009Y-117604074D01*
X188351009Y-117604074D02*
X188208152Y-117604074D01*
X188208152Y-117604074D02*
X188017676Y-117556455D01*
X188017676Y-117556455D02*
X187922438Y-117508836D01*
X187922438Y-117508836D02*
X187827200Y-117413598D01*
X187827200Y-117413598D02*
X187779580Y-117270741D01*
X187779580Y-117270741D02*
X187779580Y-117032646D01*
X188779580Y-118223122D02*
X188779580Y-118413598D01*
X188779580Y-118413598D02*
X188731961Y-118508836D01*
X188731961Y-118508836D02*
X188636723Y-118604074D01*
X188636723Y-118604074D02*
X188446247Y-118651693D01*
X188446247Y-118651693D02*
X188112914Y-118651693D01*
X188112914Y-118651693D02*
X187922438Y-118604074D01*
X187922438Y-118604074D02*
X187827200Y-118508836D01*
X187827200Y-118508836D02*
X187779580Y-118413598D01*
X187779580Y-118413598D02*
X187779580Y-118223122D01*
X187779580Y-118223122D02*
X187827200Y-118127884D01*
X187827200Y-118127884D02*
X187922438Y-118032646D01*
X187922438Y-118032646D02*
X188112914Y-117985027D01*
X188112914Y-117985027D02*
X188446247Y-117985027D01*
X188446247Y-117985027D02*
X188636723Y-118032646D01*
X188636723Y-118032646D02*
X188731961Y-118127884D01*
X188731961Y-118127884D02*
X188779580Y-118223122D01*
X190843390Y-116270741D02*
X190843390Y-116604074D01*
X190319580Y-116746931D02*
X190319580Y-116270741D01*
X190319580Y-116270741D02*
X191319580Y-116270741D01*
X191319580Y-116270741D02*
X191319580Y-116746931D01*
X190414819Y-117746931D02*
X190367200Y-117699312D01*
X190367200Y-117699312D02*
X190319580Y-117556455D01*
X190319580Y-117556455D02*
X190319580Y-117461217D01*
X190319580Y-117461217D02*
X190367200Y-117318360D01*
X190367200Y-117318360D02*
X190462438Y-117223122D01*
X190462438Y-117223122D02*
X190557676Y-117175503D01*
X190557676Y-117175503D02*
X190748152Y-117127884D01*
X190748152Y-117127884D02*
X190891009Y-117127884D01*
X190891009Y-117127884D02*
X191081485Y-117175503D01*
X191081485Y-117175503D02*
X191176723Y-117223122D01*
X191176723Y-117223122D02*
X191271961Y-117318360D01*
X191271961Y-117318360D02*
X191319580Y-117461217D01*
X191319580Y-117461217D02*
X191319580Y-117556455D01*
X191319580Y-117556455D02*
X191271961Y-117699312D01*
X191271961Y-117699312D02*
X191224342Y-117746931D01*
X190319580Y-118651693D02*
X190319580Y-118175503D01*
X190319580Y-118175503D02*
X191319580Y-118175503D01*
X197987200Y-116199313D02*
X197939580Y-116342170D01*
X197939580Y-116342170D02*
X197939580Y-116580265D01*
X197939580Y-116580265D02*
X197987200Y-116675503D01*
X197987200Y-116675503D02*
X198034819Y-116723122D01*
X198034819Y-116723122D02*
X198130057Y-116770741D01*
X198130057Y-116770741D02*
X198225295Y-116770741D01*
X198225295Y-116770741D02*
X198320533Y-116723122D01*
X198320533Y-116723122D02*
X198368152Y-116675503D01*
X198368152Y-116675503D02*
X198415771Y-116580265D01*
X198415771Y-116580265D02*
X198463390Y-116389789D01*
X198463390Y-116389789D02*
X198511009Y-116294551D01*
X198511009Y-116294551D02*
X198558628Y-116246932D01*
X198558628Y-116246932D02*
X198653866Y-116199313D01*
X198653866Y-116199313D02*
X198749104Y-116199313D01*
X198749104Y-116199313D02*
X198844342Y-116246932D01*
X198844342Y-116246932D02*
X198891961Y-116294551D01*
X198891961Y-116294551D02*
X198939580Y-116389789D01*
X198939580Y-116389789D02*
X198939580Y-116627884D01*
X198939580Y-116627884D02*
X198891961Y-116770741D01*
X198034819Y-117770741D02*
X197987200Y-117723122D01*
X197987200Y-117723122D02*
X197939580Y-117580265D01*
X197939580Y-117580265D02*
X197939580Y-117485027D01*
X197939580Y-117485027D02*
X197987200Y-117342170D01*
X197987200Y-117342170D02*
X198082438Y-117246932D01*
X198082438Y-117246932D02*
X198177676Y-117199313D01*
X198177676Y-117199313D02*
X198368152Y-117151694D01*
X198368152Y-117151694D02*
X198511009Y-117151694D01*
X198511009Y-117151694D02*
X198701485Y-117199313D01*
X198701485Y-117199313D02*
X198796723Y-117246932D01*
X198796723Y-117246932D02*
X198891961Y-117342170D01*
X198891961Y-117342170D02*
X198939580Y-117485027D01*
X198939580Y-117485027D02*
X198939580Y-117580265D01*
X198939580Y-117580265D02*
X198891961Y-117723122D01*
X198891961Y-117723122D02*
X198844342Y-117770741D01*
X197939580Y-118675503D02*
X197939580Y-118199313D01*
X197939580Y-118199313D02*
X198939580Y-118199313D01*
D11*
X217125580Y-84592015D02*
X217173200Y-84639634D01*
X217173200Y-84639634D02*
X217220819Y-84782491D01*
X217220819Y-84782491D02*
X217220819Y-84877729D01*
X217220819Y-84877729D02*
X217173200Y-85020586D01*
X217173200Y-85020586D02*
X217077961Y-85115824D01*
X217077961Y-85115824D02*
X216982723Y-85163443D01*
X216982723Y-85163443D02*
X216792247Y-85211062D01*
X216792247Y-85211062D02*
X216649390Y-85211062D01*
X216649390Y-85211062D02*
X216458914Y-85163443D01*
X216458914Y-85163443D02*
X216363676Y-85115824D01*
X216363676Y-85115824D02*
X216268438Y-85020586D01*
X216268438Y-85020586D02*
X216220819Y-84877729D01*
X216220819Y-84877729D02*
X216220819Y-84782491D01*
X216220819Y-84782491D02*
X216268438Y-84639634D01*
X216268438Y-84639634D02*
X216316057Y-84592015D01*
X216220819Y-84258681D02*
X216220819Y-83639634D01*
X216220819Y-83639634D02*
X216601771Y-83972967D01*
X216601771Y-83972967D02*
X216601771Y-83830110D01*
X216601771Y-83830110D02*
X216649390Y-83734872D01*
X216649390Y-83734872D02*
X216697009Y-83687253D01*
X216697009Y-83687253D02*
X216792247Y-83639634D01*
X216792247Y-83639634D02*
X217030342Y-83639634D01*
X217030342Y-83639634D02*
X217125580Y-83687253D01*
X217125580Y-83687253D02*
X217173200Y-83734872D01*
X217173200Y-83734872D02*
X217220819Y-83830110D01*
X217220819Y-83830110D02*
X217220819Y-84115824D01*
X217220819Y-84115824D02*
X217173200Y-84211062D01*
X217173200Y-84211062D02*
X217125580Y-84258681D01*
X103491866Y-61487904D02*
X103444247Y-61440285D01*
X103444247Y-61440285D02*
X103396628Y-61345047D01*
X103396628Y-61345047D02*
X103491866Y-61154571D01*
X103491866Y-61154571D02*
X103444247Y-61059333D01*
X103444247Y-61059333D02*
X103396628Y-61011714D01*
X143644095Y-125902819D02*
X144215523Y-125902819D01*
X143929809Y-126902819D02*
X143929809Y-125902819D01*
X144548857Y-126902819D02*
X144548857Y-125902819D01*
X144548857Y-125902819D02*
X144929809Y-125902819D01*
X144929809Y-125902819D02*
X145025047Y-125950438D01*
X145025047Y-125950438D02*
X145072666Y-125998057D01*
X145072666Y-125998057D02*
X145120285Y-126093295D01*
X145120285Y-126093295D02*
X145120285Y-126236152D01*
X145120285Y-126236152D02*
X145072666Y-126331390D01*
X145072666Y-126331390D02*
X145025047Y-126379009D01*
X145025047Y-126379009D02*
X144929809Y-126426628D01*
X144929809Y-126426628D02*
X144548857Y-126426628D01*
X146072666Y-126902819D02*
X145501238Y-126902819D01*
X145786952Y-126902819D02*
X145786952Y-125902819D01*
X145786952Y-125902819D02*
X145691714Y-126045676D01*
X145691714Y-126045676D02*
X145596476Y-126140914D01*
X145596476Y-126140914D02*
X145501238Y-126188533D01*
D13*
%TO.C,Oled_screen1*%
X216494500Y-88656000D02*
X217764500Y-88656000D01*
X216494500Y-89926000D02*
X216494500Y-88656000D01*
X218807429Y-92086000D02*
X219204500Y-92086000D01*
X218807429Y-92846000D02*
X219204500Y-92846000D01*
X218807429Y-94626000D02*
X219204500Y-94626000D01*
X218807429Y-95386000D02*
X219204500Y-95386000D01*
X218807429Y-97166000D02*
X219204500Y-97166000D01*
X218807429Y-97926000D02*
X219204500Y-97926000D01*
X218874500Y-89546000D02*
X219204500Y-89546000D01*
X218874500Y-90306000D02*
X219204500Y-90306000D01*
X219204500Y-88596000D02*
X219204500Y-98876000D01*
X219204500Y-91196000D02*
X221864500Y-91196000D01*
X219204500Y-93736000D02*
X221864500Y-93736000D01*
X219204500Y-96276000D02*
X221864500Y-96276000D01*
X219204500Y-98876000D02*
X221864500Y-98876000D01*
X221864500Y-88596000D02*
X219204500Y-88596000D01*
X221864500Y-89546000D02*
X227864500Y-89546000D01*
X221864500Y-89606000D02*
X227864500Y-89606000D01*
X221864500Y-89726000D02*
X227864500Y-89726000D01*
X221864500Y-89846000D02*
X227864500Y-89846000D01*
X221864500Y-89966000D02*
X227864500Y-89966000D01*
X221864500Y-90086000D02*
X227864500Y-90086000D01*
X221864500Y-90206000D02*
X227864500Y-90206000D01*
X221864500Y-92086000D02*
X227864500Y-92086000D01*
X221864500Y-94626000D02*
X227864500Y-94626000D01*
X221864500Y-97166000D02*
X227864500Y-97166000D01*
X221864500Y-98876000D02*
X221864500Y-88596000D01*
X227864500Y-89546000D02*
X227864500Y-90306000D01*
X227864500Y-90306000D02*
X221864500Y-90306000D01*
X227864500Y-92086000D02*
X227864500Y-92846000D01*
X227864500Y-92846000D02*
X221864500Y-92846000D01*
X227864500Y-94626000D02*
X227864500Y-95386000D01*
X227864500Y-95386000D02*
X221864500Y-95386000D01*
X227864500Y-97166000D02*
X227864500Y-97926000D01*
X227864500Y-97926000D02*
X221864500Y-97926000D01*
%TO.C,U3*%
D14*
X149806000Y-120769500D02*
X174806000Y-120769500D01*
X174806000Y-136769500D01*
X149806000Y-136769500D01*
X149806000Y-120769500D01*
D13*
%TO.C,C1*%
X190476000Y-85146349D02*
X187499000Y-85146349D01*
X190476000Y-85186349D02*
X187506000Y-85186349D01*
X190476000Y-85226349D02*
X187514000Y-85226349D01*
X190476000Y-85266349D02*
X187522000Y-85266349D01*
X190476000Y-85306349D02*
X187531000Y-85306349D01*
X190476000Y-85346349D02*
X187540000Y-85346349D01*
X190476000Y-85386349D02*
X187549000Y-85386349D01*
X190476000Y-85426349D02*
X187559000Y-85426349D01*
X190476000Y-85466349D02*
X187569000Y-85466349D01*
X190476000Y-85506349D02*
X187580000Y-85506349D01*
X190476000Y-85546349D02*
X187591000Y-85546349D01*
X190476000Y-85586349D02*
X187602000Y-85586349D01*
X190476000Y-85626349D02*
X187614000Y-85626349D01*
X190476000Y-85666349D02*
X187627000Y-85666349D01*
X190476000Y-85706349D02*
X187639000Y-85706349D01*
X190476000Y-85746349D02*
X187653000Y-85746349D01*
X190476000Y-85786349D02*
X187666000Y-85786349D01*
X190476000Y-85826349D02*
X187681000Y-85826349D01*
X190476000Y-85866349D02*
X187695000Y-85866349D01*
X190476000Y-85906349D02*
X187711000Y-85906349D01*
X190476000Y-85946349D02*
X187726000Y-85946349D01*
X190476000Y-85986349D02*
X187742000Y-85986349D01*
X190476000Y-86026349D02*
X187759000Y-86026349D01*
X190476000Y-86066349D02*
X187776000Y-86066349D01*
X190476000Y-86106349D02*
X187794000Y-86106349D01*
X190476000Y-86146349D02*
X187812000Y-86146349D01*
X190476000Y-86186349D02*
X187830000Y-86186349D01*
X190476000Y-86226349D02*
X187850000Y-86226349D01*
X190476000Y-86266349D02*
X187869000Y-86266349D01*
X190476000Y-86306349D02*
X187889000Y-86306349D01*
X190476000Y-86346349D02*
X187910000Y-86346349D01*
X190476000Y-86386349D02*
X187932000Y-86386349D01*
X190476000Y-86426349D02*
X187954000Y-86426349D01*
X190476000Y-86466349D02*
X187976000Y-86466349D01*
X190476000Y-86506349D02*
X187999000Y-86506349D01*
X190476000Y-86546349D02*
X188023000Y-86546349D01*
X190476000Y-86586349D02*
X188047000Y-86586349D01*
X190476000Y-86626349D02*
X188072000Y-86626349D01*
X190476000Y-86666349D02*
X188098000Y-86666349D01*
X190476000Y-86706349D02*
X188124000Y-86706349D01*
X190476000Y-86746349D02*
X188151000Y-86746349D01*
X190476000Y-86786349D02*
X188178000Y-86786349D01*
X190476000Y-86826349D02*
X188207000Y-86826349D01*
X190476000Y-86866349D02*
X188236000Y-86866349D01*
X190476000Y-86906349D02*
X188266000Y-86906349D01*
X190476000Y-86946349D02*
X188296000Y-86946349D01*
X190476000Y-86986349D02*
X188327000Y-86986349D01*
X190476000Y-87026349D02*
X188360000Y-87026349D01*
X190476000Y-87066349D02*
X188392000Y-87066349D01*
X190476000Y-87106349D02*
X188426000Y-87106349D01*
X190476000Y-87146349D02*
X188461000Y-87146349D01*
X190476000Y-87186349D02*
X188497000Y-87186349D01*
X192049000Y-88506349D02*
X190983000Y-88506349D01*
X192284000Y-88466349D02*
X190748000Y-88466349D01*
X192464000Y-88426349D02*
X190568000Y-88426349D01*
X192614000Y-88386349D02*
X190418000Y-88386349D01*
X192745000Y-88346349D02*
X190287000Y-88346349D01*
X192862000Y-88306349D02*
X190170000Y-88306349D01*
X192969000Y-88266349D02*
X190063000Y-88266349D01*
X193068000Y-88226349D02*
X189964000Y-88226349D01*
X193161000Y-88186349D02*
X189871000Y-88186349D01*
X193247000Y-88146349D02*
X189785000Y-88146349D01*
X193329000Y-88106349D02*
X189703000Y-88106349D01*
X193406000Y-88066349D02*
X189626000Y-88066349D01*
X193480000Y-88026349D02*
X189552000Y-88026349D01*
X193550000Y-87986349D02*
X189482000Y-87986349D01*
X193618000Y-87946349D02*
X189414000Y-87946349D01*
X193682000Y-87906349D02*
X189350000Y-87906349D01*
X193744000Y-87866349D02*
X189288000Y-87866349D01*
X193803000Y-87826349D02*
X189229000Y-87826349D01*
X193831000Y-80015651D02*
X193831000Y-80815651D01*
X193861000Y-87786349D02*
X189171000Y-87786349D01*
X193916000Y-87746349D02*
X189116000Y-87746349D01*
X193970000Y-87706349D02*
X189062000Y-87706349D01*
X194021000Y-87666349D02*
X189011000Y-87666349D01*
X194072000Y-87626349D02*
X188960000Y-87626349D01*
X194120000Y-87586349D02*
X188912000Y-87586349D01*
X194167000Y-87546349D02*
X188865000Y-87546349D01*
X194213000Y-87506349D02*
X188819000Y-87506349D01*
X194231000Y-80415651D02*
X193431000Y-80415651D01*
X194257000Y-87466349D02*
X188775000Y-87466349D01*
X194300000Y-87426349D02*
X188732000Y-87426349D01*
X194342000Y-87386349D02*
X188690000Y-87386349D01*
X194383000Y-87346349D02*
X188649000Y-87346349D01*
X194423000Y-87306349D02*
X188609000Y-87306349D01*
X194461000Y-87266349D02*
X188571000Y-87266349D01*
X194499000Y-87226349D02*
X188533000Y-87226349D01*
X194535000Y-87186349D02*
X192556000Y-87186349D01*
X194571000Y-87146349D02*
X192556000Y-87146349D01*
X194606000Y-87106349D02*
X192556000Y-87106349D01*
X194640000Y-87066349D02*
X192556000Y-87066349D01*
X194672000Y-87026349D02*
X192556000Y-87026349D01*
X194705000Y-86986349D02*
X192556000Y-86986349D01*
X194736000Y-86946349D02*
X192556000Y-86946349D01*
X194766000Y-86906349D02*
X192556000Y-86906349D01*
X194796000Y-86866349D02*
X192556000Y-86866349D01*
X194825000Y-86826349D02*
X192556000Y-86826349D01*
X194854000Y-86786349D02*
X192556000Y-86786349D01*
X194881000Y-86746349D02*
X192556000Y-86746349D01*
X194908000Y-86706349D02*
X192556000Y-86706349D01*
X194934000Y-86666349D02*
X192556000Y-86666349D01*
X194960000Y-86626349D02*
X192556000Y-86626349D01*
X194985000Y-86586349D02*
X192556000Y-86586349D01*
X195009000Y-86546349D02*
X192556000Y-86546349D01*
X195033000Y-86506349D02*
X192556000Y-86506349D01*
X195056000Y-86466349D02*
X192556000Y-86466349D01*
X195078000Y-86426349D02*
X192556000Y-86426349D01*
X195100000Y-86386349D02*
X192556000Y-86386349D01*
X195122000Y-86346349D02*
X192556000Y-86346349D01*
X195143000Y-86306349D02*
X192556000Y-86306349D01*
X195163000Y-86266349D02*
X192556000Y-86266349D01*
X195182000Y-86226349D02*
X192556000Y-86226349D01*
X195202000Y-86186349D02*
X192556000Y-86186349D01*
X195220000Y-86146349D02*
X192556000Y-86146349D01*
X195238000Y-86106349D02*
X192556000Y-86106349D01*
X195256000Y-86066349D02*
X192556000Y-86066349D01*
X195273000Y-86026349D02*
X192556000Y-86026349D01*
X195290000Y-85986349D02*
X192556000Y-85986349D01*
X195306000Y-85946349D02*
X192556000Y-85946349D01*
X195321000Y-85906349D02*
X192556000Y-85906349D01*
X195337000Y-85866349D02*
X192556000Y-85866349D01*
X195351000Y-85826349D02*
X192556000Y-85826349D01*
X195366000Y-85786349D02*
X192556000Y-85786349D01*
X195379000Y-85746349D02*
X192556000Y-85746349D01*
X195393000Y-85706349D02*
X192556000Y-85706349D01*
X195405000Y-85666349D02*
X192556000Y-85666349D01*
X195418000Y-85626349D02*
X192556000Y-85626349D01*
X195430000Y-85586349D02*
X192556000Y-85586349D01*
X195441000Y-85546349D02*
X192556000Y-85546349D01*
X195452000Y-85506349D02*
X192556000Y-85506349D01*
X195463000Y-85466349D02*
X192556000Y-85466349D01*
X195473000Y-85426349D02*
X192556000Y-85426349D01*
X195483000Y-85386349D02*
X192556000Y-85386349D01*
X195492000Y-85346349D02*
X192556000Y-85346349D01*
X195501000Y-85306349D02*
X192556000Y-85306349D01*
X195510000Y-85266349D02*
X192556000Y-85266349D01*
X195518000Y-85226349D02*
X192556000Y-85226349D01*
X195526000Y-85186349D02*
X192556000Y-85186349D01*
X195533000Y-85146349D02*
X192556000Y-85146349D01*
X195540000Y-85105349D02*
X187492000Y-85105349D01*
X195546000Y-85065349D02*
X187486000Y-85065349D01*
X195553000Y-85025349D02*
X187479000Y-85025349D01*
X195558000Y-84985349D02*
X187474000Y-84985349D01*
X195564000Y-84945349D02*
X187468000Y-84945349D01*
X195568000Y-84905349D02*
X187464000Y-84905349D01*
X195573000Y-84865349D02*
X187459000Y-84865349D01*
X195577000Y-84825349D02*
X187455000Y-84825349D01*
X195581000Y-84785349D02*
X187451000Y-84785349D01*
X195584000Y-84745349D02*
X187448000Y-84745349D01*
X195587000Y-84705349D02*
X187445000Y-84705349D01*
X195590000Y-84665349D02*
X187442000Y-84665349D01*
X195592000Y-84625349D02*
X187440000Y-84625349D01*
X195593000Y-84585349D02*
X187439000Y-84585349D01*
X195595000Y-84545349D02*
X187437000Y-84545349D01*
X195596000Y-84425349D02*
X187436000Y-84425349D01*
X195596000Y-84465349D02*
X187436000Y-84465349D01*
X195596000Y-84505349D02*
X187436000Y-84505349D01*
X195636000Y-84425349D02*
G75*
G02*
X187396000Y-84425349I-4120000J0D01*
G01*
X187396000Y-84425349D02*
G75*
G02*
X195636000Y-84425349I4120000J0D01*
G01*
%TO.C,U4*%
D10*
X115062000Y-120151000D02*
X98762000Y-120151000D01*
X98762000Y-132301000D01*
X115062000Y-132301000D01*
X115062000Y-120151000D01*
D13*
%TO.C,NRF1*%
X184070000Y-62962000D02*
X184070000Y-62962000D01*
X184070000Y-62962000D02*
X189404000Y-62962000D01*
X184070000Y-73630000D02*
X184070000Y-62962000D01*
X184070000Y-73630000D02*
X184070000Y-73630000D01*
X189404000Y-62962000D02*
X189404000Y-73630000D01*
X189404000Y-73630000D02*
X184070000Y-73630000D01*
D10*
X183816000Y-60676000D02*
X224616000Y-60676000D01*
X224616000Y-75976000D01*
X183816000Y-75976000D01*
X183816000Y-60676000D01*
D13*
%TO.C,J1*%
X118304000Y-116272000D02*
X118304000Y-118932000D01*
X125984000Y-116272000D02*
X118304000Y-116272000D01*
X125984000Y-116272000D02*
X125984000Y-118932000D01*
X125984000Y-118932000D02*
X118304000Y-118932000D01*
X127254000Y-116272000D02*
X128584000Y-116272000D01*
X128584000Y-116272000D02*
X128584000Y-117602000D01*
%TO.C,C2*%
X200476000Y-85146349D02*
X197499000Y-85146349D01*
X200476000Y-85186349D02*
X197506000Y-85186349D01*
X200476000Y-85226349D02*
X197514000Y-85226349D01*
X200476000Y-85266349D02*
X197522000Y-85266349D01*
X200476000Y-85306349D02*
X197531000Y-85306349D01*
X200476000Y-85346349D02*
X197540000Y-85346349D01*
X200476000Y-85386349D02*
X197549000Y-85386349D01*
X200476000Y-85426349D02*
X197559000Y-85426349D01*
X200476000Y-85466349D02*
X197569000Y-85466349D01*
X200476000Y-85506349D02*
X197580000Y-85506349D01*
X200476000Y-85546349D02*
X197591000Y-85546349D01*
X200476000Y-85586349D02*
X197602000Y-85586349D01*
X200476000Y-85626349D02*
X197614000Y-85626349D01*
X200476000Y-85666349D02*
X197627000Y-85666349D01*
X200476000Y-85706349D02*
X197639000Y-85706349D01*
X200476000Y-85746349D02*
X197653000Y-85746349D01*
X200476000Y-85786349D02*
X197666000Y-85786349D01*
X200476000Y-85826349D02*
X197681000Y-85826349D01*
X200476000Y-85866349D02*
X197695000Y-85866349D01*
X200476000Y-85906349D02*
X197711000Y-85906349D01*
X200476000Y-85946349D02*
X197726000Y-85946349D01*
X200476000Y-85986349D02*
X197742000Y-85986349D01*
X200476000Y-86026349D02*
X197759000Y-86026349D01*
X200476000Y-86066349D02*
X197776000Y-86066349D01*
X200476000Y-86106349D02*
X197794000Y-86106349D01*
X200476000Y-86146349D02*
X197812000Y-86146349D01*
X200476000Y-86186349D02*
X197830000Y-86186349D01*
X200476000Y-86226349D02*
X197850000Y-86226349D01*
X200476000Y-86266349D02*
X197869000Y-86266349D01*
X200476000Y-86306349D02*
X197889000Y-86306349D01*
X200476000Y-86346349D02*
X197910000Y-86346349D01*
X200476000Y-86386349D02*
X197932000Y-86386349D01*
X200476000Y-86426349D02*
X197954000Y-86426349D01*
X200476000Y-86466349D02*
X197976000Y-86466349D01*
X200476000Y-86506349D02*
X197999000Y-86506349D01*
X200476000Y-86546349D02*
X198023000Y-86546349D01*
X200476000Y-86586349D02*
X198047000Y-86586349D01*
X200476000Y-86626349D02*
X198072000Y-86626349D01*
X200476000Y-86666349D02*
X198098000Y-86666349D01*
X200476000Y-86706349D02*
X198124000Y-86706349D01*
X200476000Y-86746349D02*
X198151000Y-86746349D01*
X200476000Y-86786349D02*
X198178000Y-86786349D01*
X200476000Y-86826349D02*
X198207000Y-86826349D01*
X200476000Y-86866349D02*
X198236000Y-86866349D01*
X200476000Y-86906349D02*
X198266000Y-86906349D01*
X200476000Y-86946349D02*
X198296000Y-86946349D01*
X200476000Y-86986349D02*
X198327000Y-86986349D01*
X200476000Y-87026349D02*
X198360000Y-87026349D01*
X200476000Y-87066349D02*
X198392000Y-87066349D01*
X200476000Y-87106349D02*
X198426000Y-87106349D01*
X200476000Y-87146349D02*
X198461000Y-87146349D01*
X200476000Y-87186349D02*
X198497000Y-87186349D01*
X202049000Y-88506349D02*
X200983000Y-88506349D01*
X202284000Y-88466349D02*
X200748000Y-88466349D01*
X202464000Y-88426349D02*
X200568000Y-88426349D01*
X202614000Y-88386349D02*
X200418000Y-88386349D01*
X202745000Y-88346349D02*
X200287000Y-88346349D01*
X202862000Y-88306349D02*
X200170000Y-88306349D01*
X202969000Y-88266349D02*
X200063000Y-88266349D01*
X203068000Y-88226349D02*
X199964000Y-88226349D01*
X203161000Y-88186349D02*
X199871000Y-88186349D01*
X203247000Y-88146349D02*
X199785000Y-88146349D01*
X203329000Y-88106349D02*
X199703000Y-88106349D01*
X203406000Y-88066349D02*
X199626000Y-88066349D01*
X203480000Y-88026349D02*
X199552000Y-88026349D01*
X203550000Y-87986349D02*
X199482000Y-87986349D01*
X203618000Y-87946349D02*
X199414000Y-87946349D01*
X203682000Y-87906349D02*
X199350000Y-87906349D01*
X203744000Y-87866349D02*
X199288000Y-87866349D01*
X203803000Y-87826349D02*
X199229000Y-87826349D01*
X203831000Y-80015651D02*
X203831000Y-80815651D01*
X203861000Y-87786349D02*
X199171000Y-87786349D01*
X203916000Y-87746349D02*
X199116000Y-87746349D01*
X203970000Y-87706349D02*
X199062000Y-87706349D01*
X204021000Y-87666349D02*
X199011000Y-87666349D01*
X204072000Y-87626349D02*
X198960000Y-87626349D01*
X204120000Y-87586349D02*
X198912000Y-87586349D01*
X204167000Y-87546349D02*
X198865000Y-87546349D01*
X204213000Y-87506349D02*
X198819000Y-87506349D01*
X204231000Y-80415651D02*
X203431000Y-80415651D01*
X204257000Y-87466349D02*
X198775000Y-87466349D01*
X204300000Y-87426349D02*
X198732000Y-87426349D01*
X204342000Y-87386349D02*
X198690000Y-87386349D01*
X204383000Y-87346349D02*
X198649000Y-87346349D01*
X204423000Y-87306349D02*
X198609000Y-87306349D01*
X204461000Y-87266349D02*
X198571000Y-87266349D01*
X204499000Y-87226349D02*
X198533000Y-87226349D01*
X204535000Y-87186349D02*
X202556000Y-87186349D01*
X204571000Y-87146349D02*
X202556000Y-87146349D01*
X204606000Y-87106349D02*
X202556000Y-87106349D01*
X204640000Y-87066349D02*
X202556000Y-87066349D01*
X204672000Y-87026349D02*
X202556000Y-87026349D01*
X204705000Y-86986349D02*
X202556000Y-86986349D01*
X204736000Y-86946349D02*
X202556000Y-86946349D01*
X204766000Y-86906349D02*
X202556000Y-86906349D01*
X204796000Y-86866349D02*
X202556000Y-86866349D01*
X204825000Y-86826349D02*
X202556000Y-86826349D01*
X204854000Y-86786349D02*
X202556000Y-86786349D01*
X204881000Y-86746349D02*
X202556000Y-86746349D01*
X204908000Y-86706349D02*
X202556000Y-86706349D01*
X204934000Y-86666349D02*
X202556000Y-86666349D01*
X204960000Y-86626349D02*
X202556000Y-86626349D01*
X204985000Y-86586349D02*
X202556000Y-86586349D01*
X205009000Y-86546349D02*
X202556000Y-86546349D01*
X205033000Y-86506349D02*
X202556000Y-86506349D01*
X205056000Y-86466349D02*
X202556000Y-86466349D01*
X205078000Y-86426349D02*
X202556000Y-86426349D01*
X205100000Y-86386349D02*
X202556000Y-86386349D01*
X205122000Y-86346349D02*
X202556000Y-86346349D01*
X205143000Y-86306349D02*
X202556000Y-86306349D01*
X205163000Y-86266349D02*
X202556000Y-86266349D01*
X205182000Y-86226349D02*
X202556000Y-86226349D01*
X205202000Y-86186349D02*
X202556000Y-86186349D01*
X205220000Y-86146349D02*
X202556000Y-86146349D01*
X205238000Y-86106349D02*
X202556000Y-86106349D01*
X205256000Y-86066349D02*
X202556000Y-86066349D01*
X205273000Y-86026349D02*
X202556000Y-86026349D01*
X205290000Y-85986349D02*
X202556000Y-85986349D01*
X205306000Y-85946349D02*
X202556000Y-85946349D01*
X205321000Y-85906349D02*
X202556000Y-85906349D01*
X205337000Y-85866349D02*
X202556000Y-85866349D01*
X205351000Y-85826349D02*
X202556000Y-85826349D01*
X205366000Y-85786349D02*
X202556000Y-85786349D01*
X205379000Y-85746349D02*
X202556000Y-85746349D01*
X205393000Y-85706349D02*
X202556000Y-85706349D01*
X205405000Y-85666349D02*
X202556000Y-85666349D01*
X205418000Y-85626349D02*
X202556000Y-85626349D01*
X205430000Y-85586349D02*
X202556000Y-85586349D01*
X205441000Y-85546349D02*
X202556000Y-85546349D01*
X205452000Y-85506349D02*
X202556000Y-85506349D01*
X205463000Y-85466349D02*
X202556000Y-85466349D01*
X205473000Y-85426349D02*
X202556000Y-85426349D01*
X205483000Y-85386349D02*
X202556000Y-85386349D01*
X205492000Y-85346349D02*
X202556000Y-85346349D01*
X205501000Y-85306349D02*
X202556000Y-85306349D01*
X205510000Y-85266349D02*
X202556000Y-85266349D01*
X205518000Y-85226349D02*
X202556000Y-85226349D01*
X205526000Y-85186349D02*
X202556000Y-85186349D01*
X205533000Y-85146349D02*
X202556000Y-85146349D01*
X205540000Y-85105349D02*
X197492000Y-85105349D01*
X205546000Y-85065349D02*
X197486000Y-85065349D01*
X205553000Y-85025349D02*
X197479000Y-85025349D01*
X205558000Y-84985349D02*
X197474000Y-84985349D01*
X205564000Y-84945349D02*
X197468000Y-84945349D01*
X205568000Y-84905349D02*
X197464000Y-84905349D01*
X205573000Y-84865349D02*
X197459000Y-84865349D01*
X205577000Y-84825349D02*
X197455000Y-84825349D01*
X205581000Y-84785349D02*
X197451000Y-84785349D01*
X205584000Y-84745349D02*
X197448000Y-84745349D01*
X205587000Y-84705349D02*
X197445000Y-84705349D01*
X205590000Y-84665349D02*
X197442000Y-84665349D01*
X205592000Y-84625349D02*
X197440000Y-84625349D01*
X205593000Y-84585349D02*
X197439000Y-84585349D01*
X205595000Y-84545349D02*
X197437000Y-84545349D01*
X205596000Y-84425349D02*
X197436000Y-84425349D01*
X205596000Y-84465349D02*
X197436000Y-84465349D01*
X205596000Y-84505349D02*
X197436000Y-84505349D01*
X205636000Y-84425349D02*
G75*
G02*
X197396000Y-84425349I-4120000J0D01*
G01*
X197396000Y-84425349D02*
G75*
G02*
X205636000Y-84425349I4120000J0D01*
G01*
%TO.C,SMA ANTENNA*%
X210428000Y-118126000D02*
X210428000Y-118066000D01*
X212548000Y-118066000D02*
X210428000Y-118066000D01*
X212548000Y-118126000D02*
X210428000Y-118126000D01*
X212548000Y-118126000D02*
X212548000Y-118066000D01*
X212548000Y-119126000D02*
X212548000Y-120186000D01*
X212548000Y-120186000D02*
X211488000Y-120186000D01*
%TO.C,U5*%
D10*
X136156000Y-93436000D02*
X213856000Y-93436000D01*
X213856000Y-114336000D01*
X136156000Y-114336000D01*
X136156000Y-93436000D01*
%TO.C,MPU1*%
X204924000Y-120770000D02*
X178924000Y-120770000D01*
X178924000Y-135770000D01*
X204924000Y-135770000D01*
X204924000Y-120770000D01*
D13*
%TO.C,C3*%
X210476000Y-85146349D02*
X207499000Y-85146349D01*
X210476000Y-85186349D02*
X207506000Y-85186349D01*
X210476000Y-85226349D02*
X207514000Y-85226349D01*
X210476000Y-85266349D02*
X207522000Y-85266349D01*
X210476000Y-85306349D02*
X207531000Y-85306349D01*
X210476000Y-85346349D02*
X207540000Y-85346349D01*
X210476000Y-85386349D02*
X207549000Y-85386349D01*
X210476000Y-85426349D02*
X207559000Y-85426349D01*
X210476000Y-85466349D02*
X207569000Y-85466349D01*
X210476000Y-85506349D02*
X207580000Y-85506349D01*
X210476000Y-85546349D02*
X207591000Y-85546349D01*
X210476000Y-85586349D02*
X207602000Y-85586349D01*
X210476000Y-85626349D02*
X207614000Y-85626349D01*
X210476000Y-85666349D02*
X207627000Y-85666349D01*
X210476000Y-85706349D02*
X207639000Y-85706349D01*
X210476000Y-85746349D02*
X207653000Y-85746349D01*
X210476000Y-85786349D02*
X207666000Y-85786349D01*
X210476000Y-85826349D02*
X207681000Y-85826349D01*
X210476000Y-85866349D02*
X207695000Y-85866349D01*
X210476000Y-85906349D02*
X207711000Y-85906349D01*
X210476000Y-85946349D02*
X207726000Y-85946349D01*
X210476000Y-85986349D02*
X207742000Y-85986349D01*
X210476000Y-86026349D02*
X207759000Y-86026349D01*
X210476000Y-86066349D02*
X207776000Y-86066349D01*
X210476000Y-86106349D02*
X207794000Y-86106349D01*
X210476000Y-86146349D02*
X207812000Y-86146349D01*
X210476000Y-86186349D02*
X207830000Y-86186349D01*
X210476000Y-86226349D02*
X207850000Y-86226349D01*
X210476000Y-86266349D02*
X207869000Y-86266349D01*
X210476000Y-86306349D02*
X207889000Y-86306349D01*
X210476000Y-86346349D02*
X207910000Y-86346349D01*
X210476000Y-86386349D02*
X207932000Y-86386349D01*
X210476000Y-86426349D02*
X207954000Y-86426349D01*
X210476000Y-86466349D02*
X207976000Y-86466349D01*
X210476000Y-86506349D02*
X207999000Y-86506349D01*
X210476000Y-86546349D02*
X208023000Y-86546349D01*
X210476000Y-86586349D02*
X208047000Y-86586349D01*
X210476000Y-86626349D02*
X208072000Y-86626349D01*
X210476000Y-86666349D02*
X208098000Y-86666349D01*
X210476000Y-86706349D02*
X208124000Y-86706349D01*
X210476000Y-86746349D02*
X208151000Y-86746349D01*
X210476000Y-86786349D02*
X208178000Y-86786349D01*
X210476000Y-86826349D02*
X208207000Y-86826349D01*
X210476000Y-86866349D02*
X208236000Y-86866349D01*
X210476000Y-86906349D02*
X208266000Y-86906349D01*
X210476000Y-86946349D02*
X208296000Y-86946349D01*
X210476000Y-86986349D02*
X208327000Y-86986349D01*
X210476000Y-87026349D02*
X208360000Y-87026349D01*
X210476000Y-87066349D02*
X208392000Y-87066349D01*
X210476000Y-87106349D02*
X208426000Y-87106349D01*
X210476000Y-87146349D02*
X208461000Y-87146349D01*
X210476000Y-87186349D02*
X208497000Y-87186349D01*
X212049000Y-88506349D02*
X210983000Y-88506349D01*
X212284000Y-88466349D02*
X210748000Y-88466349D01*
X212464000Y-88426349D02*
X210568000Y-88426349D01*
X212614000Y-88386349D02*
X210418000Y-88386349D01*
X212745000Y-88346349D02*
X210287000Y-88346349D01*
X212862000Y-88306349D02*
X210170000Y-88306349D01*
X212969000Y-88266349D02*
X210063000Y-88266349D01*
X213068000Y-88226349D02*
X209964000Y-88226349D01*
X213161000Y-88186349D02*
X209871000Y-88186349D01*
X213247000Y-88146349D02*
X209785000Y-88146349D01*
X213329000Y-88106349D02*
X209703000Y-88106349D01*
X213406000Y-88066349D02*
X209626000Y-88066349D01*
X213480000Y-88026349D02*
X209552000Y-88026349D01*
X213550000Y-87986349D02*
X209482000Y-87986349D01*
X213618000Y-87946349D02*
X209414000Y-87946349D01*
X213682000Y-87906349D02*
X209350000Y-87906349D01*
X213744000Y-87866349D02*
X209288000Y-87866349D01*
X213803000Y-87826349D02*
X209229000Y-87826349D01*
X213831000Y-80015651D02*
X213831000Y-80815651D01*
X213861000Y-87786349D02*
X209171000Y-87786349D01*
X213916000Y-87746349D02*
X209116000Y-87746349D01*
X213970000Y-87706349D02*
X209062000Y-87706349D01*
X214021000Y-87666349D02*
X209011000Y-87666349D01*
X214072000Y-87626349D02*
X208960000Y-87626349D01*
X214120000Y-87586349D02*
X208912000Y-87586349D01*
X214167000Y-87546349D02*
X208865000Y-87546349D01*
X214213000Y-87506349D02*
X208819000Y-87506349D01*
X214231000Y-80415651D02*
X213431000Y-80415651D01*
X214257000Y-87466349D02*
X208775000Y-87466349D01*
X214300000Y-87426349D02*
X208732000Y-87426349D01*
X214342000Y-87386349D02*
X208690000Y-87386349D01*
X214383000Y-87346349D02*
X208649000Y-87346349D01*
X214423000Y-87306349D02*
X208609000Y-87306349D01*
X214461000Y-87266349D02*
X208571000Y-87266349D01*
X214499000Y-87226349D02*
X208533000Y-87226349D01*
X214535000Y-87186349D02*
X212556000Y-87186349D01*
X214571000Y-87146349D02*
X212556000Y-87146349D01*
X214606000Y-87106349D02*
X212556000Y-87106349D01*
X214640000Y-87066349D02*
X212556000Y-87066349D01*
X214672000Y-87026349D02*
X212556000Y-87026349D01*
X214705000Y-86986349D02*
X212556000Y-86986349D01*
X214736000Y-86946349D02*
X212556000Y-86946349D01*
X214766000Y-86906349D02*
X212556000Y-86906349D01*
X214796000Y-86866349D02*
X212556000Y-86866349D01*
X214825000Y-86826349D02*
X212556000Y-86826349D01*
X214854000Y-86786349D02*
X212556000Y-86786349D01*
X214881000Y-86746349D02*
X212556000Y-86746349D01*
X214908000Y-86706349D02*
X212556000Y-86706349D01*
X214934000Y-86666349D02*
X212556000Y-86666349D01*
X214960000Y-86626349D02*
X212556000Y-86626349D01*
X214985000Y-86586349D02*
X212556000Y-86586349D01*
X215009000Y-86546349D02*
X212556000Y-86546349D01*
X215033000Y-86506349D02*
X212556000Y-86506349D01*
X215056000Y-86466349D02*
X212556000Y-86466349D01*
X215078000Y-86426349D02*
X212556000Y-86426349D01*
X215100000Y-86386349D02*
X212556000Y-86386349D01*
X215122000Y-86346349D02*
X212556000Y-86346349D01*
X215143000Y-86306349D02*
X212556000Y-86306349D01*
X215163000Y-86266349D02*
X212556000Y-86266349D01*
X215182000Y-86226349D02*
X212556000Y-86226349D01*
X215202000Y-86186349D02*
X212556000Y-86186349D01*
X215220000Y-86146349D02*
X212556000Y-86146349D01*
X215238000Y-86106349D02*
X212556000Y-86106349D01*
X215256000Y-86066349D02*
X212556000Y-86066349D01*
X215273000Y-86026349D02*
X212556000Y-86026349D01*
X215290000Y-85986349D02*
X212556000Y-85986349D01*
X215306000Y-85946349D02*
X212556000Y-85946349D01*
X215321000Y-85906349D02*
X212556000Y-85906349D01*
X215337000Y-85866349D02*
X212556000Y-85866349D01*
X215351000Y-85826349D02*
X212556000Y-85826349D01*
X215366000Y-85786349D02*
X212556000Y-85786349D01*
X215379000Y-85746349D02*
X212556000Y-85746349D01*
X215393000Y-85706349D02*
X212556000Y-85706349D01*
X215405000Y-85666349D02*
X212556000Y-85666349D01*
X215418000Y-85626349D02*
X212556000Y-85626349D01*
X215430000Y-85586349D02*
X212556000Y-85586349D01*
X215441000Y-85546349D02*
X212556000Y-85546349D01*
X215452000Y-85506349D02*
X212556000Y-85506349D01*
X215463000Y-85466349D02*
X212556000Y-85466349D01*
X215473000Y-85426349D02*
X212556000Y-85426349D01*
X215483000Y-85386349D02*
X212556000Y-85386349D01*
X215492000Y-85346349D02*
X212556000Y-85346349D01*
X215501000Y-85306349D02*
X212556000Y-85306349D01*
X215510000Y-85266349D02*
X212556000Y-85266349D01*
X215518000Y-85226349D02*
X212556000Y-85226349D01*
X215526000Y-85186349D02*
X212556000Y-85186349D01*
X215533000Y-85146349D02*
X212556000Y-85146349D01*
X215540000Y-85105349D02*
X207492000Y-85105349D01*
X215546000Y-85065349D02*
X207486000Y-85065349D01*
X215553000Y-85025349D02*
X207479000Y-85025349D01*
X215558000Y-84985349D02*
X207474000Y-84985349D01*
X215564000Y-84945349D02*
X207468000Y-84945349D01*
X215568000Y-84905349D02*
X207464000Y-84905349D01*
X215573000Y-84865349D02*
X207459000Y-84865349D01*
X215577000Y-84825349D02*
X207455000Y-84825349D01*
X215581000Y-84785349D02*
X207451000Y-84785349D01*
X215584000Y-84745349D02*
X207448000Y-84745349D01*
X215587000Y-84705349D02*
X207445000Y-84705349D01*
X215590000Y-84665349D02*
X207442000Y-84665349D01*
X215592000Y-84625349D02*
X207440000Y-84625349D01*
X215593000Y-84585349D02*
X207439000Y-84585349D01*
X215595000Y-84545349D02*
X207437000Y-84545349D01*
X215596000Y-84425349D02*
X207436000Y-84425349D01*
X215596000Y-84465349D02*
X207436000Y-84465349D01*
X215596000Y-84505349D02*
X207436000Y-84505349D01*
X215636000Y-84425349D02*
G75*
G02*
X207396000Y-84425349I-4120000J0D01*
G01*
X207396000Y-84425349D02*
G75*
G02*
X215636000Y-84425349I4120000J0D01*
G01*
D11*
%TO.C,U1*%
X99060000Y-54876000D02*
X101346000Y-54876000D01*
X99060000Y-67576000D02*
X99060000Y-54876000D01*
X101346000Y-67576000D02*
X99060000Y-67576000D01*
X106680000Y-54876000D02*
X105410000Y-54876000D01*
X106680000Y-67576000D02*
X105410000Y-67576000D01*
X112776000Y-54876000D02*
X110744000Y-54876000D01*
X112776000Y-54876000D02*
X112776000Y-67576000D01*
X112776000Y-67576000D02*
X110744000Y-67576000D01*
D13*
%TO.C,TP1*%
X143576000Y-127448000D02*
X144906000Y-127448000D01*
X143576000Y-128778000D02*
X143576000Y-127448000D01*
X143576000Y-130048000D02*
X143576000Y-130108000D01*
X143576000Y-130048000D02*
X146236000Y-130048000D01*
X143576000Y-130108000D02*
X146236000Y-130108000D01*
X146236000Y-130048000D02*
X146236000Y-130108000D01*
%TD*%
M02*
