M48
; DRILL file {KiCad 9.0.0} date 2025-10-27T19:18:35+0100
; FORMAT={-:-/ absolute / metric / decimal}
; #@! TF.CreationDate,2025-10-27T19:18:35+01:00
; #@! TF.GenerationSoftware,Kicad,Pcbnew,9.0.0
; #@! TF.FileFunction,Plated,1,2,PTH
FMAT,2
METRIC
; #@! TA.AperFunction,Plated,PTH,ComponentDrill
T1C1.000
%
G90
G05
T1
X133.76Y-65.97
X133.76Y-68.51
X133.76Y-71.05
X133.76Y-73.59
X133.76Y-76.13
X133.76Y-78.67
X133.76Y-81.21
X133.76Y-83.75
X133.76Y-86.29
X133.76Y-88.83
X133.76Y-91.37
X133.76Y-93.91
X133.76Y-96.45
X133.76Y-98.99
X133.76Y-101.53
X136.3Y-65.97
X136.3Y-68.51
X136.3Y-71.05
X136.3Y-73.59
X136.3Y-76.13
X136.3Y-78.67
X136.3Y-81.21
X136.3Y-83.75
X136.3Y-86.29
X136.3Y-88.83
X136.3Y-91.37
X136.3Y-93.91
X136.3Y-96.45
X136.3Y-98.99
X136.3Y-101.53
X138.84Y-65.97
X138.84Y-68.51
X138.84Y-71.05
X138.84Y-73.59
X138.84Y-76.13
X138.84Y-78.67
X138.84Y-81.21
X138.84Y-83.75
X138.84Y-86.29
X138.84Y-88.83
X138.84Y-91.37
X138.84Y-93.91
X138.84Y-96.45
X138.84Y-98.99
X138.84Y-101.53
X141.38Y-65.97
X141.38Y-68.51
X141.38Y-71.05
X141.38Y-73.59
X141.38Y-76.13
X141.38Y-78.67
X141.38Y-81.21
X141.38Y-83.75
X141.38Y-86.29
X141.38Y-88.83
X141.38Y-91.37
X141.38Y-93.91
X141.38Y-96.45
X141.38Y-98.99
X141.38Y-101.53
X143.92Y-65.97
X143.92Y-68.51
X143.92Y-71.05
X143.92Y-73.59
X143.92Y-76.13
X143.92Y-78.67
X143.92Y-81.21
X143.92Y-83.75
X143.92Y-86.29
X143.92Y-88.83
X143.92Y-91.37
X143.92Y-93.91
X143.92Y-96.45
X143.92Y-98.99
X143.92Y-101.53
X149.0Y-51.42
X149.0Y-53.96
X149.0Y-56.5
X149.0Y-59.04
X149.0Y-65.97
X149.0Y-68.51
X149.0Y-71.05
X149.0Y-73.59
X149.0Y-76.13
X149.0Y-78.67
X149.0Y-81.21
X149.0Y-83.75
X149.0Y-86.29
X149.0Y-88.83
X149.0Y-91.37
X149.0Y-93.91
X149.0Y-96.45
X149.0Y-98.99
X149.0Y-101.53
X151.54Y-51.42
X151.54Y-53.96
X151.54Y-56.5
X151.54Y-59.04
X154.08Y-51.42
X154.08Y-53.96
X154.08Y-56.5
X154.08Y-59.04
X156.62Y-51.42
X156.62Y-53.96
X156.62Y-56.5
X156.62Y-59.04
X159.16Y-51.42
X159.16Y-53.96
X159.16Y-56.5
X159.16Y-59.04
X161.7Y-51.42
X161.7Y-53.96
X161.7Y-56.5
X161.7Y-59.04
X164.24Y-51.42
X164.24Y-53.96
X164.24Y-56.5
X164.24Y-59.04
X164.24Y-65.97
X164.24Y-68.51
X164.24Y-71.05
X164.24Y-73.59
X164.24Y-76.13
X164.24Y-78.67
X164.24Y-81.21
X164.24Y-83.75
X164.24Y-86.29
X164.24Y-88.83
X164.24Y-91.37
X164.24Y-93.91
X164.24Y-96.45
X164.24Y-98.99
X164.24Y-101.53
X169.32Y-65.97
X169.32Y-68.51
X169.32Y-71.05
X169.32Y-73.59
X169.32Y-76.13
X169.32Y-78.67
X169.32Y-81.21
X169.32Y-83.75
X169.32Y-86.29
X169.32Y-88.83
X169.32Y-91.37
X169.32Y-93.91
X169.32Y-96.45
X169.32Y-98.99
X169.32Y-101.53
X171.86Y-65.97
X171.86Y-68.51
X171.86Y-71.05
X171.86Y-73.59
X171.86Y-76.13
X171.86Y-78.67
X171.86Y-81.21
X171.86Y-83.75
X171.86Y-86.29
X171.86Y-88.83
X171.86Y-91.37
X171.86Y-93.91
X171.86Y-96.45
X171.86Y-98.99
X171.86Y-101.53
X174.4Y-65.97
X174.4Y-68.51
X174.4Y-71.05
X174.4Y-73.59
X174.4Y-76.13
X174.4Y-78.67
X174.4Y-81.21
X174.4Y-83.75
X174.4Y-86.29
X174.4Y-88.83
X174.4Y-91.37
X174.4Y-93.91
X174.4Y-96.45
X174.4Y-98.99
X174.4Y-101.53
X176.94Y-65.97
X176.94Y-68.51
X176.94Y-71.05
X176.94Y-73.59
X176.94Y-76.13
X176.94Y-78.67
X176.94Y-81.21
X176.94Y-83.75
X176.94Y-86.29
X176.94Y-88.83
X176.94Y-91.37
X176.94Y-93.91
X176.94Y-96.45
X176.94Y-98.99
X176.94Y-101.53
X179.48Y-65.97
X179.48Y-68.51
X179.48Y-71.05
X179.48Y-73.59
X179.48Y-76.13
X179.48Y-78.67
X179.48Y-81.21
X179.48Y-83.75
X179.48Y-86.29
X179.48Y-88.83
X179.48Y-91.37
X179.48Y-93.91
X179.48Y-96.45
X179.48Y-98.99
X179.48Y-101.53
M30
