%TF.GenerationSoftware,KiCad,Pcbnew,9.0.0*%
%TF.CreationDate,2025-10-27T21:51:39+01:00*%
%TF.ProjectId,nano breakout,6e616e6f-2062-4726-9561-6b6f75742e6b,rev?*%
%TF.SameCoordinates,Original*%
%TF.FileFunction,Soldermask,Top*%
%TF.FilePolarity,Negative*%
%FSLAX46Y46*%
G04 Gerber Fmt 4.6, Leading zero omitted, Abs format (unit mm)*
G04 Created by KiCad (PCBNEW 9.0.0) date 2025-10-27 21:51:39*
%MOMM*%
%LPD*%
G01*
G04 APERTURE LIST*
%ADD10C,2.000000*%
%ADD11R,1.700000X1.700000*%
%ADD12C,1.700000*%
%ADD13R,1.600000X1.600000*%
%ADD14O,1.700000X1.700000*%
%ADD15O,1.600000X1.600000*%
G04 APERTURE END LIST*
D10*
%TO.C,REF\u002A\u002A*%
X140000000Y-56500000D03*
X140000000Y-111000000D03*
X173240000Y-56500000D03*
X173240000Y-111000000D03*
D11*
X133760000Y-65970000D03*
X136300000Y-65970000D03*
X138840000Y-65970000D03*
X141380000Y-65970000D03*
X143920000Y-65970000D03*
D12*
X149000000Y-53960000D03*
D11*
X149000000Y-59040000D03*
D13*
X149000000Y-65970000D03*
D11*
X169320000Y-65970000D03*
X171860000Y-65970000D03*
X174400000Y-65970000D03*
X176940000Y-65970000D03*
X179480000Y-65970000D03*
D14*
X133760000Y-68510000D03*
X136300000Y-68510000D03*
X138840000Y-68510000D03*
X141380000Y-68510000D03*
X143920000Y-68510000D03*
X149000000Y-51420000D03*
X149000000Y-56500000D03*
D15*
X149000000Y-68510000D03*
D14*
X169320000Y-68510000D03*
X171860000Y-68510000D03*
X174400000Y-68510000D03*
X176940000Y-68510000D03*
X179480000Y-68510000D03*
X133760000Y-71050000D03*
X136300000Y-71050000D03*
X138840000Y-71050000D03*
X141380000Y-71050000D03*
X143920000Y-71050000D03*
D15*
X149000000Y-71050000D03*
D14*
X151540000Y-53960000D03*
X151540000Y-59040000D03*
X169320000Y-71050000D03*
X171860000Y-71050000D03*
X174400000Y-71050000D03*
X176940000Y-71050000D03*
X179480000Y-71050000D03*
X133760000Y-73590000D03*
X136300000Y-73590000D03*
X138840000Y-73590000D03*
X141380000Y-73590000D03*
X143920000Y-73590000D03*
D15*
X149000000Y-73590000D03*
D14*
X151540000Y-51420000D03*
X151540000Y-56500000D03*
X169320000Y-73590000D03*
X171860000Y-73590000D03*
X174400000Y-73590000D03*
X176940000Y-73590000D03*
X179480000Y-73590000D03*
X133760000Y-76130000D03*
X136300000Y-76130000D03*
X138840000Y-76130000D03*
X141380000Y-76130000D03*
X143920000Y-76130000D03*
D15*
X149000000Y-76130000D03*
D14*
X154080000Y-53960000D03*
X154080000Y-59040000D03*
X169320000Y-76130000D03*
X171860000Y-76130000D03*
X174400000Y-76130000D03*
X176940000Y-76130000D03*
X179480000Y-76130000D03*
X133760000Y-78670000D03*
X136300000Y-78670000D03*
X138840000Y-78670000D03*
X141380000Y-78670000D03*
X143920000Y-78670000D03*
D15*
X149000000Y-78670000D03*
D14*
X154080000Y-51420000D03*
X154080000Y-56500000D03*
X169320000Y-78670000D03*
X171860000Y-78670000D03*
X174400000Y-78670000D03*
X176940000Y-78670000D03*
X179480000Y-78670000D03*
X133760000Y-81210000D03*
X136300000Y-81210000D03*
X138840000Y-81210000D03*
X141380000Y-81210000D03*
X143920000Y-81210000D03*
D15*
X149000000Y-81210000D03*
D14*
X156620000Y-53960000D03*
X156620000Y-59040000D03*
X169320000Y-81210000D03*
X171860000Y-81210000D03*
X174400000Y-81210000D03*
X176940000Y-81210000D03*
X179480000Y-81210000D03*
X133760000Y-83750000D03*
X136300000Y-83750000D03*
X138840000Y-83750000D03*
X141380000Y-83750000D03*
X143920000Y-83750000D03*
D15*
X149000000Y-83750000D03*
D14*
X156620000Y-51420000D03*
X156620000Y-56500000D03*
X169320000Y-83750000D03*
X171860000Y-83750000D03*
X174400000Y-83750000D03*
X176940000Y-83750000D03*
X179480000Y-83750000D03*
X133760000Y-86290000D03*
X136300000Y-86290000D03*
X138840000Y-86290000D03*
X141380000Y-86290000D03*
X143920000Y-86290000D03*
D15*
X149000000Y-86290000D03*
D14*
X159160000Y-53960000D03*
X159160000Y-59040000D03*
X169320000Y-86290000D03*
X171860000Y-86290000D03*
X174400000Y-86290000D03*
X176940000Y-86290000D03*
X179480000Y-86290000D03*
X133760000Y-88830000D03*
X136300000Y-88830000D03*
X138840000Y-88830000D03*
X141380000Y-88830000D03*
X143920000Y-88830000D03*
D15*
X149000000Y-88830000D03*
D14*
X159160000Y-51420000D03*
X159160000Y-56500000D03*
X169320000Y-88830000D03*
X171860000Y-88830000D03*
X174400000Y-88830000D03*
X176940000Y-88830000D03*
X179480000Y-88830000D03*
X133760000Y-91370000D03*
X136300000Y-91370000D03*
X138840000Y-91370000D03*
X141380000Y-91370000D03*
X143920000Y-91370000D03*
D15*
X149000000Y-91370000D03*
D14*
X161700000Y-53960000D03*
X161700000Y-59040000D03*
X169320000Y-91370000D03*
X171860000Y-91370000D03*
X174400000Y-91370000D03*
X176940000Y-91370000D03*
X179480000Y-91370000D03*
X133760000Y-93910000D03*
X136300000Y-93910000D03*
X138840000Y-93910000D03*
X141380000Y-93910000D03*
X143920000Y-93910000D03*
D15*
X149000000Y-93910000D03*
D14*
X161700000Y-51420000D03*
X161700000Y-56500000D03*
X169320000Y-93910000D03*
X171860000Y-93910000D03*
X174400000Y-93910000D03*
X176940000Y-93910000D03*
X179480000Y-93910000D03*
X133760000Y-96450000D03*
X136300000Y-96450000D03*
X138840000Y-96450000D03*
X141380000Y-96450000D03*
X143920000Y-96450000D03*
D15*
X149000000Y-96450000D03*
D14*
X164240000Y-53960000D03*
X164240000Y-59040000D03*
X169320000Y-96450000D03*
X171860000Y-96450000D03*
X174400000Y-96450000D03*
X176940000Y-96450000D03*
X179480000Y-96450000D03*
X133760000Y-98990000D03*
X136300000Y-98990000D03*
X138840000Y-98990000D03*
X141380000Y-98990000D03*
X143920000Y-98990000D03*
D15*
X149000000Y-98990000D03*
D14*
X164240000Y-51420000D03*
X164240000Y-56500000D03*
X169320000Y-98990000D03*
X171860000Y-98990000D03*
X174400000Y-98990000D03*
X176940000Y-98990000D03*
X179480000Y-98990000D03*
X133760000Y-101530000D03*
X136300000Y-101530000D03*
X138840000Y-101530000D03*
X141380000Y-101530000D03*
X143920000Y-101530000D03*
D15*
X149000000Y-101530000D03*
D14*
X169320000Y-101530000D03*
X171860000Y-101530000D03*
X174400000Y-101530000D03*
X176940000Y-101530000D03*
X179480000Y-101530000D03*
D15*
X164240000Y-101530000D03*
X164240000Y-98990000D03*
X164240000Y-96450000D03*
X164240000Y-93910000D03*
X164240000Y-91370000D03*
X164240000Y-88830000D03*
X164240000Y-86290000D03*
X164240000Y-83750000D03*
X164240000Y-81210000D03*
X164240000Y-78670000D03*
X164240000Y-76130000D03*
X164240000Y-73590000D03*
X164240000Y-71050000D03*
X164240000Y-68510000D03*
X164240000Y-65970000D03*
%TD*%
M02*
