%TF.GenerationSoftware,KiCad,Pcbnew,9.0.0*%
%TF.CreationDate,2025-10-27T21:43:03+01:00*%
%TF.ProjectId,nano breakout,6e616e6f-2062-4726-9561-6b6f75742e6b,rev?*%
%TF.SameCoordinates,Original*%
%TF.FileFunction,Copper,L1,Top*%
%TF.FilePolarity,Positive*%
%FSLAX46Y46*%
G04 Gerber Fmt 4.6, Leading zero omitted, Abs format (unit mm)*
G04 Created by KiCad (PCBNEW 9.0.0) date 2025-10-27 21:43:03*
%MOMM*%
%LPD*%
G01*
G04 APERTURE LIST*
%TA.AperFunction,ComponentPad*%
%ADD10R,1.700000X1.700000*%
%TD*%
%TA.AperFunction,ComponentPad*%
%ADD11C,1.700000*%
%TD*%
%TA.AperFunction,ComponentPad*%
%ADD12R,1.600000X1.600000*%
%TD*%
%TA.AperFunction,ComponentPad*%
%ADD13O,1.700000X1.700000*%
%TD*%
%TA.AperFunction,ComponentPad*%
%ADD14O,1.600000X1.600000*%
%TD*%
%TA.AperFunction,Conductor*%
%ADD15C,0.200000*%
%TD*%
G04 APERTURE END LIST*
D10*
%TO.P,REF\u002A\u002A,1*%
%TO.N,N/C*%
X133760000Y-65970000D03*
X136300000Y-65970000D03*
X138840000Y-65970000D03*
X141380000Y-65970000D03*
X143920000Y-65970000D03*
D11*
X149000000Y-53960000D03*
D10*
X149000000Y-59040000D03*
D12*
X149000000Y-65970000D03*
D10*
X169320000Y-65970000D03*
X171860000Y-65970000D03*
X174400000Y-65970000D03*
X176940000Y-65970000D03*
X179480000Y-65970000D03*
D13*
%TO.P,REF\u002A\u002A,2*%
X133760000Y-68510000D03*
X136300000Y-68510000D03*
X138840000Y-68510000D03*
X141380000Y-68510000D03*
X143920000Y-68510000D03*
X149000000Y-51420000D03*
X149000000Y-56500000D03*
D14*
X149000000Y-68510000D03*
D13*
X169320000Y-68510000D03*
X171860000Y-68510000D03*
X174400000Y-68510000D03*
X176940000Y-68510000D03*
X179480000Y-68510000D03*
%TO.P,REF\u002A\u002A,3*%
X133760000Y-71050000D03*
X136300000Y-71050000D03*
X138840000Y-71050000D03*
X141380000Y-71050000D03*
X143920000Y-71050000D03*
D14*
X149000000Y-71050000D03*
D13*
X151540000Y-53960000D03*
X151540000Y-59040000D03*
X169320000Y-71050000D03*
X171860000Y-71050000D03*
X174400000Y-71050000D03*
X176940000Y-71050000D03*
X179480000Y-71050000D03*
%TO.P,REF\u002A\u002A,4*%
X133760000Y-73590000D03*
X136300000Y-73590000D03*
X138840000Y-73590000D03*
X141380000Y-73590000D03*
X143920000Y-73590000D03*
D14*
X149000000Y-73590000D03*
D13*
X151540000Y-51420000D03*
X151540000Y-56500000D03*
X169320000Y-73590000D03*
X171860000Y-73590000D03*
X174400000Y-73590000D03*
X176940000Y-73590000D03*
X179480000Y-73590000D03*
%TO.P,REF\u002A\u002A,5*%
X133760000Y-76130000D03*
X136300000Y-76130000D03*
X138840000Y-76130000D03*
X141380000Y-76130000D03*
X143920000Y-76130000D03*
D14*
X149000000Y-76130000D03*
D13*
X154080000Y-53960000D03*
X154080000Y-59040000D03*
X169320000Y-76130000D03*
X171860000Y-76130000D03*
X174400000Y-76130000D03*
X176940000Y-76130000D03*
X179480000Y-76130000D03*
%TO.P,REF\u002A\u002A,6*%
X133760000Y-78670000D03*
X136300000Y-78670000D03*
X138840000Y-78670000D03*
X141380000Y-78670000D03*
X143920000Y-78670000D03*
D14*
X149000000Y-78670000D03*
D13*
X154080000Y-51420000D03*
X154080000Y-56500000D03*
X169320000Y-78670000D03*
X171860000Y-78670000D03*
X174400000Y-78670000D03*
X176940000Y-78670000D03*
X179480000Y-78670000D03*
%TO.P,REF\u002A\u002A,7*%
X133760000Y-81210000D03*
X136300000Y-81210000D03*
X138840000Y-81210000D03*
X141380000Y-81210000D03*
X143920000Y-81210000D03*
D14*
X149000000Y-81210000D03*
D13*
X156620000Y-53960000D03*
X156620000Y-59040000D03*
X169320000Y-81210000D03*
X171860000Y-81210000D03*
X174400000Y-81210000D03*
X176940000Y-81210000D03*
X179480000Y-81210000D03*
%TO.P,REF\u002A\u002A,8*%
X133760000Y-83750000D03*
X136300000Y-83750000D03*
X138840000Y-83750000D03*
X141380000Y-83750000D03*
X143920000Y-83750000D03*
D14*
X149000000Y-83750000D03*
D13*
X156620000Y-51420000D03*
X156620000Y-56500000D03*
X169320000Y-83750000D03*
X171860000Y-83750000D03*
X174400000Y-83750000D03*
X176940000Y-83750000D03*
X179480000Y-83750000D03*
%TO.P,REF\u002A\u002A,9*%
X133760000Y-86290000D03*
X136300000Y-86290000D03*
X138840000Y-86290000D03*
X141380000Y-86290000D03*
X143920000Y-86290000D03*
D14*
X149000000Y-86290000D03*
D13*
X159160000Y-53960000D03*
X159160000Y-59040000D03*
X169320000Y-86290000D03*
X171860000Y-86290000D03*
X174400000Y-86290000D03*
X176940000Y-86290000D03*
X179480000Y-86290000D03*
%TO.P,REF\u002A\u002A,10*%
X133760000Y-88830000D03*
X136300000Y-88830000D03*
X138840000Y-88830000D03*
X141380000Y-88830000D03*
X143920000Y-88830000D03*
D14*
X149000000Y-88830000D03*
D13*
X159160000Y-51420000D03*
X159160000Y-56500000D03*
X169320000Y-88830000D03*
X171860000Y-88830000D03*
X174400000Y-88830000D03*
X176940000Y-88830000D03*
X179480000Y-88830000D03*
%TO.P,REF\u002A\u002A,11*%
X133760000Y-91370000D03*
X136300000Y-91370000D03*
X138840000Y-91370000D03*
X141380000Y-91370000D03*
X143920000Y-91370000D03*
D14*
X149000000Y-91370000D03*
D13*
X161700000Y-53960000D03*
X161700000Y-59040000D03*
X169320000Y-91370000D03*
X171860000Y-91370000D03*
X174400000Y-91370000D03*
X176940000Y-91370000D03*
X179480000Y-91370000D03*
%TO.P,REF\u002A\u002A,12*%
X133760000Y-93910000D03*
X136300000Y-93910000D03*
X138840000Y-93910000D03*
X141380000Y-93910000D03*
X143920000Y-93910000D03*
D14*
X149000000Y-93910000D03*
D13*
X161700000Y-51420000D03*
X161700000Y-56500000D03*
X169320000Y-93910000D03*
X171860000Y-93910000D03*
X174400000Y-93910000D03*
X176940000Y-93910000D03*
X179480000Y-93910000D03*
%TO.P,REF\u002A\u002A,13*%
X133760000Y-96450000D03*
X136300000Y-96450000D03*
X138840000Y-96450000D03*
X141380000Y-96450000D03*
X143920000Y-96450000D03*
D14*
X149000000Y-96450000D03*
D13*
X164240000Y-53960000D03*
X164240000Y-59040000D03*
X169320000Y-96450000D03*
X171860000Y-96450000D03*
X174400000Y-96450000D03*
X176940000Y-96450000D03*
X179480000Y-96450000D03*
%TO.P,REF\u002A\u002A,14*%
X133760000Y-98990000D03*
X136300000Y-98990000D03*
X138840000Y-98990000D03*
X141380000Y-98990000D03*
X143920000Y-98990000D03*
D14*
X149000000Y-98990000D03*
D13*
X164240000Y-51420000D03*
X164240000Y-56500000D03*
X169320000Y-98990000D03*
X171860000Y-98990000D03*
X174400000Y-98990000D03*
X176940000Y-98990000D03*
X179480000Y-98990000D03*
%TO.P,REF\u002A\u002A,15*%
X133760000Y-101530000D03*
X136300000Y-101530000D03*
X138840000Y-101530000D03*
X141380000Y-101530000D03*
X143920000Y-101530000D03*
D14*
X149000000Y-101530000D03*
D13*
X169320000Y-101530000D03*
X171860000Y-101530000D03*
X174400000Y-101530000D03*
X176940000Y-101530000D03*
X179480000Y-101530000D03*
D14*
%TO.P,REF\u002A\u002A,16*%
X164240000Y-101530000D03*
%TO.P,REF\u002A\u002A,17*%
X164240000Y-98990000D03*
%TO.P,REF\u002A\u002A,18*%
X164240000Y-96450000D03*
%TO.P,REF\u002A\u002A,19*%
X164240000Y-93910000D03*
%TO.P,REF\u002A\u002A,20*%
X164240000Y-91370000D03*
%TO.P,REF\u002A\u002A,21*%
X164240000Y-88830000D03*
%TO.P,REF\u002A\u002A,22*%
X164240000Y-86290000D03*
%TO.P,REF\u002A\u002A,23*%
X164240000Y-83750000D03*
%TO.P,REF\u002A\u002A,24*%
X164240000Y-81210000D03*
%TO.P,REF\u002A\u002A,25*%
X164240000Y-78670000D03*
%TO.P,REF\u002A\u002A,26*%
X164240000Y-76130000D03*
%TO.P,REF\u002A\u002A,27*%
X164240000Y-73590000D03*
%TO.P,REF\u002A\u002A,28*%
X164240000Y-71050000D03*
%TO.P,REF\u002A\u002A,29*%
X164240000Y-68510000D03*
%TO.P,REF\u002A\u002A,30*%
X164240000Y-65970000D03*
%TD*%
D15*
%TO.N,*%
X179480000Y-81210000D02*
X164240000Y-81210000D01*
X151540000Y-59040000D02*
X151540000Y-51420000D01*
X179480000Y-65970000D02*
X164240000Y-65970000D01*
X179480000Y-86290000D02*
X164240000Y-86290000D01*
X133760000Y-71050000D02*
X149000000Y-71050000D01*
X156620000Y-59040000D02*
X156620000Y-51420000D01*
X149000000Y-78670000D02*
X133760000Y-78670000D01*
X164240000Y-83750000D02*
X179480000Y-83750000D01*
X161700000Y-59040000D02*
X161700000Y-51420000D01*
X164240000Y-93910000D02*
X179480000Y-93910000D01*
X179480000Y-101530000D02*
X164240000Y-101530000D01*
X149000000Y-93910000D02*
X133760000Y-93910000D01*
X133760000Y-91370000D02*
X149000000Y-91370000D01*
X159160000Y-51420000D02*
X159160000Y-59040000D01*
X179480000Y-71050000D02*
X164240000Y-71050000D01*
X133760000Y-81210000D02*
X149000000Y-81210000D01*
X164240000Y-98990000D02*
X179480000Y-98990000D01*
X149000000Y-88830000D02*
X133760000Y-88830000D01*
X133760000Y-86290000D02*
X149000000Y-86290000D01*
X164240000Y-51420000D02*
X164240000Y-59040000D01*
X149000000Y-83750000D02*
X133760000Y-83750000D01*
X133760000Y-101530000D02*
X149000000Y-101530000D01*
X179480000Y-96450000D02*
X164240000Y-96450000D01*
X164240000Y-68510000D02*
X179480000Y-68510000D01*
X164240000Y-73590000D02*
X179480000Y-73590000D01*
X133760000Y-96450000D02*
X149000000Y-96450000D01*
X179480000Y-91370000D02*
X164240000Y-91370000D01*
X164240000Y-88830000D02*
X179480000Y-88830000D01*
X149000000Y-68510000D02*
X133760000Y-68510000D01*
X133760000Y-76130000D02*
X149000000Y-76130000D01*
X154080000Y-51420000D02*
X154080000Y-59040000D01*
X149000000Y-73590000D02*
X133760000Y-73590000D01*
X149000000Y-98990000D02*
X133760000Y-98990000D01*
X133760000Y-65970000D02*
X149000000Y-65970000D01*
X179480000Y-76130000D02*
X164240000Y-76130000D01*
X164240000Y-78670000D02*
X179480000Y-78670000D01*
X149000000Y-51420000D02*
X149000000Y-59040000D01*
%TD*%
M02*
