M48
; DRILL file {KiCad 8.0.3} date 2024-06-28T16:21:35+0200
; FORMAT={-:-/ absolute / inch / decimal}
; #@! TF.CreationDate,2024-06-28T16:21:35+02:00
; #@! TF.GenerationSoftware,Kicad,Pcbnew,8.0.3
; #@! TF.FileFunction,Plated,1,2,PTH
FMAT,2
INCH
; #@! TA.AperFunction,Plated,PTH,ComponentDrill
T1C0.0394
%
G90
G05
T1
X4.83Y-2.9331
X4.83Y-3.13
X4.83Y-4.23
X4.83Y-4.4269
X4.93Y-2.9331
X4.93Y-3.13
X4.93Y-4.23
X4.93Y-4.4269
X5.03Y-2.9331
X5.03Y-3.13
X5.03Y-4.23
X5.03Y-4.4269
X5.0804Y-5.2856
X5.13Y-2.9331
X5.13Y-3.13
X5.13Y-4.23
X5.13Y-4.4269
X5.1804Y-5.2856
X5.23Y-2.9331
X5.23Y-3.13
X5.23Y-4.23
X5.23Y-4.4269
X5.2804Y-5.2856
X5.33Y-2.9331
X5.33Y-3.13
X5.33Y-4.23
X5.33Y-4.4269
X5.3804Y-5.2856
X5.43Y-2.9331
X5.43Y-3.13
X5.43Y-4.23
X5.43Y-4.4269
X5.4804Y-5.2856
X5.53Y-2.9331
X5.53Y-3.13
X5.53Y-4.23
X5.53Y-4.4269
X5.5804Y-5.2856
X5.63Y-2.9331
X5.63Y-3.13
X5.63Y-4.23
X5.63Y-4.4269
X5.6804Y-5.2856
X5.73Y-2.9331
X5.73Y-3.13
X5.73Y-4.23
X5.73Y-4.4269
X5.7804Y-5.2856
X5.83Y-2.9331
X5.83Y-3.13
X5.83Y-4.23
X5.83Y-4.4269
X5.93Y-2.9331
X5.93Y-3.13
X5.93Y-4.23
X5.93Y-4.4269
X6.03Y-2.9331
X6.03Y-3.13
X6.03Y-4.23
X6.03Y-4.4269
X6.13Y-2.9331
X6.13Y-3.13
X6.13Y-4.23
X6.13Y-4.4269
X6.23Y-2.9331
X6.23Y-3.13
X6.23Y-4.23
X6.23Y-4.4269
X6.33Y-2.9331
X6.33Y-3.13
X6.33Y-4.23
X6.33Y-4.4269
X6.43Y-2.9331
X6.43Y-3.13
X6.43Y-4.23
X6.43Y-4.4269
X6.53Y-2.9331
X6.53Y-3.13
X6.53Y-4.23
X6.53Y-4.4269
X6.63Y-2.9331
X6.63Y-3.13
X6.63Y-4.23
X6.63Y-4.4269
X6.7073Y-5.01
X6.8073Y-5.01
X6.9073Y-5.01
X7.0073Y-5.01
X7.0465Y-3.1813
X7.1073Y-5.01
X7.1465Y-3.1813
X7.2073Y-5.01
X7.2465Y-3.1813
X7.3465Y-3.1813
X7.4465Y-3.1813
M30
